G75*
%MOIN*%
%OFA0B0*%
%FSLAX24Y24*%
%IPPOS*%
%LPD*%
%AMOC8*
5,1,8,0,0,1.08239X$1,22.5*
%
%ADD10C,0.1261*%
%ADD11R,0.3033X0.0671*%
%ADD12R,0.2639X0.0474*%
%ADD13OC8,0.0760*%
%ADD14C,0.0820*%
%ADD15OC8,0.0740*%
%ADD16OC8,0.0780*%
%ADD17C,0.0780*%
%ADD18C,0.0680*%
%ADD19C,0.0640*%
D10*
X010905Y005519D03*
X010905Y015362D03*
X026260Y015362D03*
X026260Y005519D03*
D11*
X006412Y009050D03*
X006412Y011806D03*
D12*
X006609Y010821D03*
X006609Y010034D03*
D13*
X020280Y008909D03*
X021280Y008909D03*
X022280Y008909D03*
X023280Y008909D03*
X023280Y011909D03*
X022280Y011909D03*
X021280Y011909D03*
X020280Y011909D03*
D14*
X016781Y012206D03*
X015535Y012170D03*
X013816Y012206D03*
X013883Y013325D03*
X010883Y013325D03*
X010816Y012206D03*
X010362Y010837D03*
X010386Y009670D03*
X010855Y008520D03*
X011412Y007005D03*
X013855Y008520D03*
X014386Y009670D03*
X014362Y010837D03*
X015535Y008170D03*
X016781Y008206D03*
X015412Y007005D03*
X025203Y006966D03*
X025203Y007966D03*
X025203Y008966D03*
X025203Y009966D03*
X025203Y010966D03*
X025203Y011966D03*
X025203Y012966D03*
X025203Y013966D03*
X017334Y015543D03*
X016334Y015543D03*
X015334Y015543D03*
D15*
X015448Y013375D03*
X016448Y013375D03*
X017278Y007010D03*
X017278Y006010D03*
X019268Y006010D03*
X019268Y007010D03*
D16*
X018459Y012505D03*
D17*
X018459Y013505D03*
D18*
X020129Y013028D02*
X020729Y013028D01*
X022689Y013028D02*
X023289Y013028D01*
X023289Y014808D02*
X022689Y014808D01*
X020729Y014808D02*
X020129Y014808D01*
D19*
X013709Y014793D03*
X013209Y015543D03*
X012709Y014793D03*
M02*
