G75*
%MOIN*%
%OFA0B0*%
%FSLAX24Y24*%
%IPPOS*%
%LPD*%
%AMOC8*
5,1,8,0,0,1.08239X$1,22.5*
%
%ADD10C,0.0000*%
D10*
X009878Y004503D02*
X027233Y004503D01*
X027233Y016325D01*
X009878Y016325D01*
X009878Y012782D01*
X004834Y012782D01*
X004834Y008046D01*
X009878Y008046D01*
X009878Y004503D01*
X010314Y005519D02*
X010316Y005567D01*
X010322Y005615D01*
X010332Y005662D01*
X010345Y005708D01*
X010363Y005753D01*
X010383Y005797D01*
X010408Y005839D01*
X010436Y005878D01*
X010466Y005915D01*
X010500Y005949D01*
X010537Y005981D01*
X010575Y006010D01*
X010616Y006035D01*
X010659Y006057D01*
X010704Y006075D01*
X010750Y006089D01*
X010797Y006100D01*
X010845Y006107D01*
X010893Y006110D01*
X010941Y006109D01*
X010989Y006104D01*
X011037Y006095D01*
X011083Y006083D01*
X011128Y006066D01*
X011172Y006046D01*
X011214Y006023D01*
X011254Y005996D01*
X011292Y005966D01*
X011327Y005933D01*
X011359Y005897D01*
X011389Y005859D01*
X011415Y005818D01*
X011437Y005775D01*
X011457Y005731D01*
X011472Y005686D01*
X011484Y005639D01*
X011492Y005591D01*
X011496Y005543D01*
X011496Y005495D01*
X011492Y005447D01*
X011484Y005399D01*
X011472Y005352D01*
X011457Y005307D01*
X011437Y005263D01*
X011415Y005220D01*
X011389Y005179D01*
X011359Y005141D01*
X011327Y005105D01*
X011292Y005072D01*
X011254Y005042D01*
X011214Y005015D01*
X011172Y004992D01*
X011128Y004972D01*
X011083Y004955D01*
X011037Y004943D01*
X010989Y004934D01*
X010941Y004929D01*
X010893Y004928D01*
X010845Y004931D01*
X010797Y004938D01*
X010750Y004949D01*
X010704Y004963D01*
X010659Y004981D01*
X010616Y005003D01*
X010575Y005028D01*
X010537Y005057D01*
X010500Y005089D01*
X010466Y005123D01*
X010436Y005160D01*
X010408Y005199D01*
X010383Y005241D01*
X010363Y005285D01*
X010345Y005330D01*
X010332Y005376D01*
X010322Y005423D01*
X010316Y005471D01*
X010314Y005519D01*
X010314Y015362D02*
X010316Y015410D01*
X010322Y015458D01*
X010332Y015505D01*
X010345Y015551D01*
X010363Y015596D01*
X010383Y015640D01*
X010408Y015682D01*
X010436Y015721D01*
X010466Y015758D01*
X010500Y015792D01*
X010537Y015824D01*
X010575Y015853D01*
X010616Y015878D01*
X010659Y015900D01*
X010704Y015918D01*
X010750Y015932D01*
X010797Y015943D01*
X010845Y015950D01*
X010893Y015953D01*
X010941Y015952D01*
X010989Y015947D01*
X011037Y015938D01*
X011083Y015926D01*
X011128Y015909D01*
X011172Y015889D01*
X011214Y015866D01*
X011254Y015839D01*
X011292Y015809D01*
X011327Y015776D01*
X011359Y015740D01*
X011389Y015702D01*
X011415Y015661D01*
X011437Y015618D01*
X011457Y015574D01*
X011472Y015529D01*
X011484Y015482D01*
X011492Y015434D01*
X011496Y015386D01*
X011496Y015338D01*
X011492Y015290D01*
X011484Y015242D01*
X011472Y015195D01*
X011457Y015150D01*
X011437Y015106D01*
X011415Y015063D01*
X011389Y015022D01*
X011359Y014984D01*
X011327Y014948D01*
X011292Y014915D01*
X011254Y014885D01*
X011214Y014858D01*
X011172Y014835D01*
X011128Y014815D01*
X011083Y014798D01*
X011037Y014786D01*
X010989Y014777D01*
X010941Y014772D01*
X010893Y014771D01*
X010845Y014774D01*
X010797Y014781D01*
X010750Y014792D01*
X010704Y014806D01*
X010659Y014824D01*
X010616Y014846D01*
X010575Y014871D01*
X010537Y014900D01*
X010500Y014932D01*
X010466Y014966D01*
X010436Y015003D01*
X010408Y015042D01*
X010383Y015084D01*
X010363Y015128D01*
X010345Y015173D01*
X010332Y015219D01*
X010322Y015266D01*
X010316Y015314D01*
X010314Y015362D01*
X025669Y015362D02*
X025671Y015410D01*
X025677Y015458D01*
X025687Y015505D01*
X025700Y015551D01*
X025718Y015596D01*
X025738Y015640D01*
X025763Y015682D01*
X025791Y015721D01*
X025821Y015758D01*
X025855Y015792D01*
X025892Y015824D01*
X025930Y015853D01*
X025971Y015878D01*
X026014Y015900D01*
X026059Y015918D01*
X026105Y015932D01*
X026152Y015943D01*
X026200Y015950D01*
X026248Y015953D01*
X026296Y015952D01*
X026344Y015947D01*
X026392Y015938D01*
X026438Y015926D01*
X026483Y015909D01*
X026527Y015889D01*
X026569Y015866D01*
X026609Y015839D01*
X026647Y015809D01*
X026682Y015776D01*
X026714Y015740D01*
X026744Y015702D01*
X026770Y015661D01*
X026792Y015618D01*
X026812Y015574D01*
X026827Y015529D01*
X026839Y015482D01*
X026847Y015434D01*
X026851Y015386D01*
X026851Y015338D01*
X026847Y015290D01*
X026839Y015242D01*
X026827Y015195D01*
X026812Y015150D01*
X026792Y015106D01*
X026770Y015063D01*
X026744Y015022D01*
X026714Y014984D01*
X026682Y014948D01*
X026647Y014915D01*
X026609Y014885D01*
X026569Y014858D01*
X026527Y014835D01*
X026483Y014815D01*
X026438Y014798D01*
X026392Y014786D01*
X026344Y014777D01*
X026296Y014772D01*
X026248Y014771D01*
X026200Y014774D01*
X026152Y014781D01*
X026105Y014792D01*
X026059Y014806D01*
X026014Y014824D01*
X025971Y014846D01*
X025930Y014871D01*
X025892Y014900D01*
X025855Y014932D01*
X025821Y014966D01*
X025791Y015003D01*
X025763Y015042D01*
X025738Y015084D01*
X025718Y015128D01*
X025700Y015173D01*
X025687Y015219D01*
X025677Y015266D01*
X025671Y015314D01*
X025669Y015362D01*
X025669Y005519D02*
X025671Y005567D01*
X025677Y005615D01*
X025687Y005662D01*
X025700Y005708D01*
X025718Y005753D01*
X025738Y005797D01*
X025763Y005839D01*
X025791Y005878D01*
X025821Y005915D01*
X025855Y005949D01*
X025892Y005981D01*
X025930Y006010D01*
X025971Y006035D01*
X026014Y006057D01*
X026059Y006075D01*
X026105Y006089D01*
X026152Y006100D01*
X026200Y006107D01*
X026248Y006110D01*
X026296Y006109D01*
X026344Y006104D01*
X026392Y006095D01*
X026438Y006083D01*
X026483Y006066D01*
X026527Y006046D01*
X026569Y006023D01*
X026609Y005996D01*
X026647Y005966D01*
X026682Y005933D01*
X026714Y005897D01*
X026744Y005859D01*
X026770Y005818D01*
X026792Y005775D01*
X026812Y005731D01*
X026827Y005686D01*
X026839Y005639D01*
X026847Y005591D01*
X026851Y005543D01*
X026851Y005495D01*
X026847Y005447D01*
X026839Y005399D01*
X026827Y005352D01*
X026812Y005307D01*
X026792Y005263D01*
X026770Y005220D01*
X026744Y005179D01*
X026714Y005141D01*
X026682Y005105D01*
X026647Y005072D01*
X026609Y005042D01*
X026569Y005015D01*
X026527Y004992D01*
X026483Y004972D01*
X026438Y004955D01*
X026392Y004943D01*
X026344Y004934D01*
X026296Y004929D01*
X026248Y004928D01*
X026200Y004931D01*
X026152Y004938D01*
X026105Y004949D01*
X026059Y004963D01*
X026014Y004981D01*
X025971Y005003D01*
X025930Y005028D01*
X025892Y005057D01*
X025855Y005089D01*
X025821Y005123D01*
X025791Y005160D01*
X025763Y005199D01*
X025738Y005241D01*
X025718Y005285D01*
X025700Y005330D01*
X025687Y005376D01*
X025677Y005423D01*
X025671Y005471D01*
X025669Y005519D01*
M02*
