%
M48
M72
T01C0.03200
T02C0.03543
T03C0.04000
T04C0.07874
T05C0.08661
%
T01
X150282Y50098
X150282Y60098
X150260Y69544
X150260Y79544
X167798Y72844
X177798Y72844
X187798Y72844
X197798Y72844
X197798Y102844
X187798Y102844
X177798Y102844
X167798Y102844
X167910Y113042
X167910Y123042
X149593Y122554
X149593Y112554
T02
X79119Y53795
X73554Y68951
X68865Y80451
X68619Y92124
X73164Y105809
X73832Y116996
X103832Y116996
X103164Y105809
X120345Y105451
X132806Y105813
X108619Y92124
X108865Y80451
X103554Y68951
X120345Y65451
X132806Y65813
X119119Y53795
T03
X217034Y53411
X217034Y63411
X217034Y73411
X217034Y83411
X217034Y93411
X217034Y103411
X217034Y113411
X217034Y123411
T04
X163343Y54804
T05
X228968Y131054
X72718Y131054
M30
