G75*
%MOIN*%
%OFA0B0*%
%FSLAX26Y26*%
%IPPOS*%
%LPD*%
%AMOC8*
5,1,8,0,0,1.08239X$1,22.5*
%
%ADD10OC8,0.068000*%
%ADD11C,0.074000*%
%ADD12OC8,0.066000*%
%ADD13OC8,0.070000*%
%ADD14C,0.070000*%
%ADD15C,0.070866*%
D10*
X01394551Y00324154D03*
X01494551Y00324154D03*
X01594551Y00324154D03*
X01694551Y00324154D03*
X01694551Y00624154D03*
X01594551Y00624154D03*
X01494551Y00624154D03*
X01394551Y00624154D03*
D11*
X00452106Y00285217D03*
X00405217Y00400217D03*
X00402756Y00516949D03*
X00448209Y00653799D03*
X00454886Y00765673D03*
X00754886Y00765673D03*
X00748209Y00653799D03*
X00920020Y00650217D03*
X01044626Y00653839D03*
X00802756Y00516949D03*
X00805217Y00400217D03*
X00752106Y00285217D03*
X00920020Y00250217D03*
X01044626Y00253839D03*
X00907756Y00133661D03*
X00507756Y00133661D03*
D12*
X01219390Y00096693D03*
X01219390Y00196693D03*
X01219163Y00291152D03*
X01219163Y00391152D03*
X01395669Y00726126D03*
X01395669Y00826126D03*
D13*
X01212500Y00721250D03*
D14*
X01212500Y00821250D03*
D15*
X01852067Y00829688D02*
X01922933Y00829688D01*
X01922933Y00729688D02*
X01852067Y00729688D01*
X01852067Y00629688D02*
X01922933Y00629688D01*
X01922933Y00529688D02*
X01852067Y00529688D01*
X01852067Y00429688D02*
X01922933Y00429688D01*
X01922933Y00329688D02*
X01852067Y00329688D01*
X01852067Y00229688D02*
X01922933Y00229688D01*
X01922933Y00129688D02*
X01852067Y00129688D01*
M02*
