G75*
%MOIN*%
%OFA0B0*%
%FSLAX26Y26*%
%IPPOS*%
%LPD*%
%AMOC8*
5,1,8,0,0,1.08239X$1,22.5*
%
%ADD10R,0.295276X0.059055*%
%ADD11R,0.255906X0.039370*%
%ADD12OC8,0.068000*%
%ADD13C,0.074000*%
%ADD14OC8,0.066000*%
%ADD15OC8,0.070000*%
%ADD16C,0.070000*%
%ADD17C,0.070866*%
%ADD18C,0.040000*%
%ADD19C,0.016000*%
%ADD20C,0.032000*%
%ADD21C,0.024000*%
%ADD22C,0.005000*%
D10*
X00145276Y00338189D03*
X00145276Y00613780D03*
D11*
X00164961Y00515354D03*
X00164961Y00436614D03*
D12*
X01394551Y00324154D03*
X01494551Y00324154D03*
X01594551Y00324154D03*
X01694551Y00324154D03*
X01694551Y00624154D03*
X01594551Y00624154D03*
X01494551Y00624154D03*
X01394551Y00624154D03*
D13*
X01044626Y00653839D03*
X00920020Y00650217D03*
X00748209Y00653799D03*
X00754886Y00765673D03*
X00454886Y00765673D03*
X00448209Y00653799D03*
X00402756Y00516949D03*
X00405217Y00400217D03*
X00452106Y00285217D03*
X00507756Y00133661D03*
X00752106Y00285217D03*
X00920020Y00250217D03*
X01044626Y00253839D03*
X00907756Y00133661D03*
X00805217Y00400217D03*
X00802756Y00516949D03*
D14*
X01219163Y00391152D03*
X01219163Y00291152D03*
X01219390Y00196693D03*
X01219390Y00096693D03*
X01395669Y00726126D03*
X01395669Y00826126D03*
D15*
X01212500Y00721250D03*
D16*
X01212500Y00821250D03*
D17*
X01852067Y00829688D02*
X01922933Y00829688D01*
X01922933Y00729688D02*
X01852067Y00729688D01*
X01852067Y00629688D02*
X01922933Y00629688D01*
X01922933Y00529688D02*
X01852067Y00529688D01*
X01852067Y00429688D02*
X01922933Y00429688D01*
X01922933Y00329688D02*
X01852067Y00329688D01*
X01852067Y00229688D02*
X01922933Y00229688D01*
X01922933Y00129688D02*
X01852067Y00129688D01*
D18*
X01887500Y00129823D02*
X01887500Y00129688D01*
X01887500Y00129823D02*
X01482677Y00129823D01*
X01394551Y00217949D01*
X01394551Y00324154D01*
X01493750Y00324955D02*
X01493750Y00381250D01*
X01475000Y00400000D01*
X01228012Y00400000D01*
X01219163Y00391152D01*
X01287500Y00462500D02*
X01300000Y00450000D01*
X01562500Y00450000D01*
X01612500Y00400000D01*
X01675000Y00400000D01*
X01687500Y00387500D01*
X01687500Y00331205D01*
X01594551Y00324154D02*
X01594551Y00280449D01*
X01618750Y00256250D01*
X01756250Y00256250D01*
X01825000Y00325000D01*
X01834375Y00325000D01*
X01834375Y00329688D01*
X01887500Y00329688D01*
X01886909Y00329688D01*
X01882087Y00325000D02*
X01846875Y00325000D01*
X01846875Y00326563D01*
X01846875Y00325000D02*
X01834375Y00325000D01*
X01843750Y00231250D02*
X01850000Y00231250D01*
X01851563Y00229688D01*
X01887500Y00229688D01*
X01886909Y00229688D01*
X01885482Y00231250D02*
X01850000Y00231250D01*
X01843750Y00231250D02*
X01806250Y00193750D01*
X01550000Y00193750D01*
X01494551Y00249199D01*
X01494551Y00324154D01*
X01287500Y00462500D02*
X01112500Y00462500D01*
X01012500Y00387500D01*
X00912500Y00387500D01*
X00837500Y00312500D01*
X00837500Y00213406D01*
X00907756Y00133661D01*
X00907756Y00129744D02*
X00962500Y00075000D01*
X01197697Y00075000D01*
X01219390Y00096693D02*
X01272333Y00043750D01*
X01962500Y00043750D01*
X02000000Y00081250D01*
X02000000Y00675000D01*
X01950000Y00725000D01*
X01892188Y00725000D01*
X01887500Y00729688D01*
X01892188Y00725000D02*
X01787500Y00725000D01*
X01650000Y00862500D01*
X01432043Y00862500D01*
X01395669Y00826126D01*
X01390793Y00821250D02*
X01212500Y00821250D01*
X01208750Y00825000D02*
X01075000Y00825000D01*
X01015673Y00765673D01*
X00754886Y00765673D01*
X00787500Y00600000D02*
X00725000Y00537500D01*
X00725000Y00437500D01*
X00762500Y00400000D01*
X00805000Y00400000D01*
X00875000Y00475000D02*
X01000000Y00475000D01*
X01087500Y00525000D01*
X01300000Y00525000D01*
X01325000Y00500000D01*
X01562500Y00500000D01*
X01600000Y00537500D01*
X01625000Y00512500D01*
X01675000Y00512500D01*
X01757677Y00429823D01*
X01887500Y00429823D01*
X01887500Y00429688D01*
X01886909Y00429688D01*
X01887500Y00529688D02*
X01885938Y00531250D01*
X01775000Y00531250D01*
X01694551Y00611699D01*
X01694551Y00624154D01*
X01725000Y00700000D02*
X01787500Y00637500D01*
X01806250Y00625000D01*
X01810938Y00629688D01*
X01887500Y00629688D01*
X01882087Y00625000D02*
X01806250Y00625000D01*
X01725000Y00700000D02*
X01537500Y00700000D01*
X01500000Y00662500D01*
X01500000Y00618705D01*
X01500000Y00575000D01*
X01475000Y00550000D01*
X01350000Y00550000D01*
X01312500Y00587500D01*
X01062500Y00587500D01*
X01025000Y00562500D01*
X00875000Y00562500D01*
X00837500Y00600000D01*
X00787500Y00600000D01*
X00802756Y00516949D02*
X00833051Y00516949D01*
X00875000Y00475000D01*
X00537500Y00437500D02*
X00537500Y00212500D01*
X00512500Y00187500D01*
X00507756Y00183661D02*
X00507756Y00133661D01*
X00450000Y00050000D02*
X00412500Y00087500D01*
X00400000Y00087500D01*
X00425000Y00062500D01*
X00400000Y00087500D02*
X00400000Y00212500D01*
X00450000Y00287323D02*
X00450000Y00387500D01*
X00437500Y00400000D01*
X00405433Y00400000D01*
X00405217Y00400217D01*
X00368819Y00436614D01*
X00164961Y00436614D01*
X00164961Y00515354D02*
X00401161Y00515354D01*
X00402756Y00516949D02*
X00448209Y00562402D01*
X00448209Y00653799D01*
X00375000Y00650000D02*
X00375000Y00693750D01*
X00446923Y00765673D01*
X00375000Y00650000D02*
X00337500Y00612500D01*
X00312500Y00612500D01*
X00311220Y00613780D02*
X00145276Y00613780D01*
X00458051Y00516949D02*
X00537500Y00437500D01*
X00374311Y00338189D02*
X00145276Y00338189D01*
X00462500Y00050000D02*
X00750000Y00050000D01*
X00750000Y00062500D02*
X00750000Y00283110D01*
X00920020Y00242480D02*
X01000000Y00162500D01*
X01185197Y00162500D01*
X01219390Y00196693D01*
X01150000Y00287500D02*
X01116339Y00253839D01*
X01044626Y00253839D01*
X01150000Y00287500D02*
X01215512Y00287500D01*
X01600000Y00537500D02*
X01600000Y00618705D01*
X01500000Y00618705D02*
X01494551Y00624154D01*
D19*
X01493750Y00324955D02*
X01494551Y00324154D01*
X00920020Y00250217D02*
X00920020Y00242480D01*
X00752106Y00285217D02*
X00750000Y00283110D01*
X00512500Y00187500D02*
X00511594Y00187500D01*
X00507756Y00183661D01*
X00750000Y00062500D02*
X00750000Y00050000D01*
X00401161Y00515354D02*
X00402756Y00516949D01*
X00750000Y00762500D02*
X00753173Y00765673D01*
X00754886Y00765673D01*
D20*
X00454886Y00765673D02*
X00446923Y00765673D01*
X00311220Y00613780D02*
X00312500Y00612500D01*
X00237500Y00612500D01*
X00231250Y00606250D01*
X00402756Y00516949D02*
X00458051Y00516949D01*
X00374311Y00338189D02*
X00374311Y00313189D01*
X00400000Y00212500D01*
X00907756Y00133661D02*
X00907756Y00129744D01*
X01197697Y00075000D02*
X01219390Y00096693D01*
X01215512Y00287500D02*
X01219163Y00291152D01*
X01687500Y00331205D02*
X01694551Y00324154D01*
X01600000Y00618705D02*
X01594551Y00624154D01*
X01395669Y00826126D02*
X01390793Y00821250D01*
X01212500Y00821250D02*
X01208750Y00825000D01*
D21*
X00805217Y00400217D02*
X00805000Y00400000D01*
X00837500Y00325000D02*
X00837500Y00312500D01*
X00452106Y00285217D02*
X00450000Y00287323D01*
X00405217Y00394783D02*
X00405217Y00400217D01*
D22*
X00371831Y00000000D02*
X02072362Y00000000D01*
X02072362Y00004999D02*
X00371831Y00004999D01*
X00371831Y00009997D02*
X01263667Y00009997D01*
X01265470Y00009250D02*
X01969362Y00009250D01*
X01982043Y00014502D01*
X01991748Y00024207D01*
X02029248Y00061707D01*
X02034500Y00074387D01*
X02034500Y00681862D01*
X02029248Y00694543D01*
X01979248Y00744543D01*
X01969543Y00754248D01*
X01966240Y00755615D01*
X01965264Y00757972D01*
X01951218Y00772019D01*
X01932865Y00779620D01*
X01842134Y00779620D01*
X01823782Y00772019D01*
X01811264Y00759500D01*
X01801790Y00759500D01*
X01669543Y00891748D01*
X01656862Y00897000D01*
X01425181Y00897000D01*
X01412501Y00891748D01*
X01402796Y00882043D01*
X01402796Y00882042D02*
X01394379Y00873626D01*
X01375994Y00873626D01*
X01358118Y00855750D01*
X01248003Y00855750D01*
X01240539Y00863214D01*
X01222346Y00870750D01*
X01202654Y00870750D01*
X01184461Y00863214D01*
X01180746Y00859500D01*
X01068137Y00859500D01*
X01055457Y00854248D01*
X01045752Y00844543D01*
X01045752Y00844542D02*
X01001383Y00800173D01*
X00793218Y00800173D01*
X00784058Y00809333D01*
X00765130Y00817173D01*
X00744642Y00817173D01*
X00725713Y00809333D01*
X00711226Y00794846D01*
X00703386Y00775917D01*
X00703386Y00755429D01*
X00711226Y00736501D01*
X00725713Y00722014D01*
X00744642Y00714173D01*
X00765130Y00714173D01*
X00784058Y00722014D01*
X00793218Y00731173D01*
X01022536Y00731173D01*
X01035216Y00736426D01*
X01044921Y00746131D01*
X01089290Y00790500D01*
X01173246Y00790500D01*
X01184461Y00779286D01*
X01202654Y00771750D01*
X01222346Y00771750D01*
X01240539Y00779286D01*
X01248003Y00786750D01*
X01367870Y00786750D01*
X01375994Y00778626D01*
X01415344Y00778626D01*
X01443169Y00806451D01*
X01443169Y00824836D01*
X01446333Y00828000D01*
X01635710Y00828000D01*
X01729210Y00734500D01*
X01530637Y00734500D01*
X01517957Y00729248D01*
X01508252Y00719543D01*
X01470752Y00682043D01*
X01465500Y00669362D01*
X01465500Y00663691D01*
X01446051Y00644243D01*
X01446051Y00604064D01*
X01463163Y00586953D01*
X01460710Y00584500D01*
X01364290Y00584500D01*
X01341748Y00607043D01*
X01332043Y00616748D01*
X01319362Y00622000D01*
X01065916Y00622000D01*
X01062537Y00622676D01*
X01059120Y00622000D01*
X01055637Y00622000D01*
X01052453Y00620681D01*
X01049073Y00620012D01*
X01046175Y00618080D01*
X01042957Y00616748D01*
X01040520Y00614311D01*
X01014554Y00597000D01*
X00889290Y00597000D01*
X00857043Y00629248D01*
X00844362Y00634500D01*
X00780637Y00634500D01*
X00767957Y00629248D01*
X00705457Y00566748D01*
X00695752Y00557043D01*
X00690500Y00544362D01*
X00690500Y00430637D01*
X00695752Y00417957D01*
X00742957Y00370752D01*
X00755637Y00365500D01*
X00767101Y00365500D01*
X00776044Y00356557D01*
X00794972Y00348717D01*
X00815461Y00348717D01*
X00831620Y00355410D01*
X00824514Y00348304D01*
X00822489Y00347466D01*
X00815034Y00340011D01*
X00814195Y00337986D01*
X00808252Y00332043D01*
X00803000Y00319362D01*
X00803000Y00214496D01*
X00802636Y00208734D01*
X00803000Y00207669D01*
X00803000Y00206543D01*
X00805209Y00201211D01*
X00807077Y00195748D01*
X00807821Y00194903D01*
X00808252Y00193863D01*
X00812333Y00189782D01*
X00856256Y00139927D01*
X00856256Y00123417D01*
X00864096Y00104489D01*
X00878583Y00090002D01*
X00897512Y00082161D01*
X00906548Y00082161D01*
X00933252Y00055457D01*
X00942957Y00045752D01*
X00955637Y00040500D01*
X01204559Y00040500D01*
X01217239Y00045752D01*
X01219390Y00047903D01*
X01252790Y00014502D01*
X01265470Y00009250D01*
X01252297Y00014996D02*
X00371831Y00014996D01*
X00371831Y00019994D02*
X01247298Y00019994D01*
X01242300Y00024993D02*
X00371831Y00024993D01*
X00371831Y00029991D02*
X01237301Y00029991D01*
X01232303Y00034990D02*
X00371831Y00034990D01*
X00371831Y00039988D02*
X01227304Y00039988D01*
X01222306Y00044987D02*
X01215391Y00044987D01*
X00944806Y00044987D02*
X00371831Y00044987D01*
X00371831Y00049985D02*
X00938724Y00049985D01*
X00933726Y00054984D02*
X00371831Y00054984D01*
X00371831Y00059982D02*
X00928727Y00059982D01*
X00923729Y00064981D02*
X00371831Y00064981D01*
X00371831Y00069979D02*
X00918730Y00069979D01*
X00913732Y00074978D02*
X00371831Y00074978D01*
X00371831Y00079976D02*
X00908733Y00079976D01*
X00890719Y00084975D02*
X00524792Y00084975D01*
X00518000Y00082161D02*
X00536928Y00090002D01*
X00551415Y00104489D01*
X00559256Y00123417D01*
X00559256Y00143905D01*
X00551415Y00162834D01*
X00544020Y00170229D01*
X00566748Y00192957D01*
X00572000Y00205637D01*
X00572000Y00444362D01*
X00566748Y00457043D01*
X00557043Y00466748D01*
X00478474Y00545316D01*
X00482709Y00555539D01*
X00482709Y00615467D01*
X00491868Y00624627D01*
X00499709Y00643555D01*
X00499709Y00664043D01*
X00491868Y00682972D01*
X00477381Y00697459D01*
X00458453Y00705299D01*
X00437965Y00705299D01*
X00433483Y00703443D01*
X00444339Y00714299D01*
X00444642Y00714173D01*
X00465130Y00714173D01*
X00484058Y00722014D01*
X00498545Y00736501D01*
X00506386Y00755429D01*
X00506386Y00775917D01*
X00498545Y00794846D01*
X00484058Y00809333D01*
X00465130Y00817173D01*
X00444642Y00817173D01*
X00425713Y00809333D01*
X00411226Y00794846D01*
X00403386Y00775917D01*
X00403386Y00770926D01*
X00372057Y00739598D01*
X00374936Y00969902D01*
X02072362Y00969902D01*
X02072362Y-00021870D01*
X00371831Y-00021870D01*
X00371831Y00245044D01*
X00365949Y00250925D01*
X00367378Y00365223D01*
X00376044Y00356557D01*
X00394972Y00348717D01*
X00415461Y00348717D01*
X00415500Y00348733D01*
X00415500Y00321442D01*
X00408447Y00314389D01*
X00400606Y00295461D01*
X00400606Y00274972D01*
X00408447Y00256044D01*
X00422934Y00241557D01*
X00441862Y00233717D01*
X00462350Y00233717D01*
X00481279Y00241557D01*
X00495766Y00256044D01*
X00503000Y00273509D01*
X00503000Y00226790D01*
X00489759Y00213549D01*
X00488213Y00212909D01*
X00478508Y00203204D01*
X00473256Y00190524D01*
X00473256Y00171993D01*
X00464096Y00162834D01*
X00456256Y00143905D01*
X00456256Y00123417D01*
X00464096Y00104489D01*
X00478583Y00090002D01*
X00497512Y00082161D01*
X00518000Y00082161D01*
X00536860Y00089973D02*
X00878652Y00089973D01*
X00873613Y00094972D02*
X00541898Y00094972D01*
X00546897Y00099970D02*
X00868615Y00099970D01*
X00863897Y00104969D02*
X00551614Y00104969D01*
X00553685Y00109968D02*
X00861827Y00109968D01*
X00859757Y00114966D02*
X00555755Y00114966D01*
X00557826Y00119965D02*
X00857686Y00119965D01*
X00856256Y00124963D02*
X00559256Y00124963D01*
X00559256Y00129962D02*
X00856256Y00129962D01*
X00856256Y00134960D02*
X00559256Y00134960D01*
X00559256Y00139959D02*
X00856228Y00139959D01*
X00851825Y00144957D02*
X00558820Y00144957D01*
X00556750Y00149956D02*
X00847421Y00149956D01*
X00843017Y00154954D02*
X00554679Y00154954D01*
X00552609Y00159953D02*
X00838613Y00159953D01*
X00834209Y00164951D02*
X00549298Y00164951D01*
X00544299Y00169950D02*
X00829806Y00169950D01*
X00825402Y00174948D02*
X00548738Y00174948D01*
X00553737Y00179947D02*
X00820998Y00179947D01*
X00816594Y00184945D02*
X00558735Y00184945D01*
X00563734Y00189944D02*
X00812171Y00189944D01*
X00807787Y00194942D02*
X00567570Y00194942D01*
X00569640Y00199941D02*
X00805643Y00199941D01*
X00803664Y00204939D02*
X00571711Y00204939D01*
X00572000Y00209938D02*
X00802712Y00209938D01*
X00803000Y00214937D02*
X00572000Y00214937D01*
X00572000Y00219935D02*
X00803000Y00219935D01*
X00803000Y00224934D02*
X00572000Y00224934D01*
X00572000Y00229932D02*
X00803000Y00229932D01*
X00803000Y00234931D02*
X00572000Y00234931D01*
X00572000Y00239929D02*
X00803000Y00239929D01*
X00803000Y00244928D02*
X00572000Y00244928D01*
X00572000Y00249926D02*
X00803000Y00249926D01*
X00803000Y00254925D02*
X00572000Y00254925D01*
X00572000Y00259923D02*
X00803000Y00259923D01*
X00803000Y00264922D02*
X00572000Y00264922D01*
X00572000Y00269920D02*
X00803000Y00269920D01*
X00803000Y00274919D02*
X00572000Y00274919D01*
X00572000Y00279917D02*
X00803000Y00279917D01*
X00803000Y00284916D02*
X00572000Y00284916D01*
X00572000Y00289914D02*
X00803000Y00289914D01*
X00803000Y00294913D02*
X00572000Y00294913D01*
X00572000Y00299911D02*
X00803000Y00299911D01*
X00803000Y00304910D02*
X00572000Y00304910D01*
X00572000Y00309908D02*
X00803000Y00309908D01*
X00803000Y00314907D02*
X00572000Y00314907D01*
X00572000Y00319906D02*
X00803225Y00319906D01*
X00805296Y00324904D02*
X00572000Y00324904D01*
X00572000Y00329903D02*
X00807366Y00329903D01*
X00811111Y00334901D02*
X00572000Y00334901D01*
X00572000Y00339900D02*
X00814988Y00339900D01*
X00819922Y00344898D02*
X00572000Y00344898D01*
X00572000Y00349897D02*
X00792123Y00349897D01*
X00780056Y00354895D02*
X00572000Y00354895D01*
X00572000Y00359894D02*
X00772707Y00359894D01*
X00767709Y00364892D02*
X00572000Y00364892D01*
X00572000Y00369891D02*
X00745037Y00369891D01*
X00738820Y00374889D02*
X00572000Y00374889D01*
X00572000Y00379888D02*
X00733822Y00379888D01*
X00728823Y00384886D02*
X00572000Y00384886D01*
X00572000Y00389885D02*
X00723825Y00389885D01*
X00718826Y00394883D02*
X00572000Y00394883D01*
X00572000Y00399882D02*
X00713828Y00399882D01*
X00708829Y00404880D02*
X00572000Y00404880D01*
X00572000Y00409879D02*
X00703831Y00409879D01*
X00698832Y00414877D02*
X00572000Y00414877D01*
X00572000Y00419876D02*
X00694958Y00419876D01*
X00692887Y00424875D02*
X00572000Y00424875D01*
X00572000Y00429873D02*
X00690817Y00429873D01*
X00690500Y00434872D02*
X00572000Y00434872D01*
X00572000Y00439870D02*
X00690500Y00439870D01*
X00690500Y00444869D02*
X00571790Y00444869D01*
X00569720Y00449867D02*
X00690500Y00449867D01*
X00690500Y00454866D02*
X00567649Y00454866D01*
X00563926Y00459864D02*
X00690500Y00459864D01*
X00690500Y00464863D02*
X00558927Y00464863D01*
X00553929Y00469861D02*
X00690500Y00469861D01*
X00690500Y00474860D02*
X00548930Y00474860D01*
X00543932Y00479858D02*
X00690500Y00479858D01*
X00690500Y00484857D02*
X00538933Y00484857D01*
X00533935Y00489855D02*
X00690500Y00489855D01*
X00690500Y00494854D02*
X00528936Y00494854D01*
X00523938Y00499852D02*
X00690500Y00499852D01*
X00690500Y00504851D02*
X00518939Y00504851D01*
X00513941Y00509849D02*
X00690500Y00509849D01*
X00690500Y00514848D02*
X00508942Y00514848D01*
X00503944Y00519846D02*
X00690500Y00519846D01*
X00690500Y00524845D02*
X00498945Y00524845D01*
X00493947Y00529844D02*
X00690500Y00529844D01*
X00690500Y00534842D02*
X00488948Y00534842D01*
X00483950Y00539841D02*
X00690500Y00539841D01*
X00690697Y00544839D02*
X00478951Y00544839D01*
X00480347Y00549838D02*
X00692768Y00549838D01*
X00694838Y00554836D02*
X00482417Y00554836D01*
X00482709Y00559835D02*
X00698544Y00559835D01*
X00703543Y00564833D02*
X00482709Y00564833D01*
X00482709Y00569832D02*
X00708541Y00569832D01*
X00713540Y00574830D02*
X00482709Y00574830D01*
X00482709Y00579829D02*
X00718539Y00579829D01*
X00723537Y00584827D02*
X00482709Y00584827D01*
X00482709Y00589826D02*
X00728536Y00589826D01*
X00733534Y00594824D02*
X00482709Y00594824D01*
X00482709Y00599823D02*
X00738533Y00599823D01*
X00743531Y00604821D02*
X00482709Y00604821D01*
X00482709Y00609820D02*
X00748530Y00609820D01*
X00753528Y00614818D02*
X00482709Y00614818D01*
X00487058Y00619817D02*
X00758527Y00619817D01*
X00763525Y00624815D02*
X00491946Y00624815D01*
X00494017Y00629814D02*
X00769325Y00629814D01*
X00855675Y00629814D02*
X01446051Y00629814D01*
X01446051Y00624815D02*
X00861475Y00624815D01*
X00866473Y00619817D02*
X01048780Y00619817D01*
X01041028Y00614818D02*
X00871472Y00614818D01*
X00876470Y00609820D02*
X01033784Y00609820D01*
X01026287Y00604821D02*
X00881469Y00604821D01*
X00886467Y00599823D02*
X01018789Y00599823D01*
X00791829Y00729784D02*
X01519254Y00729784D01*
X01513496Y00724786D02*
X00786830Y00724786D01*
X00778683Y00719787D02*
X01508497Y00719787D01*
X01503499Y00714789D02*
X00766616Y00714789D01*
X00743155Y00714789D02*
X00466616Y00714789D01*
X00459677Y00704792D02*
X01493502Y00704792D01*
X01498500Y00709790D02*
X00439830Y00709790D01*
X00436740Y00704792D02*
X00434832Y00704792D01*
X00471745Y00699793D02*
X01488503Y00699793D01*
X01483505Y00694795D02*
X00480045Y00694795D01*
X00485043Y00689796D02*
X01478506Y00689796D01*
X01473508Y00684798D02*
X00490042Y00684798D01*
X00493182Y00679799D02*
X01469823Y00679799D01*
X01467753Y00674801D02*
X00495253Y00674801D01*
X00497323Y00669802D02*
X01465682Y00669802D01*
X01465500Y00664804D02*
X00499394Y00664804D01*
X00499709Y00659805D02*
X01461614Y00659805D01*
X01456615Y00654807D02*
X00499709Y00654807D01*
X00499709Y00649808D02*
X01451617Y00649808D01*
X01446618Y00644810D02*
X00499709Y00644810D01*
X00498158Y00639811D02*
X01446051Y00639811D01*
X01446051Y00634813D02*
X00496087Y00634813D01*
X00478683Y00719787D02*
X00731088Y00719787D01*
X00722941Y00724786D02*
X00486830Y00724786D01*
X00491829Y00729784D02*
X00717943Y00729784D01*
X00712944Y00734783D02*
X00496828Y00734783D01*
X00499904Y00739781D02*
X00709867Y00739781D01*
X00707797Y00744780D02*
X00501975Y00744780D01*
X00504045Y00749779D02*
X00705726Y00749779D01*
X00703656Y00754777D02*
X00506116Y00754777D01*
X00506386Y00759776D02*
X00703386Y00759776D01*
X00703386Y00764774D02*
X00506386Y00764774D01*
X00506386Y00769773D02*
X00703386Y00769773D01*
X00703386Y00774771D02*
X00506386Y00774771D01*
X00504790Y00779770D02*
X00704982Y00779770D01*
X00707052Y00784768D02*
X00502719Y00784768D01*
X00500649Y00789767D02*
X00709123Y00789767D01*
X00711193Y00794765D02*
X00498579Y00794765D01*
X00493627Y00799764D02*
X00716144Y00799764D01*
X00721143Y00804762D02*
X00488629Y00804762D01*
X00483025Y00809761D02*
X00726747Y00809761D01*
X00738814Y00814759D02*
X00470957Y00814759D01*
X00438814Y00814759D02*
X00372997Y00814759D01*
X00372934Y00809761D02*
X00426747Y00809761D01*
X00421143Y00804762D02*
X00372872Y00804762D01*
X00372809Y00799764D02*
X00416144Y00799764D01*
X00411193Y00794765D02*
X00372747Y00794765D01*
X00372685Y00789767D02*
X00409123Y00789767D01*
X00407052Y00784768D02*
X00372622Y00784768D01*
X00372560Y00779770D02*
X00404982Y00779770D01*
X00403386Y00774771D02*
X00372497Y00774771D01*
X00372435Y00769773D02*
X00402233Y00769773D01*
X00397234Y00764774D02*
X00372372Y00764774D01*
X00372310Y00759776D02*
X00392235Y00759776D01*
X00387237Y00754777D02*
X00372247Y00754777D01*
X00372185Y00749779D02*
X00382238Y00749779D01*
X00377240Y00744780D02*
X00372122Y00744780D01*
X00372060Y00739781D02*
X00372241Y00739781D01*
X00373059Y00819758D02*
X01020968Y00819758D01*
X01025966Y00824756D02*
X00373122Y00824756D01*
X00373184Y00829755D02*
X01030965Y00829755D01*
X01035963Y00834753D02*
X00373247Y00834753D01*
X00373309Y00839752D02*
X01040962Y00839752D01*
X01045752Y00844543D02*
X01045752Y00844542D01*
X01045960Y00844750D02*
X00373372Y00844750D01*
X00373434Y00849749D02*
X00421259Y00849749D01*
X00431655Y00845443D02*
X00455845Y00845443D01*
X00478194Y00854700D01*
X00495300Y00871805D01*
X00504557Y00894155D01*
X00504557Y00918345D01*
X00495300Y00940694D01*
X00478194Y00957800D01*
X00455845Y00967057D01*
X00431655Y00967057D01*
X00409305Y00957800D01*
X00392200Y00940694D01*
X00382943Y00918345D01*
X00382943Y00894155D01*
X00392200Y00871805D01*
X00409305Y00854700D01*
X00431655Y00845443D01*
X00409258Y00854748D02*
X00373497Y00854748D01*
X00373559Y00859746D02*
X00404260Y00859746D01*
X00399261Y00864745D02*
X00373622Y00864745D01*
X00373684Y00869743D02*
X00394263Y00869743D01*
X00390984Y00874742D02*
X00373747Y00874742D01*
X00373809Y00879740D02*
X00388914Y00879740D01*
X00386843Y00884739D02*
X00373872Y00884739D01*
X00373934Y00889737D02*
X00384773Y00889737D01*
X00382943Y00894736D02*
X00373997Y00894736D01*
X00374059Y00899734D02*
X00382943Y00899734D01*
X00382943Y00904733D02*
X00374122Y00904733D01*
X00374184Y00909731D02*
X00382943Y00909731D01*
X00382943Y00914730D02*
X00374247Y00914730D01*
X00374309Y00919728D02*
X00383516Y00919728D01*
X00385586Y00924727D02*
X00374372Y00924727D01*
X00374434Y00929725D02*
X00387657Y00929725D01*
X00389727Y00934724D02*
X00374496Y00934724D01*
X00374559Y00939722D02*
X00391798Y00939722D01*
X00396227Y00944721D02*
X00374621Y00944721D01*
X00374684Y00949719D02*
X00401225Y00949719D01*
X00406224Y00954718D02*
X00374746Y00954718D01*
X00374809Y00959717D02*
X00413933Y00959717D01*
X00426001Y00964715D02*
X00374871Y00964715D01*
X00374934Y00969714D02*
X02072362Y00969714D01*
X02072362Y00964715D02*
X02023999Y00964715D01*
X02018345Y00967057D02*
X01994155Y00967057D01*
X01971805Y00957800D01*
X01954700Y00940694D01*
X01945443Y00918345D01*
X01945443Y00894155D01*
X01954700Y00871805D01*
X01971805Y00854700D01*
X01994155Y00845443D01*
X02018345Y00845443D01*
X02040694Y00854700D01*
X02057800Y00871805D01*
X02067057Y00894155D01*
X02067057Y00918345D01*
X02057800Y00940694D01*
X02040694Y00957800D01*
X02018345Y00967057D01*
X02036067Y00959717D02*
X02072362Y00959717D01*
X02072362Y00954718D02*
X02043776Y00954718D01*
X02048775Y00949719D02*
X02072362Y00949719D01*
X02072362Y00944721D02*
X02053773Y00944721D01*
X02058202Y00939722D02*
X02072362Y00939722D01*
X02072362Y00934724D02*
X02060273Y00934724D01*
X02062343Y00929725D02*
X02072362Y00929725D01*
X02072362Y00924727D02*
X02064414Y00924727D01*
X02066484Y00919728D02*
X02072362Y00919728D01*
X02072362Y00914730D02*
X02067057Y00914730D01*
X02067057Y00909731D02*
X02072362Y00909731D01*
X02072362Y00904733D02*
X02067057Y00904733D01*
X02067057Y00899734D02*
X02072362Y00899734D01*
X02072362Y00894736D02*
X02067057Y00894736D01*
X02065227Y00889737D02*
X02072362Y00889737D01*
X02072362Y00884739D02*
X02063157Y00884739D01*
X02061086Y00879740D02*
X02072362Y00879740D01*
X02072362Y00874742D02*
X02059016Y00874742D01*
X02055737Y00869743D02*
X02072362Y00869743D01*
X02072362Y00864745D02*
X02050739Y00864745D01*
X02045740Y00859746D02*
X02072362Y00859746D01*
X02072362Y00854748D02*
X02040742Y00854748D01*
X02028741Y00849749D02*
X02072362Y00849749D01*
X02072362Y00844750D02*
X01716540Y00844750D01*
X01721538Y00839752D02*
X02072362Y00839752D01*
X02072362Y00834753D02*
X01726537Y00834753D01*
X01731535Y00829755D02*
X02072362Y00829755D01*
X02072362Y00824756D02*
X01736534Y00824756D01*
X01741532Y00819758D02*
X02072362Y00819758D01*
X02072362Y00814759D02*
X01746531Y00814759D01*
X01751529Y00809761D02*
X02072362Y00809761D01*
X02072362Y00804762D02*
X01756528Y00804762D01*
X01761526Y00799764D02*
X02072362Y00799764D01*
X02072362Y00794765D02*
X01766525Y00794765D01*
X01771523Y00789767D02*
X02072362Y00789767D01*
X02072362Y00784768D02*
X01776522Y00784768D01*
X01781520Y00779770D02*
X02072362Y00779770D01*
X02072362Y00774771D02*
X01944573Y00774771D01*
X01953464Y00769773D02*
X02072362Y00769773D01*
X02072362Y00764774D02*
X01958462Y00764774D01*
X01963461Y00759776D02*
X02072362Y00759776D01*
X02072362Y00754777D02*
X01968264Y00754777D01*
X01974012Y00749779D02*
X02072362Y00749779D01*
X02072362Y00744780D02*
X01979010Y00744780D01*
X01984009Y00739781D02*
X02072362Y00739781D01*
X02072362Y00734783D02*
X01989007Y00734783D01*
X01994006Y00729784D02*
X02072362Y00729784D01*
X02072362Y00724786D02*
X01999004Y00724786D01*
X02004003Y00719787D02*
X02072362Y00719787D01*
X02072362Y00714789D02*
X02009001Y00714789D01*
X02014000Y00709790D02*
X02072362Y00709790D01*
X02072362Y00704792D02*
X02018998Y00704792D01*
X02023997Y00699793D02*
X02072362Y00699793D01*
X02072362Y00694795D02*
X02028995Y00694795D01*
X02031214Y00689796D02*
X02072362Y00689796D01*
X02072362Y00684798D02*
X02033284Y00684798D01*
X02034500Y00679799D02*
X02072362Y00679799D01*
X02072362Y00674801D02*
X02034500Y00674801D01*
X02034500Y00669802D02*
X02072362Y00669802D01*
X02072362Y00664804D02*
X02034500Y00664804D01*
X02034500Y00659805D02*
X02072362Y00659805D01*
X02072362Y00654807D02*
X02034500Y00654807D01*
X02034500Y00649808D02*
X02072362Y00649808D01*
X02072362Y00644810D02*
X02034500Y00644810D01*
X02034500Y00639811D02*
X02072362Y00639811D01*
X02072362Y00634813D02*
X02034500Y00634813D01*
X02034500Y00629814D02*
X02072362Y00629814D01*
X02072362Y00624815D02*
X02034500Y00624815D01*
X02034500Y00619817D02*
X02072362Y00619817D01*
X02072362Y00614818D02*
X02034500Y00614818D01*
X02034500Y00609820D02*
X02072362Y00609820D01*
X02072362Y00604821D02*
X02034500Y00604821D01*
X02034500Y00599823D02*
X02072362Y00599823D01*
X02072362Y00594824D02*
X02034500Y00594824D01*
X02034500Y00589826D02*
X02072362Y00589826D01*
X02072362Y00584827D02*
X02034500Y00584827D01*
X02034500Y00579829D02*
X02072362Y00579829D01*
X02072362Y00574830D02*
X02034500Y00574830D01*
X02034500Y00569832D02*
X02072362Y00569832D01*
X02072362Y00564833D02*
X02034500Y00564833D01*
X02034500Y00559835D02*
X02072362Y00559835D01*
X02072362Y00554836D02*
X02034500Y00554836D01*
X02034500Y00549838D02*
X02072362Y00549838D01*
X02072362Y00544839D02*
X02034500Y00544839D01*
X02034500Y00539841D02*
X02072362Y00539841D01*
X02072362Y00534842D02*
X02034500Y00534842D01*
X02034500Y00529844D02*
X02072362Y00529844D01*
X02072362Y00524845D02*
X02034500Y00524845D01*
X02034500Y00519846D02*
X02072362Y00519846D01*
X02072362Y00514848D02*
X02034500Y00514848D01*
X02034500Y00509849D02*
X02072362Y00509849D01*
X02072362Y00504851D02*
X02034500Y00504851D01*
X02034500Y00499852D02*
X02072362Y00499852D01*
X02072362Y00494854D02*
X02034500Y00494854D01*
X02034500Y00489855D02*
X02072362Y00489855D01*
X02072362Y00484857D02*
X02034500Y00484857D01*
X02034500Y00479858D02*
X02072362Y00479858D01*
X02072362Y00474860D02*
X02034500Y00474860D01*
X02034500Y00469861D02*
X02072362Y00469861D01*
X02072362Y00464863D02*
X02034500Y00464863D01*
X02034500Y00459864D02*
X02072362Y00459864D01*
X02072362Y00454866D02*
X02034500Y00454866D01*
X02034500Y00449867D02*
X02072362Y00449867D01*
X02072362Y00444869D02*
X02034500Y00444869D01*
X02034500Y00439870D02*
X02072362Y00439870D01*
X02072362Y00434872D02*
X02034500Y00434872D01*
X02034500Y00429873D02*
X02072362Y00429873D01*
X02072362Y00424875D02*
X02034500Y00424875D01*
X02034500Y00419876D02*
X02072362Y00419876D01*
X02072362Y00414877D02*
X02034500Y00414877D01*
X02034500Y00409879D02*
X02072362Y00409879D01*
X02072362Y00404880D02*
X02034500Y00404880D01*
X02034500Y00399882D02*
X02072362Y00399882D01*
X02072362Y00394883D02*
X02034500Y00394883D01*
X02034500Y00389885D02*
X02072362Y00389885D01*
X02072362Y00384886D02*
X02034500Y00384886D01*
X02034500Y00379888D02*
X02072362Y00379888D01*
X02072362Y00374889D02*
X02034500Y00374889D01*
X02034500Y00369891D02*
X02072362Y00369891D01*
X02072362Y00364892D02*
X02034500Y00364892D01*
X02034500Y00359894D02*
X02072362Y00359894D01*
X02072362Y00354895D02*
X02034500Y00354895D01*
X02034500Y00349897D02*
X02072362Y00349897D01*
X02072362Y00344898D02*
X02034500Y00344898D01*
X02034500Y00339900D02*
X02072362Y00339900D01*
X02072362Y00334901D02*
X02034500Y00334901D01*
X02034500Y00329903D02*
X02072362Y00329903D01*
X02072362Y00324904D02*
X02034500Y00324904D01*
X02034500Y00319906D02*
X02072362Y00319906D01*
X02072362Y00314907D02*
X02034500Y00314907D01*
X02034500Y00309908D02*
X02072362Y00309908D01*
X02072362Y00304910D02*
X02034500Y00304910D01*
X02034500Y00299911D02*
X02072362Y00299911D01*
X02072362Y00294913D02*
X02034500Y00294913D01*
X02034500Y00289914D02*
X02072362Y00289914D01*
X02072362Y00284916D02*
X02034500Y00284916D01*
X02034500Y00279917D02*
X02072362Y00279917D01*
X02072362Y00274919D02*
X02034500Y00274919D01*
X02034500Y00269920D02*
X02072362Y00269920D01*
X02072362Y00264922D02*
X02034500Y00264922D01*
X02034500Y00259923D02*
X02072362Y00259923D01*
X02072362Y00254925D02*
X02034500Y00254925D01*
X02034500Y00249926D02*
X02072362Y00249926D01*
X02072362Y00244928D02*
X02034500Y00244928D01*
X02034500Y00239929D02*
X02072362Y00239929D01*
X02072362Y00234931D02*
X02034500Y00234931D01*
X02034500Y00229932D02*
X02072362Y00229932D01*
X02072362Y00224934D02*
X02034500Y00224934D01*
X02034500Y00219935D02*
X02072362Y00219935D01*
X02072362Y00214937D02*
X02034500Y00214937D01*
X02034500Y00209938D02*
X02072362Y00209938D01*
X02072362Y00204939D02*
X02034500Y00204939D01*
X02034500Y00199941D02*
X02072362Y00199941D01*
X02072362Y00194942D02*
X02034500Y00194942D01*
X02034500Y00189944D02*
X02072362Y00189944D01*
X02072362Y00184945D02*
X02034500Y00184945D01*
X02034500Y00179947D02*
X02072362Y00179947D01*
X02072362Y00174948D02*
X02034500Y00174948D01*
X02034500Y00169950D02*
X02072362Y00169950D01*
X02072362Y00164951D02*
X02034500Y00164951D01*
X02034500Y00159953D02*
X02072362Y00159953D01*
X02072362Y00154954D02*
X02034500Y00154954D01*
X02034500Y00149956D02*
X02072362Y00149956D01*
X02072362Y00144957D02*
X02034500Y00144957D01*
X02034500Y00139959D02*
X02072362Y00139959D01*
X02072362Y00134960D02*
X02034500Y00134960D01*
X02034500Y00129962D02*
X02072362Y00129962D01*
X02072362Y00124963D02*
X02034500Y00124963D01*
X02034500Y00119965D02*
X02072362Y00119965D01*
X02072362Y00114966D02*
X02034500Y00114966D01*
X02034500Y00109968D02*
X02072362Y00109968D01*
X02072362Y00104969D02*
X02034500Y00104969D01*
X02034500Y00099970D02*
X02072362Y00099970D01*
X02072362Y00094972D02*
X02034500Y00094972D01*
X02034500Y00089973D02*
X02072362Y00089973D01*
X02072362Y00084975D02*
X02034500Y00084975D01*
X02034500Y00079976D02*
X02072362Y00079976D01*
X02072362Y00074978D02*
X02034500Y00074978D01*
X02032674Y00069979D02*
X02072362Y00069979D01*
X02072362Y00064981D02*
X02030603Y00064981D01*
X02027523Y00059982D02*
X02072362Y00059982D01*
X02072362Y00054984D02*
X02022524Y00054984D01*
X02017525Y00049985D02*
X02072362Y00049985D01*
X02072362Y00044987D02*
X02012527Y00044987D01*
X02007528Y00039988D02*
X02072362Y00039988D01*
X02072362Y00034990D02*
X02002530Y00034990D01*
X01997531Y00029991D02*
X02072362Y00029991D01*
X02072362Y00024993D02*
X01992533Y00024993D01*
X01987534Y00019994D02*
X02072362Y00019994D01*
X02072362Y00014996D02*
X01982536Y00014996D01*
X01971166Y00009997D02*
X02072362Y00009997D01*
X02072362Y-00004999D02*
X00371831Y-00004999D01*
X00371831Y-00009997D02*
X02072362Y-00009997D01*
X02072362Y-00014996D02*
X00371831Y-00014996D01*
X00371831Y-00019994D02*
X02072362Y-00019994D01*
X01461037Y00584827D02*
X01363963Y00584827D01*
X01358964Y00589826D02*
X01460290Y00589826D01*
X01455291Y00594824D02*
X01353966Y00594824D01*
X01348967Y00599823D02*
X01450293Y00599823D01*
X01446051Y00604821D02*
X01343969Y00604821D01*
X01338970Y00609820D02*
X01446051Y00609820D01*
X01446051Y00614818D02*
X01333972Y00614818D01*
X01324633Y00619817D02*
X01446051Y00619817D01*
X01416488Y00779770D02*
X01683940Y00779770D01*
X01678941Y00784768D02*
X01421487Y00784768D01*
X01426485Y00789767D02*
X01673943Y00789767D01*
X01668944Y00794765D02*
X01431484Y00794765D01*
X01436482Y00799764D02*
X01663946Y00799764D01*
X01658947Y00804762D02*
X01441481Y00804762D01*
X01443169Y00809761D02*
X01653949Y00809761D01*
X01648950Y00814759D02*
X01443169Y00814759D01*
X01443169Y00819758D02*
X01643952Y00819758D01*
X01638953Y00824756D02*
X01443169Y00824756D01*
X01395495Y00874742D02*
X00496516Y00874742D01*
X00498586Y00879740D02*
X01400493Y00879740D01*
X01402796Y00882043D02*
X01402796Y00882042D01*
X01405492Y00884739D02*
X00500657Y00884739D01*
X00502727Y00889737D02*
X01410490Y00889737D01*
X01419715Y00894736D02*
X00504557Y00894736D01*
X00504557Y00899734D02*
X01945443Y00899734D01*
X01945443Y00894736D02*
X01662329Y00894736D01*
X01671553Y00889737D02*
X01947273Y00889737D01*
X01949343Y00884739D02*
X01676551Y00884739D01*
X01681550Y00879740D02*
X01951414Y00879740D01*
X01953484Y00874742D02*
X01686548Y00874742D01*
X01691547Y00869743D02*
X01956763Y00869743D01*
X01961761Y00864745D02*
X01696546Y00864745D01*
X01701544Y00859746D02*
X01966760Y00859746D01*
X01971758Y00854748D02*
X01706543Y00854748D01*
X01711541Y00849749D02*
X01983759Y00849749D01*
X01945443Y00904733D02*
X00504557Y00904733D01*
X00504557Y00909731D02*
X01945443Y00909731D01*
X01945443Y00914730D02*
X00504557Y00914730D01*
X00503984Y00919728D02*
X01946016Y00919728D01*
X01948086Y00924727D02*
X00501914Y00924727D01*
X00499843Y00929725D02*
X01950157Y00929725D01*
X01952227Y00934724D02*
X00497773Y00934724D01*
X00495702Y00939722D02*
X01954298Y00939722D01*
X01958727Y00944721D02*
X00491273Y00944721D01*
X00486275Y00949719D02*
X01963725Y00949719D01*
X01968724Y00954718D02*
X00481276Y00954718D01*
X00473567Y00959717D02*
X01976433Y00959717D01*
X01988501Y00964715D02*
X00461499Y00964715D01*
X00493237Y00869743D02*
X01200223Y00869743D01*
X01188156Y00864745D02*
X00488239Y00864745D01*
X00483240Y00859746D02*
X01180993Y00859746D01*
X01224777Y00869743D02*
X01372111Y00869743D01*
X01367113Y00864745D02*
X01236844Y00864745D01*
X01244007Y00859746D02*
X01362114Y00859746D01*
X01369852Y00784768D02*
X01246022Y00784768D01*
X01241023Y00779770D02*
X01374850Y00779770D01*
X01229640Y00774771D02*
X01688938Y00774771D01*
X01693937Y00769773D02*
X01068563Y00769773D01*
X01073561Y00774771D02*
X01195360Y00774771D01*
X01183977Y00779770D02*
X01078560Y00779770D01*
X01083558Y00784768D02*
X01178978Y00784768D01*
X01173980Y00789767D02*
X01088557Y00789767D01*
X01063564Y00764774D02*
X01698936Y00764774D01*
X01703934Y00759776D02*
X01058566Y00759776D01*
X01053567Y00754777D02*
X01708933Y00754777D01*
X01713931Y00749779D02*
X01048569Y00749779D01*
X01044921Y00746131D02*
X01044921Y00746131D01*
X01043570Y00744780D02*
X01718930Y00744780D01*
X01723928Y00739781D02*
X01038572Y00739781D01*
X01031250Y00734783D02*
X01728927Y00734783D01*
X01786519Y00774771D02*
X01830427Y00774771D01*
X01821536Y00769773D02*
X01791517Y00769773D01*
X01796516Y00764774D02*
X01816538Y00764774D01*
X01811539Y00759776D02*
X01801515Y00759776D01*
X01056664Y00854748D02*
X00478242Y00854748D01*
X00466241Y00849749D02*
X01050959Y00849749D01*
X01015969Y00814759D02*
X00770957Y00814759D01*
X00783025Y00809761D02*
X01010971Y00809761D01*
X01005972Y00804762D02*
X00788629Y00804762D01*
X00367709Y00364892D02*
X00367374Y00364892D01*
X00367311Y00359894D02*
X00372707Y00359894D01*
X00367249Y00354895D02*
X00380056Y00354895D01*
X00392123Y00349897D02*
X00367186Y00349897D01*
X00367124Y00344898D02*
X00415500Y00344898D01*
X00415500Y00339900D02*
X00367061Y00339900D01*
X00366999Y00334901D02*
X00415500Y00334901D01*
X00415500Y00329903D02*
X00366936Y00329903D01*
X00366874Y00324904D02*
X00415500Y00324904D01*
X00413963Y00319906D02*
X00366811Y00319906D01*
X00366749Y00314907D02*
X00408965Y00314907D01*
X00406591Y00309908D02*
X00366686Y00309908D01*
X00366624Y00304910D02*
X00404520Y00304910D01*
X00402450Y00299911D02*
X00366561Y00299911D01*
X00366499Y00294913D02*
X00400606Y00294913D01*
X00400606Y00289914D02*
X00366436Y00289914D01*
X00366374Y00284916D02*
X00400606Y00284916D01*
X00400606Y00279917D02*
X00366311Y00279917D01*
X00366249Y00274919D02*
X00400628Y00274919D01*
X00402699Y00269920D02*
X00366186Y00269920D01*
X00366124Y00264922D02*
X00404769Y00264922D01*
X00406840Y00259923D02*
X00366062Y00259923D01*
X00365999Y00254925D02*
X00409566Y00254925D01*
X00414565Y00249926D02*
X00366948Y00249926D01*
X00371831Y00244928D02*
X00419563Y00244928D01*
X00426864Y00239929D02*
X00371831Y00239929D01*
X00371831Y00234931D02*
X00438931Y00234931D01*
X00465281Y00234931D02*
X00503000Y00234931D01*
X00503000Y00239929D02*
X00477349Y00239929D01*
X00484649Y00244928D02*
X00503000Y00244928D01*
X00503000Y00249926D02*
X00489648Y00249926D01*
X00494646Y00254925D02*
X00503000Y00254925D01*
X00503000Y00259923D02*
X00497373Y00259923D01*
X00499443Y00264922D02*
X00503000Y00264922D01*
X00503000Y00269920D02*
X00501513Y00269920D01*
X00503000Y00229932D02*
X00371831Y00229932D01*
X00371831Y00224934D02*
X00501143Y00224934D01*
X00496145Y00219935D02*
X00371831Y00219935D01*
X00371831Y00214937D02*
X00491146Y00214937D01*
X00485242Y00209938D02*
X00371831Y00209938D01*
X00371831Y00204939D02*
X00480244Y00204939D01*
X00477157Y00199941D02*
X00371831Y00199941D01*
X00371831Y00194942D02*
X00475086Y00194942D01*
X00473256Y00189944D02*
X00371831Y00189944D01*
X00371831Y00184945D02*
X00473256Y00184945D01*
X00473256Y00179947D02*
X00371831Y00179947D01*
X00371831Y00174948D02*
X00473256Y00174948D01*
X00471212Y00169950D02*
X00371831Y00169950D01*
X00371831Y00164951D02*
X00466214Y00164951D01*
X00462903Y00159953D02*
X00371831Y00159953D01*
X00371831Y00154954D02*
X00460833Y00154954D01*
X00458762Y00149956D02*
X00371831Y00149956D01*
X00371831Y00144957D02*
X00456692Y00144957D01*
X00456256Y00139959D02*
X00371831Y00139959D01*
X00371831Y00134960D02*
X00456256Y00134960D01*
X00456256Y00129962D02*
X00371831Y00129962D01*
X00371831Y00124963D02*
X00456256Y00124963D01*
X00457686Y00119965D02*
X00371831Y00119965D01*
X00371831Y00114966D02*
X00459757Y00114966D01*
X00461827Y00109968D02*
X00371831Y00109968D01*
X00371831Y00104969D02*
X00463897Y00104969D01*
X00468615Y00099970D02*
X00371831Y00099970D01*
X00371831Y00094972D02*
X00473613Y00094972D01*
X00478652Y00089973D02*
X00371831Y00089973D01*
X00371831Y00084975D02*
X00490719Y00084975D01*
X00818309Y00349897D02*
X00826107Y00349897D01*
X00830377Y00354895D02*
X00831105Y00354895D01*
M02*
