G04 #@! TF.GenerationSoftware,KiCad,Pcbnew,5.1.10-88a1d61d58~90~ubuntu21.04.1*
G04 #@! TF.CreationDate,2021-07-14T16:23:23-03:00*
G04 #@! TF.ProjectId,Franzininho,4672616e-7a69-46e6-996e-686f2e6b6963,rev?*
G04 #@! TF.SameCoordinates,Original*
G04 #@! TF.FileFunction,Soldermask,Top*
G04 #@! TF.FilePolarity,Negative*
%FSLAX46Y46*%
G04 Gerber Fmt 4.6, Leading zero omitted, Abs format (unit mm)*
G04 Created by KiCad (PCBNEW 5.1.10-88a1d61d58~90~ubuntu21.04.1) date 2021-07-14 16:23:23*
%MOMM*%
%LPD*%
G01*
G04 APERTURE LIST*
%ADD10C,1.879600*%
%ADD11C,3.400000*%
%ADD12C,1.500000*%
%ADD13C,3.419200*%
%ADD14C,2.082800*%
%ADD15O,3.251200X1.727200*%
%ADD16O,1.920000X3.400000*%
%ADD17O,2.000000X2.800000*%
%ADD18C,2.000000*%
G04 APERTURE END LIST*
D10*
X144272000Y-114808000D03*
X144272000Y-117348000D03*
D11*
X132562350Y-92436100D03*
X171562350Y-92436100D03*
X171562350Y-117436100D03*
X132562350Y-117436100D03*
D12*
X125852350Y-107268600D03*
X125852350Y-102768600D03*
D13*
X125952350Y-99218600D03*
X125952350Y-110818600D03*
D14*
X128352350Y-108518600D03*
X128352350Y-106145600D03*
X128352350Y-103891600D03*
X128352350Y-101518600D03*
X132435850Y-109814100D03*
X140055850Y-109814100D03*
X132336850Y-100452100D03*
X139956850Y-100452100D03*
D10*
X146685000Y-97790000D03*
X144145000Y-97790000D03*
D14*
X141342350Y-103928100D03*
X131182350Y-103928100D03*
X141404850Y-106893100D03*
X131244850Y-106893100D03*
X131244850Y-112776000D03*
X141404850Y-112776000D03*
D10*
X149352000Y-114808000D03*
X149352000Y-117348000D03*
D14*
X147485850Y-110703100D03*
X147485850Y-100543100D03*
X140126450Y-97610500D03*
X132506450Y-97610500D03*
X144320850Y-110703100D03*
X144320850Y-100543100D03*
X168879850Y-95981100D03*
X168879850Y-98521100D03*
X168879850Y-101061100D03*
X168879850Y-103601100D03*
X168879850Y-106141100D03*
X168879850Y-108681100D03*
X168879850Y-111221100D03*
X168879850Y-113761100D03*
X143812350Y-91976100D03*
X146352350Y-91976100D03*
X148892350Y-91976100D03*
D15*
X163779200Y-96494600D03*
X157276800Y-96494600D03*
X163779200Y-91973400D03*
X157276800Y-91973400D03*
D16*
X135890000Y-93345000D03*
X140970000Y-93345000D03*
X138430000Y-93345000D03*
D17*
X164084000Y-108712000D03*
X156464000Y-101092000D03*
X161544000Y-108712000D03*
X159004000Y-101092000D03*
X159004000Y-108712000D03*
X161544000Y-101092000D03*
X156464000Y-108712000D03*
G36*
G01*
X163284000Y-99692000D02*
X164884000Y-99692000D01*
G75*
G02*
X165084000Y-99892000I0J-200000D01*
G01*
X165084000Y-102292000D01*
G75*
G02*
X164884000Y-102492000I-200000J0D01*
G01*
X163284000Y-102492000D01*
G75*
G02*
X163084000Y-102292000I0J200000D01*
G01*
X163084000Y-99892000D01*
G75*
G02*
X163284000Y-99692000I200000J0D01*
G01*
G37*
D18*
X151892000Y-99782000D03*
G36*
G01*
X151092000Y-96282000D02*
X152692000Y-96282000D01*
G75*
G02*
X152892000Y-96482000I0J-200000D01*
G01*
X152892000Y-98082000D01*
G75*
G02*
X152692000Y-98282000I-200000J0D01*
G01*
X151092000Y-98282000D01*
G75*
G02*
X150892000Y-98082000I0J200000D01*
G01*
X150892000Y-96482000D01*
G75*
G02*
X151092000Y-96282000I200000J0D01*
G01*
G37*
M02*
