G04 #@! TF.GenerationSoftware,KiCad,Pcbnew,5.1.10-88a1d61d58~90~ubuntu21.04.1*
G04 #@! TF.CreationDate,2021-07-14T16:23:23-03:00*
G04 #@! TF.ProjectId,Franzininho,4672616e-7a69-46e6-996e-686f2e6b6963,rev?*
G04 #@! TF.SameCoordinates,Original*
G04 #@! TF.FileFunction,Legend,Bot*
G04 #@! TF.FilePolarity,Positive*
%FSLAX46Y46*%
G04 Gerber Fmt 4.6, Leading zero omitted, Abs format (unit mm)*
G04 Created by KiCad (PCBNEW 5.1.10-88a1d61d58~90~ubuntu21.04.1) date 2021-07-14 16:23:23*
%MOMM*%
%LPD*%
G01*
G04 APERTURE LIST*
%ADD10C,0.250000*%
%ADD11C,0.300000*%
%ADD12C,0.010000*%
G04 APERTURE END LIST*
D10*
X137199619Y-118346761D02*
X137199619Y-118156285D01*
X137152000Y-118061047D01*
X137056761Y-117965809D01*
X136866285Y-117918190D01*
X136532952Y-117918190D01*
X136342476Y-117965809D01*
X136247238Y-118061047D01*
X136199619Y-118156285D01*
X136199619Y-118346761D01*
X136247238Y-118442000D01*
X136342476Y-118537238D01*
X136532952Y-118584857D01*
X136866285Y-118584857D01*
X137056761Y-118537238D01*
X137152000Y-118442000D01*
X137199619Y-118346761D01*
X136247238Y-117537238D02*
X136199619Y-117394380D01*
X136199619Y-117156285D01*
X136247238Y-117061047D01*
X136294857Y-117013428D01*
X136390095Y-116965809D01*
X136485333Y-116965809D01*
X136580571Y-117013428D01*
X136628190Y-117061047D01*
X136675809Y-117156285D01*
X136723428Y-117346761D01*
X136771047Y-117442000D01*
X136818666Y-117489619D01*
X136913904Y-117537238D01*
X137009142Y-117537238D01*
X137104380Y-117489619D01*
X137152000Y-117442000D01*
X137199619Y-117346761D01*
X137199619Y-117108666D01*
X137152000Y-116965809D01*
X136199619Y-116537238D02*
X137199619Y-116537238D01*
X136723428Y-116537238D02*
X136723428Y-115965809D01*
X136199619Y-115965809D02*
X137199619Y-115965809D01*
X137199619Y-115584857D02*
X136199619Y-115346761D01*
X136913904Y-115156285D01*
X136199619Y-114965809D01*
X137199619Y-114727714D01*
X136580571Y-114346761D02*
X136580571Y-113584857D01*
X137199619Y-112918190D02*
X137199619Y-112727714D01*
X137152000Y-112632476D01*
X137056761Y-112537238D01*
X136866285Y-112489619D01*
X136532952Y-112489619D01*
X136342476Y-112537238D01*
X136247238Y-112632476D01*
X136199619Y-112727714D01*
X136199619Y-112918190D01*
X136247238Y-113013428D01*
X136342476Y-113108666D01*
X136532952Y-113156285D01*
X136866285Y-113156285D01*
X137056761Y-113108666D01*
X137152000Y-113013428D01*
X137199619Y-112918190D01*
X136866285Y-112061047D02*
X135866285Y-112061047D01*
X136818666Y-112061047D02*
X136866285Y-111965809D01*
X136866285Y-111775333D01*
X136818666Y-111680095D01*
X136771047Y-111632476D01*
X136675809Y-111584857D01*
X136390095Y-111584857D01*
X136294857Y-111632476D01*
X136247238Y-111680095D01*
X136199619Y-111775333D01*
X136199619Y-111965809D01*
X136247238Y-112061047D01*
X136247238Y-110775333D02*
X136199619Y-110870571D01*
X136199619Y-111061047D01*
X136247238Y-111156285D01*
X136342476Y-111203904D01*
X136723428Y-111203904D01*
X136818666Y-111156285D01*
X136866285Y-111061047D01*
X136866285Y-110870571D01*
X136818666Y-110775333D01*
X136723428Y-110727714D01*
X136628190Y-110727714D01*
X136532952Y-111203904D01*
X136866285Y-110299142D02*
X136199619Y-110299142D01*
X136771047Y-110299142D02*
X136818666Y-110251523D01*
X136866285Y-110156285D01*
X136866285Y-110013428D01*
X136818666Y-109918190D01*
X136723428Y-109870571D01*
X136199619Y-109870571D01*
X136247238Y-108680095D02*
X136199619Y-108537238D01*
X136199619Y-108299142D01*
X136247238Y-108203904D01*
X136294857Y-108156285D01*
X136390095Y-108108666D01*
X136485333Y-108108666D01*
X136580571Y-108156285D01*
X136628190Y-108203904D01*
X136675809Y-108299142D01*
X136723428Y-108489619D01*
X136771047Y-108584857D01*
X136818666Y-108632476D01*
X136913904Y-108680095D01*
X137009142Y-108680095D01*
X137104380Y-108632476D01*
X137152000Y-108584857D01*
X137199619Y-108489619D01*
X137199619Y-108251523D01*
X137152000Y-108108666D01*
X136199619Y-107537238D02*
X136247238Y-107632476D01*
X136294857Y-107680095D01*
X136390095Y-107727714D01*
X136675809Y-107727714D01*
X136771047Y-107680095D01*
X136818666Y-107632476D01*
X136866285Y-107537238D01*
X136866285Y-107394380D01*
X136818666Y-107299142D01*
X136771047Y-107251523D01*
X136675809Y-107203904D01*
X136390095Y-107203904D01*
X136294857Y-107251523D01*
X136247238Y-107299142D01*
X136199619Y-107394380D01*
X136199619Y-107537238D01*
X136866285Y-106346761D02*
X136199619Y-106346761D01*
X136866285Y-106775333D02*
X136342476Y-106775333D01*
X136247238Y-106727714D01*
X136199619Y-106632476D01*
X136199619Y-106489619D01*
X136247238Y-106394380D01*
X136294857Y-106346761D01*
X136199619Y-105870571D02*
X136866285Y-105870571D01*
X136675809Y-105870571D02*
X136771047Y-105822952D01*
X136818666Y-105775333D01*
X136866285Y-105680095D01*
X136866285Y-105584857D01*
X136247238Y-104822952D02*
X136199619Y-104918190D01*
X136199619Y-105108666D01*
X136247238Y-105203904D01*
X136294857Y-105251523D01*
X136390095Y-105299142D01*
X136675809Y-105299142D01*
X136771047Y-105251523D01*
X136818666Y-105203904D01*
X136866285Y-105108666D01*
X136866285Y-104918190D01*
X136818666Y-104822952D01*
X136247238Y-104013428D02*
X136199619Y-104108666D01*
X136199619Y-104299142D01*
X136247238Y-104394380D01*
X136342476Y-104442000D01*
X136723428Y-104442000D01*
X136818666Y-104394380D01*
X136866285Y-104299142D01*
X136866285Y-104108666D01*
X136818666Y-104013428D01*
X136723428Y-103965809D01*
X136628190Y-103965809D01*
X136532952Y-104442000D01*
X136199619Y-102775333D02*
X137199619Y-102775333D01*
X136723428Y-102775333D02*
X136723428Y-102203904D01*
X136199619Y-102203904D02*
X137199619Y-102203904D01*
X136199619Y-101299142D02*
X136723428Y-101299142D01*
X136818666Y-101346761D01*
X136866285Y-101442000D01*
X136866285Y-101632476D01*
X136818666Y-101727714D01*
X136247238Y-101299142D02*
X136199619Y-101394380D01*
X136199619Y-101632476D01*
X136247238Y-101727714D01*
X136342476Y-101775333D01*
X136437714Y-101775333D01*
X136532952Y-101727714D01*
X136580571Y-101632476D01*
X136580571Y-101394380D01*
X136628190Y-101299142D01*
X136199619Y-100822952D02*
X136866285Y-100822952D01*
X136675809Y-100822952D02*
X136771047Y-100775333D01*
X136818666Y-100727714D01*
X136866285Y-100632476D01*
X136866285Y-100537238D01*
X136199619Y-99775333D02*
X137199619Y-99775333D01*
X136247238Y-99775333D02*
X136199619Y-99870571D01*
X136199619Y-100061047D01*
X136247238Y-100156285D01*
X136294857Y-100203904D01*
X136390095Y-100251523D01*
X136675809Y-100251523D01*
X136771047Y-100203904D01*
X136818666Y-100156285D01*
X136866285Y-100061047D01*
X136866285Y-99870571D01*
X136818666Y-99775333D01*
X136866285Y-99394380D02*
X136199619Y-99203904D01*
X136675809Y-99013428D01*
X136199619Y-98822952D01*
X136866285Y-98632476D01*
X136199619Y-97822952D02*
X136723428Y-97822952D01*
X136818666Y-97870571D01*
X136866285Y-97965809D01*
X136866285Y-98156285D01*
X136818666Y-98251523D01*
X136247238Y-97822952D02*
X136199619Y-97918190D01*
X136199619Y-98156285D01*
X136247238Y-98251523D01*
X136342476Y-98299142D01*
X136437714Y-98299142D01*
X136532952Y-98251523D01*
X136580571Y-98156285D01*
X136580571Y-97918190D01*
X136628190Y-97822952D01*
X136199619Y-97346761D02*
X136866285Y-97346761D01*
X136675809Y-97346761D02*
X136771047Y-97299142D01*
X136818666Y-97251523D01*
X136866285Y-97156285D01*
X136866285Y-97061047D01*
X136247238Y-96346761D02*
X136199619Y-96442000D01*
X136199619Y-96632476D01*
X136247238Y-96727714D01*
X136342476Y-96775333D01*
X136723428Y-96775333D01*
X136818666Y-96727714D01*
X136866285Y-96632476D01*
X136866285Y-96442000D01*
X136818666Y-96346761D01*
X136723428Y-96299142D01*
X136628190Y-96299142D01*
X136532952Y-96775333D01*
D11*
X172754857Y-96635428D02*
X171554857Y-96635428D01*
X171554857Y-96921142D01*
X171612000Y-97092571D01*
X171726285Y-97206857D01*
X171840571Y-97264000D01*
X172069142Y-97321142D01*
X172240571Y-97321142D01*
X172469142Y-97264000D01*
X172583428Y-97206857D01*
X172697714Y-97092571D01*
X172754857Y-96921142D01*
X172754857Y-96635428D01*
X172754857Y-97835428D02*
X171554857Y-97835428D01*
X172183428Y-98635428D02*
X172754857Y-98635428D01*
X171554857Y-98235428D02*
X172183428Y-98635428D01*
X171554857Y-99035428D01*
X172297714Y-99435428D02*
X172297714Y-100349714D01*
X171554857Y-100864000D02*
X171783428Y-100864000D01*
X171554857Y-101321142D02*
X171783428Y-101321142D01*
X172754857Y-101835428D02*
X171554857Y-101835428D01*
X171554857Y-102121142D01*
X171612000Y-102292571D01*
X171726285Y-102406857D01*
X171840571Y-102464000D01*
X172069142Y-102521142D01*
X172240571Y-102521142D01*
X172469142Y-102464000D01*
X172583428Y-102406857D01*
X172697714Y-102292571D01*
X172754857Y-102121142D01*
X172754857Y-101835428D01*
X172754857Y-103206857D02*
X172697714Y-103092571D01*
X172640571Y-103035428D01*
X172526285Y-102978285D01*
X172183428Y-102978285D01*
X172069142Y-103035428D01*
X172012000Y-103092571D01*
X171954857Y-103206857D01*
X171954857Y-103378285D01*
X172012000Y-103492571D01*
X172069142Y-103549714D01*
X172183428Y-103606857D01*
X172526285Y-103606857D01*
X172640571Y-103549714D01*
X172697714Y-103492571D01*
X172754857Y-103378285D01*
X172754857Y-103206857D01*
X172754857Y-105035428D02*
X171954857Y-105035428D01*
X171554857Y-105035428D02*
X171612000Y-104978285D01*
X171669142Y-105035428D01*
X171612000Y-105092571D01*
X171554857Y-105035428D01*
X171669142Y-105035428D01*
X171954857Y-105435428D02*
X171954857Y-105892571D01*
X171554857Y-105606857D02*
X172583428Y-105606857D01*
X172697714Y-105664000D01*
X172754857Y-105778285D01*
X172754857Y-105892571D01*
X171954857Y-107092571D02*
X172754857Y-107378285D01*
X171954857Y-107664000D02*
X172754857Y-107378285D01*
X173040571Y-107264000D01*
X173097714Y-107206857D01*
X173154857Y-107092571D01*
X172754857Y-108292571D02*
X172697714Y-108178285D01*
X172640571Y-108121142D01*
X172526285Y-108064000D01*
X172183428Y-108064000D01*
X172069142Y-108121142D01*
X172012000Y-108178285D01*
X171954857Y-108292571D01*
X171954857Y-108464000D01*
X172012000Y-108578285D01*
X172069142Y-108635428D01*
X172183428Y-108692571D01*
X172526285Y-108692571D01*
X172640571Y-108635428D01*
X172697714Y-108578285D01*
X172754857Y-108464000D01*
X172754857Y-108292571D01*
X171954857Y-109721142D02*
X172754857Y-109721142D01*
X171954857Y-109206857D02*
X172583428Y-109206857D01*
X172697714Y-109264000D01*
X172754857Y-109378285D01*
X172754857Y-109549714D01*
X172697714Y-109664000D01*
X172640571Y-109721142D01*
X172754857Y-110292571D02*
X171954857Y-110292571D01*
X172183428Y-110292571D02*
X172069142Y-110349714D01*
X172012000Y-110406857D01*
X171954857Y-110521142D01*
X171954857Y-110635428D01*
X172697714Y-110978285D02*
X172754857Y-111092571D01*
X172754857Y-111321142D01*
X172697714Y-111435428D01*
X172583428Y-111492571D01*
X172526285Y-111492571D01*
X172412000Y-111435428D01*
X172354857Y-111321142D01*
X172354857Y-111149714D01*
X172297714Y-111035428D01*
X172183428Y-110978285D01*
X172126285Y-110978285D01*
X172012000Y-111035428D01*
X171954857Y-111149714D01*
X171954857Y-111321142D01*
X172012000Y-111435428D01*
X172697714Y-112464000D02*
X172754857Y-112349714D01*
X172754857Y-112121142D01*
X172697714Y-112006857D01*
X172583428Y-111949714D01*
X172126285Y-111949714D01*
X172012000Y-112006857D01*
X171954857Y-112121142D01*
X171954857Y-112349714D01*
X172012000Y-112464000D01*
X172126285Y-112521142D01*
X172240571Y-112521142D01*
X172354857Y-111949714D01*
X172754857Y-113206857D02*
X172697714Y-113092571D01*
X172583428Y-113035428D01*
X171554857Y-113035428D01*
X171954857Y-113492571D02*
X171954857Y-113949714D01*
X172754857Y-113664000D02*
X171726285Y-113664000D01*
X171612000Y-113721142D01*
X171554857Y-113835428D01*
X171554857Y-113949714D01*
X171554857Y-114292571D02*
X171783428Y-114292571D01*
X171554857Y-114749714D02*
X171783428Y-114749714D01*
D12*
G36*
X157984042Y-111372826D02*
G01*
X157983008Y-111373832D01*
X157972186Y-111401428D01*
X157992580Y-111441313D01*
X158038753Y-111493250D01*
X158113918Y-111559679D01*
X158167946Y-111581381D01*
X158201349Y-111560927D01*
X158191987Y-111533079D01*
X158154024Y-111483620D01*
X158113986Y-111441509D01*
X158051291Y-111385335D01*
X158011066Y-111364037D01*
X157984042Y-111372826D01*
G37*
X157984042Y-111372826D02*
X157983008Y-111373832D01*
X157972186Y-111401428D01*
X157992580Y-111441313D01*
X158038753Y-111493250D01*
X158113918Y-111559679D01*
X158167946Y-111581381D01*
X158201349Y-111560927D01*
X158191987Y-111533079D01*
X158154024Y-111483620D01*
X158113986Y-111441509D01*
X158051291Y-111385335D01*
X158011066Y-111364037D01*
X157984042Y-111372826D01*
G36*
X158279111Y-111665206D02*
G01*
X158277634Y-111668369D01*
X158279335Y-111694112D01*
X158302198Y-111734640D01*
X158349979Y-111794531D01*
X158426433Y-111878363D01*
X158535316Y-111990714D01*
X158574930Y-112030728D01*
X158703306Y-112159114D01*
X158801157Y-112254499D01*
X158873085Y-112320582D01*
X158923691Y-112361061D01*
X158957579Y-112379635D01*
X158979350Y-112380000D01*
X158993068Y-112366739D01*
X158981524Y-112339992D01*
X158937201Y-112282922D01*
X158864180Y-112200161D01*
X158766545Y-112096343D01*
X158652864Y-111980586D01*
X158528015Y-111856760D01*
X158433894Y-111766186D01*
X158366222Y-111705304D01*
X158320720Y-111670554D01*
X158293110Y-111658375D01*
X158279111Y-111665206D01*
G37*
X158279111Y-111665206D02*
X158277634Y-111668369D01*
X158279335Y-111694112D01*
X158302198Y-111734640D01*
X158349979Y-111794531D01*
X158426433Y-111878363D01*
X158535316Y-111990714D01*
X158574930Y-112030728D01*
X158703306Y-112159114D01*
X158801157Y-112254499D01*
X158873085Y-112320582D01*
X158923691Y-112361061D01*
X158957579Y-112379635D01*
X158979350Y-112380000D01*
X158993068Y-112366739D01*
X158981524Y-112339992D01*
X158937201Y-112282922D01*
X158864180Y-112200161D01*
X158766545Y-112096343D01*
X158652864Y-111980586D01*
X158528015Y-111856760D01*
X158433894Y-111766186D01*
X158366222Y-111705304D01*
X158320720Y-111670554D01*
X158293110Y-111658375D01*
X158279111Y-111665206D01*
G36*
X157850018Y-110939254D02*
G01*
X157790632Y-110986077D01*
X157715979Y-111053956D01*
X157634082Y-111134579D01*
X157552964Y-111219634D01*
X157480647Y-111300808D01*
X157425153Y-111369790D01*
X157394505Y-111418267D01*
X157391471Y-111434306D01*
X157412625Y-111460522D01*
X157466187Y-111517804D01*
X157547997Y-111601958D01*
X157653897Y-111708786D01*
X157779725Y-111834094D01*
X157921322Y-111973686D01*
X158074527Y-112123367D01*
X158078752Y-112127475D01*
X158266989Y-112309659D01*
X158422157Y-112457788D01*
X158546746Y-112574088D01*
X158643250Y-112660780D01*
X158714159Y-112720087D01*
X158761966Y-112754233D01*
X158789162Y-112765439D01*
X158793258Y-112764835D01*
X158828764Y-112769818D01*
X158885727Y-112806902D01*
X158968397Y-112879132D01*
X159015079Y-112923876D01*
X159109346Y-113012069D01*
X159190301Y-113075339D01*
X159276309Y-113125496D01*
X159385736Y-113174351D01*
X159435800Y-113194448D01*
X159540439Y-113235760D01*
X159628926Y-113270701D01*
X159689566Y-113294652D01*
X159708636Y-113302190D01*
X159743573Y-113293970D01*
X159754371Y-113277669D01*
X159751172Y-113240225D01*
X159731608Y-113167118D01*
X159724096Y-113144607D01*
X159611716Y-113144607D01*
X159603704Y-113155363D01*
X159594181Y-113152766D01*
X159562716Y-113139801D01*
X159497176Y-113113217D01*
X159410634Y-113078315D01*
X159393663Y-113071489D01*
X159279028Y-113018405D01*
X159181602Y-112954423D01*
X159081264Y-112865713D01*
X159051977Y-112836651D01*
X158891390Y-112674623D01*
X159016724Y-112547375D01*
X159142059Y-112420127D01*
X159300645Y-112577304D01*
X159395995Y-112679572D01*
X159464055Y-112775137D01*
X159519564Y-112885829D01*
X159536553Y-112926690D01*
X159579838Y-113036931D01*
X159604327Y-113107350D01*
X159611716Y-113144607D01*
X159724096Y-113144607D01*
X159699029Y-113069502D01*
X159663997Y-112976584D01*
X159612672Y-112852154D01*
X159567519Y-112760037D01*
X159518492Y-112684405D01*
X159455547Y-112609429D01*
X159382977Y-112533765D01*
X159300321Y-112447375D01*
X159251153Y-112388307D01*
X159231006Y-112350119D01*
X159235409Y-112326371D01*
X159237504Y-112324056D01*
X159245482Y-112314417D01*
X159248246Y-112302545D01*
X159242868Y-112285192D01*
X159239516Y-112279877D01*
X159130631Y-112279877D01*
X158947301Y-112464438D01*
X158869650Y-112541361D01*
X158805491Y-112602578D01*
X158762965Y-112640457D01*
X158750409Y-112649000D01*
X158729710Y-112631723D01*
X158677778Y-112582867D01*
X158599183Y-112506889D01*
X158498494Y-112408249D01*
X158380283Y-112291405D01*
X158249118Y-112160817D01*
X158209816Y-112121520D01*
X157682785Y-111594041D01*
X158064611Y-111214763D01*
X159130631Y-112279877D01*
X159239516Y-112279877D01*
X159226416Y-112259106D01*
X159195958Y-112221039D01*
X159148565Y-112167739D01*
X159081306Y-112095957D01*
X158991249Y-112002442D01*
X158875465Y-111883944D01*
X158731022Y-111737214D01*
X158554989Y-111559001D01*
X158471196Y-111474250D01*
X158333884Y-111336624D01*
X158206700Y-111211512D01*
X158143288Y-111150470D01*
X157999359Y-111150470D01*
X157621939Y-111530426D01*
X157563670Y-111475685D01*
X157522972Y-111432679D01*
X157505417Y-111404663D01*
X157505400Y-111404256D01*
X157523136Y-111381344D01*
X157570982Y-111332807D01*
X157640902Y-111266564D01*
X157697931Y-111214569D01*
X157890461Y-111041572D01*
X157999359Y-111150470D01*
X158143288Y-111150470D01*
X158094326Y-111103338D01*
X158001449Y-111016525D01*
X157932754Y-110955497D01*
X157892924Y-110924678D01*
X157886115Y-110921800D01*
X157850018Y-110939254D01*
G37*
X157850018Y-110939254D02*
X157790632Y-110986077D01*
X157715979Y-111053956D01*
X157634082Y-111134579D01*
X157552964Y-111219634D01*
X157480647Y-111300808D01*
X157425153Y-111369790D01*
X157394505Y-111418267D01*
X157391471Y-111434306D01*
X157412625Y-111460522D01*
X157466187Y-111517804D01*
X157547997Y-111601958D01*
X157653897Y-111708786D01*
X157779725Y-111834094D01*
X157921322Y-111973686D01*
X158074527Y-112123367D01*
X158078752Y-112127475D01*
X158266989Y-112309659D01*
X158422157Y-112457788D01*
X158546746Y-112574088D01*
X158643250Y-112660780D01*
X158714159Y-112720087D01*
X158761966Y-112754233D01*
X158789162Y-112765439D01*
X158793258Y-112764835D01*
X158828764Y-112769818D01*
X158885727Y-112806902D01*
X158968397Y-112879132D01*
X159015079Y-112923876D01*
X159109346Y-113012069D01*
X159190301Y-113075339D01*
X159276309Y-113125496D01*
X159385736Y-113174351D01*
X159435800Y-113194448D01*
X159540439Y-113235760D01*
X159628926Y-113270701D01*
X159689566Y-113294652D01*
X159708636Y-113302190D01*
X159743573Y-113293970D01*
X159754371Y-113277669D01*
X159751172Y-113240225D01*
X159731608Y-113167118D01*
X159724096Y-113144607D01*
X159611716Y-113144607D01*
X159603704Y-113155363D01*
X159594181Y-113152766D01*
X159562716Y-113139801D01*
X159497176Y-113113217D01*
X159410634Y-113078315D01*
X159393663Y-113071489D01*
X159279028Y-113018405D01*
X159181602Y-112954423D01*
X159081264Y-112865713D01*
X159051977Y-112836651D01*
X158891390Y-112674623D01*
X159016724Y-112547375D01*
X159142059Y-112420127D01*
X159300645Y-112577304D01*
X159395995Y-112679572D01*
X159464055Y-112775137D01*
X159519564Y-112885829D01*
X159536553Y-112926690D01*
X159579838Y-113036931D01*
X159604327Y-113107350D01*
X159611716Y-113144607D01*
X159724096Y-113144607D01*
X159699029Y-113069502D01*
X159663997Y-112976584D01*
X159612672Y-112852154D01*
X159567519Y-112760037D01*
X159518492Y-112684405D01*
X159455547Y-112609429D01*
X159382977Y-112533765D01*
X159300321Y-112447375D01*
X159251153Y-112388307D01*
X159231006Y-112350119D01*
X159235409Y-112326371D01*
X159237504Y-112324056D01*
X159245482Y-112314417D01*
X159248246Y-112302545D01*
X159242868Y-112285192D01*
X159239516Y-112279877D01*
X159130631Y-112279877D01*
X158947301Y-112464438D01*
X158869650Y-112541361D01*
X158805491Y-112602578D01*
X158762965Y-112640457D01*
X158750409Y-112649000D01*
X158729710Y-112631723D01*
X158677778Y-112582867D01*
X158599183Y-112506889D01*
X158498494Y-112408249D01*
X158380283Y-112291405D01*
X158249118Y-112160817D01*
X158209816Y-112121520D01*
X157682785Y-111594041D01*
X158064611Y-111214763D01*
X159130631Y-112279877D01*
X159239516Y-112279877D01*
X159226416Y-112259106D01*
X159195958Y-112221039D01*
X159148565Y-112167739D01*
X159081306Y-112095957D01*
X158991249Y-112002442D01*
X158875465Y-111883944D01*
X158731022Y-111737214D01*
X158554989Y-111559001D01*
X158471196Y-111474250D01*
X158333884Y-111336624D01*
X158206700Y-111211512D01*
X158143288Y-111150470D01*
X157999359Y-111150470D01*
X157621939Y-111530426D01*
X157563670Y-111475685D01*
X157522972Y-111432679D01*
X157505417Y-111404663D01*
X157505400Y-111404256D01*
X157523136Y-111381344D01*
X157570982Y-111332807D01*
X157640902Y-111266564D01*
X157697931Y-111214569D01*
X157890461Y-111041572D01*
X157999359Y-111150470D01*
X158143288Y-111150470D01*
X158094326Y-111103338D01*
X158001449Y-111016525D01*
X157932754Y-110955497D01*
X157892924Y-110924678D01*
X157886115Y-110921800D01*
X157850018Y-110939254D01*
G36*
X159573506Y-110890180D02*
G01*
X159526793Y-110943771D01*
X159458944Y-111025850D01*
X159374832Y-111130491D01*
X159279329Y-111251770D01*
X159249646Y-111289919D01*
X159132861Y-111442301D01*
X159046616Y-111559751D01*
X158988673Y-111646147D01*
X158956793Y-111705367D01*
X158948739Y-111741290D01*
X158962275Y-111757794D01*
X158978432Y-111760000D01*
X159000426Y-111740964D01*
X159048275Y-111688004D01*
X159116705Y-111607339D01*
X159200440Y-111505191D01*
X159294207Y-111387778D01*
X159296122Y-111385350D01*
X159389826Y-111267335D01*
X159473149Y-111163918D01*
X159540892Y-111081430D01*
X159587854Y-111026202D01*
X159608835Y-111004565D01*
X159608939Y-111004523D01*
X159632420Y-111017997D01*
X159689500Y-111058627D01*
X159774202Y-111121726D01*
X159880547Y-111202603D01*
X160002557Y-111296569D01*
X160134252Y-111398937D01*
X160269654Y-111505015D01*
X160402785Y-111610116D01*
X160527666Y-111709550D01*
X160638318Y-111798628D01*
X160728763Y-111872661D01*
X160793022Y-111926961D01*
X160825117Y-111956837D01*
X160827573Y-111960314D01*
X160814313Y-111986189D01*
X160772830Y-112042899D01*
X160708696Y-112123353D01*
X160627487Y-112220462D01*
X160577545Y-112278421D01*
X160479240Y-112390742D01*
X160407527Y-112469889D01*
X160355883Y-112521214D01*
X160317786Y-112550067D01*
X160286714Y-112561799D01*
X160256146Y-112561762D01*
X160236197Y-112558479D01*
X160132399Y-112559558D01*
X160048312Y-112598126D01*
X159987357Y-112663861D01*
X159952957Y-112746442D01*
X159948533Y-112835544D01*
X159977507Y-112920847D01*
X160043301Y-112992026D01*
X160084509Y-113016075D01*
X160180935Y-113049875D01*
X160259401Y-113044562D01*
X160336688Y-112998084D01*
X160354080Y-112983132D01*
X160419770Y-112893240D01*
X160429937Y-112837260D01*
X160342164Y-112837260D01*
X160311398Y-112897394D01*
X160257950Y-112939457D01*
X160190880Y-112954197D01*
X160119250Y-112932359D01*
X160091851Y-112911763D01*
X160052290Y-112847336D01*
X160050421Y-112773564D01*
X160080510Y-112705946D01*
X160136823Y-112659985D01*
X160189037Y-112649000D01*
X160251494Y-112666533D01*
X160299400Y-112699800D01*
X160341185Y-112768311D01*
X160342164Y-112837260D01*
X160429937Y-112837260D01*
X160439371Y-112785321D01*
X160419292Y-112685157D01*
X160417556Y-112657577D01*
X160432613Y-112619430D01*
X160468662Y-112564562D01*
X160529902Y-112486821D01*
X160620533Y-112380057D01*
X160653377Y-112342257D01*
X160743042Y-112241302D01*
X160822261Y-112155622D01*
X160884609Y-112091899D01*
X160923658Y-112056814D01*
X160932448Y-112052100D01*
X160961428Y-112066863D01*
X161020233Y-112106560D01*
X161099943Y-112164306D01*
X161191634Y-112233213D01*
X161286384Y-112306394D01*
X161375270Y-112376962D01*
X161449371Y-112438030D01*
X161499764Y-112482712D01*
X161517552Y-112503724D01*
X161502545Y-112528374D01*
X161459924Y-112586452D01*
X161394241Y-112672066D01*
X161310046Y-112779322D01*
X161211890Y-112902328D01*
X161161406Y-112964921D01*
X161019343Y-113137442D01*
X160904994Y-113269715D01*
X160818730Y-113361335D01*
X160760922Y-113411897D01*
X160741296Y-113422084D01*
X160693065Y-113423767D01*
X160644636Y-113397009D01*
X160593841Y-113348237D01*
X160532184Y-113291135D01*
X160474762Y-113264941D01*
X160397182Y-113258600D01*
X160396079Y-113258600D01*
X160306709Y-113267858D01*
X160245630Y-113300172D01*
X160229511Y-113315750D01*
X160170242Y-113410006D01*
X160155115Y-113508431D01*
X160179535Y-113600858D01*
X160238910Y-113677118D01*
X160328646Y-113727043D01*
X160421714Y-113741200D01*
X160509098Y-113719845D01*
X160586637Y-113665195D01*
X160635479Y-113591370D01*
X160639547Y-113578029D01*
X160661240Y-113534072D01*
X160707693Y-113513216D01*
X160749901Y-113507777D01*
X160782160Y-113503093D01*
X160813217Y-113491552D01*
X160833920Y-113477712D01*
X160548984Y-113477712D01*
X160537208Y-113544223D01*
X160495875Y-113599263D01*
X160435442Y-113634214D01*
X160366366Y-113640461D01*
X160299106Y-113609389D01*
X160288515Y-113599685D01*
X160258813Y-113545353D01*
X160248600Y-113485971D01*
X160269204Y-113412182D01*
X160321482Y-113364087D01*
X160391137Y-113345763D01*
X160463873Y-113361288D01*
X160520745Y-113408346D01*
X160548984Y-113477712D01*
X160833920Y-113477712D01*
X160847988Y-113468308D01*
X160891390Y-113428517D01*
X160948342Y-113367334D01*
X161023761Y-113279914D01*
X161122564Y-113161412D01*
X161213476Y-113051040D01*
X161319813Y-112921797D01*
X161415595Y-112805669D01*
X161496043Y-112708427D01*
X161556376Y-112635844D01*
X161591814Y-112593693D01*
X161598879Y-112585654D01*
X161624805Y-112592106D01*
X161676958Y-112623183D01*
X161743505Y-112669863D01*
X161812618Y-112723122D01*
X161872463Y-112773936D01*
X161911212Y-112813281D01*
X161919253Y-112830017D01*
X161902330Y-112853286D01*
X161856746Y-112911933D01*
X161785783Y-113001835D01*
X161692724Y-113118871D01*
X161580851Y-113258921D01*
X161453449Y-113417860D01*
X161313799Y-113591569D01*
X161216377Y-113712478D01*
X160520453Y-114575408D01*
X160270227Y-114370614D01*
X160020000Y-114165821D01*
X160020000Y-114077478D01*
X159913557Y-114077478D01*
X159878665Y-114144537D01*
X159861250Y-114159613D01*
X159784792Y-114191380D01*
X159714335Y-114173284D01*
X159654770Y-114114685D01*
X159621049Y-114062404D01*
X159618031Y-114022763D01*
X159640314Y-113974985D01*
X159695340Y-113919742D01*
X159769332Y-113896449D01*
X159843084Y-113908584D01*
X159877115Y-113932142D01*
X159913535Y-113999582D01*
X159913557Y-114077478D01*
X160020000Y-114077478D01*
X160020000Y-114044668D01*
X160014848Y-113963479D01*
X159993003Y-113909670D01*
X159944880Y-113860318D01*
X159941852Y-113857757D01*
X159842640Y-113801228D01*
X159742231Y-113794015D01*
X159646811Y-113835960D01*
X159611647Y-113866246D01*
X159554737Y-113954486D01*
X159535603Y-114057142D01*
X159556208Y-114156539D01*
X159575579Y-114190804D01*
X159644248Y-114249908D01*
X159736970Y-114282620D01*
X159830854Y-114281961D01*
X159852895Y-114275362D01*
X159910125Y-114256270D01*
X159943765Y-114249200D01*
X159968995Y-114264039D01*
X160024199Y-114303690D01*
X160099987Y-114360855D01*
X160186970Y-114428235D01*
X160275757Y-114498531D01*
X160356960Y-114564445D01*
X160421187Y-114618678D01*
X160436013Y-114631824D01*
X160430013Y-114657685D01*
X160397875Y-114710755D01*
X160347784Y-114780788D01*
X160287921Y-114857537D01*
X160226469Y-114930758D01*
X160171610Y-114990205D01*
X160131529Y-115025631D01*
X160117275Y-115030924D01*
X160092152Y-115014116D01*
X160032254Y-114970365D01*
X159943025Y-114903761D01*
X159829910Y-114818393D01*
X159698353Y-114718352D01*
X159553799Y-114607726D01*
X159549868Y-114604708D01*
X159386756Y-114479137D01*
X159259698Y-114380110D01*
X159164226Y-114303536D01*
X159095873Y-114245324D01*
X159050170Y-114201381D01*
X159022649Y-114167617D01*
X159008842Y-114139939D01*
X159004281Y-114114256D01*
X159004043Y-114104861D01*
X159014985Y-114039970D01*
X159052651Y-114008648D01*
X159056247Y-114007441D01*
X159113412Y-113965338D01*
X159155238Y-113889882D01*
X159174790Y-113797823D01*
X159174761Y-113797283D01*
X159081504Y-113797283D01*
X159059557Y-113869403D01*
X159038164Y-113897949D01*
X158972824Y-113937704D01*
X158896774Y-113940069D01*
X158830453Y-113905960D01*
X158814941Y-113887948D01*
X158778881Y-113807210D01*
X158792134Y-113734594D01*
X158826200Y-113690400D01*
X158895283Y-113647936D01*
X158964550Y-113646396D01*
X159024806Y-113676776D01*
X159066855Y-113730073D01*
X159081504Y-113797283D01*
X159174761Y-113797283D01*
X159171079Y-113730114D01*
X159137272Y-113644622D01*
X159072472Y-113587683D01*
X158967490Y-113544121D01*
X158871344Y-113549613D01*
X158778013Y-113604635D01*
X158770028Y-113611600D01*
X158713941Y-113672466D01*
X158690771Y-113735381D01*
X158687655Y-113787371D01*
X158709753Y-113896637D01*
X158772085Y-113980595D01*
X158841687Y-114021531D01*
X158886087Y-114060830D01*
X158911127Y-114141182D01*
X158911311Y-114142329D01*
X158917867Y-114173295D01*
X158929990Y-114202937D01*
X158952215Y-114235461D01*
X158989074Y-114275077D01*
X159045102Y-114325991D01*
X159124830Y-114392413D01*
X159232793Y-114478550D01*
X159373524Y-114588610D01*
X159487080Y-114676804D01*
X159632458Y-114790309D01*
X159763657Y-114894159D01*
X159875581Y-114984205D01*
X159963131Y-115056297D01*
X160021212Y-115106286D01*
X160044725Y-115130023D01*
X160044980Y-115130941D01*
X160027557Y-115167467D01*
X159986157Y-115224581D01*
X159930902Y-115290928D01*
X159871917Y-115355151D01*
X159819328Y-115405894D01*
X159783259Y-115431802D01*
X159775902Y-115432740D01*
X159749656Y-115415497D01*
X159687789Y-115371320D01*
X159594747Y-115303538D01*
X159474976Y-115215477D01*
X159332924Y-115110465D01*
X159173037Y-114991829D01*
X158999761Y-114862896D01*
X158817544Y-114726995D01*
X158630833Y-114587451D01*
X158444073Y-114447593D01*
X158261712Y-114310747D01*
X158088197Y-114180241D01*
X157927973Y-114059403D01*
X157785488Y-113951559D01*
X157665189Y-113860037D01*
X157571522Y-113788164D01*
X157508934Y-113739268D01*
X157481872Y-113716676D01*
X157481114Y-113715637D01*
X157495883Y-113693061D01*
X157538089Y-113635962D01*
X157603656Y-113549663D01*
X157688509Y-113439486D01*
X157788573Y-113310754D01*
X157899185Y-113169537D01*
X158033268Y-112997779D01*
X158137423Y-112861151D01*
X158214132Y-112755663D01*
X158265876Y-112677328D01*
X158295138Y-112622155D01*
X158304400Y-112586157D01*
X158296143Y-112565344D01*
X158280100Y-112557343D01*
X158258590Y-112574715D01*
X158211422Y-112626643D01*
X158143375Y-112707008D01*
X158059227Y-112809690D01*
X157963756Y-112928573D01*
X157861740Y-113057537D01*
X157757957Y-113190464D01*
X157657184Y-113321236D01*
X157564201Y-113443733D01*
X157483785Y-113551838D01*
X157420713Y-113639432D01*
X157379764Y-113700396D01*
X157365700Y-113728284D01*
X157385399Y-113747811D01*
X157441624Y-113794313D01*
X157530068Y-113864548D01*
X157646421Y-113955272D01*
X157786378Y-114063241D01*
X157945629Y-114185212D01*
X158119868Y-114317940D01*
X158304786Y-114458182D01*
X158496075Y-114602694D01*
X158689429Y-114748233D01*
X158880538Y-114891555D01*
X159065096Y-115029417D01*
X159238794Y-115158574D01*
X159397326Y-115275783D01*
X159536382Y-115377800D01*
X159651655Y-115461382D01*
X159738838Y-115523284D01*
X159793622Y-115560264D01*
X159811220Y-115569723D01*
X159829869Y-115550448D01*
X159877813Y-115494840D01*
X159952428Y-115406086D01*
X160051088Y-115287372D01*
X160171169Y-115141884D01*
X160310045Y-114972808D01*
X160465091Y-114783329D01*
X160633682Y-114576635D01*
X160813192Y-114355911D01*
X160934400Y-114206533D01*
X161119484Y-113977787D01*
X161294848Y-113760195D01*
X161457903Y-113557023D01*
X161606062Y-113371537D01*
X161736736Y-113207005D01*
X161847335Y-113066692D01*
X161935272Y-112953865D01*
X161997958Y-112871790D01*
X162032805Y-112823733D01*
X162039300Y-112812329D01*
X162019982Y-112792414D01*
X161964813Y-112744544D01*
X161877977Y-112672040D01*
X161763655Y-112578221D01*
X161626029Y-112466409D01*
X161469281Y-112339922D01*
X161297593Y-112202082D01*
X161115145Y-112056209D01*
X160926121Y-111905623D01*
X160734702Y-111753644D01*
X160545070Y-111603593D01*
X160361407Y-111458789D01*
X160187894Y-111322553D01*
X160028714Y-111198206D01*
X159888048Y-111089067D01*
X159770078Y-110998457D01*
X159678986Y-110929695D01*
X159618954Y-110886103D01*
X159594210Y-110871000D01*
X159573506Y-110890180D01*
G37*
X159573506Y-110890180D02*
X159526793Y-110943771D01*
X159458944Y-111025850D01*
X159374832Y-111130491D01*
X159279329Y-111251770D01*
X159249646Y-111289919D01*
X159132861Y-111442301D01*
X159046616Y-111559751D01*
X158988673Y-111646147D01*
X158956793Y-111705367D01*
X158948739Y-111741290D01*
X158962275Y-111757794D01*
X158978432Y-111760000D01*
X159000426Y-111740964D01*
X159048275Y-111688004D01*
X159116705Y-111607339D01*
X159200440Y-111505191D01*
X159294207Y-111387778D01*
X159296122Y-111385350D01*
X159389826Y-111267335D01*
X159473149Y-111163918D01*
X159540892Y-111081430D01*
X159587854Y-111026202D01*
X159608835Y-111004565D01*
X159608939Y-111004523D01*
X159632420Y-111017997D01*
X159689500Y-111058627D01*
X159774202Y-111121726D01*
X159880547Y-111202603D01*
X160002557Y-111296569D01*
X160134252Y-111398937D01*
X160269654Y-111505015D01*
X160402785Y-111610116D01*
X160527666Y-111709550D01*
X160638318Y-111798628D01*
X160728763Y-111872661D01*
X160793022Y-111926961D01*
X160825117Y-111956837D01*
X160827573Y-111960314D01*
X160814313Y-111986189D01*
X160772830Y-112042899D01*
X160708696Y-112123353D01*
X160627487Y-112220462D01*
X160577545Y-112278421D01*
X160479240Y-112390742D01*
X160407527Y-112469889D01*
X160355883Y-112521214D01*
X160317786Y-112550067D01*
X160286714Y-112561799D01*
X160256146Y-112561762D01*
X160236197Y-112558479D01*
X160132399Y-112559558D01*
X160048312Y-112598126D01*
X159987357Y-112663861D01*
X159952957Y-112746442D01*
X159948533Y-112835544D01*
X159977507Y-112920847D01*
X160043301Y-112992026D01*
X160084509Y-113016075D01*
X160180935Y-113049875D01*
X160259401Y-113044562D01*
X160336688Y-112998084D01*
X160354080Y-112983132D01*
X160419770Y-112893240D01*
X160429937Y-112837260D01*
X160342164Y-112837260D01*
X160311398Y-112897394D01*
X160257950Y-112939457D01*
X160190880Y-112954197D01*
X160119250Y-112932359D01*
X160091851Y-112911763D01*
X160052290Y-112847336D01*
X160050421Y-112773564D01*
X160080510Y-112705946D01*
X160136823Y-112659985D01*
X160189037Y-112649000D01*
X160251494Y-112666533D01*
X160299400Y-112699800D01*
X160341185Y-112768311D01*
X160342164Y-112837260D01*
X160429937Y-112837260D01*
X160439371Y-112785321D01*
X160419292Y-112685157D01*
X160417556Y-112657577D01*
X160432613Y-112619430D01*
X160468662Y-112564562D01*
X160529902Y-112486821D01*
X160620533Y-112380057D01*
X160653377Y-112342257D01*
X160743042Y-112241302D01*
X160822261Y-112155622D01*
X160884609Y-112091899D01*
X160923658Y-112056814D01*
X160932448Y-112052100D01*
X160961428Y-112066863D01*
X161020233Y-112106560D01*
X161099943Y-112164306D01*
X161191634Y-112233213D01*
X161286384Y-112306394D01*
X161375270Y-112376962D01*
X161449371Y-112438030D01*
X161499764Y-112482712D01*
X161517552Y-112503724D01*
X161502545Y-112528374D01*
X161459924Y-112586452D01*
X161394241Y-112672066D01*
X161310046Y-112779322D01*
X161211890Y-112902328D01*
X161161406Y-112964921D01*
X161019343Y-113137442D01*
X160904994Y-113269715D01*
X160818730Y-113361335D01*
X160760922Y-113411897D01*
X160741296Y-113422084D01*
X160693065Y-113423767D01*
X160644636Y-113397009D01*
X160593841Y-113348237D01*
X160532184Y-113291135D01*
X160474762Y-113264941D01*
X160397182Y-113258600D01*
X160396079Y-113258600D01*
X160306709Y-113267858D01*
X160245630Y-113300172D01*
X160229511Y-113315750D01*
X160170242Y-113410006D01*
X160155115Y-113508431D01*
X160179535Y-113600858D01*
X160238910Y-113677118D01*
X160328646Y-113727043D01*
X160421714Y-113741200D01*
X160509098Y-113719845D01*
X160586637Y-113665195D01*
X160635479Y-113591370D01*
X160639547Y-113578029D01*
X160661240Y-113534072D01*
X160707693Y-113513216D01*
X160749901Y-113507777D01*
X160782160Y-113503093D01*
X160813217Y-113491552D01*
X160833920Y-113477712D01*
X160548984Y-113477712D01*
X160537208Y-113544223D01*
X160495875Y-113599263D01*
X160435442Y-113634214D01*
X160366366Y-113640461D01*
X160299106Y-113609389D01*
X160288515Y-113599685D01*
X160258813Y-113545353D01*
X160248600Y-113485971D01*
X160269204Y-113412182D01*
X160321482Y-113364087D01*
X160391137Y-113345763D01*
X160463873Y-113361288D01*
X160520745Y-113408346D01*
X160548984Y-113477712D01*
X160833920Y-113477712D01*
X160847988Y-113468308D01*
X160891390Y-113428517D01*
X160948342Y-113367334D01*
X161023761Y-113279914D01*
X161122564Y-113161412D01*
X161213476Y-113051040D01*
X161319813Y-112921797D01*
X161415595Y-112805669D01*
X161496043Y-112708427D01*
X161556376Y-112635844D01*
X161591814Y-112593693D01*
X161598879Y-112585654D01*
X161624805Y-112592106D01*
X161676958Y-112623183D01*
X161743505Y-112669863D01*
X161812618Y-112723122D01*
X161872463Y-112773936D01*
X161911212Y-112813281D01*
X161919253Y-112830017D01*
X161902330Y-112853286D01*
X161856746Y-112911933D01*
X161785783Y-113001835D01*
X161692724Y-113118871D01*
X161580851Y-113258921D01*
X161453449Y-113417860D01*
X161313799Y-113591569D01*
X161216377Y-113712478D01*
X160520453Y-114575408D01*
X160270227Y-114370614D01*
X160020000Y-114165821D01*
X160020000Y-114077478D01*
X159913557Y-114077478D01*
X159878665Y-114144537D01*
X159861250Y-114159613D01*
X159784792Y-114191380D01*
X159714335Y-114173284D01*
X159654770Y-114114685D01*
X159621049Y-114062404D01*
X159618031Y-114022763D01*
X159640314Y-113974985D01*
X159695340Y-113919742D01*
X159769332Y-113896449D01*
X159843084Y-113908584D01*
X159877115Y-113932142D01*
X159913535Y-113999582D01*
X159913557Y-114077478D01*
X160020000Y-114077478D01*
X160020000Y-114044668D01*
X160014848Y-113963479D01*
X159993003Y-113909670D01*
X159944880Y-113860318D01*
X159941852Y-113857757D01*
X159842640Y-113801228D01*
X159742231Y-113794015D01*
X159646811Y-113835960D01*
X159611647Y-113866246D01*
X159554737Y-113954486D01*
X159535603Y-114057142D01*
X159556208Y-114156539D01*
X159575579Y-114190804D01*
X159644248Y-114249908D01*
X159736970Y-114282620D01*
X159830854Y-114281961D01*
X159852895Y-114275362D01*
X159910125Y-114256270D01*
X159943765Y-114249200D01*
X159968995Y-114264039D01*
X160024199Y-114303690D01*
X160099987Y-114360855D01*
X160186970Y-114428235D01*
X160275757Y-114498531D01*
X160356960Y-114564445D01*
X160421187Y-114618678D01*
X160436013Y-114631824D01*
X160430013Y-114657685D01*
X160397875Y-114710755D01*
X160347784Y-114780788D01*
X160287921Y-114857537D01*
X160226469Y-114930758D01*
X160171610Y-114990205D01*
X160131529Y-115025631D01*
X160117275Y-115030924D01*
X160092152Y-115014116D01*
X160032254Y-114970365D01*
X159943025Y-114903761D01*
X159829910Y-114818393D01*
X159698353Y-114718352D01*
X159553799Y-114607726D01*
X159549868Y-114604708D01*
X159386756Y-114479137D01*
X159259698Y-114380110D01*
X159164226Y-114303536D01*
X159095873Y-114245324D01*
X159050170Y-114201381D01*
X159022649Y-114167617D01*
X159008842Y-114139939D01*
X159004281Y-114114256D01*
X159004043Y-114104861D01*
X159014985Y-114039970D01*
X159052651Y-114008648D01*
X159056247Y-114007441D01*
X159113412Y-113965338D01*
X159155238Y-113889882D01*
X159174790Y-113797823D01*
X159174761Y-113797283D01*
X159081504Y-113797283D01*
X159059557Y-113869403D01*
X159038164Y-113897949D01*
X158972824Y-113937704D01*
X158896774Y-113940069D01*
X158830453Y-113905960D01*
X158814941Y-113887948D01*
X158778881Y-113807210D01*
X158792134Y-113734594D01*
X158826200Y-113690400D01*
X158895283Y-113647936D01*
X158964550Y-113646396D01*
X159024806Y-113676776D01*
X159066855Y-113730073D01*
X159081504Y-113797283D01*
X159174761Y-113797283D01*
X159171079Y-113730114D01*
X159137272Y-113644622D01*
X159072472Y-113587683D01*
X158967490Y-113544121D01*
X158871344Y-113549613D01*
X158778013Y-113604635D01*
X158770028Y-113611600D01*
X158713941Y-113672466D01*
X158690771Y-113735381D01*
X158687655Y-113787371D01*
X158709753Y-113896637D01*
X158772085Y-113980595D01*
X158841687Y-114021531D01*
X158886087Y-114060830D01*
X158911127Y-114141182D01*
X158911311Y-114142329D01*
X158917867Y-114173295D01*
X158929990Y-114202937D01*
X158952215Y-114235461D01*
X158989074Y-114275077D01*
X159045102Y-114325991D01*
X159124830Y-114392413D01*
X159232793Y-114478550D01*
X159373524Y-114588610D01*
X159487080Y-114676804D01*
X159632458Y-114790309D01*
X159763657Y-114894159D01*
X159875581Y-114984205D01*
X159963131Y-115056297D01*
X160021212Y-115106286D01*
X160044725Y-115130023D01*
X160044980Y-115130941D01*
X160027557Y-115167467D01*
X159986157Y-115224581D01*
X159930902Y-115290928D01*
X159871917Y-115355151D01*
X159819328Y-115405894D01*
X159783259Y-115431802D01*
X159775902Y-115432740D01*
X159749656Y-115415497D01*
X159687789Y-115371320D01*
X159594747Y-115303538D01*
X159474976Y-115215477D01*
X159332924Y-115110465D01*
X159173037Y-114991829D01*
X158999761Y-114862896D01*
X158817544Y-114726995D01*
X158630833Y-114587451D01*
X158444073Y-114447593D01*
X158261712Y-114310747D01*
X158088197Y-114180241D01*
X157927973Y-114059403D01*
X157785488Y-113951559D01*
X157665189Y-113860037D01*
X157571522Y-113788164D01*
X157508934Y-113739268D01*
X157481872Y-113716676D01*
X157481114Y-113715637D01*
X157495883Y-113693061D01*
X157538089Y-113635962D01*
X157603656Y-113549663D01*
X157688509Y-113439486D01*
X157788573Y-113310754D01*
X157899185Y-113169537D01*
X158033268Y-112997779D01*
X158137423Y-112861151D01*
X158214132Y-112755663D01*
X158265876Y-112677328D01*
X158295138Y-112622155D01*
X158304400Y-112586157D01*
X158296143Y-112565344D01*
X158280100Y-112557343D01*
X158258590Y-112574715D01*
X158211422Y-112626643D01*
X158143375Y-112707008D01*
X158059227Y-112809690D01*
X157963756Y-112928573D01*
X157861740Y-113057537D01*
X157757957Y-113190464D01*
X157657184Y-113321236D01*
X157564201Y-113443733D01*
X157483785Y-113551838D01*
X157420713Y-113639432D01*
X157379764Y-113700396D01*
X157365700Y-113728284D01*
X157385399Y-113747811D01*
X157441624Y-113794313D01*
X157530068Y-113864548D01*
X157646421Y-113955272D01*
X157786378Y-114063241D01*
X157945629Y-114185212D01*
X158119868Y-114317940D01*
X158304786Y-114458182D01*
X158496075Y-114602694D01*
X158689429Y-114748233D01*
X158880538Y-114891555D01*
X159065096Y-115029417D01*
X159238794Y-115158574D01*
X159397326Y-115275783D01*
X159536382Y-115377800D01*
X159651655Y-115461382D01*
X159738838Y-115523284D01*
X159793622Y-115560264D01*
X159811220Y-115569723D01*
X159829869Y-115550448D01*
X159877813Y-115494840D01*
X159952428Y-115406086D01*
X160051088Y-115287372D01*
X160171169Y-115141884D01*
X160310045Y-114972808D01*
X160465091Y-114783329D01*
X160633682Y-114576635D01*
X160813192Y-114355911D01*
X160934400Y-114206533D01*
X161119484Y-113977787D01*
X161294848Y-113760195D01*
X161457903Y-113557023D01*
X161606062Y-113371537D01*
X161736736Y-113207005D01*
X161847335Y-113066692D01*
X161935272Y-112953865D01*
X161997958Y-112871790D01*
X162032805Y-112823733D01*
X162039300Y-112812329D01*
X162019982Y-112792414D01*
X161964813Y-112744544D01*
X161877977Y-112672040D01*
X161763655Y-112578221D01*
X161626029Y-112466409D01*
X161469281Y-112339922D01*
X161297593Y-112202082D01*
X161115145Y-112056209D01*
X160926121Y-111905623D01*
X160734702Y-111753644D01*
X160545070Y-111603593D01*
X160361407Y-111458789D01*
X160187894Y-111322553D01*
X160028714Y-111198206D01*
X159888048Y-111089067D01*
X159770078Y-110998457D01*
X159678986Y-110929695D01*
X159618954Y-110886103D01*
X159594210Y-110871000D01*
X159573506Y-110890180D01*
G36*
X164363400Y-116535200D02*
G01*
X164922200Y-116535200D01*
X164922200Y-116357400D01*
X164363400Y-116357400D01*
X164363400Y-116535200D01*
G37*
X164363400Y-116535200D02*
X164922200Y-116535200D01*
X164922200Y-116357400D01*
X164363400Y-116357400D01*
X164363400Y-116535200D01*
G36*
X154529007Y-115944536D02*
G01*
X154411910Y-115966171D01*
X154325013Y-116007592D01*
X154258621Y-116073186D01*
X154209750Y-116153813D01*
X154165454Y-116285977D01*
X154149601Y-116438271D01*
X154162168Y-116590783D01*
X154203135Y-116723603D01*
X154210384Y-116738079D01*
X154264233Y-116821439D01*
X154329197Y-116879489D01*
X154414825Y-116916209D01*
X154530668Y-116935578D01*
X154686275Y-116941577D01*
X154698758Y-116941600D01*
X154819463Y-116940328D01*
X154902527Y-116934965D01*
X154961082Y-116923184D01*
X155008256Y-116902660D01*
X155043438Y-116880559D01*
X155128777Y-116803735D01*
X155184026Y-116705578D01*
X155212145Y-116577911D01*
X155215565Y-116434602D01*
X155041600Y-116434602D01*
X155031395Y-116580585D01*
X154999640Y-116683412D01*
X154944629Y-116746691D01*
X154882344Y-116771340D01*
X154770865Y-116783894D01*
X154649587Y-116783705D01*
X154539518Y-116771695D01*
X154471329Y-116753250D01*
X154404433Y-116716157D01*
X154361965Y-116665028D01*
X154339037Y-116588883D01*
X154330759Y-116476740D01*
X154330400Y-116436686D01*
X154333093Y-116335796D01*
X154343888Y-116268965D01*
X154366862Y-116219612D01*
X154391701Y-116187366D01*
X154423718Y-116153437D01*
X154456893Y-116132438D01*
X154503810Y-116121276D01*
X154577052Y-116116861D01*
X154681755Y-116116100D01*
X154793518Y-116117375D01*
X154867477Y-116123012D01*
X154916602Y-116135723D01*
X154953862Y-116158222D01*
X154976054Y-116177677D01*
X155009734Y-116214157D01*
X155029421Y-116254475D01*
X155038792Y-116313044D01*
X155041524Y-116404273D01*
X155041600Y-116434602D01*
X155215565Y-116434602D01*
X155216092Y-116412558D01*
X155215761Y-116404392D01*
X155208048Y-116288180D01*
X155194473Y-116207666D01*
X155171556Y-116147805D01*
X155147548Y-116109366D01*
X155084006Y-116034842D01*
X155011579Y-115984641D01*
X154919135Y-115954636D01*
X154795542Y-115940701D01*
X154686000Y-115938300D01*
X154529007Y-115944536D01*
G37*
X154529007Y-115944536D02*
X154411910Y-115966171D01*
X154325013Y-116007592D01*
X154258621Y-116073186D01*
X154209750Y-116153813D01*
X154165454Y-116285977D01*
X154149601Y-116438271D01*
X154162168Y-116590783D01*
X154203135Y-116723603D01*
X154210384Y-116738079D01*
X154264233Y-116821439D01*
X154329197Y-116879489D01*
X154414825Y-116916209D01*
X154530668Y-116935578D01*
X154686275Y-116941577D01*
X154698758Y-116941600D01*
X154819463Y-116940328D01*
X154902527Y-116934965D01*
X154961082Y-116923184D01*
X155008256Y-116902660D01*
X155043438Y-116880559D01*
X155128777Y-116803735D01*
X155184026Y-116705578D01*
X155212145Y-116577911D01*
X155215565Y-116434602D01*
X155041600Y-116434602D01*
X155031395Y-116580585D01*
X154999640Y-116683412D01*
X154944629Y-116746691D01*
X154882344Y-116771340D01*
X154770865Y-116783894D01*
X154649587Y-116783705D01*
X154539518Y-116771695D01*
X154471329Y-116753250D01*
X154404433Y-116716157D01*
X154361965Y-116665028D01*
X154339037Y-116588883D01*
X154330759Y-116476740D01*
X154330400Y-116436686D01*
X154333093Y-116335796D01*
X154343888Y-116268965D01*
X154366862Y-116219612D01*
X154391701Y-116187366D01*
X154423718Y-116153437D01*
X154456893Y-116132438D01*
X154503810Y-116121276D01*
X154577052Y-116116861D01*
X154681755Y-116116100D01*
X154793518Y-116117375D01*
X154867477Y-116123012D01*
X154916602Y-116135723D01*
X154953862Y-116158222D01*
X154976054Y-116177677D01*
X155009734Y-116214157D01*
X155029421Y-116254475D01*
X155038792Y-116313044D01*
X155041524Y-116404273D01*
X155041600Y-116434602D01*
X155215565Y-116434602D01*
X155216092Y-116412558D01*
X155215761Y-116404392D01*
X155208048Y-116288180D01*
X155194473Y-116207666D01*
X155171556Y-116147805D01*
X155147548Y-116109366D01*
X155084006Y-116034842D01*
X155011579Y-115984641D01*
X154919135Y-115954636D01*
X154795542Y-115940701D01*
X154686000Y-115938300D01*
X154529007Y-115944536D01*
G36*
X156210000Y-116357400D02*
G01*
X155575000Y-116357400D01*
X155575000Y-115951000D01*
X155397200Y-115951000D01*
X155397200Y-116941600D01*
X155575000Y-116941600D01*
X155575000Y-116535200D01*
X156210000Y-116535200D01*
X156210000Y-116941600D01*
X156387800Y-116941600D01*
X156387800Y-115951000D01*
X156210000Y-115951000D01*
X156210000Y-116357400D01*
G37*
X156210000Y-116357400D02*
X155575000Y-116357400D01*
X155575000Y-115951000D01*
X155397200Y-115951000D01*
X155397200Y-116941600D01*
X155575000Y-116941600D01*
X155575000Y-116535200D01*
X156210000Y-116535200D01*
X156210000Y-116941600D01*
X156387800Y-116941600D01*
X156387800Y-115951000D01*
X156210000Y-115951000D01*
X156210000Y-116357400D01*
G36*
X157453515Y-115978123D02*
G01*
X157372525Y-116047731D01*
X157263151Y-116155446D01*
X157144329Y-116275978D01*
X157035397Y-116385917D01*
X156938953Y-116482353D01*
X156860515Y-116559841D01*
X156805600Y-116612938D01*
X156779728Y-116636201D01*
X156778573Y-116636800D01*
X156775001Y-116612942D01*
X156772014Y-116547541D01*
X156769877Y-116449851D01*
X156768852Y-116329127D01*
X156768800Y-116293900D01*
X156768800Y-115951000D01*
X156615304Y-115951000D01*
X156622202Y-116439950D01*
X156625116Y-116632194D01*
X156630574Y-116776211D01*
X156642829Y-116873545D01*
X156666135Y-116925741D01*
X156704745Y-116934345D01*
X156762913Y-116900902D01*
X156844892Y-116826957D01*
X156954935Y-116714056D01*
X157062888Y-116600049D01*
X157166574Y-116491603D01*
X157258827Y-116397182D01*
X157333843Y-116322559D01*
X157385819Y-116273507D01*
X157408951Y-116255800D01*
X157408971Y-116255800D01*
X157416366Y-116279655D01*
X157422548Y-116345052D01*
X157426973Y-116442737D01*
X157429094Y-116563455D01*
X157429200Y-116598700D01*
X157429200Y-116941600D01*
X157581600Y-116941600D01*
X157581600Y-116462110D01*
X157581587Y-116265055D01*
X157578712Y-116116970D01*
X157568720Y-116016045D01*
X157547359Y-115960469D01*
X157510375Y-115948432D01*
X157453515Y-115978123D01*
G37*
X157453515Y-115978123D02*
X157372525Y-116047731D01*
X157263151Y-116155446D01*
X157144329Y-116275978D01*
X157035397Y-116385917D01*
X156938953Y-116482353D01*
X156860515Y-116559841D01*
X156805600Y-116612938D01*
X156779728Y-116636201D01*
X156778573Y-116636800D01*
X156775001Y-116612942D01*
X156772014Y-116547541D01*
X156769877Y-116449851D01*
X156768852Y-116329127D01*
X156768800Y-116293900D01*
X156768800Y-115951000D01*
X156615304Y-115951000D01*
X156622202Y-116439950D01*
X156625116Y-116632194D01*
X156630574Y-116776211D01*
X156642829Y-116873545D01*
X156666135Y-116925741D01*
X156704745Y-116934345D01*
X156762913Y-116900902D01*
X156844892Y-116826957D01*
X156954935Y-116714056D01*
X157062888Y-116600049D01*
X157166574Y-116491603D01*
X157258827Y-116397182D01*
X157333843Y-116322559D01*
X157385819Y-116273507D01*
X157408951Y-116255800D01*
X157408971Y-116255800D01*
X157416366Y-116279655D01*
X157422548Y-116345052D01*
X157426973Y-116442737D01*
X157429094Y-116563455D01*
X157429200Y-116598700D01*
X157429200Y-116941600D01*
X157581600Y-116941600D01*
X157581600Y-116462110D01*
X157581587Y-116265055D01*
X157578712Y-116116970D01*
X157568720Y-116016045D01*
X157547359Y-115960469D01*
X157510375Y-115948432D01*
X157453515Y-115978123D01*
G36*
X157810200Y-116941600D02*
G01*
X157988000Y-116941600D01*
X157988000Y-115951000D01*
X157810200Y-115951000D01*
X157810200Y-116941600D01*
G37*
X157810200Y-116941600D02*
X157988000Y-116941600D01*
X157988000Y-115951000D01*
X157810200Y-115951000D01*
X157810200Y-116941600D01*
G36*
X159081584Y-115944947D02*
G01*
X159048831Y-115963574D01*
X159002467Y-116001702D01*
X158937277Y-116063647D01*
X158848042Y-116153727D01*
X158729547Y-116276258D01*
X158721542Y-116284582D01*
X158370634Y-116649500D01*
X158369000Y-115951000D01*
X158190104Y-115951000D01*
X158197002Y-116439950D01*
X158199866Y-116630413D01*
X158205232Y-116773991D01*
X158217340Y-116872097D01*
X158240428Y-116926141D01*
X158278733Y-116937534D01*
X158336494Y-116907688D01*
X158417949Y-116838015D01*
X158527336Y-116729925D01*
X158659866Y-116594092D01*
X159001906Y-116243100D01*
X159004000Y-116941600D01*
X159181800Y-116941600D01*
X159181800Y-116459893D01*
X159181580Y-116292231D01*
X159180407Y-116168215D01*
X159177516Y-116080690D01*
X159172142Y-116022502D01*
X159163520Y-115986499D01*
X159150884Y-115965525D01*
X159133467Y-115952427D01*
X159127125Y-115948925D01*
X159105943Y-115941503D01*
X159081584Y-115944947D01*
G37*
X159081584Y-115944947D02*
X159048831Y-115963574D01*
X159002467Y-116001702D01*
X158937277Y-116063647D01*
X158848042Y-116153727D01*
X158729547Y-116276258D01*
X158721542Y-116284582D01*
X158370634Y-116649500D01*
X158369000Y-115951000D01*
X158190104Y-115951000D01*
X158197002Y-116439950D01*
X158199866Y-116630413D01*
X158205232Y-116773991D01*
X158217340Y-116872097D01*
X158240428Y-116926141D01*
X158278733Y-116937534D01*
X158336494Y-116907688D01*
X158417949Y-116838015D01*
X158527336Y-116729925D01*
X158659866Y-116594092D01*
X159001906Y-116243100D01*
X159004000Y-116941600D01*
X159181800Y-116941600D01*
X159181800Y-116459893D01*
X159181580Y-116292231D01*
X159180407Y-116168215D01*
X159177516Y-116080690D01*
X159172142Y-116022502D01*
X159163520Y-115986499D01*
X159150884Y-115965525D01*
X159133467Y-115952427D01*
X159127125Y-115948925D01*
X159105943Y-115941503D01*
X159081584Y-115944947D01*
G36*
X159385000Y-116941600D02*
G01*
X159562800Y-116941600D01*
X159562800Y-115951000D01*
X159385000Y-115951000D01*
X159385000Y-116941600D01*
G37*
X159385000Y-116941600D02*
X159562800Y-116941600D01*
X159562800Y-115951000D01*
X159385000Y-115951000D01*
X159385000Y-116941600D01*
G36*
X160036334Y-115951831D02*
G01*
X159915709Y-115954689D01*
X159832209Y-115960121D01*
X159779006Y-115968673D01*
X159749275Y-115980892D01*
X159741704Y-115987770D01*
X159728524Y-116006678D01*
X159724590Y-116027261D01*
X159733734Y-116055054D01*
X159759786Y-116095588D01*
X159806576Y-116154396D01*
X159877934Y-116237011D01*
X159977692Y-116348966D01*
X160039050Y-116417267D01*
X160133529Y-116523144D01*
X160214828Y-116615802D01*
X160277356Y-116688743D01*
X160315524Y-116735470D01*
X160324800Y-116749416D01*
X160301073Y-116755079D01*
X160236576Y-116759692D01*
X160141335Y-116762762D01*
X160032700Y-116763800D01*
X159740600Y-116763800D01*
X159740600Y-116941600D01*
X160154620Y-116941600D01*
X160332933Y-116940029D01*
X160463583Y-116935179D01*
X160549613Y-116926841D01*
X160594070Y-116914806D01*
X160599120Y-116911120D01*
X160626184Y-116866720D01*
X160629600Y-116848617D01*
X160613316Y-116820218D01*
X160568112Y-116761092D01*
X160499465Y-116677895D01*
X160412851Y-116577285D01*
X160325591Y-116479047D01*
X160021582Y-116141500D01*
X160629600Y-116127236D01*
X160629600Y-115951000D01*
X160200911Y-115951000D01*
X160036334Y-115951831D01*
G37*
X160036334Y-115951831D02*
X159915709Y-115954689D01*
X159832209Y-115960121D01*
X159779006Y-115968673D01*
X159749275Y-115980892D01*
X159741704Y-115987770D01*
X159728524Y-116006678D01*
X159724590Y-116027261D01*
X159733734Y-116055054D01*
X159759786Y-116095588D01*
X159806576Y-116154396D01*
X159877934Y-116237011D01*
X159977692Y-116348966D01*
X160039050Y-116417267D01*
X160133529Y-116523144D01*
X160214828Y-116615802D01*
X160277356Y-116688743D01*
X160315524Y-116735470D01*
X160324800Y-116749416D01*
X160301073Y-116755079D01*
X160236576Y-116759692D01*
X160141335Y-116762762D01*
X160032700Y-116763800D01*
X159740600Y-116763800D01*
X159740600Y-116941600D01*
X160154620Y-116941600D01*
X160332933Y-116940029D01*
X160463583Y-116935179D01*
X160549613Y-116926841D01*
X160594070Y-116914806D01*
X160599120Y-116911120D01*
X160626184Y-116866720D01*
X160629600Y-116848617D01*
X160613316Y-116820218D01*
X160568112Y-116761092D01*
X160499465Y-116677895D01*
X160412851Y-116577285D01*
X160325591Y-116479047D01*
X160021582Y-116141500D01*
X160629600Y-116127236D01*
X160629600Y-115951000D01*
X160200911Y-115951000D01*
X160036334Y-115951831D01*
G36*
X161668627Y-115942925D02*
G01*
X161615869Y-115991247D01*
X161539119Y-116065084D01*
X161444059Y-116158954D01*
X161336370Y-116267377D01*
X161316540Y-116287550D01*
X160961299Y-116649500D01*
X160960550Y-116300250D01*
X160959800Y-115951000D01*
X160782000Y-115951000D01*
X160782000Y-116406122D01*
X160782831Y-116555354D01*
X160785137Y-116688640D01*
X160788638Y-116796974D01*
X160793052Y-116871349D01*
X160797418Y-116901422D01*
X160819479Y-116936048D01*
X160852634Y-116945563D01*
X160900686Y-116927434D01*
X160967436Y-116879126D01*
X161056686Y-116798103D01*
X161172238Y-116681831D01*
X161251435Y-116598700D01*
X161354775Y-116490342D01*
X161446919Y-116396066D01*
X161522008Y-116321680D01*
X161574181Y-116272989D01*
X161597478Y-116255800D01*
X161605784Y-116279654D01*
X161612728Y-116345050D01*
X161617698Y-116442733D01*
X161620080Y-116563449D01*
X161620200Y-116598700D01*
X161620200Y-116941600D01*
X161772600Y-116941600D01*
X161772600Y-116464080D01*
X161771684Y-116283053D01*
X161768331Y-116146781D01*
X161761636Y-116049240D01*
X161750695Y-115984408D01*
X161734604Y-115946261D01*
X161712457Y-115928777D01*
X161691711Y-115925600D01*
X161668627Y-115942925D01*
G37*
X161668627Y-115942925D02*
X161615869Y-115991247D01*
X161539119Y-116065084D01*
X161444059Y-116158954D01*
X161336370Y-116267377D01*
X161316540Y-116287550D01*
X160961299Y-116649500D01*
X160960550Y-116300250D01*
X160959800Y-115951000D01*
X160782000Y-115951000D01*
X160782000Y-116406122D01*
X160782831Y-116555354D01*
X160785137Y-116688640D01*
X160788638Y-116796974D01*
X160793052Y-116871349D01*
X160797418Y-116901422D01*
X160819479Y-116936048D01*
X160852634Y-116945563D01*
X160900686Y-116927434D01*
X160967436Y-116879126D01*
X161056686Y-116798103D01*
X161172238Y-116681831D01*
X161251435Y-116598700D01*
X161354775Y-116490342D01*
X161446919Y-116396066D01*
X161522008Y-116321680D01*
X161574181Y-116272989D01*
X161597478Y-116255800D01*
X161605784Y-116279654D01*
X161612728Y-116345050D01*
X161617698Y-116442733D01*
X161620080Y-116563449D01*
X161620200Y-116598700D01*
X161620200Y-116941600D01*
X161772600Y-116941600D01*
X161772600Y-116464080D01*
X161771684Y-116283053D01*
X161768331Y-116146781D01*
X161761636Y-116049240D01*
X161750695Y-115984408D01*
X161734604Y-115946261D01*
X161712457Y-115928777D01*
X161691711Y-115925600D01*
X161668627Y-115942925D01*
G36*
X162093277Y-115957605D02*
G01*
X162030455Y-115968471D01*
X162012748Y-115977356D01*
X161999197Y-115997670D01*
X161989259Y-116037249D01*
X161982444Y-116102695D01*
X161978261Y-116200609D01*
X161976220Y-116337590D01*
X161975800Y-116474810D01*
X161975800Y-116941600D01*
X162153600Y-116941600D01*
X162153600Y-116687600D01*
X162788600Y-116687600D01*
X162788600Y-116941600D01*
X162966400Y-116941600D01*
X162966400Y-116632119D01*
X162961607Y-116452920D01*
X162956949Y-116413851D01*
X162788600Y-116413851D01*
X162788600Y-116509800D01*
X162153600Y-116509800D01*
X162153600Y-116128800D01*
X162358062Y-116128800D01*
X162525422Y-116140348D01*
X162649667Y-116176053D01*
X162733194Y-116237499D01*
X162778399Y-116326274D01*
X162788600Y-116413851D01*
X162956949Y-116413851D01*
X162945155Y-116314938D01*
X162913934Y-116209311D01*
X162864836Y-116127182D01*
X162794751Y-116059690D01*
X162755749Y-116031874D01*
X162707419Y-116002386D01*
X162660120Y-115982384D01*
X162602009Y-115969621D01*
X162521240Y-115961852D01*
X162405971Y-115956832D01*
X162351274Y-115955196D01*
X162198952Y-115953263D01*
X162093277Y-115957605D01*
G37*
X162093277Y-115957605D02*
X162030455Y-115968471D01*
X162012748Y-115977356D01*
X161999197Y-115997670D01*
X161989259Y-116037249D01*
X161982444Y-116102695D01*
X161978261Y-116200609D01*
X161976220Y-116337590D01*
X161975800Y-116474810D01*
X161975800Y-116941600D01*
X162153600Y-116941600D01*
X162153600Y-116687600D01*
X162788600Y-116687600D01*
X162788600Y-116941600D01*
X162966400Y-116941600D01*
X162966400Y-116632119D01*
X162961607Y-116452920D01*
X162956949Y-116413851D01*
X162788600Y-116413851D01*
X162788600Y-116509800D01*
X162153600Y-116509800D01*
X162153600Y-116128800D01*
X162358062Y-116128800D01*
X162525422Y-116140348D01*
X162649667Y-116176053D01*
X162733194Y-116237499D01*
X162778399Y-116326274D01*
X162788600Y-116413851D01*
X162956949Y-116413851D01*
X162945155Y-116314938D01*
X162913934Y-116209311D01*
X162864836Y-116127182D01*
X162794751Y-116059690D01*
X162755749Y-116031874D01*
X162707419Y-116002386D01*
X162660120Y-115982384D01*
X162602009Y-115969621D01*
X162521240Y-115961852D01*
X162405971Y-115956832D01*
X162351274Y-115955196D01*
X162198952Y-115953263D01*
X162093277Y-115957605D01*
G36*
X163520044Y-115951244D02*
G01*
X163410939Y-115952776D01*
X163335472Y-115956788D01*
X163285059Y-115964478D01*
X163251120Y-115977039D01*
X163225073Y-115995667D01*
X163203771Y-116016120D01*
X163169575Y-116054873D01*
X163151171Y-116094981D01*
X163145058Y-116152000D01*
X163147734Y-116241485D01*
X163148774Y-116260395D01*
X163156256Y-116357500D01*
X163169184Y-116420198D01*
X163193581Y-116464879D01*
X163235472Y-116507933D01*
X163241881Y-116513697D01*
X163312406Y-116564563D01*
X163384363Y-116598678D01*
X163400332Y-116602936D01*
X163475799Y-116618029D01*
X163367574Y-116709964D01*
X163289444Y-116777103D01*
X163213264Y-116843767D01*
X163182725Y-116871005D01*
X163106100Y-116940110D01*
X163235017Y-116940855D01*
X163296474Y-116939208D01*
X163345879Y-116929323D01*
X163395324Y-116905018D01*
X163456904Y-116860114D01*
X163542713Y-116788432D01*
X163556657Y-116776500D01*
X163673980Y-116682499D01*
X163760883Y-116627723D01*
X163815090Y-116611400D01*
X163859454Y-116605125D01*
X163877628Y-116576261D01*
X163880800Y-116522500D01*
X163880800Y-116433600D01*
X163641315Y-116433600D01*
X163508327Y-116430581D01*
X163417960Y-116418317D01*
X163362229Y-116392001D01*
X163333147Y-116346821D01*
X163322731Y-116277969D01*
X163322000Y-116241285D01*
X163322000Y-116128800D01*
X163957000Y-116128800D01*
X163957000Y-116941600D01*
X164134800Y-116941600D01*
X164134800Y-116476780D01*
X164133508Y-116289404D01*
X164129491Y-116149337D01*
X164122537Y-116053149D01*
X164112436Y-115997411D01*
X164104321Y-115981480D01*
X164069315Y-115968257D01*
X163992821Y-115958913D01*
X163871927Y-115953243D01*
X163703725Y-115951043D01*
X163671366Y-115951000D01*
X163520044Y-115951244D01*
G37*
X163520044Y-115951244D02*
X163410939Y-115952776D01*
X163335472Y-115956788D01*
X163285059Y-115964478D01*
X163251120Y-115977039D01*
X163225073Y-115995667D01*
X163203771Y-116016120D01*
X163169575Y-116054873D01*
X163151171Y-116094981D01*
X163145058Y-116152000D01*
X163147734Y-116241485D01*
X163148774Y-116260395D01*
X163156256Y-116357500D01*
X163169184Y-116420198D01*
X163193581Y-116464879D01*
X163235472Y-116507933D01*
X163241881Y-116513697D01*
X163312406Y-116564563D01*
X163384363Y-116598678D01*
X163400332Y-116602936D01*
X163475799Y-116618029D01*
X163367574Y-116709964D01*
X163289444Y-116777103D01*
X163213264Y-116843767D01*
X163182725Y-116871005D01*
X163106100Y-116940110D01*
X163235017Y-116940855D01*
X163296474Y-116939208D01*
X163345879Y-116929323D01*
X163395324Y-116905018D01*
X163456904Y-116860114D01*
X163542713Y-116788432D01*
X163556657Y-116776500D01*
X163673980Y-116682499D01*
X163760883Y-116627723D01*
X163815090Y-116611400D01*
X163859454Y-116605125D01*
X163877628Y-116576261D01*
X163880800Y-116522500D01*
X163880800Y-116433600D01*
X163641315Y-116433600D01*
X163508327Y-116430581D01*
X163417960Y-116418317D01*
X163362229Y-116392001D01*
X163333147Y-116346821D01*
X163322731Y-116277969D01*
X163322000Y-116241285D01*
X163322000Y-116128800D01*
X163957000Y-116128800D01*
X163957000Y-116941600D01*
X164134800Y-116941600D01*
X164134800Y-116476780D01*
X164133508Y-116289404D01*
X164129491Y-116149337D01*
X164122537Y-116053149D01*
X164112436Y-115997411D01*
X164104321Y-115981480D01*
X164069315Y-115968257D01*
X163992821Y-115958913D01*
X163871927Y-115953243D01*
X163703725Y-115951043D01*
X163671366Y-115951000D01*
X163520044Y-115951244D01*
G36*
X164287200Y-116128800D02*
G01*
X164998400Y-116128800D01*
X164998400Y-116941600D01*
X165176200Y-116941600D01*
X165176200Y-116476780D01*
X165174908Y-116289404D01*
X165170891Y-116149337D01*
X165163937Y-116053149D01*
X165153836Y-115997411D01*
X165145721Y-115981480D01*
X165111380Y-115968468D01*
X165036241Y-115959206D01*
X164917260Y-115953487D01*
X164751392Y-115951100D01*
X164701221Y-115951000D01*
X164287200Y-115951000D01*
X164287200Y-116128800D01*
G37*
X164287200Y-116128800D02*
X164998400Y-116128800D01*
X164998400Y-116941600D01*
X165176200Y-116941600D01*
X165176200Y-116476780D01*
X165174908Y-116289404D01*
X165170891Y-116149337D01*
X165163937Y-116053149D01*
X165153836Y-115997411D01*
X165145721Y-115981480D01*
X165111380Y-115968468D01*
X165036241Y-115959206D01*
X164917260Y-115953487D01*
X164751392Y-115951100D01*
X164701221Y-115951000D01*
X164287200Y-115951000D01*
X164287200Y-116128800D01*
G36*
X155219371Y-107425066D02*
G01*
X155179889Y-107425467D01*
X155064200Y-107428259D01*
X154967311Y-107436550D01*
X154885919Y-107451232D01*
X154816723Y-107473193D01*
X154756420Y-107503322D01*
X154701708Y-107542510D01*
X154682167Y-107559532D01*
X154649750Y-107599363D01*
X154620520Y-107653413D01*
X154597991Y-107713323D01*
X154585679Y-107770739D01*
X154584400Y-107791956D01*
X154592417Y-107850769D01*
X154613899Y-107915013D01*
X154644999Y-107975821D01*
X154681866Y-108024330D01*
X154687854Y-108030182D01*
X154738579Y-108071321D01*
X154794125Y-108103435D01*
X154857696Y-108127365D01*
X154932494Y-108143953D01*
X155021722Y-108154041D01*
X155128582Y-108158469D01*
X155177528Y-108158845D01*
X155239762Y-108158545D01*
X155283528Y-108157292D01*
X155312931Y-108154554D01*
X155332079Y-108149801D01*
X155345077Y-108142501D01*
X155352045Y-108136267D01*
X155358626Y-108128694D01*
X155363788Y-108118924D01*
X155367703Y-108104340D01*
X155370543Y-108082326D01*
X155372480Y-108050264D01*
X155373684Y-108005536D01*
X155374328Y-107945526D01*
X155374583Y-107867617D01*
X155374622Y-107791956D01*
X155374870Y-107691041D01*
X155374817Y-107610427D01*
X155373857Y-107571822D01*
X155227867Y-107571822D01*
X155227867Y-108012089D01*
X155134734Y-108012004D01*
X155078693Y-108010396D01*
X155019999Y-108006256D01*
X154971028Y-108000464D01*
X154969538Y-108000226D01*
X154890392Y-107981090D01*
X154829002Y-107951287D01*
X154782305Y-107908878D01*
X154752635Y-107862961D01*
X154734353Y-107812026D01*
X154735771Y-107764200D01*
X154756988Y-107712933D01*
X154798489Y-107659899D01*
X154855998Y-107620600D01*
X154930750Y-107594331D01*
X154980708Y-107585035D01*
X155037416Y-107578507D01*
X155097519Y-107573782D01*
X155148639Y-107571817D01*
X155151667Y-107571808D01*
X155227867Y-107571822D01*
X155373857Y-107571822D01*
X155373260Y-107547851D01*
X155368998Y-107501055D01*
X155360830Y-107467778D01*
X155347556Y-107445759D01*
X155327974Y-107432739D01*
X155300883Y-107426457D01*
X155265082Y-107424653D01*
X155219371Y-107425066D01*
G37*
X155219371Y-107425066D02*
X155179889Y-107425467D01*
X155064200Y-107428259D01*
X154967311Y-107436550D01*
X154885919Y-107451232D01*
X154816723Y-107473193D01*
X154756420Y-107503322D01*
X154701708Y-107542510D01*
X154682167Y-107559532D01*
X154649750Y-107599363D01*
X154620520Y-107653413D01*
X154597991Y-107713323D01*
X154585679Y-107770739D01*
X154584400Y-107791956D01*
X154592417Y-107850769D01*
X154613899Y-107915013D01*
X154644999Y-107975821D01*
X154681866Y-108024330D01*
X154687854Y-108030182D01*
X154738579Y-108071321D01*
X154794125Y-108103435D01*
X154857696Y-108127365D01*
X154932494Y-108143953D01*
X155021722Y-108154041D01*
X155128582Y-108158469D01*
X155177528Y-108158845D01*
X155239762Y-108158545D01*
X155283528Y-108157292D01*
X155312931Y-108154554D01*
X155332079Y-108149801D01*
X155345077Y-108142501D01*
X155352045Y-108136267D01*
X155358626Y-108128694D01*
X155363788Y-108118924D01*
X155367703Y-108104340D01*
X155370543Y-108082326D01*
X155372480Y-108050264D01*
X155373684Y-108005536D01*
X155374328Y-107945526D01*
X155374583Y-107867617D01*
X155374622Y-107791956D01*
X155374870Y-107691041D01*
X155374817Y-107610427D01*
X155373857Y-107571822D01*
X155227867Y-107571822D01*
X155227867Y-108012089D01*
X155134734Y-108012004D01*
X155078693Y-108010396D01*
X155019999Y-108006256D01*
X154971028Y-108000464D01*
X154969538Y-108000226D01*
X154890392Y-107981090D01*
X154829002Y-107951287D01*
X154782305Y-107908878D01*
X154752635Y-107862961D01*
X154734353Y-107812026D01*
X154735771Y-107764200D01*
X154756988Y-107712933D01*
X154798489Y-107659899D01*
X154855998Y-107620600D01*
X154930750Y-107594331D01*
X154980708Y-107585035D01*
X155037416Y-107578507D01*
X155097519Y-107573782D01*
X155148639Y-107571817D01*
X155151667Y-107571808D01*
X155227867Y-107571822D01*
X155373857Y-107571822D01*
X155373260Y-107547851D01*
X155368998Y-107501055D01*
X155360830Y-107467778D01*
X155347556Y-107445759D01*
X155327974Y-107432739D01*
X155300883Y-107426457D01*
X155265082Y-107424653D01*
X155219371Y-107425066D01*
G36*
X153810794Y-107425146D02*
G01*
X153741386Y-107425518D01*
X153688997Y-107426385D01*
X153650847Y-107427946D01*
X153624159Y-107430403D01*
X153606153Y-107433957D01*
X153594049Y-107438810D01*
X153585069Y-107445161D01*
X153581818Y-107448084D01*
X153562043Y-107479142D01*
X153558482Y-107514828D01*
X153571491Y-107546510D01*
X153577506Y-107552913D01*
X153587235Y-107559121D01*
X153602901Y-107563910D01*
X153627408Y-107567514D01*
X153663661Y-107570164D01*
X153714565Y-107572095D01*
X153783026Y-107573539D01*
X153845617Y-107574418D01*
X154093334Y-107577467D01*
X154096719Y-107642378D01*
X154100105Y-107707289D01*
X153931958Y-107707289D01*
X153858959Y-107707919D01*
X153805517Y-107710553D01*
X153768628Y-107716309D01*
X153745288Y-107726304D01*
X153732494Y-107741656D01*
X153727242Y-107763482D01*
X153726445Y-107783738D01*
X153728923Y-107808592D01*
X153738277Y-107826906D01*
X153757383Y-107839637D01*
X153789118Y-107847741D01*
X153836359Y-107852176D01*
X153901983Y-107853899D01*
X153937801Y-107854045D01*
X154098978Y-107854045D01*
X154098978Y-108012089D01*
X153850622Y-108012089D01*
X153769213Y-108012202D01*
X153707342Y-108012712D01*
X153661968Y-108013870D01*
X153630054Y-108015930D01*
X153608559Y-108019146D01*
X153594443Y-108023772D01*
X153584668Y-108030059D01*
X153579689Y-108034667D01*
X153562610Y-108061560D01*
X153557111Y-108085467D01*
X153564963Y-108114667D01*
X153579689Y-108136267D01*
X153587546Y-108143066D01*
X153597688Y-108148346D01*
X153612844Y-108152298D01*
X153635741Y-108155113D01*
X153669109Y-108156982D01*
X153715675Y-108158098D01*
X153778167Y-108158651D01*
X153859314Y-108158833D01*
X153901422Y-108158845D01*
X153991598Y-108158765D01*
X154061924Y-108158398D01*
X154115129Y-108157552D01*
X154153940Y-108156036D01*
X154181087Y-108153659D01*
X154199298Y-108150229D01*
X154211300Y-108145554D01*
X154219822Y-108139444D01*
X154223156Y-108136267D01*
X154229755Y-108128670D01*
X154234927Y-108118870D01*
X154238846Y-108104239D01*
X154241684Y-108082152D01*
X154243615Y-108049982D01*
X154244812Y-108005103D01*
X154245448Y-107944889D01*
X154245697Y-107866713D01*
X154245734Y-107793923D01*
X154245700Y-107700707D01*
X154245465Y-107627431D01*
X154244830Y-107571458D01*
X154243594Y-107530151D01*
X154241556Y-107500872D01*
X154238517Y-107480984D01*
X154234277Y-107467850D01*
X154228635Y-107458832D01*
X154221391Y-107451293D01*
X154219606Y-107449612D01*
X154210945Y-107442172D01*
X154200882Y-107436409D01*
X154186625Y-107432112D01*
X154165383Y-107429064D01*
X154134364Y-107427051D01*
X154090777Y-107425860D01*
X154031831Y-107425275D01*
X153954734Y-107425083D01*
X153900001Y-107425067D01*
X153810794Y-107425146D01*
G37*
X153810794Y-107425146D02*
X153741386Y-107425518D01*
X153688997Y-107426385D01*
X153650847Y-107427946D01*
X153624159Y-107430403D01*
X153606153Y-107433957D01*
X153594049Y-107438810D01*
X153585069Y-107445161D01*
X153581818Y-107448084D01*
X153562043Y-107479142D01*
X153558482Y-107514828D01*
X153571491Y-107546510D01*
X153577506Y-107552913D01*
X153587235Y-107559121D01*
X153602901Y-107563910D01*
X153627408Y-107567514D01*
X153663661Y-107570164D01*
X153714565Y-107572095D01*
X153783026Y-107573539D01*
X153845617Y-107574418D01*
X154093334Y-107577467D01*
X154096719Y-107642378D01*
X154100105Y-107707289D01*
X153931958Y-107707289D01*
X153858959Y-107707919D01*
X153805517Y-107710553D01*
X153768628Y-107716309D01*
X153745288Y-107726304D01*
X153732494Y-107741656D01*
X153727242Y-107763482D01*
X153726445Y-107783738D01*
X153728923Y-107808592D01*
X153738277Y-107826906D01*
X153757383Y-107839637D01*
X153789118Y-107847741D01*
X153836359Y-107852176D01*
X153901983Y-107853899D01*
X153937801Y-107854045D01*
X154098978Y-107854045D01*
X154098978Y-108012089D01*
X153850622Y-108012089D01*
X153769213Y-108012202D01*
X153707342Y-108012712D01*
X153661968Y-108013870D01*
X153630054Y-108015930D01*
X153608559Y-108019146D01*
X153594443Y-108023772D01*
X153584668Y-108030059D01*
X153579689Y-108034667D01*
X153562610Y-108061560D01*
X153557111Y-108085467D01*
X153564963Y-108114667D01*
X153579689Y-108136267D01*
X153587546Y-108143066D01*
X153597688Y-108148346D01*
X153612844Y-108152298D01*
X153635741Y-108155113D01*
X153669109Y-108156982D01*
X153715675Y-108158098D01*
X153778167Y-108158651D01*
X153859314Y-108158833D01*
X153901422Y-108158845D01*
X153991598Y-108158765D01*
X154061924Y-108158398D01*
X154115129Y-108157552D01*
X154153940Y-108156036D01*
X154181087Y-108153659D01*
X154199298Y-108150229D01*
X154211300Y-108145554D01*
X154219822Y-108139444D01*
X154223156Y-108136267D01*
X154229755Y-108128670D01*
X154234927Y-108118870D01*
X154238846Y-108104239D01*
X154241684Y-108082152D01*
X154243615Y-108049982D01*
X154244812Y-108005103D01*
X154245448Y-107944889D01*
X154245697Y-107866713D01*
X154245734Y-107793923D01*
X154245700Y-107700707D01*
X154245465Y-107627431D01*
X154244830Y-107571458D01*
X154243594Y-107530151D01*
X154241556Y-107500872D01*
X154238517Y-107480984D01*
X154234277Y-107467850D01*
X154228635Y-107458832D01*
X154221391Y-107451293D01*
X154219606Y-107449612D01*
X154210945Y-107442172D01*
X154200882Y-107436409D01*
X154186625Y-107432112D01*
X154165383Y-107429064D01*
X154134364Y-107427051D01*
X154090777Y-107425860D01*
X154031831Y-107425275D01*
X153954734Y-107425083D01*
X153900001Y-107425067D01*
X153810794Y-107425146D01*
G36*
X152789703Y-107426351D02*
G01*
X152714888Y-107431581D01*
X152645306Y-107439750D01*
X152585002Y-107450550D01*
X152538020Y-107463673D01*
X152508406Y-107478813D01*
X152503860Y-107483269D01*
X152488054Y-107517850D01*
X152492847Y-107553351D01*
X152517364Y-107583725D01*
X152518534Y-107584596D01*
X152532954Y-107593954D01*
X152548008Y-107598876D01*
X152569005Y-107599473D01*
X152601257Y-107595861D01*
X152650073Y-107588154D01*
X152654000Y-107587505D01*
X152726739Y-107578569D01*
X152805217Y-107574161D01*
X152883927Y-107574119D01*
X152957361Y-107578279D01*
X153020011Y-107586479D01*
X153066370Y-107598557D01*
X153069416Y-107599771D01*
X153103048Y-107618615D01*
X153114864Y-107637685D01*
X153105614Y-107656439D01*
X153076047Y-107674337D01*
X153026911Y-107690837D01*
X152958957Y-107705396D01*
X152913645Y-107712406D01*
X152819456Y-107725889D01*
X152744544Y-107738214D01*
X152685717Y-107750449D01*
X152639785Y-107763661D01*
X152603555Y-107778917D01*
X152573838Y-107797285D01*
X152547442Y-107819831D01*
X152526230Y-107841971D01*
X152501065Y-107872819D01*
X152488681Y-107899345D01*
X152484808Y-107932026D01*
X152484667Y-107943995D01*
X152487576Y-107983712D01*
X152499202Y-108013259D01*
X152519323Y-108039486D01*
X152560216Y-108079576D01*
X152605817Y-108110149D01*
X152659513Y-108132203D01*
X152724692Y-108146735D01*
X152804744Y-108154741D01*
X152903057Y-108157218D01*
X152919289Y-108157177D01*
X152984849Y-108155818D01*
X153049866Y-108152730D01*
X153107252Y-108148356D01*
X153149922Y-108143140D01*
X153153372Y-108142541D01*
X153195796Y-108132491D01*
X153231780Y-108119796D01*
X153252150Y-108108190D01*
X153271107Y-108077572D01*
X153272427Y-108041918D01*
X153256085Y-108010144D01*
X153252429Y-108006551D01*
X153237315Y-107995876D01*
X153218415Y-107991276D01*
X153189162Y-107992059D01*
X153153651Y-107996127D01*
X153113970Y-107999762D01*
X153058345Y-108002828D01*
X152993406Y-108005053D01*
X152925785Y-108006164D01*
X152908000Y-108006237D01*
X152840128Y-108005964D01*
X152790454Y-108004646D01*
X152754610Y-108001827D01*
X152728224Y-107997050D01*
X152706926Y-107989857D01*
X152694126Y-107983867D01*
X152666000Y-107967233D01*
X152648068Y-107952168D01*
X152645447Y-107947897D01*
X152650976Y-107930263D01*
X152677260Y-107913192D01*
X152722478Y-107897458D01*
X152784808Y-107883838D01*
X152803171Y-107880804D01*
X152899090Y-107865738D01*
X152975641Y-107853146D01*
X153035780Y-107842111D01*
X153082460Y-107831720D01*
X153118637Y-107821056D01*
X153147265Y-107809205D01*
X153171298Y-107795251D01*
X153193692Y-107778281D01*
X153217402Y-107757378D01*
X153225380Y-107750049D01*
X153253353Y-107722699D01*
X153268160Y-107701029D01*
X153273952Y-107676232D01*
X153274889Y-107644983D01*
X153264575Y-107583705D01*
X153233752Y-107531640D01*
X153182595Y-107488958D01*
X153111283Y-107455825D01*
X153060400Y-107440964D01*
X153005100Y-107431366D01*
X152938853Y-107425936D01*
X152865706Y-107424367D01*
X152789703Y-107426351D01*
G37*
X152789703Y-107426351D02*
X152714888Y-107431581D01*
X152645306Y-107439750D01*
X152585002Y-107450550D01*
X152538020Y-107463673D01*
X152508406Y-107478813D01*
X152503860Y-107483269D01*
X152488054Y-107517850D01*
X152492847Y-107553351D01*
X152517364Y-107583725D01*
X152518534Y-107584596D01*
X152532954Y-107593954D01*
X152548008Y-107598876D01*
X152569005Y-107599473D01*
X152601257Y-107595861D01*
X152650073Y-107588154D01*
X152654000Y-107587505D01*
X152726739Y-107578569D01*
X152805217Y-107574161D01*
X152883927Y-107574119D01*
X152957361Y-107578279D01*
X153020011Y-107586479D01*
X153066370Y-107598557D01*
X153069416Y-107599771D01*
X153103048Y-107618615D01*
X153114864Y-107637685D01*
X153105614Y-107656439D01*
X153076047Y-107674337D01*
X153026911Y-107690837D01*
X152958957Y-107705396D01*
X152913645Y-107712406D01*
X152819456Y-107725889D01*
X152744544Y-107738214D01*
X152685717Y-107750449D01*
X152639785Y-107763661D01*
X152603555Y-107778917D01*
X152573838Y-107797285D01*
X152547442Y-107819831D01*
X152526230Y-107841971D01*
X152501065Y-107872819D01*
X152488681Y-107899345D01*
X152484808Y-107932026D01*
X152484667Y-107943995D01*
X152487576Y-107983712D01*
X152499202Y-108013259D01*
X152519323Y-108039486D01*
X152560216Y-108079576D01*
X152605817Y-108110149D01*
X152659513Y-108132203D01*
X152724692Y-108146735D01*
X152804744Y-108154741D01*
X152903057Y-108157218D01*
X152919289Y-108157177D01*
X152984849Y-108155818D01*
X153049866Y-108152730D01*
X153107252Y-108148356D01*
X153149922Y-108143140D01*
X153153372Y-108142541D01*
X153195796Y-108132491D01*
X153231780Y-108119796D01*
X153252150Y-108108190D01*
X153271107Y-108077572D01*
X153272427Y-108041918D01*
X153256085Y-108010144D01*
X153252429Y-108006551D01*
X153237315Y-107995876D01*
X153218415Y-107991276D01*
X153189162Y-107992059D01*
X153153651Y-107996127D01*
X153113970Y-107999762D01*
X153058345Y-108002828D01*
X152993406Y-108005053D01*
X152925785Y-108006164D01*
X152908000Y-108006237D01*
X152840128Y-108005964D01*
X152790454Y-108004646D01*
X152754610Y-108001827D01*
X152728224Y-107997050D01*
X152706926Y-107989857D01*
X152694126Y-107983867D01*
X152666000Y-107967233D01*
X152648068Y-107952168D01*
X152645447Y-107947897D01*
X152650976Y-107930263D01*
X152677260Y-107913192D01*
X152722478Y-107897458D01*
X152784808Y-107883838D01*
X152803171Y-107880804D01*
X152899090Y-107865738D01*
X152975641Y-107853146D01*
X153035780Y-107842111D01*
X153082460Y-107831720D01*
X153118637Y-107821056D01*
X153147265Y-107809205D01*
X153171298Y-107795251D01*
X153193692Y-107778281D01*
X153217402Y-107757378D01*
X153225380Y-107750049D01*
X153253353Y-107722699D01*
X153268160Y-107701029D01*
X153273952Y-107676232D01*
X153274889Y-107644983D01*
X153264575Y-107583705D01*
X153233752Y-107531640D01*
X153182595Y-107488958D01*
X153111283Y-107455825D01*
X153060400Y-107440964D01*
X153005100Y-107431366D01*
X152938853Y-107425936D01*
X152865706Y-107424367D01*
X152789703Y-107426351D01*
G36*
X152021822Y-107447645D02*
G01*
X152015242Y-107455218D01*
X152010079Y-107464987D01*
X152006164Y-107479571D01*
X152003324Y-107501585D01*
X152001387Y-107533648D01*
X152000183Y-107578375D01*
X151999539Y-107638385D01*
X151999284Y-107716294D01*
X151999245Y-107791956D01*
X151999314Y-107885802D01*
X151999638Y-107959689D01*
X152000386Y-108016232D01*
X152001732Y-108058049D01*
X152003846Y-108087757D01*
X152006900Y-108107973D01*
X152011066Y-108121314D01*
X152016516Y-108130398D01*
X152021822Y-108136267D01*
X152054826Y-108155947D01*
X152089991Y-108154181D01*
X152121455Y-108132717D01*
X152128684Y-108124337D01*
X152134334Y-108114614D01*
X152138599Y-108100861D01*
X152141673Y-108080389D01*
X152143752Y-108050512D01*
X152145030Y-108008541D01*
X152145701Y-107951789D01*
X152145959Y-107877567D01*
X152146000Y-107793537D01*
X152146000Y-107480485D01*
X152118291Y-107452776D01*
X152084137Y-107429463D01*
X152051006Y-107428623D01*
X152021822Y-107447645D01*
G37*
X152021822Y-107447645D02*
X152015242Y-107455218D01*
X152010079Y-107464987D01*
X152006164Y-107479571D01*
X152003324Y-107501585D01*
X152001387Y-107533648D01*
X152000183Y-107578375D01*
X151999539Y-107638385D01*
X151999284Y-107716294D01*
X151999245Y-107791956D01*
X151999314Y-107885802D01*
X151999638Y-107959689D01*
X152000386Y-108016232D01*
X152001732Y-108058049D01*
X152003846Y-108087757D01*
X152006900Y-108107973D01*
X152011066Y-108121314D01*
X152016516Y-108130398D01*
X152021822Y-108136267D01*
X152054826Y-108155947D01*
X152089991Y-108154181D01*
X152121455Y-108132717D01*
X152128684Y-108124337D01*
X152134334Y-108114614D01*
X152138599Y-108100861D01*
X152141673Y-108080389D01*
X152143752Y-108050512D01*
X152145030Y-108008541D01*
X152145701Y-107951789D01*
X152145959Y-107877567D01*
X152146000Y-107793537D01*
X152146000Y-107480485D01*
X152118291Y-107452776D01*
X152084137Y-107429463D01*
X152051006Y-107428623D01*
X152021822Y-107447645D01*
G36*
X151048081Y-107430599D02*
G01*
X150979565Y-107442095D01*
X150926943Y-107459967D01*
X150892708Y-107483499D01*
X150883379Y-107496924D01*
X150873893Y-107528148D01*
X150880277Y-107556395D01*
X150900430Y-107583182D01*
X150931745Y-107595713D01*
X150977183Y-107594696D01*
X151012326Y-107587906D01*
X151090419Y-107574971D01*
X151170226Y-107573742D01*
X151259555Y-107584241D01*
X151284229Y-107588690D01*
X151367291Y-107612108D01*
X151432273Y-107646945D01*
X151478461Y-107692604D01*
X151505145Y-107748494D01*
X151510663Y-107777388D01*
X151507051Y-107836012D01*
X151483729Y-107887879D01*
X151442824Y-107931978D01*
X151386459Y-107967299D01*
X151316760Y-107992829D01*
X151235852Y-108007559D01*
X151145860Y-108010478D01*
X151048910Y-108000575D01*
X151043436Y-107999641D01*
X151004875Y-107992459D01*
X150983494Y-107985521D01*
X150974227Y-107975227D01*
X150972006Y-107957976D01*
X150971956Y-107948841D01*
X150971956Y-107910489D01*
X151040431Y-107910489D01*
X151100900Y-107906347D01*
X151142165Y-107893147D01*
X151166175Y-107869730D01*
X151174877Y-107834936D01*
X151174983Y-107830394D01*
X151169892Y-107800654D01*
X151152433Y-107779419D01*
X151119939Y-107765366D01*
X151069743Y-107757173D01*
X151021123Y-107754161D01*
X150950456Y-107752433D01*
X150899198Y-107755070D01*
X150864239Y-107764800D01*
X150842470Y-107784353D01*
X150830780Y-107816456D01*
X150826060Y-107863838D01*
X150825200Y-107926071D01*
X150826609Y-107995535D01*
X150830848Y-108042786D01*
X150837936Y-108068012D01*
X150839311Y-108069988D01*
X150878228Y-108101508D01*
X150935286Y-108126470D01*
X151006869Y-108144340D01*
X151089358Y-108154586D01*
X151179139Y-108156673D01*
X151272592Y-108150068D01*
X151327556Y-108141956D01*
X151413766Y-108117554D01*
X151493892Y-108077662D01*
X151560977Y-108025887D01*
X151571173Y-108015539D01*
X151604302Y-107972035D01*
X151634194Y-107918118D01*
X151657357Y-107861592D01*
X151670298Y-107810259D01*
X151671858Y-107790544D01*
X151665218Y-107749419D01*
X151647568Y-107698252D01*
X151622297Y-107644394D01*
X151592789Y-107595195D01*
X151566719Y-107562334D01*
X151505765Y-107513452D01*
X151426969Y-107474545D01*
X151333157Y-107446494D01*
X151227150Y-107430179D01*
X151130000Y-107426192D01*
X151048081Y-107430599D01*
G37*
X151048081Y-107430599D02*
X150979565Y-107442095D01*
X150926943Y-107459967D01*
X150892708Y-107483499D01*
X150883379Y-107496924D01*
X150873893Y-107528148D01*
X150880277Y-107556395D01*
X150900430Y-107583182D01*
X150931745Y-107595713D01*
X150977183Y-107594696D01*
X151012326Y-107587906D01*
X151090419Y-107574971D01*
X151170226Y-107573742D01*
X151259555Y-107584241D01*
X151284229Y-107588690D01*
X151367291Y-107612108D01*
X151432273Y-107646945D01*
X151478461Y-107692604D01*
X151505145Y-107748494D01*
X151510663Y-107777388D01*
X151507051Y-107836012D01*
X151483729Y-107887879D01*
X151442824Y-107931978D01*
X151386459Y-107967299D01*
X151316760Y-107992829D01*
X151235852Y-108007559D01*
X151145860Y-108010478D01*
X151048910Y-108000575D01*
X151043436Y-107999641D01*
X151004875Y-107992459D01*
X150983494Y-107985521D01*
X150974227Y-107975227D01*
X150972006Y-107957976D01*
X150971956Y-107948841D01*
X150971956Y-107910489D01*
X151040431Y-107910489D01*
X151100900Y-107906347D01*
X151142165Y-107893147D01*
X151166175Y-107869730D01*
X151174877Y-107834936D01*
X151174983Y-107830394D01*
X151169892Y-107800654D01*
X151152433Y-107779419D01*
X151119939Y-107765366D01*
X151069743Y-107757173D01*
X151021123Y-107754161D01*
X150950456Y-107752433D01*
X150899198Y-107755070D01*
X150864239Y-107764800D01*
X150842470Y-107784353D01*
X150830780Y-107816456D01*
X150826060Y-107863838D01*
X150825200Y-107926071D01*
X150826609Y-107995535D01*
X150830848Y-108042786D01*
X150837936Y-108068012D01*
X150839311Y-108069988D01*
X150878228Y-108101508D01*
X150935286Y-108126470D01*
X151006869Y-108144340D01*
X151089358Y-108154586D01*
X151179139Y-108156673D01*
X151272592Y-108150068D01*
X151327556Y-108141956D01*
X151413766Y-108117554D01*
X151493892Y-108077662D01*
X151560977Y-108025887D01*
X151571173Y-108015539D01*
X151604302Y-107972035D01*
X151634194Y-107918118D01*
X151657357Y-107861592D01*
X151670298Y-107810259D01*
X151671858Y-107790544D01*
X151665218Y-107749419D01*
X151647568Y-107698252D01*
X151622297Y-107644394D01*
X151592789Y-107595195D01*
X151566719Y-107562334D01*
X151505765Y-107513452D01*
X151426969Y-107474545D01*
X151333157Y-107446494D01*
X151227150Y-107430179D01*
X151130000Y-107426192D01*
X151048081Y-107430599D01*
G36*
X150398114Y-107429448D02*
G01*
X150374548Y-107443273D01*
X150343735Y-107465881D01*
X150304078Y-107498338D01*
X150253980Y-107541708D01*
X150191843Y-107597058D01*
X150116072Y-107665451D01*
X150029334Y-107744084D01*
X149848711Y-107907878D01*
X149843067Y-107688029D01*
X149841029Y-107612351D01*
X149839063Y-107555994D01*
X149836734Y-107515706D01*
X149833606Y-107488235D01*
X149829245Y-107470329D01*
X149823216Y-107458737D01*
X149815084Y-107450208D01*
X149810772Y-107446623D01*
X149776241Y-107427670D01*
X149743383Y-107430441D01*
X149717318Y-107446633D01*
X149690667Y-107468199D01*
X149687352Y-107783151D01*
X149686435Y-107875779D01*
X149685968Y-107948544D01*
X149686113Y-108004161D01*
X149687032Y-108045342D01*
X149688887Y-108074803D01*
X149691839Y-108095255D01*
X149696050Y-108109413D01*
X149701682Y-108119991D01*
X149707927Y-108128474D01*
X149721439Y-108144207D01*
X149734883Y-108154636D01*
X149750124Y-108158639D01*
X149769026Y-108155094D01*
X149793455Y-108142879D01*
X149825273Y-108120871D01*
X149866348Y-108087949D01*
X149918542Y-108042991D01*
X149983722Y-107984875D01*
X150057556Y-107918099D01*
X150322845Y-107677458D01*
X150328489Y-107896589D01*
X150330531Y-107972128D01*
X150332502Y-108028354D01*
X150334839Y-108068524D01*
X150337981Y-108095896D01*
X150342364Y-108113728D01*
X150348424Y-108125279D01*
X150356600Y-108133807D01*
X150360784Y-108137282D01*
X150397765Y-108156372D01*
X150432708Y-108153493D01*
X150463136Y-108129100D01*
X150470097Y-108119286D01*
X150475523Y-108107826D01*
X150479603Y-108091968D01*
X150482529Y-108068963D01*
X150484492Y-108036062D01*
X150485683Y-107990516D01*
X150486292Y-107929573D01*
X150486511Y-107850486D01*
X150486534Y-107791956D01*
X150486460Y-107700407D01*
X150486113Y-107628687D01*
X150485301Y-107574045D01*
X150483833Y-107533732D01*
X150481519Y-107504998D01*
X150478167Y-107485093D01*
X150473588Y-107471268D01*
X150467589Y-107460772D01*
X150463136Y-107454811D01*
X150451850Y-107440691D01*
X150441301Y-107430029D01*
X150429893Y-107423892D01*
X150416030Y-107423343D01*
X150398114Y-107429448D01*
G37*
X150398114Y-107429448D02*
X150374548Y-107443273D01*
X150343735Y-107465881D01*
X150304078Y-107498338D01*
X150253980Y-107541708D01*
X150191843Y-107597058D01*
X150116072Y-107665451D01*
X150029334Y-107744084D01*
X149848711Y-107907878D01*
X149843067Y-107688029D01*
X149841029Y-107612351D01*
X149839063Y-107555994D01*
X149836734Y-107515706D01*
X149833606Y-107488235D01*
X149829245Y-107470329D01*
X149823216Y-107458737D01*
X149815084Y-107450208D01*
X149810772Y-107446623D01*
X149776241Y-107427670D01*
X149743383Y-107430441D01*
X149717318Y-107446633D01*
X149690667Y-107468199D01*
X149687352Y-107783151D01*
X149686435Y-107875779D01*
X149685968Y-107948544D01*
X149686113Y-108004161D01*
X149687032Y-108045342D01*
X149688887Y-108074803D01*
X149691839Y-108095255D01*
X149696050Y-108109413D01*
X149701682Y-108119991D01*
X149707927Y-108128474D01*
X149721439Y-108144207D01*
X149734883Y-108154636D01*
X149750124Y-108158639D01*
X149769026Y-108155094D01*
X149793455Y-108142879D01*
X149825273Y-108120871D01*
X149866348Y-108087949D01*
X149918542Y-108042991D01*
X149983722Y-107984875D01*
X150057556Y-107918099D01*
X150322845Y-107677458D01*
X150328489Y-107896589D01*
X150330531Y-107972128D01*
X150332502Y-108028354D01*
X150334839Y-108068524D01*
X150337981Y-108095896D01*
X150342364Y-108113728D01*
X150348424Y-108125279D01*
X150356600Y-108133807D01*
X150360784Y-108137282D01*
X150397765Y-108156372D01*
X150432708Y-108153493D01*
X150463136Y-108129100D01*
X150470097Y-108119286D01*
X150475523Y-108107826D01*
X150479603Y-108091968D01*
X150482529Y-108068963D01*
X150484492Y-108036062D01*
X150485683Y-107990516D01*
X150486292Y-107929573D01*
X150486511Y-107850486D01*
X150486534Y-107791956D01*
X150486460Y-107700407D01*
X150486113Y-107628687D01*
X150485301Y-107574045D01*
X150483833Y-107533732D01*
X150481519Y-107504998D01*
X150478167Y-107485093D01*
X150473588Y-107471268D01*
X150467589Y-107460772D01*
X150463136Y-107454811D01*
X150451850Y-107440691D01*
X150441301Y-107430029D01*
X150429893Y-107423892D01*
X150416030Y-107423343D01*
X150398114Y-107429448D01*
G36*
X148867657Y-107425260D02*
G01*
X148791299Y-107426174D01*
X148732783Y-107428311D01*
X148689745Y-107432175D01*
X148659817Y-107438267D01*
X148640632Y-107447090D01*
X148629824Y-107459146D01*
X148625027Y-107474939D01*
X148623873Y-107494970D01*
X148623867Y-107497335D01*
X148624869Y-107519992D01*
X148629604Y-107537503D01*
X148640667Y-107550574D01*
X148660652Y-107559913D01*
X148692154Y-107566227D01*
X148737768Y-107570222D01*
X148800087Y-107572606D01*
X148881707Y-107574086D01*
X148906723Y-107574414D01*
X149148800Y-107577467D01*
X149152186Y-107642378D01*
X149155571Y-107707289D01*
X148987424Y-107707289D01*
X148921734Y-107707531D01*
X148874828Y-107708556D01*
X148842917Y-107710811D01*
X148822209Y-107714742D01*
X148808916Y-107720798D01*
X148799245Y-107729424D01*
X148799183Y-107729493D01*
X148781644Y-107763112D01*
X148782278Y-107799448D01*
X148800686Y-107830423D01*
X148804329Y-107833607D01*
X148817259Y-107841812D01*
X148834976Y-107847521D01*
X148861430Y-107851162D01*
X148900568Y-107853167D01*
X148956338Y-107853964D01*
X148992006Y-107854045D01*
X149154445Y-107854045D01*
X149154445Y-108012089D01*
X148907839Y-108012089D01*
X148826420Y-108012231D01*
X148764590Y-108012814D01*
X148719363Y-108014068D01*
X148687752Y-108016227D01*
X148666769Y-108019523D01*
X148653427Y-108024189D01*
X148644739Y-108030457D01*
X148642550Y-108032733D01*
X148626386Y-108064280D01*
X148625203Y-108100168D01*
X148638464Y-108131285D01*
X148648957Y-108141271D01*
X148659871Y-108146769D01*
X148676783Y-108151022D01*
X148702367Y-108154180D01*
X148739299Y-108156392D01*
X148790254Y-108157806D01*
X148857906Y-108158572D01*
X148944931Y-108158838D01*
X148964606Y-108158845D01*
X149053089Y-108158787D01*
X149121773Y-108158467D01*
X149173436Y-108157667D01*
X149210855Y-108156167D01*
X149236810Y-108153749D01*
X149254078Y-108150194D01*
X149265438Y-108145282D01*
X149273668Y-108138795D01*
X149278183Y-108134138D01*
X149284979Y-108125889D01*
X149290288Y-108115669D01*
X149294294Y-108100800D01*
X149297179Y-108078602D01*
X149299126Y-108046393D01*
X149300319Y-108001496D01*
X149300939Y-107941228D01*
X149301171Y-107862911D01*
X149301200Y-107796994D01*
X149301129Y-107704628D01*
X149300792Y-107632117D01*
X149300002Y-107576737D01*
X149298574Y-107535765D01*
X149296321Y-107506478D01*
X149293057Y-107486153D01*
X149288596Y-107472066D01*
X149282752Y-107461495D01*
X149277803Y-107454811D01*
X149254406Y-107425067D01*
X148964226Y-107425067D01*
X148867657Y-107425260D01*
G37*
X148867657Y-107425260D02*
X148791299Y-107426174D01*
X148732783Y-107428311D01*
X148689745Y-107432175D01*
X148659817Y-107438267D01*
X148640632Y-107447090D01*
X148629824Y-107459146D01*
X148625027Y-107474939D01*
X148623873Y-107494970D01*
X148623867Y-107497335D01*
X148624869Y-107519992D01*
X148629604Y-107537503D01*
X148640667Y-107550574D01*
X148660652Y-107559913D01*
X148692154Y-107566227D01*
X148737768Y-107570222D01*
X148800087Y-107572606D01*
X148881707Y-107574086D01*
X148906723Y-107574414D01*
X149148800Y-107577467D01*
X149152186Y-107642378D01*
X149155571Y-107707289D01*
X148987424Y-107707289D01*
X148921734Y-107707531D01*
X148874828Y-107708556D01*
X148842917Y-107710811D01*
X148822209Y-107714742D01*
X148808916Y-107720798D01*
X148799245Y-107729424D01*
X148799183Y-107729493D01*
X148781644Y-107763112D01*
X148782278Y-107799448D01*
X148800686Y-107830423D01*
X148804329Y-107833607D01*
X148817259Y-107841812D01*
X148834976Y-107847521D01*
X148861430Y-107851162D01*
X148900568Y-107853167D01*
X148956338Y-107853964D01*
X148992006Y-107854045D01*
X149154445Y-107854045D01*
X149154445Y-108012089D01*
X148907839Y-108012089D01*
X148826420Y-108012231D01*
X148764590Y-108012814D01*
X148719363Y-108014068D01*
X148687752Y-108016227D01*
X148666769Y-108019523D01*
X148653427Y-108024189D01*
X148644739Y-108030457D01*
X148642550Y-108032733D01*
X148626386Y-108064280D01*
X148625203Y-108100168D01*
X148638464Y-108131285D01*
X148648957Y-108141271D01*
X148659871Y-108146769D01*
X148676783Y-108151022D01*
X148702367Y-108154180D01*
X148739299Y-108156392D01*
X148790254Y-108157806D01*
X148857906Y-108158572D01*
X148944931Y-108158838D01*
X148964606Y-108158845D01*
X149053089Y-108158787D01*
X149121773Y-108158467D01*
X149173436Y-108157667D01*
X149210855Y-108156167D01*
X149236810Y-108153749D01*
X149254078Y-108150194D01*
X149265438Y-108145282D01*
X149273668Y-108138795D01*
X149278183Y-108134138D01*
X149284979Y-108125889D01*
X149290288Y-108115669D01*
X149294294Y-108100800D01*
X149297179Y-108078602D01*
X149299126Y-108046393D01*
X149300319Y-108001496D01*
X149300939Y-107941228D01*
X149301171Y-107862911D01*
X149301200Y-107796994D01*
X149301129Y-107704628D01*
X149300792Y-107632117D01*
X149300002Y-107576737D01*
X149298574Y-107535765D01*
X149296321Y-107506478D01*
X149293057Y-107486153D01*
X149288596Y-107472066D01*
X149282752Y-107461495D01*
X149277803Y-107454811D01*
X149254406Y-107425067D01*
X148964226Y-107425067D01*
X148867657Y-107425260D01*
G36*
X148079691Y-107425275D02*
G01*
X147950712Y-107429636D01*
X147841009Y-107442861D01*
X147748774Y-107465741D01*
X147672198Y-107499070D01*
X147609473Y-107543638D01*
X147558788Y-107600236D01*
X147518337Y-107669658D01*
X147517541Y-107671351D01*
X147493399Y-107733483D01*
X147484797Y-107788509D01*
X147491769Y-107843887D01*
X147514346Y-107907073D01*
X147518628Y-107916689D01*
X147547828Y-107972966D01*
X147580644Y-108016451D01*
X147622998Y-108053417D01*
X147680810Y-108090135D01*
X147684169Y-108092052D01*
X147734496Y-108116227D01*
X147791379Y-108134282D01*
X147858473Y-108146839D01*
X147939435Y-108154522D01*
X148037918Y-108157953D01*
X148072714Y-108158251D01*
X148238406Y-108158845D01*
X148261803Y-108129100D01*
X148268743Y-108119319D01*
X148274158Y-108107897D01*
X148278235Y-108092095D01*
X148281163Y-108069175D01*
X148283133Y-108036396D01*
X148283775Y-108012089D01*
X148127156Y-108012089D01*
X148033274Y-108012089D01*
X147978336Y-108010483D01*
X147921940Y-108006255D01*
X147875655Y-108000292D01*
X147872861Y-107999790D01*
X147790652Y-107977736D01*
X147726886Y-107944600D01*
X147679548Y-107898847D01*
X147646618Y-107838939D01*
X147640892Y-107823061D01*
X147635279Y-107798333D01*
X147637709Y-107773902D01*
X147649533Y-107741400D01*
X147656660Y-107725434D01*
X147680000Y-107683006D01*
X147708120Y-107653240D01*
X147739060Y-107632511D01*
X147801034Y-107605537D01*
X147880349Y-107585998D01*
X147972747Y-107574746D01*
X148039667Y-107572270D01*
X148127156Y-107571822D01*
X148127156Y-108012089D01*
X148283775Y-108012089D01*
X148284332Y-107991021D01*
X148284950Y-107930311D01*
X148285175Y-107851526D01*
X148285200Y-107789920D01*
X148285200Y-107480485D01*
X148257491Y-107452776D01*
X148245194Y-107441544D01*
X148231897Y-107433853D01*
X148213328Y-107429040D01*
X148185214Y-107426446D01*
X148143283Y-107425410D01*
X148083263Y-107425270D01*
X148079691Y-107425275D01*
G37*
X148079691Y-107425275D02*
X147950712Y-107429636D01*
X147841009Y-107442861D01*
X147748774Y-107465741D01*
X147672198Y-107499070D01*
X147609473Y-107543638D01*
X147558788Y-107600236D01*
X147518337Y-107669658D01*
X147517541Y-107671351D01*
X147493399Y-107733483D01*
X147484797Y-107788509D01*
X147491769Y-107843887D01*
X147514346Y-107907073D01*
X147518628Y-107916689D01*
X147547828Y-107972966D01*
X147580644Y-108016451D01*
X147622998Y-108053417D01*
X147680810Y-108090135D01*
X147684169Y-108092052D01*
X147734496Y-108116227D01*
X147791379Y-108134282D01*
X147858473Y-108146839D01*
X147939435Y-108154522D01*
X148037918Y-108157953D01*
X148072714Y-108158251D01*
X148238406Y-108158845D01*
X148261803Y-108129100D01*
X148268743Y-108119319D01*
X148274158Y-108107897D01*
X148278235Y-108092095D01*
X148281163Y-108069175D01*
X148283133Y-108036396D01*
X148283775Y-108012089D01*
X148127156Y-108012089D01*
X148033274Y-108012089D01*
X147978336Y-108010483D01*
X147921940Y-108006255D01*
X147875655Y-108000292D01*
X147872861Y-107999790D01*
X147790652Y-107977736D01*
X147726886Y-107944600D01*
X147679548Y-107898847D01*
X147646618Y-107838939D01*
X147640892Y-107823061D01*
X147635279Y-107798333D01*
X147637709Y-107773902D01*
X147649533Y-107741400D01*
X147656660Y-107725434D01*
X147680000Y-107683006D01*
X147708120Y-107653240D01*
X147739060Y-107632511D01*
X147801034Y-107605537D01*
X147880349Y-107585998D01*
X147972747Y-107574746D01*
X148039667Y-107572270D01*
X148127156Y-107571822D01*
X148127156Y-108012089D01*
X148283775Y-108012089D01*
X148284332Y-107991021D01*
X148284950Y-107930311D01*
X148285175Y-107851526D01*
X148285200Y-107789920D01*
X148285200Y-107480485D01*
X148257491Y-107452776D01*
X148245194Y-107441544D01*
X148231897Y-107433853D01*
X148213328Y-107429040D01*
X148185214Y-107426446D01*
X148143283Y-107425410D01*
X148083263Y-107425270D01*
X148079691Y-107425275D01*
G36*
X145353335Y-107427034D02*
G01*
X145333745Y-107434035D01*
X145332990Y-107434377D01*
X145306387Y-107454678D01*
X145291730Y-107475561D01*
X145288862Y-107485352D01*
X145289004Y-107498361D01*
X145293039Y-107516895D01*
X145301854Y-107543257D01*
X145316331Y-107579752D01*
X145337355Y-107628687D01*
X145365812Y-107692365D01*
X145402585Y-107773093D01*
X145422825Y-107817216D01*
X145459375Y-107895985D01*
X145493685Y-107968423D01*
X145524448Y-108031880D01*
X145550352Y-108083708D01*
X145570090Y-108121259D01*
X145582350Y-108141884D01*
X145584776Y-108144733D01*
X145615817Y-108157302D01*
X145650879Y-108155619D01*
X145679000Y-108140332D01*
X145680146Y-108139089D01*
X145691332Y-108122154D01*
X145710096Y-108089170D01*
X145734125Y-108044380D01*
X145761103Y-107992032D01*
X145770799Y-107972742D01*
X145843986Y-107826150D01*
X145923760Y-107985393D01*
X145952233Y-108040415D01*
X145978650Y-108088132D01*
X146000852Y-108124893D01*
X146016681Y-108147044D01*
X146022046Y-108151741D01*
X146063743Y-108158102D01*
X146098151Y-108144733D01*
X146108272Y-108130446D01*
X146125786Y-108098692D01*
X146149265Y-108052597D01*
X146177280Y-107995285D01*
X146208401Y-107929880D01*
X146241201Y-107859507D01*
X146274250Y-107787291D01*
X146306119Y-107716355D01*
X146335381Y-107649825D01*
X146360605Y-107590826D01*
X146380364Y-107542481D01*
X146393228Y-107507915D01*
X146397769Y-107490253D01*
X146397723Y-107489613D01*
X146386674Y-107467388D01*
X146364590Y-107444753D01*
X146363290Y-107443768D01*
X146336147Y-107428425D01*
X146311042Y-107428574D01*
X146301632Y-107431466D01*
X146290166Y-107437718D01*
X146277990Y-107450014D01*
X146263643Y-107470908D01*
X146245664Y-107502949D01*
X146222593Y-107548688D01*
X146192970Y-107610677D01*
X146166255Y-107667898D01*
X146135520Y-107734226D01*
X146107979Y-107793874D01*
X146085062Y-107843725D01*
X146068202Y-107880664D01*
X146058827Y-107901573D01*
X146057460Y-107904845D01*
X146051311Y-107899497D01*
X146037178Y-107877109D01*
X146016943Y-107840946D01*
X145992485Y-107794277D01*
X145982752Y-107775022D01*
X145949783Y-107710004D01*
X145924357Y-107662654D01*
X145904388Y-107630219D01*
X145887790Y-107609946D01*
X145872476Y-107599082D01*
X145856360Y-107594875D01*
X145845857Y-107594400D01*
X145827330Y-107596042D01*
X145811096Y-107602831D01*
X145794965Y-107617566D01*
X145776749Y-107643044D01*
X145754261Y-107682061D01*
X145725311Y-107737414D01*
X145709338Y-107768903D01*
X145683430Y-107819087D01*
X145660833Y-107860704D01*
X145643542Y-107890242D01*
X145633550Y-107904189D01*
X145632191Y-107904770D01*
X145625739Y-107893793D01*
X145611292Y-107865290D01*
X145590297Y-107822244D01*
X145564203Y-107767638D01*
X145534454Y-107704454D01*
X145519820Y-107673071D01*
X145481750Y-107592078D01*
X145451095Y-107529756D01*
X145426263Y-107484071D01*
X145405663Y-107452989D01*
X145387702Y-107434478D01*
X145370790Y-107426504D01*
X145353335Y-107427034D01*
G37*
X145353335Y-107427034D02*
X145333745Y-107434035D01*
X145332990Y-107434377D01*
X145306387Y-107454678D01*
X145291730Y-107475561D01*
X145288862Y-107485352D01*
X145289004Y-107498361D01*
X145293039Y-107516895D01*
X145301854Y-107543257D01*
X145316331Y-107579752D01*
X145337355Y-107628687D01*
X145365812Y-107692365D01*
X145402585Y-107773093D01*
X145422825Y-107817216D01*
X145459375Y-107895985D01*
X145493685Y-107968423D01*
X145524448Y-108031880D01*
X145550352Y-108083708D01*
X145570090Y-108121259D01*
X145582350Y-108141884D01*
X145584776Y-108144733D01*
X145615817Y-108157302D01*
X145650879Y-108155619D01*
X145679000Y-108140332D01*
X145680146Y-108139089D01*
X145691332Y-108122154D01*
X145710096Y-108089170D01*
X145734125Y-108044380D01*
X145761103Y-107992032D01*
X145770799Y-107972742D01*
X145843986Y-107826150D01*
X145923760Y-107985393D01*
X145952233Y-108040415D01*
X145978650Y-108088132D01*
X146000852Y-108124893D01*
X146016681Y-108147044D01*
X146022046Y-108151741D01*
X146063743Y-108158102D01*
X146098151Y-108144733D01*
X146108272Y-108130446D01*
X146125786Y-108098692D01*
X146149265Y-108052597D01*
X146177280Y-107995285D01*
X146208401Y-107929880D01*
X146241201Y-107859507D01*
X146274250Y-107787291D01*
X146306119Y-107716355D01*
X146335381Y-107649825D01*
X146360605Y-107590826D01*
X146380364Y-107542481D01*
X146393228Y-107507915D01*
X146397769Y-107490253D01*
X146397723Y-107489613D01*
X146386674Y-107467388D01*
X146364590Y-107444753D01*
X146363290Y-107443768D01*
X146336147Y-107428425D01*
X146311042Y-107428574D01*
X146301632Y-107431466D01*
X146290166Y-107437718D01*
X146277990Y-107450014D01*
X146263643Y-107470908D01*
X146245664Y-107502949D01*
X146222593Y-107548688D01*
X146192970Y-107610677D01*
X146166255Y-107667898D01*
X146135520Y-107734226D01*
X146107979Y-107793874D01*
X146085062Y-107843725D01*
X146068202Y-107880664D01*
X146058827Y-107901573D01*
X146057460Y-107904845D01*
X146051311Y-107899497D01*
X146037178Y-107877109D01*
X146016943Y-107840946D01*
X145992485Y-107794277D01*
X145982752Y-107775022D01*
X145949783Y-107710004D01*
X145924357Y-107662654D01*
X145904388Y-107630219D01*
X145887790Y-107609946D01*
X145872476Y-107599082D01*
X145856360Y-107594875D01*
X145845857Y-107594400D01*
X145827330Y-107596042D01*
X145811096Y-107602831D01*
X145794965Y-107617566D01*
X145776749Y-107643044D01*
X145754261Y-107682061D01*
X145725311Y-107737414D01*
X145709338Y-107768903D01*
X145683430Y-107819087D01*
X145660833Y-107860704D01*
X145643542Y-107890242D01*
X145633550Y-107904189D01*
X145632191Y-107904770D01*
X145625739Y-107893793D01*
X145611292Y-107865290D01*
X145590297Y-107822244D01*
X145564203Y-107767638D01*
X145534454Y-107704454D01*
X145519820Y-107673071D01*
X145481750Y-107592078D01*
X145451095Y-107529756D01*
X145426263Y-107484071D01*
X145405663Y-107452989D01*
X145387702Y-107434478D01*
X145370790Y-107426504D01*
X145353335Y-107427034D01*
G36*
X144909386Y-107431877D02*
G01*
X144885673Y-107446647D01*
X144859022Y-107468227D01*
X144859022Y-107789773D01*
X144859107Y-107883830D01*
X144859471Y-107957932D01*
X144860276Y-108014704D01*
X144861687Y-108056768D01*
X144863867Y-108086748D01*
X144866979Y-108107267D01*
X144871186Y-108120949D01*
X144876652Y-108130416D01*
X144880528Y-108135082D01*
X144911966Y-108155575D01*
X144947767Y-108154739D01*
X144979127Y-108137264D01*
X145005778Y-108115684D01*
X145005778Y-107468227D01*
X144979127Y-107446647D01*
X144953406Y-107430949D01*
X144932400Y-107425067D01*
X144909386Y-107431877D01*
G37*
X144909386Y-107431877D02*
X144885673Y-107446647D01*
X144859022Y-107468227D01*
X144859022Y-107789773D01*
X144859107Y-107883830D01*
X144859471Y-107957932D01*
X144860276Y-108014704D01*
X144861687Y-108056768D01*
X144863867Y-108086748D01*
X144866979Y-108107267D01*
X144871186Y-108120949D01*
X144876652Y-108130416D01*
X144880528Y-108135082D01*
X144911966Y-108155575D01*
X144947767Y-108154739D01*
X144979127Y-108137264D01*
X145005778Y-108115684D01*
X145005778Y-107468227D01*
X144979127Y-107446647D01*
X144953406Y-107430949D01*
X144932400Y-107425067D01*
X144909386Y-107431877D01*
G36*
X144134935Y-107425163D02*
G01*
X144056228Y-107425542D01*
X143995137Y-107426333D01*
X143949183Y-107427670D01*
X143915886Y-107429683D01*
X143892764Y-107432506D01*
X143877338Y-107436269D01*
X143867129Y-107441105D01*
X143862187Y-107444822D01*
X143836543Y-107477358D01*
X143833441Y-107511138D01*
X143849289Y-107541826D01*
X143859652Y-107554089D01*
X143870804Y-107562450D01*
X143886965Y-107567657D01*
X143912358Y-107570457D01*
X143951202Y-107571596D01*
X144007720Y-107571821D01*
X144018820Y-107571822D01*
X144164756Y-107571822D01*
X144164756Y-107842756D01*
X144164852Y-107928154D01*
X144165289Y-107993864D01*
X144166288Y-108042774D01*
X144168072Y-108077773D01*
X144170863Y-108101749D01*
X144174883Y-108117593D01*
X144180355Y-108128191D01*
X144187334Y-108136267D01*
X144220266Y-108156112D01*
X144254646Y-108154548D01*
X144285824Y-108131906D01*
X144288114Y-108129100D01*
X144295571Y-108118492D01*
X144301253Y-108106081D01*
X144305399Y-108088850D01*
X144308250Y-108063784D01*
X144310046Y-108027867D01*
X144311028Y-107978083D01*
X144311436Y-107911417D01*
X144311511Y-107835589D01*
X144311511Y-107571822D01*
X144450873Y-107571822D01*
X144510678Y-107571418D01*
X144552082Y-107569840D01*
X144579252Y-107566547D01*
X144596354Y-107560992D01*
X144607557Y-107552631D01*
X144608917Y-107551178D01*
X144625275Y-107517939D01*
X144623828Y-107480362D01*
X144605022Y-107447645D01*
X144597750Y-107441298D01*
X144588373Y-107436266D01*
X144574391Y-107432396D01*
X144553304Y-107429537D01*
X144522611Y-107427535D01*
X144479811Y-107426239D01*
X144422405Y-107425498D01*
X144347890Y-107425158D01*
X144253767Y-107425068D01*
X144233740Y-107425067D01*
X144134935Y-107425163D01*
G37*
X144134935Y-107425163D02*
X144056228Y-107425542D01*
X143995137Y-107426333D01*
X143949183Y-107427670D01*
X143915886Y-107429683D01*
X143892764Y-107432506D01*
X143877338Y-107436269D01*
X143867129Y-107441105D01*
X143862187Y-107444822D01*
X143836543Y-107477358D01*
X143833441Y-107511138D01*
X143849289Y-107541826D01*
X143859652Y-107554089D01*
X143870804Y-107562450D01*
X143886965Y-107567657D01*
X143912358Y-107570457D01*
X143951202Y-107571596D01*
X144007720Y-107571821D01*
X144018820Y-107571822D01*
X144164756Y-107571822D01*
X144164756Y-107842756D01*
X144164852Y-107928154D01*
X144165289Y-107993864D01*
X144166288Y-108042774D01*
X144168072Y-108077773D01*
X144170863Y-108101749D01*
X144174883Y-108117593D01*
X144180355Y-108128191D01*
X144187334Y-108136267D01*
X144220266Y-108156112D01*
X144254646Y-108154548D01*
X144285824Y-108131906D01*
X144288114Y-108129100D01*
X144295571Y-108118492D01*
X144301253Y-108106081D01*
X144305399Y-108088850D01*
X144308250Y-108063784D01*
X144310046Y-108027867D01*
X144311028Y-107978083D01*
X144311436Y-107911417D01*
X144311511Y-107835589D01*
X144311511Y-107571822D01*
X144450873Y-107571822D01*
X144510678Y-107571418D01*
X144552082Y-107569840D01*
X144579252Y-107566547D01*
X144596354Y-107560992D01*
X144607557Y-107552631D01*
X144608917Y-107551178D01*
X144625275Y-107517939D01*
X144623828Y-107480362D01*
X144605022Y-107447645D01*
X144597750Y-107441298D01*
X144588373Y-107436266D01*
X144574391Y-107432396D01*
X144553304Y-107429537D01*
X144522611Y-107427535D01*
X144479811Y-107426239D01*
X144422405Y-107425498D01*
X144347890Y-107425158D01*
X144253767Y-107425068D01*
X144233740Y-107425067D01*
X144134935Y-107425163D01*
G36*
X142869177Y-107430533D02*
G01*
X142837798Y-107452776D01*
X142810089Y-107480485D01*
X142810089Y-107789920D01*
X142810162Y-107881799D01*
X142810505Y-107953840D01*
X142811308Y-108008780D01*
X142812759Y-108049360D01*
X142815048Y-108078317D01*
X142818364Y-108098391D01*
X142822895Y-108112321D01*
X142828831Y-108122845D01*
X142833486Y-108129100D01*
X142864217Y-108153673D01*
X142899504Y-108156341D01*
X142931755Y-108141271D01*
X142942412Y-108132374D01*
X142949536Y-108120557D01*
X142953833Y-108101526D01*
X142956009Y-108070992D01*
X142956772Y-108024662D01*
X142956845Y-107988871D01*
X142956845Y-107854045D01*
X143453556Y-107854045D01*
X143453556Y-107976700D01*
X143454069Y-108032787D01*
X143456124Y-108071333D01*
X143460492Y-108097361D01*
X143467944Y-108115897D01*
X143476953Y-108129100D01*
X143507856Y-108153604D01*
X143542804Y-108156506D01*
X143576262Y-108139089D01*
X143585396Y-108129959D01*
X143591848Y-108117855D01*
X143596103Y-108099001D01*
X143598648Y-108069620D01*
X143599971Y-108025937D01*
X143600557Y-107964175D01*
X143600625Y-107950000D01*
X143601109Y-107833631D01*
X143601359Y-107737727D01*
X143601277Y-107660177D01*
X143600769Y-107598869D01*
X143599738Y-107551690D01*
X143598087Y-107516530D01*
X143595721Y-107491276D01*
X143592543Y-107473817D01*
X143588456Y-107462041D01*
X143583366Y-107453835D01*
X143577734Y-107447645D01*
X143545872Y-107427844D01*
X143512643Y-107430533D01*
X143481265Y-107452776D01*
X143468567Y-107467126D01*
X143460474Y-107482978D01*
X143455958Y-107505554D01*
X143453994Y-107540078D01*
X143453556Y-107591776D01*
X143453556Y-107707289D01*
X142956845Y-107707289D01*
X142956845Y-107588756D01*
X142956338Y-107534148D01*
X142954302Y-107497275D01*
X142949965Y-107473307D01*
X142942553Y-107457415D01*
X142934267Y-107447645D01*
X142902406Y-107427844D01*
X142869177Y-107430533D01*
G37*
X142869177Y-107430533D02*
X142837798Y-107452776D01*
X142810089Y-107480485D01*
X142810089Y-107789920D01*
X142810162Y-107881799D01*
X142810505Y-107953840D01*
X142811308Y-108008780D01*
X142812759Y-108049360D01*
X142815048Y-108078317D01*
X142818364Y-108098391D01*
X142822895Y-108112321D01*
X142828831Y-108122845D01*
X142833486Y-108129100D01*
X142864217Y-108153673D01*
X142899504Y-108156341D01*
X142931755Y-108141271D01*
X142942412Y-108132374D01*
X142949536Y-108120557D01*
X142953833Y-108101526D01*
X142956009Y-108070992D01*
X142956772Y-108024662D01*
X142956845Y-107988871D01*
X142956845Y-107854045D01*
X143453556Y-107854045D01*
X143453556Y-107976700D01*
X143454069Y-108032787D01*
X143456124Y-108071333D01*
X143460492Y-108097361D01*
X143467944Y-108115897D01*
X143476953Y-108129100D01*
X143507856Y-108153604D01*
X143542804Y-108156506D01*
X143576262Y-108139089D01*
X143585396Y-108129959D01*
X143591848Y-108117855D01*
X143596103Y-108099001D01*
X143598648Y-108069620D01*
X143599971Y-108025937D01*
X143600557Y-107964175D01*
X143600625Y-107950000D01*
X143601109Y-107833631D01*
X143601359Y-107737727D01*
X143601277Y-107660177D01*
X143600769Y-107598869D01*
X143599738Y-107551690D01*
X143598087Y-107516530D01*
X143595721Y-107491276D01*
X143592543Y-107473817D01*
X143588456Y-107462041D01*
X143583366Y-107453835D01*
X143577734Y-107447645D01*
X143545872Y-107427844D01*
X143512643Y-107430533D01*
X143481265Y-107452776D01*
X143468567Y-107467126D01*
X143460474Y-107482978D01*
X143455958Y-107505554D01*
X143453994Y-107540078D01*
X143453556Y-107591776D01*
X143453556Y-107707289D01*
X142956845Y-107707289D01*
X142956845Y-107588756D01*
X142956338Y-107534148D01*
X142954302Y-107497275D01*
X142949965Y-107473307D01*
X142942553Y-107457415D01*
X142934267Y-107447645D01*
X142902406Y-107427844D01*
X142869177Y-107430533D01*
G36*
X152044400Y-102645054D02*
G01*
X152033535Y-102758993D01*
X152001918Y-102866616D01*
X151951015Y-102965615D01*
X151882293Y-103053684D01*
X151797219Y-103128516D01*
X151700232Y-103186384D01*
X151593964Y-103226005D01*
X151486950Y-103244573D01*
X151381300Y-103243434D01*
X151279125Y-103223930D01*
X151182534Y-103187406D01*
X151093638Y-103135205D01*
X151014546Y-103068673D01*
X150947369Y-102989152D01*
X150894217Y-102897987D01*
X150857199Y-102796523D01*
X150838427Y-102686102D01*
X150836489Y-102636206D01*
X150836489Y-102548267D01*
X150784560Y-102548267D01*
X150748253Y-102551111D01*
X150721355Y-102562911D01*
X150694249Y-102586649D01*
X150655867Y-102625031D01*
X150655867Y-104816602D01*
X150655876Y-105078739D01*
X150655908Y-105319241D01*
X150655972Y-105539048D01*
X150656076Y-105739101D01*
X150656227Y-105920344D01*
X150656434Y-106083716D01*
X150656706Y-106230160D01*
X150657050Y-106360617D01*
X150657474Y-106476029D01*
X150657987Y-106577338D01*
X150658597Y-106665484D01*
X150659312Y-106741410D01*
X150660140Y-106806057D01*
X150661089Y-106860367D01*
X150662167Y-106905280D01*
X150663383Y-106941740D01*
X150664745Y-106970687D01*
X150666261Y-106993063D01*
X150667938Y-107009809D01*
X150669786Y-107021868D01*
X150671813Y-107030180D01*
X150674025Y-107035687D01*
X150675108Y-107037537D01*
X150679271Y-107044549D01*
X150682805Y-107050996D01*
X150686635Y-107056900D01*
X150691682Y-107062286D01*
X150698871Y-107067178D01*
X150709123Y-107071598D01*
X150723364Y-107075572D01*
X150742514Y-107079121D01*
X150767499Y-107082270D01*
X150799240Y-107085042D01*
X150838662Y-107087461D01*
X150886686Y-107089551D01*
X150944237Y-107091335D01*
X151012237Y-107092837D01*
X151091610Y-107094080D01*
X151183279Y-107095089D01*
X151288166Y-107095885D01*
X151407196Y-107096494D01*
X151541290Y-107096939D01*
X151691373Y-107097243D01*
X151858367Y-107097430D01*
X152043196Y-107097524D01*
X152246783Y-107097548D01*
X152470050Y-107097525D01*
X152713922Y-107097480D01*
X152979321Y-107097437D01*
X153017704Y-107097432D01*
X153284682Y-107097389D01*
X153530002Y-107097318D01*
X153754583Y-107097213D01*
X153959345Y-107097066D01*
X154145206Y-107096869D01*
X154313088Y-107096616D01*
X154463908Y-107096300D01*
X154598587Y-107095913D01*
X154718044Y-107095447D01*
X154823199Y-107094897D01*
X154914971Y-107094253D01*
X154994279Y-107093511D01*
X155062043Y-107092661D01*
X155119182Y-107091697D01*
X155166617Y-107090611D01*
X155205266Y-107089397D01*
X155236049Y-107088047D01*
X155259885Y-107086555D01*
X155277694Y-107084911D01*
X155290395Y-107083111D01*
X155298908Y-107081145D01*
X155303266Y-107079477D01*
X155311728Y-107075906D01*
X155319497Y-107073270D01*
X155326602Y-107070634D01*
X155333073Y-107067062D01*
X155338939Y-107061621D01*
X155344229Y-107053375D01*
X155348974Y-107041390D01*
X155353202Y-107024731D01*
X155356943Y-107002463D01*
X155360227Y-106973652D01*
X155363083Y-106937363D01*
X155365540Y-106892661D01*
X155367629Y-106838611D01*
X155369378Y-106774279D01*
X155370817Y-106698730D01*
X155371976Y-106611030D01*
X155372883Y-106510243D01*
X155373569Y-106395434D01*
X155374063Y-106265670D01*
X155374395Y-106120015D01*
X155374593Y-105957535D01*
X155374687Y-105777295D01*
X155374708Y-105578360D01*
X155374685Y-105359796D01*
X155374646Y-105120668D01*
X155374622Y-104860040D01*
X155374622Y-104817889D01*
X155374636Y-104554992D01*
X155374661Y-104313732D01*
X155374671Y-104093165D01*
X155374642Y-103892352D01*
X155374548Y-103710349D01*
X155374362Y-103546216D01*
X155374059Y-103399011D01*
X155373614Y-103267792D01*
X155373034Y-103157867D01*
X155070197Y-103157867D01*
X155030407Y-103215711D01*
X155019236Y-103231479D01*
X155009166Y-103245441D01*
X155000138Y-103258784D01*
X154992097Y-103272693D01*
X154984986Y-103288356D01*
X154978747Y-103306958D01*
X154973325Y-103329686D01*
X154968662Y-103357727D01*
X154964701Y-103392267D01*
X154961385Y-103434492D01*
X154958659Y-103485589D01*
X154956464Y-103546744D01*
X154954745Y-103619144D01*
X154953444Y-103703975D01*
X154952505Y-103802422D01*
X154951870Y-103915674D01*
X154951484Y-104044916D01*
X154951288Y-104191334D01*
X154951227Y-104356116D01*
X154951243Y-104540447D01*
X154951280Y-104745513D01*
X154951289Y-104868133D01*
X154951265Y-105085082D01*
X154951231Y-105280642D01*
X154951243Y-105455999D01*
X154951358Y-105612341D01*
X154951630Y-105750857D01*
X154952118Y-105872734D01*
X154952876Y-105979160D01*
X154953962Y-106071322D01*
X154955431Y-106150409D01*
X154957340Y-106217608D01*
X154959744Y-106274107D01*
X154962701Y-106321093D01*
X154966266Y-106359755D01*
X154970495Y-106391280D01*
X154975446Y-106416855D01*
X154981173Y-106437670D01*
X154987733Y-106454911D01*
X154995183Y-106469765D01*
X155003579Y-106483422D01*
X155012976Y-106497069D01*
X155023432Y-106511893D01*
X155029523Y-106520783D01*
X155068296Y-106578400D01*
X154536732Y-106578400D01*
X154413483Y-106578365D01*
X154310987Y-106578215D01*
X154227420Y-106577878D01*
X154160956Y-106577286D01*
X154109771Y-106576367D01*
X154072041Y-106575051D01*
X154045940Y-106573269D01*
X154029644Y-106570951D01*
X154021328Y-106568026D01*
X154019168Y-106564424D01*
X154021339Y-106560075D01*
X154022535Y-106558645D01*
X154047685Y-106521573D01*
X154073583Y-106468772D01*
X154097192Y-106406770D01*
X154105461Y-106380357D01*
X154110078Y-106362416D01*
X154113979Y-106341355D01*
X154117248Y-106315089D01*
X154119966Y-106281532D01*
X154122215Y-106238599D01*
X154124077Y-106184204D01*
X154125636Y-106116262D01*
X154126972Y-106032688D01*
X154128169Y-105931395D01*
X154129308Y-105810300D01*
X154129685Y-105765600D01*
X154130702Y-105640449D01*
X154131460Y-105536082D01*
X154131903Y-105450707D01*
X154131970Y-105382533D01*
X154131605Y-105329765D01*
X154130748Y-105290614D01*
X154129341Y-105263285D01*
X154127325Y-105245986D01*
X154124643Y-105236926D01*
X154121236Y-105234312D01*
X154117044Y-105236351D01*
X154112571Y-105240667D01*
X154102216Y-105253602D01*
X154080158Y-105282676D01*
X154047957Y-105325759D01*
X154007174Y-105380718D01*
X153959370Y-105445423D01*
X153906105Y-105517742D01*
X153848940Y-105595544D01*
X153789437Y-105676698D01*
X153729155Y-105759072D01*
X153669655Y-105840536D01*
X153612498Y-105918957D01*
X153559245Y-105992204D01*
X153511457Y-106058147D01*
X153470693Y-106114654D01*
X153438516Y-106159593D01*
X153416485Y-106190834D01*
X153411917Y-106197466D01*
X153388996Y-106234369D01*
X153362188Y-106282359D01*
X153336789Y-106331897D01*
X153333568Y-106338577D01*
X153311890Y-106386772D01*
X153299304Y-106424334D01*
X153293574Y-106460160D01*
X153292456Y-106502200D01*
X153293090Y-106578400D01*
X152138651Y-106578400D01*
X152229815Y-106484669D01*
X152276612Y-106434775D01*
X152326899Y-106378295D01*
X152372944Y-106324026D01*
X152393369Y-106298673D01*
X152423807Y-106259128D01*
X152463862Y-106205916D01*
X152512361Y-106140667D01*
X152568135Y-106065011D01*
X152630011Y-105980577D01*
X152696819Y-105888994D01*
X152767387Y-105791892D01*
X152840545Y-105690901D01*
X152915121Y-105587650D01*
X152989944Y-105483768D01*
X153063843Y-105380885D01*
X153135646Y-105280631D01*
X153204184Y-105184636D01*
X153268284Y-105094527D01*
X153326775Y-105011936D01*
X153378486Y-104938492D01*
X153422247Y-104875824D01*
X153456885Y-104825561D01*
X153481230Y-104789334D01*
X153494111Y-104768771D01*
X153495869Y-104764668D01*
X153487910Y-104753342D01*
X153467115Y-104726162D01*
X153434847Y-104684829D01*
X153392470Y-104631044D01*
X153341347Y-104566506D01*
X153282841Y-104492918D01*
X153218314Y-104411978D01*
X153149131Y-104325388D01*
X153076653Y-104234848D01*
X153002246Y-104142060D01*
X152942517Y-104067702D01*
X151931511Y-104067702D01*
X151925602Y-104080659D01*
X151911272Y-104102908D01*
X151910225Y-104104391D01*
X151891438Y-104134544D01*
X151871791Y-104171375D01*
X151867892Y-104179511D01*
X151864356Y-104187940D01*
X151861230Y-104198059D01*
X151858486Y-104211260D01*
X151856092Y-104228938D01*
X151854019Y-104252484D01*
X151852235Y-104283293D01*
X151850712Y-104322757D01*
X151849419Y-104372269D01*
X151848326Y-104433223D01*
X151847403Y-104507011D01*
X151846619Y-104595028D01*
X151845945Y-104698665D01*
X151845350Y-104819316D01*
X151844805Y-104958374D01*
X151844279Y-105117232D01*
X151843745Y-105296089D01*
X151843206Y-105481207D01*
X151842772Y-105645145D01*
X151842509Y-105789303D01*
X151842484Y-105915079D01*
X151842765Y-106023871D01*
X151843419Y-106117077D01*
X151844514Y-106196097D01*
X151846118Y-106262328D01*
X151848297Y-106317170D01*
X151851119Y-106362021D01*
X151854651Y-106398278D01*
X151858961Y-106427341D01*
X151864117Y-106450609D01*
X151870185Y-106469479D01*
X151877233Y-106485351D01*
X151885329Y-106499622D01*
X151894540Y-106513691D01*
X151903040Y-106526158D01*
X151920176Y-106552452D01*
X151930322Y-106570037D01*
X151931511Y-106573257D01*
X151920604Y-106574334D01*
X151889411Y-106575335D01*
X151840223Y-106576235D01*
X151775333Y-106577010D01*
X151697030Y-106577637D01*
X151607607Y-106578091D01*
X151509356Y-106578349D01*
X151440445Y-106578400D01*
X151335452Y-106578180D01*
X151238610Y-106577548D01*
X151152107Y-106576549D01*
X151078132Y-106575227D01*
X151018874Y-106573626D01*
X150976520Y-106571791D01*
X150953260Y-106569765D01*
X150949378Y-106568493D01*
X150957076Y-106553591D01*
X150965074Y-106545560D01*
X150978246Y-106528434D01*
X150995485Y-106498183D01*
X151007407Y-106473622D01*
X151034045Y-106414711D01*
X151037120Y-105237845D01*
X151040195Y-104060978D01*
X151485853Y-104060978D01*
X151583670Y-104061142D01*
X151674064Y-104061611D01*
X151754630Y-104062347D01*
X151822962Y-104063316D01*
X151876656Y-104064480D01*
X151913305Y-104065803D01*
X151930504Y-104067249D01*
X151931511Y-104067702D01*
X152942517Y-104067702D01*
X152927270Y-104048722D01*
X152853090Y-103956537D01*
X152781069Y-103867204D01*
X152712569Y-103782424D01*
X152648955Y-103703898D01*
X152591588Y-103633326D01*
X152541833Y-103572409D01*
X152501052Y-103522847D01*
X152483888Y-103502178D01*
X152397596Y-103401516D01*
X152320997Y-103318259D01*
X152252183Y-103250438D01*
X152189248Y-103196089D01*
X152179867Y-103188722D01*
X152140356Y-103158117D01*
X153272116Y-103157867D01*
X153266827Y-103205844D01*
X153270130Y-103263188D01*
X153291661Y-103331463D01*
X153331635Y-103411212D01*
X153376943Y-103483495D01*
X153393161Y-103506140D01*
X153421214Y-103543696D01*
X153459430Y-103594021D01*
X153506137Y-103654973D01*
X153559661Y-103724411D01*
X153618331Y-103800194D01*
X153680475Y-103880180D01*
X153744421Y-103962228D01*
X153808495Y-104044196D01*
X153871027Y-104123943D01*
X153930343Y-104199327D01*
X153984771Y-104268207D01*
X154032639Y-104328442D01*
X154072275Y-104377889D01*
X154102006Y-104414408D01*
X154120161Y-104435858D01*
X154123220Y-104439156D01*
X154126079Y-104431149D01*
X154128293Y-104400855D01*
X154129857Y-104348556D01*
X154130767Y-104274531D01*
X154131020Y-104179063D01*
X154130613Y-104062434D01*
X154129704Y-103942445D01*
X154128382Y-103810333D01*
X154126857Y-103698594D01*
X154124881Y-103605025D01*
X154122206Y-103527419D01*
X154118582Y-103463574D01*
X154113761Y-103411283D01*
X154107494Y-103368344D01*
X154099532Y-103332551D01*
X154089627Y-103301700D01*
X154077531Y-103273586D01*
X154062993Y-103246005D01*
X154048311Y-103220966D01*
X154010314Y-103157867D01*
X155070197Y-103157867D01*
X155373034Y-103157867D01*
X155373001Y-103151617D01*
X155372195Y-103049544D01*
X155371170Y-102960633D01*
X155369900Y-102883941D01*
X155368360Y-102818527D01*
X155366524Y-102763449D01*
X155364367Y-102717765D01*
X155361863Y-102680534D01*
X155358987Y-102650813D01*
X155355713Y-102627662D01*
X155352015Y-102610139D01*
X155347869Y-102597301D01*
X155343247Y-102588208D01*
X155338126Y-102581918D01*
X155332478Y-102577488D01*
X155326279Y-102573978D01*
X155319504Y-102570445D01*
X155313508Y-102566876D01*
X155308275Y-102564300D01*
X155300099Y-102561972D01*
X155287886Y-102559878D01*
X155270541Y-102558007D01*
X155246969Y-102556347D01*
X155216077Y-102554884D01*
X155176768Y-102553608D01*
X155127950Y-102552504D01*
X155068527Y-102551561D01*
X154997404Y-102550767D01*
X154913488Y-102550109D01*
X154815683Y-102549575D01*
X154702894Y-102549153D01*
X154574029Y-102548829D01*
X154427991Y-102548592D01*
X154263686Y-102548430D01*
X154080020Y-102548330D01*
X153875897Y-102548280D01*
X153664753Y-102548267D01*
X152044400Y-102548267D01*
X152044400Y-102645054D01*
G37*
X152044400Y-102645054D02*
X152033535Y-102758993D01*
X152001918Y-102866616D01*
X151951015Y-102965615D01*
X151882293Y-103053684D01*
X151797219Y-103128516D01*
X151700232Y-103186384D01*
X151593964Y-103226005D01*
X151486950Y-103244573D01*
X151381300Y-103243434D01*
X151279125Y-103223930D01*
X151182534Y-103187406D01*
X151093638Y-103135205D01*
X151014546Y-103068673D01*
X150947369Y-102989152D01*
X150894217Y-102897987D01*
X150857199Y-102796523D01*
X150838427Y-102686102D01*
X150836489Y-102636206D01*
X150836489Y-102548267D01*
X150784560Y-102548267D01*
X150748253Y-102551111D01*
X150721355Y-102562911D01*
X150694249Y-102586649D01*
X150655867Y-102625031D01*
X150655867Y-104816602D01*
X150655876Y-105078739D01*
X150655908Y-105319241D01*
X150655972Y-105539048D01*
X150656076Y-105739101D01*
X150656227Y-105920344D01*
X150656434Y-106083716D01*
X150656706Y-106230160D01*
X150657050Y-106360617D01*
X150657474Y-106476029D01*
X150657987Y-106577338D01*
X150658597Y-106665484D01*
X150659312Y-106741410D01*
X150660140Y-106806057D01*
X150661089Y-106860367D01*
X150662167Y-106905280D01*
X150663383Y-106941740D01*
X150664745Y-106970687D01*
X150666261Y-106993063D01*
X150667938Y-107009809D01*
X150669786Y-107021868D01*
X150671813Y-107030180D01*
X150674025Y-107035687D01*
X150675108Y-107037537D01*
X150679271Y-107044549D01*
X150682805Y-107050996D01*
X150686635Y-107056900D01*
X150691682Y-107062286D01*
X150698871Y-107067178D01*
X150709123Y-107071598D01*
X150723364Y-107075572D01*
X150742514Y-107079121D01*
X150767499Y-107082270D01*
X150799240Y-107085042D01*
X150838662Y-107087461D01*
X150886686Y-107089551D01*
X150944237Y-107091335D01*
X151012237Y-107092837D01*
X151091610Y-107094080D01*
X151183279Y-107095089D01*
X151288166Y-107095885D01*
X151407196Y-107096494D01*
X151541290Y-107096939D01*
X151691373Y-107097243D01*
X151858367Y-107097430D01*
X152043196Y-107097524D01*
X152246783Y-107097548D01*
X152470050Y-107097525D01*
X152713922Y-107097480D01*
X152979321Y-107097437D01*
X153017704Y-107097432D01*
X153284682Y-107097389D01*
X153530002Y-107097318D01*
X153754583Y-107097213D01*
X153959345Y-107097066D01*
X154145206Y-107096869D01*
X154313088Y-107096616D01*
X154463908Y-107096300D01*
X154598587Y-107095913D01*
X154718044Y-107095447D01*
X154823199Y-107094897D01*
X154914971Y-107094253D01*
X154994279Y-107093511D01*
X155062043Y-107092661D01*
X155119182Y-107091697D01*
X155166617Y-107090611D01*
X155205266Y-107089397D01*
X155236049Y-107088047D01*
X155259885Y-107086555D01*
X155277694Y-107084911D01*
X155290395Y-107083111D01*
X155298908Y-107081145D01*
X155303266Y-107079477D01*
X155311728Y-107075906D01*
X155319497Y-107073270D01*
X155326602Y-107070634D01*
X155333073Y-107067062D01*
X155338939Y-107061621D01*
X155344229Y-107053375D01*
X155348974Y-107041390D01*
X155353202Y-107024731D01*
X155356943Y-107002463D01*
X155360227Y-106973652D01*
X155363083Y-106937363D01*
X155365540Y-106892661D01*
X155367629Y-106838611D01*
X155369378Y-106774279D01*
X155370817Y-106698730D01*
X155371976Y-106611030D01*
X155372883Y-106510243D01*
X155373569Y-106395434D01*
X155374063Y-106265670D01*
X155374395Y-106120015D01*
X155374593Y-105957535D01*
X155374687Y-105777295D01*
X155374708Y-105578360D01*
X155374685Y-105359796D01*
X155374646Y-105120668D01*
X155374622Y-104860040D01*
X155374622Y-104817889D01*
X155374636Y-104554992D01*
X155374661Y-104313732D01*
X155374671Y-104093165D01*
X155374642Y-103892352D01*
X155374548Y-103710349D01*
X155374362Y-103546216D01*
X155374059Y-103399011D01*
X155373614Y-103267792D01*
X155373034Y-103157867D01*
X155070197Y-103157867D01*
X155030407Y-103215711D01*
X155019236Y-103231479D01*
X155009166Y-103245441D01*
X155000138Y-103258784D01*
X154992097Y-103272693D01*
X154984986Y-103288356D01*
X154978747Y-103306958D01*
X154973325Y-103329686D01*
X154968662Y-103357727D01*
X154964701Y-103392267D01*
X154961385Y-103434492D01*
X154958659Y-103485589D01*
X154956464Y-103546744D01*
X154954745Y-103619144D01*
X154953444Y-103703975D01*
X154952505Y-103802422D01*
X154951870Y-103915674D01*
X154951484Y-104044916D01*
X154951288Y-104191334D01*
X154951227Y-104356116D01*
X154951243Y-104540447D01*
X154951280Y-104745513D01*
X154951289Y-104868133D01*
X154951265Y-105085082D01*
X154951231Y-105280642D01*
X154951243Y-105455999D01*
X154951358Y-105612341D01*
X154951630Y-105750857D01*
X154952118Y-105872734D01*
X154952876Y-105979160D01*
X154953962Y-106071322D01*
X154955431Y-106150409D01*
X154957340Y-106217608D01*
X154959744Y-106274107D01*
X154962701Y-106321093D01*
X154966266Y-106359755D01*
X154970495Y-106391280D01*
X154975446Y-106416855D01*
X154981173Y-106437670D01*
X154987733Y-106454911D01*
X154995183Y-106469765D01*
X155003579Y-106483422D01*
X155012976Y-106497069D01*
X155023432Y-106511893D01*
X155029523Y-106520783D01*
X155068296Y-106578400D01*
X154536732Y-106578400D01*
X154413483Y-106578365D01*
X154310987Y-106578215D01*
X154227420Y-106577878D01*
X154160956Y-106577286D01*
X154109771Y-106576367D01*
X154072041Y-106575051D01*
X154045940Y-106573269D01*
X154029644Y-106570951D01*
X154021328Y-106568026D01*
X154019168Y-106564424D01*
X154021339Y-106560075D01*
X154022535Y-106558645D01*
X154047685Y-106521573D01*
X154073583Y-106468772D01*
X154097192Y-106406770D01*
X154105461Y-106380357D01*
X154110078Y-106362416D01*
X154113979Y-106341355D01*
X154117248Y-106315089D01*
X154119966Y-106281532D01*
X154122215Y-106238599D01*
X154124077Y-106184204D01*
X154125636Y-106116262D01*
X154126972Y-106032688D01*
X154128169Y-105931395D01*
X154129308Y-105810300D01*
X154129685Y-105765600D01*
X154130702Y-105640449D01*
X154131460Y-105536082D01*
X154131903Y-105450707D01*
X154131970Y-105382533D01*
X154131605Y-105329765D01*
X154130748Y-105290614D01*
X154129341Y-105263285D01*
X154127325Y-105245986D01*
X154124643Y-105236926D01*
X154121236Y-105234312D01*
X154117044Y-105236351D01*
X154112571Y-105240667D01*
X154102216Y-105253602D01*
X154080158Y-105282676D01*
X154047957Y-105325759D01*
X154007174Y-105380718D01*
X153959370Y-105445423D01*
X153906105Y-105517742D01*
X153848940Y-105595544D01*
X153789437Y-105676698D01*
X153729155Y-105759072D01*
X153669655Y-105840536D01*
X153612498Y-105918957D01*
X153559245Y-105992204D01*
X153511457Y-106058147D01*
X153470693Y-106114654D01*
X153438516Y-106159593D01*
X153416485Y-106190834D01*
X153411917Y-106197466D01*
X153388996Y-106234369D01*
X153362188Y-106282359D01*
X153336789Y-106331897D01*
X153333568Y-106338577D01*
X153311890Y-106386772D01*
X153299304Y-106424334D01*
X153293574Y-106460160D01*
X153292456Y-106502200D01*
X153293090Y-106578400D01*
X152138651Y-106578400D01*
X152229815Y-106484669D01*
X152276612Y-106434775D01*
X152326899Y-106378295D01*
X152372944Y-106324026D01*
X152393369Y-106298673D01*
X152423807Y-106259128D01*
X152463862Y-106205916D01*
X152512361Y-106140667D01*
X152568135Y-106065011D01*
X152630011Y-105980577D01*
X152696819Y-105888994D01*
X152767387Y-105791892D01*
X152840545Y-105690901D01*
X152915121Y-105587650D01*
X152989944Y-105483768D01*
X153063843Y-105380885D01*
X153135646Y-105280631D01*
X153204184Y-105184636D01*
X153268284Y-105094527D01*
X153326775Y-105011936D01*
X153378486Y-104938492D01*
X153422247Y-104875824D01*
X153456885Y-104825561D01*
X153481230Y-104789334D01*
X153494111Y-104768771D01*
X153495869Y-104764668D01*
X153487910Y-104753342D01*
X153467115Y-104726162D01*
X153434847Y-104684829D01*
X153392470Y-104631044D01*
X153341347Y-104566506D01*
X153282841Y-104492918D01*
X153218314Y-104411978D01*
X153149131Y-104325388D01*
X153076653Y-104234848D01*
X153002246Y-104142060D01*
X152942517Y-104067702D01*
X151931511Y-104067702D01*
X151925602Y-104080659D01*
X151911272Y-104102908D01*
X151910225Y-104104391D01*
X151891438Y-104134544D01*
X151871791Y-104171375D01*
X151867892Y-104179511D01*
X151864356Y-104187940D01*
X151861230Y-104198059D01*
X151858486Y-104211260D01*
X151856092Y-104228938D01*
X151854019Y-104252484D01*
X151852235Y-104283293D01*
X151850712Y-104322757D01*
X151849419Y-104372269D01*
X151848326Y-104433223D01*
X151847403Y-104507011D01*
X151846619Y-104595028D01*
X151845945Y-104698665D01*
X151845350Y-104819316D01*
X151844805Y-104958374D01*
X151844279Y-105117232D01*
X151843745Y-105296089D01*
X151843206Y-105481207D01*
X151842772Y-105645145D01*
X151842509Y-105789303D01*
X151842484Y-105915079D01*
X151842765Y-106023871D01*
X151843419Y-106117077D01*
X151844514Y-106196097D01*
X151846118Y-106262328D01*
X151848297Y-106317170D01*
X151851119Y-106362021D01*
X151854651Y-106398278D01*
X151858961Y-106427341D01*
X151864117Y-106450609D01*
X151870185Y-106469479D01*
X151877233Y-106485351D01*
X151885329Y-106499622D01*
X151894540Y-106513691D01*
X151903040Y-106526158D01*
X151920176Y-106552452D01*
X151930322Y-106570037D01*
X151931511Y-106573257D01*
X151920604Y-106574334D01*
X151889411Y-106575335D01*
X151840223Y-106576235D01*
X151775333Y-106577010D01*
X151697030Y-106577637D01*
X151607607Y-106578091D01*
X151509356Y-106578349D01*
X151440445Y-106578400D01*
X151335452Y-106578180D01*
X151238610Y-106577548D01*
X151152107Y-106576549D01*
X151078132Y-106575227D01*
X151018874Y-106573626D01*
X150976520Y-106571791D01*
X150953260Y-106569765D01*
X150949378Y-106568493D01*
X150957076Y-106553591D01*
X150965074Y-106545560D01*
X150978246Y-106528434D01*
X150995485Y-106498183D01*
X151007407Y-106473622D01*
X151034045Y-106414711D01*
X151037120Y-105237845D01*
X151040195Y-104060978D01*
X151485853Y-104060978D01*
X151583670Y-104061142D01*
X151674064Y-104061611D01*
X151754630Y-104062347D01*
X151822962Y-104063316D01*
X151876656Y-104064480D01*
X151913305Y-104065803D01*
X151930504Y-104067249D01*
X151931511Y-104067702D01*
X152942517Y-104067702D01*
X152927270Y-104048722D01*
X152853090Y-103956537D01*
X152781069Y-103867204D01*
X152712569Y-103782424D01*
X152648955Y-103703898D01*
X152591588Y-103633326D01*
X152541833Y-103572409D01*
X152501052Y-103522847D01*
X152483888Y-103502178D01*
X152397596Y-103401516D01*
X152320997Y-103318259D01*
X152252183Y-103250438D01*
X152189248Y-103196089D01*
X152179867Y-103188722D01*
X152140356Y-103158117D01*
X153272116Y-103157867D01*
X153266827Y-103205844D01*
X153270130Y-103263188D01*
X153291661Y-103331463D01*
X153331635Y-103411212D01*
X153376943Y-103483495D01*
X153393161Y-103506140D01*
X153421214Y-103543696D01*
X153459430Y-103594021D01*
X153506137Y-103654973D01*
X153559661Y-103724411D01*
X153618331Y-103800194D01*
X153680475Y-103880180D01*
X153744421Y-103962228D01*
X153808495Y-104044196D01*
X153871027Y-104123943D01*
X153930343Y-104199327D01*
X153984771Y-104268207D01*
X154032639Y-104328442D01*
X154072275Y-104377889D01*
X154102006Y-104414408D01*
X154120161Y-104435858D01*
X154123220Y-104439156D01*
X154126079Y-104431149D01*
X154128293Y-104400855D01*
X154129857Y-104348556D01*
X154130767Y-104274531D01*
X154131020Y-104179063D01*
X154130613Y-104062434D01*
X154129704Y-103942445D01*
X154128382Y-103810333D01*
X154126857Y-103698594D01*
X154124881Y-103605025D01*
X154122206Y-103527419D01*
X154118582Y-103463574D01*
X154113761Y-103411283D01*
X154107494Y-103368344D01*
X154099532Y-103332551D01*
X154089627Y-103301700D01*
X154077531Y-103273586D01*
X154062993Y-103246005D01*
X154048311Y-103220966D01*
X154010314Y-103157867D01*
X155070197Y-103157867D01*
X155373034Y-103157867D01*
X155373001Y-103151617D01*
X155372195Y-103049544D01*
X155371170Y-102960633D01*
X155369900Y-102883941D01*
X155368360Y-102818527D01*
X155366524Y-102763449D01*
X155364367Y-102717765D01*
X155361863Y-102680534D01*
X155358987Y-102650813D01*
X155355713Y-102627662D01*
X155352015Y-102610139D01*
X155347869Y-102597301D01*
X155343247Y-102588208D01*
X155338126Y-102581918D01*
X155332478Y-102577488D01*
X155326279Y-102573978D01*
X155319504Y-102570445D01*
X155313508Y-102566876D01*
X155308275Y-102564300D01*
X155300099Y-102561972D01*
X155287886Y-102559878D01*
X155270541Y-102558007D01*
X155246969Y-102556347D01*
X155216077Y-102554884D01*
X155176768Y-102553608D01*
X155127950Y-102552504D01*
X155068527Y-102551561D01*
X154997404Y-102550767D01*
X154913488Y-102550109D01*
X154815683Y-102549575D01*
X154702894Y-102549153D01*
X154574029Y-102548829D01*
X154427991Y-102548592D01*
X154263686Y-102548430D01*
X154080020Y-102548330D01*
X153875897Y-102548280D01*
X153664753Y-102548267D01*
X152044400Y-102548267D01*
X152044400Y-102645054D01*
G36*
X148769571Y-103105071D02*
G01*
X148609430Y-103126245D01*
X148445490Y-103166385D01*
X148275687Y-103225889D01*
X148097957Y-103305154D01*
X148086690Y-103310699D01*
X148028995Y-103338725D01*
X147977448Y-103362802D01*
X147935809Y-103381249D01*
X147907838Y-103392386D01*
X147898267Y-103394933D01*
X147879050Y-103399941D01*
X147874439Y-103404147D01*
X147879542Y-103414580D01*
X147895582Y-103440868D01*
X147920712Y-103480257D01*
X147953086Y-103529991D01*
X147990857Y-103587315D01*
X148032178Y-103649476D01*
X148075202Y-103713718D01*
X148118083Y-103777285D01*
X148158974Y-103837425D01*
X148196029Y-103891380D01*
X148227400Y-103936397D01*
X148251241Y-103969721D01*
X148265706Y-103988597D01*
X148267691Y-103990787D01*
X148277809Y-103986138D01*
X148300150Y-103968962D01*
X148330720Y-103942440D01*
X148346464Y-103927964D01*
X148442953Y-103852682D01*
X148549664Y-103797241D01*
X148665168Y-103762141D01*
X148788038Y-103747880D01*
X148857439Y-103749051D01*
X148978577Y-103766212D01*
X149087795Y-103802094D01*
X149185418Y-103856959D01*
X149271772Y-103931070D01*
X149347185Y-104024688D01*
X149411982Y-104138076D01*
X149449399Y-104224667D01*
X149493252Y-104360366D01*
X149525572Y-104507850D01*
X149546443Y-104663314D01*
X149555949Y-104822956D01*
X149554173Y-104982973D01*
X149541197Y-105139561D01*
X149517106Y-105288918D01*
X149481982Y-105427240D01*
X149435908Y-105550724D01*
X149419627Y-105584978D01*
X149351380Y-105699064D01*
X149270921Y-105795557D01*
X149179430Y-105873670D01*
X149078089Y-105932617D01*
X148968080Y-105971612D01*
X148850585Y-105989868D01*
X148809117Y-105991211D01*
X148687559Y-105980290D01*
X148567122Y-105947474D01*
X148449334Y-105893439D01*
X148335723Y-105818865D01*
X148244315Y-105740539D01*
X148197785Y-105696008D01*
X148016517Y-105993271D01*
X147971420Y-106067433D01*
X147930181Y-106135646D01*
X147894265Y-106195459D01*
X147865134Y-106244420D01*
X147844250Y-106280079D01*
X147833076Y-106299984D01*
X147831625Y-106303079D01*
X147839854Y-106312718D01*
X147865433Y-106329999D01*
X147905127Y-106353283D01*
X147955703Y-106380934D01*
X148013926Y-106411315D01*
X148076563Y-106442790D01*
X148140379Y-106473722D01*
X148202140Y-106502473D01*
X148258612Y-106527408D01*
X148306562Y-106546889D01*
X148330014Y-106555318D01*
X148463779Y-106593133D01*
X148601673Y-106618136D01*
X148749378Y-106631140D01*
X148876167Y-106633468D01*
X148944122Y-106632373D01*
X149009723Y-106630275D01*
X149067153Y-106627434D01*
X149110597Y-106624106D01*
X149124702Y-106622422D01*
X149263716Y-106593587D01*
X149405243Y-106548468D01*
X149542725Y-106489750D01*
X149669606Y-106420120D01*
X149747111Y-106367441D01*
X149874519Y-106259239D01*
X149992822Y-106132671D01*
X150099828Y-105990866D01*
X150193348Y-105836951D01*
X150271190Y-105674053D01*
X150315044Y-105556756D01*
X150365292Y-105373128D01*
X150398791Y-105178581D01*
X150415551Y-104977325D01*
X150415584Y-104773568D01*
X150398899Y-104571521D01*
X150365507Y-104375392D01*
X150315420Y-104189391D01*
X150311603Y-104177803D01*
X150248719Y-104015750D01*
X150171972Y-103867832D01*
X150078758Y-103729865D01*
X149966473Y-103597661D01*
X149922608Y-103552399D01*
X149786466Y-103428457D01*
X149646509Y-103325915D01*
X149500589Y-103243656D01*
X149346558Y-103180564D01*
X149182268Y-103135523D01*
X149086711Y-103118033D01*
X148927977Y-103102466D01*
X148769571Y-103105071D01*
G37*
X148769571Y-103105071D02*
X148609430Y-103126245D01*
X148445490Y-103166385D01*
X148275687Y-103225889D01*
X148097957Y-103305154D01*
X148086690Y-103310699D01*
X148028995Y-103338725D01*
X147977448Y-103362802D01*
X147935809Y-103381249D01*
X147907838Y-103392386D01*
X147898267Y-103394933D01*
X147879050Y-103399941D01*
X147874439Y-103404147D01*
X147879542Y-103414580D01*
X147895582Y-103440868D01*
X147920712Y-103480257D01*
X147953086Y-103529991D01*
X147990857Y-103587315D01*
X148032178Y-103649476D01*
X148075202Y-103713718D01*
X148118083Y-103777285D01*
X148158974Y-103837425D01*
X148196029Y-103891380D01*
X148227400Y-103936397D01*
X148251241Y-103969721D01*
X148265706Y-103988597D01*
X148267691Y-103990787D01*
X148277809Y-103986138D01*
X148300150Y-103968962D01*
X148330720Y-103942440D01*
X148346464Y-103927964D01*
X148442953Y-103852682D01*
X148549664Y-103797241D01*
X148665168Y-103762141D01*
X148788038Y-103747880D01*
X148857439Y-103749051D01*
X148978577Y-103766212D01*
X149087795Y-103802094D01*
X149185418Y-103856959D01*
X149271772Y-103931070D01*
X149347185Y-104024688D01*
X149411982Y-104138076D01*
X149449399Y-104224667D01*
X149493252Y-104360366D01*
X149525572Y-104507850D01*
X149546443Y-104663314D01*
X149555949Y-104822956D01*
X149554173Y-104982973D01*
X149541197Y-105139561D01*
X149517106Y-105288918D01*
X149481982Y-105427240D01*
X149435908Y-105550724D01*
X149419627Y-105584978D01*
X149351380Y-105699064D01*
X149270921Y-105795557D01*
X149179430Y-105873670D01*
X149078089Y-105932617D01*
X148968080Y-105971612D01*
X148850585Y-105989868D01*
X148809117Y-105991211D01*
X148687559Y-105980290D01*
X148567122Y-105947474D01*
X148449334Y-105893439D01*
X148335723Y-105818865D01*
X148244315Y-105740539D01*
X148197785Y-105696008D01*
X148016517Y-105993271D01*
X147971420Y-106067433D01*
X147930181Y-106135646D01*
X147894265Y-106195459D01*
X147865134Y-106244420D01*
X147844250Y-106280079D01*
X147833076Y-106299984D01*
X147831625Y-106303079D01*
X147839854Y-106312718D01*
X147865433Y-106329999D01*
X147905127Y-106353283D01*
X147955703Y-106380934D01*
X148013926Y-106411315D01*
X148076563Y-106442790D01*
X148140379Y-106473722D01*
X148202140Y-106502473D01*
X148258612Y-106527408D01*
X148306562Y-106546889D01*
X148330014Y-106555318D01*
X148463779Y-106593133D01*
X148601673Y-106618136D01*
X148749378Y-106631140D01*
X148876167Y-106633468D01*
X148944122Y-106632373D01*
X149009723Y-106630275D01*
X149067153Y-106627434D01*
X149110597Y-106624106D01*
X149124702Y-106622422D01*
X149263716Y-106593587D01*
X149405243Y-106548468D01*
X149542725Y-106489750D01*
X149669606Y-106420120D01*
X149747111Y-106367441D01*
X149874519Y-106259239D01*
X149992822Y-106132671D01*
X150099828Y-105990866D01*
X150193348Y-105836951D01*
X150271190Y-105674053D01*
X150315044Y-105556756D01*
X150365292Y-105373128D01*
X150398791Y-105178581D01*
X150415551Y-104977325D01*
X150415584Y-104773568D01*
X150398899Y-104571521D01*
X150365507Y-104375392D01*
X150315420Y-104189391D01*
X150311603Y-104177803D01*
X150248719Y-104015750D01*
X150171972Y-103867832D01*
X150078758Y-103729865D01*
X149966473Y-103597661D01*
X149922608Y-103552399D01*
X149786466Y-103428457D01*
X149646509Y-103325915D01*
X149500589Y-103243656D01*
X149346558Y-103180564D01*
X149182268Y-103135523D01*
X149086711Y-103118033D01*
X148927977Y-103102466D01*
X148769571Y-103105071D01*
G36*
X146424426Y-104022552D02*
G01*
X146272508Y-104042567D01*
X146137244Y-104076202D01*
X146017761Y-104123725D01*
X145913185Y-104185405D01*
X145835576Y-104248965D01*
X145766735Y-104323099D01*
X145712994Y-104402871D01*
X145670090Y-104495091D01*
X145654616Y-104538161D01*
X145641756Y-104577142D01*
X145630554Y-104613289D01*
X145620880Y-104648434D01*
X145612604Y-104684410D01*
X145605597Y-104723050D01*
X145599728Y-104766185D01*
X145594869Y-104815649D01*
X145590890Y-104873273D01*
X145587660Y-104940891D01*
X145585051Y-105020334D01*
X145582933Y-105113436D01*
X145581176Y-105222027D01*
X145579651Y-105347942D01*
X145578228Y-105493012D01*
X145576975Y-105635778D01*
X145575649Y-105791968D01*
X145574444Y-105927239D01*
X145573234Y-106043246D01*
X145571894Y-106141645D01*
X145570300Y-106224093D01*
X145568325Y-106292246D01*
X145565844Y-106347760D01*
X145562731Y-106392292D01*
X145558862Y-106427498D01*
X145554111Y-106455034D01*
X145548352Y-106476556D01*
X145541461Y-106493722D01*
X145533311Y-106508186D01*
X145523777Y-106521606D01*
X145512734Y-106535638D01*
X145508434Y-106541071D01*
X145492614Y-106563910D01*
X145485578Y-106579463D01*
X145485556Y-106579922D01*
X145496433Y-106582121D01*
X145527418Y-106584147D01*
X145576043Y-106585942D01*
X145639837Y-106587451D01*
X145716331Y-106588616D01*
X145803056Y-106589380D01*
X145897543Y-106589686D01*
X145908450Y-106589689D01*
X146331343Y-106589689D01*
X146334605Y-106493622D01*
X146337867Y-106397556D01*
X146399956Y-106448543D01*
X146497286Y-106516057D01*
X146607187Y-106570749D01*
X146693651Y-106600978D01*
X146762722Y-106615666D01*
X146846075Y-106625659D01*
X146935841Y-106630646D01*
X147024155Y-106630313D01*
X147103149Y-106624351D01*
X147139378Y-106618638D01*
X147279397Y-106580776D01*
X147405822Y-106525932D01*
X147517740Y-106454924D01*
X147614238Y-106368568D01*
X147694400Y-106267679D01*
X147757313Y-106153076D01*
X147801688Y-106026984D01*
X147814022Y-105970401D01*
X147821632Y-105908202D01*
X147825261Y-105833363D01*
X147825755Y-105799467D01*
X147825690Y-105796282D01*
X147065752Y-105796282D01*
X147056459Y-105871333D01*
X147028272Y-105935160D01*
X146979803Y-105990798D01*
X146974746Y-105995211D01*
X146926452Y-106030037D01*
X146874743Y-106052620D01*
X146814011Y-106064540D01*
X146738648Y-106067383D01*
X146720541Y-106066978D01*
X146666722Y-106064325D01*
X146626692Y-106058909D01*
X146591676Y-106048745D01*
X146552897Y-106031850D01*
X146542255Y-106026672D01*
X146481604Y-105990844D01*
X146434785Y-105948212D01*
X146422048Y-105932973D01*
X146377378Y-105876462D01*
X146377378Y-105680586D01*
X146377914Y-105601939D01*
X146379604Y-105543988D01*
X146382572Y-105504875D01*
X146386943Y-105482741D01*
X146391028Y-105476274D01*
X146406953Y-105473111D01*
X146440736Y-105470488D01*
X146487660Y-105468655D01*
X146543007Y-105467857D01*
X146551894Y-105467842D01*
X146672670Y-105473096D01*
X146775340Y-105489263D01*
X146861894Y-105516961D01*
X146934319Y-105556808D01*
X146989249Y-105603758D01*
X147033796Y-105661645D01*
X147058520Y-105724693D01*
X147065752Y-105796282D01*
X147825690Y-105796282D01*
X147823822Y-105705712D01*
X147815478Y-105626812D01*
X147799232Y-105555590D01*
X147773595Y-105484864D01*
X147749599Y-105432493D01*
X147690980Y-105337196D01*
X147612883Y-105249170D01*
X147517685Y-105170017D01*
X147407762Y-105101340D01*
X147285490Y-105044741D01*
X147153245Y-105001821D01*
X147088578Y-104986882D01*
X146952396Y-104964777D01*
X146803951Y-104950194D01*
X146652495Y-104943813D01*
X146525936Y-104945445D01*
X146364050Y-104952224D01*
X146371470Y-104893245D01*
X146390762Y-104794092D01*
X146421896Y-104713372D01*
X146465731Y-104650466D01*
X146523129Y-104604756D01*
X146594952Y-104575622D01*
X146682059Y-104562447D01*
X146785314Y-104564611D01*
X146823289Y-104568612D01*
X146964480Y-104593780D01*
X147101293Y-104634814D01*
X147195822Y-104672815D01*
X147240982Y-104692190D01*
X147279415Y-104707760D01*
X147305766Y-104717405D01*
X147313454Y-104719452D01*
X147323198Y-104710374D01*
X147339917Y-104681405D01*
X147363768Y-104632217D01*
X147394907Y-104562484D01*
X147433493Y-104471879D01*
X147440090Y-104456089D01*
X147470147Y-104383772D01*
X147497126Y-104318425D01*
X147519864Y-104262906D01*
X147537194Y-104220072D01*
X147547952Y-104192781D01*
X147551059Y-104183942D01*
X147541060Y-104179187D01*
X147514783Y-104173910D01*
X147486511Y-104170231D01*
X147456354Y-104165474D01*
X147408567Y-104156028D01*
X147347388Y-104142820D01*
X147277054Y-104126776D01*
X147201806Y-104108820D01*
X147173245Y-104101797D01*
X147068184Y-104076209D01*
X146980520Y-104056147D01*
X146905932Y-104040969D01*
X146840097Y-104030035D01*
X146778693Y-104022704D01*
X146717398Y-104018335D01*
X146651890Y-104016287D01*
X146593872Y-104015889D01*
X146424426Y-104022552D01*
G37*
X146424426Y-104022552D02*
X146272508Y-104042567D01*
X146137244Y-104076202D01*
X146017761Y-104123725D01*
X145913185Y-104185405D01*
X145835576Y-104248965D01*
X145766735Y-104323099D01*
X145712994Y-104402871D01*
X145670090Y-104495091D01*
X145654616Y-104538161D01*
X145641756Y-104577142D01*
X145630554Y-104613289D01*
X145620880Y-104648434D01*
X145612604Y-104684410D01*
X145605597Y-104723050D01*
X145599728Y-104766185D01*
X145594869Y-104815649D01*
X145590890Y-104873273D01*
X145587660Y-104940891D01*
X145585051Y-105020334D01*
X145582933Y-105113436D01*
X145581176Y-105222027D01*
X145579651Y-105347942D01*
X145578228Y-105493012D01*
X145576975Y-105635778D01*
X145575649Y-105791968D01*
X145574444Y-105927239D01*
X145573234Y-106043246D01*
X145571894Y-106141645D01*
X145570300Y-106224093D01*
X145568325Y-106292246D01*
X145565844Y-106347760D01*
X145562731Y-106392292D01*
X145558862Y-106427498D01*
X145554111Y-106455034D01*
X145548352Y-106476556D01*
X145541461Y-106493722D01*
X145533311Y-106508186D01*
X145523777Y-106521606D01*
X145512734Y-106535638D01*
X145508434Y-106541071D01*
X145492614Y-106563910D01*
X145485578Y-106579463D01*
X145485556Y-106579922D01*
X145496433Y-106582121D01*
X145527418Y-106584147D01*
X145576043Y-106585942D01*
X145639837Y-106587451D01*
X145716331Y-106588616D01*
X145803056Y-106589380D01*
X145897543Y-106589686D01*
X145908450Y-106589689D01*
X146331343Y-106589689D01*
X146334605Y-106493622D01*
X146337867Y-106397556D01*
X146399956Y-106448543D01*
X146497286Y-106516057D01*
X146607187Y-106570749D01*
X146693651Y-106600978D01*
X146762722Y-106615666D01*
X146846075Y-106625659D01*
X146935841Y-106630646D01*
X147024155Y-106630313D01*
X147103149Y-106624351D01*
X147139378Y-106618638D01*
X147279397Y-106580776D01*
X147405822Y-106525932D01*
X147517740Y-106454924D01*
X147614238Y-106368568D01*
X147694400Y-106267679D01*
X147757313Y-106153076D01*
X147801688Y-106026984D01*
X147814022Y-105970401D01*
X147821632Y-105908202D01*
X147825261Y-105833363D01*
X147825755Y-105799467D01*
X147825690Y-105796282D01*
X147065752Y-105796282D01*
X147056459Y-105871333D01*
X147028272Y-105935160D01*
X146979803Y-105990798D01*
X146974746Y-105995211D01*
X146926452Y-106030037D01*
X146874743Y-106052620D01*
X146814011Y-106064540D01*
X146738648Y-106067383D01*
X146720541Y-106066978D01*
X146666722Y-106064325D01*
X146626692Y-106058909D01*
X146591676Y-106048745D01*
X146552897Y-106031850D01*
X146542255Y-106026672D01*
X146481604Y-105990844D01*
X146434785Y-105948212D01*
X146422048Y-105932973D01*
X146377378Y-105876462D01*
X146377378Y-105680586D01*
X146377914Y-105601939D01*
X146379604Y-105543988D01*
X146382572Y-105504875D01*
X146386943Y-105482741D01*
X146391028Y-105476274D01*
X146406953Y-105473111D01*
X146440736Y-105470488D01*
X146487660Y-105468655D01*
X146543007Y-105467857D01*
X146551894Y-105467842D01*
X146672670Y-105473096D01*
X146775340Y-105489263D01*
X146861894Y-105516961D01*
X146934319Y-105556808D01*
X146989249Y-105603758D01*
X147033796Y-105661645D01*
X147058520Y-105724693D01*
X147065752Y-105796282D01*
X147825690Y-105796282D01*
X147823822Y-105705712D01*
X147815478Y-105626812D01*
X147799232Y-105555590D01*
X147773595Y-105484864D01*
X147749599Y-105432493D01*
X147690980Y-105337196D01*
X147612883Y-105249170D01*
X147517685Y-105170017D01*
X147407762Y-105101340D01*
X147285490Y-105044741D01*
X147153245Y-105001821D01*
X147088578Y-104986882D01*
X146952396Y-104964777D01*
X146803951Y-104950194D01*
X146652495Y-104943813D01*
X146525936Y-104945445D01*
X146364050Y-104952224D01*
X146371470Y-104893245D01*
X146390762Y-104794092D01*
X146421896Y-104713372D01*
X146465731Y-104650466D01*
X146523129Y-104604756D01*
X146594952Y-104575622D01*
X146682059Y-104562447D01*
X146785314Y-104564611D01*
X146823289Y-104568612D01*
X146964480Y-104593780D01*
X147101293Y-104634814D01*
X147195822Y-104672815D01*
X147240982Y-104692190D01*
X147279415Y-104707760D01*
X147305766Y-104717405D01*
X147313454Y-104719452D01*
X147323198Y-104710374D01*
X147339917Y-104681405D01*
X147363768Y-104632217D01*
X147394907Y-104562484D01*
X147433493Y-104471879D01*
X147440090Y-104456089D01*
X147470147Y-104383772D01*
X147497126Y-104318425D01*
X147519864Y-104262906D01*
X147537194Y-104220072D01*
X147547952Y-104192781D01*
X147551059Y-104183942D01*
X147541060Y-104179187D01*
X147514783Y-104173910D01*
X147486511Y-104170231D01*
X147456354Y-104165474D01*
X147408567Y-104156028D01*
X147347388Y-104142820D01*
X147277054Y-104126776D01*
X147201806Y-104108820D01*
X147173245Y-104101797D01*
X147068184Y-104076209D01*
X146980520Y-104056147D01*
X146905932Y-104040969D01*
X146840097Y-104030035D01*
X146778693Y-104022704D01*
X146717398Y-104018335D01*
X146651890Y-104016287D01*
X146593872Y-104015889D01*
X146424426Y-104022552D01*
G36*
X142911493Y-104628245D02*
G01*
X142911474Y-104862662D01*
X142911448Y-105075603D01*
X142911375Y-105268168D01*
X142911218Y-105441459D01*
X142910936Y-105596576D01*
X142910491Y-105734620D01*
X142909844Y-105856692D01*
X142908955Y-105963894D01*
X142907787Y-106057326D01*
X142906299Y-106138090D01*
X142904454Y-106207286D01*
X142902211Y-106266015D01*
X142899531Y-106315379D01*
X142896377Y-106356478D01*
X142892708Y-106390413D01*
X142888487Y-106418286D01*
X142883673Y-106441198D01*
X142878227Y-106460249D01*
X142872112Y-106476540D01*
X142865288Y-106491173D01*
X142857715Y-106505249D01*
X142849355Y-106519868D01*
X142844161Y-106528974D01*
X142809896Y-106589689D01*
X143668045Y-106589689D01*
X143668045Y-106493733D01*
X143668776Y-106450370D01*
X143670728Y-106417205D01*
X143673537Y-106399424D01*
X143674779Y-106397778D01*
X143686201Y-106404662D01*
X143708916Y-106422505D01*
X143731615Y-106441879D01*
X143786200Y-106482614D01*
X143855679Y-106523617D01*
X143932730Y-106561123D01*
X144010035Y-106591364D01*
X144040887Y-106601012D01*
X144109384Y-106615578D01*
X144192236Y-106625539D01*
X144281629Y-106630583D01*
X144369752Y-106630396D01*
X144448793Y-106624666D01*
X144486489Y-106618858D01*
X144624586Y-106580797D01*
X144751887Y-106523073D01*
X144867708Y-106446211D01*
X144971363Y-106350739D01*
X145062167Y-106237179D01*
X145128969Y-106126381D01*
X145183836Y-106009625D01*
X145225837Y-105890276D01*
X145255833Y-105764283D01*
X145274689Y-105627594D01*
X145283268Y-105476158D01*
X145283994Y-105398711D01*
X145281900Y-105341934D01*
X144452783Y-105341934D01*
X144452576Y-105435002D01*
X144449663Y-105522692D01*
X144444000Y-105599772D01*
X144435545Y-105661009D01*
X144432962Y-105673350D01*
X144401160Y-105780633D01*
X144359502Y-105867658D01*
X144307637Y-105934642D01*
X144245219Y-105981805D01*
X144171900Y-106009365D01*
X144087331Y-106017541D01*
X143991165Y-106006551D01*
X143927689Y-105990829D01*
X143878546Y-105972639D01*
X143824417Y-105946791D01*
X143783756Y-105923089D01*
X143713200Y-105876721D01*
X143713200Y-104726530D01*
X143780608Y-104682962D01*
X143859133Y-104642040D01*
X143943319Y-104615389D01*
X144028443Y-104603465D01*
X144109784Y-104606722D01*
X144182620Y-104625615D01*
X144214574Y-104641184D01*
X144272499Y-104684181D01*
X144321456Y-104740953D01*
X144362610Y-104813575D01*
X144397126Y-104904121D01*
X144426167Y-105014666D01*
X144427448Y-105020533D01*
X144437619Y-105082788D01*
X144445261Y-105160594D01*
X144450330Y-105248720D01*
X144452783Y-105341934D01*
X145281900Y-105341934D01*
X145276143Y-105185895D01*
X145254198Y-104990059D01*
X145218214Y-104811332D01*
X145168241Y-104649845D01*
X145104332Y-104505726D01*
X145026538Y-104379106D01*
X144934911Y-104270115D01*
X144829503Y-104178883D01*
X144784338Y-104147932D01*
X144683389Y-104091785D01*
X144580099Y-104052174D01*
X144470011Y-104028014D01*
X144348670Y-104018219D01*
X144256164Y-104019265D01*
X144126510Y-104030231D01*
X144013916Y-104052046D01*
X143915125Y-104085714D01*
X143826879Y-104132236D01*
X143778014Y-104166448D01*
X143748647Y-104188362D01*
X143726957Y-104203333D01*
X143718747Y-104207733D01*
X143717132Y-104196904D01*
X143715841Y-104166251D01*
X143714862Y-104118526D01*
X143714183Y-104056479D01*
X143713790Y-103982862D01*
X143713670Y-103900427D01*
X143713812Y-103811925D01*
X143714203Y-103720107D01*
X143714829Y-103627724D01*
X143715680Y-103537528D01*
X143716740Y-103452271D01*
X143717999Y-103374703D01*
X143719444Y-103307576D01*
X143721062Y-103253641D01*
X143722839Y-103215650D01*
X143723331Y-103208667D01*
X143730908Y-103138251D01*
X143742469Y-103083102D01*
X143760208Y-103035981D01*
X143786318Y-102989647D01*
X143792585Y-102980067D01*
X143817017Y-102943378D01*
X142911689Y-102943378D01*
X142911493Y-104628245D01*
G37*
X142911493Y-104628245D02*
X142911474Y-104862662D01*
X142911448Y-105075603D01*
X142911375Y-105268168D01*
X142911218Y-105441459D01*
X142910936Y-105596576D01*
X142910491Y-105734620D01*
X142909844Y-105856692D01*
X142908955Y-105963894D01*
X142907787Y-106057326D01*
X142906299Y-106138090D01*
X142904454Y-106207286D01*
X142902211Y-106266015D01*
X142899531Y-106315379D01*
X142896377Y-106356478D01*
X142892708Y-106390413D01*
X142888487Y-106418286D01*
X142883673Y-106441198D01*
X142878227Y-106460249D01*
X142872112Y-106476540D01*
X142865288Y-106491173D01*
X142857715Y-106505249D01*
X142849355Y-106519868D01*
X142844161Y-106528974D01*
X142809896Y-106589689D01*
X143668045Y-106589689D01*
X143668045Y-106493733D01*
X143668776Y-106450370D01*
X143670728Y-106417205D01*
X143673537Y-106399424D01*
X143674779Y-106397778D01*
X143686201Y-106404662D01*
X143708916Y-106422505D01*
X143731615Y-106441879D01*
X143786200Y-106482614D01*
X143855679Y-106523617D01*
X143932730Y-106561123D01*
X144010035Y-106591364D01*
X144040887Y-106601012D01*
X144109384Y-106615578D01*
X144192236Y-106625539D01*
X144281629Y-106630583D01*
X144369752Y-106630396D01*
X144448793Y-106624666D01*
X144486489Y-106618858D01*
X144624586Y-106580797D01*
X144751887Y-106523073D01*
X144867708Y-106446211D01*
X144971363Y-106350739D01*
X145062167Y-106237179D01*
X145128969Y-106126381D01*
X145183836Y-106009625D01*
X145225837Y-105890276D01*
X145255833Y-105764283D01*
X145274689Y-105627594D01*
X145283268Y-105476158D01*
X145283994Y-105398711D01*
X145281900Y-105341934D01*
X144452783Y-105341934D01*
X144452576Y-105435002D01*
X144449663Y-105522692D01*
X144444000Y-105599772D01*
X144435545Y-105661009D01*
X144432962Y-105673350D01*
X144401160Y-105780633D01*
X144359502Y-105867658D01*
X144307637Y-105934642D01*
X144245219Y-105981805D01*
X144171900Y-106009365D01*
X144087331Y-106017541D01*
X143991165Y-106006551D01*
X143927689Y-105990829D01*
X143878546Y-105972639D01*
X143824417Y-105946791D01*
X143783756Y-105923089D01*
X143713200Y-105876721D01*
X143713200Y-104726530D01*
X143780608Y-104682962D01*
X143859133Y-104642040D01*
X143943319Y-104615389D01*
X144028443Y-104603465D01*
X144109784Y-104606722D01*
X144182620Y-104625615D01*
X144214574Y-104641184D01*
X144272499Y-104684181D01*
X144321456Y-104740953D01*
X144362610Y-104813575D01*
X144397126Y-104904121D01*
X144426167Y-105014666D01*
X144427448Y-105020533D01*
X144437619Y-105082788D01*
X144445261Y-105160594D01*
X144450330Y-105248720D01*
X144452783Y-105341934D01*
X145281900Y-105341934D01*
X145276143Y-105185895D01*
X145254198Y-104990059D01*
X145218214Y-104811332D01*
X145168241Y-104649845D01*
X145104332Y-104505726D01*
X145026538Y-104379106D01*
X144934911Y-104270115D01*
X144829503Y-104178883D01*
X144784338Y-104147932D01*
X144683389Y-104091785D01*
X144580099Y-104052174D01*
X144470011Y-104028014D01*
X144348670Y-104018219D01*
X144256164Y-104019265D01*
X144126510Y-104030231D01*
X144013916Y-104052046D01*
X143915125Y-104085714D01*
X143826879Y-104132236D01*
X143778014Y-104166448D01*
X143748647Y-104188362D01*
X143726957Y-104203333D01*
X143718747Y-104207733D01*
X143717132Y-104196904D01*
X143715841Y-104166251D01*
X143714862Y-104118526D01*
X143714183Y-104056479D01*
X143713790Y-103982862D01*
X143713670Y-103900427D01*
X143713812Y-103811925D01*
X143714203Y-103720107D01*
X143714829Y-103627724D01*
X143715680Y-103537528D01*
X143716740Y-103452271D01*
X143717999Y-103374703D01*
X143719444Y-103307576D01*
X143721062Y-103253641D01*
X143722839Y-103215650D01*
X143723331Y-103208667D01*
X143730908Y-103138251D01*
X143742469Y-103083102D01*
X143760208Y-103035981D01*
X143786318Y-102989647D01*
X143792585Y-102980067D01*
X143817017Y-102943378D01*
X142911689Y-102943378D01*
X142911493Y-104628245D01*
G36*
X151371043Y-102182571D02*
G01*
X151274768Y-102206809D01*
X151188184Y-102249641D01*
X151113373Y-102309419D01*
X151052418Y-102384494D01*
X151007399Y-102473220D01*
X150981136Y-102569530D01*
X150975286Y-102666795D01*
X150990140Y-102760654D01*
X151023840Y-102848511D01*
X151074528Y-102927770D01*
X151140345Y-102995836D01*
X151219434Y-103050112D01*
X151309934Y-103088002D01*
X151361200Y-103100426D01*
X151405698Y-103107947D01*
X151439999Y-103110919D01*
X151472960Y-103109094D01*
X151513434Y-103102225D01*
X151546531Y-103095250D01*
X151639947Y-103063741D01*
X151723619Y-103012617D01*
X151795665Y-102943429D01*
X151854200Y-102857728D01*
X151868148Y-102830489D01*
X151884586Y-102794122D01*
X151894894Y-102763582D01*
X151900460Y-102731450D01*
X151902669Y-102690307D01*
X151902948Y-102644222D01*
X151898861Y-102559865D01*
X151885446Y-102490586D01*
X151860256Y-102429961D01*
X151820846Y-102371567D01*
X151782298Y-102327302D01*
X151710406Y-102261484D01*
X151635313Y-102216053D01*
X151552562Y-102188850D01*
X151474928Y-102178576D01*
X151371043Y-102182571D01*
G37*
X151371043Y-102182571D02*
X151274768Y-102206809D01*
X151188184Y-102249641D01*
X151113373Y-102309419D01*
X151052418Y-102384494D01*
X151007399Y-102473220D01*
X150981136Y-102569530D01*
X150975286Y-102666795D01*
X150990140Y-102760654D01*
X151023840Y-102848511D01*
X151074528Y-102927770D01*
X151140345Y-102995836D01*
X151219434Y-103050112D01*
X151309934Y-103088002D01*
X151361200Y-103100426D01*
X151405698Y-103107947D01*
X151439999Y-103110919D01*
X151472960Y-103109094D01*
X151513434Y-103102225D01*
X151546531Y-103095250D01*
X151639947Y-103063741D01*
X151723619Y-103012617D01*
X151795665Y-102943429D01*
X151854200Y-102857728D01*
X151868148Y-102830489D01*
X151884586Y-102794122D01*
X151894894Y-102763582D01*
X151900460Y-102731450D01*
X151902669Y-102690307D01*
X151902948Y-102644222D01*
X151898861Y-102559865D01*
X151885446Y-102490586D01*
X151860256Y-102429961D01*
X151820846Y-102371567D01*
X151782298Y-102327302D01*
X151710406Y-102261484D01*
X151635313Y-102216053D01*
X151552562Y-102188850D01*
X151474928Y-102178576D01*
X151371043Y-102182571D01*
M02*
