M48
; DRILL file {KiCad 5.1.10-88a1d61d58~90~ubuntu21.04.1} date Wed Jul 14 16:23:56 2021
; FORMAT={-:-/ absolute / inch / decimal}
; #@! TF.CreationDate,2021-07-14T16:23:56-03:00
; #@! TF.GenerationSoftware,Kicad,Pcbnew,5.1.10-88a1d61d58~90~ubuntu21.04.1
; #@! TF.FileFunction,Plated,1,2,PTH
FMAT,2
INCH
T1C0.0315
T2C0.0320
T3C0.0354
T4C0.0360
T5C0.0400
T6C0.0433
T7C0.0866
T8C0.1181
%
G90
G05
T1
X5.35Y-3.675
X5.45Y-3.675
X5.55Y-3.675
X5.98Y-3.83
X5.98Y-3.9284
X6.16Y-3.98
X6.16Y-4.28
X6.26Y-3.98
X6.26Y-4.28
X6.36Y-3.98
X6.36Y-4.28
X6.46Y-3.98
X6.46Y-4.28
T2
X5.675Y-3.85
X5.68Y-4.52
X5.68Y-4.62
X5.775Y-3.85
X5.88Y-4.52
X5.88Y-4.62
T3
X5.1647Y-4.0917
X5.1671Y-4.2084
X5.1671Y-4.44
X5.2101Y-3.9548
X5.214Y-4.3234
X5.2168Y-3.8429
X5.5101Y-3.9548
X5.514Y-4.3234
X5.5168Y-3.8429
X5.5647Y-4.0917
X5.5671Y-4.2084
X5.5671Y-4.44
X5.6819Y-3.9584
X5.6819Y-4.3584
X5.8065Y-3.9584
X5.8065Y-4.3584
T4
X5.0532Y-3.9968
X5.0532Y-4.0902
X5.0532Y-4.179
X5.0532Y-4.2724
T5
X5.6619Y-3.6211
X5.7619Y-3.6211
X5.8619Y-3.6211
X6.192Y-3.621
X6.192Y-3.799
X6.448Y-3.621
X6.448Y-3.799
X6.6488Y-3.7788
X6.6488Y-3.8788
X6.6488Y-3.9788
X6.6488Y-4.0788
X6.6488Y-4.1788
X6.6488Y-4.2788
X6.6488Y-4.3788
X6.6488Y-4.4788
T6
X4.9548Y-4.046
X4.9548Y-4.2232
T7
X4.9588Y-3.9062
X4.9588Y-4.3629
T8
X5.219Y-3.6392
X5.219Y-4.6235
X6.7544Y-3.6392
X6.7544Y-4.6235
T0
M30
