G04 #@! TF.GenerationSoftware,KiCad,Pcbnew,5.1.10-88a1d61d58~90~ubuntu21.04.1*
G04 #@! TF.CreationDate,2021-07-14T16:23:23-03:00*
G04 #@! TF.ProjectId,Franzininho,4672616e-7a69-46e6-996e-686f2e6b6963,rev?*
G04 #@! TF.SameCoordinates,Original*
G04 #@! TF.FileFunction,Copper,L1,Top*
G04 #@! TF.FilePolarity,Positive*
%FSLAX46Y46*%
G04 Gerber Fmt 4.6, Leading zero omitted, Abs format (unit mm)*
G04 Created by KiCad (PCBNEW 5.1.10-88a1d61d58~90~ubuntu21.04.1) date 2021-07-14 16:23:23*
%MOMM*%
%LPD*%
G01*
G04 APERTURE LIST*
G04 #@! TA.AperFunction,ComponentPad*
%ADD10C,1.676400*%
G04 #@! TD*
G04 #@! TA.AperFunction,ComponentPad*
%ADD11C,3.000000*%
G04 #@! TD*
G04 #@! TA.AperFunction,ComponentPad*
%ADD12C,1.100000*%
G04 #@! TD*
G04 #@! TA.AperFunction,ComponentPad*
%ADD13C,3.216000*%
G04 #@! TD*
G04 #@! TA.AperFunction,ComponentPad*
%ADD14C,1.879600*%
G04 #@! TD*
G04 #@! TA.AperFunction,ComponentPad*
%ADD15O,3.048000X1.524000*%
G04 #@! TD*
G04 #@! TA.AperFunction,ComponentPad*
%ADD16O,1.520000X3.000000*%
G04 #@! TD*
G04 #@! TA.AperFunction,ComponentPad*
%ADD17O,1.600000X2.400000*%
G04 #@! TD*
G04 #@! TA.AperFunction,ComponentPad*
%ADD18R,1.600000X2.400000*%
G04 #@! TD*
G04 #@! TA.AperFunction,ComponentPad*
%ADD19C,1.600000*%
G04 #@! TD*
G04 #@! TA.AperFunction,ComponentPad*
%ADD20R,1.600000X1.600000*%
G04 #@! TD*
G04 #@! TA.AperFunction,Conductor*
%ADD21C,0.508000*%
G04 #@! TD*
G04 APERTURE END LIST*
D10*
X144272000Y-114808000D03*
X144272000Y-117348000D03*
D11*
X132562350Y-92436100D03*
X171562350Y-92436100D03*
X171562350Y-117436100D03*
X132562350Y-117436100D03*
D12*
X125852350Y-107268600D03*
X125852350Y-102768600D03*
D13*
X125952350Y-99218600D03*
X125952350Y-110818600D03*
D14*
X128352350Y-108518600D03*
X128352350Y-106145600D03*
X128352350Y-103891600D03*
X128352350Y-101518600D03*
X132435850Y-109814100D03*
X140055850Y-109814100D03*
X132336850Y-100452100D03*
X139956850Y-100452100D03*
D10*
X146685000Y-97790000D03*
X144145000Y-97790000D03*
D14*
X141342350Y-103928100D03*
X131182350Y-103928100D03*
X141404850Y-106893100D03*
X131244850Y-106893100D03*
X131244850Y-112776000D03*
X141404850Y-112776000D03*
D10*
X149352000Y-114808000D03*
X149352000Y-117348000D03*
D14*
X147485850Y-110703100D03*
X147485850Y-100543100D03*
X140126450Y-97610500D03*
X132506450Y-97610500D03*
X144320850Y-110703100D03*
X144320850Y-100543100D03*
X168879850Y-95981100D03*
X168879850Y-98521100D03*
X168879850Y-101061100D03*
X168879850Y-103601100D03*
X168879850Y-106141100D03*
X168879850Y-108681100D03*
X168879850Y-111221100D03*
X168879850Y-113761100D03*
X143812350Y-91976100D03*
X146352350Y-91976100D03*
X148892350Y-91976100D03*
D15*
X163779200Y-96494600D03*
X157276800Y-96494600D03*
X163779200Y-91973400D03*
X157276800Y-91973400D03*
D16*
X135890000Y-93345000D03*
X140970000Y-93345000D03*
X138430000Y-93345000D03*
D17*
X164084000Y-108712000D03*
X156464000Y-101092000D03*
X161544000Y-108712000D03*
X159004000Y-101092000D03*
X159004000Y-108712000D03*
X161544000Y-101092000D03*
X156464000Y-108712000D03*
D18*
X164084000Y-101092000D03*
D19*
X151892000Y-99782000D03*
D20*
X151892000Y-97282000D03*
D21*
X159308800Y-91973400D02*
X163779200Y-91973400D01*
X157276800Y-91973400D02*
X159308800Y-91973400D01*
X157276800Y-96494600D02*
X163779200Y-96494600D01*
M02*
