G04 #@! TF.GenerationSoftware,KiCad,Pcbnew,5.1.10-88a1d61d58~90~ubuntu21.04.1*
G04 #@! TF.CreationDate,2021-07-14T16:23:23-03:00*
G04 #@! TF.ProjectId,Franzininho,4672616e-7a69-46e6-996e-686f2e6b6963,rev?*
G04 #@! TF.SameCoordinates,Original*
G04 #@! TF.FileFunction,Copper,L2,Bot*
G04 #@! TF.FilePolarity,Positive*
%FSLAX46Y46*%
G04 Gerber Fmt 4.6, Leading zero omitted, Abs format (unit mm)*
G04 Created by KiCad (PCBNEW 5.1.10-88a1d61d58~90~ubuntu21.04.1) date 2021-07-14 16:23:23*
%MOMM*%
%LPD*%
G01*
G04 APERTURE LIST*
G04 #@! TA.AperFunction,ComponentPad*
%ADD10C,1.676400*%
G04 #@! TD*
G04 #@! TA.AperFunction,ComponentPad*
%ADD11C,3.000000*%
G04 #@! TD*
G04 #@! TA.AperFunction,ComponentPad*
%ADD12C,1.100000*%
G04 #@! TD*
G04 #@! TA.AperFunction,ComponentPad*
%ADD13C,3.216000*%
G04 #@! TD*
G04 #@! TA.AperFunction,ComponentPad*
%ADD14C,1.879600*%
G04 #@! TD*
G04 #@! TA.AperFunction,ComponentPad*
%ADD15O,3.048000X1.524000*%
G04 #@! TD*
G04 #@! TA.AperFunction,ComponentPad*
%ADD16O,1.520000X3.000000*%
G04 #@! TD*
G04 #@! TA.AperFunction,ComponentPad*
%ADD17O,1.600000X2.400000*%
G04 #@! TD*
G04 #@! TA.AperFunction,ComponentPad*
%ADD18R,1.600000X2.400000*%
G04 #@! TD*
G04 #@! TA.AperFunction,ComponentPad*
%ADD19C,1.600000*%
G04 #@! TD*
G04 #@! TA.AperFunction,ComponentPad*
%ADD20R,1.600000X1.600000*%
G04 #@! TD*
G04 #@! TA.AperFunction,Conductor*
%ADD21C,0.406400*%
G04 #@! TD*
G04 #@! TA.AperFunction,Conductor*
%ADD22C,0.812800*%
G04 #@! TD*
G04 #@! TA.AperFunction,Conductor*
%ADD23C,0.508000*%
G04 #@! TD*
G04 #@! TA.AperFunction,Conductor*
%ADD24C,1.016000*%
G04 #@! TD*
G04 #@! TA.AperFunction,Conductor*
%ADD25C,0.609600*%
G04 #@! TD*
G04 #@! TA.AperFunction,Conductor*
%ADD26C,0.025400*%
G04 #@! TD*
G04 #@! TA.AperFunction,Conductor*
%ADD27C,0.100000*%
G04 #@! TD*
G04 APERTURE END LIST*
D10*
X144272000Y-114808000D03*
X144272000Y-117348000D03*
D11*
X132562350Y-92436100D03*
X171562350Y-92436100D03*
X171562350Y-117436100D03*
X132562350Y-117436100D03*
D12*
X125852350Y-107268600D03*
X125852350Y-102768600D03*
D13*
X125952350Y-99218600D03*
X125952350Y-110818600D03*
D14*
X128352350Y-108518600D03*
X128352350Y-106145600D03*
X128352350Y-103891600D03*
X128352350Y-101518600D03*
X132435850Y-109814100D03*
X140055850Y-109814100D03*
X132336850Y-100452100D03*
X139956850Y-100452100D03*
D10*
X146685000Y-97790000D03*
X144145000Y-97790000D03*
D14*
X141342350Y-103928100D03*
X131182350Y-103928100D03*
X141404850Y-106893100D03*
X131244850Y-106893100D03*
X131244850Y-112776000D03*
X141404850Y-112776000D03*
D10*
X149352000Y-114808000D03*
X149352000Y-117348000D03*
D14*
X147485850Y-110703100D03*
X147485850Y-100543100D03*
X140126450Y-97610500D03*
X132506450Y-97610500D03*
X144320850Y-110703100D03*
X144320850Y-100543100D03*
X168879850Y-95981100D03*
X168879850Y-98521100D03*
X168879850Y-101061100D03*
X168879850Y-103601100D03*
X168879850Y-106141100D03*
X168879850Y-108681100D03*
X168879850Y-111221100D03*
X168879850Y-113761100D03*
X143812350Y-91976100D03*
X146352350Y-91976100D03*
X148892350Y-91976100D03*
D15*
X163779200Y-96494600D03*
X157276800Y-96494600D03*
X163779200Y-91973400D03*
X157276800Y-91973400D03*
D16*
X135890000Y-93345000D03*
X140970000Y-93345000D03*
X138430000Y-93345000D03*
D17*
X164084000Y-108712000D03*
X156464000Y-101092000D03*
X161544000Y-108712000D03*
X159004000Y-101092000D03*
X159004000Y-108712000D03*
X161544000Y-101092000D03*
X156464000Y-108712000D03*
D18*
X164084000Y-101092000D03*
D19*
X151892000Y-99782000D03*
D20*
X151892000Y-97282000D03*
D21*
X140126450Y-97610500D02*
X140082950Y-97610500D01*
X140082950Y-97610500D02*
X140002350Y-97691100D01*
X169233600Y-98643600D02*
X168879850Y-98521100D01*
D22*
X163814850Y-108646000D02*
X163993950Y-108825100D01*
X168757350Y-98643600D02*
X168879850Y-98521100D01*
X148892350Y-91976100D02*
X151114850Y-91976100D01*
X151114850Y-91976100D02*
X151749850Y-92611100D01*
X148892350Y-91976100D02*
X148892350Y-93246100D01*
X148892350Y-93246100D02*
X146987350Y-95151100D01*
X146987350Y-95151100D02*
X142585850Y-95151100D01*
X142585850Y-95151100D02*
X140126450Y-97610500D01*
X144101250Y-97663000D02*
X140253350Y-97663000D01*
X140253350Y-97483600D02*
X140126450Y-97610500D01*
X138797373Y-97610500D02*
X140126450Y-97610500D01*
X137842700Y-97610500D02*
X138797373Y-97610500D01*
X135890000Y-95657800D02*
X137842700Y-97610500D01*
X135890000Y-93345000D02*
X135890000Y-95657800D01*
D23*
X142344649Y-111836201D02*
X141404850Y-112776000D01*
X142344649Y-109623351D02*
X142344649Y-111836201D01*
X146304000Y-105664000D02*
X142344649Y-109623351D01*
X161436000Y-105664000D02*
X146304000Y-105664000D01*
X164084000Y-108312000D02*
X161436000Y-105664000D01*
X164084000Y-108712000D02*
X164084000Y-108312000D01*
X160996733Y-94287989D02*
X160714143Y-94570579D01*
X165901267Y-94287989D02*
X160996733Y-94287989D01*
X160714143Y-94570579D02*
X154330621Y-94570579D01*
X167550773Y-98521100D02*
X166878000Y-97848327D01*
X168879850Y-98521100D02*
X167550773Y-98521100D01*
X166878000Y-95264722D02*
X165901267Y-94287989D01*
X166878000Y-97848327D02*
X166878000Y-95264722D01*
X142240000Y-117348000D02*
X144272000Y-117348000D01*
X141404850Y-112776000D02*
X141404850Y-116512850D01*
X141404850Y-116512850D02*
X142240000Y-117348000D01*
D24*
X169002350Y-98643600D02*
X168879850Y-98521100D01*
D23*
X144272000Y-117348000D02*
X146812000Y-117348000D01*
X166360749Y-118640201D02*
X171434850Y-113566100D01*
X148104201Y-118640201D02*
X166360749Y-118640201D01*
X146812000Y-117348000D02*
X148104201Y-118640201D01*
X168879850Y-98521100D02*
X170657100Y-98521100D01*
X171434850Y-99298850D02*
X171434850Y-113566100D01*
X170657100Y-98521100D02*
X171434850Y-99298850D01*
D22*
X151749850Y-92611100D02*
X151749850Y-97151350D01*
X151892000Y-92753250D02*
X151749850Y-92611100D01*
X151892000Y-97282000D02*
X151892000Y-92753250D01*
D23*
X151892000Y-97282000D02*
X153200000Y-97282000D01*
X153700600Y-96781400D02*
X153700600Y-95200600D01*
X153200000Y-97282000D02*
X153700600Y-96781400D01*
X154330621Y-94570579D02*
X153700600Y-95200600D01*
X137160000Y-100934973D02*
X133835527Y-97610500D01*
X137160000Y-113538000D02*
X137160000Y-100934973D01*
X133835527Y-97610500D02*
X132506450Y-97610500D01*
X128352350Y-108518600D02*
X128352350Y-112604350D01*
X128352350Y-112604350D02*
X130556000Y-114808000D01*
X135890000Y-114808000D02*
X137160000Y-113538000D01*
X130556000Y-114808000D02*
X135890000Y-114808000D01*
X129292149Y-107085399D02*
X128352350Y-106145600D01*
X129851049Y-107644299D02*
X129292149Y-107085399D01*
X129851049Y-111382199D02*
X129851049Y-107644299D01*
X131244850Y-112776000D02*
X129851049Y-111382199D01*
X132573927Y-112776000D02*
X134620000Y-110729927D01*
X131244850Y-112776000D02*
X132573927Y-112776000D01*
X134620000Y-106036673D02*
X134620000Y-110729927D01*
X132511427Y-103928100D02*
X134620000Y-106036673D01*
X131182350Y-103928100D02*
X132511427Y-103928100D01*
X132336850Y-102773600D02*
X131182350Y-103928100D01*
X132336850Y-100452100D02*
X132336850Y-102773600D01*
D25*
X131244850Y-106893100D02*
X131244850Y-107031100D01*
D24*
X132382350Y-107216100D02*
X132382350Y-109760600D01*
D25*
X132382350Y-109760600D02*
X132435850Y-109814100D01*
D24*
X132382350Y-107216100D02*
X132064850Y-106898600D01*
X132064850Y-106898600D02*
X131250350Y-106898600D01*
X131250350Y-106898600D02*
X131244850Y-106893100D01*
D23*
X128783600Y-103891600D02*
X128352350Y-103891600D01*
X129794000Y-104902000D02*
X128783600Y-103891600D01*
X129794000Y-105156000D02*
X129794000Y-104902000D01*
X130048000Y-105410000D02*
X129794000Y-105156000D01*
X131244850Y-106893100D02*
X130048000Y-105696250D01*
X130048000Y-105696250D02*
X130048000Y-105410000D01*
X161544000Y-109112000D02*
X161544000Y-108712000D01*
X167550773Y-108681100D02*
X168879850Y-108681100D01*
X165487873Y-110744000D02*
X167550773Y-108681100D01*
X161868000Y-110744000D02*
X165487873Y-110744000D01*
X161544000Y-110420000D02*
X161868000Y-110744000D01*
X161544000Y-108712000D02*
X161544000Y-110420000D01*
D21*
X158893600Y-108804750D02*
X158913950Y-108825100D01*
D24*
X158913950Y-108825100D02*
X158913950Y-110728950D01*
X158913950Y-110728950D02*
X160322350Y-112137350D01*
X160322350Y-112137350D02*
X166831100Y-112137350D01*
X166831100Y-112137350D02*
X167783600Y-111184850D01*
X167783600Y-111184850D02*
X168843600Y-111184850D01*
X168843600Y-111184850D02*
X168879850Y-111221100D01*
D23*
X150537393Y-117348000D02*
X149352000Y-117348000D01*
X159004000Y-107004000D02*
X158426000Y-106426000D01*
X159004000Y-108712000D02*
X159004000Y-107004000D01*
X154940000Y-106426000D02*
X153972350Y-107393650D01*
X153972350Y-107393650D02*
X153972350Y-113913043D01*
X158426000Y-106426000D02*
X154940000Y-106426000D01*
X153972350Y-113913043D02*
X150537393Y-117348000D01*
D24*
X156373950Y-108825100D02*
X156373950Y-111522700D01*
X168879850Y-113761100D02*
X158612350Y-113761100D01*
X158612350Y-113761100D02*
X156373950Y-111522700D01*
D21*
X159052350Y-101343500D02*
X158913950Y-101205100D01*
D25*
X141399350Y-106898600D02*
X141404850Y-106893100D01*
D22*
X168757350Y-101183600D02*
X168879850Y-101061100D01*
X168684850Y-100866100D02*
X168879850Y-101061100D01*
D23*
X158913950Y-102706050D02*
X158913950Y-101205100D01*
X158115000Y-103505000D02*
X158913950Y-102706050D01*
X154940000Y-103505000D02*
X158115000Y-103505000D01*
X153957701Y-102522701D02*
X154940000Y-103505000D01*
X142875000Y-102870000D02*
X147320000Y-102870000D01*
X140075773Y-106893100D02*
X139065000Y-105882327D01*
X147667299Y-102522701D02*
X153957701Y-102522701D01*
X139065000Y-105882327D02*
X139065000Y-102870000D01*
X139700000Y-102235000D02*
X142240000Y-102235000D01*
X147320000Y-102870000D02*
X147667299Y-102522701D01*
X141404850Y-106893100D02*
X140075773Y-106893100D01*
X139065000Y-102870000D02*
X139700000Y-102235000D01*
X142240000Y-102235000D02*
X142875000Y-102870000D01*
X168879850Y-101061100D02*
X166169989Y-98351239D01*
X160510103Y-97282000D02*
X159004000Y-98788103D01*
X159004000Y-98788103D02*
X159004000Y-99384000D01*
X159004000Y-99384000D02*
X159004000Y-101092000D01*
X161544000Y-94996000D02*
X160510103Y-96029897D01*
X165354000Y-94996000D02*
X161544000Y-94996000D01*
X166169989Y-95811989D02*
X165354000Y-94996000D01*
X166169989Y-98351239D02*
X166169989Y-95811989D01*
X160510103Y-96029897D02*
X160510103Y-97282000D01*
D22*
X161592350Y-101343500D02*
X161453950Y-101205100D01*
D23*
X141342350Y-103928100D02*
X147531900Y-103928100D01*
X147531900Y-103928100D02*
X148082000Y-103378000D01*
X148082000Y-103378000D02*
X153416000Y-103378000D01*
X153416000Y-103378000D02*
X154432000Y-104394000D01*
X154432000Y-104394000D02*
X160604450Y-104394000D01*
X161453950Y-101205100D02*
X161453950Y-103544500D01*
X161453950Y-103544500D02*
X160604450Y-104394000D01*
X167550773Y-106141100D02*
X166565673Y-105156000D01*
X168879850Y-106141100D02*
X167550773Y-106141100D01*
X163065450Y-105156000D02*
X161453950Y-103544500D01*
X166565673Y-105156000D02*
X163065450Y-105156000D01*
D22*
X164132350Y-101343500D02*
X164132350Y-102136100D01*
X164132350Y-102136100D02*
X165719850Y-103723600D01*
X165719850Y-103723600D02*
X168757350Y-103723600D01*
D25*
X168757350Y-103723600D02*
X168879850Y-103601100D01*
X163993950Y-101205100D02*
X164132350Y-101343500D01*
D22*
X164132350Y-101066700D02*
X163993950Y-101205100D01*
D23*
X163779200Y-100787200D02*
X164084000Y-101092000D01*
X163779200Y-96494600D02*
X163779200Y-100787200D01*
X147485850Y-112941850D02*
X149352000Y-114808000D01*
X147485850Y-110703100D02*
X147485850Y-112941850D01*
D22*
X144320850Y-110703100D02*
X144441850Y-110703100D01*
D23*
X144320850Y-114759150D02*
X144272000Y-114808000D01*
X144320850Y-110703100D02*
X144320850Y-114759150D01*
D22*
X142338900Y-91976100D02*
X140970000Y-93345000D01*
X143812350Y-91976100D02*
X142338900Y-91976100D01*
D26*
X173642350Y-119626100D02*
X123359850Y-119626100D01*
X123359850Y-117257092D01*
X130744850Y-117257092D01*
X130744850Y-117615108D01*
X130814696Y-117966245D01*
X130951702Y-118297009D01*
X131150606Y-118594689D01*
X131403761Y-118847844D01*
X131701441Y-119046748D01*
X132032205Y-119183754D01*
X132383342Y-119253600D01*
X132741358Y-119253600D01*
X133092495Y-119183754D01*
X133423259Y-119046748D01*
X133720939Y-118847844D01*
X133974094Y-118594689D01*
X134172998Y-118297009D01*
X134310004Y-117966245D01*
X134379850Y-117615108D01*
X134379850Y-117257092D01*
X134310004Y-116905955D01*
X134172998Y-116575191D01*
X133974094Y-116277511D01*
X133720939Y-116024356D01*
X133423259Y-115825452D01*
X133092495Y-115688446D01*
X132741358Y-115618600D01*
X132383342Y-115618600D01*
X132032205Y-115688446D01*
X131701441Y-115825452D01*
X131403761Y-116024356D01*
X131150606Y-116277511D01*
X130951702Y-116575191D01*
X130814696Y-116905955D01*
X130744850Y-117257092D01*
X123359850Y-117257092D01*
X123359850Y-110628955D01*
X124026850Y-110628955D01*
X124026850Y-111008245D01*
X124100846Y-111380248D01*
X124245994Y-111730666D01*
X124456716Y-112046035D01*
X124724915Y-112314234D01*
X125040284Y-112524956D01*
X125390702Y-112670104D01*
X125762705Y-112744100D01*
X126141995Y-112744100D01*
X126513998Y-112670104D01*
X126864416Y-112524956D01*
X127179785Y-112314234D01*
X127447984Y-112046035D01*
X127658706Y-111730666D01*
X127780851Y-111435783D01*
X127780851Y-112576266D01*
X127778085Y-112604350D01*
X127789119Y-112716383D01*
X127821798Y-112824111D01*
X127864341Y-112903703D01*
X127874867Y-112923395D01*
X127946284Y-113010417D01*
X127968094Y-113028316D01*
X130132039Y-115192263D01*
X130149933Y-115214067D01*
X130171737Y-115231961D01*
X130171739Y-115231963D01*
X130236955Y-115285484D01*
X130336238Y-115338552D01*
X130443966Y-115371231D01*
X130556000Y-115382265D01*
X130584074Y-115379500D01*
X135861926Y-115379500D01*
X135890000Y-115382265D01*
X135918074Y-115379500D01*
X136002034Y-115371231D01*
X136109762Y-115338552D01*
X136209045Y-115285484D01*
X136296067Y-115214067D01*
X136313970Y-115192252D01*
X137544258Y-113961965D01*
X137566067Y-113944067D01*
X137637484Y-113857045D01*
X137690552Y-113757762D01*
X137723231Y-113650034D01*
X137731500Y-113566074D01*
X137731500Y-113566073D01*
X137734265Y-113538001D01*
X137731500Y-113509929D01*
X137731500Y-110914884D01*
X139296315Y-110914884D01*
X139400192Y-111127061D01*
X139668936Y-111229745D01*
X139952549Y-111278027D01*
X140240132Y-111270051D01*
X140520633Y-111206124D01*
X140711508Y-111127061D01*
X140815385Y-110914884D01*
X140055850Y-110155350D01*
X139296315Y-110914884D01*
X137731500Y-110914884D01*
X137731500Y-109710799D01*
X138591923Y-109710799D01*
X138599899Y-109998382D01*
X138663826Y-110278883D01*
X138742889Y-110469758D01*
X138955066Y-110573635D01*
X139714600Y-109814100D01*
X140397100Y-109814100D01*
X141156634Y-110573635D01*
X141368811Y-110469758D01*
X141471495Y-110201014D01*
X141519777Y-109917401D01*
X141511801Y-109629818D01*
X141447874Y-109349317D01*
X141368811Y-109158442D01*
X141156634Y-109054565D01*
X140397100Y-109814100D01*
X139714600Y-109814100D01*
X138955066Y-109054565D01*
X138742889Y-109158442D01*
X138640205Y-109427186D01*
X138591923Y-109710799D01*
X137731500Y-109710799D01*
X137731500Y-108713316D01*
X139296315Y-108713316D01*
X140055850Y-109472850D01*
X140815385Y-108713316D01*
X140711508Y-108501139D01*
X140442764Y-108398455D01*
X140159151Y-108350173D01*
X139871568Y-108358149D01*
X139591067Y-108422076D01*
X139400192Y-108501139D01*
X139296315Y-108713316D01*
X137731500Y-108713316D01*
X137731500Y-100963047D01*
X137734265Y-100934973D01*
X137723231Y-100822939D01*
X137690552Y-100715211D01*
X137637484Y-100615928D01*
X137566067Y-100528906D01*
X137544257Y-100511007D01*
X137382049Y-100348799D01*
X138492923Y-100348799D01*
X138500899Y-100636382D01*
X138564826Y-100916883D01*
X138643889Y-101107758D01*
X138856066Y-101211635D01*
X139615600Y-100452100D01*
X140298100Y-100452100D01*
X141057634Y-101211635D01*
X141269811Y-101107758D01*
X141372495Y-100839014D01*
X141420777Y-100555401D01*
X141417571Y-100439799D01*
X142856923Y-100439799D01*
X142864899Y-100727382D01*
X142928826Y-101007883D01*
X143007889Y-101198758D01*
X143220066Y-101302635D01*
X143979600Y-100543100D01*
X144662100Y-100543100D01*
X145421634Y-101302635D01*
X145633811Y-101198758D01*
X145736495Y-100930014D01*
X145784777Y-100646401D01*
X145779047Y-100439799D01*
X146021923Y-100439799D01*
X146029899Y-100727382D01*
X146093826Y-101007883D01*
X146172889Y-101198758D01*
X146385066Y-101302635D01*
X147144600Y-100543100D01*
X147827100Y-100543100D01*
X148586634Y-101302635D01*
X148798811Y-101198758D01*
X148901495Y-100930014D01*
X148926761Y-100781594D01*
X151233656Y-100781594D01*
X151320175Y-100979574D01*
X151564797Y-101068120D01*
X151821994Y-101107243D01*
X152081880Y-101095436D01*
X152334471Y-101033155D01*
X152463825Y-100979574D01*
X152550344Y-100781594D01*
X152408639Y-100639889D01*
X155120499Y-100639889D01*
X155259063Y-100850700D01*
X156222700Y-100850700D01*
X156222700Y-99526185D01*
X156705300Y-99526185D01*
X156705300Y-100850700D01*
X157668937Y-100850700D01*
X157807501Y-100639889D01*
X157771520Y-100378786D01*
X157685291Y-100129720D01*
X157552129Y-99902262D01*
X157377151Y-99705153D01*
X157167081Y-99545968D01*
X156905454Y-99447265D01*
X156705300Y-99526185D01*
X156222700Y-99526185D01*
X156022546Y-99447265D01*
X155760919Y-99545968D01*
X155550849Y-99705153D01*
X155375871Y-99902262D01*
X155242709Y-100129720D01*
X155156480Y-100378786D01*
X155120499Y-100639889D01*
X152408639Y-100639889D01*
X151892000Y-100123250D01*
X151233656Y-100781594D01*
X148926761Y-100781594D01*
X148949777Y-100646401D01*
X148941801Y-100358818D01*
X148877874Y-100078317D01*
X148798811Y-99887442D01*
X148586634Y-99783565D01*
X147827100Y-100543100D01*
X147144600Y-100543100D01*
X146385066Y-99783565D01*
X146172889Y-99887442D01*
X146070205Y-100156186D01*
X146021923Y-100439799D01*
X145779047Y-100439799D01*
X145776801Y-100358818D01*
X145712874Y-100078317D01*
X145633811Y-99887442D01*
X145421634Y-99783565D01*
X144662100Y-100543100D01*
X143979600Y-100543100D01*
X143220066Y-99783565D01*
X143007889Y-99887442D01*
X142905205Y-100156186D01*
X142856923Y-100439799D01*
X141417571Y-100439799D01*
X141412801Y-100267818D01*
X141348874Y-99987317D01*
X141269811Y-99796442D01*
X141057634Y-99692565D01*
X140298100Y-100452100D01*
X139615600Y-100452100D01*
X138856066Y-99692565D01*
X138643889Y-99796442D01*
X138541205Y-100065186D01*
X138492923Y-100348799D01*
X137382049Y-100348799D01*
X136384566Y-99351316D01*
X139197315Y-99351316D01*
X139956850Y-100110850D01*
X140625384Y-99442316D01*
X143561315Y-99442316D01*
X144320850Y-100201850D01*
X145080385Y-99442316D01*
X146726315Y-99442316D01*
X147485850Y-100201850D01*
X147975706Y-99711994D01*
X150566757Y-99711994D01*
X150578564Y-99971880D01*
X150640845Y-100224471D01*
X150694426Y-100353825D01*
X150892406Y-100440344D01*
X151550750Y-99782000D01*
X152233250Y-99782000D01*
X152891594Y-100440344D01*
X153089574Y-100353825D01*
X153178120Y-100109203D01*
X153217243Y-99852006D01*
X153205436Y-99592120D01*
X153143155Y-99339529D01*
X153089574Y-99210175D01*
X152891594Y-99123656D01*
X152233250Y-99782000D01*
X151550750Y-99782000D01*
X150892406Y-99123656D01*
X150694426Y-99210175D01*
X150605880Y-99454797D01*
X150566757Y-99711994D01*
X147975706Y-99711994D01*
X148245385Y-99442316D01*
X148141508Y-99230139D01*
X147872764Y-99127455D01*
X147589151Y-99079173D01*
X147301568Y-99087149D01*
X147021067Y-99151076D01*
X146830192Y-99230139D01*
X146726315Y-99442316D01*
X145080385Y-99442316D01*
X144976508Y-99230139D01*
X144707764Y-99127455D01*
X144424151Y-99079173D01*
X144136568Y-99087149D01*
X143856067Y-99151076D01*
X143665192Y-99230139D01*
X143561315Y-99442316D01*
X140625384Y-99442316D01*
X140716385Y-99351316D01*
X140612508Y-99139139D01*
X140343764Y-99036455D01*
X140060151Y-98988173D01*
X139772568Y-98996149D01*
X139492067Y-99060076D01*
X139301192Y-99139139D01*
X139197315Y-99351316D01*
X136384566Y-99351316D01*
X134259497Y-97226248D01*
X134241594Y-97204433D01*
X134154572Y-97133016D01*
X134055289Y-97079948D01*
X133947561Y-97047269D01*
X133863601Y-97039000D01*
X133835527Y-97036235D01*
X133807453Y-97039000D01*
X133630619Y-97039000D01*
X133620655Y-97014945D01*
X133483059Y-96809018D01*
X133307932Y-96633891D01*
X133102005Y-96496295D01*
X132873191Y-96401517D01*
X132630283Y-96353200D01*
X132382617Y-96353200D01*
X132139709Y-96401517D01*
X131910895Y-96496295D01*
X131704968Y-96633891D01*
X131529841Y-96809018D01*
X131392245Y-97014945D01*
X131297467Y-97243759D01*
X131249150Y-97486667D01*
X131249150Y-97734333D01*
X131297467Y-97977241D01*
X131392245Y-98206055D01*
X131529841Y-98411982D01*
X131704968Y-98587109D01*
X131910895Y-98724705D01*
X132139709Y-98819483D01*
X132382617Y-98867800D01*
X132630283Y-98867800D01*
X132873191Y-98819483D01*
X133102005Y-98724705D01*
X133307932Y-98587109D01*
X133483059Y-98411982D01*
X133620655Y-98206055D01*
X133621301Y-98204496D01*
X136588501Y-101171697D01*
X136588500Y-113301277D01*
X135653278Y-114236500D01*
X130792724Y-114236500D01*
X128923850Y-112367628D01*
X128923850Y-109642769D01*
X128947905Y-109632805D01*
X129153832Y-109495209D01*
X129279550Y-109369491D01*
X129279549Y-111354125D01*
X129276784Y-111382199D01*
X129279549Y-111410272D01*
X129287818Y-111494232D01*
X129320497Y-111601960D01*
X129373565Y-111701243D01*
X129444982Y-111788266D01*
X129466797Y-111806169D01*
X130045831Y-112385204D01*
X130035867Y-112409259D01*
X129987550Y-112652167D01*
X129987550Y-112899833D01*
X130035867Y-113142741D01*
X130130645Y-113371555D01*
X130268241Y-113577482D01*
X130443368Y-113752609D01*
X130649295Y-113890205D01*
X130878109Y-113984983D01*
X131121017Y-114033300D01*
X131368683Y-114033300D01*
X131611591Y-113984983D01*
X131840405Y-113890205D01*
X132046332Y-113752609D01*
X132221459Y-113577482D01*
X132359055Y-113371555D01*
X132369019Y-113347500D01*
X132545853Y-113347500D01*
X132573927Y-113350265D01*
X132602001Y-113347500D01*
X132685961Y-113339231D01*
X132793689Y-113306552D01*
X132892972Y-113253484D01*
X132979994Y-113182067D01*
X132997897Y-113160252D01*
X135004257Y-111153893D01*
X135026067Y-111135994D01*
X135097484Y-111048972D01*
X135150552Y-110949689D01*
X135183231Y-110841961D01*
X135191500Y-110758001D01*
X135191500Y-110758000D01*
X135194265Y-110729928D01*
X135191500Y-110701856D01*
X135191500Y-106064747D01*
X135194265Y-106036673D01*
X135183231Y-105924640D01*
X135182230Y-105921338D01*
X135150552Y-105816911D01*
X135097484Y-105717628D01*
X135026067Y-105630606D01*
X135004258Y-105612708D01*
X132935397Y-103543848D01*
X132917494Y-103522033D01*
X132830472Y-103450616D01*
X132731189Y-103397548D01*
X132623461Y-103364869D01*
X132560049Y-103358624D01*
X132721107Y-103197566D01*
X132742917Y-103179667D01*
X132814334Y-103092645D01*
X132867402Y-102993362D01*
X132900081Y-102885634D01*
X132908350Y-102801674D01*
X132911115Y-102773600D01*
X132908350Y-102745526D01*
X132908350Y-101576269D01*
X132932405Y-101566305D01*
X133138332Y-101428709D01*
X133313459Y-101253582D01*
X133451055Y-101047655D01*
X133545833Y-100818841D01*
X133594150Y-100575933D01*
X133594150Y-100328267D01*
X133545833Y-100085359D01*
X133451055Y-99856545D01*
X133313459Y-99650618D01*
X133138332Y-99475491D01*
X132932405Y-99337895D01*
X132703591Y-99243117D01*
X132460683Y-99194800D01*
X132213017Y-99194800D01*
X131970109Y-99243117D01*
X131741295Y-99337895D01*
X131535368Y-99475491D01*
X131360241Y-99650618D01*
X131222645Y-99856545D01*
X131127867Y-100085359D01*
X131079550Y-100328267D01*
X131079550Y-100575933D01*
X131127867Y-100818841D01*
X131222645Y-101047655D01*
X131360241Y-101253582D01*
X131535368Y-101428709D01*
X131741295Y-101566305D01*
X131765350Y-101576269D01*
X131765351Y-102536876D01*
X131573146Y-102729081D01*
X131549091Y-102719117D01*
X131306183Y-102670800D01*
X131058517Y-102670800D01*
X130815609Y-102719117D01*
X130586795Y-102813895D01*
X130380868Y-102951491D01*
X130205741Y-103126618D01*
X130068145Y-103332545D01*
X129973367Y-103561359D01*
X129925050Y-103804267D01*
X129925050Y-104051933D01*
X129967980Y-104267757D01*
X129609650Y-103909428D01*
X129609650Y-103767767D01*
X129561333Y-103524859D01*
X129466555Y-103296045D01*
X129328959Y-103090118D01*
X129153832Y-102914991D01*
X129013175Y-102821007D01*
X129111885Y-102619384D01*
X128352350Y-101859850D01*
X127592815Y-102619384D01*
X127691525Y-102821007D01*
X127550868Y-102914991D01*
X127375741Y-103090118D01*
X127238145Y-103296045D01*
X127143367Y-103524859D01*
X127095050Y-103767767D01*
X127095050Y-104015433D01*
X127143367Y-104258341D01*
X127238145Y-104487155D01*
X127375741Y-104693082D01*
X127550868Y-104868209D01*
X127756795Y-105005805D01*
X127787685Y-105018600D01*
X127756795Y-105031395D01*
X127550868Y-105168991D01*
X127375741Y-105344118D01*
X127238145Y-105550045D01*
X127143367Y-105778859D01*
X127095050Y-106021767D01*
X127095050Y-106269433D01*
X127143367Y-106512341D01*
X127238145Y-106741155D01*
X127375741Y-106947082D01*
X127550868Y-107122209D01*
X127756795Y-107259805D01*
X127931330Y-107332100D01*
X127756795Y-107404395D01*
X127550868Y-107541991D01*
X127375741Y-107717118D01*
X127238145Y-107923045D01*
X127143367Y-108151859D01*
X127095050Y-108394767D01*
X127095050Y-108642433D01*
X127143367Y-108885341D01*
X127238145Y-109114155D01*
X127375741Y-109320082D01*
X127550868Y-109495209D01*
X127756795Y-109632805D01*
X127780850Y-109642769D01*
X127780850Y-110201416D01*
X127658706Y-109906534D01*
X127447984Y-109591165D01*
X127179785Y-109322966D01*
X126864416Y-109112244D01*
X126513998Y-108967096D01*
X126141995Y-108893100D01*
X125762705Y-108893100D01*
X125390702Y-108967096D01*
X125040284Y-109112244D01*
X124724915Y-109322966D01*
X124456716Y-109591165D01*
X124245994Y-109906534D01*
X124100846Y-110256952D01*
X124026850Y-110628955D01*
X123359850Y-110628955D01*
X123359850Y-107183159D01*
X124984850Y-107183159D01*
X124984850Y-107354041D01*
X125018188Y-107521640D01*
X125083582Y-107679515D01*
X125178519Y-107821599D01*
X125299351Y-107942431D01*
X125441435Y-108037368D01*
X125599310Y-108102762D01*
X125766909Y-108136100D01*
X125937791Y-108136100D01*
X126105390Y-108102762D01*
X126263265Y-108037368D01*
X126405349Y-107942431D01*
X126526181Y-107821599D01*
X126621118Y-107679515D01*
X126686512Y-107521640D01*
X126719850Y-107354041D01*
X126719850Y-107183159D01*
X126686512Y-107015560D01*
X126621118Y-106857685D01*
X126526181Y-106715601D01*
X126405349Y-106594769D01*
X126263265Y-106499832D01*
X126105390Y-106434438D01*
X125937791Y-106401100D01*
X125766909Y-106401100D01*
X125599310Y-106434438D01*
X125441435Y-106499832D01*
X125299351Y-106594769D01*
X125178519Y-106715601D01*
X125083582Y-106857685D01*
X125018188Y-107015560D01*
X124984850Y-107183159D01*
X123359850Y-107183159D01*
X123359850Y-102683159D01*
X124984850Y-102683159D01*
X124984850Y-102854041D01*
X125018188Y-103021640D01*
X125083582Y-103179515D01*
X125178519Y-103321599D01*
X125299351Y-103442431D01*
X125441435Y-103537368D01*
X125599310Y-103602762D01*
X125766909Y-103636100D01*
X125937791Y-103636100D01*
X126105390Y-103602762D01*
X126263265Y-103537368D01*
X126405349Y-103442431D01*
X126526181Y-103321599D01*
X126621118Y-103179515D01*
X126686512Y-103021640D01*
X126719850Y-102854041D01*
X126719850Y-102683159D01*
X126686512Y-102515560D01*
X126621118Y-102357685D01*
X126526181Y-102215601D01*
X126405349Y-102094769D01*
X126263265Y-101999832D01*
X126105390Y-101934438D01*
X125937791Y-101901100D01*
X125766909Y-101901100D01*
X125599310Y-101934438D01*
X125441435Y-101999832D01*
X125299351Y-102094769D01*
X125178519Y-102215601D01*
X125083582Y-102357685D01*
X125018188Y-102515560D01*
X124984850Y-102683159D01*
X123359850Y-102683159D01*
X123359850Y-99028955D01*
X124026850Y-99028955D01*
X124026850Y-99408245D01*
X124100846Y-99780248D01*
X124245994Y-100130666D01*
X124456716Y-100446035D01*
X124724915Y-100714234D01*
X125040284Y-100924956D01*
X125390702Y-101070104D01*
X125762705Y-101144100D01*
X126141995Y-101144100D01*
X126513998Y-101070104D01*
X126864416Y-100924956D01*
X127179785Y-100714234D01*
X127193258Y-100700761D01*
X127251563Y-100759066D01*
X127039389Y-100862942D01*
X126936705Y-101131686D01*
X126888423Y-101415299D01*
X126896399Y-101702882D01*
X126960326Y-101983383D01*
X127039389Y-102174258D01*
X127251566Y-102278135D01*
X128011100Y-101518600D01*
X128693600Y-101518600D01*
X129453134Y-102278135D01*
X129665311Y-102174258D01*
X129767995Y-101905514D01*
X129816277Y-101621901D01*
X129808301Y-101334318D01*
X129744374Y-101053817D01*
X129665311Y-100862942D01*
X129453134Y-100759065D01*
X128693600Y-101518600D01*
X128011100Y-101518600D01*
X127996958Y-101504458D01*
X128338208Y-101163208D01*
X128352350Y-101177350D01*
X129111885Y-100417816D01*
X129008008Y-100205639D01*
X128739264Y-100102955D01*
X128455651Y-100054673D01*
X128168068Y-100062649D01*
X127887567Y-100126576D01*
X127696692Y-100205639D01*
X127592816Y-100417813D01*
X127517300Y-100342297D01*
X127658706Y-100130666D01*
X127803854Y-99780248D01*
X127877850Y-99408245D01*
X127877850Y-99028955D01*
X127803854Y-98656952D01*
X127658706Y-98306534D01*
X127447984Y-97991165D01*
X127179785Y-97722966D01*
X126864416Y-97512244D01*
X126513998Y-97367096D01*
X126141995Y-97293100D01*
X125762705Y-97293100D01*
X125390702Y-97367096D01*
X125040284Y-97512244D01*
X124724915Y-97722966D01*
X124456716Y-97991165D01*
X124245994Y-98306534D01*
X124100846Y-98656952D01*
X124026850Y-99028955D01*
X123359850Y-99028955D01*
X123359850Y-92257092D01*
X130744850Y-92257092D01*
X130744850Y-92615108D01*
X130814696Y-92966245D01*
X130951702Y-93297009D01*
X131150606Y-93594689D01*
X131403761Y-93847844D01*
X131701441Y-94046748D01*
X132032205Y-94183754D01*
X132383342Y-94253600D01*
X132741358Y-94253600D01*
X133092495Y-94183754D01*
X133423259Y-94046748D01*
X133720939Y-93847844D01*
X133974094Y-93594689D01*
X134172998Y-93297009D01*
X134310004Y-92966245D01*
X134379850Y-92615108D01*
X134379850Y-92552072D01*
X134812500Y-92552072D01*
X134812500Y-94137929D01*
X134828091Y-94296227D01*
X134889705Y-94499336D01*
X134989758Y-94686523D01*
X135124407Y-94850594D01*
X135166101Y-94884811D01*
X135166101Y-95622234D01*
X135162598Y-95657800D01*
X135176575Y-95799709D01*
X135217968Y-95936164D01*
X135217969Y-95936165D01*
X135285188Y-96061923D01*
X135375650Y-96172151D01*
X135403271Y-96194819D01*
X137305681Y-98097230D01*
X137328349Y-98124851D01*
X137438577Y-98215313D01*
X137517599Y-98257551D01*
X137564335Y-98282532D01*
X137700790Y-98323925D01*
X137842700Y-98337902D01*
X137878256Y-98334400D01*
X139098002Y-98334400D01*
X139149841Y-98411982D01*
X139324968Y-98587109D01*
X139530895Y-98724705D01*
X139759709Y-98819483D01*
X140002617Y-98867800D01*
X140250283Y-98867800D01*
X140493191Y-98819483D01*
X140722005Y-98724705D01*
X140927932Y-98587109D01*
X141103059Y-98411982D01*
X141119818Y-98386900D01*
X143153887Y-98386900D01*
X143247309Y-98526716D01*
X143408284Y-98687691D01*
X143597571Y-98814168D01*
X143807895Y-98901287D01*
X144031173Y-98945700D01*
X144258827Y-98945700D01*
X144482105Y-98901287D01*
X144684899Y-98817287D01*
X145998963Y-98817287D01*
X146090241Y-99019140D01*
X146341463Y-99111554D01*
X146605886Y-99153182D01*
X146873350Y-99142423D01*
X147133575Y-99079691D01*
X147279759Y-99019140D01*
X147371037Y-98817287D01*
X147336156Y-98782406D01*
X151233656Y-98782406D01*
X151892000Y-99440750D01*
X152550344Y-98782406D01*
X152463825Y-98584426D01*
X152219203Y-98495880D01*
X151962006Y-98456757D01*
X151702120Y-98468564D01*
X151449529Y-98530845D01*
X151320175Y-98584426D01*
X151233656Y-98782406D01*
X147336156Y-98782406D01*
X146685000Y-98131250D01*
X145998963Y-98817287D01*
X144684899Y-98817287D01*
X144692429Y-98814168D01*
X144881716Y-98687691D01*
X145042691Y-98526716D01*
X145169168Y-98337429D01*
X145256287Y-98127105D01*
X145300700Y-97903827D01*
X145300700Y-97710886D01*
X145321818Y-97710886D01*
X145332577Y-97978350D01*
X145395309Y-98238575D01*
X145455860Y-98384759D01*
X145657713Y-98476037D01*
X146343750Y-97790000D01*
X147026250Y-97790000D01*
X147712287Y-98476037D01*
X147914140Y-98384759D01*
X148006554Y-98133537D01*
X148048182Y-97869114D01*
X148037423Y-97601650D01*
X147974691Y-97341425D01*
X147914140Y-97195241D01*
X147712287Y-97103963D01*
X147026250Y-97790000D01*
X146343750Y-97790000D01*
X145657713Y-97103963D01*
X145455860Y-97195241D01*
X145363446Y-97446463D01*
X145321818Y-97710886D01*
X145300700Y-97710886D01*
X145300700Y-97676173D01*
X145256287Y-97452895D01*
X145169168Y-97242571D01*
X145042691Y-97053284D01*
X144881716Y-96892309D01*
X144692429Y-96765832D01*
X144684900Y-96762713D01*
X145998963Y-96762713D01*
X146685000Y-97448750D01*
X147371037Y-96762713D01*
X147279759Y-96560860D01*
X147028537Y-96468446D01*
X146764114Y-96426818D01*
X146496650Y-96437577D01*
X146236425Y-96500309D01*
X146090241Y-96560860D01*
X145998963Y-96762713D01*
X144684900Y-96762713D01*
X144482105Y-96678713D01*
X144258827Y-96634300D01*
X144031173Y-96634300D01*
X143807895Y-96678713D01*
X143597571Y-96765832D01*
X143408284Y-96892309D01*
X143361493Y-96939100D01*
X141821598Y-96939100D01*
X142885699Y-95875000D01*
X146951794Y-95875000D01*
X146987350Y-95878502D01*
X147129259Y-95864525D01*
X147213447Y-95838987D01*
X147265715Y-95823132D01*
X147391473Y-95755913D01*
X147501701Y-95665451D01*
X147524374Y-95637824D01*
X149379080Y-93783119D01*
X149406701Y-93760451D01*
X149497163Y-93650223D01*
X149564382Y-93524465D01*
X149605775Y-93388009D01*
X149616250Y-93281656D01*
X149619752Y-93246100D01*
X149616250Y-93210544D01*
X149616250Y-93004548D01*
X149693832Y-92952709D01*
X149868959Y-92777582D01*
X149920798Y-92700000D01*
X150815002Y-92700000D01*
X151025950Y-92910949D01*
X151025951Y-96170249D01*
X150969910Y-96187249D01*
X150914753Y-96216731D01*
X150866407Y-96256407D01*
X150826731Y-96304753D01*
X150797249Y-96359910D01*
X150779094Y-96419759D01*
X150772964Y-96482000D01*
X150772964Y-98082000D01*
X150779094Y-98144241D01*
X150797249Y-98204090D01*
X150826731Y-98259247D01*
X150866407Y-98307593D01*
X150914753Y-98347269D01*
X150969910Y-98376751D01*
X151029759Y-98394906D01*
X151092000Y-98401036D01*
X152692000Y-98401036D01*
X152754241Y-98394906D01*
X152814090Y-98376751D01*
X152869247Y-98347269D01*
X152917593Y-98307593D01*
X152957269Y-98259247D01*
X152986751Y-98204090D01*
X153004906Y-98144241D01*
X153011036Y-98082000D01*
X153011036Y-97853500D01*
X153171926Y-97853500D01*
X153200000Y-97856265D01*
X153228074Y-97853500D01*
X153312034Y-97845231D01*
X153419762Y-97812552D01*
X153519045Y-97759484D01*
X153606067Y-97688067D01*
X153623970Y-97666252D01*
X154084858Y-97205365D01*
X154106667Y-97187467D01*
X154178084Y-97100445D01*
X154231152Y-97001162D01*
X154263831Y-96893434D01*
X154272100Y-96809474D01*
X154272100Y-96809473D01*
X154274865Y-96781401D01*
X154272100Y-96753329D01*
X154272100Y-96494600D01*
X155430077Y-96494600D01*
X155450920Y-96706219D01*
X155512647Y-96909706D01*
X155612886Y-97097240D01*
X155747785Y-97261615D01*
X155912160Y-97396514D01*
X156099694Y-97496753D01*
X156303181Y-97558480D01*
X156461771Y-97574100D01*
X158091829Y-97574100D01*
X158250419Y-97558480D01*
X158453906Y-97496753D01*
X158641440Y-97396514D01*
X158805815Y-97261615D01*
X158940714Y-97097240D01*
X159040953Y-96909706D01*
X159102680Y-96706219D01*
X159123523Y-96494600D01*
X159102680Y-96282981D01*
X159040953Y-96079494D01*
X158940714Y-95891960D01*
X158805815Y-95727585D01*
X158641440Y-95592686D01*
X158453906Y-95492447D01*
X158250419Y-95430720D01*
X158091829Y-95415100D01*
X156461771Y-95415100D01*
X156303181Y-95430720D01*
X156099694Y-95492447D01*
X155912160Y-95592686D01*
X155747785Y-95727585D01*
X155612886Y-95891960D01*
X155512647Y-96079494D01*
X155450920Y-96282981D01*
X155430077Y-96494600D01*
X154272100Y-96494600D01*
X154272100Y-95437322D01*
X154567344Y-95142079D01*
X160589699Y-95142079D01*
X160125851Y-95605927D01*
X160104036Y-95623830D01*
X160041563Y-95699955D01*
X160032619Y-95710853D01*
X159979551Y-95810136D01*
X159946872Y-95917864D01*
X159935838Y-96029897D01*
X159938603Y-96057972D01*
X159938604Y-97045276D01*
X158619748Y-98364133D01*
X158597933Y-98382036D01*
X158526922Y-98468564D01*
X158526516Y-98469059D01*
X158473448Y-98568342D01*
X158440769Y-98676070D01*
X158429735Y-98788103D01*
X158432500Y-98816177D01*
X158432500Y-99730354D01*
X158380147Y-99758337D01*
X158209986Y-99897985D01*
X158070338Y-100068146D01*
X157966570Y-100262282D01*
X157902669Y-100472932D01*
X157886500Y-100637101D01*
X157886500Y-101546898D01*
X157902669Y-101711067D01*
X157966569Y-101921717D01*
X158070337Y-102115854D01*
X158209985Y-102286015D01*
X158342450Y-102394727D01*
X158342450Y-102469327D01*
X157878278Y-102933500D01*
X155176723Y-102933500D01*
X154381671Y-102138449D01*
X154363768Y-102116634D01*
X154276746Y-102045217D01*
X154177463Y-101992149D01*
X154069735Y-101959470D01*
X153985775Y-101951201D01*
X153957701Y-101948436D01*
X153929627Y-101951201D01*
X147880090Y-101951201D01*
X147950633Y-101935124D01*
X148141508Y-101856061D01*
X148245385Y-101643884D01*
X148145612Y-101544111D01*
X155120499Y-101544111D01*
X155156480Y-101805214D01*
X155242709Y-102054280D01*
X155375871Y-102281738D01*
X155550849Y-102478847D01*
X155760919Y-102638032D01*
X156022546Y-102736735D01*
X156222700Y-102657815D01*
X156222700Y-101333300D01*
X156705300Y-101333300D01*
X156705300Y-102657815D01*
X156905454Y-102736735D01*
X157167081Y-102638032D01*
X157377151Y-102478847D01*
X157552129Y-102281738D01*
X157685291Y-102054280D01*
X157771520Y-101805214D01*
X157807501Y-101544111D01*
X157668937Y-101333300D01*
X156705300Y-101333300D01*
X156222700Y-101333300D01*
X155259063Y-101333300D01*
X155120499Y-101544111D01*
X148145612Y-101544111D01*
X147485850Y-100884350D01*
X146726315Y-101643884D01*
X146830192Y-101856061D01*
X147098936Y-101958745D01*
X147382549Y-102007027D01*
X147421736Y-102005940D01*
X147348254Y-102045217D01*
X147261232Y-102116634D01*
X147243329Y-102138449D01*
X147083278Y-102298500D01*
X143111723Y-102298500D01*
X142663970Y-101850748D01*
X142646067Y-101828933D01*
X142559045Y-101757516D01*
X142459762Y-101704448D01*
X142352034Y-101671769D01*
X142268074Y-101663500D01*
X142240000Y-101660735D01*
X142211926Y-101663500D01*
X140662230Y-101663500D01*
X140671833Y-101643884D01*
X143561315Y-101643884D01*
X143665192Y-101856061D01*
X143933936Y-101958745D01*
X144217549Y-102007027D01*
X144505132Y-101999051D01*
X144785633Y-101935124D01*
X144976508Y-101856061D01*
X145080385Y-101643884D01*
X144320850Y-100884350D01*
X143561315Y-101643884D01*
X140671833Y-101643884D01*
X140716385Y-101552884D01*
X139956850Y-100793350D01*
X139197315Y-101552884D01*
X139301192Y-101765061D01*
X139349343Y-101783459D01*
X139293933Y-101828933D01*
X139276034Y-101850743D01*
X138680744Y-102446034D01*
X138658934Y-102463933D01*
X138605181Y-102529431D01*
X138587516Y-102550956D01*
X138534448Y-102650239D01*
X138501769Y-102757967D01*
X138490735Y-102870000D01*
X138493501Y-102898084D01*
X138493500Y-105854253D01*
X138490735Y-105882327D01*
X138496469Y-105940551D01*
X138501769Y-105994360D01*
X138534448Y-106102088D01*
X138587516Y-106201371D01*
X138658933Y-106288394D01*
X138680748Y-106306297D01*
X139651807Y-107277357D01*
X139669706Y-107299167D01*
X139744136Y-107360250D01*
X139756728Y-107370584D01*
X139856011Y-107423652D01*
X139963739Y-107456331D01*
X140075773Y-107467365D01*
X140103847Y-107464600D01*
X140280681Y-107464600D01*
X140290645Y-107488655D01*
X140428241Y-107694582D01*
X140603368Y-107869709D01*
X140809295Y-108007305D01*
X141038109Y-108102083D01*
X141281017Y-108150400D01*
X141528683Y-108150400D01*
X141771591Y-108102083D01*
X142000405Y-108007305D01*
X142206332Y-107869709D01*
X142381459Y-107694582D01*
X142519055Y-107488655D01*
X142613833Y-107259841D01*
X142662150Y-107016933D01*
X142662150Y-106769267D01*
X142613833Y-106526359D01*
X142519055Y-106297545D01*
X142381459Y-106091618D01*
X142206332Y-105916491D01*
X142000405Y-105778895D01*
X141771591Y-105684117D01*
X141528683Y-105635800D01*
X141281017Y-105635800D01*
X141038109Y-105684117D01*
X140809295Y-105778895D01*
X140603368Y-105916491D01*
X140428241Y-106091618D01*
X140290645Y-106297545D01*
X140289999Y-106299104D01*
X139636500Y-105645605D01*
X139636500Y-103106722D01*
X139936723Y-102806500D01*
X140764648Y-102806500D01*
X140746795Y-102813895D01*
X140540868Y-102951491D01*
X140365741Y-103126618D01*
X140228145Y-103332545D01*
X140133367Y-103561359D01*
X140085050Y-103804267D01*
X140085050Y-104051933D01*
X140133367Y-104294841D01*
X140228145Y-104523655D01*
X140365741Y-104729582D01*
X140540868Y-104904709D01*
X140746795Y-105042305D01*
X140975609Y-105137083D01*
X141218517Y-105185400D01*
X141466183Y-105185400D01*
X141709091Y-105137083D01*
X141937905Y-105042305D01*
X142143832Y-104904709D01*
X142318959Y-104729582D01*
X142456555Y-104523655D01*
X142466519Y-104499600D01*
X147503826Y-104499600D01*
X147531900Y-104502365D01*
X147559974Y-104499600D01*
X147643934Y-104491331D01*
X147751662Y-104458652D01*
X147850945Y-104405584D01*
X147937967Y-104334167D01*
X147955870Y-104312352D01*
X148318723Y-103949500D01*
X153179278Y-103949500D01*
X154008034Y-104778257D01*
X154025933Y-104800067D01*
X154082840Y-104846769D01*
X154112955Y-104871484D01*
X154212238Y-104924552D01*
X154319966Y-104957231D01*
X154432000Y-104968265D01*
X154460074Y-104965500D01*
X160576376Y-104965500D01*
X160604450Y-104968265D01*
X160632524Y-104965500D01*
X160716484Y-104957231D01*
X160824212Y-104924552D01*
X160923495Y-104871484D01*
X161010517Y-104800067D01*
X161028420Y-104778252D01*
X161453950Y-104352722D01*
X162641484Y-105540257D01*
X162659383Y-105562067D01*
X162746405Y-105633484D01*
X162845688Y-105686552D01*
X162953416Y-105719231D01*
X163037376Y-105727500D01*
X163037377Y-105727500D01*
X163065449Y-105730265D01*
X163093521Y-105727500D01*
X166328951Y-105727500D01*
X167126807Y-106525357D01*
X167144706Y-106547167D01*
X167218728Y-106607915D01*
X167231728Y-106618584D01*
X167331011Y-106671652D01*
X167438739Y-106704331D01*
X167550773Y-106715365D01*
X167578847Y-106712600D01*
X167755681Y-106712600D01*
X167765645Y-106736655D01*
X167903241Y-106942582D01*
X168078368Y-107117709D01*
X168284295Y-107255305D01*
X168513109Y-107350083D01*
X168756017Y-107398400D01*
X169003683Y-107398400D01*
X169246591Y-107350083D01*
X169475405Y-107255305D01*
X169681332Y-107117709D01*
X169856459Y-106942582D01*
X169994055Y-106736655D01*
X170088833Y-106507841D01*
X170137150Y-106264933D01*
X170137150Y-106017267D01*
X170088833Y-105774359D01*
X169994055Y-105545545D01*
X169856459Y-105339618D01*
X169681332Y-105164491D01*
X169475405Y-105026895D01*
X169246591Y-104932117D01*
X169003683Y-104883800D01*
X168756017Y-104883800D01*
X168513109Y-104932117D01*
X168284295Y-105026895D01*
X168078368Y-105164491D01*
X167903241Y-105339618D01*
X167765645Y-105545545D01*
X167764999Y-105547104D01*
X166989643Y-104771748D01*
X166971740Y-104749933D01*
X166884718Y-104678516D01*
X166785435Y-104625448D01*
X166677707Y-104592769D01*
X166593747Y-104584500D01*
X166565673Y-104581735D01*
X166537599Y-104584500D01*
X163302173Y-104584500D01*
X162025450Y-103307778D01*
X162025450Y-102501779D01*
X162167854Y-102425663D01*
X162338015Y-102286015D01*
X162477663Y-102115854D01*
X162581431Y-101921718D01*
X162645331Y-101711068D01*
X162661500Y-101546899D01*
X162661500Y-100637102D01*
X162645331Y-100472933D01*
X162581431Y-100262282D01*
X162477663Y-100068146D01*
X162338015Y-99897985D01*
X162167854Y-99758337D01*
X161973718Y-99654569D01*
X161763068Y-99590669D01*
X161544000Y-99569093D01*
X161324933Y-99590669D01*
X161114283Y-99654569D01*
X160920147Y-99758337D01*
X160749986Y-99897985D01*
X160610338Y-100068146D01*
X160506570Y-100262282D01*
X160442669Y-100472932D01*
X160426500Y-100637101D01*
X160426500Y-101546898D01*
X160442669Y-101711067D01*
X160506569Y-101921717D01*
X160610337Y-102115854D01*
X160749985Y-102286015D01*
X160882451Y-102394727D01*
X160882451Y-103307776D01*
X160367728Y-103822500D01*
X158605722Y-103822500D01*
X159298208Y-103130015D01*
X159320017Y-103112117D01*
X159391434Y-103025095D01*
X159444502Y-102925812D01*
X159477181Y-102818084D01*
X159485450Y-102734124D01*
X159485450Y-102734123D01*
X159488215Y-102706050D01*
X159485450Y-102677976D01*
X159485450Y-102501779D01*
X159627854Y-102425663D01*
X159798015Y-102286015D01*
X159937663Y-102115854D01*
X160041431Y-101921718D01*
X160105331Y-101711068D01*
X160121500Y-101546899D01*
X160121500Y-100637102D01*
X160105331Y-100472933D01*
X160041431Y-100262282D01*
X159937663Y-100068146D01*
X159798015Y-99897985D01*
X159627854Y-99758337D01*
X159575500Y-99730353D01*
X159575500Y-99024825D01*
X160894360Y-97705966D01*
X160916170Y-97688067D01*
X160987587Y-97601045D01*
X161040655Y-97501762D01*
X161073334Y-97394034D01*
X161081603Y-97310074D01*
X161081603Y-97310073D01*
X161084368Y-97282001D01*
X161081603Y-97253929D01*
X161081603Y-96266619D01*
X161780723Y-95567500D01*
X162461680Y-95567500D01*
X162414560Y-95592686D01*
X162250185Y-95727585D01*
X162115286Y-95891960D01*
X162015047Y-96079494D01*
X161953320Y-96282981D01*
X161932477Y-96494600D01*
X161953320Y-96706219D01*
X162015047Y-96909706D01*
X162115286Y-97097240D01*
X162250185Y-97261615D01*
X162414560Y-97396514D01*
X162602094Y-97496753D01*
X162805581Y-97558480D01*
X162964171Y-97574100D01*
X163207700Y-97574100D01*
X163207701Y-99583359D01*
X163161910Y-99597249D01*
X163106753Y-99626731D01*
X163058407Y-99666407D01*
X163018731Y-99714753D01*
X162989249Y-99769910D01*
X162971094Y-99829759D01*
X162964964Y-99892000D01*
X162964964Y-102292000D01*
X162971094Y-102354241D01*
X162989249Y-102414090D01*
X163018731Y-102469247D01*
X163058407Y-102517593D01*
X163106753Y-102557269D01*
X163161910Y-102586751D01*
X163221759Y-102604906D01*
X163284000Y-102611036D01*
X163585653Y-102611036D01*
X163618000Y-102650451D01*
X163645621Y-102673119D01*
X165182831Y-104210330D01*
X165205499Y-104237951D01*
X165315727Y-104328413D01*
X165438432Y-104394000D01*
X165441485Y-104395632D01*
X165577940Y-104437025D01*
X165719849Y-104451002D01*
X165755405Y-104447500D01*
X167948159Y-104447500D01*
X168078368Y-104577709D01*
X168284295Y-104715305D01*
X168513109Y-104810083D01*
X168756017Y-104858400D01*
X169003683Y-104858400D01*
X169246591Y-104810083D01*
X169475405Y-104715305D01*
X169681332Y-104577709D01*
X169856459Y-104402582D01*
X169994055Y-104196655D01*
X170088833Y-103967841D01*
X170137150Y-103724933D01*
X170137150Y-103477267D01*
X170088833Y-103234359D01*
X169994055Y-103005545D01*
X169856459Y-102799618D01*
X169681332Y-102624491D01*
X169475405Y-102486895D01*
X169246591Y-102392117D01*
X169003683Y-102343800D01*
X168756017Y-102343800D01*
X168513109Y-102392117D01*
X168284295Y-102486895D01*
X168078368Y-102624491D01*
X167903241Y-102799618D01*
X167769551Y-102999700D01*
X166019699Y-102999700D01*
X165203036Y-102183038D01*
X165203036Y-99892000D01*
X165196906Y-99829759D01*
X165178751Y-99769910D01*
X165149269Y-99714753D01*
X165109593Y-99666407D01*
X165061247Y-99626731D01*
X165006090Y-99597249D01*
X164946241Y-99579094D01*
X164884000Y-99572964D01*
X164350700Y-99572964D01*
X164350700Y-97574100D01*
X164594229Y-97574100D01*
X164752819Y-97558480D01*
X164956306Y-97496753D01*
X165143840Y-97396514D01*
X165308215Y-97261615D01*
X165443114Y-97097240D01*
X165543353Y-96909706D01*
X165598490Y-96727945D01*
X165598489Y-98323165D01*
X165595724Y-98351239D01*
X165605415Y-98449635D01*
X165606758Y-98463272D01*
X165639437Y-98571000D01*
X165692505Y-98670283D01*
X165763922Y-98757306D01*
X165785737Y-98775209D01*
X167680831Y-100670304D01*
X167670867Y-100694359D01*
X167622550Y-100937267D01*
X167622550Y-101184933D01*
X167670867Y-101427841D01*
X167765645Y-101656655D01*
X167903241Y-101862582D01*
X168078368Y-102037709D01*
X168284295Y-102175305D01*
X168513109Y-102270083D01*
X168756017Y-102318400D01*
X169003683Y-102318400D01*
X169246591Y-102270083D01*
X169475405Y-102175305D01*
X169681332Y-102037709D01*
X169856459Y-101862582D01*
X169994055Y-101656655D01*
X170088833Y-101427841D01*
X170137150Y-101184933D01*
X170137150Y-100937267D01*
X170088833Y-100694359D01*
X169994055Y-100465545D01*
X169856459Y-100259618D01*
X169681332Y-100084491D01*
X169475405Y-99946895D01*
X169246591Y-99852117D01*
X169003683Y-99803800D01*
X168756017Y-99803800D01*
X168513109Y-99852117D01*
X168489054Y-99862081D01*
X168217942Y-99590969D01*
X168284295Y-99635305D01*
X168513109Y-99730083D01*
X168756017Y-99778400D01*
X169003683Y-99778400D01*
X169246591Y-99730083D01*
X169475405Y-99635305D01*
X169681332Y-99497709D01*
X169856459Y-99322582D01*
X169994055Y-99116655D01*
X170004019Y-99092600D01*
X170420378Y-99092600D01*
X170863350Y-99535573D01*
X170863351Y-113329376D01*
X170094779Y-114097948D01*
X170137150Y-113884933D01*
X170137150Y-113637267D01*
X170088833Y-113394359D01*
X169994055Y-113165545D01*
X169856459Y-112959618D01*
X169681332Y-112784491D01*
X169475405Y-112646895D01*
X169246591Y-112552117D01*
X169003683Y-112503800D01*
X168756017Y-112503800D01*
X168513109Y-112552117D01*
X168284295Y-112646895D01*
X168078368Y-112784491D01*
X167927259Y-112935600D01*
X167043383Y-112935600D01*
X167148534Y-112903703D01*
X167291942Y-112827049D01*
X167417641Y-112723891D01*
X167443498Y-112692384D01*
X168008271Y-112127612D01*
X168078368Y-112197709D01*
X168284295Y-112335305D01*
X168513109Y-112430083D01*
X168756017Y-112478400D01*
X169003683Y-112478400D01*
X169246591Y-112430083D01*
X169475405Y-112335305D01*
X169681332Y-112197709D01*
X169856459Y-112022582D01*
X169994055Y-111816655D01*
X170088833Y-111587841D01*
X170137150Y-111344933D01*
X170137150Y-111097267D01*
X170088833Y-110854359D01*
X169994055Y-110625545D01*
X169856459Y-110419618D01*
X169681332Y-110244491D01*
X169475405Y-110106895D01*
X169246591Y-110012117D01*
X169003683Y-109963800D01*
X168756017Y-109963800D01*
X168513109Y-110012117D01*
X168284295Y-110106895D01*
X168078368Y-110244491D01*
X167963509Y-110359350D01*
X167824142Y-110359350D01*
X167783599Y-110355357D01*
X167743056Y-110359350D01*
X167743047Y-110359350D01*
X167621774Y-110371294D01*
X167466166Y-110418497D01*
X167322758Y-110495151D01*
X167197059Y-110598309D01*
X167171206Y-110629811D01*
X166489168Y-111311850D01*
X165553008Y-111311850D01*
X165599907Y-111307231D01*
X165707635Y-111274552D01*
X165806918Y-111221484D01*
X165893940Y-111150067D01*
X165911843Y-111128252D01*
X167764999Y-109275096D01*
X167765645Y-109276655D01*
X167903241Y-109482582D01*
X168078368Y-109657709D01*
X168284295Y-109795305D01*
X168513109Y-109890083D01*
X168756017Y-109938400D01*
X169003683Y-109938400D01*
X169246591Y-109890083D01*
X169475405Y-109795305D01*
X169681332Y-109657709D01*
X169856459Y-109482582D01*
X169994055Y-109276655D01*
X170088833Y-109047841D01*
X170137150Y-108804933D01*
X170137150Y-108557267D01*
X170088833Y-108314359D01*
X169994055Y-108085545D01*
X169856459Y-107879618D01*
X169681332Y-107704491D01*
X169475405Y-107566895D01*
X169246591Y-107472117D01*
X169003683Y-107423800D01*
X168756017Y-107423800D01*
X168513109Y-107472117D01*
X168284295Y-107566895D01*
X168078368Y-107704491D01*
X167903241Y-107879618D01*
X167765645Y-108085545D01*
X167755681Y-108109600D01*
X167578844Y-108109600D01*
X167550772Y-108106835D01*
X167522700Y-108109600D01*
X167522699Y-108109600D01*
X167438739Y-108117869D01*
X167331011Y-108150548D01*
X167231728Y-108203616D01*
X167144706Y-108275033D01*
X167126807Y-108296843D01*
X165251151Y-110172500D01*
X164437669Y-110172500D01*
X164513717Y-110149431D01*
X164707854Y-110045663D01*
X164878015Y-109906015D01*
X165017663Y-109735854D01*
X165121431Y-109541718D01*
X165185331Y-109331068D01*
X165201500Y-109166899D01*
X165201500Y-108257102D01*
X165185331Y-108092933D01*
X165121431Y-107882282D01*
X165017663Y-107688146D01*
X164878015Y-107517985D01*
X164707854Y-107378337D01*
X164513718Y-107274569D01*
X164303068Y-107210669D01*
X164084000Y-107189093D01*
X163864933Y-107210669D01*
X163808124Y-107227902D01*
X161859970Y-105279748D01*
X161842067Y-105257933D01*
X161755045Y-105186516D01*
X161655762Y-105133448D01*
X161548034Y-105100769D01*
X161464074Y-105092500D01*
X161436000Y-105089735D01*
X161407926Y-105092500D01*
X146332074Y-105092500D01*
X146304000Y-105089735D01*
X146275926Y-105092500D01*
X146191966Y-105100769D01*
X146084238Y-105133448D01*
X145984955Y-105186516D01*
X145897933Y-105257933D01*
X145880034Y-105279743D01*
X141960397Y-109199381D01*
X141938582Y-109217284D01*
X141871561Y-109298950D01*
X141867165Y-109304307D01*
X141814097Y-109403590D01*
X141781418Y-109511318D01*
X141770384Y-109623351D01*
X141773149Y-109651425D01*
X141773150Y-111567663D01*
X141771591Y-111567017D01*
X141528683Y-111518700D01*
X141281017Y-111518700D01*
X141038109Y-111567017D01*
X140809295Y-111661795D01*
X140603368Y-111799391D01*
X140428241Y-111974518D01*
X140290645Y-112180445D01*
X140195867Y-112409259D01*
X140147550Y-112652167D01*
X140147550Y-112899833D01*
X140195867Y-113142741D01*
X140290645Y-113371555D01*
X140428241Y-113577482D01*
X140603368Y-113752609D01*
X140809295Y-113890205D01*
X140833350Y-113900169D01*
X140833351Y-116484766D01*
X140830585Y-116512850D01*
X140841619Y-116624883D01*
X140874298Y-116732611D01*
X140927366Y-116831894D01*
X140927367Y-116831895D01*
X140998784Y-116918917D01*
X141020594Y-116936816D01*
X141816034Y-117732257D01*
X141833933Y-117754067D01*
X141920955Y-117825484D01*
X142020238Y-117878552D01*
X142127966Y-117911231D01*
X142211926Y-117919500D01*
X142211927Y-117919500D01*
X142239999Y-117922265D01*
X142268071Y-117919500D01*
X143263916Y-117919500D01*
X143374309Y-118084716D01*
X143535284Y-118245691D01*
X143724571Y-118372168D01*
X143934895Y-118459287D01*
X144158173Y-118503700D01*
X144385827Y-118503700D01*
X144609105Y-118459287D01*
X144819429Y-118372168D01*
X145008716Y-118245691D01*
X145169691Y-118084716D01*
X145280084Y-117919500D01*
X146575278Y-117919500D01*
X147680235Y-119024458D01*
X147698134Y-119046268D01*
X147785156Y-119117685D01*
X147884439Y-119170753D01*
X147992167Y-119203432D01*
X148076127Y-119211701D01*
X148076128Y-119211701D01*
X148104200Y-119214466D01*
X148132272Y-119211701D01*
X166332675Y-119211701D01*
X166360749Y-119214466D01*
X166388823Y-119211701D01*
X166472783Y-119203432D01*
X166580511Y-119170753D01*
X166679794Y-119117685D01*
X166766816Y-119046268D01*
X166784719Y-119024453D01*
X168552080Y-117257092D01*
X169744850Y-117257092D01*
X169744850Y-117615108D01*
X169814696Y-117966245D01*
X169951702Y-118297009D01*
X170150606Y-118594689D01*
X170403761Y-118847844D01*
X170701441Y-119046748D01*
X171032205Y-119183754D01*
X171383342Y-119253600D01*
X171741358Y-119253600D01*
X172092495Y-119183754D01*
X172423259Y-119046748D01*
X172720939Y-118847844D01*
X172974094Y-118594689D01*
X173172998Y-118297009D01*
X173310004Y-117966245D01*
X173379850Y-117615108D01*
X173379850Y-117257092D01*
X173310004Y-116905955D01*
X173172998Y-116575191D01*
X172974094Y-116277511D01*
X172720939Y-116024356D01*
X172423259Y-115825452D01*
X172092495Y-115688446D01*
X171741358Y-115618600D01*
X171383342Y-115618600D01*
X171032205Y-115688446D01*
X170701441Y-115825452D01*
X170403761Y-116024356D01*
X170150606Y-116277511D01*
X169951702Y-116575191D01*
X169814696Y-116905955D01*
X169744850Y-117257092D01*
X168552080Y-117257092D01*
X171819107Y-113990066D01*
X171840917Y-113972167D01*
X171912334Y-113885145D01*
X171965402Y-113785862D01*
X171998081Y-113678134D01*
X172006350Y-113594174D01*
X172006350Y-113594173D01*
X172009115Y-113566101D01*
X172006350Y-113538029D01*
X172006350Y-99326924D01*
X172009115Y-99298850D01*
X171998081Y-99186816D01*
X171965402Y-99079088D01*
X171912334Y-98979805D01*
X171864865Y-98921964D01*
X171840917Y-98892783D01*
X171819108Y-98874885D01*
X171081070Y-98136848D01*
X171063167Y-98115033D01*
X170976145Y-98043616D01*
X170876862Y-97990548D01*
X170769134Y-97957869D01*
X170685174Y-97949600D01*
X170657100Y-97946835D01*
X170629026Y-97949600D01*
X170004019Y-97949600D01*
X169994055Y-97925545D01*
X169856459Y-97719618D01*
X169681332Y-97544491D01*
X169475405Y-97406895D01*
X169369254Y-97362926D01*
X169535508Y-97294061D01*
X169639385Y-97081884D01*
X168879850Y-96322350D01*
X168120315Y-97081884D01*
X168224192Y-97294061D01*
X168397153Y-97360148D01*
X168284295Y-97406895D01*
X168078368Y-97544491D01*
X167903241Y-97719618D01*
X167765645Y-97925545D01*
X167764999Y-97927104D01*
X167449500Y-97611605D01*
X167449500Y-96277715D01*
X167487826Y-96445883D01*
X167566889Y-96636758D01*
X167779066Y-96740635D01*
X168538600Y-95981100D01*
X169221100Y-95981100D01*
X169980634Y-96740635D01*
X170192811Y-96636758D01*
X170295495Y-96368014D01*
X170343777Y-96084401D01*
X170335801Y-95796818D01*
X170271874Y-95516317D01*
X170192811Y-95325442D01*
X169980634Y-95221565D01*
X169221100Y-95981100D01*
X168538600Y-95981100D01*
X167779066Y-95221565D01*
X167566889Y-95325442D01*
X167464205Y-95594186D01*
X167449500Y-95680565D01*
X167449500Y-95292795D01*
X167452265Y-95264721D01*
X167441231Y-95152688D01*
X167408552Y-95044960D01*
X167355484Y-94945677D01*
X167342945Y-94930398D01*
X167301844Y-94880316D01*
X168120315Y-94880316D01*
X168879850Y-95639850D01*
X169639385Y-94880316D01*
X169535508Y-94668139D01*
X169266764Y-94565455D01*
X168983151Y-94517173D01*
X168695568Y-94525149D01*
X168415067Y-94589076D01*
X168224192Y-94668139D01*
X168120315Y-94880316D01*
X167301844Y-94880316D01*
X167284067Y-94858655D01*
X167262257Y-94840756D01*
X166325237Y-93903737D01*
X166307334Y-93881922D01*
X166220312Y-93810505D01*
X166121029Y-93757437D01*
X166013301Y-93724758D01*
X165929341Y-93716489D01*
X165901267Y-93713724D01*
X165873193Y-93716489D01*
X161024807Y-93716489D01*
X160996733Y-93713724D01*
X160968659Y-93716489D01*
X160884699Y-93724758D01*
X160776971Y-93757437D01*
X160677688Y-93810505D01*
X160590666Y-93881922D01*
X160572763Y-93903737D01*
X160477421Y-93999079D01*
X154358692Y-93999079D01*
X154330620Y-93996314D01*
X154302548Y-93999079D01*
X154302547Y-93999079D01*
X154218587Y-94007348D01*
X154110859Y-94040027D01*
X154011576Y-94093095D01*
X153924554Y-94164512D01*
X153906655Y-94186322D01*
X153316344Y-94776634D01*
X153294534Y-94794533D01*
X153248526Y-94850594D01*
X153223116Y-94881556D01*
X153170048Y-94980839D01*
X153137369Y-95088567D01*
X153126335Y-95200600D01*
X153129101Y-95228684D01*
X153129100Y-96544677D01*
X153011036Y-96662742D01*
X153011036Y-96482000D01*
X153004906Y-96419759D01*
X152986751Y-96359910D01*
X152957269Y-96304753D01*
X152917593Y-96256407D01*
X152869247Y-96216731D01*
X152814090Y-96187249D01*
X152754241Y-96169094D01*
X152692000Y-96162964D01*
X152615900Y-96162964D01*
X152615900Y-92788797D01*
X152619401Y-92753249D01*
X152615900Y-92717701D01*
X152615900Y-92717694D01*
X152605425Y-92611341D01*
X152564032Y-92474885D01*
X152528712Y-92408805D01*
X155308259Y-92408805D01*
X155314216Y-92485396D01*
X155437170Y-92709781D01*
X155601537Y-92905867D01*
X155801000Y-93066119D01*
X156027894Y-93184378D01*
X156273500Y-93256100D01*
X157035500Y-93256100D01*
X157035500Y-92214700D01*
X157518100Y-92214700D01*
X157518100Y-93256100D01*
X158280100Y-93256100D01*
X158525706Y-93184378D01*
X158752600Y-93066119D01*
X158952063Y-92905867D01*
X159116430Y-92709781D01*
X159239384Y-92485396D01*
X159245341Y-92408805D01*
X161810659Y-92408805D01*
X161816616Y-92485396D01*
X161939570Y-92709781D01*
X162103937Y-92905867D01*
X162303400Y-93066119D01*
X162530294Y-93184378D01*
X162775900Y-93256100D01*
X163537900Y-93256100D01*
X163537900Y-92214700D01*
X164020500Y-92214700D01*
X164020500Y-93256100D01*
X164782500Y-93256100D01*
X165028106Y-93184378D01*
X165255000Y-93066119D01*
X165454463Y-92905867D01*
X165618830Y-92709781D01*
X165741784Y-92485396D01*
X165747741Y-92408805D01*
X165685558Y-92257092D01*
X169744850Y-92257092D01*
X169744850Y-92615108D01*
X169814696Y-92966245D01*
X169951702Y-93297009D01*
X170150606Y-93594689D01*
X170403761Y-93847844D01*
X170701441Y-94046748D01*
X171032205Y-94183754D01*
X171383342Y-94253600D01*
X171741358Y-94253600D01*
X172092495Y-94183754D01*
X172423259Y-94046748D01*
X172720939Y-93847844D01*
X172974094Y-93594689D01*
X173172998Y-93297009D01*
X173310004Y-92966245D01*
X173379850Y-92615108D01*
X173379850Y-92257092D01*
X173310004Y-91905955D01*
X173172998Y-91575191D01*
X172974094Y-91277511D01*
X172720939Y-91024356D01*
X172423259Y-90825452D01*
X172092495Y-90688446D01*
X171741358Y-90618600D01*
X171383342Y-90618600D01*
X171032205Y-90688446D01*
X170701441Y-90825452D01*
X170403761Y-91024356D01*
X170150606Y-91277511D01*
X169951702Y-91575191D01*
X169814696Y-91905955D01*
X169744850Y-92257092D01*
X165685558Y-92257092D01*
X165668182Y-92214700D01*
X164020500Y-92214700D01*
X163537900Y-92214700D01*
X161890218Y-92214700D01*
X161810659Y-92408805D01*
X159245341Y-92408805D01*
X159165782Y-92214700D01*
X157518100Y-92214700D01*
X157035500Y-92214700D01*
X155387818Y-92214700D01*
X155308259Y-92408805D01*
X152528712Y-92408805D01*
X152496813Y-92349127D01*
X152406351Y-92238899D01*
X152378728Y-92216230D01*
X152286868Y-92124370D01*
X152264200Y-92096749D01*
X152236583Y-92074084D01*
X151700494Y-91537995D01*
X155308259Y-91537995D01*
X155387818Y-91732100D01*
X157035500Y-91732100D01*
X157035500Y-90690700D01*
X157518100Y-90690700D01*
X157518100Y-91732100D01*
X159165782Y-91732100D01*
X159245341Y-91537995D01*
X161810659Y-91537995D01*
X161890218Y-91732100D01*
X163537900Y-91732100D01*
X163537900Y-90690700D01*
X164020500Y-90690700D01*
X164020500Y-91732100D01*
X165668182Y-91732100D01*
X165747741Y-91537995D01*
X165741784Y-91461404D01*
X165618830Y-91237019D01*
X165454463Y-91040933D01*
X165255000Y-90880681D01*
X165028106Y-90762422D01*
X164782500Y-90690700D01*
X164020500Y-90690700D01*
X163537900Y-90690700D01*
X162775900Y-90690700D01*
X162530294Y-90762422D01*
X162303400Y-90880681D01*
X162103937Y-91040933D01*
X161939570Y-91237019D01*
X161816616Y-91461404D01*
X161810659Y-91537995D01*
X159245341Y-91537995D01*
X159239384Y-91461404D01*
X159116430Y-91237019D01*
X158952063Y-91040933D01*
X158752600Y-90880681D01*
X158525706Y-90762422D01*
X158280100Y-90690700D01*
X157518100Y-90690700D01*
X157035500Y-90690700D01*
X156273500Y-90690700D01*
X156027894Y-90762422D01*
X155801000Y-90880681D01*
X155601537Y-91040933D01*
X155437170Y-91237019D01*
X155314216Y-91461404D01*
X155308259Y-91537995D01*
X151700494Y-91537995D01*
X151651873Y-91489375D01*
X151629201Y-91461749D01*
X151518973Y-91371287D01*
X151393215Y-91304068D01*
X151256759Y-91262675D01*
X151150406Y-91252200D01*
X151114850Y-91248698D01*
X151079294Y-91252200D01*
X149920798Y-91252200D01*
X149868959Y-91174618D01*
X149693832Y-90999491D01*
X149487905Y-90861895D01*
X149259091Y-90767117D01*
X149016183Y-90718800D01*
X148768517Y-90718800D01*
X148525609Y-90767117D01*
X148296795Y-90861895D01*
X148090868Y-90999491D01*
X147915741Y-91174618D01*
X147778145Y-91380545D01*
X147734176Y-91486696D01*
X147665311Y-91320442D01*
X147453134Y-91216565D01*
X146693600Y-91976100D01*
X147453134Y-92735635D01*
X147665311Y-92631758D01*
X147731398Y-92458797D01*
X147778145Y-92571655D01*
X147915741Y-92777582D01*
X148090868Y-92952709D01*
X148133504Y-92981197D01*
X146687502Y-94427200D01*
X142621406Y-94427200D01*
X142585850Y-94423698D01*
X142443940Y-94437675D01*
X142307485Y-94479068D01*
X142181727Y-94546287D01*
X142071499Y-94636749D01*
X142048833Y-94664368D01*
X140341798Y-96371403D01*
X140250283Y-96353200D01*
X140002617Y-96353200D01*
X139759709Y-96401517D01*
X139530895Y-96496295D01*
X139324968Y-96633891D01*
X139149841Y-96809018D01*
X139098002Y-96886600D01*
X138142549Y-96886600D01*
X136613900Y-95357952D01*
X136613900Y-94884811D01*
X136655594Y-94850594D01*
X136790243Y-94686523D01*
X136890296Y-94499336D01*
X136951909Y-94296227D01*
X136967500Y-94137929D01*
X136967500Y-93586300D01*
X137149300Y-93586300D01*
X137149300Y-94326300D01*
X137220984Y-94571516D01*
X137339129Y-94798035D01*
X137499196Y-94997153D01*
X137695033Y-95161217D01*
X137919115Y-95283923D01*
X137994913Y-95289530D01*
X138188700Y-95209936D01*
X138188700Y-93586300D01*
X138671300Y-93586300D01*
X138671300Y-95209936D01*
X138865087Y-95289530D01*
X138940885Y-95283923D01*
X139164967Y-95161217D01*
X139360804Y-94997153D01*
X139520871Y-94798035D01*
X139639016Y-94571516D01*
X139710700Y-94326300D01*
X139710700Y-93586300D01*
X138671300Y-93586300D01*
X138188700Y-93586300D01*
X137149300Y-93586300D01*
X136967500Y-93586300D01*
X136967500Y-92552071D01*
X136951909Y-92393773D01*
X136942787Y-92363700D01*
X137149300Y-92363700D01*
X137149300Y-93103700D01*
X138188700Y-93103700D01*
X138188700Y-91480064D01*
X138671300Y-91480064D01*
X138671300Y-93103700D01*
X139710700Y-93103700D01*
X139710700Y-92552072D01*
X139892500Y-92552072D01*
X139892500Y-94137929D01*
X139908091Y-94296227D01*
X139969705Y-94499336D01*
X140069758Y-94686523D01*
X140204407Y-94850594D01*
X140368478Y-94985243D01*
X140555665Y-95085296D01*
X140758774Y-95146909D01*
X140970000Y-95167713D01*
X141181227Y-95146909D01*
X141384336Y-95085296D01*
X141571523Y-94985243D01*
X141735594Y-94850594D01*
X141870243Y-94686523D01*
X141970296Y-94499336D01*
X142031909Y-94296227D01*
X142047500Y-94137929D01*
X142047500Y-93291248D01*
X142638749Y-92700000D01*
X142783902Y-92700000D01*
X142835741Y-92777582D01*
X143010868Y-92952709D01*
X143216795Y-93090305D01*
X143445609Y-93185083D01*
X143688517Y-93233400D01*
X143936183Y-93233400D01*
X144179091Y-93185083D01*
X144407905Y-93090305D01*
X144427990Y-93076884D01*
X145592815Y-93076884D01*
X145696692Y-93289061D01*
X145965436Y-93391745D01*
X146249049Y-93440027D01*
X146536632Y-93432051D01*
X146817133Y-93368124D01*
X147008008Y-93289061D01*
X147111885Y-93076884D01*
X146352350Y-92317350D01*
X145592815Y-93076884D01*
X144427990Y-93076884D01*
X144613832Y-92952709D01*
X144788959Y-92777582D01*
X144926555Y-92571655D01*
X144970524Y-92465504D01*
X145039389Y-92631758D01*
X145251566Y-92735635D01*
X146011100Y-91976100D01*
X145251566Y-91216565D01*
X145039389Y-91320442D01*
X144973302Y-91493403D01*
X144926555Y-91380545D01*
X144788959Y-91174618D01*
X144613832Y-90999491D01*
X144427991Y-90875316D01*
X145592815Y-90875316D01*
X146352350Y-91634850D01*
X147111885Y-90875316D01*
X147008008Y-90663139D01*
X146739264Y-90560455D01*
X146455651Y-90512173D01*
X146168068Y-90520149D01*
X145887567Y-90584076D01*
X145696692Y-90663139D01*
X145592815Y-90875316D01*
X144427991Y-90875316D01*
X144407905Y-90861895D01*
X144179091Y-90767117D01*
X143936183Y-90718800D01*
X143688517Y-90718800D01*
X143445609Y-90767117D01*
X143216795Y-90861895D01*
X143010868Y-90999491D01*
X142835741Y-91174618D01*
X142783902Y-91252200D01*
X142374456Y-91252200D01*
X142338900Y-91248698D01*
X142196990Y-91262675D01*
X142060535Y-91304068D01*
X141934777Y-91371287D01*
X141824549Y-91461749D01*
X141801881Y-91489370D01*
X141579746Y-91711505D01*
X141571523Y-91704757D01*
X141384335Y-91604704D01*
X141181226Y-91543091D01*
X140970000Y-91522287D01*
X140758773Y-91543091D01*
X140555664Y-91604704D01*
X140368477Y-91704757D01*
X140204406Y-91839406D01*
X140069757Y-92003477D01*
X139969704Y-92190665D01*
X139908091Y-92393774D01*
X139892500Y-92552072D01*
X139710700Y-92552072D01*
X139710700Y-92363700D01*
X139639016Y-92118484D01*
X139520871Y-91891965D01*
X139360804Y-91692847D01*
X139164967Y-91528783D01*
X138940885Y-91406077D01*
X138865087Y-91400470D01*
X138671300Y-91480064D01*
X138188700Y-91480064D01*
X137994913Y-91400470D01*
X137919115Y-91406077D01*
X137695033Y-91528783D01*
X137499196Y-91692847D01*
X137339129Y-91891965D01*
X137220984Y-92118484D01*
X137149300Y-92363700D01*
X136942787Y-92363700D01*
X136890296Y-92190664D01*
X136790243Y-92003477D01*
X136655594Y-91839406D01*
X136491523Y-91704757D01*
X136304335Y-91604704D01*
X136101226Y-91543091D01*
X135890000Y-91522287D01*
X135678773Y-91543091D01*
X135475664Y-91604704D01*
X135288477Y-91704757D01*
X135124406Y-91839406D01*
X134989757Y-92003477D01*
X134889704Y-92190665D01*
X134828091Y-92393774D01*
X134812500Y-92552072D01*
X134379850Y-92552072D01*
X134379850Y-92257092D01*
X134310004Y-91905955D01*
X134172998Y-91575191D01*
X133974094Y-91277511D01*
X133720939Y-91024356D01*
X133423259Y-90825452D01*
X133092495Y-90688446D01*
X132741358Y-90618600D01*
X132383342Y-90618600D01*
X132032205Y-90688446D01*
X131701441Y-90825452D01*
X131403761Y-91024356D01*
X131150606Y-91277511D01*
X130951702Y-91575191D01*
X130814696Y-91905955D01*
X130744850Y-92257092D01*
X123359850Y-92257092D01*
X123359850Y-90381100D01*
X173642351Y-90381100D01*
X173642350Y-119626100D01*
G04 #@! TA.AperFunction,Conductor*
D27*
G36*
X173642350Y-119626100D02*
G01*
X123359850Y-119626100D01*
X123359850Y-117257092D01*
X130744850Y-117257092D01*
X130744850Y-117615108D01*
X130814696Y-117966245D01*
X130951702Y-118297009D01*
X131150606Y-118594689D01*
X131403761Y-118847844D01*
X131701441Y-119046748D01*
X132032205Y-119183754D01*
X132383342Y-119253600D01*
X132741358Y-119253600D01*
X133092495Y-119183754D01*
X133423259Y-119046748D01*
X133720939Y-118847844D01*
X133974094Y-118594689D01*
X134172998Y-118297009D01*
X134310004Y-117966245D01*
X134379850Y-117615108D01*
X134379850Y-117257092D01*
X134310004Y-116905955D01*
X134172998Y-116575191D01*
X133974094Y-116277511D01*
X133720939Y-116024356D01*
X133423259Y-115825452D01*
X133092495Y-115688446D01*
X132741358Y-115618600D01*
X132383342Y-115618600D01*
X132032205Y-115688446D01*
X131701441Y-115825452D01*
X131403761Y-116024356D01*
X131150606Y-116277511D01*
X130951702Y-116575191D01*
X130814696Y-116905955D01*
X130744850Y-117257092D01*
X123359850Y-117257092D01*
X123359850Y-110628955D01*
X124026850Y-110628955D01*
X124026850Y-111008245D01*
X124100846Y-111380248D01*
X124245994Y-111730666D01*
X124456716Y-112046035D01*
X124724915Y-112314234D01*
X125040284Y-112524956D01*
X125390702Y-112670104D01*
X125762705Y-112744100D01*
X126141995Y-112744100D01*
X126513998Y-112670104D01*
X126864416Y-112524956D01*
X127179785Y-112314234D01*
X127447984Y-112046035D01*
X127658706Y-111730666D01*
X127780851Y-111435783D01*
X127780851Y-112576266D01*
X127778085Y-112604350D01*
X127789119Y-112716383D01*
X127821798Y-112824111D01*
X127864341Y-112903703D01*
X127874867Y-112923395D01*
X127946284Y-113010417D01*
X127968094Y-113028316D01*
X130132039Y-115192263D01*
X130149933Y-115214067D01*
X130171737Y-115231961D01*
X130171739Y-115231963D01*
X130236955Y-115285484D01*
X130336238Y-115338552D01*
X130443966Y-115371231D01*
X130556000Y-115382265D01*
X130584074Y-115379500D01*
X135861926Y-115379500D01*
X135890000Y-115382265D01*
X135918074Y-115379500D01*
X136002034Y-115371231D01*
X136109762Y-115338552D01*
X136209045Y-115285484D01*
X136296067Y-115214067D01*
X136313970Y-115192252D01*
X137544258Y-113961965D01*
X137566067Y-113944067D01*
X137637484Y-113857045D01*
X137690552Y-113757762D01*
X137723231Y-113650034D01*
X137731500Y-113566074D01*
X137731500Y-113566073D01*
X137734265Y-113538001D01*
X137731500Y-113509929D01*
X137731500Y-110914884D01*
X139296315Y-110914884D01*
X139400192Y-111127061D01*
X139668936Y-111229745D01*
X139952549Y-111278027D01*
X140240132Y-111270051D01*
X140520633Y-111206124D01*
X140711508Y-111127061D01*
X140815385Y-110914884D01*
X140055850Y-110155350D01*
X139296315Y-110914884D01*
X137731500Y-110914884D01*
X137731500Y-109710799D01*
X138591923Y-109710799D01*
X138599899Y-109998382D01*
X138663826Y-110278883D01*
X138742889Y-110469758D01*
X138955066Y-110573635D01*
X139714600Y-109814100D01*
X140397100Y-109814100D01*
X141156634Y-110573635D01*
X141368811Y-110469758D01*
X141471495Y-110201014D01*
X141519777Y-109917401D01*
X141511801Y-109629818D01*
X141447874Y-109349317D01*
X141368811Y-109158442D01*
X141156634Y-109054565D01*
X140397100Y-109814100D01*
X139714600Y-109814100D01*
X138955066Y-109054565D01*
X138742889Y-109158442D01*
X138640205Y-109427186D01*
X138591923Y-109710799D01*
X137731500Y-109710799D01*
X137731500Y-108713316D01*
X139296315Y-108713316D01*
X140055850Y-109472850D01*
X140815385Y-108713316D01*
X140711508Y-108501139D01*
X140442764Y-108398455D01*
X140159151Y-108350173D01*
X139871568Y-108358149D01*
X139591067Y-108422076D01*
X139400192Y-108501139D01*
X139296315Y-108713316D01*
X137731500Y-108713316D01*
X137731500Y-100963047D01*
X137734265Y-100934973D01*
X137723231Y-100822939D01*
X137690552Y-100715211D01*
X137637484Y-100615928D01*
X137566067Y-100528906D01*
X137544257Y-100511007D01*
X137382049Y-100348799D01*
X138492923Y-100348799D01*
X138500899Y-100636382D01*
X138564826Y-100916883D01*
X138643889Y-101107758D01*
X138856066Y-101211635D01*
X139615600Y-100452100D01*
X140298100Y-100452100D01*
X141057634Y-101211635D01*
X141269811Y-101107758D01*
X141372495Y-100839014D01*
X141420777Y-100555401D01*
X141417571Y-100439799D01*
X142856923Y-100439799D01*
X142864899Y-100727382D01*
X142928826Y-101007883D01*
X143007889Y-101198758D01*
X143220066Y-101302635D01*
X143979600Y-100543100D01*
X144662100Y-100543100D01*
X145421634Y-101302635D01*
X145633811Y-101198758D01*
X145736495Y-100930014D01*
X145784777Y-100646401D01*
X145779047Y-100439799D01*
X146021923Y-100439799D01*
X146029899Y-100727382D01*
X146093826Y-101007883D01*
X146172889Y-101198758D01*
X146385066Y-101302635D01*
X147144600Y-100543100D01*
X147827100Y-100543100D01*
X148586634Y-101302635D01*
X148798811Y-101198758D01*
X148901495Y-100930014D01*
X148926761Y-100781594D01*
X151233656Y-100781594D01*
X151320175Y-100979574D01*
X151564797Y-101068120D01*
X151821994Y-101107243D01*
X152081880Y-101095436D01*
X152334471Y-101033155D01*
X152463825Y-100979574D01*
X152550344Y-100781594D01*
X152408639Y-100639889D01*
X155120499Y-100639889D01*
X155259063Y-100850700D01*
X156222700Y-100850700D01*
X156222700Y-99526185D01*
X156705300Y-99526185D01*
X156705300Y-100850700D01*
X157668937Y-100850700D01*
X157807501Y-100639889D01*
X157771520Y-100378786D01*
X157685291Y-100129720D01*
X157552129Y-99902262D01*
X157377151Y-99705153D01*
X157167081Y-99545968D01*
X156905454Y-99447265D01*
X156705300Y-99526185D01*
X156222700Y-99526185D01*
X156022546Y-99447265D01*
X155760919Y-99545968D01*
X155550849Y-99705153D01*
X155375871Y-99902262D01*
X155242709Y-100129720D01*
X155156480Y-100378786D01*
X155120499Y-100639889D01*
X152408639Y-100639889D01*
X151892000Y-100123250D01*
X151233656Y-100781594D01*
X148926761Y-100781594D01*
X148949777Y-100646401D01*
X148941801Y-100358818D01*
X148877874Y-100078317D01*
X148798811Y-99887442D01*
X148586634Y-99783565D01*
X147827100Y-100543100D01*
X147144600Y-100543100D01*
X146385066Y-99783565D01*
X146172889Y-99887442D01*
X146070205Y-100156186D01*
X146021923Y-100439799D01*
X145779047Y-100439799D01*
X145776801Y-100358818D01*
X145712874Y-100078317D01*
X145633811Y-99887442D01*
X145421634Y-99783565D01*
X144662100Y-100543100D01*
X143979600Y-100543100D01*
X143220066Y-99783565D01*
X143007889Y-99887442D01*
X142905205Y-100156186D01*
X142856923Y-100439799D01*
X141417571Y-100439799D01*
X141412801Y-100267818D01*
X141348874Y-99987317D01*
X141269811Y-99796442D01*
X141057634Y-99692565D01*
X140298100Y-100452100D01*
X139615600Y-100452100D01*
X138856066Y-99692565D01*
X138643889Y-99796442D01*
X138541205Y-100065186D01*
X138492923Y-100348799D01*
X137382049Y-100348799D01*
X136384566Y-99351316D01*
X139197315Y-99351316D01*
X139956850Y-100110850D01*
X140625384Y-99442316D01*
X143561315Y-99442316D01*
X144320850Y-100201850D01*
X145080385Y-99442316D01*
X146726315Y-99442316D01*
X147485850Y-100201850D01*
X147975706Y-99711994D01*
X150566757Y-99711994D01*
X150578564Y-99971880D01*
X150640845Y-100224471D01*
X150694426Y-100353825D01*
X150892406Y-100440344D01*
X151550750Y-99782000D01*
X152233250Y-99782000D01*
X152891594Y-100440344D01*
X153089574Y-100353825D01*
X153178120Y-100109203D01*
X153217243Y-99852006D01*
X153205436Y-99592120D01*
X153143155Y-99339529D01*
X153089574Y-99210175D01*
X152891594Y-99123656D01*
X152233250Y-99782000D01*
X151550750Y-99782000D01*
X150892406Y-99123656D01*
X150694426Y-99210175D01*
X150605880Y-99454797D01*
X150566757Y-99711994D01*
X147975706Y-99711994D01*
X148245385Y-99442316D01*
X148141508Y-99230139D01*
X147872764Y-99127455D01*
X147589151Y-99079173D01*
X147301568Y-99087149D01*
X147021067Y-99151076D01*
X146830192Y-99230139D01*
X146726315Y-99442316D01*
X145080385Y-99442316D01*
X144976508Y-99230139D01*
X144707764Y-99127455D01*
X144424151Y-99079173D01*
X144136568Y-99087149D01*
X143856067Y-99151076D01*
X143665192Y-99230139D01*
X143561315Y-99442316D01*
X140625384Y-99442316D01*
X140716385Y-99351316D01*
X140612508Y-99139139D01*
X140343764Y-99036455D01*
X140060151Y-98988173D01*
X139772568Y-98996149D01*
X139492067Y-99060076D01*
X139301192Y-99139139D01*
X139197315Y-99351316D01*
X136384566Y-99351316D01*
X134259497Y-97226248D01*
X134241594Y-97204433D01*
X134154572Y-97133016D01*
X134055289Y-97079948D01*
X133947561Y-97047269D01*
X133863601Y-97039000D01*
X133835527Y-97036235D01*
X133807453Y-97039000D01*
X133630619Y-97039000D01*
X133620655Y-97014945D01*
X133483059Y-96809018D01*
X133307932Y-96633891D01*
X133102005Y-96496295D01*
X132873191Y-96401517D01*
X132630283Y-96353200D01*
X132382617Y-96353200D01*
X132139709Y-96401517D01*
X131910895Y-96496295D01*
X131704968Y-96633891D01*
X131529841Y-96809018D01*
X131392245Y-97014945D01*
X131297467Y-97243759D01*
X131249150Y-97486667D01*
X131249150Y-97734333D01*
X131297467Y-97977241D01*
X131392245Y-98206055D01*
X131529841Y-98411982D01*
X131704968Y-98587109D01*
X131910895Y-98724705D01*
X132139709Y-98819483D01*
X132382617Y-98867800D01*
X132630283Y-98867800D01*
X132873191Y-98819483D01*
X133102005Y-98724705D01*
X133307932Y-98587109D01*
X133483059Y-98411982D01*
X133620655Y-98206055D01*
X133621301Y-98204496D01*
X136588501Y-101171697D01*
X136588500Y-113301277D01*
X135653278Y-114236500D01*
X130792724Y-114236500D01*
X128923850Y-112367628D01*
X128923850Y-109642769D01*
X128947905Y-109632805D01*
X129153832Y-109495209D01*
X129279550Y-109369491D01*
X129279549Y-111354125D01*
X129276784Y-111382199D01*
X129279549Y-111410272D01*
X129287818Y-111494232D01*
X129320497Y-111601960D01*
X129373565Y-111701243D01*
X129444982Y-111788266D01*
X129466797Y-111806169D01*
X130045831Y-112385204D01*
X130035867Y-112409259D01*
X129987550Y-112652167D01*
X129987550Y-112899833D01*
X130035867Y-113142741D01*
X130130645Y-113371555D01*
X130268241Y-113577482D01*
X130443368Y-113752609D01*
X130649295Y-113890205D01*
X130878109Y-113984983D01*
X131121017Y-114033300D01*
X131368683Y-114033300D01*
X131611591Y-113984983D01*
X131840405Y-113890205D01*
X132046332Y-113752609D01*
X132221459Y-113577482D01*
X132359055Y-113371555D01*
X132369019Y-113347500D01*
X132545853Y-113347500D01*
X132573927Y-113350265D01*
X132602001Y-113347500D01*
X132685961Y-113339231D01*
X132793689Y-113306552D01*
X132892972Y-113253484D01*
X132979994Y-113182067D01*
X132997897Y-113160252D01*
X135004257Y-111153893D01*
X135026067Y-111135994D01*
X135097484Y-111048972D01*
X135150552Y-110949689D01*
X135183231Y-110841961D01*
X135191500Y-110758001D01*
X135191500Y-110758000D01*
X135194265Y-110729928D01*
X135191500Y-110701856D01*
X135191500Y-106064747D01*
X135194265Y-106036673D01*
X135183231Y-105924640D01*
X135182230Y-105921338D01*
X135150552Y-105816911D01*
X135097484Y-105717628D01*
X135026067Y-105630606D01*
X135004258Y-105612708D01*
X132935397Y-103543848D01*
X132917494Y-103522033D01*
X132830472Y-103450616D01*
X132731189Y-103397548D01*
X132623461Y-103364869D01*
X132560049Y-103358624D01*
X132721107Y-103197566D01*
X132742917Y-103179667D01*
X132814334Y-103092645D01*
X132867402Y-102993362D01*
X132900081Y-102885634D01*
X132908350Y-102801674D01*
X132911115Y-102773600D01*
X132908350Y-102745526D01*
X132908350Y-101576269D01*
X132932405Y-101566305D01*
X133138332Y-101428709D01*
X133313459Y-101253582D01*
X133451055Y-101047655D01*
X133545833Y-100818841D01*
X133594150Y-100575933D01*
X133594150Y-100328267D01*
X133545833Y-100085359D01*
X133451055Y-99856545D01*
X133313459Y-99650618D01*
X133138332Y-99475491D01*
X132932405Y-99337895D01*
X132703591Y-99243117D01*
X132460683Y-99194800D01*
X132213017Y-99194800D01*
X131970109Y-99243117D01*
X131741295Y-99337895D01*
X131535368Y-99475491D01*
X131360241Y-99650618D01*
X131222645Y-99856545D01*
X131127867Y-100085359D01*
X131079550Y-100328267D01*
X131079550Y-100575933D01*
X131127867Y-100818841D01*
X131222645Y-101047655D01*
X131360241Y-101253582D01*
X131535368Y-101428709D01*
X131741295Y-101566305D01*
X131765350Y-101576269D01*
X131765351Y-102536876D01*
X131573146Y-102729081D01*
X131549091Y-102719117D01*
X131306183Y-102670800D01*
X131058517Y-102670800D01*
X130815609Y-102719117D01*
X130586795Y-102813895D01*
X130380868Y-102951491D01*
X130205741Y-103126618D01*
X130068145Y-103332545D01*
X129973367Y-103561359D01*
X129925050Y-103804267D01*
X129925050Y-104051933D01*
X129967980Y-104267757D01*
X129609650Y-103909428D01*
X129609650Y-103767767D01*
X129561333Y-103524859D01*
X129466555Y-103296045D01*
X129328959Y-103090118D01*
X129153832Y-102914991D01*
X129013175Y-102821007D01*
X129111885Y-102619384D01*
X128352350Y-101859850D01*
X127592815Y-102619384D01*
X127691525Y-102821007D01*
X127550868Y-102914991D01*
X127375741Y-103090118D01*
X127238145Y-103296045D01*
X127143367Y-103524859D01*
X127095050Y-103767767D01*
X127095050Y-104015433D01*
X127143367Y-104258341D01*
X127238145Y-104487155D01*
X127375741Y-104693082D01*
X127550868Y-104868209D01*
X127756795Y-105005805D01*
X127787685Y-105018600D01*
X127756795Y-105031395D01*
X127550868Y-105168991D01*
X127375741Y-105344118D01*
X127238145Y-105550045D01*
X127143367Y-105778859D01*
X127095050Y-106021767D01*
X127095050Y-106269433D01*
X127143367Y-106512341D01*
X127238145Y-106741155D01*
X127375741Y-106947082D01*
X127550868Y-107122209D01*
X127756795Y-107259805D01*
X127931330Y-107332100D01*
X127756795Y-107404395D01*
X127550868Y-107541991D01*
X127375741Y-107717118D01*
X127238145Y-107923045D01*
X127143367Y-108151859D01*
X127095050Y-108394767D01*
X127095050Y-108642433D01*
X127143367Y-108885341D01*
X127238145Y-109114155D01*
X127375741Y-109320082D01*
X127550868Y-109495209D01*
X127756795Y-109632805D01*
X127780850Y-109642769D01*
X127780850Y-110201416D01*
X127658706Y-109906534D01*
X127447984Y-109591165D01*
X127179785Y-109322966D01*
X126864416Y-109112244D01*
X126513998Y-108967096D01*
X126141995Y-108893100D01*
X125762705Y-108893100D01*
X125390702Y-108967096D01*
X125040284Y-109112244D01*
X124724915Y-109322966D01*
X124456716Y-109591165D01*
X124245994Y-109906534D01*
X124100846Y-110256952D01*
X124026850Y-110628955D01*
X123359850Y-110628955D01*
X123359850Y-107183159D01*
X124984850Y-107183159D01*
X124984850Y-107354041D01*
X125018188Y-107521640D01*
X125083582Y-107679515D01*
X125178519Y-107821599D01*
X125299351Y-107942431D01*
X125441435Y-108037368D01*
X125599310Y-108102762D01*
X125766909Y-108136100D01*
X125937791Y-108136100D01*
X126105390Y-108102762D01*
X126263265Y-108037368D01*
X126405349Y-107942431D01*
X126526181Y-107821599D01*
X126621118Y-107679515D01*
X126686512Y-107521640D01*
X126719850Y-107354041D01*
X126719850Y-107183159D01*
X126686512Y-107015560D01*
X126621118Y-106857685D01*
X126526181Y-106715601D01*
X126405349Y-106594769D01*
X126263265Y-106499832D01*
X126105390Y-106434438D01*
X125937791Y-106401100D01*
X125766909Y-106401100D01*
X125599310Y-106434438D01*
X125441435Y-106499832D01*
X125299351Y-106594769D01*
X125178519Y-106715601D01*
X125083582Y-106857685D01*
X125018188Y-107015560D01*
X124984850Y-107183159D01*
X123359850Y-107183159D01*
X123359850Y-102683159D01*
X124984850Y-102683159D01*
X124984850Y-102854041D01*
X125018188Y-103021640D01*
X125083582Y-103179515D01*
X125178519Y-103321599D01*
X125299351Y-103442431D01*
X125441435Y-103537368D01*
X125599310Y-103602762D01*
X125766909Y-103636100D01*
X125937791Y-103636100D01*
X126105390Y-103602762D01*
X126263265Y-103537368D01*
X126405349Y-103442431D01*
X126526181Y-103321599D01*
X126621118Y-103179515D01*
X126686512Y-103021640D01*
X126719850Y-102854041D01*
X126719850Y-102683159D01*
X126686512Y-102515560D01*
X126621118Y-102357685D01*
X126526181Y-102215601D01*
X126405349Y-102094769D01*
X126263265Y-101999832D01*
X126105390Y-101934438D01*
X125937791Y-101901100D01*
X125766909Y-101901100D01*
X125599310Y-101934438D01*
X125441435Y-101999832D01*
X125299351Y-102094769D01*
X125178519Y-102215601D01*
X125083582Y-102357685D01*
X125018188Y-102515560D01*
X124984850Y-102683159D01*
X123359850Y-102683159D01*
X123359850Y-99028955D01*
X124026850Y-99028955D01*
X124026850Y-99408245D01*
X124100846Y-99780248D01*
X124245994Y-100130666D01*
X124456716Y-100446035D01*
X124724915Y-100714234D01*
X125040284Y-100924956D01*
X125390702Y-101070104D01*
X125762705Y-101144100D01*
X126141995Y-101144100D01*
X126513998Y-101070104D01*
X126864416Y-100924956D01*
X127179785Y-100714234D01*
X127193258Y-100700761D01*
X127251563Y-100759066D01*
X127039389Y-100862942D01*
X126936705Y-101131686D01*
X126888423Y-101415299D01*
X126896399Y-101702882D01*
X126960326Y-101983383D01*
X127039389Y-102174258D01*
X127251566Y-102278135D01*
X128011100Y-101518600D01*
X128693600Y-101518600D01*
X129453134Y-102278135D01*
X129665311Y-102174258D01*
X129767995Y-101905514D01*
X129816277Y-101621901D01*
X129808301Y-101334318D01*
X129744374Y-101053817D01*
X129665311Y-100862942D01*
X129453134Y-100759065D01*
X128693600Y-101518600D01*
X128011100Y-101518600D01*
X127996958Y-101504458D01*
X128338208Y-101163208D01*
X128352350Y-101177350D01*
X129111885Y-100417816D01*
X129008008Y-100205639D01*
X128739264Y-100102955D01*
X128455651Y-100054673D01*
X128168068Y-100062649D01*
X127887567Y-100126576D01*
X127696692Y-100205639D01*
X127592816Y-100417813D01*
X127517300Y-100342297D01*
X127658706Y-100130666D01*
X127803854Y-99780248D01*
X127877850Y-99408245D01*
X127877850Y-99028955D01*
X127803854Y-98656952D01*
X127658706Y-98306534D01*
X127447984Y-97991165D01*
X127179785Y-97722966D01*
X126864416Y-97512244D01*
X126513998Y-97367096D01*
X126141995Y-97293100D01*
X125762705Y-97293100D01*
X125390702Y-97367096D01*
X125040284Y-97512244D01*
X124724915Y-97722966D01*
X124456716Y-97991165D01*
X124245994Y-98306534D01*
X124100846Y-98656952D01*
X124026850Y-99028955D01*
X123359850Y-99028955D01*
X123359850Y-92257092D01*
X130744850Y-92257092D01*
X130744850Y-92615108D01*
X130814696Y-92966245D01*
X130951702Y-93297009D01*
X131150606Y-93594689D01*
X131403761Y-93847844D01*
X131701441Y-94046748D01*
X132032205Y-94183754D01*
X132383342Y-94253600D01*
X132741358Y-94253600D01*
X133092495Y-94183754D01*
X133423259Y-94046748D01*
X133720939Y-93847844D01*
X133974094Y-93594689D01*
X134172998Y-93297009D01*
X134310004Y-92966245D01*
X134379850Y-92615108D01*
X134379850Y-92552072D01*
X134812500Y-92552072D01*
X134812500Y-94137929D01*
X134828091Y-94296227D01*
X134889705Y-94499336D01*
X134989758Y-94686523D01*
X135124407Y-94850594D01*
X135166101Y-94884811D01*
X135166101Y-95622234D01*
X135162598Y-95657800D01*
X135176575Y-95799709D01*
X135217968Y-95936164D01*
X135217969Y-95936165D01*
X135285188Y-96061923D01*
X135375650Y-96172151D01*
X135403271Y-96194819D01*
X137305681Y-98097230D01*
X137328349Y-98124851D01*
X137438577Y-98215313D01*
X137517599Y-98257551D01*
X137564335Y-98282532D01*
X137700790Y-98323925D01*
X137842700Y-98337902D01*
X137878256Y-98334400D01*
X139098002Y-98334400D01*
X139149841Y-98411982D01*
X139324968Y-98587109D01*
X139530895Y-98724705D01*
X139759709Y-98819483D01*
X140002617Y-98867800D01*
X140250283Y-98867800D01*
X140493191Y-98819483D01*
X140722005Y-98724705D01*
X140927932Y-98587109D01*
X141103059Y-98411982D01*
X141119818Y-98386900D01*
X143153887Y-98386900D01*
X143247309Y-98526716D01*
X143408284Y-98687691D01*
X143597571Y-98814168D01*
X143807895Y-98901287D01*
X144031173Y-98945700D01*
X144258827Y-98945700D01*
X144482105Y-98901287D01*
X144684899Y-98817287D01*
X145998963Y-98817287D01*
X146090241Y-99019140D01*
X146341463Y-99111554D01*
X146605886Y-99153182D01*
X146873350Y-99142423D01*
X147133575Y-99079691D01*
X147279759Y-99019140D01*
X147371037Y-98817287D01*
X147336156Y-98782406D01*
X151233656Y-98782406D01*
X151892000Y-99440750D01*
X152550344Y-98782406D01*
X152463825Y-98584426D01*
X152219203Y-98495880D01*
X151962006Y-98456757D01*
X151702120Y-98468564D01*
X151449529Y-98530845D01*
X151320175Y-98584426D01*
X151233656Y-98782406D01*
X147336156Y-98782406D01*
X146685000Y-98131250D01*
X145998963Y-98817287D01*
X144684899Y-98817287D01*
X144692429Y-98814168D01*
X144881716Y-98687691D01*
X145042691Y-98526716D01*
X145169168Y-98337429D01*
X145256287Y-98127105D01*
X145300700Y-97903827D01*
X145300700Y-97710886D01*
X145321818Y-97710886D01*
X145332577Y-97978350D01*
X145395309Y-98238575D01*
X145455860Y-98384759D01*
X145657713Y-98476037D01*
X146343750Y-97790000D01*
X147026250Y-97790000D01*
X147712287Y-98476037D01*
X147914140Y-98384759D01*
X148006554Y-98133537D01*
X148048182Y-97869114D01*
X148037423Y-97601650D01*
X147974691Y-97341425D01*
X147914140Y-97195241D01*
X147712287Y-97103963D01*
X147026250Y-97790000D01*
X146343750Y-97790000D01*
X145657713Y-97103963D01*
X145455860Y-97195241D01*
X145363446Y-97446463D01*
X145321818Y-97710886D01*
X145300700Y-97710886D01*
X145300700Y-97676173D01*
X145256287Y-97452895D01*
X145169168Y-97242571D01*
X145042691Y-97053284D01*
X144881716Y-96892309D01*
X144692429Y-96765832D01*
X144684900Y-96762713D01*
X145998963Y-96762713D01*
X146685000Y-97448750D01*
X147371037Y-96762713D01*
X147279759Y-96560860D01*
X147028537Y-96468446D01*
X146764114Y-96426818D01*
X146496650Y-96437577D01*
X146236425Y-96500309D01*
X146090241Y-96560860D01*
X145998963Y-96762713D01*
X144684900Y-96762713D01*
X144482105Y-96678713D01*
X144258827Y-96634300D01*
X144031173Y-96634300D01*
X143807895Y-96678713D01*
X143597571Y-96765832D01*
X143408284Y-96892309D01*
X143361493Y-96939100D01*
X141821598Y-96939100D01*
X142885699Y-95875000D01*
X146951794Y-95875000D01*
X146987350Y-95878502D01*
X147129259Y-95864525D01*
X147213447Y-95838987D01*
X147265715Y-95823132D01*
X147391473Y-95755913D01*
X147501701Y-95665451D01*
X147524374Y-95637824D01*
X149379080Y-93783119D01*
X149406701Y-93760451D01*
X149497163Y-93650223D01*
X149564382Y-93524465D01*
X149605775Y-93388009D01*
X149616250Y-93281656D01*
X149619752Y-93246100D01*
X149616250Y-93210544D01*
X149616250Y-93004548D01*
X149693832Y-92952709D01*
X149868959Y-92777582D01*
X149920798Y-92700000D01*
X150815002Y-92700000D01*
X151025950Y-92910949D01*
X151025951Y-96170249D01*
X150969910Y-96187249D01*
X150914753Y-96216731D01*
X150866407Y-96256407D01*
X150826731Y-96304753D01*
X150797249Y-96359910D01*
X150779094Y-96419759D01*
X150772964Y-96482000D01*
X150772964Y-98082000D01*
X150779094Y-98144241D01*
X150797249Y-98204090D01*
X150826731Y-98259247D01*
X150866407Y-98307593D01*
X150914753Y-98347269D01*
X150969910Y-98376751D01*
X151029759Y-98394906D01*
X151092000Y-98401036D01*
X152692000Y-98401036D01*
X152754241Y-98394906D01*
X152814090Y-98376751D01*
X152869247Y-98347269D01*
X152917593Y-98307593D01*
X152957269Y-98259247D01*
X152986751Y-98204090D01*
X153004906Y-98144241D01*
X153011036Y-98082000D01*
X153011036Y-97853500D01*
X153171926Y-97853500D01*
X153200000Y-97856265D01*
X153228074Y-97853500D01*
X153312034Y-97845231D01*
X153419762Y-97812552D01*
X153519045Y-97759484D01*
X153606067Y-97688067D01*
X153623970Y-97666252D01*
X154084858Y-97205365D01*
X154106667Y-97187467D01*
X154178084Y-97100445D01*
X154231152Y-97001162D01*
X154263831Y-96893434D01*
X154272100Y-96809474D01*
X154272100Y-96809473D01*
X154274865Y-96781401D01*
X154272100Y-96753329D01*
X154272100Y-96494600D01*
X155430077Y-96494600D01*
X155450920Y-96706219D01*
X155512647Y-96909706D01*
X155612886Y-97097240D01*
X155747785Y-97261615D01*
X155912160Y-97396514D01*
X156099694Y-97496753D01*
X156303181Y-97558480D01*
X156461771Y-97574100D01*
X158091829Y-97574100D01*
X158250419Y-97558480D01*
X158453906Y-97496753D01*
X158641440Y-97396514D01*
X158805815Y-97261615D01*
X158940714Y-97097240D01*
X159040953Y-96909706D01*
X159102680Y-96706219D01*
X159123523Y-96494600D01*
X159102680Y-96282981D01*
X159040953Y-96079494D01*
X158940714Y-95891960D01*
X158805815Y-95727585D01*
X158641440Y-95592686D01*
X158453906Y-95492447D01*
X158250419Y-95430720D01*
X158091829Y-95415100D01*
X156461771Y-95415100D01*
X156303181Y-95430720D01*
X156099694Y-95492447D01*
X155912160Y-95592686D01*
X155747785Y-95727585D01*
X155612886Y-95891960D01*
X155512647Y-96079494D01*
X155450920Y-96282981D01*
X155430077Y-96494600D01*
X154272100Y-96494600D01*
X154272100Y-95437322D01*
X154567344Y-95142079D01*
X160589699Y-95142079D01*
X160125851Y-95605927D01*
X160104036Y-95623830D01*
X160041563Y-95699955D01*
X160032619Y-95710853D01*
X159979551Y-95810136D01*
X159946872Y-95917864D01*
X159935838Y-96029897D01*
X159938603Y-96057972D01*
X159938604Y-97045276D01*
X158619748Y-98364133D01*
X158597933Y-98382036D01*
X158526922Y-98468564D01*
X158526516Y-98469059D01*
X158473448Y-98568342D01*
X158440769Y-98676070D01*
X158429735Y-98788103D01*
X158432500Y-98816177D01*
X158432500Y-99730354D01*
X158380147Y-99758337D01*
X158209986Y-99897985D01*
X158070338Y-100068146D01*
X157966570Y-100262282D01*
X157902669Y-100472932D01*
X157886500Y-100637101D01*
X157886500Y-101546898D01*
X157902669Y-101711067D01*
X157966569Y-101921717D01*
X158070337Y-102115854D01*
X158209985Y-102286015D01*
X158342450Y-102394727D01*
X158342450Y-102469327D01*
X157878278Y-102933500D01*
X155176723Y-102933500D01*
X154381671Y-102138449D01*
X154363768Y-102116634D01*
X154276746Y-102045217D01*
X154177463Y-101992149D01*
X154069735Y-101959470D01*
X153985775Y-101951201D01*
X153957701Y-101948436D01*
X153929627Y-101951201D01*
X147880090Y-101951201D01*
X147950633Y-101935124D01*
X148141508Y-101856061D01*
X148245385Y-101643884D01*
X148145612Y-101544111D01*
X155120499Y-101544111D01*
X155156480Y-101805214D01*
X155242709Y-102054280D01*
X155375871Y-102281738D01*
X155550849Y-102478847D01*
X155760919Y-102638032D01*
X156022546Y-102736735D01*
X156222700Y-102657815D01*
X156222700Y-101333300D01*
X156705300Y-101333300D01*
X156705300Y-102657815D01*
X156905454Y-102736735D01*
X157167081Y-102638032D01*
X157377151Y-102478847D01*
X157552129Y-102281738D01*
X157685291Y-102054280D01*
X157771520Y-101805214D01*
X157807501Y-101544111D01*
X157668937Y-101333300D01*
X156705300Y-101333300D01*
X156222700Y-101333300D01*
X155259063Y-101333300D01*
X155120499Y-101544111D01*
X148145612Y-101544111D01*
X147485850Y-100884350D01*
X146726315Y-101643884D01*
X146830192Y-101856061D01*
X147098936Y-101958745D01*
X147382549Y-102007027D01*
X147421736Y-102005940D01*
X147348254Y-102045217D01*
X147261232Y-102116634D01*
X147243329Y-102138449D01*
X147083278Y-102298500D01*
X143111723Y-102298500D01*
X142663970Y-101850748D01*
X142646067Y-101828933D01*
X142559045Y-101757516D01*
X142459762Y-101704448D01*
X142352034Y-101671769D01*
X142268074Y-101663500D01*
X142240000Y-101660735D01*
X142211926Y-101663500D01*
X140662230Y-101663500D01*
X140671833Y-101643884D01*
X143561315Y-101643884D01*
X143665192Y-101856061D01*
X143933936Y-101958745D01*
X144217549Y-102007027D01*
X144505132Y-101999051D01*
X144785633Y-101935124D01*
X144976508Y-101856061D01*
X145080385Y-101643884D01*
X144320850Y-100884350D01*
X143561315Y-101643884D01*
X140671833Y-101643884D01*
X140716385Y-101552884D01*
X139956850Y-100793350D01*
X139197315Y-101552884D01*
X139301192Y-101765061D01*
X139349343Y-101783459D01*
X139293933Y-101828933D01*
X139276034Y-101850743D01*
X138680744Y-102446034D01*
X138658934Y-102463933D01*
X138605181Y-102529431D01*
X138587516Y-102550956D01*
X138534448Y-102650239D01*
X138501769Y-102757967D01*
X138490735Y-102870000D01*
X138493501Y-102898084D01*
X138493500Y-105854253D01*
X138490735Y-105882327D01*
X138496469Y-105940551D01*
X138501769Y-105994360D01*
X138534448Y-106102088D01*
X138587516Y-106201371D01*
X138658933Y-106288394D01*
X138680748Y-106306297D01*
X139651807Y-107277357D01*
X139669706Y-107299167D01*
X139744136Y-107360250D01*
X139756728Y-107370584D01*
X139856011Y-107423652D01*
X139963739Y-107456331D01*
X140075773Y-107467365D01*
X140103847Y-107464600D01*
X140280681Y-107464600D01*
X140290645Y-107488655D01*
X140428241Y-107694582D01*
X140603368Y-107869709D01*
X140809295Y-108007305D01*
X141038109Y-108102083D01*
X141281017Y-108150400D01*
X141528683Y-108150400D01*
X141771591Y-108102083D01*
X142000405Y-108007305D01*
X142206332Y-107869709D01*
X142381459Y-107694582D01*
X142519055Y-107488655D01*
X142613833Y-107259841D01*
X142662150Y-107016933D01*
X142662150Y-106769267D01*
X142613833Y-106526359D01*
X142519055Y-106297545D01*
X142381459Y-106091618D01*
X142206332Y-105916491D01*
X142000405Y-105778895D01*
X141771591Y-105684117D01*
X141528683Y-105635800D01*
X141281017Y-105635800D01*
X141038109Y-105684117D01*
X140809295Y-105778895D01*
X140603368Y-105916491D01*
X140428241Y-106091618D01*
X140290645Y-106297545D01*
X140289999Y-106299104D01*
X139636500Y-105645605D01*
X139636500Y-103106722D01*
X139936723Y-102806500D01*
X140764648Y-102806500D01*
X140746795Y-102813895D01*
X140540868Y-102951491D01*
X140365741Y-103126618D01*
X140228145Y-103332545D01*
X140133367Y-103561359D01*
X140085050Y-103804267D01*
X140085050Y-104051933D01*
X140133367Y-104294841D01*
X140228145Y-104523655D01*
X140365741Y-104729582D01*
X140540868Y-104904709D01*
X140746795Y-105042305D01*
X140975609Y-105137083D01*
X141218517Y-105185400D01*
X141466183Y-105185400D01*
X141709091Y-105137083D01*
X141937905Y-105042305D01*
X142143832Y-104904709D01*
X142318959Y-104729582D01*
X142456555Y-104523655D01*
X142466519Y-104499600D01*
X147503826Y-104499600D01*
X147531900Y-104502365D01*
X147559974Y-104499600D01*
X147643934Y-104491331D01*
X147751662Y-104458652D01*
X147850945Y-104405584D01*
X147937967Y-104334167D01*
X147955870Y-104312352D01*
X148318723Y-103949500D01*
X153179278Y-103949500D01*
X154008034Y-104778257D01*
X154025933Y-104800067D01*
X154082840Y-104846769D01*
X154112955Y-104871484D01*
X154212238Y-104924552D01*
X154319966Y-104957231D01*
X154432000Y-104968265D01*
X154460074Y-104965500D01*
X160576376Y-104965500D01*
X160604450Y-104968265D01*
X160632524Y-104965500D01*
X160716484Y-104957231D01*
X160824212Y-104924552D01*
X160923495Y-104871484D01*
X161010517Y-104800067D01*
X161028420Y-104778252D01*
X161453950Y-104352722D01*
X162641484Y-105540257D01*
X162659383Y-105562067D01*
X162746405Y-105633484D01*
X162845688Y-105686552D01*
X162953416Y-105719231D01*
X163037376Y-105727500D01*
X163037377Y-105727500D01*
X163065449Y-105730265D01*
X163093521Y-105727500D01*
X166328951Y-105727500D01*
X167126807Y-106525357D01*
X167144706Y-106547167D01*
X167218728Y-106607915D01*
X167231728Y-106618584D01*
X167331011Y-106671652D01*
X167438739Y-106704331D01*
X167550773Y-106715365D01*
X167578847Y-106712600D01*
X167755681Y-106712600D01*
X167765645Y-106736655D01*
X167903241Y-106942582D01*
X168078368Y-107117709D01*
X168284295Y-107255305D01*
X168513109Y-107350083D01*
X168756017Y-107398400D01*
X169003683Y-107398400D01*
X169246591Y-107350083D01*
X169475405Y-107255305D01*
X169681332Y-107117709D01*
X169856459Y-106942582D01*
X169994055Y-106736655D01*
X170088833Y-106507841D01*
X170137150Y-106264933D01*
X170137150Y-106017267D01*
X170088833Y-105774359D01*
X169994055Y-105545545D01*
X169856459Y-105339618D01*
X169681332Y-105164491D01*
X169475405Y-105026895D01*
X169246591Y-104932117D01*
X169003683Y-104883800D01*
X168756017Y-104883800D01*
X168513109Y-104932117D01*
X168284295Y-105026895D01*
X168078368Y-105164491D01*
X167903241Y-105339618D01*
X167765645Y-105545545D01*
X167764999Y-105547104D01*
X166989643Y-104771748D01*
X166971740Y-104749933D01*
X166884718Y-104678516D01*
X166785435Y-104625448D01*
X166677707Y-104592769D01*
X166593747Y-104584500D01*
X166565673Y-104581735D01*
X166537599Y-104584500D01*
X163302173Y-104584500D01*
X162025450Y-103307778D01*
X162025450Y-102501779D01*
X162167854Y-102425663D01*
X162338015Y-102286015D01*
X162477663Y-102115854D01*
X162581431Y-101921718D01*
X162645331Y-101711068D01*
X162661500Y-101546899D01*
X162661500Y-100637102D01*
X162645331Y-100472933D01*
X162581431Y-100262282D01*
X162477663Y-100068146D01*
X162338015Y-99897985D01*
X162167854Y-99758337D01*
X161973718Y-99654569D01*
X161763068Y-99590669D01*
X161544000Y-99569093D01*
X161324933Y-99590669D01*
X161114283Y-99654569D01*
X160920147Y-99758337D01*
X160749986Y-99897985D01*
X160610338Y-100068146D01*
X160506570Y-100262282D01*
X160442669Y-100472932D01*
X160426500Y-100637101D01*
X160426500Y-101546898D01*
X160442669Y-101711067D01*
X160506569Y-101921717D01*
X160610337Y-102115854D01*
X160749985Y-102286015D01*
X160882451Y-102394727D01*
X160882451Y-103307776D01*
X160367728Y-103822500D01*
X158605722Y-103822500D01*
X159298208Y-103130015D01*
X159320017Y-103112117D01*
X159391434Y-103025095D01*
X159444502Y-102925812D01*
X159477181Y-102818084D01*
X159485450Y-102734124D01*
X159485450Y-102734123D01*
X159488215Y-102706050D01*
X159485450Y-102677976D01*
X159485450Y-102501779D01*
X159627854Y-102425663D01*
X159798015Y-102286015D01*
X159937663Y-102115854D01*
X160041431Y-101921718D01*
X160105331Y-101711068D01*
X160121500Y-101546899D01*
X160121500Y-100637102D01*
X160105331Y-100472933D01*
X160041431Y-100262282D01*
X159937663Y-100068146D01*
X159798015Y-99897985D01*
X159627854Y-99758337D01*
X159575500Y-99730353D01*
X159575500Y-99024825D01*
X160894360Y-97705966D01*
X160916170Y-97688067D01*
X160987587Y-97601045D01*
X161040655Y-97501762D01*
X161073334Y-97394034D01*
X161081603Y-97310074D01*
X161081603Y-97310073D01*
X161084368Y-97282001D01*
X161081603Y-97253929D01*
X161081603Y-96266619D01*
X161780723Y-95567500D01*
X162461680Y-95567500D01*
X162414560Y-95592686D01*
X162250185Y-95727585D01*
X162115286Y-95891960D01*
X162015047Y-96079494D01*
X161953320Y-96282981D01*
X161932477Y-96494600D01*
X161953320Y-96706219D01*
X162015047Y-96909706D01*
X162115286Y-97097240D01*
X162250185Y-97261615D01*
X162414560Y-97396514D01*
X162602094Y-97496753D01*
X162805581Y-97558480D01*
X162964171Y-97574100D01*
X163207700Y-97574100D01*
X163207701Y-99583359D01*
X163161910Y-99597249D01*
X163106753Y-99626731D01*
X163058407Y-99666407D01*
X163018731Y-99714753D01*
X162989249Y-99769910D01*
X162971094Y-99829759D01*
X162964964Y-99892000D01*
X162964964Y-102292000D01*
X162971094Y-102354241D01*
X162989249Y-102414090D01*
X163018731Y-102469247D01*
X163058407Y-102517593D01*
X163106753Y-102557269D01*
X163161910Y-102586751D01*
X163221759Y-102604906D01*
X163284000Y-102611036D01*
X163585653Y-102611036D01*
X163618000Y-102650451D01*
X163645621Y-102673119D01*
X165182831Y-104210330D01*
X165205499Y-104237951D01*
X165315727Y-104328413D01*
X165438432Y-104394000D01*
X165441485Y-104395632D01*
X165577940Y-104437025D01*
X165719849Y-104451002D01*
X165755405Y-104447500D01*
X167948159Y-104447500D01*
X168078368Y-104577709D01*
X168284295Y-104715305D01*
X168513109Y-104810083D01*
X168756017Y-104858400D01*
X169003683Y-104858400D01*
X169246591Y-104810083D01*
X169475405Y-104715305D01*
X169681332Y-104577709D01*
X169856459Y-104402582D01*
X169994055Y-104196655D01*
X170088833Y-103967841D01*
X170137150Y-103724933D01*
X170137150Y-103477267D01*
X170088833Y-103234359D01*
X169994055Y-103005545D01*
X169856459Y-102799618D01*
X169681332Y-102624491D01*
X169475405Y-102486895D01*
X169246591Y-102392117D01*
X169003683Y-102343800D01*
X168756017Y-102343800D01*
X168513109Y-102392117D01*
X168284295Y-102486895D01*
X168078368Y-102624491D01*
X167903241Y-102799618D01*
X167769551Y-102999700D01*
X166019699Y-102999700D01*
X165203036Y-102183038D01*
X165203036Y-99892000D01*
X165196906Y-99829759D01*
X165178751Y-99769910D01*
X165149269Y-99714753D01*
X165109593Y-99666407D01*
X165061247Y-99626731D01*
X165006090Y-99597249D01*
X164946241Y-99579094D01*
X164884000Y-99572964D01*
X164350700Y-99572964D01*
X164350700Y-97574100D01*
X164594229Y-97574100D01*
X164752819Y-97558480D01*
X164956306Y-97496753D01*
X165143840Y-97396514D01*
X165308215Y-97261615D01*
X165443114Y-97097240D01*
X165543353Y-96909706D01*
X165598490Y-96727945D01*
X165598489Y-98323165D01*
X165595724Y-98351239D01*
X165605415Y-98449635D01*
X165606758Y-98463272D01*
X165639437Y-98571000D01*
X165692505Y-98670283D01*
X165763922Y-98757306D01*
X165785737Y-98775209D01*
X167680831Y-100670304D01*
X167670867Y-100694359D01*
X167622550Y-100937267D01*
X167622550Y-101184933D01*
X167670867Y-101427841D01*
X167765645Y-101656655D01*
X167903241Y-101862582D01*
X168078368Y-102037709D01*
X168284295Y-102175305D01*
X168513109Y-102270083D01*
X168756017Y-102318400D01*
X169003683Y-102318400D01*
X169246591Y-102270083D01*
X169475405Y-102175305D01*
X169681332Y-102037709D01*
X169856459Y-101862582D01*
X169994055Y-101656655D01*
X170088833Y-101427841D01*
X170137150Y-101184933D01*
X170137150Y-100937267D01*
X170088833Y-100694359D01*
X169994055Y-100465545D01*
X169856459Y-100259618D01*
X169681332Y-100084491D01*
X169475405Y-99946895D01*
X169246591Y-99852117D01*
X169003683Y-99803800D01*
X168756017Y-99803800D01*
X168513109Y-99852117D01*
X168489054Y-99862081D01*
X168217942Y-99590969D01*
X168284295Y-99635305D01*
X168513109Y-99730083D01*
X168756017Y-99778400D01*
X169003683Y-99778400D01*
X169246591Y-99730083D01*
X169475405Y-99635305D01*
X169681332Y-99497709D01*
X169856459Y-99322582D01*
X169994055Y-99116655D01*
X170004019Y-99092600D01*
X170420378Y-99092600D01*
X170863350Y-99535573D01*
X170863351Y-113329376D01*
X170094779Y-114097948D01*
X170137150Y-113884933D01*
X170137150Y-113637267D01*
X170088833Y-113394359D01*
X169994055Y-113165545D01*
X169856459Y-112959618D01*
X169681332Y-112784491D01*
X169475405Y-112646895D01*
X169246591Y-112552117D01*
X169003683Y-112503800D01*
X168756017Y-112503800D01*
X168513109Y-112552117D01*
X168284295Y-112646895D01*
X168078368Y-112784491D01*
X167927259Y-112935600D01*
X167043383Y-112935600D01*
X167148534Y-112903703D01*
X167291942Y-112827049D01*
X167417641Y-112723891D01*
X167443498Y-112692384D01*
X168008271Y-112127612D01*
X168078368Y-112197709D01*
X168284295Y-112335305D01*
X168513109Y-112430083D01*
X168756017Y-112478400D01*
X169003683Y-112478400D01*
X169246591Y-112430083D01*
X169475405Y-112335305D01*
X169681332Y-112197709D01*
X169856459Y-112022582D01*
X169994055Y-111816655D01*
X170088833Y-111587841D01*
X170137150Y-111344933D01*
X170137150Y-111097267D01*
X170088833Y-110854359D01*
X169994055Y-110625545D01*
X169856459Y-110419618D01*
X169681332Y-110244491D01*
X169475405Y-110106895D01*
X169246591Y-110012117D01*
X169003683Y-109963800D01*
X168756017Y-109963800D01*
X168513109Y-110012117D01*
X168284295Y-110106895D01*
X168078368Y-110244491D01*
X167963509Y-110359350D01*
X167824142Y-110359350D01*
X167783599Y-110355357D01*
X167743056Y-110359350D01*
X167743047Y-110359350D01*
X167621774Y-110371294D01*
X167466166Y-110418497D01*
X167322758Y-110495151D01*
X167197059Y-110598309D01*
X167171206Y-110629811D01*
X166489168Y-111311850D01*
X165553008Y-111311850D01*
X165599907Y-111307231D01*
X165707635Y-111274552D01*
X165806918Y-111221484D01*
X165893940Y-111150067D01*
X165911843Y-111128252D01*
X167764999Y-109275096D01*
X167765645Y-109276655D01*
X167903241Y-109482582D01*
X168078368Y-109657709D01*
X168284295Y-109795305D01*
X168513109Y-109890083D01*
X168756017Y-109938400D01*
X169003683Y-109938400D01*
X169246591Y-109890083D01*
X169475405Y-109795305D01*
X169681332Y-109657709D01*
X169856459Y-109482582D01*
X169994055Y-109276655D01*
X170088833Y-109047841D01*
X170137150Y-108804933D01*
X170137150Y-108557267D01*
X170088833Y-108314359D01*
X169994055Y-108085545D01*
X169856459Y-107879618D01*
X169681332Y-107704491D01*
X169475405Y-107566895D01*
X169246591Y-107472117D01*
X169003683Y-107423800D01*
X168756017Y-107423800D01*
X168513109Y-107472117D01*
X168284295Y-107566895D01*
X168078368Y-107704491D01*
X167903241Y-107879618D01*
X167765645Y-108085545D01*
X167755681Y-108109600D01*
X167578844Y-108109600D01*
X167550772Y-108106835D01*
X167522700Y-108109600D01*
X167522699Y-108109600D01*
X167438739Y-108117869D01*
X167331011Y-108150548D01*
X167231728Y-108203616D01*
X167144706Y-108275033D01*
X167126807Y-108296843D01*
X165251151Y-110172500D01*
X164437669Y-110172500D01*
X164513717Y-110149431D01*
X164707854Y-110045663D01*
X164878015Y-109906015D01*
X165017663Y-109735854D01*
X165121431Y-109541718D01*
X165185331Y-109331068D01*
X165201500Y-109166899D01*
X165201500Y-108257102D01*
X165185331Y-108092933D01*
X165121431Y-107882282D01*
X165017663Y-107688146D01*
X164878015Y-107517985D01*
X164707854Y-107378337D01*
X164513718Y-107274569D01*
X164303068Y-107210669D01*
X164084000Y-107189093D01*
X163864933Y-107210669D01*
X163808124Y-107227902D01*
X161859970Y-105279748D01*
X161842067Y-105257933D01*
X161755045Y-105186516D01*
X161655762Y-105133448D01*
X161548034Y-105100769D01*
X161464074Y-105092500D01*
X161436000Y-105089735D01*
X161407926Y-105092500D01*
X146332074Y-105092500D01*
X146304000Y-105089735D01*
X146275926Y-105092500D01*
X146191966Y-105100769D01*
X146084238Y-105133448D01*
X145984955Y-105186516D01*
X145897933Y-105257933D01*
X145880034Y-105279743D01*
X141960397Y-109199381D01*
X141938582Y-109217284D01*
X141871561Y-109298950D01*
X141867165Y-109304307D01*
X141814097Y-109403590D01*
X141781418Y-109511318D01*
X141770384Y-109623351D01*
X141773149Y-109651425D01*
X141773150Y-111567663D01*
X141771591Y-111567017D01*
X141528683Y-111518700D01*
X141281017Y-111518700D01*
X141038109Y-111567017D01*
X140809295Y-111661795D01*
X140603368Y-111799391D01*
X140428241Y-111974518D01*
X140290645Y-112180445D01*
X140195867Y-112409259D01*
X140147550Y-112652167D01*
X140147550Y-112899833D01*
X140195867Y-113142741D01*
X140290645Y-113371555D01*
X140428241Y-113577482D01*
X140603368Y-113752609D01*
X140809295Y-113890205D01*
X140833350Y-113900169D01*
X140833351Y-116484766D01*
X140830585Y-116512850D01*
X140841619Y-116624883D01*
X140874298Y-116732611D01*
X140927366Y-116831894D01*
X140927367Y-116831895D01*
X140998784Y-116918917D01*
X141020594Y-116936816D01*
X141816034Y-117732257D01*
X141833933Y-117754067D01*
X141920955Y-117825484D01*
X142020238Y-117878552D01*
X142127966Y-117911231D01*
X142211926Y-117919500D01*
X142211927Y-117919500D01*
X142239999Y-117922265D01*
X142268071Y-117919500D01*
X143263916Y-117919500D01*
X143374309Y-118084716D01*
X143535284Y-118245691D01*
X143724571Y-118372168D01*
X143934895Y-118459287D01*
X144158173Y-118503700D01*
X144385827Y-118503700D01*
X144609105Y-118459287D01*
X144819429Y-118372168D01*
X145008716Y-118245691D01*
X145169691Y-118084716D01*
X145280084Y-117919500D01*
X146575278Y-117919500D01*
X147680235Y-119024458D01*
X147698134Y-119046268D01*
X147785156Y-119117685D01*
X147884439Y-119170753D01*
X147992167Y-119203432D01*
X148076127Y-119211701D01*
X148076128Y-119211701D01*
X148104200Y-119214466D01*
X148132272Y-119211701D01*
X166332675Y-119211701D01*
X166360749Y-119214466D01*
X166388823Y-119211701D01*
X166472783Y-119203432D01*
X166580511Y-119170753D01*
X166679794Y-119117685D01*
X166766816Y-119046268D01*
X166784719Y-119024453D01*
X168552080Y-117257092D01*
X169744850Y-117257092D01*
X169744850Y-117615108D01*
X169814696Y-117966245D01*
X169951702Y-118297009D01*
X170150606Y-118594689D01*
X170403761Y-118847844D01*
X170701441Y-119046748D01*
X171032205Y-119183754D01*
X171383342Y-119253600D01*
X171741358Y-119253600D01*
X172092495Y-119183754D01*
X172423259Y-119046748D01*
X172720939Y-118847844D01*
X172974094Y-118594689D01*
X173172998Y-118297009D01*
X173310004Y-117966245D01*
X173379850Y-117615108D01*
X173379850Y-117257092D01*
X173310004Y-116905955D01*
X173172998Y-116575191D01*
X172974094Y-116277511D01*
X172720939Y-116024356D01*
X172423259Y-115825452D01*
X172092495Y-115688446D01*
X171741358Y-115618600D01*
X171383342Y-115618600D01*
X171032205Y-115688446D01*
X170701441Y-115825452D01*
X170403761Y-116024356D01*
X170150606Y-116277511D01*
X169951702Y-116575191D01*
X169814696Y-116905955D01*
X169744850Y-117257092D01*
X168552080Y-117257092D01*
X171819107Y-113990066D01*
X171840917Y-113972167D01*
X171912334Y-113885145D01*
X171965402Y-113785862D01*
X171998081Y-113678134D01*
X172006350Y-113594174D01*
X172006350Y-113594173D01*
X172009115Y-113566101D01*
X172006350Y-113538029D01*
X172006350Y-99326924D01*
X172009115Y-99298850D01*
X171998081Y-99186816D01*
X171965402Y-99079088D01*
X171912334Y-98979805D01*
X171864865Y-98921964D01*
X171840917Y-98892783D01*
X171819108Y-98874885D01*
X171081070Y-98136848D01*
X171063167Y-98115033D01*
X170976145Y-98043616D01*
X170876862Y-97990548D01*
X170769134Y-97957869D01*
X170685174Y-97949600D01*
X170657100Y-97946835D01*
X170629026Y-97949600D01*
X170004019Y-97949600D01*
X169994055Y-97925545D01*
X169856459Y-97719618D01*
X169681332Y-97544491D01*
X169475405Y-97406895D01*
X169369254Y-97362926D01*
X169535508Y-97294061D01*
X169639385Y-97081884D01*
X168879850Y-96322350D01*
X168120315Y-97081884D01*
X168224192Y-97294061D01*
X168397153Y-97360148D01*
X168284295Y-97406895D01*
X168078368Y-97544491D01*
X167903241Y-97719618D01*
X167765645Y-97925545D01*
X167764999Y-97927104D01*
X167449500Y-97611605D01*
X167449500Y-96277715D01*
X167487826Y-96445883D01*
X167566889Y-96636758D01*
X167779066Y-96740635D01*
X168538600Y-95981100D01*
X169221100Y-95981100D01*
X169980634Y-96740635D01*
X170192811Y-96636758D01*
X170295495Y-96368014D01*
X170343777Y-96084401D01*
X170335801Y-95796818D01*
X170271874Y-95516317D01*
X170192811Y-95325442D01*
X169980634Y-95221565D01*
X169221100Y-95981100D01*
X168538600Y-95981100D01*
X167779066Y-95221565D01*
X167566889Y-95325442D01*
X167464205Y-95594186D01*
X167449500Y-95680565D01*
X167449500Y-95292795D01*
X167452265Y-95264721D01*
X167441231Y-95152688D01*
X167408552Y-95044960D01*
X167355484Y-94945677D01*
X167342945Y-94930398D01*
X167301844Y-94880316D01*
X168120315Y-94880316D01*
X168879850Y-95639850D01*
X169639385Y-94880316D01*
X169535508Y-94668139D01*
X169266764Y-94565455D01*
X168983151Y-94517173D01*
X168695568Y-94525149D01*
X168415067Y-94589076D01*
X168224192Y-94668139D01*
X168120315Y-94880316D01*
X167301844Y-94880316D01*
X167284067Y-94858655D01*
X167262257Y-94840756D01*
X166325237Y-93903737D01*
X166307334Y-93881922D01*
X166220312Y-93810505D01*
X166121029Y-93757437D01*
X166013301Y-93724758D01*
X165929341Y-93716489D01*
X165901267Y-93713724D01*
X165873193Y-93716489D01*
X161024807Y-93716489D01*
X160996733Y-93713724D01*
X160968659Y-93716489D01*
X160884699Y-93724758D01*
X160776971Y-93757437D01*
X160677688Y-93810505D01*
X160590666Y-93881922D01*
X160572763Y-93903737D01*
X160477421Y-93999079D01*
X154358692Y-93999079D01*
X154330620Y-93996314D01*
X154302548Y-93999079D01*
X154302547Y-93999079D01*
X154218587Y-94007348D01*
X154110859Y-94040027D01*
X154011576Y-94093095D01*
X153924554Y-94164512D01*
X153906655Y-94186322D01*
X153316344Y-94776634D01*
X153294534Y-94794533D01*
X153248526Y-94850594D01*
X153223116Y-94881556D01*
X153170048Y-94980839D01*
X153137369Y-95088567D01*
X153126335Y-95200600D01*
X153129101Y-95228684D01*
X153129100Y-96544677D01*
X153011036Y-96662742D01*
X153011036Y-96482000D01*
X153004906Y-96419759D01*
X152986751Y-96359910D01*
X152957269Y-96304753D01*
X152917593Y-96256407D01*
X152869247Y-96216731D01*
X152814090Y-96187249D01*
X152754241Y-96169094D01*
X152692000Y-96162964D01*
X152615900Y-96162964D01*
X152615900Y-92788797D01*
X152619401Y-92753249D01*
X152615900Y-92717701D01*
X152615900Y-92717694D01*
X152605425Y-92611341D01*
X152564032Y-92474885D01*
X152528712Y-92408805D01*
X155308259Y-92408805D01*
X155314216Y-92485396D01*
X155437170Y-92709781D01*
X155601537Y-92905867D01*
X155801000Y-93066119D01*
X156027894Y-93184378D01*
X156273500Y-93256100D01*
X157035500Y-93256100D01*
X157035500Y-92214700D01*
X157518100Y-92214700D01*
X157518100Y-93256100D01*
X158280100Y-93256100D01*
X158525706Y-93184378D01*
X158752600Y-93066119D01*
X158952063Y-92905867D01*
X159116430Y-92709781D01*
X159239384Y-92485396D01*
X159245341Y-92408805D01*
X161810659Y-92408805D01*
X161816616Y-92485396D01*
X161939570Y-92709781D01*
X162103937Y-92905867D01*
X162303400Y-93066119D01*
X162530294Y-93184378D01*
X162775900Y-93256100D01*
X163537900Y-93256100D01*
X163537900Y-92214700D01*
X164020500Y-92214700D01*
X164020500Y-93256100D01*
X164782500Y-93256100D01*
X165028106Y-93184378D01*
X165255000Y-93066119D01*
X165454463Y-92905867D01*
X165618830Y-92709781D01*
X165741784Y-92485396D01*
X165747741Y-92408805D01*
X165685558Y-92257092D01*
X169744850Y-92257092D01*
X169744850Y-92615108D01*
X169814696Y-92966245D01*
X169951702Y-93297009D01*
X170150606Y-93594689D01*
X170403761Y-93847844D01*
X170701441Y-94046748D01*
X171032205Y-94183754D01*
X171383342Y-94253600D01*
X171741358Y-94253600D01*
X172092495Y-94183754D01*
X172423259Y-94046748D01*
X172720939Y-93847844D01*
X172974094Y-93594689D01*
X173172998Y-93297009D01*
X173310004Y-92966245D01*
X173379850Y-92615108D01*
X173379850Y-92257092D01*
X173310004Y-91905955D01*
X173172998Y-91575191D01*
X172974094Y-91277511D01*
X172720939Y-91024356D01*
X172423259Y-90825452D01*
X172092495Y-90688446D01*
X171741358Y-90618600D01*
X171383342Y-90618600D01*
X171032205Y-90688446D01*
X170701441Y-90825452D01*
X170403761Y-91024356D01*
X170150606Y-91277511D01*
X169951702Y-91575191D01*
X169814696Y-91905955D01*
X169744850Y-92257092D01*
X165685558Y-92257092D01*
X165668182Y-92214700D01*
X164020500Y-92214700D01*
X163537900Y-92214700D01*
X161890218Y-92214700D01*
X161810659Y-92408805D01*
X159245341Y-92408805D01*
X159165782Y-92214700D01*
X157518100Y-92214700D01*
X157035500Y-92214700D01*
X155387818Y-92214700D01*
X155308259Y-92408805D01*
X152528712Y-92408805D01*
X152496813Y-92349127D01*
X152406351Y-92238899D01*
X152378728Y-92216230D01*
X152286868Y-92124370D01*
X152264200Y-92096749D01*
X152236583Y-92074084D01*
X151700494Y-91537995D01*
X155308259Y-91537995D01*
X155387818Y-91732100D01*
X157035500Y-91732100D01*
X157035500Y-90690700D01*
X157518100Y-90690700D01*
X157518100Y-91732100D01*
X159165782Y-91732100D01*
X159245341Y-91537995D01*
X161810659Y-91537995D01*
X161890218Y-91732100D01*
X163537900Y-91732100D01*
X163537900Y-90690700D01*
X164020500Y-90690700D01*
X164020500Y-91732100D01*
X165668182Y-91732100D01*
X165747741Y-91537995D01*
X165741784Y-91461404D01*
X165618830Y-91237019D01*
X165454463Y-91040933D01*
X165255000Y-90880681D01*
X165028106Y-90762422D01*
X164782500Y-90690700D01*
X164020500Y-90690700D01*
X163537900Y-90690700D01*
X162775900Y-90690700D01*
X162530294Y-90762422D01*
X162303400Y-90880681D01*
X162103937Y-91040933D01*
X161939570Y-91237019D01*
X161816616Y-91461404D01*
X161810659Y-91537995D01*
X159245341Y-91537995D01*
X159239384Y-91461404D01*
X159116430Y-91237019D01*
X158952063Y-91040933D01*
X158752600Y-90880681D01*
X158525706Y-90762422D01*
X158280100Y-90690700D01*
X157518100Y-90690700D01*
X157035500Y-90690700D01*
X156273500Y-90690700D01*
X156027894Y-90762422D01*
X155801000Y-90880681D01*
X155601537Y-91040933D01*
X155437170Y-91237019D01*
X155314216Y-91461404D01*
X155308259Y-91537995D01*
X151700494Y-91537995D01*
X151651873Y-91489375D01*
X151629201Y-91461749D01*
X151518973Y-91371287D01*
X151393215Y-91304068D01*
X151256759Y-91262675D01*
X151150406Y-91252200D01*
X151114850Y-91248698D01*
X151079294Y-91252200D01*
X149920798Y-91252200D01*
X149868959Y-91174618D01*
X149693832Y-90999491D01*
X149487905Y-90861895D01*
X149259091Y-90767117D01*
X149016183Y-90718800D01*
X148768517Y-90718800D01*
X148525609Y-90767117D01*
X148296795Y-90861895D01*
X148090868Y-90999491D01*
X147915741Y-91174618D01*
X147778145Y-91380545D01*
X147734176Y-91486696D01*
X147665311Y-91320442D01*
X147453134Y-91216565D01*
X146693600Y-91976100D01*
X147453134Y-92735635D01*
X147665311Y-92631758D01*
X147731398Y-92458797D01*
X147778145Y-92571655D01*
X147915741Y-92777582D01*
X148090868Y-92952709D01*
X148133504Y-92981197D01*
X146687502Y-94427200D01*
X142621406Y-94427200D01*
X142585850Y-94423698D01*
X142443940Y-94437675D01*
X142307485Y-94479068D01*
X142181727Y-94546287D01*
X142071499Y-94636749D01*
X142048833Y-94664368D01*
X140341798Y-96371403D01*
X140250283Y-96353200D01*
X140002617Y-96353200D01*
X139759709Y-96401517D01*
X139530895Y-96496295D01*
X139324968Y-96633891D01*
X139149841Y-96809018D01*
X139098002Y-96886600D01*
X138142549Y-96886600D01*
X136613900Y-95357952D01*
X136613900Y-94884811D01*
X136655594Y-94850594D01*
X136790243Y-94686523D01*
X136890296Y-94499336D01*
X136951909Y-94296227D01*
X136967500Y-94137929D01*
X136967500Y-93586300D01*
X137149300Y-93586300D01*
X137149300Y-94326300D01*
X137220984Y-94571516D01*
X137339129Y-94798035D01*
X137499196Y-94997153D01*
X137695033Y-95161217D01*
X137919115Y-95283923D01*
X137994913Y-95289530D01*
X138188700Y-95209936D01*
X138188700Y-93586300D01*
X138671300Y-93586300D01*
X138671300Y-95209936D01*
X138865087Y-95289530D01*
X138940885Y-95283923D01*
X139164967Y-95161217D01*
X139360804Y-94997153D01*
X139520871Y-94798035D01*
X139639016Y-94571516D01*
X139710700Y-94326300D01*
X139710700Y-93586300D01*
X138671300Y-93586300D01*
X138188700Y-93586300D01*
X137149300Y-93586300D01*
X136967500Y-93586300D01*
X136967500Y-92552071D01*
X136951909Y-92393773D01*
X136942787Y-92363700D01*
X137149300Y-92363700D01*
X137149300Y-93103700D01*
X138188700Y-93103700D01*
X138188700Y-91480064D01*
X138671300Y-91480064D01*
X138671300Y-93103700D01*
X139710700Y-93103700D01*
X139710700Y-92552072D01*
X139892500Y-92552072D01*
X139892500Y-94137929D01*
X139908091Y-94296227D01*
X139969705Y-94499336D01*
X140069758Y-94686523D01*
X140204407Y-94850594D01*
X140368478Y-94985243D01*
X140555665Y-95085296D01*
X140758774Y-95146909D01*
X140970000Y-95167713D01*
X141181227Y-95146909D01*
X141384336Y-95085296D01*
X141571523Y-94985243D01*
X141735594Y-94850594D01*
X141870243Y-94686523D01*
X141970296Y-94499336D01*
X142031909Y-94296227D01*
X142047500Y-94137929D01*
X142047500Y-93291248D01*
X142638749Y-92700000D01*
X142783902Y-92700000D01*
X142835741Y-92777582D01*
X143010868Y-92952709D01*
X143216795Y-93090305D01*
X143445609Y-93185083D01*
X143688517Y-93233400D01*
X143936183Y-93233400D01*
X144179091Y-93185083D01*
X144407905Y-93090305D01*
X144427990Y-93076884D01*
X145592815Y-93076884D01*
X145696692Y-93289061D01*
X145965436Y-93391745D01*
X146249049Y-93440027D01*
X146536632Y-93432051D01*
X146817133Y-93368124D01*
X147008008Y-93289061D01*
X147111885Y-93076884D01*
X146352350Y-92317350D01*
X145592815Y-93076884D01*
X144427990Y-93076884D01*
X144613832Y-92952709D01*
X144788959Y-92777582D01*
X144926555Y-92571655D01*
X144970524Y-92465504D01*
X145039389Y-92631758D01*
X145251566Y-92735635D01*
X146011100Y-91976100D01*
X145251566Y-91216565D01*
X145039389Y-91320442D01*
X144973302Y-91493403D01*
X144926555Y-91380545D01*
X144788959Y-91174618D01*
X144613832Y-90999491D01*
X144427991Y-90875316D01*
X145592815Y-90875316D01*
X146352350Y-91634850D01*
X147111885Y-90875316D01*
X147008008Y-90663139D01*
X146739264Y-90560455D01*
X146455651Y-90512173D01*
X146168068Y-90520149D01*
X145887567Y-90584076D01*
X145696692Y-90663139D01*
X145592815Y-90875316D01*
X144427991Y-90875316D01*
X144407905Y-90861895D01*
X144179091Y-90767117D01*
X143936183Y-90718800D01*
X143688517Y-90718800D01*
X143445609Y-90767117D01*
X143216795Y-90861895D01*
X143010868Y-90999491D01*
X142835741Y-91174618D01*
X142783902Y-91252200D01*
X142374456Y-91252200D01*
X142338900Y-91248698D01*
X142196990Y-91262675D01*
X142060535Y-91304068D01*
X141934777Y-91371287D01*
X141824549Y-91461749D01*
X141801881Y-91489370D01*
X141579746Y-91711505D01*
X141571523Y-91704757D01*
X141384335Y-91604704D01*
X141181226Y-91543091D01*
X140970000Y-91522287D01*
X140758773Y-91543091D01*
X140555664Y-91604704D01*
X140368477Y-91704757D01*
X140204406Y-91839406D01*
X140069757Y-92003477D01*
X139969704Y-92190665D01*
X139908091Y-92393774D01*
X139892500Y-92552072D01*
X139710700Y-92552072D01*
X139710700Y-92363700D01*
X139639016Y-92118484D01*
X139520871Y-91891965D01*
X139360804Y-91692847D01*
X139164967Y-91528783D01*
X138940885Y-91406077D01*
X138865087Y-91400470D01*
X138671300Y-91480064D01*
X138188700Y-91480064D01*
X137994913Y-91400470D01*
X137919115Y-91406077D01*
X137695033Y-91528783D01*
X137499196Y-91692847D01*
X137339129Y-91891965D01*
X137220984Y-92118484D01*
X137149300Y-92363700D01*
X136942787Y-92363700D01*
X136890296Y-92190664D01*
X136790243Y-92003477D01*
X136655594Y-91839406D01*
X136491523Y-91704757D01*
X136304335Y-91604704D01*
X136101226Y-91543091D01*
X135890000Y-91522287D01*
X135678773Y-91543091D01*
X135475664Y-91604704D01*
X135288477Y-91704757D01*
X135124406Y-91839406D01*
X134989757Y-92003477D01*
X134889704Y-92190665D01*
X134828091Y-92393774D01*
X134812500Y-92552072D01*
X134379850Y-92552072D01*
X134379850Y-92257092D01*
X134310004Y-91905955D01*
X134172998Y-91575191D01*
X133974094Y-91277511D01*
X133720939Y-91024356D01*
X133423259Y-90825452D01*
X133092495Y-90688446D01*
X132741358Y-90618600D01*
X132383342Y-90618600D01*
X132032205Y-90688446D01*
X131701441Y-90825452D01*
X131403761Y-91024356D01*
X131150606Y-91277511D01*
X130951702Y-91575191D01*
X130814696Y-91905955D01*
X130744850Y-92257092D01*
X123359850Y-92257092D01*
X123359850Y-90381100D01*
X173642351Y-90381100D01*
X173642350Y-119626100D01*
G37*
G04 #@! TD.AperFunction*
M02*
