G04 #@! TF.GenerationSoftware,KiCad,Pcbnew,5.1.10-88a1d61d58~90~ubuntu21.04.1*
G04 #@! TF.CreationDate,2021-07-14T16:23:23-03:00*
G04 #@! TF.ProjectId,Franzininho,4672616e-7a69-46e6-996e-686f2e6b6963,rev?*
G04 #@! TF.SameCoordinates,Original*
G04 #@! TF.FileFunction,Legend,Top*
G04 #@! TF.FilePolarity,Positive*
%FSLAX46Y46*%
G04 Gerber Fmt 4.6, Leading zero omitted, Abs format (unit mm)*
G04 Created by KiCad (PCBNEW 5.1.10-88a1d61d58~90~ubuntu21.04.1) date 2021-07-14 16:23:23*
%MOMM*%
%LPD*%
G01*
G04 APERTURE LIST*
%ADD10C,0.150000*%
%ADD11C,0.152400*%
%ADD12C,0.200000*%
%ADD13C,0.300000*%
%ADD14C,0.182880*%
%ADD15C,0.127000*%
%ADD16C,0.254000*%
%ADD17C,0.203200*%
%ADD18C,0.100000*%
%ADD19C,0.120000*%
%ADD20C,0.010000*%
G04 APERTURE END LIST*
D10*
X164274500Y-98806000D02*
G75*
G03*
X164274500Y-98806000I-127000J0D01*
G01*
X164401500Y-98806000D02*
G75*
G03*
X164401500Y-98806000I-254000J0D01*
G01*
D11*
X171890725Y-100272857D02*
X171319297Y-100272857D01*
X171262154Y-100844285D01*
X171319297Y-100787142D01*
X171433582Y-100730000D01*
X171719297Y-100730000D01*
X171833582Y-100787142D01*
X171890725Y-100844285D01*
X171947868Y-100958571D01*
X171947868Y-101244285D01*
X171890725Y-101358571D01*
X171833582Y-101415714D01*
X171719297Y-101472857D01*
X171433582Y-101472857D01*
X171319297Y-101415714D01*
X171262154Y-101358571D01*
X171833582Y-103212857D02*
X171833582Y-104012857D01*
X171547868Y-102755714D02*
X171262154Y-103612857D01*
X172005011Y-103612857D01*
X171205011Y-105352857D02*
X171947868Y-105352857D01*
X171547868Y-105810000D01*
X171719297Y-105810000D01*
X171833582Y-105867142D01*
X171890725Y-105924285D01*
X171947868Y-106038571D01*
X171947868Y-106324285D01*
X171890725Y-106438571D01*
X171833582Y-106495714D01*
X171719297Y-106552857D01*
X171376440Y-106552857D01*
X171262154Y-106495714D01*
X171205011Y-106438571D01*
X171262154Y-108007142D02*
X171319297Y-107950000D01*
X171433582Y-107892857D01*
X171719297Y-107892857D01*
X171833582Y-107950000D01*
X171890725Y-108007142D01*
X171947868Y-108121428D01*
X171947868Y-108235714D01*
X171890725Y-108407142D01*
X171205011Y-109092857D01*
X171947868Y-109092857D01*
X171947868Y-111632857D02*
X171262154Y-111632857D01*
X171605011Y-111632857D02*
X171605011Y-110432857D01*
X171490725Y-110604285D01*
X171376440Y-110718571D01*
X171262154Y-110775714D01*
D12*
X166885620Y-117094000D02*
X166631620Y-117094000D01*
X166885620Y-114808000D02*
X166631620Y-114808000D01*
X166885620Y-117094000D02*
X166885620Y-114808000D01*
X163583620Y-114808000D02*
X166631620Y-114808000D01*
X163583620Y-117094000D02*
X166631620Y-117094000D01*
X163583620Y-114808000D02*
X163583620Y-117094000D01*
D13*
X164100014Y-116608157D02*
X164100014Y-115408157D01*
X164385728Y-115408157D01*
X164557157Y-115465300D01*
X164671442Y-115579585D01*
X164728585Y-115693871D01*
X164785728Y-115922442D01*
X164785728Y-116093871D01*
X164728585Y-116322442D01*
X164671442Y-116436728D01*
X164557157Y-116551014D01*
X164385728Y-116608157D01*
X164100014Y-116608157D01*
X165300014Y-116608157D02*
X165300014Y-115408157D01*
X166100014Y-116036728D02*
X166100014Y-116608157D01*
X165700014Y-115408157D02*
X166100014Y-116036728D01*
X166500014Y-115408157D01*
D14*
X124083491Y-96024714D02*
X124045395Y-96062809D01*
X123931110Y-96100904D01*
X123854919Y-96100904D01*
X123740633Y-96062809D01*
X123664443Y-95986619D01*
X123626348Y-95910428D01*
X123588252Y-95758047D01*
X123588252Y-95643761D01*
X123626348Y-95491380D01*
X123664443Y-95415190D01*
X123740633Y-95339000D01*
X123854919Y-95300904D01*
X123931110Y-95300904D01*
X124045395Y-95339000D01*
X124083491Y-95377095D01*
X124883491Y-96024714D02*
X124845395Y-96062809D01*
X124731110Y-96100904D01*
X124654919Y-96100904D01*
X124540633Y-96062809D01*
X124464443Y-95986619D01*
X124426348Y-95910428D01*
X124388252Y-95758047D01*
X124388252Y-95643761D01*
X124426348Y-95491380D01*
X124464443Y-95415190D01*
X124540633Y-95339000D01*
X124654919Y-95300904D01*
X124731110Y-95300904D01*
X124845395Y-95339000D01*
X124883491Y-95377095D01*
X126102538Y-95681857D02*
X126216824Y-95719952D01*
X126254919Y-95758047D01*
X126293014Y-95834238D01*
X126293014Y-95948523D01*
X126254919Y-96024714D01*
X126216824Y-96062809D01*
X126140633Y-96100904D01*
X125835872Y-96100904D01*
X125835872Y-95300904D01*
X126102538Y-95300904D01*
X126178729Y-95339000D01*
X126216824Y-95377095D01*
X126254919Y-95453285D01*
X126254919Y-95529476D01*
X126216824Y-95605666D01*
X126178729Y-95643761D01*
X126102538Y-95681857D01*
X125835872Y-95681857D01*
X126788252Y-95719952D02*
X126788252Y-96100904D01*
X126521586Y-95300904D02*
X126788252Y-95719952D01*
X127054919Y-95300904D01*
X127321586Y-95796142D02*
X127931110Y-95796142D01*
X128273967Y-96062809D02*
X128388252Y-96100904D01*
X128578729Y-96100904D01*
X128654919Y-96062809D01*
X128693014Y-96024714D01*
X128731110Y-95948523D01*
X128731110Y-95872333D01*
X128693014Y-95796142D01*
X128654919Y-95758047D01*
X128578729Y-95719952D01*
X128426348Y-95681857D01*
X128350157Y-95643761D01*
X128312062Y-95605666D01*
X128273967Y-95529476D01*
X128273967Y-95453285D01*
X128312062Y-95377095D01*
X128350157Y-95339000D01*
X128426348Y-95300904D01*
X128616824Y-95300904D01*
X128731110Y-95339000D01*
X129035872Y-95872333D02*
X129416824Y-95872333D01*
X128959681Y-96100904D02*
X129226348Y-95300904D01*
X129493014Y-96100904D01*
X130712062Y-95567571D02*
X130712062Y-96100904D01*
X130521586Y-95262809D02*
X130331110Y-95834238D01*
X130826348Y-95834238D01*
X131131110Y-96024714D02*
X131169205Y-96062809D01*
X131131110Y-96100904D01*
X131093014Y-96062809D01*
X131131110Y-96024714D01*
X131131110Y-96100904D01*
X131664443Y-95300904D02*
X131740633Y-95300904D01*
X131816824Y-95339000D01*
X131854919Y-95377095D01*
X131893014Y-95453285D01*
X131931110Y-95605666D01*
X131931110Y-95796142D01*
X131893014Y-95948523D01*
X131854919Y-96024714D01*
X131816824Y-96062809D01*
X131740633Y-96100904D01*
X131664443Y-96100904D01*
X131588252Y-96062809D01*
X131550157Y-96024714D01*
X131512062Y-95948523D01*
X131473967Y-95796142D01*
X131473967Y-95605666D01*
X131512062Y-95453285D01*
X131550157Y-95377095D01*
X131588252Y-95339000D01*
X131664443Y-95300904D01*
D11*
X170494035Y-98123380D02*
X170827368Y-99123380D01*
X171160701Y-98123380D01*
X172065463Y-99028142D02*
X172017844Y-99075761D01*
X171874987Y-99123380D01*
X171779749Y-99123380D01*
X171636892Y-99075761D01*
X171541654Y-98980523D01*
X171494035Y-98885285D01*
X171446416Y-98694809D01*
X171446416Y-98551952D01*
X171494035Y-98361476D01*
X171541654Y-98266238D01*
X171636892Y-98171000D01*
X171779749Y-98123380D01*
X171874987Y-98123380D01*
X172017844Y-98171000D01*
X172065463Y-98218619D01*
X173065463Y-99028142D02*
X173017844Y-99075761D01*
X172874987Y-99123380D01*
X172779749Y-99123380D01*
X172636892Y-99075761D01*
X172541654Y-98980523D01*
X172494035Y-98885285D01*
X172446416Y-98694809D01*
X172446416Y-98551952D01*
X172494035Y-98361476D01*
X172541654Y-98266238D01*
X172636892Y-98171000D01*
X172779749Y-98123380D01*
X172874987Y-98123380D01*
X173017844Y-98171000D01*
X173065463Y-98218619D01*
X171547868Y-113290357D02*
X171662154Y-113290357D01*
X171776440Y-113347500D01*
X171833582Y-113404642D01*
X171890725Y-113518928D01*
X171947868Y-113747500D01*
X171947868Y-114033214D01*
X171890725Y-114261785D01*
X171833582Y-114376071D01*
X171776440Y-114433214D01*
X171662154Y-114490357D01*
X171547868Y-114490357D01*
X171433582Y-114433214D01*
X171376440Y-114376071D01*
X171319297Y-114261785D01*
X171262154Y-114033214D01*
X171262154Y-113747500D01*
X171319297Y-113518928D01*
X171376440Y-113404642D01*
X171433582Y-113347500D01*
X171547868Y-113290357D01*
X124527298Y-117062380D02*
X124860631Y-118062380D01*
X125193964Y-117062380D01*
X125479679Y-117157619D02*
X125527298Y-117110000D01*
X125622536Y-117062380D01*
X125860631Y-117062380D01*
X125955869Y-117110000D01*
X126003488Y-117157619D01*
X126051107Y-117252857D01*
X126051107Y-117348095D01*
X126003488Y-117490952D01*
X125432060Y-118062380D01*
X126051107Y-118062380D01*
X127051107Y-118062380D02*
X126717774Y-117586190D01*
X126479679Y-118062380D02*
X126479679Y-117062380D01*
X126860631Y-117062380D01*
X126955869Y-117110000D01*
X127003488Y-117157619D01*
X127051107Y-117252857D01*
X127051107Y-117395714D01*
X127003488Y-117490952D01*
X126955869Y-117538571D01*
X126860631Y-117586190D01*
X126479679Y-117586190D01*
X127336821Y-117062380D02*
X127670155Y-118062380D01*
X128003488Y-117062380D01*
X128241583Y-117062380D02*
X128860631Y-117062380D01*
X128527298Y-117443333D01*
X128670155Y-117443333D01*
X128765393Y-117490952D01*
X128813012Y-117538571D01*
X128860631Y-117633809D01*
X128860631Y-117871904D01*
X128813012Y-117967142D01*
X128765393Y-118014761D01*
X128670155Y-118062380D01*
X128384440Y-118062380D01*
X128289202Y-118014761D01*
X128241583Y-117967142D01*
X148860488Y-118706857D02*
X149089060Y-119506857D01*
X149317631Y-118935428D01*
X149546202Y-119506857D01*
X149774774Y-118706857D01*
X150117631Y-118706857D02*
X150346202Y-119506857D01*
X150574774Y-118935428D01*
X150803345Y-119506857D01*
X151031917Y-118706857D01*
X151374774Y-118706857D02*
X151603345Y-119506857D01*
X151831917Y-118935428D01*
X152060488Y-119506857D01*
X152289060Y-118706857D01*
X152746202Y-119392571D02*
X152803345Y-119449714D01*
X152746202Y-119506857D01*
X152689060Y-119449714D01*
X152746202Y-119392571D01*
X152746202Y-119506857D01*
X153146202Y-118706857D02*
X153603345Y-118706857D01*
X153317631Y-119506857D02*
X153317631Y-118478285D01*
X153374774Y-118364000D01*
X153489060Y-118306857D01*
X153603345Y-118306857D01*
X154003345Y-119506857D02*
X154003345Y-118706857D01*
X154003345Y-118935428D02*
X154060488Y-118821142D01*
X154117631Y-118764000D01*
X154231917Y-118706857D01*
X154346202Y-118706857D01*
X155260488Y-119506857D02*
X155260488Y-118878285D01*
X155203345Y-118764000D01*
X155089060Y-118706857D01*
X154860488Y-118706857D01*
X154746202Y-118764000D01*
X155260488Y-119449714D02*
X155146202Y-119506857D01*
X154860488Y-119506857D01*
X154746202Y-119449714D01*
X154689060Y-119335428D01*
X154689060Y-119221142D01*
X154746202Y-119106857D01*
X154860488Y-119049714D01*
X155146202Y-119049714D01*
X155260488Y-118992571D01*
X155831917Y-118706857D02*
X155831917Y-119506857D01*
X155831917Y-118821142D02*
X155889060Y-118764000D01*
X156003345Y-118706857D01*
X156174774Y-118706857D01*
X156289060Y-118764000D01*
X156346202Y-118878285D01*
X156346202Y-119506857D01*
X156803345Y-118706857D02*
X157431917Y-118706857D01*
X156803345Y-119506857D01*
X157431917Y-119506857D01*
X157889060Y-119506857D02*
X157889060Y-118706857D01*
X157889060Y-118306857D02*
X157831917Y-118364000D01*
X157889060Y-118421142D01*
X157946202Y-118364000D01*
X157889060Y-118306857D01*
X157889060Y-118421142D01*
X158460488Y-118706857D02*
X158460488Y-119506857D01*
X158460488Y-118821142D02*
X158517631Y-118764000D01*
X158631917Y-118706857D01*
X158803345Y-118706857D01*
X158917631Y-118764000D01*
X158974774Y-118878285D01*
X158974774Y-119506857D01*
X159546202Y-119506857D02*
X159546202Y-118706857D01*
X159546202Y-118306857D02*
X159489060Y-118364000D01*
X159546202Y-118421142D01*
X159603345Y-118364000D01*
X159546202Y-118306857D01*
X159546202Y-118421142D01*
X160117631Y-118706857D02*
X160117631Y-119506857D01*
X160117631Y-118821142D02*
X160174774Y-118764000D01*
X160289060Y-118706857D01*
X160460488Y-118706857D01*
X160574774Y-118764000D01*
X160631917Y-118878285D01*
X160631917Y-119506857D01*
X161203345Y-119506857D02*
X161203345Y-118306857D01*
X161717631Y-119506857D02*
X161717631Y-118878285D01*
X161660488Y-118764000D01*
X161546202Y-118706857D01*
X161374774Y-118706857D01*
X161260488Y-118764000D01*
X161203345Y-118821142D01*
X162460488Y-119506857D02*
X162346202Y-119449714D01*
X162289060Y-119392571D01*
X162231917Y-119278285D01*
X162231917Y-118935428D01*
X162289060Y-118821142D01*
X162346202Y-118764000D01*
X162460488Y-118706857D01*
X162631917Y-118706857D01*
X162746202Y-118764000D01*
X162803345Y-118821142D01*
X162860488Y-118935428D01*
X162860488Y-119278285D01*
X162803345Y-119392571D01*
X162746202Y-119449714D01*
X162631917Y-119506857D01*
X162460488Y-119506857D01*
X163374774Y-119392571D02*
X163431917Y-119449714D01*
X163374774Y-119506857D01*
X163317631Y-119449714D01*
X163374774Y-119392571D01*
X163374774Y-119506857D01*
X164460488Y-119449714D02*
X164346202Y-119506857D01*
X164117631Y-119506857D01*
X164003345Y-119449714D01*
X163946202Y-119392571D01*
X163889060Y-119278285D01*
X163889060Y-118935428D01*
X163946202Y-118821142D01*
X164003345Y-118764000D01*
X164117631Y-118706857D01*
X164346202Y-118706857D01*
X164460488Y-118764000D01*
X165146202Y-119506857D02*
X165031917Y-119449714D01*
X164974774Y-119392571D01*
X164917631Y-119278285D01*
X164917631Y-118935428D01*
X164974774Y-118821142D01*
X165031917Y-118764000D01*
X165146202Y-118706857D01*
X165317631Y-118706857D01*
X165431917Y-118764000D01*
X165489060Y-118821142D01*
X165546202Y-118935428D01*
X165546202Y-119278285D01*
X165489060Y-119392571D01*
X165431917Y-119449714D01*
X165317631Y-119506857D01*
X165146202Y-119506857D01*
X166060488Y-119506857D02*
X166060488Y-118706857D01*
X166060488Y-118821142D02*
X166117631Y-118764000D01*
X166231917Y-118706857D01*
X166403345Y-118706857D01*
X166517631Y-118764000D01*
X166574774Y-118878285D01*
X166574774Y-119506857D01*
X166574774Y-118878285D02*
X166631917Y-118764000D01*
X166746202Y-118706857D01*
X166917631Y-118706857D01*
X167031917Y-118764000D01*
X167089060Y-118878285D01*
X167089060Y-119506857D01*
X167660488Y-119392571D02*
X167717631Y-119449714D01*
X167660488Y-119506857D01*
X167603345Y-119449714D01*
X167660488Y-119392571D01*
X167660488Y-119506857D01*
X168231917Y-119506857D02*
X168231917Y-118306857D01*
X168231917Y-118764000D02*
X168346202Y-118706857D01*
X168574774Y-118706857D01*
X168689060Y-118764000D01*
X168746202Y-118821142D01*
X168803345Y-118935428D01*
X168803345Y-119278285D01*
X168746202Y-119392571D01*
X168689060Y-119449714D01*
X168574774Y-119506857D01*
X168346202Y-119506857D01*
X168231917Y-119449714D01*
X169317631Y-119506857D02*
X169317631Y-118706857D01*
X169317631Y-118935428D02*
X169374774Y-118821142D01*
X169431917Y-118764000D01*
X169546202Y-118706857D01*
X169660488Y-118706857D01*
X148527230Y-96332964D02*
X149527230Y-95999631D01*
X148527230Y-95666298D01*
X149431992Y-94761536D02*
X149479611Y-94809155D01*
X149527230Y-94952012D01*
X149527230Y-95047250D01*
X149479611Y-95190107D01*
X149384373Y-95285345D01*
X149289135Y-95332964D01*
X149098659Y-95380583D01*
X148955802Y-95380583D01*
X148765326Y-95332964D01*
X148670088Y-95285345D01*
X148574850Y-95190107D01*
X148527230Y-95047250D01*
X148527230Y-94952012D01*
X148574850Y-94809155D01*
X148622469Y-94761536D01*
X149431992Y-93761536D02*
X149479611Y-93809155D01*
X149527230Y-93952012D01*
X149527230Y-94047250D01*
X149479611Y-94190107D01*
X149384373Y-94285345D01*
X149289135Y-94332964D01*
X149098659Y-94380583D01*
X148955802Y-94380583D01*
X148765326Y-94332964D01*
X148670088Y-94285345D01*
X148574850Y-94190107D01*
X148527230Y-94047250D01*
X148527230Y-93952012D01*
X148574850Y-93809155D01*
X148622469Y-93761536D01*
X143224380Y-95690701D02*
X144224380Y-95357368D01*
X143224380Y-95024035D01*
X144224380Y-94690701D02*
X143224380Y-94690701D01*
X144224380Y-94214511D02*
X143224380Y-94214511D01*
X144224380Y-93643082D01*
X143224380Y-93643082D01*
D15*
X142951200Y-118313200D02*
X142163800Y-118313200D01*
X142544800Y-118668800D02*
X142544800Y-117932200D01*
D16*
X146304000Y-116078000D02*
G75*
G02*
X145280200Y-117842300I-2032000J-56D01*
G01*
X145584600Y-114526800D02*
G75*
G02*
X146304000Y-116078000I-1312600J-1551163D01*
G01*
X142240000Y-116078000D02*
G75*
G03*
X143315800Y-117870900I2032000J60D01*
G01*
X142971100Y-114517000D02*
G75*
G03*
X142240000Y-116078000I1300900J-1560988D01*
G01*
D11*
X145796000Y-116078000D02*
G75*
G02*
X145207600Y-117281000I-1524000J8D01*
G01*
X145207600Y-114875000D02*
G75*
G02*
X145796000Y-116078000I-935600J-1203008D01*
G01*
X142748000Y-116078000D02*
G75*
G03*
X143357600Y-117297200I1524000J0D01*
G01*
X143386199Y-114837900D02*
G75*
G03*
X142748000Y-116078000I885801J-1240134D01*
G01*
D17*
X126952350Y-109018600D02*
X126952350Y-101018600D01*
X122952350Y-111018600D02*
X123952350Y-111018600D01*
X122952350Y-99018600D02*
X123952350Y-99018600D01*
X122952350Y-99018600D02*
X122952350Y-111018600D01*
X134340850Y-110449100D02*
X134340850Y-109179100D01*
X138785850Y-109814100D02*
X139039850Y-109814100D01*
X133705850Y-109814100D02*
X133451850Y-109814100D01*
X138785850Y-109814100D02*
X138785850Y-110576100D01*
X138785850Y-109052100D02*
X138785850Y-109814100D01*
X133705850Y-109052100D02*
X138785850Y-109052100D01*
X133705850Y-109814100D02*
X133705850Y-109052100D01*
X133705850Y-110576100D02*
X133705850Y-109814100D01*
X138785850Y-110576100D02*
X133705850Y-110576100D01*
X134241850Y-101087100D02*
X134241850Y-99817100D01*
X138686850Y-100452100D02*
X138940850Y-100452100D01*
X133606850Y-100452100D02*
X133352850Y-100452100D01*
X138686850Y-100452100D02*
X138686850Y-101214100D01*
X138686850Y-99690100D02*
X138686850Y-100452100D01*
X133606850Y-99690100D02*
X138686850Y-99690100D01*
X133606850Y-100452100D02*
X133606850Y-99690100D01*
X133606850Y-101214100D02*
X133606850Y-100452100D01*
X138686850Y-101214100D02*
X133606850Y-101214100D01*
D11*
X145161000Y-97790000D02*
X145034000Y-97790000D01*
D16*
X145161000Y-97790000D02*
X145161000Y-98552000D01*
X145161000Y-97028000D02*
X145161000Y-97790000D01*
X145669000Y-97790000D02*
X145669000Y-98552000D01*
X145669000Y-97790000D02*
X145669000Y-97028000D01*
D11*
X145796000Y-97790000D02*
X145669000Y-97790000D01*
X143002000Y-96774000D02*
X143002000Y-98806000D01*
X147828000Y-96774000D02*
X147828000Y-98806000D01*
X147574000Y-99060000D02*
X143256000Y-99060000D01*
X143256000Y-96520000D02*
X147574000Y-96520000D01*
X143256000Y-99060000D02*
G75*
G02*
X143002000Y-98806000I0J254000D01*
G01*
X147828000Y-98806000D02*
G75*
G02*
X147574000Y-99060000I-254000J0D01*
G01*
X143256000Y-96520000D02*
G75*
G03*
X143002000Y-96774000I0J-254000D01*
G01*
X147828000Y-96774000D02*
G75*
G03*
X147574000Y-96520000I-254000J0D01*
G01*
D17*
X139412350Y-105128100D02*
X133112350Y-105128100D01*
X139412350Y-102728100D02*
X139412350Y-105128100D01*
X133112350Y-102728100D02*
X139412350Y-102728100D01*
X133112350Y-105128100D02*
X133112350Y-102728100D01*
X139474850Y-108093100D02*
X133174850Y-108093100D01*
X139474850Y-105693100D02*
X139474850Y-108093100D01*
X133174850Y-105693100D02*
X139474850Y-105693100D01*
X133174850Y-108093100D02*
X133174850Y-105693100D01*
X133174850Y-111576000D02*
X139474850Y-111576000D01*
X133174850Y-113976000D02*
X133174850Y-111576000D01*
X139474850Y-113976000D02*
X133174850Y-113976000D01*
X139474850Y-111576000D02*
X139474850Y-113976000D01*
D15*
X148031200Y-118313200D02*
X147243800Y-118313200D01*
X147624800Y-118668800D02*
X147624800Y-117932200D01*
D16*
X151384000Y-116078000D02*
G75*
G02*
X150360200Y-117842300I-2032000J-56D01*
G01*
X150664600Y-114526800D02*
G75*
G02*
X151384000Y-116078000I-1312600J-1551163D01*
G01*
X147320000Y-116078000D02*
G75*
G03*
X148395800Y-117870900I2032000J60D01*
G01*
X148051100Y-114517000D02*
G75*
G03*
X147320000Y-116078000I1300900J-1560988D01*
G01*
D11*
X150876000Y-116078000D02*
G75*
G02*
X150287600Y-117281000I-1524000J8D01*
G01*
X150287600Y-114875000D02*
G75*
G02*
X150876000Y-116078000I-935600J-1203008D01*
G01*
X147828000Y-116078000D02*
G75*
G03*
X148437600Y-117297200I1524000J0D01*
G01*
X148466199Y-114837900D02*
G75*
G03*
X147828000Y-116078000I885801J-1240134D01*
G01*
D17*
X146285850Y-108773100D02*
X146285850Y-102473100D01*
X148685850Y-108773100D02*
X146285850Y-108773100D01*
X148685850Y-102473100D02*
X148685850Y-108773100D01*
X146285850Y-102473100D02*
X148685850Y-102473100D01*
X138221450Y-96975500D02*
X138221450Y-98245500D01*
X133776450Y-97610500D02*
X133522450Y-97610500D01*
X138856450Y-97610500D02*
X139110450Y-97610500D01*
X133776450Y-97610500D02*
X133776450Y-96848500D01*
X133776450Y-98372500D02*
X133776450Y-97610500D01*
X138856450Y-98372500D02*
X133776450Y-98372500D01*
X138856450Y-97610500D02*
X138856450Y-98372500D01*
X138856450Y-96848500D02*
X138856450Y-97610500D01*
X133776450Y-96848500D02*
X138856450Y-96848500D01*
X143120850Y-108773100D02*
X143120850Y-102473100D01*
X145520850Y-108773100D02*
X143120850Y-108773100D01*
X145520850Y-102473100D02*
X145520850Y-108773100D01*
X143120850Y-102473100D02*
X145520850Y-102473100D01*
X170149850Y-95346100D02*
X170149850Y-96616100D01*
X169514850Y-97251100D02*
X170149850Y-96616100D01*
X167609850Y-96616100D02*
X168244850Y-97251100D01*
X169514850Y-94711100D02*
X170149850Y-95346100D01*
X168244850Y-94711100D02*
X169514850Y-94711100D01*
X167609850Y-95346100D02*
X168244850Y-94711100D01*
X167609850Y-96616100D02*
X167609850Y-95346100D01*
X170149850Y-113126100D02*
X170149850Y-114396100D01*
X169514850Y-115031100D02*
X170149850Y-114396100D01*
X167609850Y-114396100D02*
X168244850Y-115031100D01*
X168244850Y-115031100D02*
X169514850Y-115031100D01*
X170149850Y-111856100D02*
X169514850Y-112491100D01*
X170149850Y-110586100D02*
X170149850Y-111856100D01*
X169514850Y-109951100D02*
X170149850Y-110586100D01*
X167609850Y-110586100D02*
X168244850Y-109951100D01*
X167609850Y-111856100D02*
X167609850Y-110586100D01*
X168244850Y-112491100D02*
X167609850Y-111856100D01*
X169514850Y-112491100D02*
X170149850Y-113126100D01*
X167609850Y-113126100D02*
X168244850Y-112491100D01*
X167609850Y-114396100D02*
X167609850Y-113126100D01*
X170149850Y-105506100D02*
X170149850Y-106776100D01*
X169514850Y-107411100D02*
X170149850Y-106776100D01*
X167609850Y-106776100D02*
X168244850Y-107411100D01*
X170149850Y-109316100D02*
X169514850Y-109951100D01*
X170149850Y-108046100D02*
X170149850Y-109316100D01*
X169514850Y-107411100D02*
X170149850Y-108046100D01*
X167609850Y-108046100D02*
X168244850Y-107411100D01*
X167609850Y-109316100D02*
X167609850Y-108046100D01*
X168244850Y-109951100D02*
X167609850Y-109316100D01*
X170149850Y-104236100D02*
X169514850Y-104871100D01*
X170149850Y-102966100D02*
X170149850Y-104236100D01*
X169514850Y-102331100D02*
X170149850Y-102966100D01*
X167609850Y-102966100D02*
X168244850Y-102331100D01*
X167609850Y-104236100D02*
X167609850Y-102966100D01*
X168244850Y-104871100D02*
X167609850Y-104236100D01*
X169514850Y-104871100D02*
X170149850Y-105506100D01*
X167609850Y-105506100D02*
X168244850Y-104871100D01*
X167609850Y-106776100D02*
X167609850Y-105506100D01*
X170149850Y-97886100D02*
X170149850Y-99156100D01*
X169514850Y-99791100D02*
X170149850Y-99156100D01*
X167609850Y-99156100D02*
X168244850Y-99791100D01*
X170149850Y-101696100D02*
X169514850Y-102331100D01*
X170149850Y-100426100D02*
X170149850Y-101696100D01*
X169514850Y-99791100D02*
X170149850Y-100426100D01*
X167609850Y-100426100D02*
X168244850Y-99791100D01*
X167609850Y-101696100D02*
X167609850Y-100426100D01*
X168244850Y-102331100D02*
X167609850Y-101696100D01*
X169514850Y-97251100D02*
X170149850Y-97886100D01*
X167609850Y-97886100D02*
X168244850Y-97251100D01*
X167609850Y-99156100D02*
X167609850Y-97886100D01*
D18*
G36*
X128165800Y-94552000D02*
G01*
X128418800Y-94421600D01*
X129047200Y-94934000D01*
X129478000Y-94503200D01*
X128965600Y-93874800D01*
X129182700Y-93350600D01*
X129989400Y-93268700D01*
X129989400Y-92659300D01*
X129182700Y-92577400D01*
X129095930Y-92306280D01*
X128965600Y-92053200D01*
X129478000Y-91424800D01*
X129047200Y-90994000D01*
X128418800Y-91506400D01*
X128165720Y-91376070D01*
X127894600Y-91289300D01*
X127812700Y-90482600D01*
X127203300Y-90482600D01*
X127121400Y-91289300D01*
X126850280Y-91376070D01*
X126597200Y-91506400D01*
X125968800Y-90994000D01*
X125538000Y-91424800D01*
X126050400Y-92053200D01*
X125833300Y-92577400D01*
X125026600Y-92659300D01*
X125026600Y-93268700D01*
X125833300Y-93350600D01*
X126050400Y-93874800D01*
X125538000Y-94503200D01*
X125968800Y-94934000D01*
X126597200Y-94421600D01*
X126720996Y-94492046D01*
X126850200Y-94552000D01*
X127209000Y-93685800D01*
X127012336Y-93567940D01*
X126858359Y-93398061D01*
X126760332Y-93190796D01*
X126726700Y-92964000D01*
X126749090Y-92778301D01*
X126814975Y-92603246D01*
X126920580Y-92448867D01*
X127059853Y-92324013D01*
X127224809Y-92235839D01*
X127405996Y-92189400D01*
X127593029Y-92187357D01*
X127775187Y-92229827D01*
X127942030Y-92314376D01*
X128083996Y-92436158D01*
X128192949Y-92588193D01*
X128262643Y-92761767D01*
X128289084Y-92946933D01*
X128270756Y-93133076D01*
X128208710Y-93309529D01*
X128106503Y-93466178D01*
X127807000Y-93685800D01*
X128165800Y-94552000D01*
G37*
D17*
X142542350Y-92611100D02*
X142542350Y-91341100D01*
X148257350Y-90706100D02*
X149527350Y-90706100D01*
X150162350Y-91341100D02*
X149527350Y-90706100D01*
X149527350Y-93246100D02*
X150162350Y-92611100D01*
X150162350Y-92611100D02*
X150162350Y-91341100D01*
X146987350Y-90706100D02*
X147622350Y-91341100D01*
X145717350Y-90706100D02*
X146987350Y-90706100D01*
X145082350Y-91341100D02*
X145717350Y-90706100D01*
X145717350Y-93246100D02*
X145082350Y-92611100D01*
X146987350Y-93246100D02*
X145717350Y-93246100D01*
X147622350Y-92611100D02*
X146987350Y-93246100D01*
X147622350Y-91341100D02*
X148257350Y-90706100D01*
X148257350Y-93246100D02*
X147622350Y-92611100D01*
X149527350Y-93246100D02*
X148257350Y-93246100D01*
X144447350Y-90706100D02*
X145082350Y-91341100D01*
X143177350Y-90706100D02*
X144447350Y-90706100D01*
X142542350Y-91341100D02*
X143177350Y-90706100D01*
X143177350Y-93246100D02*
X142542350Y-92611100D01*
X144447350Y-93246100D02*
X143177350Y-93246100D01*
X145082350Y-92611100D02*
X144447350Y-93246100D01*
X158369000Y-97282000D02*
X162687000Y-97282000D01*
X162687000Y-91186000D02*
X158369000Y-91186000D01*
X157480000Y-95232000D02*
X157480000Y-93218000D01*
X163576000Y-95262000D02*
X163576000Y-93218000D01*
X162306000Y-94234000D02*
G75*
G03*
X162306000Y-94234000I-1778000J0D01*
G01*
D19*
X136630000Y-95195000D02*
X140230000Y-95195000D01*
X140559301Y-94803965D02*
G75*
G02*
X140230000Y-95195000I-2129301J1458965D01*
G01*
X140570193Y-91868663D02*
G75*
G03*
X138430000Y-90745000I-2140193J-1476337D01*
G01*
X136289807Y-91868663D02*
G75*
G02*
X138430000Y-90745000I2140193J-1476337D01*
G01*
X136310283Y-94817855D02*
G75*
G03*
X136630000Y-95195000I2119717J1472855D01*
G01*
X165474000Y-110152000D02*
X165474000Y-99652000D01*
X155074000Y-110152000D02*
X165474000Y-110152000D01*
X155074000Y-99652000D02*
X155074000Y-110152000D01*
X165474000Y-99652000D02*
X155074000Y-99652000D01*
X165414000Y-107152000D02*
X165414000Y-105902000D01*
X155134000Y-107152000D02*
X165414000Y-107152000D01*
X155134000Y-102652000D02*
X155134000Y-107152000D01*
X165414000Y-102652000D02*
X155134000Y-102652000D01*
X165414000Y-103902000D02*
X165414000Y-102652000D01*
X165414000Y-105902000D02*
G75*
G02*
X165414000Y-103902000I0J1000000D01*
G01*
D20*
G36*
X153196415Y-113160024D02*
G01*
X153288130Y-113224949D01*
X153326813Y-113319140D01*
X153305229Y-113431127D01*
X153276416Y-113480761D01*
X153211791Y-113538012D01*
X153111749Y-113558558D01*
X153082388Y-113559166D01*
X152943278Y-113559166D01*
X152943278Y-113135833D01*
X153058900Y-113135833D01*
X153196415Y-113160024D01*
G37*
X153196415Y-113160024D02*
X153288130Y-113224949D01*
X153326813Y-113319140D01*
X153305229Y-113431127D01*
X153276416Y-113480761D01*
X153211791Y-113538012D01*
X153111749Y-113558558D01*
X153082388Y-113559166D01*
X152943278Y-113559166D01*
X152943278Y-113135833D01*
X153058900Y-113135833D01*
X153196415Y-113160024D01*
G36*
X154679537Y-113313755D02*
G01*
X154714730Y-113376552D01*
X154760336Y-113493665D01*
X154764021Y-113504302D01*
X154805103Y-113627386D01*
X154835096Y-113724166D01*
X154848131Y-113775599D01*
X154848278Y-113777705D01*
X154816539Y-113793911D01*
X154735392Y-113804196D01*
X154671889Y-113806111D01*
X154571232Y-113803930D01*
X154507370Y-113798353D01*
X154495500Y-113793995D01*
X154506009Y-113756887D01*
X154532811Y-113674159D01*
X154568815Y-113566758D01*
X154606930Y-113455632D01*
X154640066Y-113361729D01*
X154658570Y-113312222D01*
X154679537Y-113313755D01*
G37*
X154679537Y-113313755D02*
X154714730Y-113376552D01*
X154760336Y-113493665D01*
X154764021Y-113504302D01*
X154805103Y-113627386D01*
X154835096Y-113724166D01*
X154848131Y-113775599D01*
X154848278Y-113777705D01*
X154816539Y-113793911D01*
X154735392Y-113804196D01*
X154671889Y-113806111D01*
X154571232Y-113803930D01*
X154507370Y-113798353D01*
X154495500Y-113793995D01*
X154506009Y-113756887D01*
X154532811Y-113674159D01*
X154568815Y-113566758D01*
X154606930Y-113455632D01*
X154640066Y-113361729D01*
X154658570Y-113312222D01*
X154679537Y-113313755D01*
G36*
X166517270Y-113184710D02*
G01*
X166606553Y-113236700D01*
X166650914Y-113279260D01*
X166702956Y-113338707D01*
X166733872Y-113396278D01*
X166749116Y-113472554D01*
X166754141Y-113588118D01*
X166754528Y-113670210D01*
X166753101Y-113812275D01*
X166744853Y-113903712D01*
X166723834Y-113964441D01*
X166684095Y-114014383D01*
X166639318Y-114055949D01*
X166504639Y-114136352D01*
X166356491Y-114159937D01*
X166215643Y-114124664D01*
X166176567Y-114101361D01*
X166084656Y-113998791D01*
X166021513Y-113850333D01*
X165996179Y-113677839D01*
X165996055Y-113665000D01*
X166020994Y-113468592D01*
X166092962Y-113317651D01*
X166207689Y-113217358D01*
X166360905Y-113172898D01*
X166402999Y-113171111D01*
X166517270Y-113184710D01*
G37*
X166517270Y-113184710D02*
X166606553Y-113236700D01*
X166650914Y-113279260D01*
X166702956Y-113338707D01*
X166733872Y-113396278D01*
X166749116Y-113472554D01*
X166754141Y-113588118D01*
X166754528Y-113670210D01*
X166753101Y-113812275D01*
X166744853Y-113903712D01*
X166723834Y-113964441D01*
X166684095Y-114014383D01*
X166639318Y-114055949D01*
X166504639Y-114136352D01*
X166356491Y-114159937D01*
X166215643Y-114124664D01*
X166176567Y-114101361D01*
X166084656Y-113998791D01*
X166021513Y-113850333D01*
X165996179Y-113677839D01*
X165996055Y-113665000D01*
X166020994Y-113468592D01*
X166092962Y-113317651D01*
X166207689Y-113217358D01*
X166360905Y-113172898D01*
X166402999Y-113171111D01*
X166517270Y-113184710D01*
G36*
X167026152Y-112670181D02*
G01*
X167132688Y-112756492D01*
X167225890Y-112863801D01*
X167237819Y-112881847D01*
X167266492Y-112931561D01*
X167287485Y-112982516D01*
X167301990Y-113046218D01*
X167311198Y-113134172D01*
X167316304Y-113257883D01*
X167318497Y-113428859D01*
X167318972Y-113658604D01*
X167318972Y-113665000D01*
X167318524Y-113896312D01*
X167316386Y-114068576D01*
X167311366Y-114193298D01*
X167302271Y-114281983D01*
X167287909Y-114346136D01*
X167267087Y-114397264D01*
X167238614Y-114446872D01*
X167237819Y-114448152D01*
X167151508Y-114554688D01*
X167044199Y-114647890D01*
X167026152Y-114659819D01*
X166895639Y-114740972D01*
X159328555Y-114746774D01*
X158461482Y-114747283D01*
X157637173Y-114747455D01*
X156857520Y-114747295D01*
X156124415Y-114746812D01*
X155439748Y-114746010D01*
X154805411Y-114744898D01*
X154223294Y-114743482D01*
X153695291Y-114741768D01*
X153223290Y-114739764D01*
X152809184Y-114737475D01*
X152454865Y-114734910D01*
X152162222Y-114732074D01*
X151933147Y-114728975D01*
X151769533Y-114725619D01*
X151673268Y-114722013D01*
X151647045Y-114719365D01*
X151512933Y-114650408D01*
X151386420Y-114534372D01*
X151348628Y-114480076D01*
X163949944Y-114480076D01*
X164135153Y-114469413D01*
X164320361Y-114458750D01*
X164330554Y-114150069D01*
X164340747Y-113841389D01*
X164973000Y-113841389D01*
X164973000Y-114476389D01*
X165361055Y-114476389D01*
X165361055Y-113682469D01*
X165599556Y-113682469D01*
X165620990Y-113897137D01*
X165689367Y-114095896D01*
X165805686Y-114264434D01*
X165867729Y-114321687D01*
X166067137Y-114438518D01*
X166289842Y-114494692D01*
X166520782Y-114488765D01*
X166744892Y-114419296D01*
X166768138Y-114407888D01*
X166935508Y-114284994D01*
X167062720Y-114115564D01*
X167145970Y-113913533D01*
X167181452Y-113692836D01*
X167165361Y-113467406D01*
X167093891Y-113251180D01*
X167087517Y-113238326D01*
X166959747Y-113058415D01*
X166790806Y-112927596D01*
X166593084Y-112849037D01*
X166378975Y-112825906D01*
X166160868Y-112861370D01*
X165963305Y-112950947D01*
X165806941Y-113086131D01*
X165693530Y-113262654D01*
X165624069Y-113466204D01*
X165599556Y-113682469D01*
X165361055Y-113682469D01*
X165361055Y-112853611D01*
X164973000Y-112853611D01*
X164973000Y-113488611D01*
X164340747Y-113488611D01*
X164330554Y-113179930D01*
X164320361Y-112871250D01*
X164135153Y-112860587D01*
X163949944Y-112849924D01*
X163949944Y-114480076D01*
X151348628Y-114480076D01*
X151288351Y-114393478D01*
X151248436Y-114294398D01*
X151232795Y-114193267D01*
X151222656Y-114032739D01*
X151218448Y-113823790D01*
X151220550Y-113579771D01*
X151225769Y-113363891D01*
X151232241Y-113205809D01*
X151241663Y-113092770D01*
X151255733Y-113012016D01*
X151276149Y-112950792D01*
X151304610Y-112896342D01*
X151313459Y-112881847D01*
X151336334Y-112853611D01*
X151355778Y-112853611D01*
X151355778Y-114476389D01*
X151743833Y-114476389D01*
X151743833Y-113841389D01*
X152273000Y-113841389D01*
X152273000Y-113523889D01*
X151743833Y-113523889D01*
X151743833Y-113171111D01*
X152308278Y-113171111D01*
X152308278Y-112853611D01*
X152555222Y-112853611D01*
X152555222Y-114476389D01*
X152943278Y-114476389D01*
X152943278Y-113871980D01*
X153039945Y-113883142D01*
X153093351Y-113899531D01*
X153146982Y-113943068D01*
X153210940Y-114024941D01*
X153295325Y-114156336D01*
X153313348Y-114185919D01*
X153490083Y-114477532D01*
X154298097Y-114458750D01*
X154350485Y-114289860D01*
X154402874Y-114120971D01*
X154686228Y-114131110D01*
X154969583Y-114141250D01*
X155016814Y-114308819D01*
X155064045Y-114476389D01*
X155277436Y-114476389D01*
X155398000Y-114472866D01*
X155459840Y-114460382D01*
X155474523Y-114436065D01*
X155472262Y-114428011D01*
X155455477Y-114382023D01*
X155418615Y-114279662D01*
X155365290Y-114131013D01*
X155299119Y-113946160D01*
X155223716Y-113735188D01*
X155181385Y-113616622D01*
X154909073Y-112853611D01*
X155659667Y-112853611D01*
X155659667Y-114476389D01*
X156012444Y-114476389D01*
X156014242Y-113365139D01*
X156374940Y-113919556D01*
X156735639Y-114473974D01*
X156938486Y-114475181D01*
X157141333Y-114476389D01*
X157141333Y-114403416D01*
X157319131Y-114403416D01*
X157336645Y-114447883D01*
X157341241Y-114452870D01*
X157382420Y-114460347D01*
X157482582Y-114466843D01*
X157630155Y-114471952D01*
X157813568Y-114475268D01*
X158011518Y-114476389D01*
X158658278Y-114476389D01*
X158658278Y-114158889D01*
X158270222Y-114158889D01*
X158114283Y-114157373D01*
X157988262Y-114153264D01*
X157906398Y-114147218D01*
X157882167Y-114141016D01*
X157901942Y-114108211D01*
X157956954Y-114027694D01*
X158040729Y-113908660D01*
X158146795Y-113760303D01*
X158268681Y-113591821D01*
X158270222Y-113589702D01*
X158423643Y-113374963D01*
X158535614Y-113208921D01*
X158609619Y-113085875D01*
X158649143Y-113000126D01*
X158658278Y-112954935D01*
X158658278Y-112853611D01*
X158869944Y-112853611D01*
X158869944Y-114476389D01*
X159258000Y-114476389D01*
X159258000Y-112853611D01*
X159575500Y-112853611D01*
X159575500Y-114476389D01*
X159963555Y-114476389D01*
X159964248Y-113938402D01*
X159964941Y-113400416D01*
X160318722Y-113938402D01*
X160672503Y-114476389D01*
X161057167Y-114476389D01*
X161057167Y-112853611D01*
X161409944Y-112853611D01*
X161409944Y-114476389D01*
X161798000Y-114476389D01*
X161798000Y-112853611D01*
X162115500Y-112853611D01*
X162115500Y-114476389D01*
X162503555Y-114476389D01*
X162504041Y-113938402D01*
X162504526Y-113400416D01*
X162855609Y-113938402D01*
X163206691Y-114476389D01*
X163597167Y-114476389D01*
X163597167Y-112853611D01*
X163246226Y-112853611D01*
X163236488Y-113385758D01*
X163226750Y-113917906D01*
X162879337Y-113385758D01*
X162531923Y-112853611D01*
X162115500Y-112853611D01*
X161798000Y-112853611D01*
X161409944Y-112853611D01*
X161057167Y-112853611D01*
X160704389Y-112853611D01*
X160703003Y-113929583D01*
X159995441Y-112853611D01*
X159575500Y-112853611D01*
X159258000Y-112853611D01*
X158869944Y-112853611D01*
X158658278Y-112853611D01*
X157388278Y-112853611D01*
X157388278Y-113168724D01*
X158133524Y-113188750D01*
X157725623Y-113732744D01*
X157566862Y-113948365D01*
X157450308Y-114116731D01*
X157372486Y-114244353D01*
X157329919Y-114337743D01*
X157319131Y-114403416D01*
X157141333Y-114403416D01*
X157141333Y-112853611D01*
X156753278Y-112853611D01*
X156752446Y-113373958D01*
X156751615Y-113894305D01*
X156410208Y-113373958D01*
X156068802Y-112853611D01*
X155659667Y-112853611D01*
X154909073Y-112853611D01*
X154688422Y-112853611D01*
X154560685Y-112857594D01*
X154486719Y-112872311D01*
X154450045Y-112901914D01*
X154443441Y-112915347D01*
X154424125Y-112966846D01*
X154384952Y-113073164D01*
X154330135Y-113222800D01*
X154263889Y-113404250D01*
X154190425Y-113606012D01*
X154188218Y-113612083D01*
X154113983Y-113816089D01*
X154046277Y-114001863D01*
X153989480Y-114157413D01*
X153947968Y-114270750D01*
X153926121Y-114329883D01*
X153926015Y-114330164D01*
X153908483Y-114365464D01*
X153886370Y-114370235D01*
X153851098Y-114336871D01*
X153794089Y-114257769D01*
X153722960Y-114150156D01*
X153635644Y-114021611D01*
X153552822Y-113908616D01*
X153488567Y-113830099D01*
X153473493Y-113814660D01*
X153421690Y-113762912D01*
X153420446Y-113738077D01*
X153467836Y-113719379D01*
X153537436Y-113677916D01*
X153616201Y-113605196D01*
X153629645Y-113589852D01*
X153690710Y-113495598D01*
X153716396Y-113385877D01*
X153719389Y-113308274D01*
X153704110Y-113154682D01*
X153653878Y-113037367D01*
X153562099Y-112952470D01*
X153422180Y-112896131D01*
X153227527Y-112864492D01*
X152971546Y-112853693D01*
X152942564Y-112853611D01*
X152555222Y-112853611D01*
X152308278Y-112853611D01*
X151355778Y-112853611D01*
X151336334Y-112853611D01*
X151399770Y-112775311D01*
X151507079Y-112682110D01*
X151525125Y-112670181D01*
X151655639Y-112589027D01*
X166895639Y-112589027D01*
X167026152Y-112670181D01*
G37*
X167026152Y-112670181D02*
X167132688Y-112756492D01*
X167225890Y-112863801D01*
X167237819Y-112881847D01*
X167266492Y-112931561D01*
X167287485Y-112982516D01*
X167301990Y-113046218D01*
X167311198Y-113134172D01*
X167316304Y-113257883D01*
X167318497Y-113428859D01*
X167318972Y-113658604D01*
X167318972Y-113665000D01*
X167318524Y-113896312D01*
X167316386Y-114068576D01*
X167311366Y-114193298D01*
X167302271Y-114281983D01*
X167287909Y-114346136D01*
X167267087Y-114397264D01*
X167238614Y-114446872D01*
X167237819Y-114448152D01*
X167151508Y-114554688D01*
X167044199Y-114647890D01*
X167026152Y-114659819D01*
X166895639Y-114740972D01*
X159328555Y-114746774D01*
X158461482Y-114747283D01*
X157637173Y-114747455D01*
X156857520Y-114747295D01*
X156124415Y-114746812D01*
X155439748Y-114746010D01*
X154805411Y-114744898D01*
X154223294Y-114743482D01*
X153695291Y-114741768D01*
X153223290Y-114739764D01*
X152809184Y-114737475D01*
X152454865Y-114734910D01*
X152162222Y-114732074D01*
X151933147Y-114728975D01*
X151769533Y-114725619D01*
X151673268Y-114722013D01*
X151647045Y-114719365D01*
X151512933Y-114650408D01*
X151386420Y-114534372D01*
X151348628Y-114480076D01*
X163949944Y-114480076D01*
X164135153Y-114469413D01*
X164320361Y-114458750D01*
X164330554Y-114150069D01*
X164340747Y-113841389D01*
X164973000Y-113841389D01*
X164973000Y-114476389D01*
X165361055Y-114476389D01*
X165361055Y-113682469D01*
X165599556Y-113682469D01*
X165620990Y-113897137D01*
X165689367Y-114095896D01*
X165805686Y-114264434D01*
X165867729Y-114321687D01*
X166067137Y-114438518D01*
X166289842Y-114494692D01*
X166520782Y-114488765D01*
X166744892Y-114419296D01*
X166768138Y-114407888D01*
X166935508Y-114284994D01*
X167062720Y-114115564D01*
X167145970Y-113913533D01*
X167181452Y-113692836D01*
X167165361Y-113467406D01*
X167093891Y-113251180D01*
X167087517Y-113238326D01*
X166959747Y-113058415D01*
X166790806Y-112927596D01*
X166593084Y-112849037D01*
X166378975Y-112825906D01*
X166160868Y-112861370D01*
X165963305Y-112950947D01*
X165806941Y-113086131D01*
X165693530Y-113262654D01*
X165624069Y-113466204D01*
X165599556Y-113682469D01*
X165361055Y-113682469D01*
X165361055Y-112853611D01*
X164973000Y-112853611D01*
X164973000Y-113488611D01*
X164340747Y-113488611D01*
X164330554Y-113179930D01*
X164320361Y-112871250D01*
X164135153Y-112860587D01*
X163949944Y-112849924D01*
X163949944Y-114480076D01*
X151348628Y-114480076D01*
X151288351Y-114393478D01*
X151248436Y-114294398D01*
X151232795Y-114193267D01*
X151222656Y-114032739D01*
X151218448Y-113823790D01*
X151220550Y-113579771D01*
X151225769Y-113363891D01*
X151232241Y-113205809D01*
X151241663Y-113092770D01*
X151255733Y-113012016D01*
X151276149Y-112950792D01*
X151304610Y-112896342D01*
X151313459Y-112881847D01*
X151336334Y-112853611D01*
X151355778Y-112853611D01*
X151355778Y-114476389D01*
X151743833Y-114476389D01*
X151743833Y-113841389D01*
X152273000Y-113841389D01*
X152273000Y-113523889D01*
X151743833Y-113523889D01*
X151743833Y-113171111D01*
X152308278Y-113171111D01*
X152308278Y-112853611D01*
X152555222Y-112853611D01*
X152555222Y-114476389D01*
X152943278Y-114476389D01*
X152943278Y-113871980D01*
X153039945Y-113883142D01*
X153093351Y-113899531D01*
X153146982Y-113943068D01*
X153210940Y-114024941D01*
X153295325Y-114156336D01*
X153313348Y-114185919D01*
X153490083Y-114477532D01*
X154298097Y-114458750D01*
X154350485Y-114289860D01*
X154402874Y-114120971D01*
X154686228Y-114131110D01*
X154969583Y-114141250D01*
X155016814Y-114308819D01*
X155064045Y-114476389D01*
X155277436Y-114476389D01*
X155398000Y-114472866D01*
X155459840Y-114460382D01*
X155474523Y-114436065D01*
X155472262Y-114428011D01*
X155455477Y-114382023D01*
X155418615Y-114279662D01*
X155365290Y-114131013D01*
X155299119Y-113946160D01*
X155223716Y-113735188D01*
X155181385Y-113616622D01*
X154909073Y-112853611D01*
X155659667Y-112853611D01*
X155659667Y-114476389D01*
X156012444Y-114476389D01*
X156014242Y-113365139D01*
X156374940Y-113919556D01*
X156735639Y-114473974D01*
X156938486Y-114475181D01*
X157141333Y-114476389D01*
X157141333Y-114403416D01*
X157319131Y-114403416D01*
X157336645Y-114447883D01*
X157341241Y-114452870D01*
X157382420Y-114460347D01*
X157482582Y-114466843D01*
X157630155Y-114471952D01*
X157813568Y-114475268D01*
X158011518Y-114476389D01*
X158658278Y-114476389D01*
X158658278Y-114158889D01*
X158270222Y-114158889D01*
X158114283Y-114157373D01*
X157988262Y-114153264D01*
X157906398Y-114147218D01*
X157882167Y-114141016D01*
X157901942Y-114108211D01*
X157956954Y-114027694D01*
X158040729Y-113908660D01*
X158146795Y-113760303D01*
X158268681Y-113591821D01*
X158270222Y-113589702D01*
X158423643Y-113374963D01*
X158535614Y-113208921D01*
X158609619Y-113085875D01*
X158649143Y-113000126D01*
X158658278Y-112954935D01*
X158658278Y-112853611D01*
X158869944Y-112853611D01*
X158869944Y-114476389D01*
X159258000Y-114476389D01*
X159258000Y-112853611D01*
X159575500Y-112853611D01*
X159575500Y-114476389D01*
X159963555Y-114476389D01*
X159964248Y-113938402D01*
X159964941Y-113400416D01*
X160318722Y-113938402D01*
X160672503Y-114476389D01*
X161057167Y-114476389D01*
X161057167Y-112853611D01*
X161409944Y-112853611D01*
X161409944Y-114476389D01*
X161798000Y-114476389D01*
X161798000Y-112853611D01*
X162115500Y-112853611D01*
X162115500Y-114476389D01*
X162503555Y-114476389D01*
X162504041Y-113938402D01*
X162504526Y-113400416D01*
X162855609Y-113938402D01*
X163206691Y-114476389D01*
X163597167Y-114476389D01*
X163597167Y-112853611D01*
X163246226Y-112853611D01*
X163236488Y-113385758D01*
X163226750Y-113917906D01*
X162879337Y-113385758D01*
X162531923Y-112853611D01*
X162115500Y-112853611D01*
X161798000Y-112853611D01*
X161409944Y-112853611D01*
X161057167Y-112853611D01*
X160704389Y-112853611D01*
X160703003Y-113929583D01*
X159995441Y-112853611D01*
X159575500Y-112853611D01*
X159258000Y-112853611D01*
X158869944Y-112853611D01*
X158658278Y-112853611D01*
X157388278Y-112853611D01*
X157388278Y-113168724D01*
X158133524Y-113188750D01*
X157725623Y-113732744D01*
X157566862Y-113948365D01*
X157450308Y-114116731D01*
X157372486Y-114244353D01*
X157329919Y-114337743D01*
X157319131Y-114403416D01*
X157141333Y-114403416D01*
X157141333Y-112853611D01*
X156753278Y-112853611D01*
X156752446Y-113373958D01*
X156751615Y-113894305D01*
X156410208Y-113373958D01*
X156068802Y-112853611D01*
X155659667Y-112853611D01*
X154909073Y-112853611D01*
X154688422Y-112853611D01*
X154560685Y-112857594D01*
X154486719Y-112872311D01*
X154450045Y-112901914D01*
X154443441Y-112915347D01*
X154424125Y-112966846D01*
X154384952Y-113073164D01*
X154330135Y-113222800D01*
X154263889Y-113404250D01*
X154190425Y-113606012D01*
X154188218Y-113612083D01*
X154113983Y-113816089D01*
X154046277Y-114001863D01*
X153989480Y-114157413D01*
X153947968Y-114270750D01*
X153926121Y-114329883D01*
X153926015Y-114330164D01*
X153908483Y-114365464D01*
X153886370Y-114370235D01*
X153851098Y-114336871D01*
X153794089Y-114257769D01*
X153722960Y-114150156D01*
X153635644Y-114021611D01*
X153552822Y-113908616D01*
X153488567Y-113830099D01*
X153473493Y-113814660D01*
X153421690Y-113762912D01*
X153420446Y-113738077D01*
X153467836Y-113719379D01*
X153537436Y-113677916D01*
X153616201Y-113605196D01*
X153629645Y-113589852D01*
X153690710Y-113495598D01*
X153716396Y-113385877D01*
X153719389Y-113308274D01*
X153704110Y-113154682D01*
X153653878Y-113037367D01*
X153562099Y-112952470D01*
X153422180Y-112896131D01*
X153227527Y-112864492D01*
X152971546Y-112853693D01*
X152942564Y-112853611D01*
X152555222Y-112853611D01*
X152308278Y-112853611D01*
X151355778Y-112853611D01*
X151336334Y-112853611D01*
X151399770Y-112775311D01*
X151507079Y-112682110D01*
X151525125Y-112670181D01*
X151655639Y-112589027D01*
X166895639Y-112589027D01*
X167026152Y-112670181D01*
G36*
X151771119Y-106766929D02*
G01*
X151828949Y-106778033D01*
X151892375Y-106795380D01*
X151957065Y-106817368D01*
X152018685Y-106842393D01*
X152072902Y-106868851D01*
X152113056Y-106893462D01*
X152129915Y-106904511D01*
X152140982Y-106910041D01*
X152141896Y-106910188D01*
X152153820Y-106915662D01*
X152174288Y-106930671D01*
X152201070Y-106953091D01*
X152231934Y-106980799D01*
X152264649Y-107011671D01*
X152296983Y-107043585D01*
X152326705Y-107074416D01*
X152351584Y-107102043D01*
X152369389Y-107124341D01*
X152373708Y-107130770D01*
X152388320Y-107152093D01*
X152401242Y-107168431D01*
X152415634Y-107188934D01*
X152433746Y-107220818D01*
X152453905Y-107260534D01*
X152474436Y-107304534D01*
X152493665Y-107349269D01*
X152509918Y-107391190D01*
X152518866Y-107417734D01*
X152535207Y-107475178D01*
X152546704Y-107527508D01*
X152553891Y-107579306D01*
X152557301Y-107635155D01*
X152557470Y-107699637D01*
X152556402Y-107739656D01*
X152552954Y-107805912D01*
X152547576Y-107862359D01*
X152540503Y-107907493D01*
X152531973Y-107939813D01*
X152522222Y-107957815D01*
X152522060Y-107957975D01*
X152513960Y-107955477D01*
X152497302Y-107943182D01*
X152474341Y-107922919D01*
X152451593Y-107900836D01*
X152419599Y-107869590D01*
X152380549Y-107832929D01*
X152339581Y-107795605D01*
X152304750Y-107764891D01*
X152273291Y-107737609D01*
X152245362Y-107713177D01*
X152223582Y-107693902D01*
X152210569Y-107682088D01*
X152208988Y-107680566D01*
X152195846Y-107669091D01*
X152175157Y-107652622D01*
X152159067Y-107640438D01*
X152133239Y-107621010D01*
X152101846Y-107596985D01*
X152072266Y-107574016D01*
X152034749Y-107546049D01*
X151986696Y-107512396D01*
X151931392Y-107475173D01*
X151872124Y-107436500D01*
X151812181Y-107398495D01*
X151754848Y-107363274D01*
X151703413Y-107332957D01*
X151665781Y-107312092D01*
X151641585Y-107299032D01*
X151621934Y-107288022D01*
X151614187Y-107283396D01*
X151604005Y-107278020D01*
X151582325Y-107267278D01*
X151552023Y-107252545D01*
X151515971Y-107235197D01*
X151477045Y-107216610D01*
X151438119Y-107198160D01*
X151402068Y-107181224D01*
X151371764Y-107167176D01*
X151364156Y-107163699D01*
X151310227Y-107140599D01*
X151243279Y-107114312D01*
X151165637Y-107085727D01*
X151102218Y-107063466D01*
X151060102Y-107048837D01*
X151023460Y-107035873D01*
X150994832Y-107025491D01*
X150976758Y-107018608D01*
X150971639Y-107016281D01*
X150973915Y-107008453D01*
X150987498Y-106994042D01*
X151010135Y-106974718D01*
X151039573Y-106952151D01*
X151073557Y-106928010D01*
X151109834Y-106903967D01*
X151146152Y-106881691D01*
X151174860Y-106865662D01*
X151286275Y-106815726D01*
X151402429Y-106780875D01*
X151522913Y-106761177D01*
X151647320Y-106756700D01*
X151771119Y-106766929D01*
G37*
X151771119Y-106766929D02*
X151828949Y-106778033D01*
X151892375Y-106795380D01*
X151957065Y-106817368D01*
X152018685Y-106842393D01*
X152072902Y-106868851D01*
X152113056Y-106893462D01*
X152129915Y-106904511D01*
X152140982Y-106910041D01*
X152141896Y-106910188D01*
X152153820Y-106915662D01*
X152174288Y-106930671D01*
X152201070Y-106953091D01*
X152231934Y-106980799D01*
X152264649Y-107011671D01*
X152296983Y-107043585D01*
X152326705Y-107074416D01*
X152351584Y-107102043D01*
X152369389Y-107124341D01*
X152373708Y-107130770D01*
X152388320Y-107152093D01*
X152401242Y-107168431D01*
X152415634Y-107188934D01*
X152433746Y-107220818D01*
X152453905Y-107260534D01*
X152474436Y-107304534D01*
X152493665Y-107349269D01*
X152509918Y-107391190D01*
X152518866Y-107417734D01*
X152535207Y-107475178D01*
X152546704Y-107527508D01*
X152553891Y-107579306D01*
X152557301Y-107635155D01*
X152557470Y-107699637D01*
X152556402Y-107739656D01*
X152552954Y-107805912D01*
X152547576Y-107862359D01*
X152540503Y-107907493D01*
X152531973Y-107939813D01*
X152522222Y-107957815D01*
X152522060Y-107957975D01*
X152513960Y-107955477D01*
X152497302Y-107943182D01*
X152474341Y-107922919D01*
X152451593Y-107900836D01*
X152419599Y-107869590D01*
X152380549Y-107832929D01*
X152339581Y-107795605D01*
X152304750Y-107764891D01*
X152273291Y-107737609D01*
X152245362Y-107713177D01*
X152223582Y-107693902D01*
X152210569Y-107682088D01*
X152208988Y-107680566D01*
X152195846Y-107669091D01*
X152175157Y-107652622D01*
X152159067Y-107640438D01*
X152133239Y-107621010D01*
X152101846Y-107596985D01*
X152072266Y-107574016D01*
X152034749Y-107546049D01*
X151986696Y-107512396D01*
X151931392Y-107475173D01*
X151872124Y-107436500D01*
X151812181Y-107398495D01*
X151754848Y-107363274D01*
X151703413Y-107332957D01*
X151665781Y-107312092D01*
X151641585Y-107299032D01*
X151621934Y-107288022D01*
X151614187Y-107283396D01*
X151604005Y-107278020D01*
X151582325Y-107267278D01*
X151552023Y-107252545D01*
X151515971Y-107235197D01*
X151477045Y-107216610D01*
X151438119Y-107198160D01*
X151402068Y-107181224D01*
X151371764Y-107167176D01*
X151364156Y-107163699D01*
X151310227Y-107140599D01*
X151243279Y-107114312D01*
X151165637Y-107085727D01*
X151102218Y-107063466D01*
X151060102Y-107048837D01*
X151023460Y-107035873D01*
X150994832Y-107025491D01*
X150976758Y-107018608D01*
X150971639Y-107016281D01*
X150973915Y-107008453D01*
X150987498Y-106994042D01*
X151010135Y-106974718D01*
X151039573Y-106952151D01*
X151073557Y-106928010D01*
X151109834Y-106903967D01*
X151146152Y-106881691D01*
X151174860Y-106865662D01*
X151286275Y-106815726D01*
X151402429Y-106780875D01*
X151522913Y-106761177D01*
X151647320Y-106756700D01*
X151771119Y-106766929D01*
G36*
X150827200Y-107216949D02*
G01*
X150828292Y-107217202D01*
X150846588Y-107222913D01*
X150856156Y-107227541D01*
X150867481Y-107232330D01*
X150889366Y-107239397D01*
X150915687Y-107246832D01*
X150946759Y-107255819D01*
X150986820Y-107268440D01*
X151030974Y-107283046D01*
X151074329Y-107297984D01*
X151111989Y-107311606D01*
X151137937Y-107321782D01*
X151155151Y-107328784D01*
X151181624Y-107339252D01*
X151211783Y-107350984D01*
X151213343Y-107351586D01*
X151237891Y-107361627D01*
X151271348Y-107376106D01*
X151310644Y-107393607D01*
X151352707Y-107412717D01*
X151394467Y-107432020D01*
X151432853Y-107450100D01*
X151464792Y-107465543D01*
X151487216Y-107476934D01*
X151495125Y-107481425D01*
X151516473Y-107494382D01*
X151546281Y-107511620D01*
X151578973Y-107529993D01*
X151608977Y-107546358D01*
X151625760Y-107555119D01*
X151650714Y-107568570D01*
X151673205Y-107582055D01*
X151677353Y-107584807D01*
X151690508Y-107593726D01*
X151714219Y-107609700D01*
X151745849Y-107630956D01*
X151782758Y-107655721D01*
X151812625Y-107675735D01*
X151909487Y-107742462D01*
X151995043Y-107805506D01*
X152072606Y-107867374D01*
X152122769Y-107910313D01*
X152150953Y-107935093D01*
X152177290Y-107958189D01*
X152197729Y-107976049D01*
X152204290Y-107981750D01*
X152221381Y-107997372D01*
X152244925Y-108020017D01*
X152272826Y-108047547D01*
X152302994Y-108077824D01*
X152333333Y-108108709D01*
X152361752Y-108138065D01*
X152386157Y-108163753D01*
X152404455Y-108183636D01*
X152414554Y-108195576D01*
X152415875Y-108197880D01*
X152410985Y-108208962D01*
X152397812Y-108229018D01*
X152378597Y-108255143D01*
X152355584Y-108284427D01*
X152331016Y-108313964D01*
X152307135Y-108340845D01*
X152298813Y-108349648D01*
X152262451Y-108384964D01*
X152220776Y-108421747D01*
X152178313Y-108456245D01*
X152139590Y-108484707D01*
X152122187Y-108496028D01*
X152051296Y-108534908D01*
X151974649Y-108569367D01*
X151897455Y-108597354D01*
X151824924Y-108616817D01*
X151806451Y-108620409D01*
X151772074Y-108625302D01*
X151729422Y-108629674D01*
X151682611Y-108633288D01*
X151635762Y-108635906D01*
X151592991Y-108637290D01*
X151558417Y-108637204D01*
X151538781Y-108635830D01*
X151519451Y-108633173D01*
X151490196Y-108629185D01*
X151456824Y-108624656D01*
X151451468Y-108623931D01*
X151411652Y-108616736D01*
X151366402Y-108605852D01*
X151325005Y-108593533D01*
X151322091Y-108592537D01*
X151287426Y-108579660D01*
X151249336Y-108564108D01*
X151211678Y-108547614D01*
X151178311Y-108531911D01*
X151153092Y-108518732D01*
X151141906Y-108511594D01*
X151130717Y-108503656D01*
X151112065Y-108491091D01*
X151104229Y-108485926D01*
X151078433Y-108468738D01*
X151052859Y-108451261D01*
X151048666Y-108448335D01*
X151031427Y-108434492D01*
X151006890Y-108412579D01*
X150978052Y-108385526D01*
X150947913Y-108356262D01*
X150919472Y-108327717D01*
X150895726Y-108302819D01*
X150879676Y-108284497D01*
X150876258Y-108279928D01*
X150844131Y-108232078D01*
X150819324Y-108193713D01*
X150799781Y-108161506D01*
X150783449Y-108132132D01*
X150775574Y-108116934D01*
X150762738Y-108090877D01*
X150753333Y-108070386D01*
X150749202Y-108059496D01*
X150749148Y-108059054D01*
X150745950Y-108048801D01*
X150738027Y-108029789D01*
X150733284Y-108019367D01*
X150725362Y-107998088D01*
X150715748Y-107965783D01*
X150705714Y-107927022D01*
X150697393Y-107890469D01*
X150680071Y-107770905D01*
X150678372Y-107650789D01*
X150692134Y-107531290D01*
X150721199Y-107413576D01*
X150765405Y-107298816D01*
X150783312Y-107261748D01*
X150797115Y-107235822D01*
X150807158Y-107221568D01*
X150816250Y-107216204D01*
X150827200Y-107216949D01*
G37*
X150827200Y-107216949D02*
X150828292Y-107217202D01*
X150846588Y-107222913D01*
X150856156Y-107227541D01*
X150867481Y-107232330D01*
X150889366Y-107239397D01*
X150915687Y-107246832D01*
X150946759Y-107255819D01*
X150986820Y-107268440D01*
X151030974Y-107283046D01*
X151074329Y-107297984D01*
X151111989Y-107311606D01*
X151137937Y-107321782D01*
X151155151Y-107328784D01*
X151181624Y-107339252D01*
X151211783Y-107350984D01*
X151213343Y-107351586D01*
X151237891Y-107361627D01*
X151271348Y-107376106D01*
X151310644Y-107393607D01*
X151352707Y-107412717D01*
X151394467Y-107432020D01*
X151432853Y-107450100D01*
X151464792Y-107465543D01*
X151487216Y-107476934D01*
X151495125Y-107481425D01*
X151516473Y-107494382D01*
X151546281Y-107511620D01*
X151578973Y-107529993D01*
X151608977Y-107546358D01*
X151625760Y-107555119D01*
X151650714Y-107568570D01*
X151673205Y-107582055D01*
X151677353Y-107584807D01*
X151690508Y-107593726D01*
X151714219Y-107609700D01*
X151745849Y-107630956D01*
X151782758Y-107655721D01*
X151812625Y-107675735D01*
X151909487Y-107742462D01*
X151995043Y-107805506D01*
X152072606Y-107867374D01*
X152122769Y-107910313D01*
X152150953Y-107935093D01*
X152177290Y-107958189D01*
X152197729Y-107976049D01*
X152204290Y-107981750D01*
X152221381Y-107997372D01*
X152244925Y-108020017D01*
X152272826Y-108047547D01*
X152302994Y-108077824D01*
X152333333Y-108108709D01*
X152361752Y-108138065D01*
X152386157Y-108163753D01*
X152404455Y-108183636D01*
X152414554Y-108195576D01*
X152415875Y-108197880D01*
X152410985Y-108208962D01*
X152397812Y-108229018D01*
X152378597Y-108255143D01*
X152355584Y-108284427D01*
X152331016Y-108313964D01*
X152307135Y-108340845D01*
X152298813Y-108349648D01*
X152262451Y-108384964D01*
X152220776Y-108421747D01*
X152178313Y-108456245D01*
X152139590Y-108484707D01*
X152122187Y-108496028D01*
X152051296Y-108534908D01*
X151974649Y-108569367D01*
X151897455Y-108597354D01*
X151824924Y-108616817D01*
X151806451Y-108620409D01*
X151772074Y-108625302D01*
X151729422Y-108629674D01*
X151682611Y-108633288D01*
X151635762Y-108635906D01*
X151592991Y-108637290D01*
X151558417Y-108637204D01*
X151538781Y-108635830D01*
X151519451Y-108633173D01*
X151490196Y-108629185D01*
X151456824Y-108624656D01*
X151451468Y-108623931D01*
X151411652Y-108616736D01*
X151366402Y-108605852D01*
X151325005Y-108593533D01*
X151322091Y-108592537D01*
X151287426Y-108579660D01*
X151249336Y-108564108D01*
X151211678Y-108547614D01*
X151178311Y-108531911D01*
X151153092Y-108518732D01*
X151141906Y-108511594D01*
X151130717Y-108503656D01*
X151112065Y-108491091D01*
X151104229Y-108485926D01*
X151078433Y-108468738D01*
X151052859Y-108451261D01*
X151048666Y-108448335D01*
X151031427Y-108434492D01*
X151006890Y-108412579D01*
X150978052Y-108385526D01*
X150947913Y-108356262D01*
X150919472Y-108327717D01*
X150895726Y-108302819D01*
X150879676Y-108284497D01*
X150876258Y-108279928D01*
X150844131Y-108232078D01*
X150819324Y-108193713D01*
X150799781Y-108161506D01*
X150783449Y-108132132D01*
X150775574Y-108116934D01*
X150762738Y-108090877D01*
X150753333Y-108070386D01*
X150749202Y-108059496D01*
X150749148Y-108059054D01*
X150745950Y-108048801D01*
X150738027Y-108029789D01*
X150733284Y-108019367D01*
X150725362Y-107998088D01*
X150715748Y-107965783D01*
X150705714Y-107927022D01*
X150697393Y-107890469D01*
X150680071Y-107770905D01*
X150678372Y-107650789D01*
X150692134Y-107531290D01*
X150721199Y-107413576D01*
X150765405Y-107298816D01*
X150783312Y-107261748D01*
X150797115Y-107235822D01*
X150807158Y-107221568D01*
X150816250Y-107216204D01*
X150827200Y-107216949D01*
G36*
X154106562Y-109267625D02*
G01*
X149177375Y-109267625D01*
X149177375Y-107695952D01*
X149617906Y-107695952D01*
X149639050Y-107713835D01*
X149655021Y-107726530D01*
X149679625Y-107745168D01*
X149708552Y-107766504D01*
X149720796Y-107775375D01*
X149751169Y-107797298D01*
X149779983Y-107818167D01*
X149802480Y-107834535D01*
X149808406Y-107838875D01*
X149827513Y-107852841D01*
X149854529Y-107872499D01*
X149884494Y-107894240D01*
X149893347Y-107900652D01*
X149926212Y-107924518D01*
X149965432Y-107953118D01*
X150004587Y-107981764D01*
X150021150Y-107993917D01*
X150050097Y-108014748D01*
X150074527Y-108031516D01*
X150091534Y-108042275D01*
X150097880Y-108045250D01*
X150107184Y-108050893D01*
X150107385Y-108051316D01*
X150114769Y-108058525D01*
X150132494Y-108072771D01*
X150157867Y-108092029D01*
X150188194Y-108114273D01*
X150220781Y-108137480D01*
X150237031Y-108148777D01*
X150251992Y-108159399D01*
X150276652Y-108177252D01*
X150307957Y-108200111D01*
X150342855Y-108225753D01*
X150354306Y-108234201D01*
X150397988Y-108266366D01*
X150447045Y-108302344D01*
X150495351Y-108337649D01*
X150535297Y-108366719D01*
X150563971Y-108387528D01*
X150592197Y-108408028D01*
X150621872Y-108429599D01*
X150654888Y-108453619D01*
X150693140Y-108481466D01*
X150738523Y-108514520D01*
X150792932Y-108554160D01*
X150858260Y-108601763D01*
X150858771Y-108602136D01*
X150887675Y-108623322D01*
X150914137Y-108642932D01*
X150933726Y-108657677D01*
X150938146Y-108661085D01*
X150954994Y-108673567D01*
X150980053Y-108691352D01*
X151008339Y-108710911D01*
X151012715Y-108713890D01*
X151039373Y-108732312D01*
X151061933Y-108748470D01*
X151076296Y-108759415D01*
X151077956Y-108760836D01*
X151090731Y-108770971D01*
X151111597Y-108786208D01*
X151130337Y-108799313D01*
X151157528Y-108818232D01*
X151183967Y-108837064D01*
X151197464Y-108846938D01*
X151213771Y-108859001D01*
X151239610Y-108878007D01*
X151271691Y-108901539D01*
X151306722Y-108927181D01*
X151313961Y-108932473D01*
X151354052Y-108961801D01*
X151401693Y-108996692D01*
X151451642Y-109033306D01*
X151498659Y-109067803D01*
X151511000Y-109076865D01*
X151547253Y-109103078D01*
X151579540Y-109125648D01*
X151605512Y-109142996D01*
X151622823Y-109153540D01*
X151628607Y-109156032D01*
X151641328Y-109151914D01*
X151659711Y-109141121D01*
X151664326Y-109137841D01*
X151680724Y-109125791D01*
X151706359Y-109107020D01*
X151737637Y-109084157D01*
X151768968Y-109061288D01*
X151803367Y-109036177D01*
X151836563Y-109011906D01*
X151864533Y-108991420D01*
X151881787Y-108978744D01*
X151895445Y-108968699D01*
X151911210Y-108957157D01*
X151930771Y-108942891D01*
X151955817Y-108924670D01*
X151988039Y-108901266D01*
X152029127Y-108871449D01*
X152080770Y-108833992D01*
X152102343Y-108818347D01*
X152132983Y-108796128D01*
X152160220Y-108776373D01*
X152180652Y-108761551D01*
X152189656Y-108755016D01*
X152201159Y-108746687D01*
X152223064Y-108730844D01*
X152252903Y-108709273D01*
X152288211Y-108683757D01*
X152317964Y-108662260D01*
X152424388Y-108585343D01*
X152518196Y-108517480D01*
X152599669Y-108458465D01*
X152669089Y-108408094D01*
X152726737Y-108366164D01*
X152772893Y-108332470D01*
X152807838Y-108306807D01*
X152831853Y-108288971D01*
X152844400Y-108279406D01*
X152864868Y-108263834D01*
X152893331Y-108242855D01*
X152924770Y-108220152D01*
X152936314Y-108211938D01*
X152968836Y-108188674D01*
X153008446Y-108159998D01*
X153049516Y-108129998D01*
X153077994Y-108109011D01*
X153114885Y-108081943D01*
X153153071Y-108054344D01*
X153187587Y-108029783D01*
X153209625Y-108014440D01*
X153238104Y-107994671D01*
X153264682Y-107975740D01*
X153283948Y-107961506D01*
X153285031Y-107960671D01*
X153319127Y-107934833D01*
X153362957Y-107902556D01*
X153413123Y-107866322D01*
X153453832Y-107837357D01*
X153484464Y-107815441D01*
X153518542Y-107790638D01*
X153552750Y-107765410D01*
X153583772Y-107742216D01*
X153608294Y-107723515D01*
X153622375Y-107712301D01*
X153642218Y-107695555D01*
X153622375Y-107680071D01*
X153606046Y-107667717D01*
X153579783Y-107648284D01*
X153546560Y-107623932D01*
X153509349Y-107596825D01*
X153471124Y-107569124D01*
X153434857Y-107542992D01*
X153403523Y-107520591D01*
X153387797Y-107509469D01*
X153363726Y-107492254D01*
X153344245Y-107477776D01*
X153333666Y-107469253D01*
X153321100Y-107459311D01*
X153302577Y-107446524D01*
X153300906Y-107445440D01*
X153282103Y-107432659D01*
X153255371Y-107413695D01*
X153225149Y-107391786D01*
X153195877Y-107370172D01*
X153171994Y-107352092D01*
X153160664Y-107343112D01*
X153148693Y-107333920D01*
X153127303Y-107318150D01*
X153100031Y-107298395D01*
X153082541Y-107285868D01*
X153052129Y-107264178D01*
X153024156Y-107244228D01*
X153002753Y-107228964D01*
X152995398Y-107223719D01*
X152979360Y-107212166D01*
X152954578Y-107194180D01*
X152925110Y-107172711D01*
X152908009Y-107160219D01*
X152878483Y-107138689D01*
X152852127Y-107119582D01*
X152832650Y-107105580D01*
X152825831Y-107100761D01*
X152811531Y-107090517D01*
X152788849Y-107073924D01*
X152762109Y-107054153D01*
X152755408Y-107049168D01*
X152726699Y-107027908D01*
X152699394Y-107007906D01*
X152678675Y-106992952D01*
X152676033Y-106991080D01*
X152631935Y-106959940D01*
X152599141Y-106936625D01*
X152575925Y-106919892D01*
X152560564Y-106908494D01*
X152551332Y-106901188D01*
X152550681Y-106900636D01*
X152535675Y-106889172D01*
X152515958Y-106875619D01*
X152515169Y-106875105D01*
X152496925Y-106862807D01*
X152484166Y-106853416D01*
X152483550Y-106852901D01*
X152472702Y-106844433D01*
X152452650Y-106829423D01*
X152427086Y-106810588D01*
X152399699Y-106790645D01*
X152374179Y-106772314D01*
X152372727Y-106771281D01*
X152344955Y-106751359D01*
X152308240Y-106724753D01*
X152266389Y-106694235D01*
X152223210Y-106662580D01*
X152197593Y-106643710D01*
X152168773Y-106622593D01*
X152131862Y-106595775D01*
X152091701Y-106566763D01*
X152054642Y-106540144D01*
X152016472Y-106512737D01*
X151977457Y-106484576D01*
X151942214Y-106459001D01*
X151915735Y-106439631D01*
X151843557Y-106386522D01*
X151783584Y-106342565D01*
X151735316Y-106307397D01*
X151698252Y-106280653D01*
X151671891Y-106261969D01*
X151663613Y-106256249D01*
X151630062Y-106233341D01*
X151596444Y-106256249D01*
X151576169Y-106270436D01*
X151547341Y-106291087D01*
X151514143Y-106315189D01*
X151487303Y-106334888D01*
X151455825Y-106358036D01*
X151427561Y-106378672D01*
X151405807Y-106394400D01*
X151394548Y-106402357D01*
X151382905Y-106410627D01*
X151360802Y-106426630D01*
X151330553Y-106448676D01*
X151294477Y-106475077D01*
X151254890Y-106504144D01*
X151253217Y-106505375D01*
X151213071Y-106534869D01*
X151175904Y-106562106D01*
X151144157Y-106585303D01*
X151120271Y-106602678D01*
X151106685Y-106612447D01*
X151106565Y-106612531D01*
X151090156Y-106624241D01*
X151065178Y-106642251D01*
X151035879Y-106663492D01*
X151021678Y-106673827D01*
X150993553Y-106694275D01*
X150956363Y-106721252D01*
X150913915Y-106751996D01*
X150870018Y-106783750D01*
X150844250Y-106802369D01*
X150801816Y-106833035D01*
X150758976Y-106864029D01*
X150719388Y-106892703D01*
X150686710Y-106916407D01*
X150671306Y-106927605D01*
X150641751Y-106949095D01*
X150613899Y-106969307D01*
X150592556Y-106984751D01*
X150587962Y-106988063D01*
X150570059Y-107001071D01*
X150543925Y-107020213D01*
X150514083Y-107042173D01*
X150501364Y-107051563D01*
X150470859Y-107073989D01*
X150441671Y-107095248D01*
X150418543Y-107111891D01*
X150411938Y-107116563D01*
X150392665Y-107130304D01*
X150365367Y-107150066D01*
X150334775Y-107172416D01*
X150322230Y-107181641D01*
X150292285Y-107203683D01*
X150266191Y-107222820D01*
X150240405Y-107241630D01*
X150211386Y-107262693D01*
X150175591Y-107288587D01*
X150143450Y-107311803D01*
X150108569Y-107337178D01*
X150069641Y-107365778D01*
X150036294Y-107390517D01*
X150008116Y-107411268D01*
X149981755Y-107430160D01*
X149962131Y-107443679D01*
X149959425Y-107445443D01*
X149941105Y-107457686D01*
X149928302Y-107467114D01*
X149927675Y-107467646D01*
X149918351Y-107474819D01*
X149898930Y-107489167D01*
X149872224Y-107508628D01*
X149841046Y-107531140D01*
X149840152Y-107531783D01*
X149784721Y-107571756D01*
X149735212Y-107607706D01*
X149693282Y-107638421D01*
X149660584Y-107662685D01*
X149638773Y-107679287D01*
X149635232Y-107682085D01*
X149617906Y-107695952D01*
X149177375Y-107695952D01*
X149177375Y-106124375D01*
X154106562Y-106124375D01*
X154106562Y-109267625D01*
G37*
X154106562Y-109267625D02*
X149177375Y-109267625D01*
X149177375Y-107695952D01*
X149617906Y-107695952D01*
X149639050Y-107713835D01*
X149655021Y-107726530D01*
X149679625Y-107745168D01*
X149708552Y-107766504D01*
X149720796Y-107775375D01*
X149751169Y-107797298D01*
X149779983Y-107818167D01*
X149802480Y-107834535D01*
X149808406Y-107838875D01*
X149827513Y-107852841D01*
X149854529Y-107872499D01*
X149884494Y-107894240D01*
X149893347Y-107900652D01*
X149926212Y-107924518D01*
X149965432Y-107953118D01*
X150004587Y-107981764D01*
X150021150Y-107993917D01*
X150050097Y-108014748D01*
X150074527Y-108031516D01*
X150091534Y-108042275D01*
X150097880Y-108045250D01*
X150107184Y-108050893D01*
X150107385Y-108051316D01*
X150114769Y-108058525D01*
X150132494Y-108072771D01*
X150157867Y-108092029D01*
X150188194Y-108114273D01*
X150220781Y-108137480D01*
X150237031Y-108148777D01*
X150251992Y-108159399D01*
X150276652Y-108177252D01*
X150307957Y-108200111D01*
X150342855Y-108225753D01*
X150354306Y-108234201D01*
X150397988Y-108266366D01*
X150447045Y-108302344D01*
X150495351Y-108337649D01*
X150535297Y-108366719D01*
X150563971Y-108387528D01*
X150592197Y-108408028D01*
X150621872Y-108429599D01*
X150654888Y-108453619D01*
X150693140Y-108481466D01*
X150738523Y-108514520D01*
X150792932Y-108554160D01*
X150858260Y-108601763D01*
X150858771Y-108602136D01*
X150887675Y-108623322D01*
X150914137Y-108642932D01*
X150933726Y-108657677D01*
X150938146Y-108661085D01*
X150954994Y-108673567D01*
X150980053Y-108691352D01*
X151008339Y-108710911D01*
X151012715Y-108713890D01*
X151039373Y-108732312D01*
X151061933Y-108748470D01*
X151076296Y-108759415D01*
X151077956Y-108760836D01*
X151090731Y-108770971D01*
X151111597Y-108786208D01*
X151130337Y-108799313D01*
X151157528Y-108818232D01*
X151183967Y-108837064D01*
X151197464Y-108846938D01*
X151213771Y-108859001D01*
X151239610Y-108878007D01*
X151271691Y-108901539D01*
X151306722Y-108927181D01*
X151313961Y-108932473D01*
X151354052Y-108961801D01*
X151401693Y-108996692D01*
X151451642Y-109033306D01*
X151498659Y-109067803D01*
X151511000Y-109076865D01*
X151547253Y-109103078D01*
X151579540Y-109125648D01*
X151605512Y-109142996D01*
X151622823Y-109153540D01*
X151628607Y-109156032D01*
X151641328Y-109151914D01*
X151659711Y-109141121D01*
X151664326Y-109137841D01*
X151680724Y-109125791D01*
X151706359Y-109107020D01*
X151737637Y-109084157D01*
X151768968Y-109061288D01*
X151803367Y-109036177D01*
X151836563Y-109011906D01*
X151864533Y-108991420D01*
X151881787Y-108978744D01*
X151895445Y-108968699D01*
X151911210Y-108957157D01*
X151930771Y-108942891D01*
X151955817Y-108924670D01*
X151988039Y-108901266D01*
X152029127Y-108871449D01*
X152080770Y-108833992D01*
X152102343Y-108818347D01*
X152132983Y-108796128D01*
X152160220Y-108776373D01*
X152180652Y-108761551D01*
X152189656Y-108755016D01*
X152201159Y-108746687D01*
X152223064Y-108730844D01*
X152252903Y-108709273D01*
X152288211Y-108683757D01*
X152317964Y-108662260D01*
X152424388Y-108585343D01*
X152518196Y-108517480D01*
X152599669Y-108458465D01*
X152669089Y-108408094D01*
X152726737Y-108366164D01*
X152772893Y-108332470D01*
X152807838Y-108306807D01*
X152831853Y-108288971D01*
X152844400Y-108279406D01*
X152864868Y-108263834D01*
X152893331Y-108242855D01*
X152924770Y-108220152D01*
X152936314Y-108211938D01*
X152968836Y-108188674D01*
X153008446Y-108159998D01*
X153049516Y-108129998D01*
X153077994Y-108109011D01*
X153114885Y-108081943D01*
X153153071Y-108054344D01*
X153187587Y-108029783D01*
X153209625Y-108014440D01*
X153238104Y-107994671D01*
X153264682Y-107975740D01*
X153283948Y-107961506D01*
X153285031Y-107960671D01*
X153319127Y-107934833D01*
X153362957Y-107902556D01*
X153413123Y-107866322D01*
X153453832Y-107837357D01*
X153484464Y-107815441D01*
X153518542Y-107790638D01*
X153552750Y-107765410D01*
X153583772Y-107742216D01*
X153608294Y-107723515D01*
X153622375Y-107712301D01*
X153642218Y-107695555D01*
X153622375Y-107680071D01*
X153606046Y-107667717D01*
X153579783Y-107648284D01*
X153546560Y-107623932D01*
X153509349Y-107596825D01*
X153471124Y-107569124D01*
X153434857Y-107542992D01*
X153403523Y-107520591D01*
X153387797Y-107509469D01*
X153363726Y-107492254D01*
X153344245Y-107477776D01*
X153333666Y-107469253D01*
X153321100Y-107459311D01*
X153302577Y-107446524D01*
X153300906Y-107445440D01*
X153282103Y-107432659D01*
X153255371Y-107413695D01*
X153225149Y-107391786D01*
X153195877Y-107370172D01*
X153171994Y-107352092D01*
X153160664Y-107343112D01*
X153148693Y-107333920D01*
X153127303Y-107318150D01*
X153100031Y-107298395D01*
X153082541Y-107285868D01*
X153052129Y-107264178D01*
X153024156Y-107244228D01*
X153002753Y-107228964D01*
X152995398Y-107223719D01*
X152979360Y-107212166D01*
X152954578Y-107194180D01*
X152925110Y-107172711D01*
X152908009Y-107160219D01*
X152878483Y-107138689D01*
X152852127Y-107119582D01*
X152832650Y-107105580D01*
X152825831Y-107100761D01*
X152811531Y-107090517D01*
X152788849Y-107073924D01*
X152762109Y-107054153D01*
X152755408Y-107049168D01*
X152726699Y-107027908D01*
X152699394Y-107007906D01*
X152678675Y-106992952D01*
X152676033Y-106991080D01*
X152631935Y-106959940D01*
X152599141Y-106936625D01*
X152575925Y-106919892D01*
X152560564Y-106908494D01*
X152551332Y-106901188D01*
X152550681Y-106900636D01*
X152535675Y-106889172D01*
X152515958Y-106875619D01*
X152515169Y-106875105D01*
X152496925Y-106862807D01*
X152484166Y-106853416D01*
X152483550Y-106852901D01*
X152472702Y-106844433D01*
X152452650Y-106829423D01*
X152427086Y-106810588D01*
X152399699Y-106790645D01*
X152374179Y-106772314D01*
X152372727Y-106771281D01*
X152344955Y-106751359D01*
X152308240Y-106724753D01*
X152266389Y-106694235D01*
X152223210Y-106662580D01*
X152197593Y-106643710D01*
X152168773Y-106622593D01*
X152131862Y-106595775D01*
X152091701Y-106566763D01*
X152054642Y-106540144D01*
X152016472Y-106512737D01*
X151977457Y-106484576D01*
X151942214Y-106459001D01*
X151915735Y-106439631D01*
X151843557Y-106386522D01*
X151783584Y-106342565D01*
X151735316Y-106307397D01*
X151698252Y-106280653D01*
X151671891Y-106261969D01*
X151663613Y-106256249D01*
X151630062Y-106233341D01*
X151596444Y-106256249D01*
X151576169Y-106270436D01*
X151547341Y-106291087D01*
X151514143Y-106315189D01*
X151487303Y-106334888D01*
X151455825Y-106358036D01*
X151427561Y-106378672D01*
X151405807Y-106394400D01*
X151394548Y-106402357D01*
X151382905Y-106410627D01*
X151360802Y-106426630D01*
X151330553Y-106448676D01*
X151294477Y-106475077D01*
X151254890Y-106504144D01*
X151253217Y-106505375D01*
X151213071Y-106534869D01*
X151175904Y-106562106D01*
X151144157Y-106585303D01*
X151120271Y-106602678D01*
X151106685Y-106612447D01*
X151106565Y-106612531D01*
X151090156Y-106624241D01*
X151065178Y-106642251D01*
X151035879Y-106663492D01*
X151021678Y-106673827D01*
X150993553Y-106694275D01*
X150956363Y-106721252D01*
X150913915Y-106751996D01*
X150870018Y-106783750D01*
X150844250Y-106802369D01*
X150801816Y-106833035D01*
X150758976Y-106864029D01*
X150719388Y-106892703D01*
X150686710Y-106916407D01*
X150671306Y-106927605D01*
X150641751Y-106949095D01*
X150613899Y-106969307D01*
X150592556Y-106984751D01*
X150587962Y-106988063D01*
X150570059Y-107001071D01*
X150543925Y-107020213D01*
X150514083Y-107042173D01*
X150501364Y-107051563D01*
X150470859Y-107073989D01*
X150441671Y-107095248D01*
X150418543Y-107111891D01*
X150411938Y-107116563D01*
X150392665Y-107130304D01*
X150365367Y-107150066D01*
X150334775Y-107172416D01*
X150322230Y-107181641D01*
X150292285Y-107203683D01*
X150266191Y-107222820D01*
X150240405Y-107241630D01*
X150211386Y-107262693D01*
X150175591Y-107288587D01*
X150143450Y-107311803D01*
X150108569Y-107337178D01*
X150069641Y-107365778D01*
X150036294Y-107390517D01*
X150008116Y-107411268D01*
X149981755Y-107430160D01*
X149962131Y-107443679D01*
X149959425Y-107445443D01*
X149941105Y-107457686D01*
X149928302Y-107467114D01*
X149927675Y-107467646D01*
X149918351Y-107474819D01*
X149898930Y-107489167D01*
X149872224Y-107508628D01*
X149841046Y-107531140D01*
X149840152Y-107531783D01*
X149784721Y-107571756D01*
X149735212Y-107607706D01*
X149693282Y-107638421D01*
X149660584Y-107662685D01*
X149638773Y-107679287D01*
X149635232Y-107682085D01*
X149617906Y-107695952D01*
X149177375Y-107695952D01*
X149177375Y-106124375D01*
X154106562Y-106124375D01*
X154106562Y-109267625D01*
D19*
X152542000Y-95682000D02*
X151242000Y-95682000D01*
X151892000Y-95082000D02*
X151892000Y-96282000D01*
X152246000Y-101093000D02*
X151538000Y-101093000D01*
X152451000Y-101053000D02*
X151333000Y-101053000D01*
X152599000Y-101013000D02*
X151185000Y-101013000D01*
X152721000Y-100973000D02*
X151063000Y-100973000D01*
X152826000Y-100933000D02*
X150958000Y-100933000D01*
X152920000Y-100893000D02*
X150864000Y-100893000D01*
X153004000Y-100853000D02*
X150780000Y-100853000D01*
X153081000Y-100813000D02*
X150703000Y-100813000D01*
X153153000Y-100773000D02*
X150631000Y-100773000D01*
X150912000Y-100733000D02*
X150565000Y-100733000D01*
X153219000Y-100733000D02*
X152872000Y-100733000D01*
X150912000Y-100693000D02*
X150502000Y-100693000D01*
X153282000Y-100693000D02*
X152872000Y-100693000D01*
X150912000Y-100653000D02*
X150444000Y-100653000D01*
X153340000Y-100653000D02*
X152872000Y-100653000D01*
X150912000Y-100613000D02*
X150388000Y-100613000D01*
X153396000Y-100613000D02*
X152872000Y-100613000D01*
X150912000Y-100573000D02*
X150336000Y-100573000D01*
X153448000Y-100573000D02*
X152872000Y-100573000D01*
X150912000Y-100533000D02*
X150286000Y-100533000D01*
X153498000Y-100533000D02*
X152872000Y-100533000D01*
X150912000Y-100493000D02*
X150238000Y-100493000D01*
X153546000Y-100493000D02*
X152872000Y-100493000D01*
X150912000Y-100453000D02*
X150193000Y-100453000D01*
X153591000Y-100453000D02*
X152872000Y-100453000D01*
X150912000Y-100413000D02*
X150150000Y-100413000D01*
X153634000Y-100413000D02*
X152872000Y-100413000D01*
X150912000Y-100373000D02*
X150109000Y-100373000D01*
X153675000Y-100373000D02*
X152872000Y-100373000D01*
X150912000Y-100333000D02*
X150069000Y-100333000D01*
X153715000Y-100333000D02*
X152872000Y-100333000D01*
X150912000Y-100293000D02*
X150031000Y-100293000D01*
X153753000Y-100293000D02*
X152872000Y-100293000D01*
X150912000Y-100253000D02*
X149995000Y-100253000D01*
X153789000Y-100253000D02*
X152872000Y-100253000D01*
X150912000Y-100213000D02*
X149960000Y-100213000D01*
X153824000Y-100213000D02*
X152872000Y-100213000D01*
X150912000Y-100173000D02*
X149927000Y-100173000D01*
X153857000Y-100173000D02*
X152872000Y-100173000D01*
X150912000Y-100133000D02*
X149895000Y-100133000D01*
X153889000Y-100133000D02*
X152872000Y-100133000D01*
X150912000Y-100093000D02*
X149864000Y-100093000D01*
X153920000Y-100093000D02*
X152872000Y-100093000D01*
X150912000Y-100053000D02*
X149834000Y-100053000D01*
X153950000Y-100053000D02*
X152872000Y-100053000D01*
X150912000Y-100013000D02*
X149806000Y-100013000D01*
X153978000Y-100013000D02*
X152872000Y-100013000D01*
X150912000Y-99973000D02*
X149779000Y-99973000D01*
X154005000Y-99973000D02*
X152872000Y-99973000D01*
X150912000Y-99933000D02*
X149752000Y-99933000D01*
X154032000Y-99933000D02*
X152872000Y-99933000D01*
X150912000Y-99893000D02*
X149727000Y-99893000D01*
X154057000Y-99893000D02*
X152872000Y-99893000D01*
X150912000Y-99853000D02*
X149703000Y-99853000D01*
X154081000Y-99853000D02*
X152872000Y-99853000D01*
X150912000Y-99813000D02*
X149680000Y-99813000D01*
X154104000Y-99813000D02*
X152872000Y-99813000D01*
X150912000Y-99773000D02*
X149658000Y-99773000D01*
X154126000Y-99773000D02*
X152872000Y-99773000D01*
X150912000Y-99733000D02*
X149636000Y-99733000D01*
X154148000Y-99733000D02*
X152872000Y-99733000D01*
X150912000Y-99693000D02*
X149616000Y-99693000D01*
X154168000Y-99693000D02*
X152872000Y-99693000D01*
X150912000Y-99653000D02*
X149596000Y-99653000D01*
X154188000Y-99653000D02*
X152872000Y-99653000D01*
X150912000Y-99613000D02*
X149577000Y-99613000D01*
X154207000Y-99613000D02*
X152872000Y-99613000D01*
X150912000Y-99573000D02*
X149559000Y-99573000D01*
X154225000Y-99573000D02*
X152872000Y-99573000D01*
X150912000Y-99533000D02*
X149542000Y-99533000D01*
X154242000Y-99533000D02*
X152872000Y-99533000D01*
X150912000Y-99493000D02*
X149526000Y-99493000D01*
X154258000Y-99493000D02*
X152872000Y-99493000D01*
X150912000Y-99453000D02*
X149510000Y-99453000D01*
X154274000Y-99453000D02*
X152872000Y-99453000D01*
X150912000Y-99413000D02*
X149496000Y-99413000D01*
X154288000Y-99413000D02*
X152872000Y-99413000D01*
X150912000Y-99373000D02*
X149482000Y-99373000D01*
X154302000Y-99373000D02*
X152872000Y-99373000D01*
X150912000Y-99333000D02*
X149468000Y-99333000D01*
X154316000Y-99333000D02*
X152872000Y-99333000D01*
X150912000Y-99293000D02*
X149456000Y-99293000D01*
X154328000Y-99293000D02*
X152872000Y-99293000D01*
X150912000Y-99253000D02*
X149444000Y-99253000D01*
X154340000Y-99253000D02*
X152872000Y-99253000D01*
X150912000Y-99212000D02*
X149432000Y-99212000D01*
X154352000Y-99212000D02*
X152872000Y-99212000D01*
X150912000Y-99172000D02*
X149422000Y-99172000D01*
X154362000Y-99172000D02*
X152872000Y-99172000D01*
X150912000Y-99132000D02*
X149412000Y-99132000D01*
X154372000Y-99132000D02*
X152872000Y-99132000D01*
X150912000Y-99092000D02*
X149403000Y-99092000D01*
X154381000Y-99092000D02*
X152872000Y-99092000D01*
X150912000Y-99052000D02*
X149394000Y-99052000D01*
X154390000Y-99052000D02*
X152872000Y-99052000D01*
X150912000Y-99012000D02*
X149386000Y-99012000D01*
X154398000Y-99012000D02*
X152872000Y-99012000D01*
X150912000Y-98972000D02*
X149379000Y-98972000D01*
X154405000Y-98972000D02*
X152872000Y-98972000D01*
X150912000Y-98932000D02*
X149373000Y-98932000D01*
X154411000Y-98932000D02*
X152872000Y-98932000D01*
X150912000Y-98892000D02*
X149367000Y-98892000D01*
X154417000Y-98892000D02*
X152872000Y-98892000D01*
X150912000Y-98852000D02*
X149361000Y-98852000D01*
X154423000Y-98852000D02*
X152872000Y-98852000D01*
X150912000Y-98812000D02*
X149357000Y-98812000D01*
X154427000Y-98812000D02*
X152872000Y-98812000D01*
X154431000Y-98772000D02*
X149353000Y-98772000D01*
X154435000Y-98732000D02*
X149349000Y-98732000D01*
X154438000Y-98692000D02*
X149346000Y-98692000D01*
X154440000Y-98652000D02*
X149344000Y-98652000D01*
X154441000Y-98612000D02*
X149343000Y-98612000D01*
X154442000Y-98572000D02*
X149342000Y-98572000D01*
X154442000Y-98532000D02*
X149342000Y-98532000D01*
X150712277Y-100837722D02*
G75*
G03*
X153072000Y-100837580I1179723J2305722D01*
G01*
X150712277Y-100837722D02*
G75*
G02*
X150712000Y-96226420I1179723J2305722D01*
G01*
X153071723Y-100837722D02*
G75*
G03*
X153072000Y-96226420I-1179723J2305722D01*
G01*
D20*
G36*
X172938853Y-95804184D02*
G01*
X173019878Y-95856426D01*
X173082861Y-95925879D01*
X173098675Y-95955587D01*
X173116866Y-96019496D01*
X173105852Y-96076677D01*
X173089871Y-96110561D01*
X173030739Y-96184474D01*
X172948040Y-96240803D01*
X172862644Y-96265760D01*
X172854611Y-96266000D01*
X172833258Y-96260987D01*
X172819769Y-96239772D01*
X172812391Y-96193089D01*
X172809366Y-96111672D01*
X172808900Y-96024700D01*
X172809666Y-95912553D01*
X172813287Y-95841779D01*
X172821746Y-95802959D01*
X172837028Y-95786673D01*
X172859700Y-95783494D01*
X172938853Y-95804184D01*
G37*
X172938853Y-95804184D02*
X173019878Y-95856426D01*
X173082861Y-95925879D01*
X173098675Y-95955587D01*
X173116866Y-96019496D01*
X173105852Y-96076677D01*
X173089871Y-96110561D01*
X173030739Y-96184474D01*
X172948040Y-96240803D01*
X172862644Y-96265760D01*
X172854611Y-96266000D01*
X172833258Y-96260987D01*
X172819769Y-96239772D01*
X172812391Y-96193089D01*
X172809366Y-96111672D01*
X172808900Y-96024700D01*
X172809666Y-95912553D01*
X172813287Y-95841779D01*
X172821746Y-95802959D01*
X172837028Y-95786673D01*
X172859700Y-95783494D01*
X172938853Y-95804184D01*
G36*
X172387502Y-95350029D02*
G01*
X172618010Y-95351480D01*
X172835687Y-95353773D01*
X173034749Y-95356911D01*
X173209411Y-95360893D01*
X173353890Y-95365720D01*
X173462403Y-95371390D01*
X173529163Y-95377904D01*
X173546209Y-95381945D01*
X173591461Y-95407283D01*
X173625804Y-95441161D01*
X173650703Y-95490350D01*
X173667623Y-95561622D01*
X173678027Y-95661748D01*
X173683380Y-95797500D01*
X173685147Y-95975648D01*
X173685200Y-96024700D01*
X173684067Y-96213861D01*
X173679694Y-96359024D01*
X173670616Y-96466961D01*
X173655369Y-96544444D01*
X173632488Y-96598243D01*
X173600510Y-96635130D01*
X173557970Y-96661876D01*
X173546209Y-96667454D01*
X173504700Y-96674819D01*
X173418470Y-96681211D01*
X173293257Y-96686642D01*
X173134797Y-96691121D01*
X172948828Y-96694658D01*
X172741086Y-96697263D01*
X172517308Y-96698947D01*
X172283232Y-96699719D01*
X172044593Y-96699591D01*
X171807130Y-96698570D01*
X171576578Y-96696669D01*
X171358676Y-96693896D01*
X171159159Y-96690262D01*
X170983766Y-96685777D01*
X170838231Y-96680451D01*
X170728294Y-96674294D01*
X170659690Y-96667316D01*
X170639995Y-96662354D01*
X170597951Y-96635102D01*
X170566184Y-96601486D01*
X170543261Y-96554461D01*
X170527744Y-96486980D01*
X170518200Y-96391999D01*
X170513192Y-96262473D01*
X170511284Y-96091356D01*
X170511279Y-96089621D01*
X170875073Y-96089621D01*
X170910997Y-96212982D01*
X170979550Y-96312532D01*
X171075524Y-96378478D01*
X171110130Y-96390596D01*
X171180998Y-96401569D01*
X171274307Y-96404885D01*
X171373478Y-96401356D01*
X171426992Y-96395573D01*
X172593000Y-96395573D01*
X172827950Y-96391188D01*
X172954135Y-96384942D01*
X173057451Y-96372298D01*
X173124853Y-96354932D01*
X173130507Y-96352309D01*
X173188400Y-96312534D01*
X173242423Y-96259430D01*
X173281004Y-96206656D01*
X173292573Y-96167868D01*
X173290739Y-96163169D01*
X173295712Y-96133284D01*
X173303785Y-96126556D01*
X173329894Y-96083180D01*
X173330303Y-96011442D01*
X173308729Y-95924397D01*
X173268890Y-95835097D01*
X173214505Y-95756595D01*
X173191728Y-95733165D01*
X173156097Y-95704400D01*
X173116063Y-95685294D01*
X173059909Y-95673301D01*
X172975918Y-95665875D01*
X172858255Y-95660677D01*
X172593000Y-95651125D01*
X172593000Y-96395573D01*
X171426992Y-96395573D01*
X171461935Y-96391797D01*
X171523099Y-96377020D01*
X171536395Y-96369678D01*
X171572863Y-96354641D01*
X171585687Y-96359353D01*
X171593531Y-96344266D01*
X171599400Y-96289299D01*
X171602271Y-96205363D01*
X171602400Y-96181333D01*
X171602400Y-95986600D01*
X171221400Y-95986600D01*
X171221400Y-96057699D01*
X171225880Y-96104683D01*
X171249440Y-96121585D01*
X171307256Y-96118773D01*
X171310300Y-96118420D01*
X171369642Y-96114841D01*
X171394148Y-96131506D01*
X171399176Y-96180839D01*
X171399200Y-96190344D01*
X171396095Y-96244025D01*
X171376773Y-96263826D01*
X171326218Y-96260736D01*
X171307149Y-96257709D01*
X171204272Y-96221770D01*
X171128963Y-96157829D01*
X171087745Y-96075964D01*
X171087139Y-95986252D01*
X171103424Y-95942908D01*
X171143301Y-95879487D01*
X171182855Y-95834568D01*
X171252975Y-95803913D01*
X171343703Y-95797956D01*
X171431443Y-95816361D01*
X171472475Y-95838681D01*
X171531322Y-95876846D01*
X171563268Y-95874455D01*
X171575742Y-95827699D01*
X171577000Y-95785111D01*
X171572335Y-95725668D01*
X171552244Y-95686976D01*
X171507577Y-95663907D01*
X171460784Y-95656400D01*
X171729400Y-95656400D01*
X171729400Y-96393000D01*
X171932600Y-96393000D01*
X171933745Y-96145350D01*
X171935010Y-96033990D01*
X171938258Y-95967348D01*
X171944551Y-95939350D01*
X171954950Y-95943924D01*
X171965495Y-95963798D01*
X171993285Y-96016246D01*
X172039627Y-96096250D01*
X172095655Y-96188600D01*
X172109893Y-96211448D01*
X172166290Y-96299764D01*
X172206505Y-96353474D01*
X172241070Y-96381181D01*
X172280518Y-96391488D01*
X172332143Y-96393000D01*
X172440600Y-96393000D01*
X172440600Y-95656400D01*
X172262800Y-95656400D01*
X172262643Y-95878650D01*
X172262164Y-95983930D01*
X172259747Y-96044835D01*
X172253647Y-96067790D01*
X172242119Y-96059220D01*
X172223418Y-96025548D01*
X172222978Y-96024700D01*
X172188229Y-95962898D01*
X172137440Y-95878517D01*
X172089785Y-95802672D01*
X171996100Y-95656844D01*
X171729400Y-95656400D01*
X171460784Y-95656400D01*
X171429187Y-95651331D01*
X171327023Y-95644961D01*
X171164834Y-95655204D01*
X171036888Y-95701696D01*
X170944319Y-95783664D01*
X170888262Y-95900334D01*
X170876986Y-95952241D01*
X170875073Y-96089621D01*
X170511279Y-96089621D01*
X170511100Y-96029788D01*
X170511844Y-95839844D01*
X170515841Y-95693925D01*
X170524529Y-95585292D01*
X170539344Y-95507201D01*
X170561723Y-95452912D01*
X170593104Y-95415683D01*
X170634923Y-95388773D01*
X170649190Y-95381945D01*
X170689889Y-95374955D01*
X170775597Y-95368809D01*
X170900530Y-95363508D01*
X171058904Y-95359050D01*
X171244934Y-95355437D01*
X171452838Y-95352667D01*
X171676831Y-95350742D01*
X171911128Y-95349661D01*
X172149947Y-95349423D01*
X172387502Y-95350029D01*
G37*
X172387502Y-95350029D02*
X172618010Y-95351480D01*
X172835687Y-95353773D01*
X173034749Y-95356911D01*
X173209411Y-95360893D01*
X173353890Y-95365720D01*
X173462403Y-95371390D01*
X173529163Y-95377904D01*
X173546209Y-95381945D01*
X173591461Y-95407283D01*
X173625804Y-95441161D01*
X173650703Y-95490350D01*
X173667623Y-95561622D01*
X173678027Y-95661748D01*
X173683380Y-95797500D01*
X173685147Y-95975648D01*
X173685200Y-96024700D01*
X173684067Y-96213861D01*
X173679694Y-96359024D01*
X173670616Y-96466961D01*
X173655369Y-96544444D01*
X173632488Y-96598243D01*
X173600510Y-96635130D01*
X173557970Y-96661876D01*
X173546209Y-96667454D01*
X173504700Y-96674819D01*
X173418470Y-96681211D01*
X173293257Y-96686642D01*
X173134797Y-96691121D01*
X172948828Y-96694658D01*
X172741086Y-96697263D01*
X172517308Y-96698947D01*
X172283232Y-96699719D01*
X172044593Y-96699591D01*
X171807130Y-96698570D01*
X171576578Y-96696669D01*
X171358676Y-96693896D01*
X171159159Y-96690262D01*
X170983766Y-96685777D01*
X170838231Y-96680451D01*
X170728294Y-96674294D01*
X170659690Y-96667316D01*
X170639995Y-96662354D01*
X170597951Y-96635102D01*
X170566184Y-96601486D01*
X170543261Y-96554461D01*
X170527744Y-96486980D01*
X170518200Y-96391999D01*
X170513192Y-96262473D01*
X170511284Y-96091356D01*
X170511279Y-96089621D01*
X170875073Y-96089621D01*
X170910997Y-96212982D01*
X170979550Y-96312532D01*
X171075524Y-96378478D01*
X171110130Y-96390596D01*
X171180998Y-96401569D01*
X171274307Y-96404885D01*
X171373478Y-96401356D01*
X171426992Y-96395573D01*
X172593000Y-96395573D01*
X172827950Y-96391188D01*
X172954135Y-96384942D01*
X173057451Y-96372298D01*
X173124853Y-96354932D01*
X173130507Y-96352309D01*
X173188400Y-96312534D01*
X173242423Y-96259430D01*
X173281004Y-96206656D01*
X173292573Y-96167868D01*
X173290739Y-96163169D01*
X173295712Y-96133284D01*
X173303785Y-96126556D01*
X173329894Y-96083180D01*
X173330303Y-96011442D01*
X173308729Y-95924397D01*
X173268890Y-95835097D01*
X173214505Y-95756595D01*
X173191728Y-95733165D01*
X173156097Y-95704400D01*
X173116063Y-95685294D01*
X173059909Y-95673301D01*
X172975918Y-95665875D01*
X172858255Y-95660677D01*
X172593000Y-95651125D01*
X172593000Y-96395573D01*
X171426992Y-96395573D01*
X171461935Y-96391797D01*
X171523099Y-96377020D01*
X171536395Y-96369678D01*
X171572863Y-96354641D01*
X171585687Y-96359353D01*
X171593531Y-96344266D01*
X171599400Y-96289299D01*
X171602271Y-96205363D01*
X171602400Y-96181333D01*
X171602400Y-95986600D01*
X171221400Y-95986600D01*
X171221400Y-96057699D01*
X171225880Y-96104683D01*
X171249440Y-96121585D01*
X171307256Y-96118773D01*
X171310300Y-96118420D01*
X171369642Y-96114841D01*
X171394148Y-96131506D01*
X171399176Y-96180839D01*
X171399200Y-96190344D01*
X171396095Y-96244025D01*
X171376773Y-96263826D01*
X171326218Y-96260736D01*
X171307149Y-96257709D01*
X171204272Y-96221770D01*
X171128963Y-96157829D01*
X171087745Y-96075964D01*
X171087139Y-95986252D01*
X171103424Y-95942908D01*
X171143301Y-95879487D01*
X171182855Y-95834568D01*
X171252975Y-95803913D01*
X171343703Y-95797956D01*
X171431443Y-95816361D01*
X171472475Y-95838681D01*
X171531322Y-95876846D01*
X171563268Y-95874455D01*
X171575742Y-95827699D01*
X171577000Y-95785111D01*
X171572335Y-95725668D01*
X171552244Y-95686976D01*
X171507577Y-95663907D01*
X171460784Y-95656400D01*
X171729400Y-95656400D01*
X171729400Y-96393000D01*
X171932600Y-96393000D01*
X171933745Y-96145350D01*
X171935010Y-96033990D01*
X171938258Y-95967348D01*
X171944551Y-95939350D01*
X171954950Y-95943924D01*
X171965495Y-95963798D01*
X171993285Y-96016246D01*
X172039627Y-96096250D01*
X172095655Y-96188600D01*
X172109893Y-96211448D01*
X172166290Y-96299764D01*
X172206505Y-96353474D01*
X172241070Y-96381181D01*
X172280518Y-96391488D01*
X172332143Y-96393000D01*
X172440600Y-96393000D01*
X172440600Y-95656400D01*
X172262800Y-95656400D01*
X172262643Y-95878650D01*
X172262164Y-95983930D01*
X172259747Y-96044835D01*
X172253647Y-96067790D01*
X172242119Y-96059220D01*
X172223418Y-96025548D01*
X172222978Y-96024700D01*
X172188229Y-95962898D01*
X172137440Y-95878517D01*
X172089785Y-95802672D01*
X171996100Y-95656844D01*
X171729400Y-95656400D01*
X171460784Y-95656400D01*
X171429187Y-95651331D01*
X171327023Y-95644961D01*
X171164834Y-95655204D01*
X171036888Y-95701696D01*
X170944319Y-95783664D01*
X170888262Y-95900334D01*
X170876986Y-95952241D01*
X170875073Y-96089621D01*
X170511279Y-96089621D01*
X170511100Y-96029788D01*
X170511844Y-95839844D01*
X170515841Y-95693925D01*
X170524529Y-95585292D01*
X170539344Y-95507201D01*
X170561723Y-95452912D01*
X170593104Y-95415683D01*
X170634923Y-95388773D01*
X170649190Y-95381945D01*
X170689889Y-95374955D01*
X170775597Y-95368809D01*
X170900530Y-95363508D01*
X171058904Y-95359050D01*
X171244934Y-95355437D01*
X171452838Y-95352667D01*
X171676831Y-95350742D01*
X171911128Y-95349661D01*
X172149947Y-95349423D01*
X172387502Y-95350029D01*
G36*
X146096184Y-93888147D02*
G01*
X146148426Y-93807122D01*
X146217879Y-93744139D01*
X146247587Y-93728325D01*
X146311496Y-93710134D01*
X146368677Y-93721148D01*
X146402561Y-93737129D01*
X146476474Y-93796261D01*
X146532803Y-93878960D01*
X146557760Y-93964356D01*
X146558000Y-93972389D01*
X146552987Y-93993742D01*
X146531772Y-94007231D01*
X146485089Y-94014609D01*
X146403672Y-94017634D01*
X146316700Y-94018100D01*
X146204553Y-94017334D01*
X146133779Y-94013713D01*
X146094959Y-94005254D01*
X146078673Y-93989972D01*
X146075494Y-93967300D01*
X146096184Y-93888147D01*
G37*
X146096184Y-93888147D02*
X146148426Y-93807122D01*
X146217879Y-93744139D01*
X146247587Y-93728325D01*
X146311496Y-93710134D01*
X146368677Y-93721148D01*
X146402561Y-93737129D01*
X146476474Y-93796261D01*
X146532803Y-93878960D01*
X146557760Y-93964356D01*
X146558000Y-93972389D01*
X146552987Y-93993742D01*
X146531772Y-94007231D01*
X146485089Y-94014609D01*
X146403672Y-94017634D01*
X146316700Y-94018100D01*
X146204553Y-94017334D01*
X146133779Y-94013713D01*
X146094959Y-94005254D01*
X146078673Y-93989972D01*
X146075494Y-93967300D01*
X146096184Y-93888147D01*
G36*
X145642029Y-94439498D02*
G01*
X145643480Y-94208990D01*
X145645773Y-93991313D01*
X145648911Y-93792251D01*
X145652893Y-93617589D01*
X145657720Y-93473110D01*
X145663390Y-93364597D01*
X145669904Y-93297837D01*
X145673945Y-93280791D01*
X145699283Y-93235539D01*
X145733161Y-93201196D01*
X145782350Y-93176297D01*
X145853622Y-93159377D01*
X145953748Y-93148973D01*
X146089500Y-93143620D01*
X146267648Y-93141853D01*
X146316700Y-93141800D01*
X146505861Y-93142933D01*
X146651024Y-93147306D01*
X146758961Y-93156384D01*
X146836444Y-93171631D01*
X146890243Y-93194512D01*
X146927130Y-93226490D01*
X146953876Y-93269030D01*
X146959454Y-93280791D01*
X146966819Y-93322300D01*
X146973211Y-93408530D01*
X146978642Y-93533743D01*
X146983121Y-93692203D01*
X146986658Y-93878172D01*
X146989263Y-94085914D01*
X146990947Y-94309692D01*
X146991719Y-94543768D01*
X146991591Y-94782407D01*
X146990570Y-95019870D01*
X146988669Y-95250422D01*
X146985896Y-95468324D01*
X146982262Y-95667841D01*
X146977777Y-95843234D01*
X146972451Y-95988769D01*
X146966294Y-96098706D01*
X146959316Y-96167310D01*
X146954354Y-96187005D01*
X146927102Y-96229049D01*
X146893486Y-96260816D01*
X146846461Y-96283739D01*
X146778980Y-96299256D01*
X146683999Y-96308800D01*
X146554473Y-96313808D01*
X146383356Y-96315716D01*
X146381621Y-96315721D01*
X146381621Y-95951927D01*
X146504982Y-95916003D01*
X146604532Y-95847450D01*
X146670478Y-95751476D01*
X146682596Y-95716870D01*
X146693569Y-95646002D01*
X146696885Y-95552693D01*
X146693356Y-95453522D01*
X146687573Y-95400008D01*
X146687573Y-94234000D01*
X146683188Y-93999050D01*
X146676942Y-93872865D01*
X146664298Y-93769549D01*
X146646932Y-93702147D01*
X146644309Y-93696493D01*
X146604534Y-93638600D01*
X146551430Y-93584577D01*
X146498656Y-93545996D01*
X146459868Y-93534427D01*
X146455169Y-93536261D01*
X146425284Y-93531288D01*
X146418556Y-93523215D01*
X146375180Y-93497106D01*
X146303442Y-93496697D01*
X146216397Y-93518271D01*
X146127097Y-93558110D01*
X146048595Y-93612495D01*
X146025165Y-93635272D01*
X145996400Y-93670903D01*
X145977294Y-93710937D01*
X145965301Y-93767091D01*
X145957875Y-93851082D01*
X145952677Y-93968745D01*
X145943125Y-94234000D01*
X146687573Y-94234000D01*
X146687573Y-95400008D01*
X146683797Y-95365065D01*
X146669020Y-95303901D01*
X146661678Y-95290605D01*
X146646641Y-95254137D01*
X146651353Y-95241313D01*
X146636266Y-95233469D01*
X146581299Y-95227600D01*
X146497363Y-95224729D01*
X146473333Y-95224600D01*
X146278600Y-95224600D01*
X146278600Y-95605600D01*
X146349699Y-95605600D01*
X146396683Y-95601120D01*
X146413585Y-95577560D01*
X146410773Y-95519744D01*
X146410420Y-95516700D01*
X146406841Y-95457358D01*
X146423506Y-95432852D01*
X146472839Y-95427824D01*
X146482344Y-95427800D01*
X146536025Y-95430905D01*
X146555826Y-95450227D01*
X146552736Y-95500782D01*
X146549709Y-95519851D01*
X146513770Y-95622728D01*
X146449829Y-95698037D01*
X146367964Y-95739255D01*
X146278252Y-95739861D01*
X146234908Y-95723576D01*
X146171487Y-95683699D01*
X146126568Y-95644145D01*
X146095913Y-95574025D01*
X146089956Y-95483297D01*
X146108361Y-95395557D01*
X146130681Y-95354525D01*
X146168846Y-95295678D01*
X146166455Y-95263732D01*
X146119699Y-95251258D01*
X146077111Y-95250000D01*
X146017668Y-95254665D01*
X145978976Y-95274756D01*
X145955907Y-95319423D01*
X145948400Y-95366216D01*
X145948400Y-95097600D01*
X146685000Y-95097600D01*
X146685000Y-94894400D01*
X146437350Y-94893255D01*
X146325990Y-94891990D01*
X146259348Y-94888742D01*
X146231350Y-94882449D01*
X146235924Y-94872050D01*
X146255798Y-94861505D01*
X146308246Y-94833715D01*
X146388250Y-94787373D01*
X146480600Y-94731345D01*
X146503448Y-94717107D01*
X146591764Y-94660710D01*
X146645474Y-94620495D01*
X146673181Y-94585930D01*
X146683488Y-94546482D01*
X146685000Y-94494857D01*
X146685000Y-94386400D01*
X145948400Y-94386400D01*
X145948400Y-94564200D01*
X146170650Y-94564357D01*
X146275930Y-94564836D01*
X146336835Y-94567253D01*
X146359790Y-94573353D01*
X146351220Y-94584881D01*
X146317548Y-94603582D01*
X146316700Y-94604022D01*
X146254898Y-94638771D01*
X146170517Y-94689560D01*
X146094672Y-94737215D01*
X145948844Y-94830900D01*
X145948400Y-95097600D01*
X145948400Y-95366216D01*
X145943331Y-95397813D01*
X145936961Y-95499977D01*
X145947204Y-95662166D01*
X145993696Y-95790112D01*
X146075664Y-95882681D01*
X146192334Y-95938738D01*
X146244241Y-95950014D01*
X146381621Y-95951927D01*
X146381621Y-96315721D01*
X146321788Y-96315900D01*
X146131844Y-96315156D01*
X145985925Y-96311159D01*
X145877292Y-96302471D01*
X145799201Y-96287656D01*
X145744912Y-96265277D01*
X145707683Y-96233896D01*
X145680773Y-96192077D01*
X145673945Y-96177810D01*
X145666955Y-96137111D01*
X145660809Y-96051403D01*
X145655508Y-95926470D01*
X145651050Y-95768096D01*
X145647437Y-95582066D01*
X145644667Y-95374162D01*
X145642742Y-95150169D01*
X145641661Y-94915872D01*
X145641423Y-94677053D01*
X145642029Y-94439498D01*
G37*
X145642029Y-94439498D02*
X145643480Y-94208990D01*
X145645773Y-93991313D01*
X145648911Y-93792251D01*
X145652893Y-93617589D01*
X145657720Y-93473110D01*
X145663390Y-93364597D01*
X145669904Y-93297837D01*
X145673945Y-93280791D01*
X145699283Y-93235539D01*
X145733161Y-93201196D01*
X145782350Y-93176297D01*
X145853622Y-93159377D01*
X145953748Y-93148973D01*
X146089500Y-93143620D01*
X146267648Y-93141853D01*
X146316700Y-93141800D01*
X146505861Y-93142933D01*
X146651024Y-93147306D01*
X146758961Y-93156384D01*
X146836444Y-93171631D01*
X146890243Y-93194512D01*
X146927130Y-93226490D01*
X146953876Y-93269030D01*
X146959454Y-93280791D01*
X146966819Y-93322300D01*
X146973211Y-93408530D01*
X146978642Y-93533743D01*
X146983121Y-93692203D01*
X146986658Y-93878172D01*
X146989263Y-94085914D01*
X146990947Y-94309692D01*
X146991719Y-94543768D01*
X146991591Y-94782407D01*
X146990570Y-95019870D01*
X146988669Y-95250422D01*
X146985896Y-95468324D01*
X146982262Y-95667841D01*
X146977777Y-95843234D01*
X146972451Y-95988769D01*
X146966294Y-96098706D01*
X146959316Y-96167310D01*
X146954354Y-96187005D01*
X146927102Y-96229049D01*
X146893486Y-96260816D01*
X146846461Y-96283739D01*
X146778980Y-96299256D01*
X146683999Y-96308800D01*
X146554473Y-96313808D01*
X146383356Y-96315716D01*
X146381621Y-96315721D01*
X146381621Y-95951927D01*
X146504982Y-95916003D01*
X146604532Y-95847450D01*
X146670478Y-95751476D01*
X146682596Y-95716870D01*
X146693569Y-95646002D01*
X146696885Y-95552693D01*
X146693356Y-95453522D01*
X146687573Y-95400008D01*
X146687573Y-94234000D01*
X146683188Y-93999050D01*
X146676942Y-93872865D01*
X146664298Y-93769549D01*
X146646932Y-93702147D01*
X146644309Y-93696493D01*
X146604534Y-93638600D01*
X146551430Y-93584577D01*
X146498656Y-93545996D01*
X146459868Y-93534427D01*
X146455169Y-93536261D01*
X146425284Y-93531288D01*
X146418556Y-93523215D01*
X146375180Y-93497106D01*
X146303442Y-93496697D01*
X146216397Y-93518271D01*
X146127097Y-93558110D01*
X146048595Y-93612495D01*
X146025165Y-93635272D01*
X145996400Y-93670903D01*
X145977294Y-93710937D01*
X145965301Y-93767091D01*
X145957875Y-93851082D01*
X145952677Y-93968745D01*
X145943125Y-94234000D01*
X146687573Y-94234000D01*
X146687573Y-95400008D01*
X146683797Y-95365065D01*
X146669020Y-95303901D01*
X146661678Y-95290605D01*
X146646641Y-95254137D01*
X146651353Y-95241313D01*
X146636266Y-95233469D01*
X146581299Y-95227600D01*
X146497363Y-95224729D01*
X146473333Y-95224600D01*
X146278600Y-95224600D01*
X146278600Y-95605600D01*
X146349699Y-95605600D01*
X146396683Y-95601120D01*
X146413585Y-95577560D01*
X146410773Y-95519744D01*
X146410420Y-95516700D01*
X146406841Y-95457358D01*
X146423506Y-95432852D01*
X146472839Y-95427824D01*
X146482344Y-95427800D01*
X146536025Y-95430905D01*
X146555826Y-95450227D01*
X146552736Y-95500782D01*
X146549709Y-95519851D01*
X146513770Y-95622728D01*
X146449829Y-95698037D01*
X146367964Y-95739255D01*
X146278252Y-95739861D01*
X146234908Y-95723576D01*
X146171487Y-95683699D01*
X146126568Y-95644145D01*
X146095913Y-95574025D01*
X146089956Y-95483297D01*
X146108361Y-95395557D01*
X146130681Y-95354525D01*
X146168846Y-95295678D01*
X146166455Y-95263732D01*
X146119699Y-95251258D01*
X146077111Y-95250000D01*
X146017668Y-95254665D01*
X145978976Y-95274756D01*
X145955907Y-95319423D01*
X145948400Y-95366216D01*
X145948400Y-95097600D01*
X146685000Y-95097600D01*
X146685000Y-94894400D01*
X146437350Y-94893255D01*
X146325990Y-94891990D01*
X146259348Y-94888742D01*
X146231350Y-94882449D01*
X146235924Y-94872050D01*
X146255798Y-94861505D01*
X146308246Y-94833715D01*
X146388250Y-94787373D01*
X146480600Y-94731345D01*
X146503448Y-94717107D01*
X146591764Y-94660710D01*
X146645474Y-94620495D01*
X146673181Y-94585930D01*
X146683488Y-94546482D01*
X146685000Y-94494857D01*
X146685000Y-94386400D01*
X145948400Y-94386400D01*
X145948400Y-94564200D01*
X146170650Y-94564357D01*
X146275930Y-94564836D01*
X146336835Y-94567253D01*
X146359790Y-94573353D01*
X146351220Y-94584881D01*
X146317548Y-94603582D01*
X146316700Y-94604022D01*
X146254898Y-94638771D01*
X146170517Y-94689560D01*
X146094672Y-94737215D01*
X145948844Y-94830900D01*
X145948400Y-95097600D01*
X145948400Y-95366216D01*
X145943331Y-95397813D01*
X145936961Y-95499977D01*
X145947204Y-95662166D01*
X145993696Y-95790112D01*
X146075664Y-95882681D01*
X146192334Y-95938738D01*
X146244241Y-95950014D01*
X146381621Y-95951927D01*
X146381621Y-96315721D01*
X146321788Y-96315900D01*
X146131844Y-96315156D01*
X145985925Y-96311159D01*
X145877292Y-96302471D01*
X145799201Y-96287656D01*
X145744912Y-96265277D01*
X145707683Y-96233896D01*
X145680773Y-96192077D01*
X145673945Y-96177810D01*
X145666955Y-96137111D01*
X145660809Y-96051403D01*
X145655508Y-95926470D01*
X145651050Y-95768096D01*
X145647437Y-95582066D01*
X145644667Y-95374162D01*
X145642742Y-95150169D01*
X145641661Y-94915872D01*
X145641423Y-94677053D01*
X145642029Y-94439498D01*
G36*
X139936132Y-115099188D02*
G01*
X139936994Y-115100027D01*
X139946013Y-115123023D01*
X139929017Y-115156260D01*
X139890540Y-115199542D01*
X139827902Y-115254899D01*
X139782879Y-115272984D01*
X139755043Y-115255939D01*
X139762845Y-115232733D01*
X139794481Y-115191517D01*
X139827845Y-115156424D01*
X139880091Y-115109613D01*
X139913613Y-115091864D01*
X139936132Y-115099188D01*
G37*
X139936132Y-115099188D02*
X139936994Y-115100027D01*
X139946013Y-115123023D01*
X139929017Y-115156260D01*
X139890540Y-115199542D01*
X139827902Y-115254899D01*
X139782879Y-115272984D01*
X139755043Y-115255939D01*
X139762845Y-115232733D01*
X139794481Y-115191517D01*
X139827845Y-115156424D01*
X139880091Y-115109613D01*
X139913613Y-115091864D01*
X139936132Y-115099188D01*
G36*
X139690241Y-115342839D02*
G01*
X139691472Y-115345474D01*
X139690055Y-115366926D01*
X139671002Y-115400700D01*
X139631185Y-115450609D01*
X139567473Y-115520469D01*
X139476737Y-115614095D01*
X139443726Y-115647440D01*
X139336746Y-115754428D01*
X139255203Y-115833916D01*
X139195263Y-115888985D01*
X139153091Y-115922718D01*
X139124851Y-115938195D01*
X139106709Y-115938500D01*
X139095277Y-115927449D01*
X139104897Y-115905160D01*
X139141833Y-115857602D01*
X139202684Y-115788634D01*
X139284047Y-115702119D01*
X139378781Y-115605655D01*
X139482821Y-115502466D01*
X139561255Y-115426988D01*
X139617649Y-115376253D01*
X139655567Y-115347295D01*
X139678576Y-115337145D01*
X139690241Y-115342839D01*
G37*
X139690241Y-115342839D02*
X139691472Y-115345474D01*
X139690055Y-115366926D01*
X139671002Y-115400700D01*
X139631185Y-115450609D01*
X139567473Y-115520469D01*
X139476737Y-115614095D01*
X139443726Y-115647440D01*
X139336746Y-115754428D01*
X139255203Y-115833916D01*
X139195263Y-115888985D01*
X139153091Y-115922718D01*
X139124851Y-115938195D01*
X139106709Y-115938500D01*
X139095277Y-115927449D01*
X139104897Y-115905160D01*
X139141833Y-115857602D01*
X139202684Y-115788634D01*
X139284047Y-115702119D01*
X139378781Y-115605655D01*
X139482821Y-115502466D01*
X139561255Y-115426988D01*
X139617649Y-115376253D01*
X139655567Y-115347295D01*
X139678576Y-115337145D01*
X139690241Y-115342839D01*
G36*
X140047819Y-114737878D02*
G01*
X140097307Y-114776898D01*
X140159518Y-114833463D01*
X140227765Y-114900649D01*
X140295364Y-114971528D01*
X140355628Y-115039173D01*
X140401873Y-115096658D01*
X140427413Y-115137055D01*
X140429942Y-115150421D01*
X140412313Y-115172268D01*
X140367678Y-115220004D01*
X140299503Y-115290131D01*
X140211253Y-115379155D01*
X140106397Y-115483578D01*
X139988399Y-115599905D01*
X139860728Y-115724639D01*
X139857208Y-115728063D01*
X139700343Y-115879882D01*
X139571036Y-116003324D01*
X139467212Y-116100240D01*
X139386792Y-116172483D01*
X139327702Y-116221906D01*
X139287863Y-116250360D01*
X139265199Y-116259699D01*
X139261785Y-116259196D01*
X139232198Y-116263349D01*
X139184728Y-116294251D01*
X139115837Y-116354443D01*
X139076935Y-116391730D01*
X138998379Y-116465224D01*
X138930916Y-116517949D01*
X138859243Y-116559747D01*
X138768054Y-116600459D01*
X138726334Y-116617207D01*
X138639135Y-116651634D01*
X138565395Y-116680751D01*
X138514862Y-116700710D01*
X138498970Y-116706991D01*
X138469857Y-116700142D01*
X138460858Y-116686558D01*
X138463524Y-116655354D01*
X138479827Y-116594431D01*
X138486087Y-116575673D01*
X138579737Y-116575673D01*
X138586414Y-116584636D01*
X138594350Y-116582472D01*
X138620570Y-116571667D01*
X138675187Y-116549514D01*
X138747306Y-116520429D01*
X138761448Y-116514741D01*
X138856977Y-116470504D01*
X138938166Y-116417185D01*
X139021781Y-116343261D01*
X139046186Y-116319042D01*
X139180009Y-116184019D01*
X139075564Y-116077979D01*
X138971118Y-115971939D01*
X138838963Y-116102920D01*
X138759505Y-116188143D01*
X138702788Y-116267780D01*
X138656531Y-116360024D01*
X138642373Y-116394075D01*
X138606302Y-116485943D01*
X138585895Y-116544625D01*
X138579737Y-116575673D01*
X138486087Y-116575673D01*
X138506977Y-116513085D01*
X138536170Y-116435653D01*
X138578941Y-116331961D01*
X138616568Y-116255197D01*
X138657424Y-116192171D01*
X138709878Y-116129691D01*
X138770353Y-116066637D01*
X138839233Y-115994646D01*
X138880206Y-115945422D01*
X138896996Y-115913599D01*
X138893326Y-115893809D01*
X138891581Y-115891880D01*
X138884933Y-115883847D01*
X138882629Y-115873954D01*
X138887111Y-115859493D01*
X138889904Y-115855064D01*
X138980641Y-115855064D01*
X139133416Y-116008865D01*
X139198126Y-116072968D01*
X139251592Y-116123982D01*
X139287030Y-116155547D01*
X139297493Y-116162666D01*
X139314742Y-116148269D01*
X139358019Y-116107555D01*
X139423515Y-116044241D01*
X139507422Y-115962040D01*
X139605932Y-115864671D01*
X139715236Y-115755848D01*
X139747987Y-115723100D01*
X140187180Y-115283534D01*
X140028086Y-115125502D01*
X139868991Y-114967469D01*
X139424816Y-115411267D01*
X138980641Y-115855064D01*
X138889904Y-115855064D01*
X138900821Y-115837755D01*
X138926202Y-115806032D01*
X138965696Y-115761616D01*
X139021746Y-115701797D01*
X139096793Y-115623868D01*
X139193280Y-115525120D01*
X139313649Y-115402845D01*
X139460343Y-115254334D01*
X139530171Y-115183708D01*
X139644597Y-115069020D01*
X139750584Y-114964760D01*
X139803428Y-114913891D01*
X139923368Y-114913891D01*
X140080626Y-115072207D01*
X140237885Y-115230522D01*
X140286443Y-115184904D01*
X140320357Y-115149066D01*
X140334987Y-115125719D01*
X140335000Y-115125380D01*
X140320221Y-115106286D01*
X140280349Y-115065839D01*
X140222082Y-115010637D01*
X140174558Y-114967308D01*
X140014116Y-114823143D01*
X139923368Y-114913891D01*
X139803428Y-114913891D01*
X139844229Y-114874615D01*
X139921626Y-114802271D01*
X139978872Y-114751414D01*
X140012064Y-114725732D01*
X140017738Y-114723333D01*
X140047819Y-114737878D01*
G37*
X140047819Y-114737878D02*
X140097307Y-114776898D01*
X140159518Y-114833463D01*
X140227765Y-114900649D01*
X140295364Y-114971528D01*
X140355628Y-115039173D01*
X140401873Y-115096658D01*
X140427413Y-115137055D01*
X140429942Y-115150421D01*
X140412313Y-115172268D01*
X140367678Y-115220004D01*
X140299503Y-115290131D01*
X140211253Y-115379155D01*
X140106397Y-115483578D01*
X139988399Y-115599905D01*
X139860728Y-115724639D01*
X139857208Y-115728063D01*
X139700343Y-115879882D01*
X139571036Y-116003324D01*
X139467212Y-116100240D01*
X139386792Y-116172483D01*
X139327702Y-116221906D01*
X139287863Y-116250360D01*
X139265199Y-116259699D01*
X139261785Y-116259196D01*
X139232198Y-116263349D01*
X139184728Y-116294251D01*
X139115837Y-116354443D01*
X139076935Y-116391730D01*
X138998379Y-116465224D01*
X138930916Y-116517949D01*
X138859243Y-116559747D01*
X138768054Y-116600459D01*
X138726334Y-116617207D01*
X138639135Y-116651634D01*
X138565395Y-116680751D01*
X138514862Y-116700710D01*
X138498970Y-116706991D01*
X138469857Y-116700142D01*
X138460858Y-116686558D01*
X138463524Y-116655354D01*
X138479827Y-116594431D01*
X138486087Y-116575673D01*
X138579737Y-116575673D01*
X138586414Y-116584636D01*
X138594350Y-116582472D01*
X138620570Y-116571667D01*
X138675187Y-116549514D01*
X138747306Y-116520429D01*
X138761448Y-116514741D01*
X138856977Y-116470504D01*
X138938166Y-116417185D01*
X139021781Y-116343261D01*
X139046186Y-116319042D01*
X139180009Y-116184019D01*
X139075564Y-116077979D01*
X138971118Y-115971939D01*
X138838963Y-116102920D01*
X138759505Y-116188143D01*
X138702788Y-116267780D01*
X138656531Y-116360024D01*
X138642373Y-116394075D01*
X138606302Y-116485943D01*
X138585895Y-116544625D01*
X138579737Y-116575673D01*
X138486087Y-116575673D01*
X138506977Y-116513085D01*
X138536170Y-116435653D01*
X138578941Y-116331961D01*
X138616568Y-116255197D01*
X138657424Y-116192171D01*
X138709878Y-116129691D01*
X138770353Y-116066637D01*
X138839233Y-115994646D01*
X138880206Y-115945422D01*
X138896996Y-115913599D01*
X138893326Y-115893809D01*
X138891581Y-115891880D01*
X138884933Y-115883847D01*
X138882629Y-115873954D01*
X138887111Y-115859493D01*
X138889904Y-115855064D01*
X138980641Y-115855064D01*
X139133416Y-116008865D01*
X139198126Y-116072968D01*
X139251592Y-116123982D01*
X139287030Y-116155547D01*
X139297493Y-116162666D01*
X139314742Y-116148269D01*
X139358019Y-116107555D01*
X139423515Y-116044241D01*
X139507422Y-115962040D01*
X139605932Y-115864671D01*
X139715236Y-115755848D01*
X139747987Y-115723100D01*
X140187180Y-115283534D01*
X140028086Y-115125502D01*
X139868991Y-114967469D01*
X139424816Y-115411267D01*
X138980641Y-115855064D01*
X138889904Y-115855064D01*
X138900821Y-115837755D01*
X138926202Y-115806032D01*
X138965696Y-115761616D01*
X139021746Y-115701797D01*
X139096793Y-115623868D01*
X139193280Y-115525120D01*
X139313649Y-115402845D01*
X139460343Y-115254334D01*
X139530171Y-115183708D01*
X139644597Y-115069020D01*
X139750584Y-114964760D01*
X139803428Y-114913891D01*
X139923368Y-114913891D01*
X140080626Y-115072207D01*
X140237885Y-115230522D01*
X140286443Y-115184904D01*
X140320357Y-115149066D01*
X140334987Y-115125719D01*
X140335000Y-115125380D01*
X140320221Y-115106286D01*
X140280349Y-115065839D01*
X140222082Y-115010637D01*
X140174558Y-114967308D01*
X140014116Y-114823143D01*
X139923368Y-114913891D01*
X139803428Y-114913891D01*
X139844229Y-114874615D01*
X139921626Y-114802271D01*
X139978872Y-114751414D01*
X140012064Y-114725732D01*
X140017738Y-114723333D01*
X140047819Y-114737878D01*
G36*
X138611579Y-114696983D02*
G01*
X138650506Y-114741643D01*
X138707047Y-114810041D01*
X138777141Y-114897242D01*
X138856726Y-114998308D01*
X138881462Y-115030099D01*
X138978783Y-115157084D01*
X139050654Y-115254959D01*
X139098940Y-115326956D01*
X139125507Y-115376306D01*
X139132218Y-115406241D01*
X139120938Y-115419995D01*
X139107474Y-115421833D01*
X139089145Y-115405970D01*
X139049271Y-115361836D01*
X138992247Y-115294616D01*
X138922467Y-115209492D01*
X138844328Y-115111648D01*
X138842732Y-115109625D01*
X138764646Y-115011279D01*
X138695209Y-114925099D01*
X138638757Y-114856358D01*
X138599622Y-114810335D01*
X138582138Y-114792304D01*
X138582051Y-114792269D01*
X138562484Y-114803497D01*
X138514917Y-114837356D01*
X138444332Y-114889938D01*
X138355711Y-114957335D01*
X138254037Y-115035641D01*
X138144291Y-115120947D01*
X138031456Y-115209346D01*
X137920513Y-115296930D01*
X137816446Y-115379792D01*
X137724236Y-115454023D01*
X137648865Y-115515718D01*
X137595315Y-115560967D01*
X137568570Y-115585864D01*
X137566523Y-115588762D01*
X137577573Y-115610324D01*
X137612143Y-115657582D01*
X137665587Y-115724628D01*
X137733261Y-115805551D01*
X137774880Y-115853851D01*
X137856800Y-115947451D01*
X137916561Y-116013408D01*
X137959598Y-116056178D01*
X137991345Y-116080222D01*
X138017239Y-116089999D01*
X138042713Y-116089969D01*
X138059336Y-116087233D01*
X138145835Y-116088131D01*
X138215907Y-116120271D01*
X138266703Y-116175051D01*
X138295370Y-116243868D01*
X138299057Y-116318120D01*
X138274912Y-116389206D01*
X138220083Y-116448522D01*
X138185743Y-116468563D01*
X138105388Y-116496729D01*
X138040000Y-116492301D01*
X137975594Y-116453570D01*
X137961100Y-116441110D01*
X137906359Y-116366200D01*
X137897887Y-116319550D01*
X137971031Y-116319550D01*
X137996669Y-116369661D01*
X138041209Y-116404714D01*
X138097101Y-116416997D01*
X138156793Y-116398799D01*
X138179625Y-116381636D01*
X138212592Y-116327947D01*
X138214149Y-116266470D01*
X138189076Y-116210122D01*
X138142148Y-116171821D01*
X138098636Y-116162666D01*
X138046589Y-116177277D01*
X138006667Y-116205000D01*
X137971847Y-116262092D01*
X137971031Y-116319550D01*
X137897887Y-116319550D01*
X137890025Y-116276267D01*
X137906758Y-116192797D01*
X137908204Y-116169814D01*
X137895657Y-116138025D01*
X137865616Y-116092301D01*
X137814582Y-116027518D01*
X137739056Y-115938548D01*
X137711686Y-115907047D01*
X137636966Y-115822918D01*
X137570950Y-115751518D01*
X137518993Y-115698416D01*
X137486452Y-115669179D01*
X137479127Y-115665250D01*
X137454978Y-115677552D01*
X137405973Y-115710634D01*
X137339548Y-115758755D01*
X137263139Y-115816177D01*
X137184181Y-115877161D01*
X137110109Y-115935968D01*
X137048358Y-115986859D01*
X137006364Y-116024093D01*
X136991540Y-116041603D01*
X137004047Y-116062145D01*
X137039564Y-116110544D01*
X137094300Y-116181888D01*
X137164462Y-116271268D01*
X137246259Y-116373773D01*
X137288329Y-116425934D01*
X137406715Y-116569702D01*
X137502006Y-116679929D01*
X137573893Y-116756279D01*
X137622066Y-116798414D01*
X137638421Y-116806903D01*
X137678613Y-116808306D01*
X137718971Y-116786007D01*
X137761300Y-116745364D01*
X137812681Y-116697779D01*
X137860532Y-116675951D01*
X137925183Y-116670667D01*
X137926101Y-116670666D01*
X138000577Y-116678382D01*
X138051475Y-116705310D01*
X138064908Y-116718291D01*
X138114299Y-116796838D01*
X138126905Y-116878859D01*
X138106554Y-116955881D01*
X138057075Y-117019431D01*
X137982296Y-117061036D01*
X137904739Y-117072833D01*
X137831919Y-117055037D01*
X137767303Y-117009495D01*
X137726602Y-116947975D01*
X137723212Y-116936857D01*
X137705134Y-116900227D01*
X137666423Y-116882846D01*
X137631250Y-116878314D01*
X137604367Y-116874411D01*
X137578487Y-116864793D01*
X137561234Y-116853260D01*
X137798680Y-116853260D01*
X137808494Y-116908686D01*
X137842938Y-116954552D01*
X137893299Y-116983678D01*
X137950862Y-116988884D01*
X138006912Y-116962990D01*
X138015738Y-116954904D01*
X138040489Y-116909628D01*
X138049000Y-116860142D01*
X138031831Y-116798652D01*
X137988266Y-116758572D01*
X137930220Y-116743302D01*
X137869606Y-116756240D01*
X137822213Y-116795455D01*
X137798680Y-116853260D01*
X137561234Y-116853260D01*
X137549511Y-116845424D01*
X137513342Y-116812264D01*
X137465882Y-116761278D01*
X137403033Y-116688428D01*
X137320698Y-116589676D01*
X137244937Y-116497700D01*
X137156323Y-116389998D01*
X137076505Y-116293224D01*
X137009465Y-116212189D01*
X136959187Y-116151704D01*
X136929655Y-116116577D01*
X136923768Y-116109879D01*
X136902163Y-116115255D01*
X136858702Y-116141152D01*
X136803246Y-116180053D01*
X136745653Y-116224435D01*
X136695781Y-116266780D01*
X136663490Y-116299567D01*
X136656790Y-116313514D01*
X136670892Y-116332905D01*
X136708879Y-116381777D01*
X136768015Y-116456696D01*
X136845564Y-116554226D01*
X136938791Y-116670934D01*
X137044960Y-116803384D01*
X137161335Y-116948141D01*
X137242520Y-117048898D01*
X137822456Y-117768006D01*
X138239500Y-117426684D01*
X138239500Y-117353065D01*
X138328203Y-117353065D01*
X138357280Y-117408947D01*
X138371792Y-117421511D01*
X138435507Y-117447983D01*
X138494222Y-117432903D01*
X138543859Y-117384071D01*
X138571960Y-117340503D01*
X138574475Y-117307469D01*
X138555905Y-117267654D01*
X138510051Y-117221618D01*
X138448390Y-117202208D01*
X138386930Y-117212320D01*
X138358572Y-117231952D01*
X138328222Y-117288152D01*
X138328203Y-117353065D01*
X138239500Y-117353065D01*
X138239500Y-117325723D01*
X138243794Y-117258066D01*
X138261998Y-117213225D01*
X138302100Y-117172098D01*
X138304624Y-117169964D01*
X138387300Y-117122856D01*
X138470975Y-117116846D01*
X138550492Y-117151800D01*
X138579795Y-117177038D01*
X138627219Y-117250572D01*
X138643165Y-117336118D01*
X138625994Y-117418949D01*
X138609851Y-117447503D01*
X138552628Y-117496757D01*
X138475359Y-117524017D01*
X138397122Y-117523468D01*
X138378754Y-117517968D01*
X138331063Y-117502058D01*
X138303029Y-117496166D01*
X138282005Y-117508532D01*
X138236001Y-117541575D01*
X138172845Y-117589212D01*
X138100359Y-117645362D01*
X138026369Y-117703943D01*
X137958701Y-117758871D01*
X137905178Y-117804065D01*
X137892823Y-117815020D01*
X137897823Y-117836571D01*
X137924605Y-117880796D01*
X137966348Y-117939156D01*
X138016233Y-118003114D01*
X138067443Y-118064132D01*
X138113159Y-118113671D01*
X138146560Y-118143193D01*
X138158438Y-118147604D01*
X138179374Y-118133597D01*
X138229289Y-118097137D01*
X138303646Y-118041634D01*
X138397909Y-117970494D01*
X138507539Y-117887126D01*
X138628001Y-117794938D01*
X138631277Y-117792423D01*
X138767204Y-117687780D01*
X138873086Y-117605258D01*
X138952645Y-117541447D01*
X139009607Y-117492937D01*
X139047692Y-117456318D01*
X139070627Y-117428181D01*
X139082132Y-117405116D01*
X139085933Y-117383713D01*
X139086132Y-117375884D01*
X139077013Y-117321808D01*
X139045625Y-117295707D01*
X139042628Y-117294700D01*
X138994990Y-117259615D01*
X138960135Y-117196735D01*
X138943842Y-117120019D01*
X138943866Y-117119569D01*
X139021581Y-117119569D01*
X139039870Y-117179669D01*
X139057697Y-117203458D01*
X139112147Y-117236587D01*
X139175522Y-117238558D01*
X139230790Y-117210133D01*
X139243717Y-117195123D01*
X139273766Y-117127841D01*
X139262723Y-117067328D01*
X139234334Y-117030500D01*
X139176764Y-116995113D01*
X139119042Y-116993830D01*
X139068829Y-117019147D01*
X139033788Y-117063561D01*
X139021581Y-117119569D01*
X138943866Y-117119569D01*
X138946935Y-117063595D01*
X138975108Y-116992352D01*
X139029107Y-116944902D01*
X139116592Y-116908601D01*
X139196714Y-116913177D01*
X139274490Y-116959029D01*
X139281144Y-116964833D01*
X139327883Y-117015555D01*
X139347192Y-117067984D01*
X139349788Y-117111309D01*
X139331373Y-117202364D01*
X139279430Y-117272329D01*
X139221428Y-117306442D01*
X139184428Y-117339192D01*
X139163562Y-117406152D01*
X139163408Y-117407107D01*
X139157945Y-117432913D01*
X139147842Y-117457614D01*
X139129322Y-117484718D01*
X139098605Y-117517731D01*
X139051916Y-117560159D01*
X138985475Y-117615511D01*
X138895506Y-117687292D01*
X138778231Y-117779008D01*
X138683601Y-117852503D01*
X138562452Y-117947091D01*
X138453120Y-118033633D01*
X138359850Y-118108671D01*
X138286891Y-118168747D01*
X138238491Y-118210405D01*
X138218896Y-118230186D01*
X138218684Y-118230951D01*
X138233203Y-118261389D01*
X138267703Y-118308984D01*
X138313749Y-118364273D01*
X138362903Y-118417792D01*
X138406727Y-118460078D01*
X138436785Y-118481668D01*
X138442916Y-118482450D01*
X138464787Y-118468081D01*
X138516343Y-118431267D01*
X138593878Y-118374781D01*
X138693687Y-118301397D01*
X138812064Y-118213887D01*
X138945303Y-118115024D01*
X139089699Y-118007580D01*
X139241547Y-117894329D01*
X139397140Y-117778042D01*
X139552773Y-117661494D01*
X139704740Y-117547456D01*
X139849337Y-117438701D01*
X139982856Y-117338002D01*
X140101594Y-117248132D01*
X140201843Y-117171864D01*
X140279899Y-117111970D01*
X140332055Y-117071223D01*
X140354607Y-117052396D01*
X140355239Y-117051531D01*
X140342931Y-117032718D01*
X140307760Y-116985135D01*
X140253121Y-116913219D01*
X140182410Y-116821405D01*
X140099023Y-116714128D01*
X140006846Y-116596448D01*
X139895111Y-116453316D01*
X139808315Y-116339459D01*
X139744391Y-116251553D01*
X139701271Y-116186273D01*
X139676885Y-116140296D01*
X139669167Y-116110297D01*
X139676048Y-116092953D01*
X139689417Y-116086285D01*
X139707343Y-116100762D01*
X139746649Y-116144036D01*
X139803355Y-116211006D01*
X139873478Y-116296575D01*
X139953038Y-116395644D01*
X140038051Y-116503114D01*
X140124537Y-116613887D01*
X140208514Y-116722863D01*
X140286000Y-116824944D01*
X140353013Y-116915032D01*
X140405573Y-116988026D01*
X140439697Y-117038830D01*
X140451417Y-117062070D01*
X140435001Y-117078342D01*
X140388147Y-117117094D01*
X140314444Y-117175624D01*
X140217483Y-117251227D01*
X140100852Y-117341201D01*
X139968143Y-117442843D01*
X139822944Y-117553450D01*
X139668846Y-117670318D01*
X139509438Y-117790745D01*
X139348310Y-117912028D01*
X139189052Y-118031463D01*
X139035254Y-118146347D01*
X138890505Y-118253978D01*
X138758396Y-118351652D01*
X138642516Y-118436667D01*
X138546455Y-118506318D01*
X138473803Y-118557903D01*
X138428149Y-118588720D01*
X138413484Y-118596603D01*
X138397943Y-118580540D01*
X138357990Y-118534200D01*
X138295811Y-118460239D01*
X138213594Y-118361310D01*
X138113526Y-118240070D01*
X137997797Y-118099173D01*
X137868592Y-117941274D01*
X137728099Y-117769029D01*
X137578507Y-117585093D01*
X137477500Y-117460611D01*
X137323264Y-117269989D01*
X137177127Y-117088662D01*
X137041248Y-116919352D01*
X136917782Y-116764781D01*
X136808887Y-116627671D01*
X136716721Y-116510744D01*
X136643440Y-116416721D01*
X136591202Y-116348325D01*
X136562163Y-116308278D01*
X136556750Y-116298774D01*
X136572849Y-116282178D01*
X136618823Y-116242286D01*
X136691186Y-116181866D01*
X136786454Y-116103684D01*
X136901143Y-116010507D01*
X137031766Y-115905102D01*
X137174840Y-115790235D01*
X137326880Y-115668674D01*
X137484400Y-115543186D01*
X137643915Y-115416537D01*
X137801942Y-115291494D01*
X137954995Y-115170824D01*
X138099589Y-115057294D01*
X138232239Y-114953672D01*
X138349460Y-114862722D01*
X138447769Y-114787214D01*
X138523679Y-114729913D01*
X138573706Y-114693586D01*
X138594326Y-114681000D01*
X138611579Y-114696983D01*
G37*
X138611579Y-114696983D02*
X138650506Y-114741643D01*
X138707047Y-114810041D01*
X138777141Y-114897242D01*
X138856726Y-114998308D01*
X138881462Y-115030099D01*
X138978783Y-115157084D01*
X139050654Y-115254959D01*
X139098940Y-115326956D01*
X139125507Y-115376306D01*
X139132218Y-115406241D01*
X139120938Y-115419995D01*
X139107474Y-115421833D01*
X139089145Y-115405970D01*
X139049271Y-115361836D01*
X138992247Y-115294616D01*
X138922467Y-115209492D01*
X138844328Y-115111648D01*
X138842732Y-115109625D01*
X138764646Y-115011279D01*
X138695209Y-114925099D01*
X138638757Y-114856358D01*
X138599622Y-114810335D01*
X138582138Y-114792304D01*
X138582051Y-114792269D01*
X138562484Y-114803497D01*
X138514917Y-114837356D01*
X138444332Y-114889938D01*
X138355711Y-114957335D01*
X138254037Y-115035641D01*
X138144291Y-115120947D01*
X138031456Y-115209346D01*
X137920513Y-115296930D01*
X137816446Y-115379792D01*
X137724236Y-115454023D01*
X137648865Y-115515718D01*
X137595315Y-115560967D01*
X137568570Y-115585864D01*
X137566523Y-115588762D01*
X137577573Y-115610324D01*
X137612143Y-115657582D01*
X137665587Y-115724628D01*
X137733261Y-115805551D01*
X137774880Y-115853851D01*
X137856800Y-115947451D01*
X137916561Y-116013408D01*
X137959598Y-116056178D01*
X137991345Y-116080222D01*
X138017239Y-116089999D01*
X138042713Y-116089969D01*
X138059336Y-116087233D01*
X138145835Y-116088131D01*
X138215907Y-116120271D01*
X138266703Y-116175051D01*
X138295370Y-116243868D01*
X138299057Y-116318120D01*
X138274912Y-116389206D01*
X138220083Y-116448522D01*
X138185743Y-116468563D01*
X138105388Y-116496729D01*
X138040000Y-116492301D01*
X137975594Y-116453570D01*
X137961100Y-116441110D01*
X137906359Y-116366200D01*
X137897887Y-116319550D01*
X137971031Y-116319550D01*
X137996669Y-116369661D01*
X138041209Y-116404714D01*
X138097101Y-116416997D01*
X138156793Y-116398799D01*
X138179625Y-116381636D01*
X138212592Y-116327947D01*
X138214149Y-116266470D01*
X138189076Y-116210122D01*
X138142148Y-116171821D01*
X138098636Y-116162666D01*
X138046589Y-116177277D01*
X138006667Y-116205000D01*
X137971847Y-116262092D01*
X137971031Y-116319550D01*
X137897887Y-116319550D01*
X137890025Y-116276267D01*
X137906758Y-116192797D01*
X137908204Y-116169814D01*
X137895657Y-116138025D01*
X137865616Y-116092301D01*
X137814582Y-116027518D01*
X137739056Y-115938548D01*
X137711686Y-115907047D01*
X137636966Y-115822918D01*
X137570950Y-115751518D01*
X137518993Y-115698416D01*
X137486452Y-115669179D01*
X137479127Y-115665250D01*
X137454978Y-115677552D01*
X137405973Y-115710634D01*
X137339548Y-115758755D01*
X137263139Y-115816177D01*
X137184181Y-115877161D01*
X137110109Y-115935968D01*
X137048358Y-115986859D01*
X137006364Y-116024093D01*
X136991540Y-116041603D01*
X137004047Y-116062145D01*
X137039564Y-116110544D01*
X137094300Y-116181888D01*
X137164462Y-116271268D01*
X137246259Y-116373773D01*
X137288329Y-116425934D01*
X137406715Y-116569702D01*
X137502006Y-116679929D01*
X137573893Y-116756279D01*
X137622066Y-116798414D01*
X137638421Y-116806903D01*
X137678613Y-116808306D01*
X137718971Y-116786007D01*
X137761300Y-116745364D01*
X137812681Y-116697779D01*
X137860532Y-116675951D01*
X137925183Y-116670667D01*
X137926101Y-116670666D01*
X138000577Y-116678382D01*
X138051475Y-116705310D01*
X138064908Y-116718291D01*
X138114299Y-116796838D01*
X138126905Y-116878859D01*
X138106554Y-116955881D01*
X138057075Y-117019431D01*
X137982296Y-117061036D01*
X137904739Y-117072833D01*
X137831919Y-117055037D01*
X137767303Y-117009495D01*
X137726602Y-116947975D01*
X137723212Y-116936857D01*
X137705134Y-116900227D01*
X137666423Y-116882846D01*
X137631250Y-116878314D01*
X137604367Y-116874411D01*
X137578487Y-116864793D01*
X137561234Y-116853260D01*
X137798680Y-116853260D01*
X137808494Y-116908686D01*
X137842938Y-116954552D01*
X137893299Y-116983678D01*
X137950862Y-116988884D01*
X138006912Y-116962990D01*
X138015738Y-116954904D01*
X138040489Y-116909628D01*
X138049000Y-116860142D01*
X138031831Y-116798652D01*
X137988266Y-116758572D01*
X137930220Y-116743302D01*
X137869606Y-116756240D01*
X137822213Y-116795455D01*
X137798680Y-116853260D01*
X137561234Y-116853260D01*
X137549511Y-116845424D01*
X137513342Y-116812264D01*
X137465882Y-116761278D01*
X137403033Y-116688428D01*
X137320698Y-116589676D01*
X137244937Y-116497700D01*
X137156323Y-116389998D01*
X137076505Y-116293224D01*
X137009465Y-116212189D01*
X136959187Y-116151704D01*
X136929655Y-116116577D01*
X136923768Y-116109879D01*
X136902163Y-116115255D01*
X136858702Y-116141152D01*
X136803246Y-116180053D01*
X136745653Y-116224435D01*
X136695781Y-116266780D01*
X136663490Y-116299567D01*
X136656790Y-116313514D01*
X136670892Y-116332905D01*
X136708879Y-116381777D01*
X136768015Y-116456696D01*
X136845564Y-116554226D01*
X136938791Y-116670934D01*
X137044960Y-116803384D01*
X137161335Y-116948141D01*
X137242520Y-117048898D01*
X137822456Y-117768006D01*
X138239500Y-117426684D01*
X138239500Y-117353065D01*
X138328203Y-117353065D01*
X138357280Y-117408947D01*
X138371792Y-117421511D01*
X138435507Y-117447983D01*
X138494222Y-117432903D01*
X138543859Y-117384071D01*
X138571960Y-117340503D01*
X138574475Y-117307469D01*
X138555905Y-117267654D01*
X138510051Y-117221618D01*
X138448390Y-117202208D01*
X138386930Y-117212320D01*
X138358572Y-117231952D01*
X138328222Y-117288152D01*
X138328203Y-117353065D01*
X138239500Y-117353065D01*
X138239500Y-117325723D01*
X138243794Y-117258066D01*
X138261998Y-117213225D01*
X138302100Y-117172098D01*
X138304624Y-117169964D01*
X138387300Y-117122856D01*
X138470975Y-117116846D01*
X138550492Y-117151800D01*
X138579795Y-117177038D01*
X138627219Y-117250572D01*
X138643165Y-117336118D01*
X138625994Y-117418949D01*
X138609851Y-117447503D01*
X138552628Y-117496757D01*
X138475359Y-117524017D01*
X138397122Y-117523468D01*
X138378754Y-117517968D01*
X138331063Y-117502058D01*
X138303029Y-117496166D01*
X138282005Y-117508532D01*
X138236001Y-117541575D01*
X138172845Y-117589212D01*
X138100359Y-117645362D01*
X138026369Y-117703943D01*
X137958701Y-117758871D01*
X137905178Y-117804065D01*
X137892823Y-117815020D01*
X137897823Y-117836571D01*
X137924605Y-117880796D01*
X137966348Y-117939156D01*
X138016233Y-118003114D01*
X138067443Y-118064132D01*
X138113159Y-118113671D01*
X138146560Y-118143193D01*
X138158438Y-118147604D01*
X138179374Y-118133597D01*
X138229289Y-118097137D01*
X138303646Y-118041634D01*
X138397909Y-117970494D01*
X138507539Y-117887126D01*
X138628001Y-117794938D01*
X138631277Y-117792423D01*
X138767204Y-117687780D01*
X138873086Y-117605258D01*
X138952645Y-117541447D01*
X139009607Y-117492937D01*
X139047692Y-117456318D01*
X139070627Y-117428181D01*
X139082132Y-117405116D01*
X139085933Y-117383713D01*
X139086132Y-117375884D01*
X139077013Y-117321808D01*
X139045625Y-117295707D01*
X139042628Y-117294700D01*
X138994990Y-117259615D01*
X138960135Y-117196735D01*
X138943842Y-117120019D01*
X138943866Y-117119569D01*
X139021581Y-117119569D01*
X139039870Y-117179669D01*
X139057697Y-117203458D01*
X139112147Y-117236587D01*
X139175522Y-117238558D01*
X139230790Y-117210133D01*
X139243717Y-117195123D01*
X139273766Y-117127841D01*
X139262723Y-117067328D01*
X139234334Y-117030500D01*
X139176764Y-116995113D01*
X139119042Y-116993830D01*
X139068829Y-117019147D01*
X139033788Y-117063561D01*
X139021581Y-117119569D01*
X138943866Y-117119569D01*
X138946935Y-117063595D01*
X138975108Y-116992352D01*
X139029107Y-116944902D01*
X139116592Y-116908601D01*
X139196714Y-116913177D01*
X139274490Y-116959029D01*
X139281144Y-116964833D01*
X139327883Y-117015555D01*
X139347192Y-117067984D01*
X139349788Y-117111309D01*
X139331373Y-117202364D01*
X139279430Y-117272329D01*
X139221428Y-117306442D01*
X139184428Y-117339192D01*
X139163562Y-117406152D01*
X139163408Y-117407107D01*
X139157945Y-117432913D01*
X139147842Y-117457614D01*
X139129322Y-117484718D01*
X139098605Y-117517731D01*
X139051916Y-117560159D01*
X138985475Y-117615511D01*
X138895506Y-117687292D01*
X138778231Y-117779008D01*
X138683601Y-117852503D01*
X138562452Y-117947091D01*
X138453120Y-118033633D01*
X138359850Y-118108671D01*
X138286891Y-118168747D01*
X138238491Y-118210405D01*
X138218896Y-118230186D01*
X138218684Y-118230951D01*
X138233203Y-118261389D01*
X138267703Y-118308984D01*
X138313749Y-118364273D01*
X138362903Y-118417792D01*
X138406727Y-118460078D01*
X138436785Y-118481668D01*
X138442916Y-118482450D01*
X138464787Y-118468081D01*
X138516343Y-118431267D01*
X138593878Y-118374781D01*
X138693687Y-118301397D01*
X138812064Y-118213887D01*
X138945303Y-118115024D01*
X139089699Y-118007580D01*
X139241547Y-117894329D01*
X139397140Y-117778042D01*
X139552773Y-117661494D01*
X139704740Y-117547456D01*
X139849337Y-117438701D01*
X139982856Y-117338002D01*
X140101594Y-117248132D01*
X140201843Y-117171864D01*
X140279899Y-117111970D01*
X140332055Y-117071223D01*
X140354607Y-117052396D01*
X140355239Y-117051531D01*
X140342931Y-117032718D01*
X140307760Y-116985135D01*
X140253121Y-116913219D01*
X140182410Y-116821405D01*
X140099023Y-116714128D01*
X140006846Y-116596448D01*
X139895111Y-116453316D01*
X139808315Y-116339459D01*
X139744391Y-116251553D01*
X139701271Y-116186273D01*
X139676885Y-116140296D01*
X139669167Y-116110297D01*
X139676048Y-116092953D01*
X139689417Y-116086285D01*
X139707343Y-116100762D01*
X139746649Y-116144036D01*
X139803355Y-116211006D01*
X139873478Y-116296575D01*
X139953038Y-116395644D01*
X140038051Y-116503114D01*
X140124537Y-116613887D01*
X140208514Y-116722863D01*
X140286000Y-116824944D01*
X140353013Y-116915032D01*
X140405573Y-116988026D01*
X140439697Y-117038830D01*
X140451417Y-117062070D01*
X140435001Y-117078342D01*
X140388147Y-117117094D01*
X140314444Y-117175624D01*
X140217483Y-117251227D01*
X140100852Y-117341201D01*
X139968143Y-117442843D01*
X139822944Y-117553450D01*
X139668846Y-117670318D01*
X139509438Y-117790745D01*
X139348310Y-117912028D01*
X139189052Y-118031463D01*
X139035254Y-118146347D01*
X138890505Y-118253978D01*
X138758396Y-118351652D01*
X138642516Y-118436667D01*
X138546455Y-118506318D01*
X138473803Y-118557903D01*
X138428149Y-118588720D01*
X138413484Y-118596603D01*
X138397943Y-118580540D01*
X138357990Y-118534200D01*
X138295811Y-118460239D01*
X138213594Y-118361310D01*
X138113526Y-118240070D01*
X137997797Y-118099173D01*
X137868592Y-117941274D01*
X137728099Y-117769029D01*
X137578507Y-117585093D01*
X137477500Y-117460611D01*
X137323264Y-117269989D01*
X137177127Y-117088662D01*
X137041248Y-116919352D01*
X136917782Y-116764781D01*
X136808887Y-116627671D01*
X136716721Y-116510744D01*
X136643440Y-116416721D01*
X136591202Y-116348325D01*
X136562163Y-116308278D01*
X136556750Y-116298774D01*
X136572849Y-116282178D01*
X136618823Y-116242286D01*
X136691186Y-116181866D01*
X136786454Y-116103684D01*
X136901143Y-116010507D01*
X137031766Y-115905102D01*
X137174840Y-115790235D01*
X137326880Y-115668674D01*
X137484400Y-115543186D01*
X137643915Y-115416537D01*
X137801942Y-115291494D01*
X137954995Y-115170824D01*
X138099589Y-115057294D01*
X138232239Y-114953672D01*
X138349460Y-114862722D01*
X138447769Y-114787214D01*
X138523679Y-114729913D01*
X138573706Y-114693586D01*
X138594326Y-114681000D01*
X138611579Y-114696983D01*
G36*
X134620000Y-119401166D02*
G01*
X134154334Y-119401166D01*
X134154334Y-119253000D01*
X134620000Y-119253000D01*
X134620000Y-119401166D01*
G37*
X134620000Y-119401166D02*
X134154334Y-119401166D01*
X134154334Y-119253000D01*
X134620000Y-119253000D01*
X134620000Y-119401166D01*
G36*
X142815328Y-118908947D02*
G01*
X142912909Y-118926976D01*
X142985323Y-118961493D01*
X143040650Y-119016155D01*
X143081375Y-119083344D01*
X143118289Y-119193481D01*
X143131500Y-119320392D01*
X143121027Y-119447486D01*
X143086888Y-119558169D01*
X143080848Y-119570232D01*
X143035973Y-119639699D01*
X142981837Y-119688074D01*
X142910480Y-119718674D01*
X142813944Y-119734815D01*
X142684272Y-119739814D01*
X142673869Y-119739833D01*
X142573282Y-119738774D01*
X142504061Y-119734304D01*
X142455265Y-119724486D01*
X142415954Y-119707383D01*
X142386636Y-119688965D01*
X142315520Y-119624946D01*
X142269479Y-119543148D01*
X142246047Y-119436759D01*
X142243196Y-119317335D01*
X142388167Y-119317335D01*
X142396672Y-119438987D01*
X142423134Y-119524676D01*
X142468976Y-119577409D01*
X142520880Y-119597950D01*
X142613780Y-119608412D01*
X142714845Y-119608254D01*
X142806569Y-119598246D01*
X142863393Y-119582875D01*
X142919139Y-119551964D01*
X142954529Y-119509357D01*
X142973637Y-119445902D01*
X142980535Y-119352450D01*
X142980834Y-119319071D01*
X142978590Y-119234997D01*
X142969594Y-119179304D01*
X142950449Y-119138177D01*
X142929750Y-119111305D01*
X142903069Y-119083031D01*
X142875423Y-119065531D01*
X142836326Y-119056230D01*
X142775290Y-119052551D01*
X142688038Y-119051916D01*
X142594902Y-119052979D01*
X142533270Y-119057677D01*
X142492332Y-119068269D01*
X142461283Y-119087018D01*
X142442789Y-119103231D01*
X142414722Y-119133631D01*
X142398316Y-119167229D01*
X142390507Y-119216036D01*
X142388231Y-119292061D01*
X142388167Y-119317335D01*
X142243196Y-119317335D01*
X142242757Y-119298965D01*
X142243033Y-119292160D01*
X142249460Y-119195317D01*
X142260773Y-119128222D01*
X142279870Y-119078337D01*
X142299877Y-119046305D01*
X142352829Y-118984202D01*
X142413184Y-118942367D01*
X142490221Y-118917363D01*
X142593216Y-118905751D01*
X142684500Y-118903750D01*
X142815328Y-118908947D01*
G37*
X142815328Y-118908947D02*
X142912909Y-118926976D01*
X142985323Y-118961493D01*
X143040650Y-119016155D01*
X143081375Y-119083344D01*
X143118289Y-119193481D01*
X143131500Y-119320392D01*
X143121027Y-119447486D01*
X143086888Y-119558169D01*
X143080848Y-119570232D01*
X143035973Y-119639699D01*
X142981837Y-119688074D01*
X142910480Y-119718674D01*
X142813944Y-119734815D01*
X142684272Y-119739814D01*
X142673869Y-119739833D01*
X142573282Y-119738774D01*
X142504061Y-119734304D01*
X142455265Y-119724486D01*
X142415954Y-119707383D01*
X142386636Y-119688965D01*
X142315520Y-119624946D01*
X142269479Y-119543148D01*
X142246047Y-119436759D01*
X142243196Y-119317335D01*
X142388167Y-119317335D01*
X142396672Y-119438987D01*
X142423134Y-119524676D01*
X142468976Y-119577409D01*
X142520880Y-119597950D01*
X142613780Y-119608412D01*
X142714845Y-119608254D01*
X142806569Y-119598246D01*
X142863393Y-119582875D01*
X142919139Y-119551964D01*
X142954529Y-119509357D01*
X142973637Y-119445902D01*
X142980535Y-119352450D01*
X142980834Y-119319071D01*
X142978590Y-119234997D01*
X142969594Y-119179304D01*
X142950449Y-119138177D01*
X142929750Y-119111305D01*
X142903069Y-119083031D01*
X142875423Y-119065531D01*
X142836326Y-119056230D01*
X142775290Y-119052551D01*
X142688038Y-119051916D01*
X142594902Y-119052979D01*
X142533270Y-119057677D01*
X142492332Y-119068269D01*
X142461283Y-119087018D01*
X142442789Y-119103231D01*
X142414722Y-119133631D01*
X142398316Y-119167229D01*
X142390507Y-119216036D01*
X142388231Y-119292061D01*
X142388167Y-119317335D01*
X142243196Y-119317335D01*
X142242757Y-119298965D01*
X142243033Y-119292160D01*
X142249460Y-119195317D01*
X142260773Y-119128222D01*
X142279870Y-119078337D01*
X142299877Y-119046305D01*
X142352829Y-118984202D01*
X142413184Y-118942367D01*
X142490221Y-118917363D01*
X142593216Y-118905751D01*
X142684500Y-118903750D01*
X142815328Y-118908947D01*
G36*
X141414500Y-119253000D02*
G01*
X141943667Y-119253000D01*
X141943667Y-118914333D01*
X142091834Y-118914333D01*
X142091834Y-119739833D01*
X141943667Y-119739833D01*
X141943667Y-119401166D01*
X141414500Y-119401166D01*
X141414500Y-119739833D01*
X141266334Y-119739833D01*
X141266334Y-118914333D01*
X141414500Y-118914333D01*
X141414500Y-119253000D01*
G37*
X141414500Y-119253000D02*
X141943667Y-119253000D01*
X141943667Y-118914333D01*
X142091834Y-118914333D01*
X142091834Y-119739833D01*
X141943667Y-119739833D01*
X141943667Y-119401166D01*
X141414500Y-119401166D01*
X141414500Y-119739833D01*
X141266334Y-119739833D01*
X141266334Y-118914333D01*
X141414500Y-118914333D01*
X141414500Y-119253000D01*
G36*
X140378238Y-118936935D02*
G01*
X140445730Y-118994942D01*
X140536875Y-119084705D01*
X140635893Y-119185148D01*
X140726670Y-119276764D01*
X140807040Y-119357127D01*
X140872405Y-119421700D01*
X140918167Y-119465948D01*
X140939727Y-119485334D01*
X140940690Y-119485833D01*
X140943667Y-119465952D01*
X140946156Y-119411451D01*
X140947937Y-119330043D01*
X140948791Y-119229439D01*
X140948834Y-119200083D01*
X140948834Y-118914333D01*
X141076748Y-118914333D01*
X141070999Y-119321791D01*
X141068571Y-119481995D01*
X141064022Y-119602009D01*
X141053810Y-119683120D01*
X141034388Y-119726617D01*
X141002213Y-119733787D01*
X140953740Y-119705918D01*
X140885424Y-119644298D01*
X140793721Y-119550214D01*
X140703760Y-119455207D01*
X140617356Y-119364836D01*
X140540478Y-119286151D01*
X140477965Y-119223966D01*
X140434651Y-119183089D01*
X140415375Y-119168333D01*
X140415358Y-119168333D01*
X140409196Y-119188212D01*
X140404044Y-119242710D01*
X140400357Y-119324114D01*
X140398589Y-119424713D01*
X140398500Y-119454083D01*
X140398500Y-119739833D01*
X140271500Y-119739833D01*
X140271500Y-119340258D01*
X140271511Y-119176045D01*
X140273908Y-119052641D01*
X140282234Y-118968537D01*
X140300035Y-118922224D01*
X140330854Y-118912193D01*
X140378238Y-118936935D01*
G37*
X140378238Y-118936935D02*
X140445730Y-118994942D01*
X140536875Y-119084705D01*
X140635893Y-119185148D01*
X140726670Y-119276764D01*
X140807040Y-119357127D01*
X140872405Y-119421700D01*
X140918167Y-119465948D01*
X140939727Y-119485334D01*
X140940690Y-119485833D01*
X140943667Y-119465952D01*
X140946156Y-119411451D01*
X140947937Y-119330043D01*
X140948791Y-119229439D01*
X140948834Y-119200083D01*
X140948834Y-118914333D01*
X141076748Y-118914333D01*
X141070999Y-119321791D01*
X141068571Y-119481995D01*
X141064022Y-119602009D01*
X141053810Y-119683120D01*
X141034388Y-119726617D01*
X141002213Y-119733787D01*
X140953740Y-119705918D01*
X140885424Y-119644298D01*
X140793721Y-119550214D01*
X140703760Y-119455207D01*
X140617356Y-119364836D01*
X140540478Y-119286151D01*
X140477965Y-119223966D01*
X140434651Y-119183089D01*
X140415375Y-119168333D01*
X140415358Y-119168333D01*
X140409196Y-119188212D01*
X140404044Y-119242710D01*
X140400357Y-119324114D01*
X140398589Y-119424713D01*
X140398500Y-119454083D01*
X140398500Y-119739833D01*
X140271500Y-119739833D01*
X140271500Y-119340258D01*
X140271511Y-119176045D01*
X140273908Y-119052641D01*
X140282234Y-118968537D01*
X140300035Y-118922224D01*
X140330854Y-118912193D01*
X140378238Y-118936935D01*
G36*
X140081000Y-119739833D02*
G01*
X139932834Y-119739833D01*
X139932834Y-118914333D01*
X140081000Y-118914333D01*
X140081000Y-119739833D01*
G37*
X140081000Y-119739833D02*
X139932834Y-119739833D01*
X139932834Y-118914333D01*
X140081000Y-118914333D01*
X140081000Y-119739833D01*
G36*
X139021514Y-118909289D02*
G01*
X139048808Y-118924812D01*
X139087444Y-118956585D01*
X139141770Y-119008206D01*
X139216132Y-119083272D01*
X139314878Y-119185381D01*
X139321549Y-119192318D01*
X139613972Y-119496416D01*
X139614653Y-119205375D01*
X139615334Y-118914333D01*
X139764414Y-118914333D01*
X139758666Y-119321791D01*
X139756279Y-119480511D01*
X139751807Y-119600159D01*
X139741717Y-119681914D01*
X139722477Y-119726950D01*
X139690556Y-119736445D01*
X139642422Y-119711574D01*
X139574543Y-119653512D01*
X139483387Y-119563438D01*
X139372945Y-119450243D01*
X139087912Y-119157750D01*
X139087040Y-119448791D01*
X139086167Y-119739833D01*
X138938000Y-119739833D01*
X138938000Y-119338411D01*
X138938184Y-119198692D01*
X138939162Y-119095345D01*
X138941571Y-119022408D01*
X138946049Y-118973919D01*
X138953234Y-118943916D01*
X138963764Y-118926437D01*
X138978278Y-118915522D01*
X138983563Y-118912604D01*
X139001214Y-118906419D01*
X139021514Y-118909289D01*
G37*
X139021514Y-118909289D02*
X139048808Y-118924812D01*
X139087444Y-118956585D01*
X139141770Y-119008206D01*
X139216132Y-119083272D01*
X139314878Y-119185381D01*
X139321549Y-119192318D01*
X139613972Y-119496416D01*
X139614653Y-119205375D01*
X139615334Y-118914333D01*
X139764414Y-118914333D01*
X139758666Y-119321791D01*
X139756279Y-119480511D01*
X139751807Y-119600159D01*
X139741717Y-119681914D01*
X139722477Y-119726950D01*
X139690556Y-119736445D01*
X139642422Y-119711574D01*
X139574543Y-119653512D01*
X139483387Y-119563438D01*
X139372945Y-119450243D01*
X139087912Y-119157750D01*
X139087040Y-119448791D01*
X139086167Y-119739833D01*
X138938000Y-119739833D01*
X138938000Y-119338411D01*
X138938184Y-119198692D01*
X138939162Y-119095345D01*
X138941571Y-119022408D01*
X138946049Y-118973919D01*
X138953234Y-118943916D01*
X138963764Y-118926437D01*
X138978278Y-118915522D01*
X138983563Y-118912604D01*
X139001214Y-118906419D01*
X139021514Y-118909289D01*
G36*
X138768667Y-119739833D02*
G01*
X138620500Y-119739833D01*
X138620500Y-118914333D01*
X138768667Y-118914333D01*
X138768667Y-119739833D01*
G37*
X138768667Y-119739833D02*
X138620500Y-119739833D01*
X138620500Y-118914333D01*
X138768667Y-118914333D01*
X138768667Y-119739833D01*
G36*
X138225889Y-118915026D02*
G01*
X138326410Y-118917407D01*
X138395993Y-118921934D01*
X138440329Y-118929061D01*
X138465105Y-118939244D01*
X138471414Y-118944975D01*
X138482398Y-118960731D01*
X138485675Y-118977884D01*
X138478056Y-119001045D01*
X138456346Y-119034823D01*
X138417354Y-119083830D01*
X138357889Y-119152676D01*
X138274757Y-119245972D01*
X138223625Y-119302889D01*
X138144893Y-119391120D01*
X138077144Y-119468335D01*
X138025038Y-119529119D01*
X137993231Y-119568058D01*
X137985500Y-119579680D01*
X138005273Y-119584399D01*
X138059021Y-119588243D01*
X138138388Y-119590802D01*
X138228917Y-119591666D01*
X138472334Y-119591666D01*
X138472334Y-119739833D01*
X138127317Y-119739833D01*
X137978723Y-119738524D01*
X137869848Y-119734483D01*
X137798156Y-119727534D01*
X137761109Y-119717505D01*
X137756900Y-119714433D01*
X137734347Y-119677433D01*
X137731500Y-119662347D01*
X137745071Y-119638681D01*
X137782741Y-119589410D01*
X137839947Y-119520079D01*
X137912125Y-119436238D01*
X137984841Y-119354372D01*
X138238182Y-119073083D01*
X137731500Y-119061197D01*
X137731500Y-118914333D01*
X138088742Y-118914333D01*
X138225889Y-118915026D01*
G37*
X138225889Y-118915026D02*
X138326410Y-118917407D01*
X138395993Y-118921934D01*
X138440329Y-118929061D01*
X138465105Y-118939244D01*
X138471414Y-118944975D01*
X138482398Y-118960731D01*
X138485675Y-118977884D01*
X138478056Y-119001045D01*
X138456346Y-119034823D01*
X138417354Y-119083830D01*
X138357889Y-119152676D01*
X138274757Y-119245972D01*
X138223625Y-119302889D01*
X138144893Y-119391120D01*
X138077144Y-119468335D01*
X138025038Y-119529119D01*
X137993231Y-119568058D01*
X137985500Y-119579680D01*
X138005273Y-119584399D01*
X138059021Y-119588243D01*
X138138388Y-119590802D01*
X138228917Y-119591666D01*
X138472334Y-119591666D01*
X138472334Y-119739833D01*
X138127317Y-119739833D01*
X137978723Y-119738524D01*
X137869848Y-119734483D01*
X137798156Y-119727534D01*
X137761109Y-119717505D01*
X137756900Y-119714433D01*
X137734347Y-119677433D01*
X137731500Y-119662347D01*
X137745071Y-119638681D01*
X137782741Y-119589410D01*
X137839947Y-119520079D01*
X137912125Y-119436238D01*
X137984841Y-119354372D01*
X138238182Y-119073083D01*
X137731500Y-119061197D01*
X137731500Y-118914333D01*
X138088742Y-118914333D01*
X138225889Y-118915026D01*
G36*
X136865645Y-118907604D02*
G01*
X136909610Y-118947872D01*
X136973568Y-119009403D01*
X137052785Y-119087628D01*
X137142526Y-119177981D01*
X137159051Y-119194791D01*
X137455084Y-119496416D01*
X137455709Y-119205375D01*
X137456334Y-118914333D01*
X137604500Y-118914333D01*
X137604500Y-119293602D01*
X137603808Y-119417962D01*
X137601886Y-119529033D01*
X137598969Y-119619311D01*
X137595290Y-119681291D01*
X137591652Y-119706352D01*
X137573268Y-119735206D01*
X137545639Y-119743136D01*
X137505596Y-119728029D01*
X137449971Y-119687772D01*
X137375596Y-119620253D01*
X137279302Y-119523359D01*
X137213305Y-119454083D01*
X137127188Y-119363785D01*
X137050401Y-119285222D01*
X136987827Y-119223233D01*
X136944350Y-119182658D01*
X136924936Y-119168333D01*
X136918014Y-119188212D01*
X136912227Y-119242708D01*
X136908086Y-119324111D01*
X136906100Y-119424708D01*
X136906000Y-119454083D01*
X136906000Y-119739833D01*
X136779000Y-119739833D01*
X136779000Y-119341900D01*
X136779764Y-119191044D01*
X136782558Y-119077484D01*
X136788137Y-118996200D01*
X136797254Y-118942173D01*
X136810664Y-118910384D01*
X136829120Y-118895814D01*
X136846408Y-118893166D01*
X136865645Y-118907604D01*
G37*
X136865645Y-118907604D02*
X136909610Y-118947872D01*
X136973568Y-119009403D01*
X137052785Y-119087628D01*
X137142526Y-119177981D01*
X137159051Y-119194791D01*
X137455084Y-119496416D01*
X137455709Y-119205375D01*
X137456334Y-118914333D01*
X137604500Y-118914333D01*
X137604500Y-119293602D01*
X137603808Y-119417962D01*
X137601886Y-119529033D01*
X137598969Y-119619311D01*
X137595290Y-119681291D01*
X137591652Y-119706352D01*
X137573268Y-119735206D01*
X137545639Y-119743136D01*
X137505596Y-119728029D01*
X137449971Y-119687772D01*
X137375596Y-119620253D01*
X137279302Y-119523359D01*
X137213305Y-119454083D01*
X137127188Y-119363785D01*
X137050401Y-119285222D01*
X136987827Y-119223233D01*
X136944350Y-119182658D01*
X136924936Y-119168333D01*
X136918014Y-119188212D01*
X136912227Y-119242708D01*
X136908086Y-119324111D01*
X136906100Y-119424708D01*
X136906000Y-119454083D01*
X136906000Y-119739833D01*
X136779000Y-119739833D01*
X136779000Y-119341900D01*
X136779764Y-119191044D01*
X136782558Y-119077484D01*
X136788137Y-118996200D01*
X136797254Y-118942173D01*
X136810664Y-118910384D01*
X136829120Y-118895814D01*
X136846408Y-118893166D01*
X136865645Y-118907604D01*
G36*
X136511770Y-118919837D02*
G01*
X136564122Y-118928892D01*
X136578877Y-118936297D01*
X136590170Y-118953225D01*
X136598451Y-118986208D01*
X136604131Y-119040746D01*
X136607616Y-119122340D01*
X136609317Y-119236492D01*
X136609667Y-119350841D01*
X136609667Y-119739833D01*
X136461500Y-119739833D01*
X136461500Y-119528166D01*
X135932334Y-119528166D01*
X135932334Y-119739833D01*
X135784167Y-119739833D01*
X135784167Y-119481932D01*
X135788161Y-119332600D01*
X135792042Y-119300043D01*
X135932334Y-119300043D01*
X135932334Y-119380000D01*
X136461500Y-119380000D01*
X136461500Y-119062500D01*
X136291116Y-119062500D01*
X136151649Y-119072123D01*
X136048111Y-119101877D01*
X135978506Y-119153082D01*
X135940835Y-119227062D01*
X135932334Y-119300043D01*
X135792042Y-119300043D01*
X135801871Y-119217615D01*
X135827889Y-119129593D01*
X135868804Y-119061151D01*
X135927208Y-119004908D01*
X135959709Y-118981728D01*
X135999985Y-118957155D01*
X136039400Y-118940486D01*
X136087826Y-118929850D01*
X136155134Y-118923377D01*
X136251191Y-118919194D01*
X136296772Y-118917830D01*
X136423707Y-118916219D01*
X136511770Y-118919837D01*
G37*
X136511770Y-118919837D02*
X136564122Y-118928892D01*
X136578877Y-118936297D01*
X136590170Y-118953225D01*
X136598451Y-118986208D01*
X136604131Y-119040746D01*
X136607616Y-119122340D01*
X136609317Y-119236492D01*
X136609667Y-119350841D01*
X136609667Y-119739833D01*
X136461500Y-119739833D01*
X136461500Y-119528166D01*
X135932334Y-119528166D01*
X135932334Y-119739833D01*
X135784167Y-119739833D01*
X135784167Y-119481932D01*
X135788161Y-119332600D01*
X135792042Y-119300043D01*
X135932334Y-119300043D01*
X135932334Y-119380000D01*
X136461500Y-119380000D01*
X136461500Y-119062500D01*
X136291116Y-119062500D01*
X136151649Y-119072123D01*
X136048111Y-119101877D01*
X135978506Y-119153082D01*
X135940835Y-119227062D01*
X135932334Y-119300043D01*
X135792042Y-119300043D01*
X135801871Y-119217615D01*
X135827889Y-119129593D01*
X135868804Y-119061151D01*
X135927208Y-119004908D01*
X135959709Y-118981728D01*
X135999985Y-118957155D01*
X136039400Y-118940486D01*
X136087826Y-118929850D01*
X136155134Y-118923377D01*
X136251191Y-118919194D01*
X136296772Y-118917830D01*
X136423707Y-118916219D01*
X136511770Y-118919837D01*
G36*
X135322798Y-118914537D02*
G01*
X135413718Y-118915813D01*
X135476607Y-118919157D01*
X135518618Y-118925565D01*
X135546900Y-118936033D01*
X135568607Y-118951556D01*
X135586358Y-118968600D01*
X135614855Y-119000894D01*
X135630191Y-119034317D01*
X135635285Y-119081833D01*
X135633056Y-119156404D01*
X135632189Y-119172163D01*
X135625954Y-119253083D01*
X135615181Y-119305332D01*
X135594850Y-119342566D01*
X135559940Y-119378444D01*
X135554600Y-119383247D01*
X135495829Y-119425636D01*
X135435865Y-119454065D01*
X135422557Y-119457613D01*
X135359668Y-119470191D01*
X135449855Y-119546804D01*
X135514964Y-119602752D01*
X135578447Y-119658306D01*
X135603897Y-119681004D01*
X135667750Y-119738592D01*
X135560320Y-119739212D01*
X135509105Y-119737840D01*
X135467935Y-119729602D01*
X135426731Y-119709348D01*
X135375414Y-119671928D01*
X135303907Y-119612193D01*
X135292287Y-119602250D01*
X135194518Y-119523916D01*
X135122098Y-119478269D01*
X135076925Y-119464666D01*
X135039956Y-119459438D01*
X135024810Y-119435384D01*
X135022167Y-119390583D01*
X135022167Y-119316500D01*
X135221738Y-119316500D01*
X135332561Y-119313984D01*
X135407867Y-119303764D01*
X135454310Y-119281834D01*
X135478544Y-119244184D01*
X135487225Y-119186808D01*
X135487834Y-119156238D01*
X135487834Y-119062500D01*
X134958667Y-119062500D01*
X134958667Y-119739833D01*
X134810500Y-119739833D01*
X134810500Y-119352483D01*
X134811577Y-119196337D01*
X134814925Y-119079614D01*
X134820720Y-118999458D01*
X134829137Y-118953009D01*
X134835900Y-118939733D01*
X134865071Y-118928714D01*
X134928817Y-118920927D01*
X135029561Y-118916203D01*
X135169730Y-118914369D01*
X135196696Y-118914333D01*
X135322798Y-118914537D01*
G37*
X135322798Y-118914537D02*
X135413718Y-118915813D01*
X135476607Y-118919157D01*
X135518618Y-118925565D01*
X135546900Y-118936033D01*
X135568607Y-118951556D01*
X135586358Y-118968600D01*
X135614855Y-119000894D01*
X135630191Y-119034317D01*
X135635285Y-119081833D01*
X135633056Y-119156404D01*
X135632189Y-119172163D01*
X135625954Y-119253083D01*
X135615181Y-119305332D01*
X135594850Y-119342566D01*
X135559940Y-119378444D01*
X135554600Y-119383247D01*
X135495829Y-119425636D01*
X135435865Y-119454065D01*
X135422557Y-119457613D01*
X135359668Y-119470191D01*
X135449855Y-119546804D01*
X135514964Y-119602752D01*
X135578447Y-119658306D01*
X135603897Y-119681004D01*
X135667750Y-119738592D01*
X135560320Y-119739212D01*
X135509105Y-119737840D01*
X135467935Y-119729602D01*
X135426731Y-119709348D01*
X135375414Y-119671928D01*
X135303907Y-119612193D01*
X135292287Y-119602250D01*
X135194518Y-119523916D01*
X135122098Y-119478269D01*
X135076925Y-119464666D01*
X135039956Y-119459438D01*
X135024810Y-119435384D01*
X135022167Y-119390583D01*
X135022167Y-119316500D01*
X135221738Y-119316500D01*
X135332561Y-119313984D01*
X135407867Y-119303764D01*
X135454310Y-119281834D01*
X135478544Y-119244184D01*
X135487225Y-119186808D01*
X135487834Y-119156238D01*
X135487834Y-119062500D01*
X134958667Y-119062500D01*
X134958667Y-119739833D01*
X134810500Y-119739833D01*
X134810500Y-119352483D01*
X134811577Y-119196337D01*
X134814925Y-119079614D01*
X134820720Y-118999458D01*
X134829137Y-118953009D01*
X134835900Y-118939733D01*
X134865071Y-118928714D01*
X134928817Y-118920927D01*
X135029561Y-118916203D01*
X135169730Y-118914369D01*
X135196696Y-118914333D01*
X135322798Y-118914537D01*
G36*
X134683500Y-119062500D02*
G01*
X134090834Y-119062500D01*
X134090834Y-119739833D01*
X133942667Y-119739833D01*
X133942667Y-119352483D01*
X133943744Y-119196337D01*
X133947092Y-119079614D01*
X133952886Y-118999458D01*
X133961304Y-118953009D01*
X133968067Y-118939733D01*
X133996684Y-118928890D01*
X134059300Y-118921172D01*
X134158451Y-118916406D01*
X134296674Y-118914417D01*
X134338483Y-118914333D01*
X134683500Y-118914333D01*
X134683500Y-119062500D01*
G37*
X134683500Y-119062500D02*
X134090834Y-119062500D01*
X134090834Y-119739833D01*
X133942667Y-119739833D01*
X133942667Y-119352483D01*
X133943744Y-119196337D01*
X133947092Y-119079614D01*
X133952886Y-118999458D01*
X133961304Y-118953009D01*
X133968067Y-118939733D01*
X133996684Y-118928890D01*
X134059300Y-118921172D01*
X134158451Y-118916406D01*
X134296674Y-118914417D01*
X134338483Y-118914333D01*
X134683500Y-118914333D01*
X134683500Y-119062500D01*
D11*
X143315940Y-112210857D02*
X143544511Y-112210857D01*
X143658797Y-112268000D01*
X143773082Y-112382285D01*
X143830225Y-112610857D01*
X143830225Y-113010857D01*
X143773082Y-113239428D01*
X143658797Y-113353714D01*
X143544511Y-113410857D01*
X143315940Y-113410857D01*
X143201654Y-113353714D01*
X143087368Y-113239428D01*
X143030225Y-113010857D01*
X143030225Y-112610857D01*
X143087368Y-112382285D01*
X143201654Y-112268000D01*
X143315940Y-112210857D01*
X144344511Y-113410857D02*
X144344511Y-112210857D01*
X145030225Y-113410857D01*
X145030225Y-112210857D01*
X135092654Y-110324780D02*
X135092654Y-109324780D01*
X135330749Y-109324780D01*
X135473606Y-109372400D01*
X135568844Y-109467638D01*
X135616463Y-109562876D01*
X135664082Y-109753352D01*
X135664082Y-109896209D01*
X135616463Y-110086685D01*
X135568844Y-110181923D01*
X135473606Y-110277161D01*
X135330749Y-110324780D01*
X135092654Y-110324780D01*
X136045035Y-109420019D02*
X136092654Y-109372400D01*
X136187892Y-109324780D01*
X136425987Y-109324780D01*
X136521225Y-109372400D01*
X136568844Y-109420019D01*
X136616463Y-109515257D01*
X136616463Y-109610495D01*
X136568844Y-109753352D01*
X135997416Y-110324780D01*
X136616463Y-110324780D01*
X135295854Y-100926780D02*
X135295854Y-99926780D01*
X135533949Y-99926780D01*
X135676806Y-99974400D01*
X135772044Y-100069638D01*
X135819663Y-100164876D01*
X135867282Y-100355352D01*
X135867282Y-100498209D01*
X135819663Y-100688685D01*
X135772044Y-100783923D01*
X135676806Y-100879161D01*
X135533949Y-100926780D01*
X135295854Y-100926780D01*
X136819663Y-100926780D02*
X136248235Y-100926780D01*
X136533949Y-100926780D02*
X136533949Y-99926780D01*
X136438711Y-100069638D01*
X136343473Y-100164876D01*
X136248235Y-100212495D01*
X141854632Y-99613942D02*
X141807013Y-99661561D01*
X141664156Y-99709180D01*
X141568918Y-99709180D01*
X141426061Y-99661561D01*
X141330823Y-99566323D01*
X141283204Y-99471085D01*
X141235585Y-99280609D01*
X141235585Y-99137752D01*
X141283204Y-98947276D01*
X141330823Y-98852038D01*
X141426061Y-98756800D01*
X141568918Y-98709180D01*
X141664156Y-98709180D01*
X141807013Y-98756800D01*
X141854632Y-98804419D01*
X142807013Y-99709180D02*
X142235585Y-99709180D01*
X142521299Y-99709180D02*
X142521299Y-98709180D01*
X142426061Y-98852038D01*
X142330823Y-98947276D01*
X142235585Y-98994895D01*
X136198488Y-104336857D02*
X135798488Y-103765428D01*
X135512774Y-104336857D02*
X135512774Y-103136857D01*
X135969917Y-103136857D01*
X136084202Y-103194000D01*
X136141345Y-103251142D01*
X136198488Y-103365428D01*
X136198488Y-103536857D01*
X136141345Y-103651142D01*
X136084202Y-103708285D01*
X135969917Y-103765428D01*
X135512774Y-103765428D01*
X137341345Y-104336857D02*
X136655631Y-104336857D01*
X136998488Y-104336857D02*
X136998488Y-103136857D01*
X136884202Y-103308285D01*
X136769917Y-103422571D01*
X136655631Y-103479714D01*
X136198488Y-107384857D02*
X135798488Y-106813428D01*
X135512774Y-107384857D02*
X135512774Y-106184857D01*
X135969917Y-106184857D01*
X136084202Y-106242000D01*
X136141345Y-106299142D01*
X136198488Y-106413428D01*
X136198488Y-106584857D01*
X136141345Y-106699142D01*
X136084202Y-106756285D01*
X135969917Y-106813428D01*
X135512774Y-106813428D01*
X136655631Y-106299142D02*
X136712774Y-106242000D01*
X136827060Y-106184857D01*
X137112774Y-106184857D01*
X137227060Y-106242000D01*
X137284202Y-106299142D01*
X137341345Y-106413428D01*
X137341345Y-106527714D01*
X137284202Y-106699142D01*
X136598488Y-107384857D01*
X137341345Y-107384857D01*
X136198488Y-113480857D02*
X135798488Y-112909428D01*
X135512774Y-113480857D02*
X135512774Y-112280857D01*
X135969917Y-112280857D01*
X136084202Y-112338000D01*
X136141345Y-112395142D01*
X136198488Y-112509428D01*
X136198488Y-112680857D01*
X136141345Y-112795142D01*
X136084202Y-112852285D01*
X135969917Y-112909428D01*
X135512774Y-112909428D01*
X136598488Y-112280857D02*
X137341345Y-112280857D01*
X136941345Y-112738000D01*
X137112774Y-112738000D01*
X137227060Y-112795142D01*
X137284202Y-112852285D01*
X137341345Y-112966571D01*
X137341345Y-113252285D01*
X137284202Y-113366571D01*
X137227060Y-113423714D01*
X137112774Y-113480857D01*
X136769917Y-113480857D01*
X136655631Y-113423714D01*
X136598488Y-113366571D01*
X148630940Y-113410857D02*
X148059511Y-113410857D01*
X148059511Y-112210857D01*
X149030940Y-112782285D02*
X149430940Y-112782285D01*
X149602368Y-113410857D02*
X149030940Y-113410857D01*
X149030940Y-112210857D01*
X149602368Y-112210857D01*
X150116654Y-113410857D02*
X150116654Y-112210857D01*
X150402368Y-112210857D01*
X150573797Y-112268000D01*
X150688082Y-112382285D01*
X150745225Y-112496571D01*
X150802368Y-112725142D01*
X150802368Y-112896571D01*
X150745225Y-113125142D01*
X150688082Y-113239428D01*
X150573797Y-113353714D01*
X150402368Y-113410857D01*
X150116654Y-113410857D01*
X148208857Y-106118488D02*
X147637428Y-106518488D01*
X148208857Y-106804202D02*
X147008857Y-106804202D01*
X147008857Y-106347060D01*
X147066000Y-106232774D01*
X147123142Y-106175631D01*
X147237428Y-106118488D01*
X147408857Y-106118488D01*
X147523142Y-106175631D01*
X147580285Y-106232774D01*
X147637428Y-106347060D01*
X147637428Y-106804202D01*
X147008857Y-105032774D02*
X147008857Y-105604202D01*
X147580285Y-105661345D01*
X147523142Y-105604202D01*
X147466000Y-105489917D01*
X147466000Y-105204202D01*
X147523142Y-105089917D01*
X147580285Y-105032774D01*
X147694571Y-104975631D01*
X147980285Y-104975631D01*
X148094571Y-105032774D01*
X148151714Y-105089917D01*
X148208857Y-105204202D01*
X148208857Y-105489917D01*
X148151714Y-105604202D01*
X148094571Y-105661345D01*
X135719155Y-98097980D02*
X135719155Y-97097980D01*
X135957250Y-97097980D01*
X136100107Y-97145600D01*
X136195345Y-97240838D01*
X136242964Y-97336076D01*
X136290583Y-97526552D01*
X136290583Y-97669409D01*
X136242964Y-97859885D01*
X136195345Y-97955123D01*
X136100107Y-98050361D01*
X135957250Y-98097980D01*
X135719155Y-98097980D01*
X136623917Y-97097980D02*
X137242964Y-97097980D01*
X136909631Y-97478933D01*
X137052488Y-97478933D01*
X137147726Y-97526552D01*
X137195345Y-97574171D01*
X137242964Y-97669409D01*
X137242964Y-97907504D01*
X137195345Y-98002742D01*
X137147726Y-98050361D01*
X137052488Y-98097980D01*
X136766774Y-98097980D01*
X136671536Y-98050361D01*
X136623917Y-98002742D01*
X145008457Y-105915288D02*
X144437028Y-106315288D01*
X145008457Y-106601002D02*
X143808457Y-106601002D01*
X143808457Y-106143860D01*
X143865600Y-106029574D01*
X143922742Y-105972431D01*
X144037028Y-105915288D01*
X144208457Y-105915288D01*
X144322742Y-105972431D01*
X144379885Y-106029574D01*
X144437028Y-106143860D01*
X144437028Y-106601002D01*
X144208457Y-104886717D02*
X145008457Y-104886717D01*
X143751314Y-105172431D02*
X144608457Y-105458145D01*
X144608457Y-104715288D01*
X150856463Y-91646380D02*
X150856463Y-92360666D01*
X150808844Y-92503523D01*
X150713606Y-92598761D01*
X150570749Y-92646380D01*
X150475511Y-92646380D01*
X151856463Y-92646380D02*
X151285035Y-92646380D01*
X151570749Y-92646380D02*
X151570749Y-91646380D01*
X151475511Y-91789238D01*
X151380273Y-91884476D01*
X151285035Y-91932095D01*
X167061847Y-96020345D02*
X166487323Y-96422512D01*
X167061847Y-96709774D02*
X165855347Y-96709774D01*
X165855347Y-96250155D01*
X165912800Y-96135250D01*
X165970252Y-96077798D01*
X166085157Y-96020345D01*
X166257514Y-96020345D01*
X166372419Y-96077798D01*
X166429871Y-96135250D01*
X166487323Y-96250155D01*
X166487323Y-96709774D01*
X166429871Y-95503274D02*
X166429871Y-95101107D01*
X167061847Y-94928750D02*
X167061847Y-95503274D01*
X165855347Y-95503274D01*
X165855347Y-94928750D01*
X167004395Y-94469131D02*
X167061847Y-94296774D01*
X167061847Y-94009512D01*
X167004395Y-93894607D01*
X166946942Y-93837155D01*
X166832038Y-93779702D01*
X166717133Y-93779702D01*
X166602228Y-93837155D01*
X166544776Y-93894607D01*
X166487323Y-94009512D01*
X166429871Y-94239321D01*
X166372419Y-94354226D01*
X166314966Y-94411679D01*
X166200061Y-94469131D01*
X166085157Y-94469131D01*
X165970252Y-94411679D01*
X165912800Y-94354226D01*
X165855347Y-94239321D01*
X165855347Y-93952060D01*
X165912800Y-93779702D01*
X166429871Y-93262631D02*
X166429871Y-92860464D01*
X167061847Y-92688107D02*
X167061847Y-93262631D01*
X165855347Y-93262631D01*
X165855347Y-92688107D01*
X165855347Y-92343393D02*
X165855347Y-91653964D01*
X167061847Y-91998679D02*
X165855347Y-91998679D01*
D10*
X133400895Y-94600780D02*
X133400895Y-95410304D01*
X133448514Y-95505542D01*
X133496133Y-95553161D01*
X133591371Y-95600780D01*
X133781847Y-95600780D01*
X133877085Y-95553161D01*
X133924704Y-95505542D01*
X133972323Y-95410304D01*
X133972323Y-94600780D01*
X134972323Y-95600780D02*
X134400895Y-95600780D01*
X134686609Y-95600780D02*
X134686609Y-94600780D01*
X134591371Y-94743638D01*
X134496133Y-94838876D01*
X134400895Y-94886495D01*
X161081980Y-105928990D02*
X160081980Y-105928990D01*
X160986742Y-104881371D02*
X161034361Y-104928990D01*
X161081980Y-105071847D01*
X161081980Y-105167085D01*
X161034361Y-105309942D01*
X160939123Y-105405180D01*
X160843885Y-105452800D01*
X160653409Y-105500419D01*
X160510552Y-105500419D01*
X160320076Y-105452800D01*
X160224838Y-105405180D01*
X160129600Y-105309942D01*
X160081980Y-105167085D01*
X160081980Y-105071847D01*
X160129600Y-104928990D01*
X160177219Y-104881371D01*
X161081980Y-103928990D02*
X161081980Y-104500419D01*
X161081980Y-104214704D02*
X160081980Y-104214704D01*
X160224838Y-104309942D01*
X160320076Y-104405180D01*
X160367695Y-104500419D01*
X151979333Y-102719142D02*
X151931714Y-102766761D01*
X151788857Y-102814380D01*
X151693619Y-102814380D01*
X151550761Y-102766761D01*
X151455523Y-102671523D01*
X151407904Y-102576285D01*
X151360285Y-102385809D01*
X151360285Y-102242952D01*
X151407904Y-102052476D01*
X151455523Y-101957238D01*
X151550761Y-101862000D01*
X151693619Y-101814380D01*
X151788857Y-101814380D01*
X151931714Y-101862000D01*
X151979333Y-101909619D01*
X152360285Y-101909619D02*
X152407904Y-101862000D01*
X152503142Y-101814380D01*
X152741238Y-101814380D01*
X152836476Y-101862000D01*
X152884095Y-101909619D01*
X152931714Y-102004857D01*
X152931714Y-102100095D01*
X152884095Y-102242952D01*
X152312666Y-102814380D01*
X152931714Y-102814380D01*
M02*
