%
M48
M72
T01C0.0320
T02C0.0354
T03C0.0360
T04C0.0400
T05C0.0433
T06C0.0866
T07C0.1181
%
T01
X13209Y15543
X13709Y14793
X15448Y13375
X16448Y13375
X18459Y13505
X18459Y12505
X20280Y11909
X21280Y11909
X22280Y11909
X23280Y11909
X23280Y8909
X22280Y8909
X21280Y8909
X20280Y8909
X19268Y7010
X19268Y6010
X17278Y6010
X17278Y7010
T02
X11412Y7005
X10855Y8520
X10386Y9670
X10362Y10837
X10816Y12206
X10883Y13325
X12709Y14793
X13883Y13325
X13816Y12206
X15535Y12170
X16781Y12206
X14362Y10837
X14386Y9670
X13855Y8520
X15535Y8170
X16781Y8206
X15412Y7005
T03
X9186Y9050
X9186Y9984
X9186Y10871
X9186Y11806
T04
X15334Y15543
X16334Y15543
X17334Y15543
X20429Y14808
X20429Y13028
X22989Y13028
X25203Y12966
X25203Y11966
X25203Y10966
X25203Y9966
X25203Y8966
X25203Y7966
X25203Y6966
X25203Y13966
X22989Y14808
T05
X8201Y11314
X8201Y9542
T06
X8241Y12711
X8241Y8144
T07
X10905Y15362
X10905Y5519
X26260Y5519
X26260Y15362
M30
