G75*
%MOIN*%
%OFA0B0*%
%FSLAX26Y26*%
%IPPOS*%
%LPD*%
%AMOC8*
5,1,8,0,0,1.08239X$1,22.5*
%
%ADD10C,0.094614*%
%ADD11C,0.086740*%
%ADD12R,0.303276X0.067055*%
%ADD13R,0.263906X0.047370*%
%ADD14OC8,0.076000*%
%ADD15C,0.082000*%
%ADD16OC8,0.074000*%
%ADD17OC8,0.078000*%
%ADD18C,0.078000*%
D10*
X00443750Y00906250D03*
X02006250Y00906250D03*
D11*
X01350000Y00143750D03*
D12*
X00145276Y00338189D03*
X00145276Y00613780D03*
D13*
X00164961Y00515354D03*
X00164961Y00436614D03*
D14*
X01394551Y00324154D03*
X01494551Y00324154D03*
X01594551Y00324154D03*
X01694551Y00324154D03*
X01694551Y00624154D03*
X01594551Y00624154D03*
X01494551Y00624154D03*
X01394551Y00624154D03*
D15*
X00452106Y00285217D03*
X00405217Y00400217D03*
X00402756Y00516949D03*
X00448209Y00653799D03*
X00454886Y00765673D03*
X00754886Y00765673D03*
X00748209Y00653799D03*
X00920020Y00650217D03*
X01044626Y00653839D03*
X00802756Y00516949D03*
X00805217Y00400217D03*
X00752106Y00285217D03*
X00920020Y00250217D03*
X01044626Y00253839D03*
X00907756Y00133661D03*
X00507756Y00133661D03*
X01886909Y00129823D03*
X01886909Y00229823D03*
X01886909Y00329823D03*
X01886909Y00429823D03*
X01886909Y00529823D03*
X01886909Y00629823D03*
X01886909Y00729823D03*
X01886909Y00829823D03*
D16*
X01395669Y00826126D03*
X01395669Y00726126D03*
X01219163Y00391152D03*
X01219163Y00291152D03*
X01219390Y00196693D03*
X01219390Y00096693D03*
D17*
X01212500Y00721250D03*
D18*
X01212500Y00821250D03*
M02*
