G75*
%MOIN*%
%OFA0B0*%
%FSLAX25Y25*%
%IPPOS*%
%LPD*%
%AMOC8*
5,1,8,0,0,1.08239X$1,22.5*
%
%ADD10OC8,0.06800*%
%ADD11C,0.07400*%
%ADD12OC8,0.06600*%
%ADD13OC8,0.07000*%
%ADD14C,0.07000*%
%ADD15C,0.06000*%
D10*
X0202798Y0089094D03*
X0212798Y0089094D03*
X0222798Y0089094D03*
X0232798Y0089094D03*
X0232798Y0119094D03*
X0222798Y0119094D03*
X0212798Y0119094D03*
X0202798Y0119094D03*
D11*
X0114119Y0070045D03*
X0108554Y0085201D03*
X0103865Y0096701D03*
X0103619Y0108374D03*
X0108164Y0122059D03*
X0108832Y0133246D03*
X0138832Y0133246D03*
X0138164Y0122059D03*
X0155345Y0121701D03*
X0167806Y0122063D03*
X0143619Y0108374D03*
X0143865Y0096701D03*
X0138554Y0085201D03*
X0155345Y0081701D03*
X0167806Y0082063D03*
X0154119Y0070045D03*
X0252034Y0069661D03*
X0252034Y0079661D03*
X0252034Y0089661D03*
X0252034Y0099661D03*
X0252034Y0109661D03*
X0252034Y0119661D03*
X0252034Y0129661D03*
X0252034Y0139661D03*
D12*
X0161660Y0140542D03*
X0161660Y0130542D03*
X0172782Y0070098D03*
X0172782Y0060098D03*
X0192677Y0060098D03*
X0192677Y0070098D03*
D13*
X0184593Y0130054D03*
D14*
X0184593Y0140054D03*
D15*
X0201293Y0148079D02*
X0207293Y0148079D01*
X0226893Y0148079D02*
X0232893Y0148079D01*
X0232893Y0130279D02*
X0226893Y0130279D01*
X0207293Y0130279D02*
X0201293Y0130279D01*
M02*
