G04 #@! TF.GenerationSoftware,KiCad,Pcbnew,(5.0.0)*
G04 #@! TF.CreationDate,2018-10-03T22:20:58-03:00*
G04 #@! TF.ProjectId,Franzininho-DIY-LUCHTEC,4672616E7A696E696E686F2D4449592D,rev?*
G04 #@! TF.SameCoordinates,Original*
G04 #@! TF.FileFunction,Soldermask,Top*
G04 #@! TF.FilePolarity,Negative*
%FSLAX46Y46*%
G04 Gerber Fmt 4.6, Leading zero omitted, Abs format (unit mm)*
G04 Created by KiCad (PCBNEW (5.0.0)) date 10/03/18 22:20:58*
%MOMM*%
%LPD*%
G01*
G04 APERTURE LIST*
%ADD10C,1.879600*%
%ADD11C,3.400000*%
%ADD12C,1.500000*%
%ADD13C,3.419200*%
%ADD14C,2.082800*%
%ADD15O,3.251200X1.727200*%
%ADD16O,1.920000X3.400000*%
%ADD17O,2.000000X2.800000*%
%ADD18R,2.000000X2.800000*%
%ADD19C,2.000000*%
%ADD20R,2.000000X2.000000*%
G04 APERTURE END LIST*
D10*
G04 #@! TO.C,ON*
X144272000Y-114808000D03*
X144272000Y-117348000D03*
G04 #@! TD*
D11*
G04 #@! TO.C,@HOLE0*
X132562350Y-92436100D03*
G04 #@! TD*
G04 #@! TO.C,@HOLE1*
X171562350Y-92436100D03*
G04 #@! TD*
G04 #@! TO.C,@HOLE2*
X171562350Y-117436100D03*
G04 #@! TD*
G04 #@! TO.C,@HOLE3*
X132562350Y-117436100D03*
G04 #@! TD*
D12*
G04 #@! TO.C,X1*
X125852350Y-107268600D03*
X125852350Y-102768600D03*
D13*
X125952350Y-99218600D03*
X125952350Y-110818600D03*
D14*
X128352350Y-108518600D03*
X128352350Y-106145600D03*
X128352350Y-103891600D03*
X128352350Y-101518600D03*
G04 #@! TD*
G04 #@! TO.C,D2*
X132435850Y-109814100D03*
X140055850Y-109814100D03*
G04 #@! TD*
G04 #@! TO.C,D1*
X132336850Y-100452100D03*
X139956850Y-100452100D03*
G04 #@! TD*
D10*
G04 #@! TO.C,C1*
X146685000Y-97790000D03*
X144145000Y-97790000D03*
G04 #@! TD*
D14*
G04 #@! TO.C,R1*
X141342350Y-103928100D03*
X131182350Y-103928100D03*
G04 #@! TD*
G04 #@! TO.C,R2*
X141404850Y-106893100D03*
X131244850Y-106893100D03*
G04 #@! TD*
G04 #@! TO.C,R3*
X131244850Y-112776000D03*
X141404850Y-112776000D03*
G04 #@! TD*
D10*
G04 #@! TO.C,LED*
X149352000Y-114808000D03*
X149352000Y-117348000D03*
G04 #@! TD*
D14*
G04 #@! TO.C,R5*
X147485850Y-110703100D03*
X147485850Y-100543100D03*
G04 #@! TD*
G04 #@! TO.C,D3*
X140126450Y-97610500D03*
X132506450Y-97610500D03*
G04 #@! TD*
G04 #@! TO.C,R4*
X144320850Y-110703100D03*
X144320850Y-100543100D03*
G04 #@! TD*
G04 #@! TO.C,JP3*
X168879850Y-95981100D03*
X168879850Y-98521100D03*
X168879850Y-101061100D03*
X168879850Y-103601100D03*
X168879850Y-106141100D03*
X168879850Y-108681100D03*
X168879850Y-111221100D03*
X168879850Y-113761100D03*
G04 #@! TD*
G04 #@! TO.C,J1*
X143812350Y-91976100D03*
X146352350Y-91976100D03*
X148892350Y-91976100D03*
G04 #@! TD*
D15*
G04 #@! TO.C,RESET*
X163779200Y-96494600D03*
X157276800Y-96494600D03*
X163779200Y-91973400D03*
X157276800Y-91973400D03*
G04 #@! TD*
D16*
G04 #@! TO.C,U1*
X135890000Y-93345000D03*
X140970000Y-93345000D03*
X138430000Y-93345000D03*
G04 #@! TD*
D17*
G04 #@! TO.C,IC1*
X164084000Y-108712000D03*
X156464000Y-101092000D03*
X161544000Y-108712000D03*
X159004000Y-101092000D03*
X159004000Y-108712000D03*
X161544000Y-101092000D03*
X156464000Y-108712000D03*
D18*
X164084000Y-101092000D03*
G04 #@! TD*
D19*
G04 #@! TO.C,C2*
X151892000Y-99782000D03*
D20*
X151892000Y-97282000D03*
G04 #@! TD*
M02*
