G04 #@! TF.GenerationSoftware,KiCad,Pcbnew,(5.0.0)*
G04 #@! TF.CreationDate,2018-10-03T22:20:58-03:00*
G04 #@! TF.ProjectId,Franzininho-DIY-LUCHTEC,4672616E7A696E696E686F2D4449592D,rev?*
G04 #@! TF.SameCoordinates,Original*
G04 #@! TF.FileFunction,Legend,Bot*
G04 #@! TF.FilePolarity,Positive*
%FSLAX46Y46*%
G04 Gerber Fmt 4.6, Leading zero omitted, Abs format (unit mm)*
G04 Created by KiCad (PCBNEW (5.0.0)) date 10/03/18 22:20:58*
%MOMM*%
%LPD*%
G01*
G04 APERTURE LIST*
%ADD10C,0.250000*%
%ADD11C,0.300000*%
%ADD12C,0.010000*%
G04 APERTURE END LIST*
D10*
X165678095Y-103828571D02*
X165344761Y-103828571D01*
X165201904Y-104352380D02*
X165678095Y-104352380D01*
X165678095Y-103352380D01*
X165201904Y-103352380D01*
X164820952Y-104304761D02*
X164725714Y-104352380D01*
X164535238Y-104352380D01*
X164440000Y-104304761D01*
X164392380Y-104209523D01*
X164392380Y-104161904D01*
X164440000Y-104066666D01*
X164535238Y-104019047D01*
X164678095Y-104019047D01*
X164773333Y-103971428D01*
X164820952Y-103876190D01*
X164820952Y-103828571D01*
X164773333Y-103733333D01*
X164678095Y-103685714D01*
X164535238Y-103685714D01*
X164440000Y-103733333D01*
X164011428Y-104304761D02*
X163916190Y-104352380D01*
X163725714Y-104352380D01*
X163630476Y-104304761D01*
X163582857Y-104209523D01*
X163582857Y-104161904D01*
X163630476Y-104066666D01*
X163725714Y-104019047D01*
X163868571Y-104019047D01*
X163963809Y-103971428D01*
X164011428Y-103876190D01*
X164011428Y-103828571D01*
X163963809Y-103733333D01*
X163868571Y-103685714D01*
X163725714Y-103685714D01*
X163630476Y-103733333D01*
X162725714Y-104352380D02*
X162725714Y-103828571D01*
X162773333Y-103733333D01*
X162868571Y-103685714D01*
X163059047Y-103685714D01*
X163154285Y-103733333D01*
X162725714Y-104304761D02*
X162820952Y-104352380D01*
X163059047Y-104352380D01*
X163154285Y-104304761D01*
X163201904Y-104209523D01*
X163201904Y-104114285D01*
X163154285Y-104019047D01*
X163059047Y-103971428D01*
X162820952Y-103971428D01*
X162725714Y-103923809D01*
X161487619Y-103685714D02*
X161487619Y-104685714D01*
X161487619Y-103733333D02*
X161392380Y-103685714D01*
X161201904Y-103685714D01*
X161106666Y-103733333D01*
X161059047Y-103780952D01*
X161011428Y-103876190D01*
X161011428Y-104161904D01*
X161059047Y-104257142D01*
X161106666Y-104304761D01*
X161201904Y-104352380D01*
X161392380Y-104352380D01*
X161487619Y-104304761D01*
X160440000Y-104352380D02*
X160535238Y-104304761D01*
X160582857Y-104209523D01*
X160582857Y-103352380D01*
X159630476Y-104352380D02*
X159630476Y-103828571D01*
X159678095Y-103733333D01*
X159773333Y-103685714D01*
X159963809Y-103685714D01*
X160059047Y-103733333D01*
X159630476Y-104304761D02*
X159725714Y-104352380D01*
X159963809Y-104352380D01*
X160059047Y-104304761D01*
X160106666Y-104209523D01*
X160106666Y-104114285D01*
X160059047Y-104019047D01*
X159963809Y-103971428D01*
X159725714Y-103971428D01*
X159630476Y-103923809D01*
X158725714Y-104304761D02*
X158820952Y-104352380D01*
X159011428Y-104352380D01*
X159106666Y-104304761D01*
X159154285Y-104257142D01*
X159201904Y-104161904D01*
X159201904Y-103876190D01*
X159154285Y-103780952D01*
X159106666Y-103733333D01*
X159011428Y-103685714D01*
X158820952Y-103685714D01*
X158725714Y-103733333D01*
X157868571Y-104352380D02*
X157868571Y-103828571D01*
X157916190Y-103733333D01*
X158011428Y-103685714D01*
X158201904Y-103685714D01*
X158297142Y-103733333D01*
X157868571Y-104304761D02*
X157963809Y-104352380D01*
X158201904Y-104352380D01*
X158297142Y-104304761D01*
X158344761Y-104209523D01*
X158344761Y-104114285D01*
X158297142Y-104019047D01*
X158201904Y-103971428D01*
X157963809Y-103971428D01*
X157868571Y-103923809D01*
X156773333Y-103685714D02*
X156392380Y-103685714D01*
X156630476Y-103352380D02*
X156630476Y-104209523D01*
X156582857Y-104304761D01*
X156487619Y-104352380D01*
X156392380Y-104352380D01*
X155678095Y-104304761D02*
X155773333Y-104352380D01*
X155963809Y-104352380D01*
X156059047Y-104304761D01*
X156106666Y-104209523D01*
X156106666Y-103828571D01*
X156059047Y-103733333D01*
X155963809Y-103685714D01*
X155773333Y-103685714D01*
X155678095Y-103733333D01*
X155630476Y-103828571D01*
X155630476Y-103923809D01*
X156106666Y-104019047D01*
X155297142Y-103685714D02*
X155059047Y-104352380D01*
X154820952Y-103685714D01*
X154059047Y-104304761D02*
X154154285Y-104352380D01*
X154344761Y-104352380D01*
X154440000Y-104304761D01*
X154487619Y-104209523D01*
X154487619Y-103828571D01*
X154440000Y-103733333D01*
X154344761Y-103685714D01*
X154154285Y-103685714D01*
X154059047Y-103733333D01*
X154011428Y-103828571D01*
X154011428Y-103923809D01*
X154487619Y-104019047D01*
X152678095Y-104352380D02*
X152773333Y-104304761D01*
X152820952Y-104257142D01*
X152868571Y-104161904D01*
X152868571Y-103876190D01*
X152820952Y-103780952D01*
X152773333Y-103733333D01*
X152678095Y-103685714D01*
X152535238Y-103685714D01*
X152440000Y-103733333D01*
X152392380Y-103780952D01*
X152344761Y-103876190D01*
X152344761Y-104161904D01*
X152392380Y-104257142D01*
X152440000Y-104304761D01*
X152535238Y-104352380D01*
X152678095Y-104352380D01*
X150725714Y-104352380D02*
X150725714Y-103828571D01*
X150773333Y-103733333D01*
X150868571Y-103685714D01*
X151059047Y-103685714D01*
X151154285Y-103733333D01*
X150725714Y-104304761D02*
X150820952Y-104352380D01*
X151059047Y-104352380D01*
X151154285Y-104304761D01*
X151201904Y-104209523D01*
X151201904Y-104114285D01*
X151154285Y-104019047D01*
X151059047Y-103971428D01*
X150820952Y-103971428D01*
X150725714Y-103923809D01*
X150249523Y-103685714D02*
X150249523Y-104685714D01*
X150249523Y-103733333D02*
X150154285Y-103685714D01*
X149963809Y-103685714D01*
X149868571Y-103733333D01*
X149820952Y-103780952D01*
X149773333Y-103876190D01*
X149773333Y-104161904D01*
X149820952Y-104257142D01*
X149868571Y-104304761D01*
X149963809Y-104352380D01*
X150154285Y-104352380D01*
X150249523Y-104304761D01*
X149201904Y-104352380D02*
X149297142Y-104304761D01*
X149344761Y-104257142D01*
X149392380Y-104161904D01*
X149392380Y-103876190D01*
X149344761Y-103780952D01*
X149297142Y-103733333D01*
X149201904Y-103685714D01*
X149059047Y-103685714D01*
X148963809Y-103733333D01*
X148916190Y-103780952D01*
X148868571Y-103876190D01*
X148868571Y-104161904D01*
X148916190Y-104257142D01*
X148963809Y-104304761D01*
X149059047Y-104352380D01*
X149201904Y-104352380D01*
X148440000Y-104352380D02*
X148440000Y-103685714D01*
X148440000Y-103352380D02*
X148487619Y-103400000D01*
X148440000Y-103447619D01*
X148392380Y-103400000D01*
X148440000Y-103352380D01*
X148440000Y-103447619D01*
X147820952Y-104352380D02*
X147916190Y-104304761D01*
X147963809Y-104257142D01*
X148011428Y-104161904D01*
X148011428Y-103876190D01*
X147963809Y-103780952D01*
X147916190Y-103733333D01*
X147820952Y-103685714D01*
X147678095Y-103685714D01*
X147582857Y-103733333D01*
X147535238Y-103780952D01*
X147487619Y-103876190D01*
X147487619Y-104161904D01*
X147535238Y-104257142D01*
X147582857Y-104304761D01*
X147678095Y-104352380D01*
X147820952Y-104352380D01*
X145868571Y-104352380D02*
X145868571Y-103352380D01*
X145868571Y-104304761D02*
X145963809Y-104352380D01*
X146154285Y-104352380D01*
X146249523Y-104304761D01*
X146297142Y-104257142D01*
X146344761Y-104161904D01*
X146344761Y-103876190D01*
X146297142Y-103780952D01*
X146249523Y-103733333D01*
X146154285Y-103685714D01*
X145963809Y-103685714D01*
X145868571Y-103733333D01*
X144963809Y-104352380D02*
X144963809Y-103828571D01*
X145011428Y-103733333D01*
X145106666Y-103685714D01*
X145297142Y-103685714D01*
X145392380Y-103733333D01*
X144963809Y-104304761D02*
X145059047Y-104352380D01*
X145297142Y-104352380D01*
X145392380Y-104304761D01*
X145440000Y-104209523D01*
X145440000Y-104114285D01*
X145392380Y-104019047D01*
X145297142Y-103971428D01*
X145059047Y-103971428D01*
X144963809Y-103923809D01*
X166344761Y-106102380D02*
X166820952Y-106102380D01*
X166820952Y-105102380D01*
X166011428Y-105102380D02*
X166011428Y-105911904D01*
X165963809Y-106007142D01*
X165916190Y-106054761D01*
X165820952Y-106102380D01*
X165630476Y-106102380D01*
X165535238Y-106054761D01*
X165487619Y-106007142D01*
X165440000Y-105911904D01*
X165440000Y-105102380D01*
X164392380Y-106007142D02*
X164440000Y-106054761D01*
X164582857Y-106102380D01*
X164678095Y-106102380D01*
X164820952Y-106054761D01*
X164916190Y-105959523D01*
X164963809Y-105864285D01*
X165011428Y-105673809D01*
X165011428Y-105530952D01*
X164963809Y-105340476D01*
X164916190Y-105245238D01*
X164820952Y-105150000D01*
X164678095Y-105102380D01*
X164582857Y-105102380D01*
X164440000Y-105150000D01*
X164392380Y-105197619D01*
X163963809Y-106102380D02*
X163963809Y-105102380D01*
X163963809Y-105578571D02*
X163392380Y-105578571D01*
X163392380Y-106102380D02*
X163392380Y-105102380D01*
X163059047Y-105102380D02*
X162487619Y-105102380D01*
X162773333Y-106102380D02*
X162773333Y-105102380D01*
X162154285Y-105578571D02*
X161820952Y-105578571D01*
X161678095Y-106102380D02*
X162154285Y-106102380D01*
X162154285Y-105102380D01*
X161678095Y-105102380D01*
X160678095Y-106007142D02*
X160725714Y-106054761D01*
X160868571Y-106102380D01*
X160963809Y-106102380D01*
X161106666Y-106054761D01*
X161201904Y-105959523D01*
X161249523Y-105864285D01*
X161297142Y-105673809D01*
X161297142Y-105530952D01*
X161249523Y-105340476D01*
X161201904Y-105245238D01*
X161106666Y-105150000D01*
X160963809Y-105102380D01*
X160868571Y-105102380D01*
X160725714Y-105150000D01*
X160678095Y-105197619D01*
X159487619Y-105721428D02*
X158725714Y-105721428D01*
X156916190Y-106007142D02*
X156963809Y-106054761D01*
X157106666Y-106102380D01*
X157201904Y-106102380D01*
X157344761Y-106054761D01*
X157440000Y-105959523D01*
X157487619Y-105864285D01*
X157535238Y-105673809D01*
X157535238Y-105530952D01*
X157487619Y-105340476D01*
X157440000Y-105245238D01*
X157344761Y-105150000D01*
X157201904Y-105102380D01*
X157106666Y-105102380D01*
X156963809Y-105150000D01*
X156916190Y-105197619D01*
X156487619Y-106102380D02*
X156487619Y-105435714D01*
X156487619Y-105102380D02*
X156535238Y-105150000D01*
X156487619Y-105197619D01*
X156440000Y-105150000D01*
X156487619Y-105102380D01*
X156487619Y-105197619D01*
X156011428Y-106102380D02*
X156011428Y-105435714D01*
X156011428Y-105626190D02*
X155963809Y-105530952D01*
X155916190Y-105483333D01*
X155820952Y-105435714D01*
X155725714Y-105435714D01*
X154963809Y-106054761D02*
X155059047Y-106102380D01*
X155249523Y-106102380D01*
X155344761Y-106054761D01*
X155392380Y-106007142D01*
X155440000Y-105911904D01*
X155440000Y-105626190D01*
X155392380Y-105530952D01*
X155344761Y-105483333D01*
X155249523Y-105435714D01*
X155059047Y-105435714D01*
X154963809Y-105483333D01*
X154106666Y-105435714D02*
X154106666Y-106102380D01*
X154535238Y-105435714D02*
X154535238Y-105959523D01*
X154487619Y-106054761D01*
X154392380Y-106102380D01*
X154249523Y-106102380D01*
X154154285Y-106054761D01*
X154106666Y-106007142D01*
X153630476Y-106102380D02*
X153630476Y-105435714D01*
X153630476Y-105102380D02*
X153678095Y-105150000D01*
X153630476Y-105197619D01*
X153582857Y-105150000D01*
X153630476Y-105102380D01*
X153630476Y-105197619D01*
X153297142Y-105435714D02*
X152916190Y-105435714D01*
X153154285Y-105102380D02*
X153154285Y-105959523D01*
X153106666Y-106054761D01*
X153011428Y-106102380D01*
X152916190Y-106102380D01*
X152440000Y-106102380D02*
X152535238Y-106054761D01*
X152582857Y-106007142D01*
X152630476Y-105911904D01*
X152630476Y-105626190D01*
X152582857Y-105530952D01*
X152535238Y-105483333D01*
X152440000Y-105435714D01*
X152297142Y-105435714D01*
X152201904Y-105483333D01*
X152154285Y-105530952D01*
X152106666Y-105626190D01*
X152106666Y-105911904D01*
X152154285Y-106007142D01*
X152201904Y-106054761D01*
X152297142Y-106102380D01*
X152440000Y-106102380D01*
X151725714Y-106054761D02*
X151630476Y-106102380D01*
X151440000Y-106102380D01*
X151344761Y-106054761D01*
X151297142Y-105959523D01*
X151297142Y-105911904D01*
X151344761Y-105816666D01*
X151440000Y-105769047D01*
X151582857Y-105769047D01*
X151678095Y-105721428D01*
X151725714Y-105626190D01*
X151725714Y-105578571D01*
X151678095Y-105483333D01*
X151582857Y-105435714D01*
X151440000Y-105435714D01*
X151344761Y-105483333D01*
X150106666Y-106102380D02*
X150106666Y-105435714D01*
X150106666Y-105102380D02*
X150154285Y-105150000D01*
X150106666Y-105197619D01*
X150059047Y-105150000D01*
X150106666Y-105102380D01*
X150106666Y-105197619D01*
X149630476Y-106102380D02*
X149630476Y-105435714D01*
X149630476Y-105530952D02*
X149582857Y-105483333D01*
X149487619Y-105435714D01*
X149344761Y-105435714D01*
X149249523Y-105483333D01*
X149201904Y-105578571D01*
X149201904Y-106102380D01*
X149201904Y-105578571D02*
X149154285Y-105483333D01*
X149059047Y-105435714D01*
X148916190Y-105435714D01*
X148820952Y-105483333D01*
X148773333Y-105578571D01*
X148773333Y-106102380D01*
X148297142Y-105435714D02*
X148297142Y-106435714D01*
X148297142Y-105483333D02*
X148201904Y-105435714D01*
X148011428Y-105435714D01*
X147916190Y-105483333D01*
X147868571Y-105530952D01*
X147820952Y-105626190D01*
X147820952Y-105911904D01*
X147868571Y-106007142D01*
X147916190Y-106054761D01*
X148011428Y-106102380D01*
X148201904Y-106102380D01*
X148297142Y-106054761D01*
X147392380Y-106102380D02*
X147392380Y-105435714D01*
X147392380Y-105626190D02*
X147344761Y-105530952D01*
X147297142Y-105483333D01*
X147201904Y-105435714D01*
X147106666Y-105435714D01*
X146392380Y-106054761D02*
X146487619Y-106102380D01*
X146678095Y-106102380D01*
X146773333Y-106054761D01*
X146820952Y-105959523D01*
X146820952Y-105578571D01*
X146773333Y-105483333D01*
X146678095Y-105435714D01*
X146487619Y-105435714D01*
X146392380Y-105483333D01*
X146344761Y-105578571D01*
X146344761Y-105673809D01*
X146820952Y-105769047D01*
X145963809Y-106054761D02*
X145868571Y-106102380D01*
X145678095Y-106102380D01*
X145582857Y-106054761D01*
X145535238Y-105959523D01*
X145535238Y-105911904D01*
X145582857Y-105816666D01*
X145678095Y-105769047D01*
X145820952Y-105769047D01*
X145916190Y-105721428D01*
X145963809Y-105626190D01*
X145963809Y-105578571D01*
X145916190Y-105483333D01*
X145820952Y-105435714D01*
X145678095Y-105435714D01*
X145582857Y-105483333D01*
X145154285Y-106054761D02*
X145059047Y-106102380D01*
X144868571Y-106102380D01*
X144773333Y-106054761D01*
X144725714Y-105959523D01*
X144725714Y-105911904D01*
X144773333Y-105816666D01*
X144868571Y-105769047D01*
X145011428Y-105769047D01*
X145106666Y-105721428D01*
X145154285Y-105626190D01*
X145154285Y-105578571D01*
X145106666Y-105483333D01*
X145011428Y-105435714D01*
X144868571Y-105435714D01*
X144773333Y-105483333D01*
X144154285Y-106102380D02*
X144249523Y-106054761D01*
X144297142Y-106007142D01*
X144344761Y-105911904D01*
X144344761Y-105626190D01*
X144297142Y-105530952D01*
X144249523Y-105483333D01*
X144154285Y-105435714D01*
X144011428Y-105435714D01*
X143916190Y-105483333D01*
X143868571Y-105530952D01*
X143820952Y-105626190D01*
X143820952Y-105911904D01*
X143868571Y-106007142D01*
X143916190Y-106054761D01*
X144011428Y-106102380D01*
X144154285Y-106102380D01*
X143440000Y-106054761D02*
X143344761Y-106102380D01*
X143154285Y-106102380D01*
X143059047Y-106054761D01*
X143011428Y-105959523D01*
X143011428Y-105911904D01*
X143059047Y-105816666D01*
X143154285Y-105769047D01*
X143297142Y-105769047D01*
X143392380Y-105721428D01*
X143440000Y-105626190D01*
X143440000Y-105578571D01*
X143392380Y-105483333D01*
X143297142Y-105435714D01*
X143154285Y-105435714D01*
X143059047Y-105483333D01*
X137199619Y-118346761D02*
X137199619Y-118156285D01*
X137152000Y-118061047D01*
X137056761Y-117965809D01*
X136866285Y-117918190D01*
X136532952Y-117918190D01*
X136342476Y-117965809D01*
X136247238Y-118061047D01*
X136199619Y-118156285D01*
X136199619Y-118346761D01*
X136247238Y-118442000D01*
X136342476Y-118537238D01*
X136532952Y-118584857D01*
X136866285Y-118584857D01*
X137056761Y-118537238D01*
X137152000Y-118442000D01*
X137199619Y-118346761D01*
X136247238Y-117537238D02*
X136199619Y-117394380D01*
X136199619Y-117156285D01*
X136247238Y-117061047D01*
X136294857Y-117013428D01*
X136390095Y-116965809D01*
X136485333Y-116965809D01*
X136580571Y-117013428D01*
X136628190Y-117061047D01*
X136675809Y-117156285D01*
X136723428Y-117346761D01*
X136771047Y-117442000D01*
X136818666Y-117489619D01*
X136913904Y-117537238D01*
X137009142Y-117537238D01*
X137104380Y-117489619D01*
X137152000Y-117442000D01*
X137199619Y-117346761D01*
X137199619Y-117108666D01*
X137152000Y-116965809D01*
X136199619Y-116537238D02*
X137199619Y-116537238D01*
X136723428Y-116537238D02*
X136723428Y-115965809D01*
X136199619Y-115965809D02*
X137199619Y-115965809D01*
X137199619Y-115584857D02*
X136199619Y-115346761D01*
X136913904Y-115156285D01*
X136199619Y-114965809D01*
X137199619Y-114727714D01*
X136580571Y-114346761D02*
X136580571Y-113584857D01*
X137199619Y-112918190D02*
X137199619Y-112727714D01*
X137152000Y-112632476D01*
X137056761Y-112537238D01*
X136866285Y-112489619D01*
X136532952Y-112489619D01*
X136342476Y-112537238D01*
X136247238Y-112632476D01*
X136199619Y-112727714D01*
X136199619Y-112918190D01*
X136247238Y-113013428D01*
X136342476Y-113108666D01*
X136532952Y-113156285D01*
X136866285Y-113156285D01*
X137056761Y-113108666D01*
X137152000Y-113013428D01*
X137199619Y-112918190D01*
X136866285Y-112061047D02*
X135866285Y-112061047D01*
X136818666Y-112061047D02*
X136866285Y-111965809D01*
X136866285Y-111775333D01*
X136818666Y-111680095D01*
X136771047Y-111632476D01*
X136675809Y-111584857D01*
X136390095Y-111584857D01*
X136294857Y-111632476D01*
X136247238Y-111680095D01*
X136199619Y-111775333D01*
X136199619Y-111965809D01*
X136247238Y-112061047D01*
X136247238Y-110775333D02*
X136199619Y-110870571D01*
X136199619Y-111061047D01*
X136247238Y-111156285D01*
X136342476Y-111203904D01*
X136723428Y-111203904D01*
X136818666Y-111156285D01*
X136866285Y-111061047D01*
X136866285Y-110870571D01*
X136818666Y-110775333D01*
X136723428Y-110727714D01*
X136628190Y-110727714D01*
X136532952Y-111203904D01*
X136866285Y-110299142D02*
X136199619Y-110299142D01*
X136771047Y-110299142D02*
X136818666Y-110251523D01*
X136866285Y-110156285D01*
X136866285Y-110013428D01*
X136818666Y-109918190D01*
X136723428Y-109870571D01*
X136199619Y-109870571D01*
X136247238Y-108680095D02*
X136199619Y-108537238D01*
X136199619Y-108299142D01*
X136247238Y-108203904D01*
X136294857Y-108156285D01*
X136390095Y-108108666D01*
X136485333Y-108108666D01*
X136580571Y-108156285D01*
X136628190Y-108203904D01*
X136675809Y-108299142D01*
X136723428Y-108489619D01*
X136771047Y-108584857D01*
X136818666Y-108632476D01*
X136913904Y-108680095D01*
X137009142Y-108680095D01*
X137104380Y-108632476D01*
X137152000Y-108584857D01*
X137199619Y-108489619D01*
X137199619Y-108251523D01*
X137152000Y-108108666D01*
X136199619Y-107537238D02*
X136247238Y-107632476D01*
X136294857Y-107680095D01*
X136390095Y-107727714D01*
X136675809Y-107727714D01*
X136771047Y-107680095D01*
X136818666Y-107632476D01*
X136866285Y-107537238D01*
X136866285Y-107394380D01*
X136818666Y-107299142D01*
X136771047Y-107251523D01*
X136675809Y-107203904D01*
X136390095Y-107203904D01*
X136294857Y-107251523D01*
X136247238Y-107299142D01*
X136199619Y-107394380D01*
X136199619Y-107537238D01*
X136866285Y-106346761D02*
X136199619Y-106346761D01*
X136866285Y-106775333D02*
X136342476Y-106775333D01*
X136247238Y-106727714D01*
X136199619Y-106632476D01*
X136199619Y-106489619D01*
X136247238Y-106394380D01*
X136294857Y-106346761D01*
X136199619Y-105870571D02*
X136866285Y-105870571D01*
X136675809Y-105870571D02*
X136771047Y-105822952D01*
X136818666Y-105775333D01*
X136866285Y-105680095D01*
X136866285Y-105584857D01*
X136247238Y-104822952D02*
X136199619Y-104918190D01*
X136199619Y-105108666D01*
X136247238Y-105203904D01*
X136294857Y-105251523D01*
X136390095Y-105299142D01*
X136675809Y-105299142D01*
X136771047Y-105251523D01*
X136818666Y-105203904D01*
X136866285Y-105108666D01*
X136866285Y-104918190D01*
X136818666Y-104822952D01*
X136247238Y-104013428D02*
X136199619Y-104108666D01*
X136199619Y-104299142D01*
X136247238Y-104394380D01*
X136342476Y-104442000D01*
X136723428Y-104442000D01*
X136818666Y-104394380D01*
X136866285Y-104299142D01*
X136866285Y-104108666D01*
X136818666Y-104013428D01*
X136723428Y-103965809D01*
X136628190Y-103965809D01*
X136532952Y-104442000D01*
X136199619Y-102775333D02*
X137199619Y-102775333D01*
X136723428Y-102775333D02*
X136723428Y-102203904D01*
X136199619Y-102203904D02*
X137199619Y-102203904D01*
X136199619Y-101299142D02*
X136723428Y-101299142D01*
X136818666Y-101346761D01*
X136866285Y-101442000D01*
X136866285Y-101632476D01*
X136818666Y-101727714D01*
X136247238Y-101299142D02*
X136199619Y-101394380D01*
X136199619Y-101632476D01*
X136247238Y-101727714D01*
X136342476Y-101775333D01*
X136437714Y-101775333D01*
X136532952Y-101727714D01*
X136580571Y-101632476D01*
X136580571Y-101394380D01*
X136628190Y-101299142D01*
X136199619Y-100822952D02*
X136866285Y-100822952D01*
X136675809Y-100822952D02*
X136771047Y-100775333D01*
X136818666Y-100727714D01*
X136866285Y-100632476D01*
X136866285Y-100537238D01*
X136199619Y-99775333D02*
X137199619Y-99775333D01*
X136247238Y-99775333D02*
X136199619Y-99870571D01*
X136199619Y-100061047D01*
X136247238Y-100156285D01*
X136294857Y-100203904D01*
X136390095Y-100251523D01*
X136675809Y-100251523D01*
X136771047Y-100203904D01*
X136818666Y-100156285D01*
X136866285Y-100061047D01*
X136866285Y-99870571D01*
X136818666Y-99775333D01*
X136866285Y-99394380D02*
X136199619Y-99203904D01*
X136675809Y-99013428D01*
X136199619Y-98822952D01*
X136866285Y-98632476D01*
X136199619Y-97822952D02*
X136723428Y-97822952D01*
X136818666Y-97870571D01*
X136866285Y-97965809D01*
X136866285Y-98156285D01*
X136818666Y-98251523D01*
X136247238Y-97822952D02*
X136199619Y-97918190D01*
X136199619Y-98156285D01*
X136247238Y-98251523D01*
X136342476Y-98299142D01*
X136437714Y-98299142D01*
X136532952Y-98251523D01*
X136580571Y-98156285D01*
X136580571Y-97918190D01*
X136628190Y-97822952D01*
X136199619Y-97346761D02*
X136866285Y-97346761D01*
X136675809Y-97346761D02*
X136771047Y-97299142D01*
X136818666Y-97251523D01*
X136866285Y-97156285D01*
X136866285Y-97061047D01*
X136247238Y-96346761D02*
X136199619Y-96442000D01*
X136199619Y-96632476D01*
X136247238Y-96727714D01*
X136342476Y-96775333D01*
X136723428Y-96775333D01*
X136818666Y-96727714D01*
X136866285Y-96632476D01*
X136866285Y-96442000D01*
X136818666Y-96346761D01*
X136723428Y-96299142D01*
X136628190Y-96299142D01*
X136532952Y-96775333D01*
D11*
X172754857Y-96635428D02*
X171554857Y-96635428D01*
X171554857Y-96921142D01*
X171612000Y-97092571D01*
X171726285Y-97206857D01*
X171840571Y-97264000D01*
X172069142Y-97321142D01*
X172240571Y-97321142D01*
X172469142Y-97264000D01*
X172583428Y-97206857D01*
X172697714Y-97092571D01*
X172754857Y-96921142D01*
X172754857Y-96635428D01*
X172754857Y-97835428D02*
X171554857Y-97835428D01*
X172183428Y-98635428D02*
X172754857Y-98635428D01*
X171554857Y-98235428D02*
X172183428Y-98635428D01*
X171554857Y-99035428D01*
X172297714Y-99435428D02*
X172297714Y-100349714D01*
X171554857Y-100864000D02*
X171783428Y-100864000D01*
X171554857Y-101321142D02*
X171783428Y-101321142D01*
X172754857Y-101835428D02*
X171554857Y-101835428D01*
X171554857Y-102121142D01*
X171612000Y-102292571D01*
X171726285Y-102406857D01*
X171840571Y-102464000D01*
X172069142Y-102521142D01*
X172240571Y-102521142D01*
X172469142Y-102464000D01*
X172583428Y-102406857D01*
X172697714Y-102292571D01*
X172754857Y-102121142D01*
X172754857Y-101835428D01*
X172754857Y-103206857D02*
X172697714Y-103092571D01*
X172640571Y-103035428D01*
X172526285Y-102978285D01*
X172183428Y-102978285D01*
X172069142Y-103035428D01*
X172012000Y-103092571D01*
X171954857Y-103206857D01*
X171954857Y-103378285D01*
X172012000Y-103492571D01*
X172069142Y-103549714D01*
X172183428Y-103606857D01*
X172526285Y-103606857D01*
X172640571Y-103549714D01*
X172697714Y-103492571D01*
X172754857Y-103378285D01*
X172754857Y-103206857D01*
X172754857Y-105035428D02*
X171954857Y-105035428D01*
X171554857Y-105035428D02*
X171612000Y-104978285D01*
X171669142Y-105035428D01*
X171612000Y-105092571D01*
X171554857Y-105035428D01*
X171669142Y-105035428D01*
X171954857Y-105435428D02*
X171954857Y-105892571D01*
X171554857Y-105606857D02*
X172583428Y-105606857D01*
X172697714Y-105664000D01*
X172754857Y-105778285D01*
X172754857Y-105892571D01*
X171954857Y-107092571D02*
X172754857Y-107378285D01*
X171954857Y-107664000D02*
X172754857Y-107378285D01*
X173040571Y-107264000D01*
X173097714Y-107206857D01*
X173154857Y-107092571D01*
X172754857Y-108292571D02*
X172697714Y-108178285D01*
X172640571Y-108121142D01*
X172526285Y-108064000D01*
X172183428Y-108064000D01*
X172069142Y-108121142D01*
X172012000Y-108178285D01*
X171954857Y-108292571D01*
X171954857Y-108464000D01*
X172012000Y-108578285D01*
X172069142Y-108635428D01*
X172183428Y-108692571D01*
X172526285Y-108692571D01*
X172640571Y-108635428D01*
X172697714Y-108578285D01*
X172754857Y-108464000D01*
X172754857Y-108292571D01*
X171954857Y-109721142D02*
X172754857Y-109721142D01*
X171954857Y-109206857D02*
X172583428Y-109206857D01*
X172697714Y-109264000D01*
X172754857Y-109378285D01*
X172754857Y-109549714D01*
X172697714Y-109664000D01*
X172640571Y-109721142D01*
X172754857Y-110292571D02*
X171954857Y-110292571D01*
X172183428Y-110292571D02*
X172069142Y-110349714D01*
X172012000Y-110406857D01*
X171954857Y-110521142D01*
X171954857Y-110635428D01*
X172697714Y-110978285D02*
X172754857Y-111092571D01*
X172754857Y-111321142D01*
X172697714Y-111435428D01*
X172583428Y-111492571D01*
X172526285Y-111492571D01*
X172412000Y-111435428D01*
X172354857Y-111321142D01*
X172354857Y-111149714D01*
X172297714Y-111035428D01*
X172183428Y-110978285D01*
X172126285Y-110978285D01*
X172012000Y-111035428D01*
X171954857Y-111149714D01*
X171954857Y-111321142D01*
X172012000Y-111435428D01*
X172697714Y-112464000D02*
X172754857Y-112349714D01*
X172754857Y-112121142D01*
X172697714Y-112006857D01*
X172583428Y-111949714D01*
X172126285Y-111949714D01*
X172012000Y-112006857D01*
X171954857Y-112121142D01*
X171954857Y-112349714D01*
X172012000Y-112464000D01*
X172126285Y-112521142D01*
X172240571Y-112521142D01*
X172354857Y-111949714D01*
X172754857Y-113206857D02*
X172697714Y-113092571D01*
X172583428Y-113035428D01*
X171554857Y-113035428D01*
X171954857Y-113492571D02*
X171954857Y-113949714D01*
X172754857Y-113664000D02*
X171726285Y-113664000D01*
X171612000Y-113721142D01*
X171554857Y-113835428D01*
X171554857Y-113949714D01*
X171554857Y-114292571D02*
X171783428Y-114292571D01*
X171554857Y-114749714D02*
X171783428Y-114749714D01*
D12*
G04 #@! TO.C,G\002A\002A\002A*
G36*
X159000042Y-111753826D02*
X158999008Y-111754832D01*
X158988186Y-111782428D01*
X159008580Y-111822313D01*
X159054753Y-111874250D01*
X159129918Y-111940679D01*
X159183946Y-111962381D01*
X159217349Y-111941927D01*
X159207987Y-111914079D01*
X159170024Y-111864620D01*
X159129986Y-111822509D01*
X159067291Y-111766335D01*
X159027066Y-111745037D01*
X159000042Y-111753826D01*
X159000042Y-111753826D01*
G37*
X159000042Y-111753826D02*
X158999008Y-111754832D01*
X158988186Y-111782428D01*
X159008580Y-111822313D01*
X159054753Y-111874250D01*
X159129918Y-111940679D01*
X159183946Y-111962381D01*
X159217349Y-111941927D01*
X159207987Y-111914079D01*
X159170024Y-111864620D01*
X159129986Y-111822509D01*
X159067291Y-111766335D01*
X159027066Y-111745037D01*
X159000042Y-111753826D01*
G36*
X159295111Y-112046206D02*
X159293634Y-112049369D01*
X159295335Y-112075112D01*
X159318198Y-112115640D01*
X159365979Y-112175531D01*
X159442433Y-112259363D01*
X159551316Y-112371714D01*
X159590930Y-112411728D01*
X159719306Y-112540114D01*
X159817157Y-112635499D01*
X159889085Y-112701582D01*
X159939691Y-112742061D01*
X159973579Y-112760635D01*
X159995350Y-112761000D01*
X160009068Y-112747739D01*
X159997524Y-112720992D01*
X159953201Y-112663922D01*
X159880180Y-112581161D01*
X159782545Y-112477343D01*
X159668864Y-112361586D01*
X159544015Y-112237760D01*
X159449894Y-112147186D01*
X159382222Y-112086304D01*
X159336720Y-112051554D01*
X159309110Y-112039375D01*
X159295111Y-112046206D01*
X159295111Y-112046206D01*
G37*
X159295111Y-112046206D02*
X159293634Y-112049369D01*
X159295335Y-112075112D01*
X159318198Y-112115640D01*
X159365979Y-112175531D01*
X159442433Y-112259363D01*
X159551316Y-112371714D01*
X159590930Y-112411728D01*
X159719306Y-112540114D01*
X159817157Y-112635499D01*
X159889085Y-112701582D01*
X159939691Y-112742061D01*
X159973579Y-112760635D01*
X159995350Y-112761000D01*
X160009068Y-112747739D01*
X159997524Y-112720992D01*
X159953201Y-112663922D01*
X159880180Y-112581161D01*
X159782545Y-112477343D01*
X159668864Y-112361586D01*
X159544015Y-112237760D01*
X159449894Y-112147186D01*
X159382222Y-112086304D01*
X159336720Y-112051554D01*
X159309110Y-112039375D01*
X159295111Y-112046206D01*
G36*
X158866018Y-111320254D02*
X158806632Y-111367077D01*
X158731979Y-111434956D01*
X158650082Y-111515579D01*
X158568964Y-111600634D01*
X158496647Y-111681808D01*
X158441153Y-111750790D01*
X158410505Y-111799267D01*
X158407471Y-111815306D01*
X158428625Y-111841522D01*
X158482187Y-111898804D01*
X158563997Y-111982958D01*
X158669897Y-112089786D01*
X158795725Y-112215094D01*
X158937322Y-112354686D01*
X159090527Y-112504367D01*
X159094752Y-112508475D01*
X159282989Y-112690659D01*
X159438157Y-112838788D01*
X159562746Y-112955088D01*
X159659250Y-113041780D01*
X159730159Y-113101087D01*
X159777966Y-113135233D01*
X159805162Y-113146439D01*
X159809258Y-113145835D01*
X159844764Y-113150818D01*
X159901727Y-113187902D01*
X159984397Y-113260132D01*
X160031079Y-113304876D01*
X160125346Y-113393069D01*
X160206301Y-113456339D01*
X160292309Y-113506496D01*
X160401736Y-113555351D01*
X160451800Y-113575448D01*
X160556439Y-113616760D01*
X160644926Y-113651701D01*
X160705566Y-113675652D01*
X160724636Y-113683190D01*
X160759573Y-113674970D01*
X160770371Y-113658669D01*
X160767172Y-113621225D01*
X160747608Y-113548118D01*
X160740096Y-113525607D01*
X160627716Y-113525607D01*
X160619704Y-113536363D01*
X160610181Y-113533766D01*
X160578716Y-113520801D01*
X160513176Y-113494217D01*
X160426634Y-113459315D01*
X160409663Y-113452489D01*
X160295028Y-113399405D01*
X160197602Y-113335423D01*
X160097264Y-113246713D01*
X160067977Y-113217651D01*
X159907390Y-113055623D01*
X160032724Y-112928375D01*
X160158059Y-112801127D01*
X160316645Y-112958304D01*
X160411995Y-113060572D01*
X160480055Y-113156137D01*
X160535564Y-113266829D01*
X160552553Y-113307690D01*
X160595838Y-113417931D01*
X160620327Y-113488350D01*
X160627716Y-113525607D01*
X160740096Y-113525607D01*
X160715029Y-113450502D01*
X160679997Y-113357584D01*
X160628672Y-113233154D01*
X160583519Y-113141037D01*
X160534492Y-113065405D01*
X160471547Y-112990429D01*
X160398977Y-112914765D01*
X160316321Y-112828375D01*
X160267153Y-112769307D01*
X160247006Y-112731119D01*
X160251409Y-112707371D01*
X160253504Y-112705056D01*
X160261482Y-112695417D01*
X160264246Y-112683545D01*
X160258868Y-112666192D01*
X160255516Y-112660877D01*
X160146631Y-112660877D01*
X159963301Y-112845438D01*
X159885650Y-112922361D01*
X159821491Y-112983578D01*
X159778965Y-113021457D01*
X159766409Y-113030000D01*
X159745710Y-113012723D01*
X159693778Y-112963867D01*
X159615183Y-112887889D01*
X159514494Y-112789249D01*
X159396283Y-112672405D01*
X159265118Y-112541817D01*
X159225816Y-112502520D01*
X158698785Y-111975041D01*
X159080611Y-111595763D01*
X160146631Y-112660877D01*
X160255516Y-112660877D01*
X160242416Y-112640106D01*
X160211958Y-112602039D01*
X160164565Y-112548739D01*
X160097306Y-112476957D01*
X160007249Y-112383442D01*
X159891465Y-112264944D01*
X159747022Y-112118214D01*
X159570989Y-111940001D01*
X159487196Y-111855250D01*
X159349884Y-111717624D01*
X159222700Y-111592512D01*
X159159288Y-111531470D01*
X159015359Y-111531470D01*
X158637939Y-111911426D01*
X158579670Y-111856685D01*
X158538972Y-111813679D01*
X158521417Y-111785663D01*
X158521400Y-111785256D01*
X158539136Y-111762344D01*
X158586982Y-111713807D01*
X158656902Y-111647564D01*
X158713931Y-111595569D01*
X158906461Y-111422572D01*
X159015359Y-111531470D01*
X159159288Y-111531470D01*
X159110326Y-111484338D01*
X159017449Y-111397525D01*
X158948754Y-111336497D01*
X158908924Y-111305678D01*
X158902115Y-111302800D01*
X158866018Y-111320254D01*
X158866018Y-111320254D01*
G37*
X158866018Y-111320254D02*
X158806632Y-111367077D01*
X158731979Y-111434956D01*
X158650082Y-111515579D01*
X158568964Y-111600634D01*
X158496647Y-111681808D01*
X158441153Y-111750790D01*
X158410505Y-111799267D01*
X158407471Y-111815306D01*
X158428625Y-111841522D01*
X158482187Y-111898804D01*
X158563997Y-111982958D01*
X158669897Y-112089786D01*
X158795725Y-112215094D01*
X158937322Y-112354686D01*
X159090527Y-112504367D01*
X159094752Y-112508475D01*
X159282989Y-112690659D01*
X159438157Y-112838788D01*
X159562746Y-112955088D01*
X159659250Y-113041780D01*
X159730159Y-113101087D01*
X159777966Y-113135233D01*
X159805162Y-113146439D01*
X159809258Y-113145835D01*
X159844764Y-113150818D01*
X159901727Y-113187902D01*
X159984397Y-113260132D01*
X160031079Y-113304876D01*
X160125346Y-113393069D01*
X160206301Y-113456339D01*
X160292309Y-113506496D01*
X160401736Y-113555351D01*
X160451800Y-113575448D01*
X160556439Y-113616760D01*
X160644926Y-113651701D01*
X160705566Y-113675652D01*
X160724636Y-113683190D01*
X160759573Y-113674970D01*
X160770371Y-113658669D01*
X160767172Y-113621225D01*
X160747608Y-113548118D01*
X160740096Y-113525607D01*
X160627716Y-113525607D01*
X160619704Y-113536363D01*
X160610181Y-113533766D01*
X160578716Y-113520801D01*
X160513176Y-113494217D01*
X160426634Y-113459315D01*
X160409663Y-113452489D01*
X160295028Y-113399405D01*
X160197602Y-113335423D01*
X160097264Y-113246713D01*
X160067977Y-113217651D01*
X159907390Y-113055623D01*
X160032724Y-112928375D01*
X160158059Y-112801127D01*
X160316645Y-112958304D01*
X160411995Y-113060572D01*
X160480055Y-113156137D01*
X160535564Y-113266829D01*
X160552553Y-113307690D01*
X160595838Y-113417931D01*
X160620327Y-113488350D01*
X160627716Y-113525607D01*
X160740096Y-113525607D01*
X160715029Y-113450502D01*
X160679997Y-113357584D01*
X160628672Y-113233154D01*
X160583519Y-113141037D01*
X160534492Y-113065405D01*
X160471547Y-112990429D01*
X160398977Y-112914765D01*
X160316321Y-112828375D01*
X160267153Y-112769307D01*
X160247006Y-112731119D01*
X160251409Y-112707371D01*
X160253504Y-112705056D01*
X160261482Y-112695417D01*
X160264246Y-112683545D01*
X160258868Y-112666192D01*
X160255516Y-112660877D01*
X160146631Y-112660877D01*
X159963301Y-112845438D01*
X159885650Y-112922361D01*
X159821491Y-112983578D01*
X159778965Y-113021457D01*
X159766409Y-113030000D01*
X159745710Y-113012723D01*
X159693778Y-112963867D01*
X159615183Y-112887889D01*
X159514494Y-112789249D01*
X159396283Y-112672405D01*
X159265118Y-112541817D01*
X159225816Y-112502520D01*
X158698785Y-111975041D01*
X159080611Y-111595763D01*
X160146631Y-112660877D01*
X160255516Y-112660877D01*
X160242416Y-112640106D01*
X160211958Y-112602039D01*
X160164565Y-112548739D01*
X160097306Y-112476957D01*
X160007249Y-112383442D01*
X159891465Y-112264944D01*
X159747022Y-112118214D01*
X159570989Y-111940001D01*
X159487196Y-111855250D01*
X159349884Y-111717624D01*
X159222700Y-111592512D01*
X159159288Y-111531470D01*
X159015359Y-111531470D01*
X158637939Y-111911426D01*
X158579670Y-111856685D01*
X158538972Y-111813679D01*
X158521417Y-111785663D01*
X158521400Y-111785256D01*
X158539136Y-111762344D01*
X158586982Y-111713807D01*
X158656902Y-111647564D01*
X158713931Y-111595569D01*
X158906461Y-111422572D01*
X159015359Y-111531470D01*
X159159288Y-111531470D01*
X159110326Y-111484338D01*
X159017449Y-111397525D01*
X158948754Y-111336497D01*
X158908924Y-111305678D01*
X158902115Y-111302800D01*
X158866018Y-111320254D01*
G36*
X160589506Y-111271180D02*
X160542793Y-111324771D01*
X160474944Y-111406850D01*
X160390832Y-111511491D01*
X160295329Y-111632770D01*
X160265646Y-111670919D01*
X160148861Y-111823301D01*
X160062616Y-111940751D01*
X160004673Y-112027147D01*
X159972793Y-112086367D01*
X159964739Y-112122290D01*
X159978275Y-112138794D01*
X159994432Y-112141000D01*
X160016426Y-112121964D01*
X160064275Y-112069004D01*
X160132705Y-111988339D01*
X160216440Y-111886191D01*
X160310207Y-111768778D01*
X160312122Y-111766350D01*
X160405826Y-111648335D01*
X160489149Y-111544918D01*
X160556892Y-111462430D01*
X160603854Y-111407202D01*
X160624835Y-111385565D01*
X160624939Y-111385523D01*
X160648420Y-111398997D01*
X160705500Y-111439627D01*
X160790202Y-111502726D01*
X160896547Y-111583603D01*
X161018557Y-111677569D01*
X161150252Y-111779937D01*
X161285654Y-111886015D01*
X161418785Y-111991116D01*
X161543666Y-112090550D01*
X161654318Y-112179628D01*
X161744763Y-112253661D01*
X161809022Y-112307961D01*
X161841117Y-112337837D01*
X161843573Y-112341314D01*
X161830313Y-112367189D01*
X161788830Y-112423899D01*
X161724696Y-112504353D01*
X161643487Y-112601462D01*
X161593545Y-112659421D01*
X161495240Y-112771742D01*
X161423527Y-112850889D01*
X161371883Y-112902214D01*
X161333786Y-112931067D01*
X161302714Y-112942799D01*
X161272146Y-112942762D01*
X161252197Y-112939479D01*
X161148399Y-112940558D01*
X161064312Y-112979126D01*
X161003357Y-113044861D01*
X160968957Y-113127442D01*
X160964533Y-113216544D01*
X160993507Y-113301847D01*
X161059301Y-113373026D01*
X161100509Y-113397075D01*
X161196935Y-113430875D01*
X161275401Y-113425562D01*
X161352688Y-113379084D01*
X161370080Y-113364132D01*
X161435770Y-113274240D01*
X161445937Y-113218260D01*
X161358164Y-113218260D01*
X161327398Y-113278394D01*
X161273950Y-113320457D01*
X161206880Y-113335197D01*
X161135250Y-113313359D01*
X161107851Y-113292763D01*
X161068290Y-113228336D01*
X161066421Y-113154564D01*
X161096510Y-113086946D01*
X161152823Y-113040985D01*
X161205037Y-113030000D01*
X161267494Y-113047533D01*
X161315400Y-113080800D01*
X161357185Y-113149311D01*
X161358164Y-113218260D01*
X161445937Y-113218260D01*
X161455371Y-113166321D01*
X161435292Y-113066157D01*
X161433556Y-113038577D01*
X161448613Y-113000430D01*
X161484662Y-112945562D01*
X161545902Y-112867821D01*
X161636533Y-112761057D01*
X161669377Y-112723257D01*
X161759042Y-112622302D01*
X161838261Y-112536622D01*
X161900609Y-112472899D01*
X161939658Y-112437814D01*
X161948448Y-112433100D01*
X161977428Y-112447863D01*
X162036233Y-112487560D01*
X162115943Y-112545306D01*
X162207634Y-112614213D01*
X162302384Y-112687394D01*
X162391270Y-112757962D01*
X162465371Y-112819030D01*
X162515764Y-112863712D01*
X162533552Y-112884724D01*
X162518545Y-112909374D01*
X162475924Y-112967452D01*
X162410241Y-113053066D01*
X162326046Y-113160322D01*
X162227890Y-113283328D01*
X162177406Y-113345921D01*
X162035343Y-113518442D01*
X161920994Y-113650715D01*
X161834730Y-113742335D01*
X161776922Y-113792897D01*
X161757296Y-113803084D01*
X161709065Y-113804767D01*
X161660636Y-113778009D01*
X161609841Y-113729237D01*
X161548184Y-113672135D01*
X161490762Y-113645941D01*
X161413182Y-113639600D01*
X161412079Y-113639600D01*
X161322709Y-113648858D01*
X161261630Y-113681172D01*
X161245511Y-113696750D01*
X161186242Y-113791006D01*
X161171115Y-113889431D01*
X161195535Y-113981858D01*
X161254910Y-114058118D01*
X161344646Y-114108043D01*
X161437714Y-114122200D01*
X161525098Y-114100845D01*
X161602637Y-114046195D01*
X161651479Y-113972370D01*
X161655547Y-113959029D01*
X161677240Y-113915072D01*
X161723693Y-113894216D01*
X161765901Y-113888777D01*
X161798160Y-113884093D01*
X161829217Y-113872552D01*
X161849920Y-113858712D01*
X161564984Y-113858712D01*
X161553208Y-113925223D01*
X161511875Y-113980263D01*
X161451442Y-114015214D01*
X161382366Y-114021461D01*
X161315106Y-113990389D01*
X161304515Y-113980685D01*
X161274813Y-113926353D01*
X161264600Y-113866971D01*
X161285204Y-113793182D01*
X161337482Y-113745087D01*
X161407137Y-113726763D01*
X161479873Y-113742288D01*
X161536745Y-113789346D01*
X161564984Y-113858712D01*
X161849920Y-113858712D01*
X161863988Y-113849308D01*
X161907390Y-113809517D01*
X161964342Y-113748334D01*
X162039761Y-113660914D01*
X162138564Y-113542412D01*
X162229476Y-113432040D01*
X162335813Y-113302797D01*
X162431595Y-113186669D01*
X162512043Y-113089427D01*
X162572376Y-113016844D01*
X162607814Y-112974693D01*
X162614879Y-112966654D01*
X162640805Y-112973106D01*
X162692958Y-113004183D01*
X162759505Y-113050863D01*
X162828618Y-113104122D01*
X162888463Y-113154936D01*
X162927212Y-113194281D01*
X162935253Y-113211017D01*
X162918330Y-113234286D01*
X162872746Y-113292933D01*
X162801783Y-113382835D01*
X162708724Y-113499871D01*
X162596851Y-113639921D01*
X162469449Y-113798860D01*
X162329799Y-113972569D01*
X162232377Y-114093478D01*
X161536453Y-114956408D01*
X161286227Y-114751614D01*
X161036000Y-114546821D01*
X161036000Y-114458478D01*
X160929557Y-114458478D01*
X160894665Y-114525537D01*
X160877250Y-114540613D01*
X160800792Y-114572380D01*
X160730335Y-114554284D01*
X160670770Y-114495685D01*
X160637049Y-114443404D01*
X160634031Y-114403763D01*
X160656314Y-114355985D01*
X160711340Y-114300742D01*
X160785332Y-114277449D01*
X160859084Y-114289584D01*
X160893115Y-114313142D01*
X160929535Y-114380582D01*
X160929557Y-114458478D01*
X161036000Y-114458478D01*
X161036000Y-114425668D01*
X161030848Y-114344479D01*
X161009003Y-114290670D01*
X160960880Y-114241318D01*
X160957852Y-114238757D01*
X160858640Y-114182228D01*
X160758231Y-114175015D01*
X160662811Y-114216960D01*
X160627647Y-114247246D01*
X160570737Y-114335486D01*
X160551603Y-114438142D01*
X160572208Y-114537539D01*
X160591579Y-114571804D01*
X160660248Y-114630908D01*
X160752970Y-114663620D01*
X160846854Y-114662961D01*
X160868895Y-114656362D01*
X160926125Y-114637270D01*
X160959765Y-114630200D01*
X160984995Y-114645039D01*
X161040199Y-114684690D01*
X161115987Y-114741855D01*
X161202970Y-114809235D01*
X161291757Y-114879531D01*
X161372960Y-114945445D01*
X161437187Y-114999678D01*
X161452013Y-115012824D01*
X161446013Y-115038685D01*
X161413875Y-115091755D01*
X161363784Y-115161788D01*
X161303921Y-115238537D01*
X161242469Y-115311758D01*
X161187610Y-115371205D01*
X161147529Y-115406631D01*
X161133275Y-115411924D01*
X161108152Y-115395116D01*
X161048254Y-115351365D01*
X160959025Y-115284761D01*
X160845910Y-115199393D01*
X160714353Y-115099352D01*
X160569799Y-114988726D01*
X160565868Y-114985708D01*
X160402756Y-114860137D01*
X160275698Y-114761110D01*
X160180226Y-114684536D01*
X160111873Y-114626324D01*
X160066170Y-114582381D01*
X160038649Y-114548617D01*
X160024842Y-114520939D01*
X160020281Y-114495256D01*
X160020043Y-114485861D01*
X160030985Y-114420970D01*
X160068651Y-114389648D01*
X160072247Y-114388441D01*
X160129412Y-114346338D01*
X160171238Y-114270882D01*
X160190790Y-114178823D01*
X160190761Y-114178283D01*
X160097504Y-114178283D01*
X160075557Y-114250403D01*
X160054164Y-114278949D01*
X159988824Y-114318704D01*
X159912774Y-114321069D01*
X159846453Y-114286960D01*
X159830941Y-114268948D01*
X159794881Y-114188210D01*
X159808134Y-114115594D01*
X159842200Y-114071400D01*
X159911283Y-114028936D01*
X159980550Y-114027396D01*
X160040806Y-114057776D01*
X160082855Y-114111073D01*
X160097504Y-114178283D01*
X160190761Y-114178283D01*
X160187079Y-114111114D01*
X160153272Y-114025622D01*
X160088472Y-113968683D01*
X159983490Y-113925121D01*
X159887344Y-113930613D01*
X159794013Y-113985635D01*
X159786028Y-113992600D01*
X159729941Y-114053466D01*
X159706771Y-114116381D01*
X159703655Y-114168371D01*
X159725753Y-114277637D01*
X159788085Y-114361595D01*
X159857687Y-114402531D01*
X159902087Y-114441830D01*
X159927127Y-114522182D01*
X159927311Y-114523329D01*
X159933867Y-114554295D01*
X159945990Y-114583937D01*
X159968215Y-114616461D01*
X160005074Y-114656077D01*
X160061102Y-114706991D01*
X160140830Y-114773413D01*
X160248793Y-114859550D01*
X160389524Y-114969610D01*
X160503080Y-115057804D01*
X160648458Y-115171309D01*
X160779657Y-115275159D01*
X160891581Y-115365205D01*
X160979131Y-115437297D01*
X161037212Y-115487286D01*
X161060725Y-115511023D01*
X161060980Y-115511941D01*
X161043557Y-115548467D01*
X161002157Y-115605581D01*
X160946902Y-115671928D01*
X160887917Y-115736151D01*
X160835328Y-115786894D01*
X160799259Y-115812802D01*
X160791902Y-115813740D01*
X160765656Y-115796497D01*
X160703789Y-115752320D01*
X160610747Y-115684538D01*
X160490976Y-115596477D01*
X160348924Y-115491465D01*
X160189037Y-115372829D01*
X160015761Y-115243896D01*
X159833544Y-115107995D01*
X159646833Y-114968451D01*
X159460073Y-114828593D01*
X159277712Y-114691747D01*
X159104197Y-114561241D01*
X158943973Y-114440403D01*
X158801488Y-114332559D01*
X158681189Y-114241037D01*
X158587522Y-114169164D01*
X158524934Y-114120268D01*
X158497872Y-114097676D01*
X158497114Y-114096637D01*
X158511883Y-114074061D01*
X158554089Y-114016962D01*
X158619656Y-113930663D01*
X158704509Y-113820486D01*
X158804573Y-113691754D01*
X158915185Y-113550537D01*
X159049268Y-113378779D01*
X159153423Y-113242151D01*
X159230132Y-113136663D01*
X159281876Y-113058328D01*
X159311138Y-113003155D01*
X159320400Y-112967157D01*
X159312143Y-112946344D01*
X159296100Y-112938343D01*
X159274590Y-112955715D01*
X159227422Y-113007643D01*
X159159375Y-113088008D01*
X159075227Y-113190690D01*
X158979756Y-113309573D01*
X158877740Y-113438537D01*
X158773957Y-113571464D01*
X158673184Y-113702236D01*
X158580201Y-113824733D01*
X158499785Y-113932838D01*
X158436713Y-114020432D01*
X158395764Y-114081396D01*
X158381700Y-114109284D01*
X158401399Y-114128811D01*
X158457624Y-114175313D01*
X158546068Y-114245548D01*
X158662421Y-114336272D01*
X158802378Y-114444241D01*
X158961629Y-114566212D01*
X159135868Y-114698940D01*
X159320786Y-114839182D01*
X159512075Y-114983694D01*
X159705429Y-115129233D01*
X159896538Y-115272555D01*
X160081096Y-115410417D01*
X160254794Y-115539574D01*
X160413326Y-115656783D01*
X160552382Y-115758800D01*
X160667655Y-115842382D01*
X160754838Y-115904284D01*
X160809622Y-115941264D01*
X160827220Y-115950723D01*
X160845869Y-115931448D01*
X160893813Y-115875840D01*
X160968428Y-115787086D01*
X161067088Y-115668372D01*
X161187169Y-115522884D01*
X161326045Y-115353808D01*
X161481091Y-115164329D01*
X161649682Y-114957635D01*
X161829192Y-114736911D01*
X161950400Y-114587533D01*
X162135484Y-114358787D01*
X162310848Y-114141195D01*
X162473903Y-113938023D01*
X162622062Y-113752537D01*
X162752736Y-113588005D01*
X162863335Y-113447692D01*
X162951272Y-113334865D01*
X163013958Y-113252790D01*
X163048805Y-113204733D01*
X163055300Y-113193329D01*
X163035982Y-113173414D01*
X162980813Y-113125544D01*
X162893977Y-113053040D01*
X162779655Y-112959221D01*
X162642029Y-112847409D01*
X162485281Y-112720922D01*
X162313593Y-112583082D01*
X162131145Y-112437209D01*
X161942121Y-112286623D01*
X161750702Y-112134644D01*
X161561070Y-111984593D01*
X161377407Y-111839789D01*
X161203894Y-111703553D01*
X161044714Y-111579206D01*
X160904048Y-111470067D01*
X160786078Y-111379457D01*
X160694986Y-111310695D01*
X160634954Y-111267103D01*
X160610210Y-111252000D01*
X160589506Y-111271180D01*
X160589506Y-111271180D01*
G37*
X160589506Y-111271180D02*
X160542793Y-111324771D01*
X160474944Y-111406850D01*
X160390832Y-111511491D01*
X160295329Y-111632770D01*
X160265646Y-111670919D01*
X160148861Y-111823301D01*
X160062616Y-111940751D01*
X160004673Y-112027147D01*
X159972793Y-112086367D01*
X159964739Y-112122290D01*
X159978275Y-112138794D01*
X159994432Y-112141000D01*
X160016426Y-112121964D01*
X160064275Y-112069004D01*
X160132705Y-111988339D01*
X160216440Y-111886191D01*
X160310207Y-111768778D01*
X160312122Y-111766350D01*
X160405826Y-111648335D01*
X160489149Y-111544918D01*
X160556892Y-111462430D01*
X160603854Y-111407202D01*
X160624835Y-111385565D01*
X160624939Y-111385523D01*
X160648420Y-111398997D01*
X160705500Y-111439627D01*
X160790202Y-111502726D01*
X160896547Y-111583603D01*
X161018557Y-111677569D01*
X161150252Y-111779937D01*
X161285654Y-111886015D01*
X161418785Y-111991116D01*
X161543666Y-112090550D01*
X161654318Y-112179628D01*
X161744763Y-112253661D01*
X161809022Y-112307961D01*
X161841117Y-112337837D01*
X161843573Y-112341314D01*
X161830313Y-112367189D01*
X161788830Y-112423899D01*
X161724696Y-112504353D01*
X161643487Y-112601462D01*
X161593545Y-112659421D01*
X161495240Y-112771742D01*
X161423527Y-112850889D01*
X161371883Y-112902214D01*
X161333786Y-112931067D01*
X161302714Y-112942799D01*
X161272146Y-112942762D01*
X161252197Y-112939479D01*
X161148399Y-112940558D01*
X161064312Y-112979126D01*
X161003357Y-113044861D01*
X160968957Y-113127442D01*
X160964533Y-113216544D01*
X160993507Y-113301847D01*
X161059301Y-113373026D01*
X161100509Y-113397075D01*
X161196935Y-113430875D01*
X161275401Y-113425562D01*
X161352688Y-113379084D01*
X161370080Y-113364132D01*
X161435770Y-113274240D01*
X161445937Y-113218260D01*
X161358164Y-113218260D01*
X161327398Y-113278394D01*
X161273950Y-113320457D01*
X161206880Y-113335197D01*
X161135250Y-113313359D01*
X161107851Y-113292763D01*
X161068290Y-113228336D01*
X161066421Y-113154564D01*
X161096510Y-113086946D01*
X161152823Y-113040985D01*
X161205037Y-113030000D01*
X161267494Y-113047533D01*
X161315400Y-113080800D01*
X161357185Y-113149311D01*
X161358164Y-113218260D01*
X161445937Y-113218260D01*
X161455371Y-113166321D01*
X161435292Y-113066157D01*
X161433556Y-113038577D01*
X161448613Y-113000430D01*
X161484662Y-112945562D01*
X161545902Y-112867821D01*
X161636533Y-112761057D01*
X161669377Y-112723257D01*
X161759042Y-112622302D01*
X161838261Y-112536622D01*
X161900609Y-112472899D01*
X161939658Y-112437814D01*
X161948448Y-112433100D01*
X161977428Y-112447863D01*
X162036233Y-112487560D01*
X162115943Y-112545306D01*
X162207634Y-112614213D01*
X162302384Y-112687394D01*
X162391270Y-112757962D01*
X162465371Y-112819030D01*
X162515764Y-112863712D01*
X162533552Y-112884724D01*
X162518545Y-112909374D01*
X162475924Y-112967452D01*
X162410241Y-113053066D01*
X162326046Y-113160322D01*
X162227890Y-113283328D01*
X162177406Y-113345921D01*
X162035343Y-113518442D01*
X161920994Y-113650715D01*
X161834730Y-113742335D01*
X161776922Y-113792897D01*
X161757296Y-113803084D01*
X161709065Y-113804767D01*
X161660636Y-113778009D01*
X161609841Y-113729237D01*
X161548184Y-113672135D01*
X161490762Y-113645941D01*
X161413182Y-113639600D01*
X161412079Y-113639600D01*
X161322709Y-113648858D01*
X161261630Y-113681172D01*
X161245511Y-113696750D01*
X161186242Y-113791006D01*
X161171115Y-113889431D01*
X161195535Y-113981858D01*
X161254910Y-114058118D01*
X161344646Y-114108043D01*
X161437714Y-114122200D01*
X161525098Y-114100845D01*
X161602637Y-114046195D01*
X161651479Y-113972370D01*
X161655547Y-113959029D01*
X161677240Y-113915072D01*
X161723693Y-113894216D01*
X161765901Y-113888777D01*
X161798160Y-113884093D01*
X161829217Y-113872552D01*
X161849920Y-113858712D01*
X161564984Y-113858712D01*
X161553208Y-113925223D01*
X161511875Y-113980263D01*
X161451442Y-114015214D01*
X161382366Y-114021461D01*
X161315106Y-113990389D01*
X161304515Y-113980685D01*
X161274813Y-113926353D01*
X161264600Y-113866971D01*
X161285204Y-113793182D01*
X161337482Y-113745087D01*
X161407137Y-113726763D01*
X161479873Y-113742288D01*
X161536745Y-113789346D01*
X161564984Y-113858712D01*
X161849920Y-113858712D01*
X161863988Y-113849308D01*
X161907390Y-113809517D01*
X161964342Y-113748334D01*
X162039761Y-113660914D01*
X162138564Y-113542412D01*
X162229476Y-113432040D01*
X162335813Y-113302797D01*
X162431595Y-113186669D01*
X162512043Y-113089427D01*
X162572376Y-113016844D01*
X162607814Y-112974693D01*
X162614879Y-112966654D01*
X162640805Y-112973106D01*
X162692958Y-113004183D01*
X162759505Y-113050863D01*
X162828618Y-113104122D01*
X162888463Y-113154936D01*
X162927212Y-113194281D01*
X162935253Y-113211017D01*
X162918330Y-113234286D01*
X162872746Y-113292933D01*
X162801783Y-113382835D01*
X162708724Y-113499871D01*
X162596851Y-113639921D01*
X162469449Y-113798860D01*
X162329799Y-113972569D01*
X162232377Y-114093478D01*
X161536453Y-114956408D01*
X161286227Y-114751614D01*
X161036000Y-114546821D01*
X161036000Y-114458478D01*
X160929557Y-114458478D01*
X160894665Y-114525537D01*
X160877250Y-114540613D01*
X160800792Y-114572380D01*
X160730335Y-114554284D01*
X160670770Y-114495685D01*
X160637049Y-114443404D01*
X160634031Y-114403763D01*
X160656314Y-114355985D01*
X160711340Y-114300742D01*
X160785332Y-114277449D01*
X160859084Y-114289584D01*
X160893115Y-114313142D01*
X160929535Y-114380582D01*
X160929557Y-114458478D01*
X161036000Y-114458478D01*
X161036000Y-114425668D01*
X161030848Y-114344479D01*
X161009003Y-114290670D01*
X160960880Y-114241318D01*
X160957852Y-114238757D01*
X160858640Y-114182228D01*
X160758231Y-114175015D01*
X160662811Y-114216960D01*
X160627647Y-114247246D01*
X160570737Y-114335486D01*
X160551603Y-114438142D01*
X160572208Y-114537539D01*
X160591579Y-114571804D01*
X160660248Y-114630908D01*
X160752970Y-114663620D01*
X160846854Y-114662961D01*
X160868895Y-114656362D01*
X160926125Y-114637270D01*
X160959765Y-114630200D01*
X160984995Y-114645039D01*
X161040199Y-114684690D01*
X161115987Y-114741855D01*
X161202970Y-114809235D01*
X161291757Y-114879531D01*
X161372960Y-114945445D01*
X161437187Y-114999678D01*
X161452013Y-115012824D01*
X161446013Y-115038685D01*
X161413875Y-115091755D01*
X161363784Y-115161788D01*
X161303921Y-115238537D01*
X161242469Y-115311758D01*
X161187610Y-115371205D01*
X161147529Y-115406631D01*
X161133275Y-115411924D01*
X161108152Y-115395116D01*
X161048254Y-115351365D01*
X160959025Y-115284761D01*
X160845910Y-115199393D01*
X160714353Y-115099352D01*
X160569799Y-114988726D01*
X160565868Y-114985708D01*
X160402756Y-114860137D01*
X160275698Y-114761110D01*
X160180226Y-114684536D01*
X160111873Y-114626324D01*
X160066170Y-114582381D01*
X160038649Y-114548617D01*
X160024842Y-114520939D01*
X160020281Y-114495256D01*
X160020043Y-114485861D01*
X160030985Y-114420970D01*
X160068651Y-114389648D01*
X160072247Y-114388441D01*
X160129412Y-114346338D01*
X160171238Y-114270882D01*
X160190790Y-114178823D01*
X160190761Y-114178283D01*
X160097504Y-114178283D01*
X160075557Y-114250403D01*
X160054164Y-114278949D01*
X159988824Y-114318704D01*
X159912774Y-114321069D01*
X159846453Y-114286960D01*
X159830941Y-114268948D01*
X159794881Y-114188210D01*
X159808134Y-114115594D01*
X159842200Y-114071400D01*
X159911283Y-114028936D01*
X159980550Y-114027396D01*
X160040806Y-114057776D01*
X160082855Y-114111073D01*
X160097504Y-114178283D01*
X160190761Y-114178283D01*
X160187079Y-114111114D01*
X160153272Y-114025622D01*
X160088472Y-113968683D01*
X159983490Y-113925121D01*
X159887344Y-113930613D01*
X159794013Y-113985635D01*
X159786028Y-113992600D01*
X159729941Y-114053466D01*
X159706771Y-114116381D01*
X159703655Y-114168371D01*
X159725753Y-114277637D01*
X159788085Y-114361595D01*
X159857687Y-114402531D01*
X159902087Y-114441830D01*
X159927127Y-114522182D01*
X159927311Y-114523329D01*
X159933867Y-114554295D01*
X159945990Y-114583937D01*
X159968215Y-114616461D01*
X160005074Y-114656077D01*
X160061102Y-114706991D01*
X160140830Y-114773413D01*
X160248793Y-114859550D01*
X160389524Y-114969610D01*
X160503080Y-115057804D01*
X160648458Y-115171309D01*
X160779657Y-115275159D01*
X160891581Y-115365205D01*
X160979131Y-115437297D01*
X161037212Y-115487286D01*
X161060725Y-115511023D01*
X161060980Y-115511941D01*
X161043557Y-115548467D01*
X161002157Y-115605581D01*
X160946902Y-115671928D01*
X160887917Y-115736151D01*
X160835328Y-115786894D01*
X160799259Y-115812802D01*
X160791902Y-115813740D01*
X160765656Y-115796497D01*
X160703789Y-115752320D01*
X160610747Y-115684538D01*
X160490976Y-115596477D01*
X160348924Y-115491465D01*
X160189037Y-115372829D01*
X160015761Y-115243896D01*
X159833544Y-115107995D01*
X159646833Y-114968451D01*
X159460073Y-114828593D01*
X159277712Y-114691747D01*
X159104197Y-114561241D01*
X158943973Y-114440403D01*
X158801488Y-114332559D01*
X158681189Y-114241037D01*
X158587522Y-114169164D01*
X158524934Y-114120268D01*
X158497872Y-114097676D01*
X158497114Y-114096637D01*
X158511883Y-114074061D01*
X158554089Y-114016962D01*
X158619656Y-113930663D01*
X158704509Y-113820486D01*
X158804573Y-113691754D01*
X158915185Y-113550537D01*
X159049268Y-113378779D01*
X159153423Y-113242151D01*
X159230132Y-113136663D01*
X159281876Y-113058328D01*
X159311138Y-113003155D01*
X159320400Y-112967157D01*
X159312143Y-112946344D01*
X159296100Y-112938343D01*
X159274590Y-112955715D01*
X159227422Y-113007643D01*
X159159375Y-113088008D01*
X159075227Y-113190690D01*
X158979756Y-113309573D01*
X158877740Y-113438537D01*
X158773957Y-113571464D01*
X158673184Y-113702236D01*
X158580201Y-113824733D01*
X158499785Y-113932838D01*
X158436713Y-114020432D01*
X158395764Y-114081396D01*
X158381700Y-114109284D01*
X158401399Y-114128811D01*
X158457624Y-114175313D01*
X158546068Y-114245548D01*
X158662421Y-114336272D01*
X158802378Y-114444241D01*
X158961629Y-114566212D01*
X159135868Y-114698940D01*
X159320786Y-114839182D01*
X159512075Y-114983694D01*
X159705429Y-115129233D01*
X159896538Y-115272555D01*
X160081096Y-115410417D01*
X160254794Y-115539574D01*
X160413326Y-115656783D01*
X160552382Y-115758800D01*
X160667655Y-115842382D01*
X160754838Y-115904284D01*
X160809622Y-115941264D01*
X160827220Y-115950723D01*
X160845869Y-115931448D01*
X160893813Y-115875840D01*
X160968428Y-115787086D01*
X161067088Y-115668372D01*
X161187169Y-115522884D01*
X161326045Y-115353808D01*
X161481091Y-115164329D01*
X161649682Y-114957635D01*
X161829192Y-114736911D01*
X161950400Y-114587533D01*
X162135484Y-114358787D01*
X162310848Y-114141195D01*
X162473903Y-113938023D01*
X162622062Y-113752537D01*
X162752736Y-113588005D01*
X162863335Y-113447692D01*
X162951272Y-113334865D01*
X163013958Y-113252790D01*
X163048805Y-113204733D01*
X163055300Y-113193329D01*
X163035982Y-113173414D01*
X162980813Y-113125544D01*
X162893977Y-113053040D01*
X162779655Y-112959221D01*
X162642029Y-112847409D01*
X162485281Y-112720922D01*
X162313593Y-112583082D01*
X162131145Y-112437209D01*
X161942121Y-112286623D01*
X161750702Y-112134644D01*
X161561070Y-111984593D01*
X161377407Y-111839789D01*
X161203894Y-111703553D01*
X161044714Y-111579206D01*
X160904048Y-111470067D01*
X160786078Y-111379457D01*
X160694986Y-111310695D01*
X160634954Y-111267103D01*
X160610210Y-111252000D01*
X160589506Y-111271180D01*
G36*
X165379400Y-116916200D02*
X165938200Y-116916200D01*
X165938200Y-116738400D01*
X165379400Y-116738400D01*
X165379400Y-116916200D01*
X165379400Y-116916200D01*
G37*
X165379400Y-116916200D02*
X165938200Y-116916200D01*
X165938200Y-116738400D01*
X165379400Y-116738400D01*
X165379400Y-116916200D01*
G36*
X155545007Y-116325536D02*
X155427910Y-116347171D01*
X155341013Y-116388592D01*
X155274621Y-116454186D01*
X155225750Y-116534813D01*
X155181454Y-116666977D01*
X155165601Y-116819271D01*
X155178168Y-116971783D01*
X155219135Y-117104603D01*
X155226384Y-117119079D01*
X155280233Y-117202439D01*
X155345197Y-117260489D01*
X155430825Y-117297209D01*
X155546668Y-117316578D01*
X155702275Y-117322577D01*
X155714758Y-117322600D01*
X155835463Y-117321328D01*
X155918527Y-117315965D01*
X155977082Y-117304184D01*
X156024256Y-117283660D01*
X156059438Y-117261559D01*
X156144777Y-117184735D01*
X156200026Y-117086578D01*
X156228145Y-116958911D01*
X156231565Y-116815602D01*
X156057600Y-116815602D01*
X156047395Y-116961585D01*
X156015640Y-117064412D01*
X155960629Y-117127691D01*
X155898344Y-117152340D01*
X155786865Y-117164894D01*
X155665587Y-117164705D01*
X155555518Y-117152695D01*
X155487329Y-117134250D01*
X155420433Y-117097157D01*
X155377965Y-117046028D01*
X155355037Y-116969883D01*
X155346759Y-116857740D01*
X155346400Y-116817686D01*
X155349093Y-116716796D01*
X155359888Y-116649965D01*
X155382862Y-116600612D01*
X155407701Y-116568366D01*
X155439718Y-116534437D01*
X155472893Y-116513438D01*
X155519810Y-116502276D01*
X155593052Y-116497861D01*
X155697755Y-116497100D01*
X155809518Y-116498375D01*
X155883477Y-116504012D01*
X155932602Y-116516723D01*
X155969862Y-116539222D01*
X155992054Y-116558677D01*
X156025734Y-116595157D01*
X156045421Y-116635475D01*
X156054792Y-116694044D01*
X156057524Y-116785273D01*
X156057600Y-116815602D01*
X156231565Y-116815602D01*
X156232092Y-116793558D01*
X156231761Y-116785392D01*
X156224048Y-116669180D01*
X156210473Y-116588666D01*
X156187556Y-116528805D01*
X156163548Y-116490366D01*
X156100006Y-116415842D01*
X156027579Y-116365641D01*
X155935135Y-116335636D01*
X155811542Y-116321701D01*
X155702000Y-116319300D01*
X155545007Y-116325536D01*
X155545007Y-116325536D01*
G37*
X155545007Y-116325536D02*
X155427910Y-116347171D01*
X155341013Y-116388592D01*
X155274621Y-116454186D01*
X155225750Y-116534813D01*
X155181454Y-116666977D01*
X155165601Y-116819271D01*
X155178168Y-116971783D01*
X155219135Y-117104603D01*
X155226384Y-117119079D01*
X155280233Y-117202439D01*
X155345197Y-117260489D01*
X155430825Y-117297209D01*
X155546668Y-117316578D01*
X155702275Y-117322577D01*
X155714758Y-117322600D01*
X155835463Y-117321328D01*
X155918527Y-117315965D01*
X155977082Y-117304184D01*
X156024256Y-117283660D01*
X156059438Y-117261559D01*
X156144777Y-117184735D01*
X156200026Y-117086578D01*
X156228145Y-116958911D01*
X156231565Y-116815602D01*
X156057600Y-116815602D01*
X156047395Y-116961585D01*
X156015640Y-117064412D01*
X155960629Y-117127691D01*
X155898344Y-117152340D01*
X155786865Y-117164894D01*
X155665587Y-117164705D01*
X155555518Y-117152695D01*
X155487329Y-117134250D01*
X155420433Y-117097157D01*
X155377965Y-117046028D01*
X155355037Y-116969883D01*
X155346759Y-116857740D01*
X155346400Y-116817686D01*
X155349093Y-116716796D01*
X155359888Y-116649965D01*
X155382862Y-116600612D01*
X155407701Y-116568366D01*
X155439718Y-116534437D01*
X155472893Y-116513438D01*
X155519810Y-116502276D01*
X155593052Y-116497861D01*
X155697755Y-116497100D01*
X155809518Y-116498375D01*
X155883477Y-116504012D01*
X155932602Y-116516723D01*
X155969862Y-116539222D01*
X155992054Y-116558677D01*
X156025734Y-116595157D01*
X156045421Y-116635475D01*
X156054792Y-116694044D01*
X156057524Y-116785273D01*
X156057600Y-116815602D01*
X156231565Y-116815602D01*
X156232092Y-116793558D01*
X156231761Y-116785392D01*
X156224048Y-116669180D01*
X156210473Y-116588666D01*
X156187556Y-116528805D01*
X156163548Y-116490366D01*
X156100006Y-116415842D01*
X156027579Y-116365641D01*
X155935135Y-116335636D01*
X155811542Y-116321701D01*
X155702000Y-116319300D01*
X155545007Y-116325536D01*
G36*
X157226000Y-116738400D02*
X156591000Y-116738400D01*
X156591000Y-116332000D01*
X156413200Y-116332000D01*
X156413200Y-117322600D01*
X156591000Y-117322600D01*
X156591000Y-116916200D01*
X157226000Y-116916200D01*
X157226000Y-117322600D01*
X157403800Y-117322600D01*
X157403800Y-116332000D01*
X157226000Y-116332000D01*
X157226000Y-116738400D01*
X157226000Y-116738400D01*
G37*
X157226000Y-116738400D02*
X156591000Y-116738400D01*
X156591000Y-116332000D01*
X156413200Y-116332000D01*
X156413200Y-117322600D01*
X156591000Y-117322600D01*
X156591000Y-116916200D01*
X157226000Y-116916200D01*
X157226000Y-117322600D01*
X157403800Y-117322600D01*
X157403800Y-116332000D01*
X157226000Y-116332000D01*
X157226000Y-116738400D01*
G36*
X158469515Y-116359123D02*
X158388525Y-116428731D01*
X158279151Y-116536446D01*
X158160329Y-116656978D01*
X158051397Y-116766917D01*
X157954953Y-116863353D01*
X157876515Y-116940841D01*
X157821600Y-116993938D01*
X157795728Y-117017201D01*
X157794573Y-117017800D01*
X157791001Y-116993942D01*
X157788014Y-116928541D01*
X157785877Y-116830851D01*
X157784852Y-116710127D01*
X157784800Y-116674900D01*
X157784800Y-116332000D01*
X157631304Y-116332000D01*
X157638202Y-116820950D01*
X157641116Y-117013194D01*
X157646574Y-117157211D01*
X157658829Y-117254545D01*
X157682135Y-117306741D01*
X157720745Y-117315345D01*
X157778913Y-117281902D01*
X157860892Y-117207957D01*
X157970935Y-117095056D01*
X158078888Y-116981049D01*
X158182574Y-116872603D01*
X158274827Y-116778182D01*
X158349843Y-116703559D01*
X158401819Y-116654507D01*
X158424951Y-116636800D01*
X158424971Y-116636800D01*
X158432366Y-116660655D01*
X158438548Y-116726052D01*
X158442973Y-116823737D01*
X158445094Y-116944455D01*
X158445200Y-116979700D01*
X158445200Y-117322600D01*
X158597600Y-117322600D01*
X158597600Y-116843110D01*
X158597587Y-116646055D01*
X158594712Y-116497970D01*
X158584720Y-116397045D01*
X158563359Y-116341469D01*
X158526375Y-116329432D01*
X158469515Y-116359123D01*
X158469515Y-116359123D01*
G37*
X158469515Y-116359123D02*
X158388525Y-116428731D01*
X158279151Y-116536446D01*
X158160329Y-116656978D01*
X158051397Y-116766917D01*
X157954953Y-116863353D01*
X157876515Y-116940841D01*
X157821600Y-116993938D01*
X157795728Y-117017201D01*
X157794573Y-117017800D01*
X157791001Y-116993942D01*
X157788014Y-116928541D01*
X157785877Y-116830851D01*
X157784852Y-116710127D01*
X157784800Y-116674900D01*
X157784800Y-116332000D01*
X157631304Y-116332000D01*
X157638202Y-116820950D01*
X157641116Y-117013194D01*
X157646574Y-117157211D01*
X157658829Y-117254545D01*
X157682135Y-117306741D01*
X157720745Y-117315345D01*
X157778913Y-117281902D01*
X157860892Y-117207957D01*
X157970935Y-117095056D01*
X158078888Y-116981049D01*
X158182574Y-116872603D01*
X158274827Y-116778182D01*
X158349843Y-116703559D01*
X158401819Y-116654507D01*
X158424951Y-116636800D01*
X158424971Y-116636800D01*
X158432366Y-116660655D01*
X158438548Y-116726052D01*
X158442973Y-116823737D01*
X158445094Y-116944455D01*
X158445200Y-116979700D01*
X158445200Y-117322600D01*
X158597600Y-117322600D01*
X158597600Y-116843110D01*
X158597587Y-116646055D01*
X158594712Y-116497970D01*
X158584720Y-116397045D01*
X158563359Y-116341469D01*
X158526375Y-116329432D01*
X158469515Y-116359123D01*
G36*
X158826200Y-117322600D02*
X159004000Y-117322600D01*
X159004000Y-116332000D01*
X158826200Y-116332000D01*
X158826200Y-117322600D01*
X158826200Y-117322600D01*
G37*
X158826200Y-117322600D02*
X159004000Y-117322600D01*
X159004000Y-116332000D01*
X158826200Y-116332000D01*
X158826200Y-117322600D01*
G36*
X160097584Y-116325947D02*
X160064831Y-116344574D01*
X160018467Y-116382702D01*
X159953277Y-116444647D01*
X159864042Y-116534727D01*
X159745547Y-116657258D01*
X159737542Y-116665582D01*
X159386634Y-117030500D01*
X159385000Y-116332000D01*
X159206104Y-116332000D01*
X159213002Y-116820950D01*
X159215866Y-117011413D01*
X159221232Y-117154991D01*
X159233340Y-117253097D01*
X159256428Y-117307141D01*
X159294733Y-117318534D01*
X159352494Y-117288688D01*
X159433949Y-117219015D01*
X159543336Y-117110925D01*
X159675866Y-116975092D01*
X160017906Y-116624100D01*
X160020000Y-117322600D01*
X160197800Y-117322600D01*
X160197800Y-116840893D01*
X160197580Y-116673231D01*
X160196407Y-116549215D01*
X160193516Y-116461690D01*
X160188142Y-116403502D01*
X160179520Y-116367499D01*
X160166884Y-116346525D01*
X160149467Y-116333427D01*
X160143125Y-116329925D01*
X160121943Y-116322503D01*
X160097584Y-116325947D01*
X160097584Y-116325947D01*
G37*
X160097584Y-116325947D02*
X160064831Y-116344574D01*
X160018467Y-116382702D01*
X159953277Y-116444647D01*
X159864042Y-116534727D01*
X159745547Y-116657258D01*
X159737542Y-116665582D01*
X159386634Y-117030500D01*
X159385000Y-116332000D01*
X159206104Y-116332000D01*
X159213002Y-116820950D01*
X159215866Y-117011413D01*
X159221232Y-117154991D01*
X159233340Y-117253097D01*
X159256428Y-117307141D01*
X159294733Y-117318534D01*
X159352494Y-117288688D01*
X159433949Y-117219015D01*
X159543336Y-117110925D01*
X159675866Y-116975092D01*
X160017906Y-116624100D01*
X160020000Y-117322600D01*
X160197800Y-117322600D01*
X160197800Y-116840893D01*
X160197580Y-116673231D01*
X160196407Y-116549215D01*
X160193516Y-116461690D01*
X160188142Y-116403502D01*
X160179520Y-116367499D01*
X160166884Y-116346525D01*
X160149467Y-116333427D01*
X160143125Y-116329925D01*
X160121943Y-116322503D01*
X160097584Y-116325947D01*
G36*
X160401000Y-117322600D02*
X160578800Y-117322600D01*
X160578800Y-116332000D01*
X160401000Y-116332000D01*
X160401000Y-117322600D01*
X160401000Y-117322600D01*
G37*
X160401000Y-117322600D02*
X160578800Y-117322600D01*
X160578800Y-116332000D01*
X160401000Y-116332000D01*
X160401000Y-117322600D01*
G36*
X161052334Y-116332831D02*
X160931709Y-116335689D01*
X160848209Y-116341121D01*
X160795006Y-116349673D01*
X160765275Y-116361892D01*
X160757704Y-116368770D01*
X160744524Y-116387678D01*
X160740590Y-116408261D01*
X160749734Y-116436054D01*
X160775786Y-116476588D01*
X160822576Y-116535396D01*
X160893934Y-116618011D01*
X160993692Y-116729966D01*
X161055050Y-116798267D01*
X161149529Y-116904144D01*
X161230828Y-116996802D01*
X161293356Y-117069743D01*
X161331524Y-117116470D01*
X161340800Y-117130416D01*
X161317073Y-117136079D01*
X161252576Y-117140692D01*
X161157335Y-117143762D01*
X161048700Y-117144800D01*
X160756600Y-117144800D01*
X160756600Y-117322600D01*
X161170620Y-117322600D01*
X161348933Y-117321029D01*
X161479583Y-117316179D01*
X161565613Y-117307841D01*
X161610070Y-117295806D01*
X161615120Y-117292120D01*
X161642184Y-117247720D01*
X161645600Y-117229617D01*
X161629316Y-117201218D01*
X161584112Y-117142092D01*
X161515465Y-117058895D01*
X161428851Y-116958285D01*
X161341591Y-116860047D01*
X161037582Y-116522500D01*
X161645600Y-116508236D01*
X161645600Y-116332000D01*
X161216911Y-116332000D01*
X161052334Y-116332831D01*
X161052334Y-116332831D01*
G37*
X161052334Y-116332831D02*
X160931709Y-116335689D01*
X160848209Y-116341121D01*
X160795006Y-116349673D01*
X160765275Y-116361892D01*
X160757704Y-116368770D01*
X160744524Y-116387678D01*
X160740590Y-116408261D01*
X160749734Y-116436054D01*
X160775786Y-116476588D01*
X160822576Y-116535396D01*
X160893934Y-116618011D01*
X160993692Y-116729966D01*
X161055050Y-116798267D01*
X161149529Y-116904144D01*
X161230828Y-116996802D01*
X161293356Y-117069743D01*
X161331524Y-117116470D01*
X161340800Y-117130416D01*
X161317073Y-117136079D01*
X161252576Y-117140692D01*
X161157335Y-117143762D01*
X161048700Y-117144800D01*
X160756600Y-117144800D01*
X160756600Y-117322600D01*
X161170620Y-117322600D01*
X161348933Y-117321029D01*
X161479583Y-117316179D01*
X161565613Y-117307841D01*
X161610070Y-117295806D01*
X161615120Y-117292120D01*
X161642184Y-117247720D01*
X161645600Y-117229617D01*
X161629316Y-117201218D01*
X161584112Y-117142092D01*
X161515465Y-117058895D01*
X161428851Y-116958285D01*
X161341591Y-116860047D01*
X161037582Y-116522500D01*
X161645600Y-116508236D01*
X161645600Y-116332000D01*
X161216911Y-116332000D01*
X161052334Y-116332831D01*
G36*
X162684627Y-116323925D02*
X162631869Y-116372247D01*
X162555119Y-116446084D01*
X162460059Y-116539954D01*
X162352370Y-116648377D01*
X162332540Y-116668550D01*
X161977299Y-117030500D01*
X161976550Y-116681250D01*
X161975800Y-116332000D01*
X161798000Y-116332000D01*
X161798000Y-116787122D01*
X161798831Y-116936354D01*
X161801137Y-117069640D01*
X161804638Y-117177974D01*
X161809052Y-117252349D01*
X161813418Y-117282422D01*
X161835479Y-117317048D01*
X161868634Y-117326563D01*
X161916686Y-117308434D01*
X161983436Y-117260126D01*
X162072686Y-117179103D01*
X162188238Y-117062831D01*
X162267435Y-116979700D01*
X162370775Y-116871342D01*
X162462919Y-116777066D01*
X162538008Y-116702680D01*
X162590181Y-116653989D01*
X162613478Y-116636800D01*
X162621784Y-116660654D01*
X162628728Y-116726050D01*
X162633698Y-116823733D01*
X162636080Y-116944449D01*
X162636200Y-116979700D01*
X162636200Y-117322600D01*
X162788600Y-117322600D01*
X162788600Y-116845080D01*
X162787684Y-116664053D01*
X162784331Y-116527781D01*
X162777636Y-116430240D01*
X162766695Y-116365408D01*
X162750604Y-116327261D01*
X162728457Y-116309777D01*
X162707711Y-116306600D01*
X162684627Y-116323925D01*
X162684627Y-116323925D01*
G37*
X162684627Y-116323925D02*
X162631869Y-116372247D01*
X162555119Y-116446084D01*
X162460059Y-116539954D01*
X162352370Y-116648377D01*
X162332540Y-116668550D01*
X161977299Y-117030500D01*
X161976550Y-116681250D01*
X161975800Y-116332000D01*
X161798000Y-116332000D01*
X161798000Y-116787122D01*
X161798831Y-116936354D01*
X161801137Y-117069640D01*
X161804638Y-117177974D01*
X161809052Y-117252349D01*
X161813418Y-117282422D01*
X161835479Y-117317048D01*
X161868634Y-117326563D01*
X161916686Y-117308434D01*
X161983436Y-117260126D01*
X162072686Y-117179103D01*
X162188238Y-117062831D01*
X162267435Y-116979700D01*
X162370775Y-116871342D01*
X162462919Y-116777066D01*
X162538008Y-116702680D01*
X162590181Y-116653989D01*
X162613478Y-116636800D01*
X162621784Y-116660654D01*
X162628728Y-116726050D01*
X162633698Y-116823733D01*
X162636080Y-116944449D01*
X162636200Y-116979700D01*
X162636200Y-117322600D01*
X162788600Y-117322600D01*
X162788600Y-116845080D01*
X162787684Y-116664053D01*
X162784331Y-116527781D01*
X162777636Y-116430240D01*
X162766695Y-116365408D01*
X162750604Y-116327261D01*
X162728457Y-116309777D01*
X162707711Y-116306600D01*
X162684627Y-116323925D01*
G36*
X163109277Y-116338605D02*
X163046455Y-116349471D01*
X163028748Y-116358356D01*
X163015197Y-116378670D01*
X163005259Y-116418249D01*
X162998444Y-116483695D01*
X162994261Y-116581609D01*
X162992220Y-116718590D01*
X162991800Y-116855810D01*
X162991800Y-117322600D01*
X163169600Y-117322600D01*
X163169600Y-117068600D01*
X163804600Y-117068600D01*
X163804600Y-117322600D01*
X163982400Y-117322600D01*
X163982400Y-117013119D01*
X163977607Y-116833920D01*
X163972949Y-116794851D01*
X163804600Y-116794851D01*
X163804600Y-116890800D01*
X163169600Y-116890800D01*
X163169600Y-116509800D01*
X163374062Y-116509800D01*
X163541422Y-116521348D01*
X163665667Y-116557053D01*
X163749194Y-116618499D01*
X163794399Y-116707274D01*
X163804600Y-116794851D01*
X163972949Y-116794851D01*
X163961155Y-116695938D01*
X163929934Y-116590311D01*
X163880836Y-116508182D01*
X163810751Y-116440690D01*
X163771749Y-116412874D01*
X163723419Y-116383386D01*
X163676120Y-116363384D01*
X163618009Y-116350621D01*
X163537240Y-116342852D01*
X163421971Y-116337832D01*
X163367274Y-116336196D01*
X163214952Y-116334263D01*
X163109277Y-116338605D01*
X163109277Y-116338605D01*
G37*
X163109277Y-116338605D02*
X163046455Y-116349471D01*
X163028748Y-116358356D01*
X163015197Y-116378670D01*
X163005259Y-116418249D01*
X162998444Y-116483695D01*
X162994261Y-116581609D01*
X162992220Y-116718590D01*
X162991800Y-116855810D01*
X162991800Y-117322600D01*
X163169600Y-117322600D01*
X163169600Y-117068600D01*
X163804600Y-117068600D01*
X163804600Y-117322600D01*
X163982400Y-117322600D01*
X163982400Y-117013119D01*
X163977607Y-116833920D01*
X163972949Y-116794851D01*
X163804600Y-116794851D01*
X163804600Y-116890800D01*
X163169600Y-116890800D01*
X163169600Y-116509800D01*
X163374062Y-116509800D01*
X163541422Y-116521348D01*
X163665667Y-116557053D01*
X163749194Y-116618499D01*
X163794399Y-116707274D01*
X163804600Y-116794851D01*
X163972949Y-116794851D01*
X163961155Y-116695938D01*
X163929934Y-116590311D01*
X163880836Y-116508182D01*
X163810751Y-116440690D01*
X163771749Y-116412874D01*
X163723419Y-116383386D01*
X163676120Y-116363384D01*
X163618009Y-116350621D01*
X163537240Y-116342852D01*
X163421971Y-116337832D01*
X163367274Y-116336196D01*
X163214952Y-116334263D01*
X163109277Y-116338605D01*
G36*
X164536044Y-116332244D02*
X164426939Y-116333776D01*
X164351472Y-116337788D01*
X164301059Y-116345478D01*
X164267120Y-116358039D01*
X164241073Y-116376667D01*
X164219771Y-116397120D01*
X164185575Y-116435873D01*
X164167171Y-116475981D01*
X164161058Y-116533000D01*
X164163734Y-116622485D01*
X164164774Y-116641395D01*
X164172256Y-116738500D01*
X164185184Y-116801198D01*
X164209581Y-116845879D01*
X164251472Y-116888933D01*
X164257881Y-116894697D01*
X164328406Y-116945563D01*
X164400363Y-116979678D01*
X164416332Y-116983936D01*
X164491799Y-116999029D01*
X164383574Y-117090964D01*
X164305444Y-117158103D01*
X164229264Y-117224767D01*
X164198725Y-117252005D01*
X164122100Y-117321110D01*
X164251017Y-117321855D01*
X164312474Y-117320208D01*
X164361879Y-117310323D01*
X164411324Y-117286018D01*
X164472904Y-117241114D01*
X164558713Y-117169432D01*
X164572657Y-117157500D01*
X164689980Y-117063499D01*
X164776883Y-117008723D01*
X164831090Y-116992400D01*
X164875454Y-116986125D01*
X164893628Y-116957261D01*
X164896800Y-116903500D01*
X164896800Y-116814600D01*
X164657315Y-116814600D01*
X164524327Y-116811581D01*
X164433960Y-116799317D01*
X164378229Y-116773001D01*
X164349147Y-116727821D01*
X164338731Y-116658969D01*
X164338000Y-116622285D01*
X164338000Y-116509800D01*
X164973000Y-116509800D01*
X164973000Y-117322600D01*
X165150800Y-117322600D01*
X165150800Y-116857780D01*
X165149508Y-116670404D01*
X165145491Y-116530337D01*
X165138537Y-116434149D01*
X165128436Y-116378411D01*
X165120321Y-116362480D01*
X165085315Y-116349257D01*
X165008821Y-116339913D01*
X164887927Y-116334243D01*
X164719725Y-116332043D01*
X164687366Y-116332000D01*
X164536044Y-116332244D01*
X164536044Y-116332244D01*
G37*
X164536044Y-116332244D02*
X164426939Y-116333776D01*
X164351472Y-116337788D01*
X164301059Y-116345478D01*
X164267120Y-116358039D01*
X164241073Y-116376667D01*
X164219771Y-116397120D01*
X164185575Y-116435873D01*
X164167171Y-116475981D01*
X164161058Y-116533000D01*
X164163734Y-116622485D01*
X164164774Y-116641395D01*
X164172256Y-116738500D01*
X164185184Y-116801198D01*
X164209581Y-116845879D01*
X164251472Y-116888933D01*
X164257881Y-116894697D01*
X164328406Y-116945563D01*
X164400363Y-116979678D01*
X164416332Y-116983936D01*
X164491799Y-116999029D01*
X164383574Y-117090964D01*
X164305444Y-117158103D01*
X164229264Y-117224767D01*
X164198725Y-117252005D01*
X164122100Y-117321110D01*
X164251017Y-117321855D01*
X164312474Y-117320208D01*
X164361879Y-117310323D01*
X164411324Y-117286018D01*
X164472904Y-117241114D01*
X164558713Y-117169432D01*
X164572657Y-117157500D01*
X164689980Y-117063499D01*
X164776883Y-117008723D01*
X164831090Y-116992400D01*
X164875454Y-116986125D01*
X164893628Y-116957261D01*
X164896800Y-116903500D01*
X164896800Y-116814600D01*
X164657315Y-116814600D01*
X164524327Y-116811581D01*
X164433960Y-116799317D01*
X164378229Y-116773001D01*
X164349147Y-116727821D01*
X164338731Y-116658969D01*
X164338000Y-116622285D01*
X164338000Y-116509800D01*
X164973000Y-116509800D01*
X164973000Y-117322600D01*
X165150800Y-117322600D01*
X165150800Y-116857780D01*
X165149508Y-116670404D01*
X165145491Y-116530337D01*
X165138537Y-116434149D01*
X165128436Y-116378411D01*
X165120321Y-116362480D01*
X165085315Y-116349257D01*
X165008821Y-116339913D01*
X164887927Y-116334243D01*
X164719725Y-116332043D01*
X164687366Y-116332000D01*
X164536044Y-116332244D01*
G36*
X165303200Y-116509800D02*
X166014400Y-116509800D01*
X166014400Y-117322600D01*
X166192200Y-117322600D01*
X166192200Y-116857780D01*
X166190908Y-116670404D01*
X166186891Y-116530337D01*
X166179937Y-116434149D01*
X166169836Y-116378411D01*
X166161721Y-116362480D01*
X166127380Y-116349468D01*
X166052241Y-116340206D01*
X165933260Y-116334487D01*
X165767392Y-116332100D01*
X165717221Y-116332000D01*
X165303200Y-116332000D01*
X165303200Y-116509800D01*
X165303200Y-116509800D01*
G37*
X165303200Y-116509800D02*
X166014400Y-116509800D01*
X166014400Y-117322600D01*
X166192200Y-117322600D01*
X166192200Y-116857780D01*
X166190908Y-116670404D01*
X166186891Y-116530337D01*
X166179937Y-116434149D01*
X166169836Y-116378411D01*
X166161721Y-116362480D01*
X166127380Y-116349468D01*
X166052241Y-116340206D01*
X165933260Y-116334487D01*
X165767392Y-116332100D01*
X165717221Y-116332000D01*
X165303200Y-116332000D01*
X165303200Y-116509800D01*
G36*
X125999576Y-93024730D02*
X125996700Y-93027500D01*
X125973342Y-93065256D01*
X125973668Y-93103912D01*
X125996755Y-93138067D01*
X126018091Y-93152598D01*
X126049921Y-93165274D01*
X126074758Y-93161151D01*
X126102986Y-93138254D01*
X126105228Y-93136027D01*
X126130195Y-93104361D01*
X126133434Y-93075871D01*
X126115339Y-93042437D01*
X126110079Y-93035562D01*
X126075535Y-93008145D01*
X126036958Y-93004410D01*
X125999576Y-93024730D01*
X125999576Y-93024730D01*
G37*
X125999576Y-93024730D02*
X125996700Y-93027500D01*
X125973342Y-93065256D01*
X125973668Y-93103912D01*
X125996755Y-93138067D01*
X126018091Y-93152598D01*
X126049921Y-93165274D01*
X126074758Y-93161151D01*
X126102986Y-93138254D01*
X126105228Y-93136027D01*
X126130195Y-93104361D01*
X126133434Y-93075871D01*
X126115339Y-93042437D01*
X126110079Y-93035562D01*
X126075535Y-93008145D01*
X126036958Y-93004410D01*
X125999576Y-93024730D01*
G36*
X126483381Y-93462446D02*
X126451804Y-93482663D01*
X126432091Y-93518216D01*
X126428500Y-93545304D01*
X126439450Y-93583911D01*
X126467273Y-93612885D01*
X126504428Y-93624399D01*
X126504700Y-93624400D01*
X126529624Y-93617450D01*
X126552675Y-93604629D01*
X126574633Y-93575472D01*
X126581042Y-93536548D01*
X126571474Y-93498495D01*
X126557675Y-93480318D01*
X126520709Y-93460639D01*
X126483381Y-93462446D01*
X126483381Y-93462446D01*
G37*
X126483381Y-93462446D02*
X126451804Y-93482663D01*
X126432091Y-93518216D01*
X126428500Y-93545304D01*
X126439450Y-93583911D01*
X126467273Y-93612885D01*
X126504428Y-93624399D01*
X126504700Y-93624400D01*
X126529624Y-93617450D01*
X126552675Y-93604629D01*
X126574633Y-93575472D01*
X126581042Y-93536548D01*
X126571474Y-93498495D01*
X126557675Y-93480318D01*
X126520709Y-93460639D01*
X126483381Y-93462446D01*
G36*
X127091226Y-94040609D02*
X127050614Y-94063213D01*
X127020314Y-94098174D01*
X127003683Y-94141219D01*
X127004078Y-94188072D01*
X127024857Y-94234460D01*
X127034925Y-94246940D01*
X127080934Y-94281925D01*
X127132359Y-94293664D01*
X127184677Y-94281420D01*
X127198716Y-94273690D01*
X127237423Y-94236404D01*
X127256737Y-94189550D01*
X127256824Y-94164175D01*
X127163091Y-94164175D01*
X127154507Y-94185015D01*
X127134542Y-94193981D01*
X127130360Y-94193517D01*
X127109164Y-94178872D01*
X127103983Y-94167140D01*
X127109793Y-94145761D01*
X127129384Y-94134842D01*
X127151655Y-94139738D01*
X127154940Y-94142560D01*
X127163091Y-94164175D01*
X127256824Y-94164175D01*
X127256910Y-94139556D01*
X127238194Y-94092851D01*
X127200839Y-94055861D01*
X127189958Y-94049569D01*
X127138793Y-94034637D01*
X127091226Y-94040609D01*
X127091226Y-94040609D01*
G37*
X127091226Y-94040609D02*
X127050614Y-94063213D01*
X127020314Y-94098174D01*
X127003683Y-94141219D01*
X127004078Y-94188072D01*
X127024857Y-94234460D01*
X127034925Y-94246940D01*
X127080934Y-94281925D01*
X127132359Y-94293664D01*
X127184677Y-94281420D01*
X127198716Y-94273690D01*
X127237423Y-94236404D01*
X127256737Y-94189550D01*
X127256824Y-94164175D01*
X127163091Y-94164175D01*
X127154507Y-94185015D01*
X127134542Y-94193981D01*
X127130360Y-94193517D01*
X127109164Y-94178872D01*
X127103983Y-94167140D01*
X127109793Y-94145761D01*
X127129384Y-94134842D01*
X127151655Y-94139738D01*
X127154940Y-94142560D01*
X127163091Y-94164175D01*
X127256824Y-94164175D01*
X127256910Y-94139556D01*
X127238194Y-94092851D01*
X127200839Y-94055861D01*
X127189958Y-94049569D01*
X127138793Y-94034637D01*
X127091226Y-94040609D01*
G36*
X126787785Y-90739092D02*
X126509928Y-90768987D01*
X126231799Y-90823179D01*
X126057524Y-90869905D01*
X125852267Y-90940431D01*
X125642222Y-91030476D01*
X125433629Y-91136678D01*
X125232732Y-91255676D01*
X125045775Y-91384111D01*
X124923550Y-91480332D01*
X124853585Y-91541937D01*
X124774188Y-91616778D01*
X124690847Y-91699269D01*
X124609051Y-91783826D01*
X124534290Y-91864862D01*
X124472051Y-91936792D01*
X124457767Y-91954350D01*
X124295236Y-92177781D01*
X124152013Y-92416704D01*
X124028936Y-92669175D01*
X123926846Y-92933247D01*
X123846580Y-93206975D01*
X123788979Y-93488415D01*
X123784914Y-93514197D01*
X123768954Y-93648844D01*
X123759103Y-93800285D01*
X123755357Y-93960657D01*
X123757715Y-94122100D01*
X123766172Y-94276754D01*
X123780727Y-94416757D01*
X123785244Y-94448065D01*
X123831581Y-94695778D01*
X123892842Y-94928545D01*
X123971153Y-95153358D01*
X124065511Y-95370650D01*
X124195600Y-95618235D01*
X124342633Y-95848107D01*
X124508660Y-96063128D01*
X124695733Y-96266159D01*
X124734645Y-96304410D01*
X124902135Y-96457688D01*
X125069147Y-96591730D01*
X125242648Y-96711587D01*
X125429606Y-96822308D01*
X125504595Y-96862498D01*
X125755900Y-96979847D01*
X126017678Y-97075370D01*
X126287178Y-97148517D01*
X126561647Y-97198737D01*
X126838333Y-97225477D01*
X127114482Y-97228188D01*
X127279400Y-97217993D01*
X127560789Y-97180265D01*
X127838269Y-97118182D01*
X128109129Y-97032536D01*
X128370656Y-96924123D01*
X128496902Y-96861716D01*
X128747012Y-96717076D01*
X128980633Y-96553538D01*
X129197042Y-96372118D01*
X129395518Y-96173832D01*
X129575336Y-95959696D01*
X129735774Y-95730727D01*
X129876110Y-95487942D01*
X129995620Y-95232355D01*
X130065747Y-95040955D01*
X129222500Y-95040955D01*
X129215815Y-95061507D01*
X129197436Y-95098897D01*
X129169882Y-95148909D01*
X129135672Y-95207329D01*
X129097324Y-95269941D01*
X129057357Y-95332532D01*
X129018289Y-95390887D01*
X128987565Y-95434150D01*
X128956400Y-95475136D01*
X128919147Y-95522127D01*
X128879210Y-95571078D01*
X128839992Y-95617942D01*
X128804898Y-95658674D01*
X128777333Y-95689227D01*
X128760699Y-95705556D01*
X128757822Y-95707200D01*
X128756434Y-95695050D01*
X128755185Y-95660804D01*
X128754126Y-95607763D01*
X128753308Y-95539232D01*
X128752782Y-95458512D01*
X128752600Y-95370650D01*
X128752600Y-95034100D01*
X128987550Y-95034100D01*
X129061641Y-95034451D01*
X129126134Y-95035428D01*
X129177077Y-95036916D01*
X129210517Y-95038798D01*
X129222500Y-95040955D01*
X130065747Y-95040955D01*
X130093582Y-94964984D01*
X130169273Y-94686845D01*
X130215087Y-94445802D01*
X130231415Y-94308355D01*
X130241422Y-94154689D01*
X130245111Y-93992660D01*
X130243262Y-93878107D01*
X129461061Y-93878107D01*
X129459164Y-94121329D01*
X129433107Y-94366552D01*
X129382311Y-94612323D01*
X129375322Y-94638833D01*
X129361288Y-94690954D01*
X128760976Y-94694252D01*
X128160665Y-94697550D01*
X128399797Y-95034100D01*
X128549400Y-95034100D01*
X128549400Y-95529400D01*
X127939800Y-95529400D01*
X127939800Y-95732600D01*
X128549400Y-95732600D01*
X128549400Y-95896877D01*
X128482725Y-95947078D01*
X128386939Y-96014387D01*
X128276621Y-96083975D01*
X128161332Y-96150081D01*
X128054100Y-96205285D01*
X128001637Y-96229019D01*
X127938187Y-96255439D01*
X127868806Y-96282694D01*
X127798551Y-96308933D01*
X127732478Y-96332307D01*
X127675644Y-96350966D01*
X127633105Y-96363060D01*
X127612775Y-96366763D01*
X127608618Y-96361837D01*
X127605202Y-96345304D01*
X127602469Y-96315250D01*
X127600356Y-96269761D01*
X127598805Y-96206925D01*
X127597753Y-96124828D01*
X127597141Y-96021556D01*
X127597029Y-95960568D01*
X127406098Y-95960568D01*
X127406038Y-96008155D01*
X127405513Y-96125647D01*
X127404522Y-96219808D01*
X127402979Y-96292702D01*
X127400798Y-96346396D01*
X127397893Y-96382955D01*
X127394180Y-96404445D01*
X127389572Y-96412931D01*
X127389244Y-96413080D01*
X127353860Y-96421473D01*
X127297905Y-96428532D01*
X127226180Y-96434127D01*
X127143484Y-96438131D01*
X127054618Y-96440414D01*
X126964382Y-96440848D01*
X126877577Y-96439303D01*
X126799004Y-96435651D01*
X126739743Y-96430508D01*
X126501937Y-96391606D01*
X126269459Y-96330538D01*
X126046883Y-96248643D01*
X125920500Y-96190321D01*
X125774450Y-96117334D01*
X125772622Y-95818010D01*
X125575292Y-95818010D01*
X125574549Y-95885760D01*
X125572578Y-95936146D01*
X125569481Y-95966290D01*
X125566321Y-95973900D01*
X125550982Y-95966576D01*
X125522209Y-95947386D01*
X125486666Y-95920819D01*
X125367311Y-95821677D01*
X125257941Y-95719583D01*
X125165033Y-95620612D01*
X125158261Y-95612724D01*
X125122938Y-95570541D01*
X125094267Y-95534943D01*
X125076042Y-95510717D01*
X125071626Y-95503432D01*
X125082346Y-95498782D01*
X125117632Y-95495574D01*
X125176690Y-95493837D01*
X125258726Y-95493602D01*
X125319276Y-95494202D01*
X125571250Y-95497650D01*
X125574706Y-95735775D01*
X125575292Y-95818010D01*
X125772622Y-95818010D01*
X125771139Y-95575409D01*
X125767831Y-95034100D01*
X125578875Y-95034100D01*
X125572885Y-95288100D01*
X125241868Y-95288096D01*
X124910850Y-95288093D01*
X124844175Y-95169579D01*
X124816896Y-95120344D01*
X124795013Y-95079426D01*
X124781121Y-95051768D01*
X124777500Y-95042582D01*
X124789696Y-95040508D01*
X124824264Y-95038618D01*
X124878178Y-95036975D01*
X124948410Y-95035643D01*
X125031934Y-95034688D01*
X125125723Y-95034172D01*
X125178188Y-95034100D01*
X125578875Y-95034100D01*
X125767831Y-95034100D01*
X125767827Y-95033484D01*
X125978088Y-95036967D01*
X126188348Y-95040450D01*
X126187503Y-95551625D01*
X126186659Y-96062800D01*
X127102669Y-96062800D01*
X127098960Y-95964375D01*
X127095250Y-95865950D01*
X126390400Y-95859198D01*
X126390400Y-95567500D01*
X126890692Y-95567500D01*
X127017344Y-95567578D01*
X127120931Y-95567878D01*
X127203788Y-95568494D01*
X127268250Y-95569524D01*
X127316650Y-95571062D01*
X127351324Y-95573206D01*
X127374606Y-95576050D01*
X127388830Y-95579691D01*
X127396333Y-95584225D01*
X127399002Y-95588398D01*
X127400948Y-95605883D01*
X127402662Y-95645518D01*
X127404088Y-95704053D01*
X127405172Y-95778239D01*
X127405860Y-95864827D01*
X127406098Y-95960568D01*
X127597029Y-95960568D01*
X127596907Y-95895196D01*
X127596900Y-95865950D01*
X127596900Y-95364300D01*
X126390400Y-95364300D01*
X126390400Y-95034100D01*
X127488950Y-95033586D01*
X127406400Y-94957171D01*
X127366087Y-94920612D01*
X127338373Y-94898742D01*
X127317603Y-94888586D01*
X127298122Y-94887172D01*
X127279400Y-94890394D01*
X127246196Y-94894769D01*
X127196609Y-94897999D01*
X127139651Y-94899561D01*
X127120650Y-94899620D01*
X127060851Y-94898308D01*
X127017366Y-94893728D01*
X126981158Y-94884146D01*
X126943188Y-94867828D01*
X126935636Y-94864124D01*
X126890059Y-94837427D01*
X126837534Y-94800636D01*
X126789155Y-94761544D01*
X126787550Y-94760120D01*
X126710178Y-94691200D01*
X124638780Y-94691200D01*
X124626050Y-94643575D01*
X124572221Y-94394707D01*
X124543294Y-94145258D01*
X124539156Y-93896601D01*
X124559695Y-93650108D01*
X124604800Y-93407153D01*
X124674359Y-93169109D01*
X124764426Y-92945639D01*
X124816723Y-92832029D01*
X125048625Y-93063676D01*
X125280527Y-93295324D01*
X125393368Y-93243437D01*
X125506209Y-93191551D01*
X126249930Y-93933360D01*
X126383342Y-94066379D01*
X126500038Y-94182582D01*
X126601251Y-94283128D01*
X126688211Y-94369175D01*
X126762150Y-94441882D01*
X126824298Y-94502409D01*
X126875887Y-94551913D01*
X126918147Y-94591554D01*
X126952310Y-94622491D01*
X126979607Y-94645882D01*
X127001268Y-94662887D01*
X127018526Y-94674663D01*
X127032610Y-94682370D01*
X127044753Y-94687167D01*
X127053249Y-94689534D01*
X127093641Y-94698141D01*
X127126587Y-94703231D01*
X127135799Y-94703829D01*
X127186651Y-94695921D01*
X127244753Y-94675239D01*
X127298426Y-94645946D01*
X127298631Y-94645807D01*
X127346272Y-94613477D01*
X127385861Y-94649158D01*
X127407772Y-94669606D01*
X127443994Y-94704194D01*
X127490723Y-94749256D01*
X127544155Y-94801126D01*
X127591613Y-94847450D01*
X127672421Y-94924043D01*
X127751349Y-94993082D01*
X127835344Y-95060252D01*
X127931350Y-95131235D01*
X127983453Y-95168130D01*
X128051278Y-95214763D01*
X128113558Y-95255944D01*
X128166840Y-95289520D01*
X128207671Y-95313338D01*
X128232594Y-95325244D01*
X128237025Y-95326200D01*
X128272787Y-95315958D01*
X128292869Y-95288539D01*
X128295400Y-95270986D01*
X128288368Y-95253679D01*
X128268684Y-95219078D01*
X128238471Y-95170550D01*
X128199851Y-95111462D01*
X128154946Y-95045182D01*
X128134960Y-95016351D01*
X128073267Y-94929266D01*
X128019242Y-94856630D01*
X127967636Y-94792163D01*
X127913201Y-94729584D01*
X127850688Y-94662614D01*
X127774850Y-94584973D01*
X127772201Y-94582300D01*
X127706782Y-94515990D01*
X127657579Y-94465181D01*
X127622700Y-94427565D01*
X127600253Y-94400834D01*
X127588344Y-94382679D01*
X127585082Y-94370792D01*
X127588572Y-94362865D01*
X127590671Y-94360900D01*
X127616155Y-94329953D01*
X127641022Y-94283811D01*
X127660426Y-94232326D01*
X127666903Y-94205905D01*
X127667696Y-94165213D01*
X127444500Y-94165213D01*
X127435916Y-94181039D01*
X127412585Y-94210526D01*
X127378141Y-94249915D01*
X127336218Y-94295447D01*
X127290448Y-94343360D01*
X127244465Y-94389897D01*
X127201902Y-94431297D01*
X127166393Y-94463801D01*
X127141571Y-94483649D01*
X127132557Y-94488000D01*
X127121719Y-94479275D01*
X127094636Y-94454197D01*
X127052990Y-94414407D01*
X126998461Y-94361545D01*
X126932731Y-94297254D01*
X126857480Y-94223173D01*
X126774391Y-94140946D01*
X126685143Y-94052212D01*
X126636162Y-94003349D01*
X126150908Y-93518698D01*
X126191279Y-93498524D01*
X126222384Y-93471941D01*
X126236273Y-93436826D01*
X126234157Y-93399988D01*
X126217246Y-93368237D01*
X126186748Y-93348383D01*
X126164007Y-93345000D01*
X126127324Y-93354411D01*
X126098360Y-93377891D01*
X126085660Y-93408307D01*
X126085600Y-93410468D01*
X126081226Y-93430030D01*
X126075905Y-93433900D01*
X126064352Y-93425313D01*
X126037854Y-93401381D01*
X125999303Y-93364848D01*
X125951585Y-93318456D01*
X125897590Y-93264948D01*
X125890335Y-93257687D01*
X125714460Y-93081474D01*
X125769855Y-93043147D01*
X125804120Y-93016140D01*
X125847244Y-92977457D01*
X125894288Y-92932099D01*
X125940313Y-92885065D01*
X125980379Y-92841356D01*
X126001200Y-92816097D01*
X125347931Y-92816097D01*
X125326205Y-92858192D01*
X125281681Y-92910589D01*
X125276373Y-92916006D01*
X125241848Y-92950021D01*
X125214172Y-92975665D01*
X125198054Y-92988628D01*
X125196199Y-92989400D01*
X125183523Y-92981061D01*
X125160880Y-92960186D01*
X125151971Y-92951112D01*
X125115289Y-92912824D01*
X125184520Y-92842225D01*
X125229768Y-92797490D01*
X125262480Y-92769540D01*
X125286760Y-92755973D01*
X125306714Y-92754385D01*
X125323600Y-92760800D01*
X125347012Y-92783800D01*
X125347931Y-92816097D01*
X126001200Y-92816097D01*
X126009548Y-92805970D01*
X126020553Y-92789375D01*
X126035998Y-92767734D01*
X126047100Y-92760800D01*
X126059227Y-92769185D01*
X126085804Y-92792114D01*
X126123346Y-92826245D01*
X126168372Y-92868237D01*
X126217396Y-92914747D01*
X126266934Y-92962434D01*
X126313505Y-93007956D01*
X126353623Y-93047973D01*
X126383804Y-93079141D01*
X126400566Y-93098120D01*
X126402826Y-93102018D01*
X126392322Y-93112127D01*
X126366860Y-93126566D01*
X126361551Y-93129100D01*
X126328946Y-93155373D01*
X126314526Y-93190499D01*
X126318276Y-93227069D01*
X126340183Y-93257672D01*
X126361820Y-93270005D01*
X126406046Y-93275130D01*
X126444000Y-93257030D01*
X126470992Y-93218366D01*
X126486850Y-93180651D01*
X126965675Y-93660088D01*
X127085850Y-93780908D01*
X127189108Y-93885764D01*
X127275217Y-93974409D01*
X127343943Y-94046600D01*
X127395054Y-94102089D01*
X127428317Y-94140631D01*
X127443498Y-94161980D01*
X127444500Y-94165213D01*
X127667696Y-94165213D01*
X127667920Y-94153756D01*
X127655350Y-94090539D01*
X127655343Y-94090517D01*
X127651212Y-94077551D01*
X127645759Y-94064376D01*
X127637810Y-94049734D01*
X127626192Y-94032371D01*
X127609734Y-94011031D01*
X127587263Y-93984458D01*
X127557605Y-93951396D01*
X127519588Y-93910590D01*
X127472039Y-93860783D01*
X127413786Y-93800720D01*
X127343655Y-93729145D01*
X127260475Y-93644802D01*
X127163073Y-93546436D01*
X127050275Y-93432791D01*
X126920909Y-93302611D01*
X126898541Y-93280110D01*
X126763117Y-93143764D01*
X126644689Y-93024242D01*
X126542233Y-92920467D01*
X126454724Y-92831362D01*
X126381140Y-92755849D01*
X126320455Y-92692850D01*
X126271647Y-92641290D01*
X126233691Y-92600090D01*
X126215901Y-92579903D01*
X125120400Y-92579903D01*
X125113272Y-92606710D01*
X125090278Y-92640938D01*
X125049005Y-92686160D01*
X125047773Y-92687406D01*
X125013472Y-92721383D01*
X124986304Y-92747016D01*
X124970867Y-92760009D01*
X124969217Y-92760800D01*
X124956824Y-92753023D01*
X124934984Y-92734205D01*
X124933894Y-92733186D01*
X124913226Y-92709274D01*
X124904502Y-92690255D01*
X124904500Y-92690109D01*
X124912841Y-92672685D01*
X124934347Y-92643717D01*
X124963745Y-92609132D01*
X124995764Y-92574858D01*
X125025131Y-92546820D01*
X125045695Y-92531400D01*
X125078267Y-92525713D01*
X125105468Y-92540426D01*
X125119739Y-92570630D01*
X125120400Y-92579903D01*
X126215901Y-92579903D01*
X126205564Y-92568174D01*
X126186241Y-92544463D01*
X126174699Y-92527881D01*
X126169914Y-92517350D01*
X126169876Y-92513438D01*
X126179377Y-92489603D01*
X126196824Y-92451262D01*
X126218535Y-92406490D01*
X126219701Y-92404157D01*
X126261572Y-92320565D01*
X126169220Y-92228314D01*
X125964950Y-92228314D01*
X125880617Y-92310407D01*
X125841936Y-92346443D01*
X125808736Y-92374428D01*
X125785950Y-92390334D01*
X125780017Y-92392500D01*
X125758587Y-92384591D01*
X125740526Y-92371481D01*
X125723579Y-92351137D01*
X125720264Y-92329599D01*
X125732163Y-92303028D01*
X125760857Y-92267584D01*
X125799912Y-92227338D01*
X125882524Y-92145461D01*
X125923737Y-92186888D01*
X125964950Y-92228314D01*
X126169220Y-92228314D01*
X126027504Y-92086754D01*
X125964800Y-92023565D01*
X125941570Y-91999714D01*
X125736350Y-91999714D01*
X125652017Y-92081807D01*
X125613336Y-92117843D01*
X125580136Y-92145828D01*
X125557350Y-92161734D01*
X125551417Y-92163900D01*
X125529987Y-92155991D01*
X125511926Y-92142881D01*
X125494979Y-92122537D01*
X125491664Y-92100999D01*
X125503563Y-92074428D01*
X125532257Y-92038984D01*
X125571312Y-91998738D01*
X125653924Y-91916861D01*
X125695137Y-91958288D01*
X125736350Y-91999714D01*
X125941570Y-91999714D01*
X125908725Y-91965991D01*
X125861610Y-91916513D01*
X125825786Y-91877612D01*
X125803585Y-91851770D01*
X125797196Y-91841662D01*
X125811668Y-91827646D01*
X125846100Y-91806341D01*
X125896765Y-91779623D01*
X125959936Y-91749371D01*
X126031885Y-91717460D01*
X126098890Y-91689742D01*
X126269962Y-91627479D01*
X126435018Y-91580867D01*
X126601996Y-91548261D01*
X126778836Y-91528016D01*
X126917450Y-91520144D01*
X127165979Y-91523376D01*
X127410285Y-91551086D01*
X127648801Y-91602864D01*
X127879962Y-91678301D01*
X128102202Y-91776988D01*
X128278263Y-91875951D01*
X128486207Y-92019164D01*
X128675766Y-92178923D01*
X128846362Y-92353772D01*
X128997417Y-92542259D01*
X129128355Y-92742928D01*
X129238597Y-92954325D01*
X129327566Y-93174996D01*
X129394685Y-93403486D01*
X129439376Y-93638341D01*
X129461061Y-93878107D01*
X130243262Y-93878107D01*
X130242487Y-93830128D01*
X130233555Y-93674951D01*
X130218317Y-93534987D01*
X130214605Y-93510100D01*
X130175185Y-93294489D01*
X130126353Y-93095486D01*
X130065661Y-92905271D01*
X129990661Y-92716026D01*
X129914400Y-92551250D01*
X129778131Y-92301070D01*
X129623218Y-92067178D01*
X129450976Y-91850145D01*
X129262715Y-91650544D01*
X129059748Y-91468945D01*
X128843387Y-91305922D01*
X128614944Y-91162046D01*
X128375732Y-91037890D01*
X128127063Y-90934025D01*
X127870249Y-90851023D01*
X127606602Y-90789457D01*
X127337434Y-90749898D01*
X127064057Y-90732919D01*
X126787785Y-90739092D01*
X126787785Y-90739092D01*
G37*
X126787785Y-90739092D02*
X126509928Y-90768987D01*
X126231799Y-90823179D01*
X126057524Y-90869905D01*
X125852267Y-90940431D01*
X125642222Y-91030476D01*
X125433629Y-91136678D01*
X125232732Y-91255676D01*
X125045775Y-91384111D01*
X124923550Y-91480332D01*
X124853585Y-91541937D01*
X124774188Y-91616778D01*
X124690847Y-91699269D01*
X124609051Y-91783826D01*
X124534290Y-91864862D01*
X124472051Y-91936792D01*
X124457767Y-91954350D01*
X124295236Y-92177781D01*
X124152013Y-92416704D01*
X124028936Y-92669175D01*
X123926846Y-92933247D01*
X123846580Y-93206975D01*
X123788979Y-93488415D01*
X123784914Y-93514197D01*
X123768954Y-93648844D01*
X123759103Y-93800285D01*
X123755357Y-93960657D01*
X123757715Y-94122100D01*
X123766172Y-94276754D01*
X123780727Y-94416757D01*
X123785244Y-94448065D01*
X123831581Y-94695778D01*
X123892842Y-94928545D01*
X123971153Y-95153358D01*
X124065511Y-95370650D01*
X124195600Y-95618235D01*
X124342633Y-95848107D01*
X124508660Y-96063128D01*
X124695733Y-96266159D01*
X124734645Y-96304410D01*
X124902135Y-96457688D01*
X125069147Y-96591730D01*
X125242648Y-96711587D01*
X125429606Y-96822308D01*
X125504595Y-96862498D01*
X125755900Y-96979847D01*
X126017678Y-97075370D01*
X126287178Y-97148517D01*
X126561647Y-97198737D01*
X126838333Y-97225477D01*
X127114482Y-97228188D01*
X127279400Y-97217993D01*
X127560789Y-97180265D01*
X127838269Y-97118182D01*
X128109129Y-97032536D01*
X128370656Y-96924123D01*
X128496902Y-96861716D01*
X128747012Y-96717076D01*
X128980633Y-96553538D01*
X129197042Y-96372118D01*
X129395518Y-96173832D01*
X129575336Y-95959696D01*
X129735774Y-95730727D01*
X129876110Y-95487942D01*
X129995620Y-95232355D01*
X130065747Y-95040955D01*
X129222500Y-95040955D01*
X129215815Y-95061507D01*
X129197436Y-95098897D01*
X129169882Y-95148909D01*
X129135672Y-95207329D01*
X129097324Y-95269941D01*
X129057357Y-95332532D01*
X129018289Y-95390887D01*
X128987565Y-95434150D01*
X128956400Y-95475136D01*
X128919147Y-95522127D01*
X128879210Y-95571078D01*
X128839992Y-95617942D01*
X128804898Y-95658674D01*
X128777333Y-95689227D01*
X128760699Y-95705556D01*
X128757822Y-95707200D01*
X128756434Y-95695050D01*
X128755185Y-95660804D01*
X128754126Y-95607763D01*
X128753308Y-95539232D01*
X128752782Y-95458512D01*
X128752600Y-95370650D01*
X128752600Y-95034100D01*
X128987550Y-95034100D01*
X129061641Y-95034451D01*
X129126134Y-95035428D01*
X129177077Y-95036916D01*
X129210517Y-95038798D01*
X129222500Y-95040955D01*
X130065747Y-95040955D01*
X130093582Y-94964984D01*
X130169273Y-94686845D01*
X130215087Y-94445802D01*
X130231415Y-94308355D01*
X130241422Y-94154689D01*
X130245111Y-93992660D01*
X130243262Y-93878107D01*
X129461061Y-93878107D01*
X129459164Y-94121329D01*
X129433107Y-94366552D01*
X129382311Y-94612323D01*
X129375322Y-94638833D01*
X129361288Y-94690954D01*
X128760976Y-94694252D01*
X128160665Y-94697550D01*
X128399797Y-95034100D01*
X128549400Y-95034100D01*
X128549400Y-95529400D01*
X127939800Y-95529400D01*
X127939800Y-95732600D01*
X128549400Y-95732600D01*
X128549400Y-95896877D01*
X128482725Y-95947078D01*
X128386939Y-96014387D01*
X128276621Y-96083975D01*
X128161332Y-96150081D01*
X128054100Y-96205285D01*
X128001637Y-96229019D01*
X127938187Y-96255439D01*
X127868806Y-96282694D01*
X127798551Y-96308933D01*
X127732478Y-96332307D01*
X127675644Y-96350966D01*
X127633105Y-96363060D01*
X127612775Y-96366763D01*
X127608618Y-96361837D01*
X127605202Y-96345304D01*
X127602469Y-96315250D01*
X127600356Y-96269761D01*
X127598805Y-96206925D01*
X127597753Y-96124828D01*
X127597141Y-96021556D01*
X127597029Y-95960568D01*
X127406098Y-95960568D01*
X127406038Y-96008155D01*
X127405513Y-96125647D01*
X127404522Y-96219808D01*
X127402979Y-96292702D01*
X127400798Y-96346396D01*
X127397893Y-96382955D01*
X127394180Y-96404445D01*
X127389572Y-96412931D01*
X127389244Y-96413080D01*
X127353860Y-96421473D01*
X127297905Y-96428532D01*
X127226180Y-96434127D01*
X127143484Y-96438131D01*
X127054618Y-96440414D01*
X126964382Y-96440848D01*
X126877577Y-96439303D01*
X126799004Y-96435651D01*
X126739743Y-96430508D01*
X126501937Y-96391606D01*
X126269459Y-96330538D01*
X126046883Y-96248643D01*
X125920500Y-96190321D01*
X125774450Y-96117334D01*
X125772622Y-95818010D01*
X125575292Y-95818010D01*
X125574549Y-95885760D01*
X125572578Y-95936146D01*
X125569481Y-95966290D01*
X125566321Y-95973900D01*
X125550982Y-95966576D01*
X125522209Y-95947386D01*
X125486666Y-95920819D01*
X125367311Y-95821677D01*
X125257941Y-95719583D01*
X125165033Y-95620612D01*
X125158261Y-95612724D01*
X125122938Y-95570541D01*
X125094267Y-95534943D01*
X125076042Y-95510717D01*
X125071626Y-95503432D01*
X125082346Y-95498782D01*
X125117632Y-95495574D01*
X125176690Y-95493837D01*
X125258726Y-95493602D01*
X125319276Y-95494202D01*
X125571250Y-95497650D01*
X125574706Y-95735775D01*
X125575292Y-95818010D01*
X125772622Y-95818010D01*
X125771139Y-95575409D01*
X125767831Y-95034100D01*
X125578875Y-95034100D01*
X125572885Y-95288100D01*
X125241868Y-95288096D01*
X124910850Y-95288093D01*
X124844175Y-95169579D01*
X124816896Y-95120344D01*
X124795013Y-95079426D01*
X124781121Y-95051768D01*
X124777500Y-95042582D01*
X124789696Y-95040508D01*
X124824264Y-95038618D01*
X124878178Y-95036975D01*
X124948410Y-95035643D01*
X125031934Y-95034688D01*
X125125723Y-95034172D01*
X125178188Y-95034100D01*
X125578875Y-95034100D01*
X125767831Y-95034100D01*
X125767827Y-95033484D01*
X125978088Y-95036967D01*
X126188348Y-95040450D01*
X126187503Y-95551625D01*
X126186659Y-96062800D01*
X127102669Y-96062800D01*
X127098960Y-95964375D01*
X127095250Y-95865950D01*
X126390400Y-95859198D01*
X126390400Y-95567500D01*
X126890692Y-95567500D01*
X127017344Y-95567578D01*
X127120931Y-95567878D01*
X127203788Y-95568494D01*
X127268250Y-95569524D01*
X127316650Y-95571062D01*
X127351324Y-95573206D01*
X127374606Y-95576050D01*
X127388830Y-95579691D01*
X127396333Y-95584225D01*
X127399002Y-95588398D01*
X127400948Y-95605883D01*
X127402662Y-95645518D01*
X127404088Y-95704053D01*
X127405172Y-95778239D01*
X127405860Y-95864827D01*
X127406098Y-95960568D01*
X127597029Y-95960568D01*
X127596907Y-95895196D01*
X127596900Y-95865950D01*
X127596900Y-95364300D01*
X126390400Y-95364300D01*
X126390400Y-95034100D01*
X127488950Y-95033586D01*
X127406400Y-94957171D01*
X127366087Y-94920612D01*
X127338373Y-94898742D01*
X127317603Y-94888586D01*
X127298122Y-94887172D01*
X127279400Y-94890394D01*
X127246196Y-94894769D01*
X127196609Y-94897999D01*
X127139651Y-94899561D01*
X127120650Y-94899620D01*
X127060851Y-94898308D01*
X127017366Y-94893728D01*
X126981158Y-94884146D01*
X126943188Y-94867828D01*
X126935636Y-94864124D01*
X126890059Y-94837427D01*
X126837534Y-94800636D01*
X126789155Y-94761544D01*
X126787550Y-94760120D01*
X126710178Y-94691200D01*
X124638780Y-94691200D01*
X124626050Y-94643575D01*
X124572221Y-94394707D01*
X124543294Y-94145258D01*
X124539156Y-93896601D01*
X124559695Y-93650108D01*
X124604800Y-93407153D01*
X124674359Y-93169109D01*
X124764426Y-92945639D01*
X124816723Y-92832029D01*
X125048625Y-93063676D01*
X125280527Y-93295324D01*
X125393368Y-93243437D01*
X125506209Y-93191551D01*
X126249930Y-93933360D01*
X126383342Y-94066379D01*
X126500038Y-94182582D01*
X126601251Y-94283128D01*
X126688211Y-94369175D01*
X126762150Y-94441882D01*
X126824298Y-94502409D01*
X126875887Y-94551913D01*
X126918147Y-94591554D01*
X126952310Y-94622491D01*
X126979607Y-94645882D01*
X127001268Y-94662887D01*
X127018526Y-94674663D01*
X127032610Y-94682370D01*
X127044753Y-94687167D01*
X127053249Y-94689534D01*
X127093641Y-94698141D01*
X127126587Y-94703231D01*
X127135799Y-94703829D01*
X127186651Y-94695921D01*
X127244753Y-94675239D01*
X127298426Y-94645946D01*
X127298631Y-94645807D01*
X127346272Y-94613477D01*
X127385861Y-94649158D01*
X127407772Y-94669606D01*
X127443994Y-94704194D01*
X127490723Y-94749256D01*
X127544155Y-94801126D01*
X127591613Y-94847450D01*
X127672421Y-94924043D01*
X127751349Y-94993082D01*
X127835344Y-95060252D01*
X127931350Y-95131235D01*
X127983453Y-95168130D01*
X128051278Y-95214763D01*
X128113558Y-95255944D01*
X128166840Y-95289520D01*
X128207671Y-95313338D01*
X128232594Y-95325244D01*
X128237025Y-95326200D01*
X128272787Y-95315958D01*
X128292869Y-95288539D01*
X128295400Y-95270986D01*
X128288368Y-95253679D01*
X128268684Y-95219078D01*
X128238471Y-95170550D01*
X128199851Y-95111462D01*
X128154946Y-95045182D01*
X128134960Y-95016351D01*
X128073267Y-94929266D01*
X128019242Y-94856630D01*
X127967636Y-94792163D01*
X127913201Y-94729584D01*
X127850688Y-94662614D01*
X127774850Y-94584973D01*
X127772201Y-94582300D01*
X127706782Y-94515990D01*
X127657579Y-94465181D01*
X127622700Y-94427565D01*
X127600253Y-94400834D01*
X127588344Y-94382679D01*
X127585082Y-94370792D01*
X127588572Y-94362865D01*
X127590671Y-94360900D01*
X127616155Y-94329953D01*
X127641022Y-94283811D01*
X127660426Y-94232326D01*
X127666903Y-94205905D01*
X127667696Y-94165213D01*
X127444500Y-94165213D01*
X127435916Y-94181039D01*
X127412585Y-94210526D01*
X127378141Y-94249915D01*
X127336218Y-94295447D01*
X127290448Y-94343360D01*
X127244465Y-94389897D01*
X127201902Y-94431297D01*
X127166393Y-94463801D01*
X127141571Y-94483649D01*
X127132557Y-94488000D01*
X127121719Y-94479275D01*
X127094636Y-94454197D01*
X127052990Y-94414407D01*
X126998461Y-94361545D01*
X126932731Y-94297254D01*
X126857480Y-94223173D01*
X126774391Y-94140946D01*
X126685143Y-94052212D01*
X126636162Y-94003349D01*
X126150908Y-93518698D01*
X126191279Y-93498524D01*
X126222384Y-93471941D01*
X126236273Y-93436826D01*
X126234157Y-93399988D01*
X126217246Y-93368237D01*
X126186748Y-93348383D01*
X126164007Y-93345000D01*
X126127324Y-93354411D01*
X126098360Y-93377891D01*
X126085660Y-93408307D01*
X126085600Y-93410468D01*
X126081226Y-93430030D01*
X126075905Y-93433900D01*
X126064352Y-93425313D01*
X126037854Y-93401381D01*
X125999303Y-93364848D01*
X125951585Y-93318456D01*
X125897590Y-93264948D01*
X125890335Y-93257687D01*
X125714460Y-93081474D01*
X125769855Y-93043147D01*
X125804120Y-93016140D01*
X125847244Y-92977457D01*
X125894288Y-92932099D01*
X125940313Y-92885065D01*
X125980379Y-92841356D01*
X126001200Y-92816097D01*
X125347931Y-92816097D01*
X125326205Y-92858192D01*
X125281681Y-92910589D01*
X125276373Y-92916006D01*
X125241848Y-92950021D01*
X125214172Y-92975665D01*
X125198054Y-92988628D01*
X125196199Y-92989400D01*
X125183523Y-92981061D01*
X125160880Y-92960186D01*
X125151971Y-92951112D01*
X125115289Y-92912824D01*
X125184520Y-92842225D01*
X125229768Y-92797490D01*
X125262480Y-92769540D01*
X125286760Y-92755973D01*
X125306714Y-92754385D01*
X125323600Y-92760800D01*
X125347012Y-92783800D01*
X125347931Y-92816097D01*
X126001200Y-92816097D01*
X126009548Y-92805970D01*
X126020553Y-92789375D01*
X126035998Y-92767734D01*
X126047100Y-92760800D01*
X126059227Y-92769185D01*
X126085804Y-92792114D01*
X126123346Y-92826245D01*
X126168372Y-92868237D01*
X126217396Y-92914747D01*
X126266934Y-92962434D01*
X126313505Y-93007956D01*
X126353623Y-93047973D01*
X126383804Y-93079141D01*
X126400566Y-93098120D01*
X126402826Y-93102018D01*
X126392322Y-93112127D01*
X126366860Y-93126566D01*
X126361551Y-93129100D01*
X126328946Y-93155373D01*
X126314526Y-93190499D01*
X126318276Y-93227069D01*
X126340183Y-93257672D01*
X126361820Y-93270005D01*
X126406046Y-93275130D01*
X126444000Y-93257030D01*
X126470992Y-93218366D01*
X126486850Y-93180651D01*
X126965675Y-93660088D01*
X127085850Y-93780908D01*
X127189108Y-93885764D01*
X127275217Y-93974409D01*
X127343943Y-94046600D01*
X127395054Y-94102089D01*
X127428317Y-94140631D01*
X127443498Y-94161980D01*
X127444500Y-94165213D01*
X127667696Y-94165213D01*
X127667920Y-94153756D01*
X127655350Y-94090539D01*
X127655343Y-94090517D01*
X127651212Y-94077551D01*
X127645759Y-94064376D01*
X127637810Y-94049734D01*
X127626192Y-94032371D01*
X127609734Y-94011031D01*
X127587263Y-93984458D01*
X127557605Y-93951396D01*
X127519588Y-93910590D01*
X127472039Y-93860783D01*
X127413786Y-93800720D01*
X127343655Y-93729145D01*
X127260475Y-93644802D01*
X127163073Y-93546436D01*
X127050275Y-93432791D01*
X126920909Y-93302611D01*
X126898541Y-93280110D01*
X126763117Y-93143764D01*
X126644689Y-93024242D01*
X126542233Y-92920467D01*
X126454724Y-92831362D01*
X126381140Y-92755849D01*
X126320455Y-92692850D01*
X126271647Y-92641290D01*
X126233691Y-92600090D01*
X126215901Y-92579903D01*
X125120400Y-92579903D01*
X125113272Y-92606710D01*
X125090278Y-92640938D01*
X125049005Y-92686160D01*
X125047773Y-92687406D01*
X125013472Y-92721383D01*
X124986304Y-92747016D01*
X124970867Y-92760009D01*
X124969217Y-92760800D01*
X124956824Y-92753023D01*
X124934984Y-92734205D01*
X124933894Y-92733186D01*
X124913226Y-92709274D01*
X124904502Y-92690255D01*
X124904500Y-92690109D01*
X124912841Y-92672685D01*
X124934347Y-92643717D01*
X124963745Y-92609132D01*
X124995764Y-92574858D01*
X125025131Y-92546820D01*
X125045695Y-92531400D01*
X125078267Y-92525713D01*
X125105468Y-92540426D01*
X125119739Y-92570630D01*
X125120400Y-92579903D01*
X126215901Y-92579903D01*
X126205564Y-92568174D01*
X126186241Y-92544463D01*
X126174699Y-92527881D01*
X126169914Y-92517350D01*
X126169876Y-92513438D01*
X126179377Y-92489603D01*
X126196824Y-92451262D01*
X126218535Y-92406490D01*
X126219701Y-92404157D01*
X126261572Y-92320565D01*
X126169220Y-92228314D01*
X125964950Y-92228314D01*
X125880617Y-92310407D01*
X125841936Y-92346443D01*
X125808736Y-92374428D01*
X125785950Y-92390334D01*
X125780017Y-92392500D01*
X125758587Y-92384591D01*
X125740526Y-92371481D01*
X125723579Y-92351137D01*
X125720264Y-92329599D01*
X125732163Y-92303028D01*
X125760857Y-92267584D01*
X125799912Y-92227338D01*
X125882524Y-92145461D01*
X125923737Y-92186888D01*
X125964950Y-92228314D01*
X126169220Y-92228314D01*
X126027504Y-92086754D01*
X125964800Y-92023565D01*
X125941570Y-91999714D01*
X125736350Y-91999714D01*
X125652017Y-92081807D01*
X125613336Y-92117843D01*
X125580136Y-92145828D01*
X125557350Y-92161734D01*
X125551417Y-92163900D01*
X125529987Y-92155991D01*
X125511926Y-92142881D01*
X125494979Y-92122537D01*
X125491664Y-92100999D01*
X125503563Y-92074428D01*
X125532257Y-92038984D01*
X125571312Y-91998738D01*
X125653924Y-91916861D01*
X125695137Y-91958288D01*
X125736350Y-91999714D01*
X125941570Y-91999714D01*
X125908725Y-91965991D01*
X125861610Y-91916513D01*
X125825786Y-91877612D01*
X125803585Y-91851770D01*
X125797196Y-91841662D01*
X125811668Y-91827646D01*
X125846100Y-91806341D01*
X125896765Y-91779623D01*
X125959936Y-91749371D01*
X126031885Y-91717460D01*
X126098890Y-91689742D01*
X126269962Y-91627479D01*
X126435018Y-91580867D01*
X126601996Y-91548261D01*
X126778836Y-91528016D01*
X126917450Y-91520144D01*
X127165979Y-91523376D01*
X127410285Y-91551086D01*
X127648801Y-91602864D01*
X127879962Y-91678301D01*
X128102202Y-91776988D01*
X128278263Y-91875951D01*
X128486207Y-92019164D01*
X128675766Y-92178923D01*
X128846362Y-92353772D01*
X128997417Y-92542259D01*
X129128355Y-92742928D01*
X129238597Y-92954325D01*
X129327566Y-93174996D01*
X129394685Y-93403486D01*
X129439376Y-93638341D01*
X129461061Y-93878107D01*
X130243262Y-93878107D01*
X130242487Y-93830128D01*
X130233555Y-93674951D01*
X130218317Y-93534987D01*
X130214605Y-93510100D01*
X130175185Y-93294489D01*
X130126353Y-93095486D01*
X130065661Y-92905271D01*
X129990661Y-92716026D01*
X129914400Y-92551250D01*
X129778131Y-92301070D01*
X129623218Y-92067178D01*
X129450976Y-91850145D01*
X129262715Y-91650544D01*
X129059748Y-91468945D01*
X128843387Y-91305922D01*
X128614944Y-91162046D01*
X128375732Y-91037890D01*
X128127063Y-90934025D01*
X127870249Y-90851023D01*
X127606602Y-90789457D01*
X127337434Y-90749898D01*
X127064057Y-90732919D01*
X126787785Y-90739092D01*
G04 #@! TD*
M02*
