G04 #@! TF.GenerationSoftware,KiCad,Pcbnew,(5.0.0)*
G04 #@! TF.CreationDate,2018-09-21T23:18:56-03:00*
G04 #@! TF.ProjectId,Franzininho,4672616E7A696E696E686F2E6B696361,rev?*
G04 #@! TF.SameCoordinates,Original*
G04 #@! TF.FileFunction,Copper,L2,Bot,Signal*
G04 #@! TF.FilePolarity,Positive*
%FSLAX46Y46*%
G04 Gerber Fmt 4.6, Leading zero omitted, Abs format (unit mm)*
G04 Created by KiCad (PCBNEW (5.0.0)) date 09/21/18 23:18:56*
%MOMM*%
%LPD*%
G01*
G04 APERTURE LIST*
G04 #@! TA.AperFunction,ComponentPad*
%ADD10C,1.676400*%
G04 #@! TD*
G04 #@! TA.AperFunction,ComponentPad*
%ADD11C,3.000000*%
G04 #@! TD*
G04 #@! TA.AperFunction,ComponentPad*
%ADD12C,1.100000*%
G04 #@! TD*
G04 #@! TA.AperFunction,ComponentPad*
%ADD13C,3.216000*%
G04 #@! TD*
G04 #@! TA.AperFunction,ComponentPad*
%ADD14C,1.879600*%
G04 #@! TD*
G04 #@! TA.AperFunction,ComponentPad*
%ADD15O,3.048000X1.524000*%
G04 #@! TD*
G04 #@! TA.AperFunction,ComponentPad*
%ADD16O,1.520000X3.000000*%
G04 #@! TD*
G04 #@! TA.AperFunction,ComponentPad*
%ADD17O,1.600000X2.400000*%
G04 #@! TD*
G04 #@! TA.AperFunction,ComponentPad*
%ADD18R,1.600000X2.400000*%
G04 #@! TD*
G04 #@! TA.AperFunction,ComponentPad*
%ADD19C,1.600000*%
G04 #@! TD*
G04 #@! TA.AperFunction,ComponentPad*
%ADD20R,1.600000X1.600000*%
G04 #@! TD*
G04 #@! TA.AperFunction,Conductor*
%ADD21C,0.406400*%
G04 #@! TD*
G04 #@! TA.AperFunction,Conductor*
%ADD22C,0.812800*%
G04 #@! TD*
G04 #@! TA.AperFunction,Conductor*
%ADD23C,0.508000*%
G04 #@! TD*
G04 #@! TA.AperFunction,Conductor*
%ADD24C,1.016000*%
G04 #@! TD*
G04 #@! TA.AperFunction,Conductor*
%ADD25C,0.609600*%
G04 #@! TD*
G04 #@! TA.AperFunction,Conductor*
%ADD26C,0.025400*%
G04 #@! TD*
G04 APERTURE END LIST*
D10*
G04 #@! TO.P,ON,K*
G04 #@! TO.N,Net-(ON1-PadK)*
X144272000Y-114808000D03*
G04 #@! TO.P,ON,A*
G04 #@! TO.N,5V*
X144272000Y-117348000D03*
G04 #@! TD*
D11*
G04 #@! TO.P,@HOLE0,*
G04 #@! TO.N,*
X132562350Y-92436100D03*
G04 #@! TD*
G04 #@! TO.P,@HOLE1,*
G04 #@! TO.N,*
X171562350Y-92436100D03*
G04 #@! TD*
G04 #@! TO.P,@HOLE2,*
G04 #@! TO.N,*
X171562350Y-117436100D03*
G04 #@! TD*
G04 #@! TO.P,@HOLE3,*
G04 #@! TO.N,*
X132562350Y-117436100D03*
G04 #@! TD*
D12*
G04 #@! TO.P,X1,*
G04 #@! TO.N,*
X125852350Y-107268600D03*
X125852350Y-102768600D03*
D13*
G04 #@! TO.P,X1,GND3*
G04 #@! TO.N,N/C*
X125952350Y-99218600D03*
G04 #@! TO.P,X1,GND2*
X125952350Y-110818600D03*
D14*
G04 #@! TO.P,X1,VBUS*
G04 #@! TO.N,Net-(D3-PadA)*
X128352350Y-108518600D03*
G04 #@! TO.P,X1,D-*
G04 #@! TO.N,Net-(D1-PadC)*
X128352350Y-106145600D03*
G04 #@! TO.P,X1,D+*
G04 #@! TO.N,Net-(D2-PadC)*
X128352350Y-103891600D03*
G04 #@! TO.P,X1,GND*
G04 #@! TO.N,GND*
X128352350Y-101518600D03*
G04 #@! TD*
G04 #@! TO.P,D2,C*
G04 #@! TO.N,Net-(D2-PadC)*
X132435850Y-109814100D03*
G04 #@! TO.P,D2,A*
G04 #@! TO.N,GND*
X140055850Y-109814100D03*
G04 #@! TD*
G04 #@! TO.P,D1,C*
G04 #@! TO.N,Net-(D1-PadC)*
X132336850Y-100452100D03*
G04 #@! TO.P,D1,A*
G04 #@! TO.N,GND*
X139956850Y-100452100D03*
G04 #@! TD*
D10*
G04 #@! TO.P,C1,2*
G04 #@! TO.N,GND*
X146685000Y-97790000D03*
G04 #@! TO.P,C1,1*
G04 #@! TO.N,5V*
X144145000Y-97790000D03*
G04 #@! TD*
D14*
G04 #@! TO.P,R1,P$2*
G04 #@! TO.N,Net-(IC1-Pad2)*
X141342350Y-103928100D03*
G04 #@! TO.P,R1,P$1*
G04 #@! TO.N,Net-(D1-PadC)*
X131182350Y-103928100D03*
G04 #@! TD*
G04 #@! TO.P,R2,P$2*
G04 #@! TO.N,Net-(IC1-Pad3)*
X141404850Y-106893100D03*
G04 #@! TO.P,R2,P$1*
G04 #@! TO.N,Net-(D2-PadC)*
X131244850Y-106893100D03*
G04 #@! TD*
G04 #@! TO.P,R3,P$2*
G04 #@! TO.N,Net-(D1-PadC)*
X131244850Y-112776000D03*
G04 #@! TO.P,R3,P$1*
G04 #@! TO.N,5V*
X141404850Y-112776000D03*
G04 #@! TD*
D10*
G04 #@! TO.P,LED,K*
G04 #@! TO.N,Net-(LED1-PadK)*
X149352000Y-114808000D03*
G04 #@! TO.P,LED,A*
G04 #@! TO.N,Net-(IC1-Pad6)*
X149352000Y-117348000D03*
G04 #@! TD*
D14*
G04 #@! TO.P,R5,P$2*
G04 #@! TO.N,Net-(LED1-PadK)*
X147485850Y-110703100D03*
G04 #@! TO.P,R5,P$1*
G04 #@! TO.N,GND*
X147485850Y-100543100D03*
G04 #@! TD*
G04 #@! TO.P,D3,C*
G04 #@! TO.N,5V*
X140126450Y-97610500D03*
G04 #@! TO.P,D3,A*
G04 #@! TO.N,Net-(D3-PadA)*
X132506450Y-97610500D03*
G04 #@! TD*
G04 #@! TO.P,R4,P$2*
G04 #@! TO.N,Net-(ON1-PadK)*
X144320850Y-110703100D03*
G04 #@! TO.P,R4,P$1*
G04 #@! TO.N,GND*
X144320850Y-100543100D03*
G04 #@! TD*
G04 #@! TO.P,JP3,8*
G04 #@! TO.N,GND*
X168879850Y-95981100D03*
G04 #@! TO.P,JP3,7*
G04 #@! TO.N,5V*
X168879850Y-98521100D03*
G04 #@! TO.P,JP3,6*
G04 #@! TO.N,Net-(IC1-Pad3)*
X168879850Y-101061100D03*
G04 #@! TO.P,JP3,5*
G04 #@! TO.N,Net-(IC1-Pad1)*
X168879850Y-103601100D03*
G04 #@! TO.P,JP3,4*
G04 #@! TO.N,Net-(IC1-Pad2)*
X168879850Y-106141100D03*
G04 #@! TO.P,JP3,3*
G04 #@! TO.N,Net-(IC1-Pad7)*
X168879850Y-108681100D03*
G04 #@! TO.P,JP3,2*
G04 #@! TO.N,Net-(IC1-Pad6)*
X168879850Y-111221100D03*
G04 #@! TO.P,JP3,1*
G04 #@! TO.N,Net-(IC1-Pad5)*
X168879850Y-113761100D03*
G04 #@! TD*
G04 #@! TO.P,J1,3*
G04 #@! TO.N,Net-(J1-Pad3)*
X143812350Y-91976100D03*
G04 #@! TO.P,J1,2*
G04 #@! TO.N,GND*
X146352350Y-91976100D03*
G04 #@! TO.P,J1,1*
G04 #@! TO.N,5V*
X148892350Y-91976100D03*
G04 #@! TD*
D15*
G04 #@! TO.P,RESET,1*
G04 #@! TO.N,Net-(IC1-Pad1)*
X163779200Y-96494600D03*
G04 #@! TO.P,RESET,2*
X157276800Y-96494600D03*
G04 #@! TO.P,RESET,3*
G04 #@! TO.N,GND*
X163779200Y-91973400D03*
G04 #@! TO.P,RESET,4*
X157276800Y-91973400D03*
G04 #@! TD*
D16*
G04 #@! TO.P,U1,1*
G04 #@! TO.N,5V*
X135890000Y-93345000D03*
G04 #@! TO.P,U1,3*
G04 #@! TO.N,Net-(J1-Pad3)*
X140970000Y-93345000D03*
G04 #@! TO.P,U1,2*
G04 #@! TO.N,GND*
X138430000Y-93345000D03*
G04 #@! TD*
D17*
G04 #@! TO.P,IC1,8*
G04 #@! TO.N,5V*
X164084000Y-108712000D03*
G04 #@! TO.P,IC1,4*
G04 #@! TO.N,GND*
X156464000Y-101092000D03*
G04 #@! TO.P,IC1,7*
G04 #@! TO.N,Net-(IC1-Pad7)*
X161544000Y-108712000D03*
G04 #@! TO.P,IC1,3*
G04 #@! TO.N,Net-(IC1-Pad3)*
X159004000Y-101092000D03*
G04 #@! TO.P,IC1,6*
G04 #@! TO.N,Net-(IC1-Pad6)*
X159004000Y-108712000D03*
G04 #@! TO.P,IC1,2*
G04 #@! TO.N,Net-(IC1-Pad2)*
X161544000Y-101092000D03*
G04 #@! TO.P,IC1,5*
G04 #@! TO.N,Net-(IC1-Pad5)*
X156464000Y-108712000D03*
D18*
G04 #@! TO.P,IC1,1*
G04 #@! TO.N,Net-(IC1-Pad1)*
X164084000Y-101092000D03*
G04 #@! TD*
D19*
G04 #@! TO.P,C2,2*
G04 #@! TO.N,N/C*
X151892000Y-99782000D03*
D20*
G04 #@! TO.P,C2,1*
X151892000Y-97282000D03*
G04 #@! TD*
D21*
G04 #@! TO.N,5V*
X140126450Y-97610500D02*
X140082950Y-97610500D01*
X140082950Y-97610500D02*
X140002350Y-97691100D01*
X169233600Y-98643600D02*
X168879850Y-98521100D01*
D22*
X163814850Y-108646000D02*
X163993950Y-108825100D01*
X168757350Y-98643600D02*
X168879850Y-98521100D01*
X148892350Y-91976100D02*
X151114850Y-91976100D01*
X151114850Y-91976100D02*
X151749850Y-92611100D01*
X151749850Y-92611100D02*
X151749850Y-97151350D01*
X148892350Y-91976100D02*
X148892350Y-93246100D01*
X148892350Y-93246100D02*
X146987350Y-95151100D01*
X146987350Y-95151100D02*
X142585850Y-95151100D01*
X142585850Y-95151100D02*
X140126450Y-97610500D01*
X144101250Y-97663000D02*
X140253350Y-97663000D01*
X140253350Y-97483600D02*
X140126450Y-97610500D01*
X138797373Y-97610500D02*
X140126450Y-97610500D01*
X137842700Y-97610500D02*
X138797373Y-97610500D01*
X135890000Y-95657800D02*
X137842700Y-97610500D01*
X135890000Y-93345000D02*
X135890000Y-95657800D01*
D23*
X142344649Y-111836201D02*
X141404850Y-112776000D01*
X142344649Y-109623351D02*
X142344649Y-111836201D01*
X146304000Y-105664000D02*
X142344649Y-109623351D01*
X161436000Y-105664000D02*
X146304000Y-105664000D01*
X164084000Y-108312000D02*
X161436000Y-105664000D01*
X164084000Y-108712000D02*
X164084000Y-108312000D01*
X154330621Y-94570579D02*
X152638849Y-96262351D01*
X152638849Y-96262351D02*
X151749850Y-97151350D01*
X160996733Y-94287989D02*
X160714143Y-94570579D01*
X165901267Y-94287989D02*
X160996733Y-94287989D01*
X160714143Y-94570579D02*
X154330621Y-94570579D01*
X167550773Y-98521100D02*
X166878000Y-97848327D01*
X168879850Y-98521100D02*
X167550773Y-98521100D01*
X166878000Y-95264722D02*
X165901267Y-94287989D01*
X166878000Y-97848327D02*
X166878000Y-95264722D01*
X142240000Y-117348000D02*
X144272000Y-117348000D01*
X141404850Y-112776000D02*
X141404850Y-116512850D01*
X141404850Y-116512850D02*
X142240000Y-117348000D01*
D24*
X169002350Y-98643600D02*
X168879850Y-98521100D01*
D23*
X144272000Y-117348000D02*
X146812000Y-117348000D01*
X166360749Y-118640201D02*
X171434850Y-113566100D01*
X148104201Y-118640201D02*
X166360749Y-118640201D01*
X146812000Y-117348000D02*
X148104201Y-118640201D01*
X168879850Y-98521100D02*
X170657100Y-98521100D01*
X171434850Y-99298850D02*
X171434850Y-113566100D01*
X170657100Y-98521100D02*
X171434850Y-99298850D01*
G04 #@! TO.N,Net-(D3-PadA)*
X137160000Y-100934973D02*
X133835527Y-97610500D01*
X137160000Y-113538000D02*
X137160000Y-100934973D01*
X133835527Y-97610500D02*
X132506450Y-97610500D01*
X128352350Y-108518600D02*
X128352350Y-112604350D01*
X128352350Y-112604350D02*
X130556000Y-114808000D01*
X135890000Y-114808000D02*
X137160000Y-113538000D01*
X130556000Y-114808000D02*
X135890000Y-114808000D01*
G04 #@! TO.N,Net-(D1-PadC)*
X129292149Y-107085399D02*
X128352350Y-106145600D01*
X129851049Y-107644299D02*
X129292149Y-107085399D01*
X129851049Y-111382199D02*
X129851049Y-107644299D01*
X131244850Y-112776000D02*
X129851049Y-111382199D01*
X132573927Y-112776000D02*
X134620000Y-110729927D01*
X131244850Y-112776000D02*
X132573927Y-112776000D01*
X134620000Y-106036673D02*
X134620000Y-110729927D01*
X132511427Y-103928100D02*
X134620000Y-106036673D01*
X131182350Y-103928100D02*
X132511427Y-103928100D01*
X132336850Y-102773600D02*
X131182350Y-103928100D01*
X132336850Y-100452100D02*
X132336850Y-102773600D01*
D25*
G04 #@! TO.N,Net-(D2-PadC)*
X131244850Y-106893100D02*
X131244850Y-107031100D01*
D24*
X132382350Y-107216100D02*
X132382350Y-109760600D01*
D25*
X132382350Y-109760600D02*
X132435850Y-109814100D01*
D24*
X132382350Y-107216100D02*
X132064850Y-106898600D01*
X132064850Y-106898600D02*
X131250350Y-106898600D01*
X131250350Y-106898600D02*
X131244850Y-106893100D01*
D23*
X128783600Y-103891600D02*
X128352350Y-103891600D01*
X129794000Y-104902000D02*
X128783600Y-103891600D01*
X129794000Y-105156000D02*
X129794000Y-104902000D01*
X130048000Y-105410000D02*
X129794000Y-105156000D01*
X131244850Y-106893100D02*
X130048000Y-105696250D01*
X130048000Y-105696250D02*
X130048000Y-105410000D01*
G04 #@! TO.N,Net-(IC1-Pad7)*
X161544000Y-109112000D02*
X161544000Y-108712000D01*
X167550773Y-108681100D02*
X168879850Y-108681100D01*
X165487873Y-110744000D02*
X167550773Y-108681100D01*
X161868000Y-110744000D02*
X165487873Y-110744000D01*
X161544000Y-110420000D02*
X161868000Y-110744000D01*
X161544000Y-108712000D02*
X161544000Y-110420000D01*
D21*
G04 #@! TO.N,Net-(IC1-Pad6)*
X158893600Y-108804750D02*
X158913950Y-108825100D01*
D24*
X158913950Y-108825100D02*
X158913950Y-110728950D01*
X158913950Y-110728950D02*
X160322350Y-112137350D01*
X160322350Y-112137350D02*
X166831100Y-112137350D01*
X166831100Y-112137350D02*
X167783600Y-111184850D01*
X167783600Y-111184850D02*
X168843600Y-111184850D01*
X168843600Y-111184850D02*
X168879850Y-111221100D01*
D23*
X150537393Y-117348000D02*
X149352000Y-117348000D01*
X159004000Y-107004000D02*
X158426000Y-106426000D01*
X159004000Y-108712000D02*
X159004000Y-107004000D01*
X154940000Y-106426000D02*
X153972350Y-107393650D01*
X153972350Y-107393650D02*
X153972350Y-113913043D01*
X158426000Y-106426000D02*
X154940000Y-106426000D01*
X153972350Y-113913043D02*
X150537393Y-117348000D01*
D24*
G04 #@! TO.N,Net-(IC1-Pad5)*
X156373950Y-108825100D02*
X156373950Y-111522700D01*
X168879850Y-113761100D02*
X158612350Y-113761100D01*
X158612350Y-113761100D02*
X156373950Y-111522700D01*
D21*
G04 #@! TO.N,Net-(IC1-Pad3)*
X159052350Y-101343500D02*
X158913950Y-101205100D01*
D25*
X141399350Y-106898600D02*
X141404850Y-106893100D01*
D22*
X168757350Y-101183600D02*
X168879850Y-101061100D01*
X168684850Y-100866100D02*
X168879850Y-101061100D01*
D23*
X158913950Y-102706050D02*
X158913950Y-101205100D01*
X158115000Y-103505000D02*
X158913950Y-102706050D01*
X154940000Y-103505000D02*
X158115000Y-103505000D01*
X153957701Y-102522701D02*
X154940000Y-103505000D01*
X142875000Y-102870000D02*
X147320000Y-102870000D01*
X140075773Y-106893100D02*
X139065000Y-105882327D01*
X147667299Y-102522701D02*
X153957701Y-102522701D01*
X139065000Y-105882327D02*
X139065000Y-102870000D01*
X139700000Y-102235000D02*
X142240000Y-102235000D01*
X147320000Y-102870000D02*
X147667299Y-102522701D01*
X141404850Y-106893100D02*
X140075773Y-106893100D01*
X139065000Y-102870000D02*
X139700000Y-102235000D01*
X142240000Y-102235000D02*
X142875000Y-102870000D01*
X168879850Y-101061100D02*
X166169989Y-98351239D01*
X160510103Y-97282000D02*
X159004000Y-98788103D01*
X159004000Y-98788103D02*
X159004000Y-99384000D01*
X159004000Y-99384000D02*
X159004000Y-101092000D01*
X161544000Y-94996000D02*
X160510103Y-96029897D01*
X165354000Y-94996000D02*
X161544000Y-94996000D01*
X166169989Y-95811989D02*
X165354000Y-94996000D01*
X166169989Y-98351239D02*
X166169989Y-95811989D01*
X160510103Y-96029897D02*
X160510103Y-97282000D01*
D22*
G04 #@! TO.N,Net-(IC1-Pad2)*
X161592350Y-101343500D02*
X161453950Y-101205100D01*
D23*
X141342350Y-103928100D02*
X147531900Y-103928100D01*
X147531900Y-103928100D02*
X148082000Y-103378000D01*
X148082000Y-103378000D02*
X153416000Y-103378000D01*
X153416000Y-103378000D02*
X154432000Y-104394000D01*
X154432000Y-104394000D02*
X160604450Y-104394000D01*
X161453950Y-101205100D02*
X161453950Y-103544500D01*
X161453950Y-103544500D02*
X160604450Y-104394000D01*
X167550773Y-106141100D02*
X166565673Y-105156000D01*
X168879850Y-106141100D02*
X167550773Y-106141100D01*
X163065450Y-105156000D02*
X161453950Y-103544500D01*
X166565673Y-105156000D02*
X163065450Y-105156000D01*
D22*
G04 #@! TO.N,Net-(IC1-Pad1)*
X164132350Y-101343500D02*
X164132350Y-102136100D01*
X164132350Y-102136100D02*
X165719850Y-103723600D01*
X165719850Y-103723600D02*
X168757350Y-103723600D01*
D25*
X168757350Y-103723600D02*
X168879850Y-103601100D01*
X163993950Y-101205100D02*
X164132350Y-101343500D01*
D22*
X164132350Y-101066700D02*
X163993950Y-101205100D01*
D23*
X163779200Y-100787200D02*
X164084000Y-101092000D01*
X163779200Y-96494600D02*
X163779200Y-100787200D01*
G04 #@! TO.N,Net-(LED1-PadK)*
X147485850Y-112941850D02*
X149352000Y-114808000D01*
X147485850Y-110703100D02*
X147485850Y-112941850D01*
D22*
G04 #@! TO.N,Net-(ON1-PadK)*
X144320850Y-110703100D02*
X144441850Y-110703100D01*
D23*
X144320850Y-114759150D02*
X144272000Y-114808000D01*
X144320850Y-110703100D02*
X144320850Y-114759150D01*
D22*
G04 #@! TO.N,Net-(J1-Pad3)*
X142338900Y-91976100D02*
X140970000Y-93345000D01*
X143812350Y-91976100D02*
X142338900Y-91976100D01*
G04 #@! TD*
D26*
G04 #@! TO.N,GND*
G36*
X173540750Y-119524500D02*
X123461450Y-119524500D01*
X123461450Y-117247085D01*
X130643250Y-117247085D01*
X130643250Y-117625115D01*
X130717000Y-117995881D01*
X130861665Y-118345135D01*
X131071687Y-118659455D01*
X131338995Y-118926763D01*
X131653315Y-119136785D01*
X132002569Y-119281450D01*
X132373335Y-119355200D01*
X132751365Y-119355200D01*
X133122131Y-119281450D01*
X133471385Y-119136785D01*
X133785705Y-118926763D01*
X134053013Y-118659455D01*
X134263035Y-118345135D01*
X134407700Y-117995881D01*
X134481450Y-117625115D01*
X134481450Y-117247085D01*
X134407700Y-116876319D01*
X134263035Y-116527065D01*
X134053013Y-116212745D01*
X133785705Y-115945437D01*
X133471385Y-115735415D01*
X133122131Y-115590750D01*
X132751365Y-115517000D01*
X132373335Y-115517000D01*
X132002569Y-115590750D01*
X131653315Y-115735415D01*
X131338995Y-115945437D01*
X131071687Y-116212745D01*
X130861665Y-116527065D01*
X130717000Y-116876319D01*
X130643250Y-117247085D01*
X123461450Y-117247085D01*
X123461450Y-110618948D01*
X123925250Y-110618948D01*
X123925250Y-111018252D01*
X124003151Y-111409883D01*
X124155958Y-111778792D01*
X124377799Y-112110801D01*
X124660149Y-112393151D01*
X124992158Y-112614992D01*
X125361067Y-112767799D01*
X125752698Y-112845700D01*
X126152002Y-112845700D01*
X126543633Y-112767799D01*
X126912542Y-112614992D01*
X127244551Y-112393151D01*
X127526901Y-112110801D01*
X127679251Y-111882793D01*
X127679251Y-112571284D01*
X127675994Y-112604350D01*
X127683743Y-112683020D01*
X127688991Y-112736301D01*
X127715931Y-112825108D01*
X127727480Y-112863180D01*
X127789981Y-112980112D01*
X127834886Y-113034829D01*
X127874095Y-113082606D01*
X127899774Y-113103680D01*
X130056674Y-115260582D01*
X130077744Y-115286256D01*
X130103417Y-115307325D01*
X130103422Y-115307330D01*
X130180237Y-115370370D01*
X130277786Y-115422510D01*
X130297170Y-115432871D01*
X130424049Y-115471360D01*
X130522941Y-115481100D01*
X130522944Y-115481100D01*
X130556000Y-115484356D01*
X130589056Y-115481100D01*
X135856944Y-115481100D01*
X135890000Y-115484356D01*
X135923056Y-115481100D01*
X135923059Y-115481100D01*
X136021951Y-115471360D01*
X136148830Y-115432871D01*
X136265763Y-115370369D01*
X136368256Y-115286256D01*
X136389334Y-115260572D01*
X137612581Y-114037326D01*
X137638255Y-114016256D01*
X137659326Y-113990581D01*
X137659329Y-113990578D01*
X137722369Y-113913764D01*
X137755776Y-113851262D01*
X137784871Y-113796830D01*
X137823360Y-113669951D01*
X137833100Y-113571059D01*
X137833100Y-113571049D01*
X137836355Y-113538001D01*
X137833100Y-113504952D01*
X137833100Y-100968029D01*
X137836356Y-100934973D01*
X137832840Y-100899273D01*
X137823360Y-100803022D01*
X137784871Y-100676143D01*
X137722369Y-100559210D01*
X137638256Y-100456717D01*
X137612577Y-100435643D01*
X136838863Y-99661929D01*
X150672900Y-99661929D01*
X150672900Y-99902071D01*
X150719749Y-100137598D01*
X150811647Y-100359461D01*
X150945063Y-100559131D01*
X151114869Y-100728937D01*
X151314539Y-100862353D01*
X151536402Y-100954251D01*
X151771929Y-101001100D01*
X152012071Y-101001100D01*
X152247598Y-100954251D01*
X152469461Y-100862353D01*
X152669131Y-100728937D01*
X152838937Y-100559131D01*
X152972353Y-100359461D01*
X153064251Y-100137598D01*
X153111100Y-99902071D01*
X153111100Y-99661929D01*
X153064251Y-99426402D01*
X152972353Y-99204539D01*
X152838937Y-99004869D01*
X152669131Y-98835063D01*
X152469461Y-98701647D01*
X152247598Y-98609749D01*
X152012071Y-98562900D01*
X151771929Y-98562900D01*
X151536402Y-98609749D01*
X151314539Y-98701647D01*
X151114869Y-98835063D01*
X150945063Y-99004869D01*
X150811647Y-99204539D01*
X150719749Y-99426402D01*
X150672900Y-99661929D01*
X136838863Y-99661929D01*
X134334862Y-97157929D01*
X134313783Y-97132244D01*
X134211290Y-97048131D01*
X134094357Y-96985629D01*
X133967478Y-96947140D01*
X133868586Y-96937400D01*
X133868583Y-96937400D01*
X133835527Y-96934144D01*
X133802471Y-96937400D01*
X133691033Y-96937400D01*
X133561976Y-96744252D01*
X133372698Y-96554974D01*
X133150130Y-96406259D01*
X132902826Y-96303822D01*
X132640290Y-96251600D01*
X132372610Y-96251600D01*
X132110074Y-96303822D01*
X131862770Y-96406259D01*
X131640202Y-96554974D01*
X131450924Y-96744252D01*
X131302209Y-96966820D01*
X131199772Y-97214124D01*
X131147550Y-97476660D01*
X131147550Y-97744340D01*
X131199772Y-98006876D01*
X131302209Y-98254180D01*
X131450924Y-98476748D01*
X131640202Y-98666026D01*
X131862770Y-98814741D01*
X132110074Y-98917178D01*
X132372610Y-98969400D01*
X132640290Y-98969400D01*
X132902826Y-98917178D01*
X133150130Y-98814741D01*
X133372698Y-98666026D01*
X133561976Y-98476748D01*
X133637235Y-98364114D01*
X136486901Y-101213781D01*
X136486900Y-113259193D01*
X135611194Y-114134900D01*
X131378690Y-114134900D01*
X131641226Y-114082678D01*
X131888530Y-113980241D01*
X132111098Y-113831526D01*
X132300376Y-113642248D01*
X132429433Y-113449100D01*
X132540871Y-113449100D01*
X132573927Y-113452356D01*
X132606983Y-113449100D01*
X132606986Y-113449100D01*
X132705878Y-113439360D01*
X132832757Y-113400871D01*
X132949690Y-113338369D01*
X133052183Y-113254256D01*
X133073261Y-113228572D01*
X135072577Y-111229257D01*
X135098256Y-111208183D01*
X135137925Y-111159846D01*
X135182369Y-111105691D01*
X135229058Y-111018341D01*
X135244871Y-110988757D01*
X135283360Y-110861878D01*
X135293100Y-110762986D01*
X135293100Y-110762976D01*
X135296355Y-110729928D01*
X135293100Y-110696879D01*
X135293100Y-106069729D01*
X135296356Y-106036673D01*
X135291258Y-105984915D01*
X135283360Y-105904722D01*
X135244871Y-105777843D01*
X135240592Y-105769838D01*
X135182370Y-105660910D01*
X135119330Y-105584095D01*
X135119321Y-105584086D01*
X135098255Y-105558417D01*
X135072587Y-105537352D01*
X133010761Y-103475528D01*
X132989683Y-103449844D01*
X132887190Y-103365731D01*
X132770257Y-103303229D01*
X132761719Y-103300639D01*
X132789432Y-103272926D01*
X132815106Y-103251856D01*
X132836175Y-103226183D01*
X132836180Y-103226178D01*
X132899220Y-103149363D01*
X132961721Y-103032430D01*
X132971268Y-103000957D01*
X133000210Y-102905551D01*
X133009950Y-102806659D01*
X133009950Y-102806656D01*
X133013206Y-102773600D01*
X133009950Y-102740544D01*
X133009950Y-101636683D01*
X133203098Y-101507626D01*
X133392376Y-101318348D01*
X133541091Y-101095780D01*
X133643528Y-100848476D01*
X133695750Y-100585940D01*
X133695750Y-100318260D01*
X133643528Y-100055724D01*
X133541091Y-99808420D01*
X133392376Y-99585852D01*
X133203098Y-99396574D01*
X132980530Y-99247859D01*
X132733226Y-99145422D01*
X132470690Y-99093200D01*
X132203010Y-99093200D01*
X131940474Y-99145422D01*
X131693170Y-99247859D01*
X131470602Y-99396574D01*
X131281324Y-99585852D01*
X131132609Y-99808420D01*
X131030172Y-100055724D01*
X130977950Y-100318260D01*
X130977950Y-100585940D01*
X131030172Y-100848476D01*
X131132609Y-101095780D01*
X131281324Y-101318348D01*
X131470602Y-101507626D01*
X131663751Y-101636684D01*
X131663751Y-102494791D01*
X131544023Y-102614519D01*
X131316190Y-102569200D01*
X131048510Y-102569200D01*
X130785974Y-102621422D01*
X130538670Y-102723859D01*
X130316102Y-102872574D01*
X130126824Y-103061852D01*
X129978109Y-103284420D01*
X129875672Y-103531724D01*
X129823450Y-103794260D01*
X129823450Y-103979543D01*
X129711250Y-103867344D01*
X129711250Y-103757760D01*
X129659028Y-103495224D01*
X129556591Y-103247920D01*
X129407876Y-103025352D01*
X129218598Y-102836074D01*
X128996030Y-102687359D01*
X128748726Y-102584922D01*
X128486190Y-102532700D01*
X128218510Y-102532700D01*
X127955974Y-102584922D01*
X127708670Y-102687359D01*
X127486102Y-102836074D01*
X127296824Y-103025352D01*
X127148109Y-103247920D01*
X127045672Y-103495224D01*
X126993450Y-103757760D01*
X126993450Y-104025440D01*
X127045672Y-104287976D01*
X127148109Y-104535280D01*
X127296824Y-104757848D01*
X127486102Y-104947126D01*
X127593071Y-105018600D01*
X127486102Y-105090074D01*
X127296824Y-105279352D01*
X127148109Y-105501920D01*
X127045672Y-105749224D01*
X126993450Y-106011760D01*
X126993450Y-106279440D01*
X127045672Y-106541976D01*
X127148109Y-106789280D01*
X127296824Y-107011848D01*
X127486102Y-107201126D01*
X127682119Y-107332100D01*
X127486102Y-107463074D01*
X127296824Y-107652352D01*
X127148109Y-107874920D01*
X127045672Y-108122224D01*
X126993450Y-108384760D01*
X126993450Y-108652440D01*
X127045672Y-108914976D01*
X127148109Y-109162280D01*
X127169026Y-109193585D01*
X126912542Y-109022208D01*
X126543633Y-108869401D01*
X126152002Y-108791500D01*
X125752698Y-108791500D01*
X125361067Y-108869401D01*
X124992158Y-109022208D01*
X124660149Y-109244049D01*
X124377799Y-109526399D01*
X124155958Y-109858408D01*
X124003151Y-110227317D01*
X123925250Y-110618948D01*
X123461450Y-110618948D01*
X123461450Y-107173152D01*
X124883250Y-107173152D01*
X124883250Y-107364048D01*
X124920492Y-107551276D01*
X124993545Y-107727641D01*
X125099601Y-107886365D01*
X125234585Y-108021349D01*
X125393309Y-108127405D01*
X125569674Y-108200458D01*
X125756902Y-108237700D01*
X125947798Y-108237700D01*
X126135026Y-108200458D01*
X126311391Y-108127405D01*
X126470115Y-108021349D01*
X126605099Y-107886365D01*
X126711155Y-107727641D01*
X126784208Y-107551276D01*
X126821450Y-107364048D01*
X126821450Y-107173152D01*
X126784208Y-106985924D01*
X126711155Y-106809559D01*
X126605099Y-106650835D01*
X126470115Y-106515851D01*
X126311391Y-106409795D01*
X126135026Y-106336742D01*
X125947798Y-106299500D01*
X125756902Y-106299500D01*
X125569674Y-106336742D01*
X125393309Y-106409795D01*
X125234585Y-106515851D01*
X125099601Y-106650835D01*
X124993545Y-106809559D01*
X124920492Y-106985924D01*
X124883250Y-107173152D01*
X123461450Y-107173152D01*
X123461450Y-102673152D01*
X124883250Y-102673152D01*
X124883250Y-102864048D01*
X124920492Y-103051276D01*
X124993545Y-103227641D01*
X125099601Y-103386365D01*
X125234585Y-103521349D01*
X125393309Y-103627405D01*
X125569674Y-103700458D01*
X125756902Y-103737700D01*
X125947798Y-103737700D01*
X126135026Y-103700458D01*
X126311391Y-103627405D01*
X126470115Y-103521349D01*
X126605099Y-103386365D01*
X126711155Y-103227641D01*
X126784208Y-103051276D01*
X126821450Y-102864048D01*
X126821450Y-102673152D01*
X126784208Y-102485924D01*
X126711155Y-102309559D01*
X126605099Y-102150835D01*
X126470115Y-102015851D01*
X126311391Y-101909795D01*
X126135026Y-101836742D01*
X125947798Y-101799500D01*
X125756902Y-101799500D01*
X125569674Y-101836742D01*
X125393309Y-101909795D01*
X125234585Y-102015851D01*
X125099601Y-102150835D01*
X124993545Y-102309559D01*
X124920492Y-102485924D01*
X124883250Y-102673152D01*
X123461450Y-102673152D01*
X123461450Y-99018948D01*
X123925250Y-99018948D01*
X123925250Y-99418252D01*
X124003151Y-99809883D01*
X124155958Y-100178792D01*
X124377799Y-100510801D01*
X124660149Y-100793151D01*
X124992158Y-101014992D01*
X125361067Y-101167799D01*
X125752698Y-101245700D01*
X126152002Y-101245700D01*
X126543633Y-101167799D01*
X126912542Y-101014992D01*
X127244551Y-100793151D01*
X127526901Y-100510801D01*
X127748742Y-100178792D01*
X127901549Y-99809883D01*
X127979450Y-99418252D01*
X127979450Y-99018948D01*
X127901549Y-98627317D01*
X127748742Y-98258408D01*
X127526901Y-97926399D01*
X127244551Y-97644049D01*
X126912542Y-97422208D01*
X126543633Y-97269401D01*
X126152002Y-97191500D01*
X125752698Y-97191500D01*
X125361067Y-97269401D01*
X124992158Y-97422208D01*
X124660149Y-97644049D01*
X124377799Y-97926399D01*
X124155958Y-98258408D01*
X124003151Y-98627317D01*
X123925250Y-99018948D01*
X123461450Y-99018948D01*
X123461450Y-92247085D01*
X130643250Y-92247085D01*
X130643250Y-92625115D01*
X130717000Y-92995881D01*
X130861665Y-93345135D01*
X131071687Y-93659455D01*
X131338995Y-93926763D01*
X131653315Y-94136785D01*
X132002569Y-94281450D01*
X132373335Y-94355200D01*
X132751365Y-94355200D01*
X133122131Y-94281450D01*
X133471385Y-94136785D01*
X133785705Y-93926763D01*
X134053013Y-93659455D01*
X134263035Y-93345135D01*
X134407700Y-92995881D01*
X134481450Y-92625115D01*
X134481450Y-92547078D01*
X134710900Y-92547078D01*
X134710900Y-94142923D01*
X134727961Y-94316144D01*
X134795384Y-94538405D01*
X134904872Y-94743242D01*
X135052217Y-94922784D01*
X135064501Y-94932865D01*
X135064501Y-95617240D01*
X135060506Y-95657800D01*
X135076445Y-95819626D01*
X135123647Y-95975233D01*
X135200301Y-96118642D01*
X135257019Y-96187752D01*
X135303460Y-96244341D01*
X135334961Y-96270193D01*
X137230311Y-98165545D01*
X137256159Y-98197041D01*
X137287655Y-98222889D01*
X137287658Y-98222892D01*
X137381857Y-98300199D01*
X137492378Y-98359274D01*
X137525266Y-98376853D01*
X137680874Y-98424056D01*
X137802147Y-98436000D01*
X137802149Y-98436000D01*
X137842700Y-98439994D01*
X137883250Y-98436000D01*
X139043697Y-98436000D01*
X139070924Y-98476748D01*
X139260202Y-98666026D01*
X139482770Y-98814741D01*
X139730074Y-98917178D01*
X139992610Y-98969400D01*
X140260290Y-98969400D01*
X140522826Y-98917178D01*
X140770130Y-98814741D01*
X140992698Y-98666026D01*
X141170224Y-98488500D01*
X143099581Y-98488500D01*
X143168391Y-98591482D01*
X143343518Y-98766609D01*
X143549445Y-98904205D01*
X143778259Y-98998983D01*
X144021167Y-99047300D01*
X144268833Y-99047300D01*
X144511741Y-98998983D01*
X144740555Y-98904205D01*
X144946482Y-98766609D01*
X145121609Y-98591482D01*
X145259205Y-98385555D01*
X145353983Y-98156741D01*
X145402300Y-97913833D01*
X145402300Y-97666167D01*
X145353983Y-97423259D01*
X145259205Y-97194445D01*
X145121609Y-96988518D01*
X144946482Y-96813391D01*
X144740555Y-96675795D01*
X144511741Y-96581017D01*
X144268833Y-96532700D01*
X144021167Y-96532700D01*
X143778259Y-96581017D01*
X143549445Y-96675795D01*
X143343518Y-96813391D01*
X143319409Y-96837500D01*
X142066883Y-96837500D01*
X142927784Y-95976600D01*
X146946800Y-95976600D01*
X146987350Y-95980594D01*
X147027900Y-95976600D01*
X147027903Y-95976600D01*
X147149176Y-95964656D01*
X147304784Y-95917453D01*
X147448192Y-95840799D01*
X147573891Y-95737641D01*
X147599748Y-95706134D01*
X149447395Y-93858489D01*
X149478891Y-93832641D01*
X149504739Y-93801145D01*
X149504742Y-93801142D01*
X149582049Y-93706943D01*
X149658703Y-93563534D01*
X149700831Y-93424655D01*
X149705906Y-93407926D01*
X149717850Y-93286653D01*
X149717850Y-93286651D01*
X149721844Y-93246100D01*
X149717850Y-93205550D01*
X149717850Y-93058853D01*
X149758598Y-93031626D01*
X149947876Y-92842348D01*
X149975103Y-92801600D01*
X150772917Y-92801600D01*
X150924350Y-92953033D01*
X150924351Y-96096399D01*
X150858034Y-96131846D01*
X150794218Y-96184218D01*
X150741846Y-96248034D01*
X150702929Y-96320842D01*
X150678965Y-96399842D01*
X150670873Y-96482000D01*
X150670873Y-98082000D01*
X150678965Y-98164158D01*
X150702929Y-98243158D01*
X150741846Y-98315966D01*
X150794218Y-98379782D01*
X150858034Y-98432154D01*
X150930842Y-98471071D01*
X151009842Y-98495035D01*
X151092000Y-98503127D01*
X152692000Y-98503127D01*
X152774158Y-98495035D01*
X152853158Y-98471071D01*
X152925966Y-98432154D01*
X152989782Y-98379782D01*
X153042154Y-98315966D01*
X153081071Y-98243158D01*
X153105035Y-98164158D01*
X153113127Y-98082000D01*
X153113127Y-96739980D01*
X153138178Y-96714929D01*
X153138182Y-96714924D01*
X153358506Y-96494600D01*
X155327986Y-96494600D01*
X155350790Y-96726136D01*
X155418327Y-96948774D01*
X155528000Y-97153959D01*
X155675596Y-97333804D01*
X155855441Y-97481400D01*
X156060626Y-97591073D01*
X156283264Y-97658610D01*
X156456784Y-97675700D01*
X158096816Y-97675700D01*
X158270336Y-97658610D01*
X158492974Y-97591073D01*
X158698159Y-97481400D01*
X158878004Y-97333804D01*
X159025600Y-97153959D01*
X159135273Y-96948774D01*
X159202810Y-96726136D01*
X159225614Y-96494600D01*
X159202810Y-96263064D01*
X159135273Y-96040426D01*
X159025600Y-95835241D01*
X158878004Y-95655396D01*
X158698159Y-95507800D01*
X158492974Y-95398127D01*
X158270336Y-95330590D01*
X158096816Y-95313500D01*
X156456784Y-95313500D01*
X156283264Y-95330590D01*
X156060626Y-95398127D01*
X155855441Y-95507800D01*
X155675596Y-95655396D01*
X155528000Y-95835241D01*
X155418327Y-96040426D01*
X155350790Y-96263064D01*
X155327986Y-96494600D01*
X153358506Y-96494600D01*
X154609428Y-95243679D01*
X160344415Y-95243679D01*
X160057527Y-95530567D01*
X160031847Y-95551642D01*
X159947734Y-95654135D01*
X159885232Y-95771068D01*
X159846743Y-95897947D01*
X159838603Y-95980594D01*
X159833747Y-96029897D01*
X159837003Y-96062954D01*
X159837004Y-97003192D01*
X158551424Y-98288773D01*
X158525744Y-98309848D01*
X158441631Y-98412341D01*
X158379129Y-98529274D01*
X158340640Y-98656153D01*
X158330900Y-98755044D01*
X158327644Y-98788103D01*
X158330900Y-98821159D01*
X158330900Y-99669458D01*
X158323429Y-99673451D01*
X158137797Y-99825796D01*
X157985452Y-100011428D01*
X157872249Y-100223214D01*
X157802540Y-100453015D01*
X157784900Y-100632117D01*
X157784900Y-101551882D01*
X157802540Y-101730984D01*
X157872249Y-101960785D01*
X157985451Y-102172571D01*
X158137796Y-102358204D01*
X158232317Y-102435776D01*
X157836194Y-102831900D01*
X155218808Y-102831900D01*
X154457035Y-102070129D01*
X154435957Y-102044445D01*
X154333464Y-101960332D01*
X154216531Y-101897830D01*
X154089652Y-101859341D01*
X153990760Y-101849601D01*
X153990757Y-101849601D01*
X153957701Y-101846345D01*
X153924645Y-101849601D01*
X147700355Y-101849601D01*
X147667299Y-101846345D01*
X147634243Y-101849601D01*
X147634240Y-101849601D01*
X147535348Y-101859341D01*
X147437999Y-101888872D01*
X147408468Y-101897830D01*
X147364726Y-101921211D01*
X147291536Y-101960332D01*
X147189043Y-102044445D01*
X147167964Y-102070130D01*
X147041194Y-102196900D01*
X143153807Y-102196900D01*
X142739334Y-101782428D01*
X142718256Y-101756744D01*
X142615763Y-101672631D01*
X142498830Y-101610129D01*
X142371951Y-101571640D01*
X142273059Y-101561900D01*
X142273056Y-101561900D01*
X142240000Y-101558644D01*
X142206944Y-101561900D01*
X139733056Y-101561900D01*
X139700000Y-101558644D01*
X139666944Y-101561900D01*
X139666941Y-101561900D01*
X139568049Y-101571640D01*
X139444160Y-101609222D01*
X139441170Y-101610129D01*
X139324237Y-101672630D01*
X139247422Y-101735670D01*
X139247417Y-101735675D01*
X139221744Y-101756744D01*
X139200674Y-101782418D01*
X138612423Y-102370671D01*
X138586745Y-102391744D01*
X138565672Y-102417422D01*
X138565671Y-102417423D01*
X138502631Y-102494238D01*
X138485672Y-102525966D01*
X138440130Y-102611170D01*
X138416952Y-102687578D01*
X138401641Y-102738050D01*
X138388644Y-102870000D01*
X138391901Y-102903066D01*
X138391900Y-105849271D01*
X138388644Y-105882327D01*
X138391900Y-105915383D01*
X138391900Y-105915385D01*
X138401640Y-106014277D01*
X138440129Y-106141156D01*
X138502631Y-106258089D01*
X138586744Y-106360582D01*
X138612424Y-106381657D01*
X139576443Y-107345677D01*
X139597517Y-107371356D01*
X139700010Y-107455469D01*
X139816943Y-107517971D01*
X139943822Y-107556460D01*
X140042714Y-107566200D01*
X140042717Y-107566200D01*
X140075773Y-107569456D01*
X140108829Y-107566200D01*
X140220267Y-107566200D01*
X140349324Y-107759348D01*
X140538602Y-107948626D01*
X140761170Y-108097341D01*
X141008474Y-108199778D01*
X141271010Y-108252000D01*
X141538690Y-108252000D01*
X141801226Y-108199778D01*
X142048530Y-108097341D01*
X142271098Y-107948626D01*
X142460376Y-107759348D01*
X142609091Y-107536780D01*
X142711528Y-107289476D01*
X142763750Y-107026940D01*
X142763750Y-106759260D01*
X142711528Y-106496724D01*
X142609091Y-106249420D01*
X142460376Y-106026852D01*
X142271098Y-105837574D01*
X142048530Y-105688859D01*
X141801226Y-105586422D01*
X141538690Y-105534200D01*
X141271010Y-105534200D01*
X141008474Y-105586422D01*
X140761170Y-105688859D01*
X140538602Y-105837574D01*
X140349324Y-106026852D01*
X140274065Y-106139485D01*
X139738100Y-105603521D01*
X139738100Y-103148807D01*
X139978807Y-102908100D01*
X140440576Y-102908100D01*
X140286824Y-103061852D01*
X140138109Y-103284420D01*
X140035672Y-103531724D01*
X139983450Y-103794260D01*
X139983450Y-104061940D01*
X140035672Y-104324476D01*
X140138109Y-104571780D01*
X140286824Y-104794348D01*
X140476102Y-104983626D01*
X140698670Y-105132341D01*
X140945974Y-105234778D01*
X141208510Y-105287000D01*
X141476190Y-105287000D01*
X141738726Y-105234778D01*
X141986030Y-105132341D01*
X142208598Y-104983626D01*
X142397876Y-104794348D01*
X142526933Y-104601200D01*
X147498844Y-104601200D01*
X147531900Y-104604456D01*
X147564956Y-104601200D01*
X147564959Y-104601200D01*
X147663851Y-104591460D01*
X147790730Y-104552971D01*
X147907663Y-104490469D01*
X148010156Y-104406356D01*
X148031234Y-104380672D01*
X148360807Y-104051100D01*
X153137194Y-104051100D01*
X153932670Y-104846577D01*
X153953744Y-104872256D01*
X154056237Y-104956369D01*
X154120840Y-104990900D01*
X146337056Y-104990900D01*
X146304000Y-104987644D01*
X146270944Y-104990900D01*
X146270941Y-104990900D01*
X146172049Y-105000640D01*
X146045170Y-105039129D01*
X145928237Y-105101631D01*
X145825744Y-105185744D01*
X145804670Y-105211423D01*
X141892073Y-109124021D01*
X141866393Y-109145096D01*
X141782280Y-109247589D01*
X141719778Y-109364522D01*
X141681289Y-109491401D01*
X141671553Y-109590255D01*
X141668293Y-109623351D01*
X141671549Y-109656407D01*
X141671550Y-111443528D01*
X141538690Y-111417100D01*
X141271010Y-111417100D01*
X141008474Y-111469322D01*
X140761170Y-111571759D01*
X140538602Y-111720474D01*
X140349324Y-111909752D01*
X140200609Y-112132320D01*
X140098172Y-112379624D01*
X140045950Y-112642160D01*
X140045950Y-112909840D01*
X140098172Y-113172376D01*
X140200609Y-113419680D01*
X140349324Y-113642248D01*
X140538602Y-113831526D01*
X140731750Y-113960583D01*
X140731751Y-116479784D01*
X140728494Y-116512850D01*
X140741491Y-116644800D01*
X140779980Y-116771680D01*
X140835911Y-116876319D01*
X140842482Y-116888613D01*
X140926595Y-116991106D01*
X140952274Y-117012180D01*
X141740670Y-117800577D01*
X141761744Y-117826256D01*
X141787422Y-117847329D01*
X141864236Y-117910369D01*
X141926324Y-117943555D01*
X141981170Y-117972871D01*
X142108049Y-118011360D01*
X142206941Y-118021100D01*
X142206951Y-118021100D01*
X142239999Y-118024355D01*
X142273048Y-118021100D01*
X143209609Y-118021100D01*
X143295391Y-118149482D01*
X143470518Y-118324609D01*
X143676445Y-118462205D01*
X143905259Y-118556983D01*
X144148167Y-118605300D01*
X144395833Y-118605300D01*
X144638741Y-118556983D01*
X144867555Y-118462205D01*
X145073482Y-118324609D01*
X145248609Y-118149482D01*
X145334391Y-118021100D01*
X146533194Y-118021100D01*
X147604871Y-119092778D01*
X147625945Y-119118457D01*
X147651623Y-119139530D01*
X147728437Y-119202570D01*
X147790939Y-119235977D01*
X147845371Y-119265072D01*
X147972250Y-119303561D01*
X148071142Y-119313301D01*
X148071152Y-119313301D01*
X148104200Y-119316556D01*
X148137249Y-119313301D01*
X166327693Y-119313301D01*
X166360749Y-119316557D01*
X166393805Y-119313301D01*
X166393808Y-119313301D01*
X166492700Y-119303561D01*
X166619579Y-119265072D01*
X166736512Y-119202570D01*
X166839005Y-119118457D01*
X166860084Y-119092772D01*
X168705771Y-117247085D01*
X169643250Y-117247085D01*
X169643250Y-117625115D01*
X169717000Y-117995881D01*
X169861665Y-118345135D01*
X170071687Y-118659455D01*
X170338995Y-118926763D01*
X170653315Y-119136785D01*
X171002569Y-119281450D01*
X171373335Y-119355200D01*
X171751365Y-119355200D01*
X172122131Y-119281450D01*
X172471385Y-119136785D01*
X172785705Y-118926763D01*
X173053013Y-118659455D01*
X173263035Y-118345135D01*
X173407700Y-117995881D01*
X173481450Y-117625115D01*
X173481450Y-117247085D01*
X173407700Y-116876319D01*
X173263035Y-116527065D01*
X173053013Y-116212745D01*
X172785705Y-115945437D01*
X172471385Y-115735415D01*
X172122131Y-115590750D01*
X171751365Y-115517000D01*
X171373335Y-115517000D01*
X171002569Y-115590750D01*
X170653315Y-115735415D01*
X170338995Y-115945437D01*
X170071687Y-116212745D01*
X169861665Y-116527065D01*
X169717000Y-116876319D01*
X169643250Y-117247085D01*
X168705771Y-117247085D01*
X171887427Y-114065430D01*
X171913106Y-114044356D01*
X171957240Y-113990578D01*
X171997219Y-113941864D01*
X172056195Y-113831526D01*
X172059721Y-113824930D01*
X172098210Y-113698051D01*
X172107950Y-113599159D01*
X172107950Y-113599149D01*
X172111205Y-113566101D01*
X172107950Y-113533052D01*
X172107950Y-99331906D01*
X172111206Y-99298850D01*
X172107680Y-99263050D01*
X172098210Y-99166899D01*
X172059721Y-99040020D01*
X172042733Y-99008237D01*
X171997220Y-98923087D01*
X171934180Y-98846272D01*
X171934171Y-98846263D01*
X171913105Y-98820594D01*
X171887437Y-98799529D01*
X171156434Y-98068528D01*
X171135356Y-98042844D01*
X171032863Y-97958731D01*
X170915930Y-97896229D01*
X170789051Y-97857740D01*
X170690159Y-97848000D01*
X170690156Y-97848000D01*
X170657100Y-97844744D01*
X170624044Y-97848000D01*
X170064433Y-97848000D01*
X169935376Y-97654852D01*
X169746098Y-97465574D01*
X169523530Y-97316859D01*
X169276226Y-97214422D01*
X169013690Y-97162200D01*
X168746010Y-97162200D01*
X168483474Y-97214422D01*
X168236170Y-97316859D01*
X168013602Y-97465574D01*
X167824324Y-97654852D01*
X167749065Y-97767485D01*
X167551100Y-97569520D01*
X167551100Y-95297777D01*
X167554356Y-95264721D01*
X167551100Y-95231663D01*
X167541360Y-95132771D01*
X167502871Y-95005892D01*
X167440369Y-94888959D01*
X167356256Y-94786466D01*
X167330577Y-94765392D01*
X166400601Y-93835417D01*
X166379523Y-93809733D01*
X166277030Y-93725620D01*
X166160097Y-93663118D01*
X166033218Y-93624629D01*
X165934326Y-93614889D01*
X165934323Y-93614889D01*
X165901267Y-93611633D01*
X165868211Y-93614889D01*
X161029789Y-93614889D01*
X160996733Y-93611633D01*
X160963677Y-93614889D01*
X160963674Y-93614889D01*
X160864782Y-93624629D01*
X160749978Y-93659455D01*
X160737903Y-93663118D01*
X160620971Y-93725619D01*
X160620969Y-93725620D01*
X160620970Y-93725620D01*
X160518477Y-93809733D01*
X160497402Y-93835413D01*
X160435336Y-93897479D01*
X154363677Y-93897479D01*
X154330621Y-93894223D01*
X154297565Y-93897479D01*
X154297562Y-93897479D01*
X154198670Y-93907219D01*
X154118496Y-93931540D01*
X154071790Y-93945708D01*
X153954858Y-94008210D01*
X153852365Y-94092323D01*
X153831291Y-94118002D01*
X152575350Y-95373944D01*
X152575350Y-92651650D01*
X152579344Y-92611100D01*
X152574571Y-92562641D01*
X152563406Y-92449274D01*
X152516203Y-92293666D01*
X152491305Y-92247085D01*
X169643250Y-92247085D01*
X169643250Y-92625115D01*
X169717000Y-92995881D01*
X169861665Y-93345135D01*
X170071687Y-93659455D01*
X170338995Y-93926763D01*
X170653315Y-94136785D01*
X171002569Y-94281450D01*
X171373335Y-94355200D01*
X171751365Y-94355200D01*
X172122131Y-94281450D01*
X172471385Y-94136785D01*
X172785705Y-93926763D01*
X173053013Y-93659455D01*
X173263035Y-93345135D01*
X173407700Y-92995881D01*
X173481450Y-92625115D01*
X173481450Y-92247085D01*
X173407700Y-91876319D01*
X173263035Y-91527065D01*
X173053013Y-91212745D01*
X172785705Y-90945437D01*
X172471385Y-90735415D01*
X172122131Y-90590750D01*
X171751365Y-90517000D01*
X171373335Y-90517000D01*
X171002569Y-90590750D01*
X170653315Y-90735415D01*
X170338995Y-90945437D01*
X170071687Y-91212745D01*
X169861665Y-91527065D01*
X169717000Y-91876319D01*
X169643250Y-92247085D01*
X152491305Y-92247085D01*
X152439549Y-92150257D01*
X152362242Y-92056058D01*
X152362239Y-92056055D01*
X152336391Y-92024559D01*
X152304895Y-91998712D01*
X151727247Y-91421065D01*
X151701391Y-91389559D01*
X151575692Y-91286401D01*
X151432284Y-91209747D01*
X151276676Y-91162544D01*
X151155403Y-91150600D01*
X151155400Y-91150600D01*
X151114850Y-91146606D01*
X151074300Y-91150600D01*
X149975103Y-91150600D01*
X149947876Y-91109852D01*
X149758598Y-90920574D01*
X149536030Y-90771859D01*
X149288726Y-90669422D01*
X149026190Y-90617200D01*
X148758510Y-90617200D01*
X148495974Y-90669422D01*
X148248670Y-90771859D01*
X148026102Y-90920574D01*
X147836824Y-91109852D01*
X147688109Y-91332420D01*
X147585672Y-91579724D01*
X147533450Y-91842260D01*
X147533450Y-92109940D01*
X147585672Y-92372476D01*
X147688109Y-92619780D01*
X147836824Y-92842348D01*
X147982746Y-92988270D01*
X146645418Y-94325600D01*
X142626400Y-94325600D01*
X142585850Y-94321606D01*
X142545299Y-94325600D01*
X142545297Y-94325600D01*
X142424024Y-94337544D01*
X142268416Y-94384747D01*
X142125007Y-94461401D01*
X142075701Y-94501865D01*
X142132039Y-94316144D01*
X142149100Y-94142923D01*
X142149100Y-93333332D01*
X142680833Y-92801600D01*
X142729597Y-92801600D01*
X142756824Y-92842348D01*
X142946102Y-93031626D01*
X143168670Y-93180341D01*
X143415974Y-93282778D01*
X143678510Y-93335000D01*
X143946190Y-93335000D01*
X144208726Y-93282778D01*
X144456030Y-93180341D01*
X144678598Y-93031626D01*
X144867876Y-92842348D01*
X145016591Y-92619780D01*
X145119028Y-92372476D01*
X145171250Y-92109940D01*
X145171250Y-91842260D01*
X145119028Y-91579724D01*
X145016591Y-91332420D01*
X144867876Y-91109852D01*
X144678598Y-90920574D01*
X144456030Y-90771859D01*
X144208726Y-90669422D01*
X143946190Y-90617200D01*
X143678510Y-90617200D01*
X143415974Y-90669422D01*
X143168670Y-90771859D01*
X142946102Y-90920574D01*
X142756824Y-91109852D01*
X142729597Y-91150600D01*
X142379450Y-91150600D01*
X142338900Y-91146606D01*
X142298349Y-91150600D01*
X142298347Y-91150600D01*
X142177074Y-91162544D01*
X142021466Y-91209747D01*
X141878057Y-91286401D01*
X141821983Y-91332420D01*
X141752359Y-91389559D01*
X141726506Y-91421061D01*
X141562719Y-91584848D01*
X141423404Y-91510383D01*
X141201143Y-91442961D01*
X140970000Y-91420195D01*
X140738856Y-91442961D01*
X140516595Y-91510383D01*
X140311758Y-91619871D01*
X140132216Y-91767216D01*
X139984871Y-91946759D01*
X139875383Y-92151596D01*
X139807961Y-92373857D01*
X139790900Y-92547078D01*
X139790900Y-94142923D01*
X139807961Y-94316144D01*
X139875384Y-94538405D01*
X139984872Y-94743242D01*
X140132217Y-94922784D01*
X140311759Y-95070129D01*
X140516596Y-95179617D01*
X140738857Y-95247039D01*
X140970000Y-95269805D01*
X141201144Y-95247039D01*
X141375310Y-95194206D01*
X140308356Y-96261161D01*
X140260290Y-96251600D01*
X139992610Y-96251600D01*
X139730074Y-96303822D01*
X139482770Y-96406259D01*
X139260202Y-96554974D01*
X139070924Y-96744252D01*
X139043697Y-96785000D01*
X138184634Y-96785000D01*
X136715500Y-95315868D01*
X136715500Y-94932865D01*
X136727784Y-94922784D01*
X136875129Y-94743242D01*
X136984617Y-94538405D01*
X137052039Y-94316144D01*
X137069100Y-94142923D01*
X137069100Y-92547077D01*
X137052039Y-92373856D01*
X136984617Y-92151595D01*
X136875129Y-91946758D01*
X136727784Y-91767216D01*
X136548241Y-91619871D01*
X136343404Y-91510383D01*
X136121143Y-91442961D01*
X135890000Y-91420195D01*
X135658856Y-91442961D01*
X135436595Y-91510383D01*
X135231758Y-91619871D01*
X135052216Y-91767216D01*
X134904871Y-91946759D01*
X134795383Y-92151596D01*
X134727961Y-92373857D01*
X134710900Y-92547078D01*
X134481450Y-92547078D01*
X134481450Y-92247085D01*
X134407700Y-91876319D01*
X134263035Y-91527065D01*
X134053013Y-91212745D01*
X133785705Y-90945437D01*
X133471385Y-90735415D01*
X133122131Y-90590750D01*
X132751365Y-90517000D01*
X132373335Y-90517000D01*
X132002569Y-90590750D01*
X131653315Y-90735415D01*
X131338995Y-90945437D01*
X131071687Y-91212745D01*
X130861665Y-91527065D01*
X130717000Y-91876319D01*
X130643250Y-92247085D01*
X123461450Y-92247085D01*
X123461450Y-90482700D01*
X173540751Y-90482700D01*
X173540750Y-119524500D01*
X173540750Y-119524500D01*
G37*
X173540750Y-119524500D02*
X123461450Y-119524500D01*
X123461450Y-117247085D01*
X130643250Y-117247085D01*
X130643250Y-117625115D01*
X130717000Y-117995881D01*
X130861665Y-118345135D01*
X131071687Y-118659455D01*
X131338995Y-118926763D01*
X131653315Y-119136785D01*
X132002569Y-119281450D01*
X132373335Y-119355200D01*
X132751365Y-119355200D01*
X133122131Y-119281450D01*
X133471385Y-119136785D01*
X133785705Y-118926763D01*
X134053013Y-118659455D01*
X134263035Y-118345135D01*
X134407700Y-117995881D01*
X134481450Y-117625115D01*
X134481450Y-117247085D01*
X134407700Y-116876319D01*
X134263035Y-116527065D01*
X134053013Y-116212745D01*
X133785705Y-115945437D01*
X133471385Y-115735415D01*
X133122131Y-115590750D01*
X132751365Y-115517000D01*
X132373335Y-115517000D01*
X132002569Y-115590750D01*
X131653315Y-115735415D01*
X131338995Y-115945437D01*
X131071687Y-116212745D01*
X130861665Y-116527065D01*
X130717000Y-116876319D01*
X130643250Y-117247085D01*
X123461450Y-117247085D01*
X123461450Y-110618948D01*
X123925250Y-110618948D01*
X123925250Y-111018252D01*
X124003151Y-111409883D01*
X124155958Y-111778792D01*
X124377799Y-112110801D01*
X124660149Y-112393151D01*
X124992158Y-112614992D01*
X125361067Y-112767799D01*
X125752698Y-112845700D01*
X126152002Y-112845700D01*
X126543633Y-112767799D01*
X126912542Y-112614992D01*
X127244551Y-112393151D01*
X127526901Y-112110801D01*
X127679251Y-111882793D01*
X127679251Y-112571284D01*
X127675994Y-112604350D01*
X127683743Y-112683020D01*
X127688991Y-112736301D01*
X127715931Y-112825108D01*
X127727480Y-112863180D01*
X127789981Y-112980112D01*
X127834886Y-113034829D01*
X127874095Y-113082606D01*
X127899774Y-113103680D01*
X130056674Y-115260582D01*
X130077744Y-115286256D01*
X130103417Y-115307325D01*
X130103422Y-115307330D01*
X130180237Y-115370370D01*
X130277786Y-115422510D01*
X130297170Y-115432871D01*
X130424049Y-115471360D01*
X130522941Y-115481100D01*
X130522944Y-115481100D01*
X130556000Y-115484356D01*
X130589056Y-115481100D01*
X135856944Y-115481100D01*
X135890000Y-115484356D01*
X135923056Y-115481100D01*
X135923059Y-115481100D01*
X136021951Y-115471360D01*
X136148830Y-115432871D01*
X136265763Y-115370369D01*
X136368256Y-115286256D01*
X136389334Y-115260572D01*
X137612581Y-114037326D01*
X137638255Y-114016256D01*
X137659326Y-113990581D01*
X137659329Y-113990578D01*
X137722369Y-113913764D01*
X137755776Y-113851262D01*
X137784871Y-113796830D01*
X137823360Y-113669951D01*
X137833100Y-113571059D01*
X137833100Y-113571049D01*
X137836355Y-113538001D01*
X137833100Y-113504952D01*
X137833100Y-100968029D01*
X137836356Y-100934973D01*
X137832840Y-100899273D01*
X137823360Y-100803022D01*
X137784871Y-100676143D01*
X137722369Y-100559210D01*
X137638256Y-100456717D01*
X137612577Y-100435643D01*
X136838863Y-99661929D01*
X150672900Y-99661929D01*
X150672900Y-99902071D01*
X150719749Y-100137598D01*
X150811647Y-100359461D01*
X150945063Y-100559131D01*
X151114869Y-100728937D01*
X151314539Y-100862353D01*
X151536402Y-100954251D01*
X151771929Y-101001100D01*
X152012071Y-101001100D01*
X152247598Y-100954251D01*
X152469461Y-100862353D01*
X152669131Y-100728937D01*
X152838937Y-100559131D01*
X152972353Y-100359461D01*
X153064251Y-100137598D01*
X153111100Y-99902071D01*
X153111100Y-99661929D01*
X153064251Y-99426402D01*
X152972353Y-99204539D01*
X152838937Y-99004869D01*
X152669131Y-98835063D01*
X152469461Y-98701647D01*
X152247598Y-98609749D01*
X152012071Y-98562900D01*
X151771929Y-98562900D01*
X151536402Y-98609749D01*
X151314539Y-98701647D01*
X151114869Y-98835063D01*
X150945063Y-99004869D01*
X150811647Y-99204539D01*
X150719749Y-99426402D01*
X150672900Y-99661929D01*
X136838863Y-99661929D01*
X134334862Y-97157929D01*
X134313783Y-97132244D01*
X134211290Y-97048131D01*
X134094357Y-96985629D01*
X133967478Y-96947140D01*
X133868586Y-96937400D01*
X133868583Y-96937400D01*
X133835527Y-96934144D01*
X133802471Y-96937400D01*
X133691033Y-96937400D01*
X133561976Y-96744252D01*
X133372698Y-96554974D01*
X133150130Y-96406259D01*
X132902826Y-96303822D01*
X132640290Y-96251600D01*
X132372610Y-96251600D01*
X132110074Y-96303822D01*
X131862770Y-96406259D01*
X131640202Y-96554974D01*
X131450924Y-96744252D01*
X131302209Y-96966820D01*
X131199772Y-97214124D01*
X131147550Y-97476660D01*
X131147550Y-97744340D01*
X131199772Y-98006876D01*
X131302209Y-98254180D01*
X131450924Y-98476748D01*
X131640202Y-98666026D01*
X131862770Y-98814741D01*
X132110074Y-98917178D01*
X132372610Y-98969400D01*
X132640290Y-98969400D01*
X132902826Y-98917178D01*
X133150130Y-98814741D01*
X133372698Y-98666026D01*
X133561976Y-98476748D01*
X133637235Y-98364114D01*
X136486901Y-101213781D01*
X136486900Y-113259193D01*
X135611194Y-114134900D01*
X131378690Y-114134900D01*
X131641226Y-114082678D01*
X131888530Y-113980241D01*
X132111098Y-113831526D01*
X132300376Y-113642248D01*
X132429433Y-113449100D01*
X132540871Y-113449100D01*
X132573927Y-113452356D01*
X132606983Y-113449100D01*
X132606986Y-113449100D01*
X132705878Y-113439360D01*
X132832757Y-113400871D01*
X132949690Y-113338369D01*
X133052183Y-113254256D01*
X133073261Y-113228572D01*
X135072577Y-111229257D01*
X135098256Y-111208183D01*
X135137925Y-111159846D01*
X135182369Y-111105691D01*
X135229058Y-111018341D01*
X135244871Y-110988757D01*
X135283360Y-110861878D01*
X135293100Y-110762986D01*
X135293100Y-110762976D01*
X135296355Y-110729928D01*
X135293100Y-110696879D01*
X135293100Y-106069729D01*
X135296356Y-106036673D01*
X135291258Y-105984915D01*
X135283360Y-105904722D01*
X135244871Y-105777843D01*
X135240592Y-105769838D01*
X135182370Y-105660910D01*
X135119330Y-105584095D01*
X135119321Y-105584086D01*
X135098255Y-105558417D01*
X135072587Y-105537352D01*
X133010761Y-103475528D01*
X132989683Y-103449844D01*
X132887190Y-103365731D01*
X132770257Y-103303229D01*
X132761719Y-103300639D01*
X132789432Y-103272926D01*
X132815106Y-103251856D01*
X132836175Y-103226183D01*
X132836180Y-103226178D01*
X132899220Y-103149363D01*
X132961721Y-103032430D01*
X132971268Y-103000957D01*
X133000210Y-102905551D01*
X133009950Y-102806659D01*
X133009950Y-102806656D01*
X133013206Y-102773600D01*
X133009950Y-102740544D01*
X133009950Y-101636683D01*
X133203098Y-101507626D01*
X133392376Y-101318348D01*
X133541091Y-101095780D01*
X133643528Y-100848476D01*
X133695750Y-100585940D01*
X133695750Y-100318260D01*
X133643528Y-100055724D01*
X133541091Y-99808420D01*
X133392376Y-99585852D01*
X133203098Y-99396574D01*
X132980530Y-99247859D01*
X132733226Y-99145422D01*
X132470690Y-99093200D01*
X132203010Y-99093200D01*
X131940474Y-99145422D01*
X131693170Y-99247859D01*
X131470602Y-99396574D01*
X131281324Y-99585852D01*
X131132609Y-99808420D01*
X131030172Y-100055724D01*
X130977950Y-100318260D01*
X130977950Y-100585940D01*
X131030172Y-100848476D01*
X131132609Y-101095780D01*
X131281324Y-101318348D01*
X131470602Y-101507626D01*
X131663751Y-101636684D01*
X131663751Y-102494791D01*
X131544023Y-102614519D01*
X131316190Y-102569200D01*
X131048510Y-102569200D01*
X130785974Y-102621422D01*
X130538670Y-102723859D01*
X130316102Y-102872574D01*
X130126824Y-103061852D01*
X129978109Y-103284420D01*
X129875672Y-103531724D01*
X129823450Y-103794260D01*
X129823450Y-103979543D01*
X129711250Y-103867344D01*
X129711250Y-103757760D01*
X129659028Y-103495224D01*
X129556591Y-103247920D01*
X129407876Y-103025352D01*
X129218598Y-102836074D01*
X128996030Y-102687359D01*
X128748726Y-102584922D01*
X128486190Y-102532700D01*
X128218510Y-102532700D01*
X127955974Y-102584922D01*
X127708670Y-102687359D01*
X127486102Y-102836074D01*
X127296824Y-103025352D01*
X127148109Y-103247920D01*
X127045672Y-103495224D01*
X126993450Y-103757760D01*
X126993450Y-104025440D01*
X127045672Y-104287976D01*
X127148109Y-104535280D01*
X127296824Y-104757848D01*
X127486102Y-104947126D01*
X127593071Y-105018600D01*
X127486102Y-105090074D01*
X127296824Y-105279352D01*
X127148109Y-105501920D01*
X127045672Y-105749224D01*
X126993450Y-106011760D01*
X126993450Y-106279440D01*
X127045672Y-106541976D01*
X127148109Y-106789280D01*
X127296824Y-107011848D01*
X127486102Y-107201126D01*
X127682119Y-107332100D01*
X127486102Y-107463074D01*
X127296824Y-107652352D01*
X127148109Y-107874920D01*
X127045672Y-108122224D01*
X126993450Y-108384760D01*
X126993450Y-108652440D01*
X127045672Y-108914976D01*
X127148109Y-109162280D01*
X127169026Y-109193585D01*
X126912542Y-109022208D01*
X126543633Y-108869401D01*
X126152002Y-108791500D01*
X125752698Y-108791500D01*
X125361067Y-108869401D01*
X124992158Y-109022208D01*
X124660149Y-109244049D01*
X124377799Y-109526399D01*
X124155958Y-109858408D01*
X124003151Y-110227317D01*
X123925250Y-110618948D01*
X123461450Y-110618948D01*
X123461450Y-107173152D01*
X124883250Y-107173152D01*
X124883250Y-107364048D01*
X124920492Y-107551276D01*
X124993545Y-107727641D01*
X125099601Y-107886365D01*
X125234585Y-108021349D01*
X125393309Y-108127405D01*
X125569674Y-108200458D01*
X125756902Y-108237700D01*
X125947798Y-108237700D01*
X126135026Y-108200458D01*
X126311391Y-108127405D01*
X126470115Y-108021349D01*
X126605099Y-107886365D01*
X126711155Y-107727641D01*
X126784208Y-107551276D01*
X126821450Y-107364048D01*
X126821450Y-107173152D01*
X126784208Y-106985924D01*
X126711155Y-106809559D01*
X126605099Y-106650835D01*
X126470115Y-106515851D01*
X126311391Y-106409795D01*
X126135026Y-106336742D01*
X125947798Y-106299500D01*
X125756902Y-106299500D01*
X125569674Y-106336742D01*
X125393309Y-106409795D01*
X125234585Y-106515851D01*
X125099601Y-106650835D01*
X124993545Y-106809559D01*
X124920492Y-106985924D01*
X124883250Y-107173152D01*
X123461450Y-107173152D01*
X123461450Y-102673152D01*
X124883250Y-102673152D01*
X124883250Y-102864048D01*
X124920492Y-103051276D01*
X124993545Y-103227641D01*
X125099601Y-103386365D01*
X125234585Y-103521349D01*
X125393309Y-103627405D01*
X125569674Y-103700458D01*
X125756902Y-103737700D01*
X125947798Y-103737700D01*
X126135026Y-103700458D01*
X126311391Y-103627405D01*
X126470115Y-103521349D01*
X126605099Y-103386365D01*
X126711155Y-103227641D01*
X126784208Y-103051276D01*
X126821450Y-102864048D01*
X126821450Y-102673152D01*
X126784208Y-102485924D01*
X126711155Y-102309559D01*
X126605099Y-102150835D01*
X126470115Y-102015851D01*
X126311391Y-101909795D01*
X126135026Y-101836742D01*
X125947798Y-101799500D01*
X125756902Y-101799500D01*
X125569674Y-101836742D01*
X125393309Y-101909795D01*
X125234585Y-102015851D01*
X125099601Y-102150835D01*
X124993545Y-102309559D01*
X124920492Y-102485924D01*
X124883250Y-102673152D01*
X123461450Y-102673152D01*
X123461450Y-99018948D01*
X123925250Y-99018948D01*
X123925250Y-99418252D01*
X124003151Y-99809883D01*
X124155958Y-100178792D01*
X124377799Y-100510801D01*
X124660149Y-100793151D01*
X124992158Y-101014992D01*
X125361067Y-101167799D01*
X125752698Y-101245700D01*
X126152002Y-101245700D01*
X126543633Y-101167799D01*
X126912542Y-101014992D01*
X127244551Y-100793151D01*
X127526901Y-100510801D01*
X127748742Y-100178792D01*
X127901549Y-99809883D01*
X127979450Y-99418252D01*
X127979450Y-99018948D01*
X127901549Y-98627317D01*
X127748742Y-98258408D01*
X127526901Y-97926399D01*
X127244551Y-97644049D01*
X126912542Y-97422208D01*
X126543633Y-97269401D01*
X126152002Y-97191500D01*
X125752698Y-97191500D01*
X125361067Y-97269401D01*
X124992158Y-97422208D01*
X124660149Y-97644049D01*
X124377799Y-97926399D01*
X124155958Y-98258408D01*
X124003151Y-98627317D01*
X123925250Y-99018948D01*
X123461450Y-99018948D01*
X123461450Y-92247085D01*
X130643250Y-92247085D01*
X130643250Y-92625115D01*
X130717000Y-92995881D01*
X130861665Y-93345135D01*
X131071687Y-93659455D01*
X131338995Y-93926763D01*
X131653315Y-94136785D01*
X132002569Y-94281450D01*
X132373335Y-94355200D01*
X132751365Y-94355200D01*
X133122131Y-94281450D01*
X133471385Y-94136785D01*
X133785705Y-93926763D01*
X134053013Y-93659455D01*
X134263035Y-93345135D01*
X134407700Y-92995881D01*
X134481450Y-92625115D01*
X134481450Y-92547078D01*
X134710900Y-92547078D01*
X134710900Y-94142923D01*
X134727961Y-94316144D01*
X134795384Y-94538405D01*
X134904872Y-94743242D01*
X135052217Y-94922784D01*
X135064501Y-94932865D01*
X135064501Y-95617240D01*
X135060506Y-95657800D01*
X135076445Y-95819626D01*
X135123647Y-95975233D01*
X135200301Y-96118642D01*
X135257019Y-96187752D01*
X135303460Y-96244341D01*
X135334961Y-96270193D01*
X137230311Y-98165545D01*
X137256159Y-98197041D01*
X137287655Y-98222889D01*
X137287658Y-98222892D01*
X137381857Y-98300199D01*
X137492378Y-98359274D01*
X137525266Y-98376853D01*
X137680874Y-98424056D01*
X137802147Y-98436000D01*
X137802149Y-98436000D01*
X137842700Y-98439994D01*
X137883250Y-98436000D01*
X139043697Y-98436000D01*
X139070924Y-98476748D01*
X139260202Y-98666026D01*
X139482770Y-98814741D01*
X139730074Y-98917178D01*
X139992610Y-98969400D01*
X140260290Y-98969400D01*
X140522826Y-98917178D01*
X140770130Y-98814741D01*
X140992698Y-98666026D01*
X141170224Y-98488500D01*
X143099581Y-98488500D01*
X143168391Y-98591482D01*
X143343518Y-98766609D01*
X143549445Y-98904205D01*
X143778259Y-98998983D01*
X144021167Y-99047300D01*
X144268833Y-99047300D01*
X144511741Y-98998983D01*
X144740555Y-98904205D01*
X144946482Y-98766609D01*
X145121609Y-98591482D01*
X145259205Y-98385555D01*
X145353983Y-98156741D01*
X145402300Y-97913833D01*
X145402300Y-97666167D01*
X145353983Y-97423259D01*
X145259205Y-97194445D01*
X145121609Y-96988518D01*
X144946482Y-96813391D01*
X144740555Y-96675795D01*
X144511741Y-96581017D01*
X144268833Y-96532700D01*
X144021167Y-96532700D01*
X143778259Y-96581017D01*
X143549445Y-96675795D01*
X143343518Y-96813391D01*
X143319409Y-96837500D01*
X142066883Y-96837500D01*
X142927784Y-95976600D01*
X146946800Y-95976600D01*
X146987350Y-95980594D01*
X147027900Y-95976600D01*
X147027903Y-95976600D01*
X147149176Y-95964656D01*
X147304784Y-95917453D01*
X147448192Y-95840799D01*
X147573891Y-95737641D01*
X147599748Y-95706134D01*
X149447395Y-93858489D01*
X149478891Y-93832641D01*
X149504739Y-93801145D01*
X149504742Y-93801142D01*
X149582049Y-93706943D01*
X149658703Y-93563534D01*
X149700831Y-93424655D01*
X149705906Y-93407926D01*
X149717850Y-93286653D01*
X149717850Y-93286651D01*
X149721844Y-93246100D01*
X149717850Y-93205550D01*
X149717850Y-93058853D01*
X149758598Y-93031626D01*
X149947876Y-92842348D01*
X149975103Y-92801600D01*
X150772917Y-92801600D01*
X150924350Y-92953033D01*
X150924351Y-96096399D01*
X150858034Y-96131846D01*
X150794218Y-96184218D01*
X150741846Y-96248034D01*
X150702929Y-96320842D01*
X150678965Y-96399842D01*
X150670873Y-96482000D01*
X150670873Y-98082000D01*
X150678965Y-98164158D01*
X150702929Y-98243158D01*
X150741846Y-98315966D01*
X150794218Y-98379782D01*
X150858034Y-98432154D01*
X150930842Y-98471071D01*
X151009842Y-98495035D01*
X151092000Y-98503127D01*
X152692000Y-98503127D01*
X152774158Y-98495035D01*
X152853158Y-98471071D01*
X152925966Y-98432154D01*
X152989782Y-98379782D01*
X153042154Y-98315966D01*
X153081071Y-98243158D01*
X153105035Y-98164158D01*
X153113127Y-98082000D01*
X153113127Y-96739980D01*
X153138178Y-96714929D01*
X153138182Y-96714924D01*
X153358506Y-96494600D01*
X155327986Y-96494600D01*
X155350790Y-96726136D01*
X155418327Y-96948774D01*
X155528000Y-97153959D01*
X155675596Y-97333804D01*
X155855441Y-97481400D01*
X156060626Y-97591073D01*
X156283264Y-97658610D01*
X156456784Y-97675700D01*
X158096816Y-97675700D01*
X158270336Y-97658610D01*
X158492974Y-97591073D01*
X158698159Y-97481400D01*
X158878004Y-97333804D01*
X159025600Y-97153959D01*
X159135273Y-96948774D01*
X159202810Y-96726136D01*
X159225614Y-96494600D01*
X159202810Y-96263064D01*
X159135273Y-96040426D01*
X159025600Y-95835241D01*
X158878004Y-95655396D01*
X158698159Y-95507800D01*
X158492974Y-95398127D01*
X158270336Y-95330590D01*
X158096816Y-95313500D01*
X156456784Y-95313500D01*
X156283264Y-95330590D01*
X156060626Y-95398127D01*
X155855441Y-95507800D01*
X155675596Y-95655396D01*
X155528000Y-95835241D01*
X155418327Y-96040426D01*
X155350790Y-96263064D01*
X155327986Y-96494600D01*
X153358506Y-96494600D01*
X154609428Y-95243679D01*
X160344415Y-95243679D01*
X160057527Y-95530567D01*
X160031847Y-95551642D01*
X159947734Y-95654135D01*
X159885232Y-95771068D01*
X159846743Y-95897947D01*
X159838603Y-95980594D01*
X159833747Y-96029897D01*
X159837003Y-96062954D01*
X159837004Y-97003192D01*
X158551424Y-98288773D01*
X158525744Y-98309848D01*
X158441631Y-98412341D01*
X158379129Y-98529274D01*
X158340640Y-98656153D01*
X158330900Y-98755044D01*
X158327644Y-98788103D01*
X158330900Y-98821159D01*
X158330900Y-99669458D01*
X158323429Y-99673451D01*
X158137797Y-99825796D01*
X157985452Y-100011428D01*
X157872249Y-100223214D01*
X157802540Y-100453015D01*
X157784900Y-100632117D01*
X157784900Y-101551882D01*
X157802540Y-101730984D01*
X157872249Y-101960785D01*
X157985451Y-102172571D01*
X158137796Y-102358204D01*
X158232317Y-102435776D01*
X157836194Y-102831900D01*
X155218808Y-102831900D01*
X154457035Y-102070129D01*
X154435957Y-102044445D01*
X154333464Y-101960332D01*
X154216531Y-101897830D01*
X154089652Y-101859341D01*
X153990760Y-101849601D01*
X153990757Y-101849601D01*
X153957701Y-101846345D01*
X153924645Y-101849601D01*
X147700355Y-101849601D01*
X147667299Y-101846345D01*
X147634243Y-101849601D01*
X147634240Y-101849601D01*
X147535348Y-101859341D01*
X147437999Y-101888872D01*
X147408468Y-101897830D01*
X147364726Y-101921211D01*
X147291536Y-101960332D01*
X147189043Y-102044445D01*
X147167964Y-102070130D01*
X147041194Y-102196900D01*
X143153807Y-102196900D01*
X142739334Y-101782428D01*
X142718256Y-101756744D01*
X142615763Y-101672631D01*
X142498830Y-101610129D01*
X142371951Y-101571640D01*
X142273059Y-101561900D01*
X142273056Y-101561900D01*
X142240000Y-101558644D01*
X142206944Y-101561900D01*
X139733056Y-101561900D01*
X139700000Y-101558644D01*
X139666944Y-101561900D01*
X139666941Y-101561900D01*
X139568049Y-101571640D01*
X139444160Y-101609222D01*
X139441170Y-101610129D01*
X139324237Y-101672630D01*
X139247422Y-101735670D01*
X139247417Y-101735675D01*
X139221744Y-101756744D01*
X139200674Y-101782418D01*
X138612423Y-102370671D01*
X138586745Y-102391744D01*
X138565672Y-102417422D01*
X138565671Y-102417423D01*
X138502631Y-102494238D01*
X138485672Y-102525966D01*
X138440130Y-102611170D01*
X138416952Y-102687578D01*
X138401641Y-102738050D01*
X138388644Y-102870000D01*
X138391901Y-102903066D01*
X138391900Y-105849271D01*
X138388644Y-105882327D01*
X138391900Y-105915383D01*
X138391900Y-105915385D01*
X138401640Y-106014277D01*
X138440129Y-106141156D01*
X138502631Y-106258089D01*
X138586744Y-106360582D01*
X138612424Y-106381657D01*
X139576443Y-107345677D01*
X139597517Y-107371356D01*
X139700010Y-107455469D01*
X139816943Y-107517971D01*
X139943822Y-107556460D01*
X140042714Y-107566200D01*
X140042717Y-107566200D01*
X140075773Y-107569456D01*
X140108829Y-107566200D01*
X140220267Y-107566200D01*
X140349324Y-107759348D01*
X140538602Y-107948626D01*
X140761170Y-108097341D01*
X141008474Y-108199778D01*
X141271010Y-108252000D01*
X141538690Y-108252000D01*
X141801226Y-108199778D01*
X142048530Y-108097341D01*
X142271098Y-107948626D01*
X142460376Y-107759348D01*
X142609091Y-107536780D01*
X142711528Y-107289476D01*
X142763750Y-107026940D01*
X142763750Y-106759260D01*
X142711528Y-106496724D01*
X142609091Y-106249420D01*
X142460376Y-106026852D01*
X142271098Y-105837574D01*
X142048530Y-105688859D01*
X141801226Y-105586422D01*
X141538690Y-105534200D01*
X141271010Y-105534200D01*
X141008474Y-105586422D01*
X140761170Y-105688859D01*
X140538602Y-105837574D01*
X140349324Y-106026852D01*
X140274065Y-106139485D01*
X139738100Y-105603521D01*
X139738100Y-103148807D01*
X139978807Y-102908100D01*
X140440576Y-102908100D01*
X140286824Y-103061852D01*
X140138109Y-103284420D01*
X140035672Y-103531724D01*
X139983450Y-103794260D01*
X139983450Y-104061940D01*
X140035672Y-104324476D01*
X140138109Y-104571780D01*
X140286824Y-104794348D01*
X140476102Y-104983626D01*
X140698670Y-105132341D01*
X140945974Y-105234778D01*
X141208510Y-105287000D01*
X141476190Y-105287000D01*
X141738726Y-105234778D01*
X141986030Y-105132341D01*
X142208598Y-104983626D01*
X142397876Y-104794348D01*
X142526933Y-104601200D01*
X147498844Y-104601200D01*
X147531900Y-104604456D01*
X147564956Y-104601200D01*
X147564959Y-104601200D01*
X147663851Y-104591460D01*
X147790730Y-104552971D01*
X147907663Y-104490469D01*
X148010156Y-104406356D01*
X148031234Y-104380672D01*
X148360807Y-104051100D01*
X153137194Y-104051100D01*
X153932670Y-104846577D01*
X153953744Y-104872256D01*
X154056237Y-104956369D01*
X154120840Y-104990900D01*
X146337056Y-104990900D01*
X146304000Y-104987644D01*
X146270944Y-104990900D01*
X146270941Y-104990900D01*
X146172049Y-105000640D01*
X146045170Y-105039129D01*
X145928237Y-105101631D01*
X145825744Y-105185744D01*
X145804670Y-105211423D01*
X141892073Y-109124021D01*
X141866393Y-109145096D01*
X141782280Y-109247589D01*
X141719778Y-109364522D01*
X141681289Y-109491401D01*
X141671553Y-109590255D01*
X141668293Y-109623351D01*
X141671549Y-109656407D01*
X141671550Y-111443528D01*
X141538690Y-111417100D01*
X141271010Y-111417100D01*
X141008474Y-111469322D01*
X140761170Y-111571759D01*
X140538602Y-111720474D01*
X140349324Y-111909752D01*
X140200609Y-112132320D01*
X140098172Y-112379624D01*
X140045950Y-112642160D01*
X140045950Y-112909840D01*
X140098172Y-113172376D01*
X140200609Y-113419680D01*
X140349324Y-113642248D01*
X140538602Y-113831526D01*
X140731750Y-113960583D01*
X140731751Y-116479784D01*
X140728494Y-116512850D01*
X140741491Y-116644800D01*
X140779980Y-116771680D01*
X140835911Y-116876319D01*
X140842482Y-116888613D01*
X140926595Y-116991106D01*
X140952274Y-117012180D01*
X141740670Y-117800577D01*
X141761744Y-117826256D01*
X141787422Y-117847329D01*
X141864236Y-117910369D01*
X141926324Y-117943555D01*
X141981170Y-117972871D01*
X142108049Y-118011360D01*
X142206941Y-118021100D01*
X142206951Y-118021100D01*
X142239999Y-118024355D01*
X142273048Y-118021100D01*
X143209609Y-118021100D01*
X143295391Y-118149482D01*
X143470518Y-118324609D01*
X143676445Y-118462205D01*
X143905259Y-118556983D01*
X144148167Y-118605300D01*
X144395833Y-118605300D01*
X144638741Y-118556983D01*
X144867555Y-118462205D01*
X145073482Y-118324609D01*
X145248609Y-118149482D01*
X145334391Y-118021100D01*
X146533194Y-118021100D01*
X147604871Y-119092778D01*
X147625945Y-119118457D01*
X147651623Y-119139530D01*
X147728437Y-119202570D01*
X147790939Y-119235977D01*
X147845371Y-119265072D01*
X147972250Y-119303561D01*
X148071142Y-119313301D01*
X148071152Y-119313301D01*
X148104200Y-119316556D01*
X148137249Y-119313301D01*
X166327693Y-119313301D01*
X166360749Y-119316557D01*
X166393805Y-119313301D01*
X166393808Y-119313301D01*
X166492700Y-119303561D01*
X166619579Y-119265072D01*
X166736512Y-119202570D01*
X166839005Y-119118457D01*
X166860084Y-119092772D01*
X168705771Y-117247085D01*
X169643250Y-117247085D01*
X169643250Y-117625115D01*
X169717000Y-117995881D01*
X169861665Y-118345135D01*
X170071687Y-118659455D01*
X170338995Y-118926763D01*
X170653315Y-119136785D01*
X171002569Y-119281450D01*
X171373335Y-119355200D01*
X171751365Y-119355200D01*
X172122131Y-119281450D01*
X172471385Y-119136785D01*
X172785705Y-118926763D01*
X173053013Y-118659455D01*
X173263035Y-118345135D01*
X173407700Y-117995881D01*
X173481450Y-117625115D01*
X173481450Y-117247085D01*
X173407700Y-116876319D01*
X173263035Y-116527065D01*
X173053013Y-116212745D01*
X172785705Y-115945437D01*
X172471385Y-115735415D01*
X172122131Y-115590750D01*
X171751365Y-115517000D01*
X171373335Y-115517000D01*
X171002569Y-115590750D01*
X170653315Y-115735415D01*
X170338995Y-115945437D01*
X170071687Y-116212745D01*
X169861665Y-116527065D01*
X169717000Y-116876319D01*
X169643250Y-117247085D01*
X168705771Y-117247085D01*
X171887427Y-114065430D01*
X171913106Y-114044356D01*
X171957240Y-113990578D01*
X171997219Y-113941864D01*
X172056195Y-113831526D01*
X172059721Y-113824930D01*
X172098210Y-113698051D01*
X172107950Y-113599159D01*
X172107950Y-113599149D01*
X172111205Y-113566101D01*
X172107950Y-113533052D01*
X172107950Y-99331906D01*
X172111206Y-99298850D01*
X172107680Y-99263050D01*
X172098210Y-99166899D01*
X172059721Y-99040020D01*
X172042733Y-99008237D01*
X171997220Y-98923087D01*
X171934180Y-98846272D01*
X171934171Y-98846263D01*
X171913105Y-98820594D01*
X171887437Y-98799529D01*
X171156434Y-98068528D01*
X171135356Y-98042844D01*
X171032863Y-97958731D01*
X170915930Y-97896229D01*
X170789051Y-97857740D01*
X170690159Y-97848000D01*
X170690156Y-97848000D01*
X170657100Y-97844744D01*
X170624044Y-97848000D01*
X170064433Y-97848000D01*
X169935376Y-97654852D01*
X169746098Y-97465574D01*
X169523530Y-97316859D01*
X169276226Y-97214422D01*
X169013690Y-97162200D01*
X168746010Y-97162200D01*
X168483474Y-97214422D01*
X168236170Y-97316859D01*
X168013602Y-97465574D01*
X167824324Y-97654852D01*
X167749065Y-97767485D01*
X167551100Y-97569520D01*
X167551100Y-95297777D01*
X167554356Y-95264721D01*
X167551100Y-95231663D01*
X167541360Y-95132771D01*
X167502871Y-95005892D01*
X167440369Y-94888959D01*
X167356256Y-94786466D01*
X167330577Y-94765392D01*
X166400601Y-93835417D01*
X166379523Y-93809733D01*
X166277030Y-93725620D01*
X166160097Y-93663118D01*
X166033218Y-93624629D01*
X165934326Y-93614889D01*
X165934323Y-93614889D01*
X165901267Y-93611633D01*
X165868211Y-93614889D01*
X161029789Y-93614889D01*
X160996733Y-93611633D01*
X160963677Y-93614889D01*
X160963674Y-93614889D01*
X160864782Y-93624629D01*
X160749978Y-93659455D01*
X160737903Y-93663118D01*
X160620971Y-93725619D01*
X160620969Y-93725620D01*
X160620970Y-93725620D01*
X160518477Y-93809733D01*
X160497402Y-93835413D01*
X160435336Y-93897479D01*
X154363677Y-93897479D01*
X154330621Y-93894223D01*
X154297565Y-93897479D01*
X154297562Y-93897479D01*
X154198670Y-93907219D01*
X154118496Y-93931540D01*
X154071790Y-93945708D01*
X153954858Y-94008210D01*
X153852365Y-94092323D01*
X153831291Y-94118002D01*
X152575350Y-95373944D01*
X152575350Y-92651650D01*
X152579344Y-92611100D01*
X152574571Y-92562641D01*
X152563406Y-92449274D01*
X152516203Y-92293666D01*
X152491305Y-92247085D01*
X169643250Y-92247085D01*
X169643250Y-92625115D01*
X169717000Y-92995881D01*
X169861665Y-93345135D01*
X170071687Y-93659455D01*
X170338995Y-93926763D01*
X170653315Y-94136785D01*
X171002569Y-94281450D01*
X171373335Y-94355200D01*
X171751365Y-94355200D01*
X172122131Y-94281450D01*
X172471385Y-94136785D01*
X172785705Y-93926763D01*
X173053013Y-93659455D01*
X173263035Y-93345135D01*
X173407700Y-92995881D01*
X173481450Y-92625115D01*
X173481450Y-92247085D01*
X173407700Y-91876319D01*
X173263035Y-91527065D01*
X173053013Y-91212745D01*
X172785705Y-90945437D01*
X172471385Y-90735415D01*
X172122131Y-90590750D01*
X171751365Y-90517000D01*
X171373335Y-90517000D01*
X171002569Y-90590750D01*
X170653315Y-90735415D01*
X170338995Y-90945437D01*
X170071687Y-91212745D01*
X169861665Y-91527065D01*
X169717000Y-91876319D01*
X169643250Y-92247085D01*
X152491305Y-92247085D01*
X152439549Y-92150257D01*
X152362242Y-92056058D01*
X152362239Y-92056055D01*
X152336391Y-92024559D01*
X152304895Y-91998712D01*
X151727247Y-91421065D01*
X151701391Y-91389559D01*
X151575692Y-91286401D01*
X151432284Y-91209747D01*
X151276676Y-91162544D01*
X151155403Y-91150600D01*
X151155400Y-91150600D01*
X151114850Y-91146606D01*
X151074300Y-91150600D01*
X149975103Y-91150600D01*
X149947876Y-91109852D01*
X149758598Y-90920574D01*
X149536030Y-90771859D01*
X149288726Y-90669422D01*
X149026190Y-90617200D01*
X148758510Y-90617200D01*
X148495974Y-90669422D01*
X148248670Y-90771859D01*
X148026102Y-90920574D01*
X147836824Y-91109852D01*
X147688109Y-91332420D01*
X147585672Y-91579724D01*
X147533450Y-91842260D01*
X147533450Y-92109940D01*
X147585672Y-92372476D01*
X147688109Y-92619780D01*
X147836824Y-92842348D01*
X147982746Y-92988270D01*
X146645418Y-94325600D01*
X142626400Y-94325600D01*
X142585850Y-94321606D01*
X142545299Y-94325600D01*
X142545297Y-94325600D01*
X142424024Y-94337544D01*
X142268416Y-94384747D01*
X142125007Y-94461401D01*
X142075701Y-94501865D01*
X142132039Y-94316144D01*
X142149100Y-94142923D01*
X142149100Y-93333332D01*
X142680833Y-92801600D01*
X142729597Y-92801600D01*
X142756824Y-92842348D01*
X142946102Y-93031626D01*
X143168670Y-93180341D01*
X143415974Y-93282778D01*
X143678510Y-93335000D01*
X143946190Y-93335000D01*
X144208726Y-93282778D01*
X144456030Y-93180341D01*
X144678598Y-93031626D01*
X144867876Y-92842348D01*
X145016591Y-92619780D01*
X145119028Y-92372476D01*
X145171250Y-92109940D01*
X145171250Y-91842260D01*
X145119028Y-91579724D01*
X145016591Y-91332420D01*
X144867876Y-91109852D01*
X144678598Y-90920574D01*
X144456030Y-90771859D01*
X144208726Y-90669422D01*
X143946190Y-90617200D01*
X143678510Y-90617200D01*
X143415974Y-90669422D01*
X143168670Y-90771859D01*
X142946102Y-90920574D01*
X142756824Y-91109852D01*
X142729597Y-91150600D01*
X142379450Y-91150600D01*
X142338900Y-91146606D01*
X142298349Y-91150600D01*
X142298347Y-91150600D01*
X142177074Y-91162544D01*
X142021466Y-91209747D01*
X141878057Y-91286401D01*
X141821983Y-91332420D01*
X141752359Y-91389559D01*
X141726506Y-91421061D01*
X141562719Y-91584848D01*
X141423404Y-91510383D01*
X141201143Y-91442961D01*
X140970000Y-91420195D01*
X140738856Y-91442961D01*
X140516595Y-91510383D01*
X140311758Y-91619871D01*
X140132216Y-91767216D01*
X139984871Y-91946759D01*
X139875383Y-92151596D01*
X139807961Y-92373857D01*
X139790900Y-92547078D01*
X139790900Y-94142923D01*
X139807961Y-94316144D01*
X139875384Y-94538405D01*
X139984872Y-94743242D01*
X140132217Y-94922784D01*
X140311759Y-95070129D01*
X140516596Y-95179617D01*
X140738857Y-95247039D01*
X140970000Y-95269805D01*
X141201144Y-95247039D01*
X141375310Y-95194206D01*
X140308356Y-96261161D01*
X140260290Y-96251600D01*
X139992610Y-96251600D01*
X139730074Y-96303822D01*
X139482770Y-96406259D01*
X139260202Y-96554974D01*
X139070924Y-96744252D01*
X139043697Y-96785000D01*
X138184634Y-96785000D01*
X136715500Y-95315868D01*
X136715500Y-94932865D01*
X136727784Y-94922784D01*
X136875129Y-94743242D01*
X136984617Y-94538405D01*
X137052039Y-94316144D01*
X137069100Y-94142923D01*
X137069100Y-92547077D01*
X137052039Y-92373856D01*
X136984617Y-92151595D01*
X136875129Y-91946758D01*
X136727784Y-91767216D01*
X136548241Y-91619871D01*
X136343404Y-91510383D01*
X136121143Y-91442961D01*
X135890000Y-91420195D01*
X135658856Y-91442961D01*
X135436595Y-91510383D01*
X135231758Y-91619871D01*
X135052216Y-91767216D01*
X134904871Y-91946759D01*
X134795383Y-92151596D01*
X134727961Y-92373857D01*
X134710900Y-92547078D01*
X134481450Y-92547078D01*
X134481450Y-92247085D01*
X134407700Y-91876319D01*
X134263035Y-91527065D01*
X134053013Y-91212745D01*
X133785705Y-90945437D01*
X133471385Y-90735415D01*
X133122131Y-90590750D01*
X132751365Y-90517000D01*
X132373335Y-90517000D01*
X132002569Y-90590750D01*
X131653315Y-90735415D01*
X131338995Y-90945437D01*
X131071687Y-91212745D01*
X130861665Y-91527065D01*
X130717000Y-91876319D01*
X130643250Y-92247085D01*
X123461450Y-92247085D01*
X123461450Y-90482700D01*
X173540751Y-90482700D01*
X173540750Y-119524500D01*
G04 #@! TD*
M02*
