%FSLAX45Y45*%
G04 Gerber Fmt 4.5, Leading zero omitted, Abs format (unit mm)*
G04 Created by KiCad (PCBNEW 5.99.0-unknown-d4461f6c5~91~ubuntu20.04.1) date 2020-09-15 15:23:29*
%MOMM*%
%LPD*%
G01*
G04 APERTURE LIST*
%TA.AperFunction,Profile*%
%ADD10C,0.150000*%
%TD*%
%ADD11C,0.200000*%
%ADD12C,0.080000*%
%ADD13C,0.081280*%
%ADD14C,0.090000*%
%ADD15C,0.091440*%
%ADD16C,0.101600*%
%ADD17C,0.110000*%
%ADD18C,0.220000*%
%ADD19C,0.300000*%
G04 APERTURE END LIST*
D10*
X17403485Y-12001860D02*
X17403485Y-8998860D01*
X12296735Y-8998860D02*
X12296735Y-12001860D01*
X17403485Y-8998860D02*
X12296735Y-8998860D01*
X12296735Y-12001860D02*
X17403485Y-12001860D01*
D11*
D12*
X15149200Y-9688200D02*
X15229200Y-9768200D01*
X15229200Y-9688200D02*
X15149200Y-9768200D01*
X15149200Y-9938200D02*
X15229200Y-10018200D01*
X15229200Y-9938200D02*
X15149200Y-10018200D01*
X15606400Y-10069200D02*
X15686400Y-10149200D01*
X15686400Y-10069200D02*
X15606400Y-10149200D01*
X15606400Y-10831200D02*
X15686400Y-10911200D01*
X15686400Y-10831200D02*
X15606400Y-10911200D01*
X15860400Y-10069200D02*
X15940400Y-10149200D01*
X15940400Y-10069200D02*
X15860400Y-10149200D01*
X15860400Y-10831200D02*
X15940400Y-10911200D01*
X15940400Y-10831200D02*
X15860400Y-10911200D01*
X16114400Y-10069200D02*
X16194400Y-10149200D01*
X16194400Y-10069200D02*
X16114400Y-10149200D01*
X16114400Y-10831200D02*
X16194400Y-10911200D01*
X16194400Y-10831200D02*
X16114400Y-10911200D01*
X16368400Y-10069200D02*
X16448400Y-10149200D01*
X16448400Y-10069200D02*
X16368400Y-10149200D01*
X16368400Y-10831200D02*
X16448400Y-10911200D01*
X16448400Y-10831200D02*
X16368400Y-10911200D01*
X13549000Y-9294500D02*
X13629000Y-9374500D01*
X13629000Y-9294500D02*
X13549000Y-9374500D01*
X13803000Y-9294500D02*
X13883000Y-9374500D01*
X13883000Y-9294500D02*
X13803000Y-9374500D01*
X14057000Y-9294500D02*
X14137000Y-9374500D01*
X14137000Y-9294500D02*
X14057000Y-9374500D01*
D13*
X14975840Y-11480800D02*
G75*
G03*
X14975840Y-11480800I-40640J0D01*
G01*
X14975840Y-11734800D02*
G75*
G03*
X14975840Y-11734800I-40640J0D01*
G01*
X14455140Y-9779000D02*
G75*
G03*
X14455140Y-9779000I-40640J0D01*
G01*
X14709140Y-9779000D02*
G75*
G03*
X14709140Y-9779000I-40640J0D01*
G01*
X14467840Y-11480800D02*
G75*
G03*
X14467840Y-11480800I-40640J0D01*
G01*
X14467840Y-11734800D02*
G75*
G03*
X14467840Y-11734800I-40640J0D01*
G01*
D14*
X13124485Y-11232600D02*
X13124485Y-11322600D01*
X13079485Y-11277600D02*
X13169485Y-11277600D01*
X14140485Y-11232600D02*
X14140485Y-11322600D01*
X14095485Y-11277600D02*
X14185485Y-11277600D01*
X13124485Y-10644310D02*
X13124485Y-10734310D01*
X13079485Y-10689310D02*
X13169485Y-10689310D01*
X14140485Y-10644310D02*
X14140485Y-10734310D01*
X14095485Y-10689310D02*
X14185485Y-10689310D01*
X14432085Y-10009310D02*
X14432085Y-10099310D01*
X14387085Y-10054310D02*
X14477085Y-10054310D01*
X14432085Y-11025310D02*
X14432085Y-11115310D01*
X14387085Y-11070310D02*
X14477085Y-11070310D01*
X13233685Y-10000210D02*
X13233685Y-10090210D01*
X13188685Y-10045210D02*
X13278685Y-10045210D01*
X13995685Y-10000210D02*
X13995685Y-10090210D01*
X13950685Y-10045210D02*
X14040685Y-10045210D01*
X13118235Y-10347810D02*
X13118235Y-10437810D01*
X13073235Y-10392810D02*
X13163235Y-10392810D01*
X14134235Y-10347810D02*
X14134235Y-10437810D01*
X14089235Y-10392810D02*
X14179235Y-10392810D01*
X13250645Y-9716050D02*
X13250645Y-9806050D01*
X13205645Y-9761050D02*
X13295645Y-9761050D01*
X14012645Y-9716050D02*
X14012645Y-9806050D01*
X13967645Y-9761050D02*
X14057645Y-9761050D01*
X13243585Y-10936410D02*
X13243585Y-11026410D01*
X13198585Y-10981410D02*
X13288585Y-10981410D01*
X14005585Y-10936410D02*
X14005585Y-11026410D01*
X13960585Y-10981410D02*
X14050585Y-10981410D01*
X14748585Y-10009310D02*
X14748585Y-10099310D01*
X14703585Y-10054310D02*
X14793585Y-10054310D01*
X14748585Y-11025310D02*
X14748585Y-11115310D01*
X14703585Y-11070310D02*
X14793585Y-11070310D01*
D15*
X12867564Y-10184189D02*
X12867564Y-10119531D01*
X12802906Y-10119531D01*
X12802906Y-10184189D01*
X12867564Y-10184189D01*
X12867564Y-10421489D02*
X12867564Y-10356831D01*
X12802906Y-10356831D01*
X12802906Y-10421489D01*
X12867564Y-10421489D01*
X12867564Y-10646889D02*
X12867564Y-10582231D01*
X12802906Y-10582231D01*
X12802906Y-10646889D01*
X12867564Y-10646889D01*
X12867564Y-10884189D02*
X12867564Y-10819531D01*
X12802906Y-10819531D01*
X12802906Y-10884189D01*
X12867564Y-10884189D01*
D16*
X14381235Y-9248410D02*
X14432035Y-9197610D01*
X14381235Y-9146810D01*
X14330435Y-9197610D01*
X14381235Y-9248410D01*
X14635235Y-9248410D02*
X14686035Y-9197610D01*
X14635235Y-9146810D01*
X14584435Y-9197610D01*
X14635235Y-9248410D01*
X14889235Y-9248410D02*
X14940035Y-9197610D01*
X14889235Y-9146810D01*
X14838435Y-9197610D01*
X14889235Y-9248410D01*
X16887985Y-9648910D02*
X16938785Y-9598110D01*
X16887985Y-9547310D01*
X16837185Y-9598110D01*
X16887985Y-9648910D01*
X16887985Y-9902910D02*
X16938785Y-9852110D01*
X16887985Y-9801310D01*
X16837185Y-9852110D01*
X16887985Y-9902910D01*
X16887985Y-10156910D02*
X16938785Y-10106110D01*
X16887985Y-10055310D01*
X16837185Y-10106110D01*
X16887985Y-10156910D01*
X16887985Y-10410910D02*
X16938785Y-10360110D01*
X16887985Y-10309310D01*
X16837185Y-10360110D01*
X16887985Y-10410910D01*
X16887985Y-10664910D02*
X16938785Y-10614110D01*
X16887985Y-10563310D01*
X16837185Y-10614110D01*
X16887985Y-10664910D01*
X16887985Y-10918910D02*
X16938785Y-10868110D01*
X16887985Y-10817310D01*
X16837185Y-10868110D01*
X16887985Y-10918910D01*
X16887985Y-11172910D02*
X16938785Y-11122110D01*
X16887985Y-11071310D01*
X16837185Y-11122110D01*
X16887985Y-11172910D01*
X16887985Y-11426910D02*
X16938785Y-11376110D01*
X16887985Y-11325310D01*
X16837185Y-11376110D01*
X16887985Y-11426910D01*
X15727680Y-9248140D02*
X15778480Y-9197340D01*
X15727680Y-9146540D01*
X15676880Y-9197340D01*
X15727680Y-9248140D01*
X15727680Y-9700260D02*
X15778480Y-9649460D01*
X15727680Y-9598660D01*
X15676880Y-9649460D01*
X15727680Y-9700260D01*
X16377920Y-9248140D02*
X16428720Y-9197340D01*
X16377920Y-9146540D01*
X16327120Y-9197340D01*
X16377920Y-9248140D01*
X16377920Y-9700260D02*
X16428720Y-9649460D01*
X16377920Y-9598660D01*
X16327120Y-9649460D01*
X16377920Y-9700260D01*
D17*
X12530235Y-10221860D02*
X12640235Y-10331860D01*
X12640235Y-10221860D02*
X12530235Y-10331860D01*
X12640235Y-10276860D02*
G75*
G03*
X12640235Y-10276860I-55000J0D01*
G01*
X12530235Y-10671860D02*
X12640235Y-10781860D01*
X12640235Y-10671860D02*
X12530235Y-10781860D01*
X12640235Y-10726860D02*
G75*
G03*
X12640235Y-10726860I-55000J0D01*
G01*
D18*
X12485235Y-9811860D02*
X12705235Y-10031860D01*
X12705235Y-9811860D02*
X12485235Y-10031860D01*
X12595235Y-9811860D02*
X12595235Y-10031860D01*
X12485235Y-9921860D02*
X12705235Y-9921860D01*
X12485235Y-10971860D02*
X12705235Y-11191860D01*
X12705235Y-10971860D02*
X12485235Y-11191860D01*
X12595235Y-10971860D02*
X12595235Y-11191860D01*
X12485235Y-11081860D02*
X12705235Y-11081860D01*
D19*
X17006235Y-9093610D02*
X17306235Y-9393610D01*
X17306235Y-9093610D02*
X17006235Y-9393610D01*
X17262302Y-9349677D02*
X17262302Y-9137543D01*
X17050168Y-9137543D01*
X17050168Y-9349677D01*
X17262302Y-9349677D01*
X17006235Y-11593610D02*
X17306235Y-11893610D01*
X17306235Y-11593610D02*
X17006235Y-11893610D01*
X17262302Y-11849677D02*
X17262302Y-11637543D01*
X17050168Y-11637543D01*
X17050168Y-11849677D01*
X17262302Y-11849677D01*
X13106235Y-11593610D02*
X13406235Y-11893610D01*
X13406235Y-11593610D02*
X13106235Y-11893610D01*
X13362302Y-11849677D02*
X13362302Y-11637543D01*
X13150168Y-11637543D01*
X13150168Y-11849677D01*
X13362302Y-11849677D01*
X13106235Y-9093610D02*
X13406235Y-9393610D01*
X13406235Y-9093610D02*
X13106235Y-9393610D01*
X13362302Y-9349677D02*
X13362302Y-9137543D01*
X13150168Y-9137543D01*
X13150168Y-9349677D01*
X13362302Y-9349677D01*
D11*
X12546854Y-12319836D02*
X12546854Y-12119836D01*
X12594473Y-12119836D01*
X12623044Y-12129360D01*
X12642092Y-12148408D01*
X12651616Y-12167455D01*
X12661140Y-12205550D01*
X12661140Y-12234122D01*
X12651616Y-12272217D01*
X12642092Y-12291265D01*
X12623044Y-12310312D01*
X12594473Y-12319836D01*
X12546854Y-12319836D01*
X12746854Y-12319836D02*
X12746854Y-12186503D01*
X12746854Y-12224598D02*
X12756378Y-12205550D01*
X12765901Y-12196027D01*
X12784949Y-12186503D01*
X12803997Y-12186503D01*
X12870663Y-12319836D02*
X12870663Y-12186503D01*
X12870663Y-12119836D02*
X12861140Y-12129360D01*
X12870663Y-12138884D01*
X12880187Y-12129360D01*
X12870663Y-12119836D01*
X12870663Y-12138884D01*
X12994473Y-12319836D02*
X12975425Y-12310312D01*
X12965901Y-12291265D01*
X12965901Y-12119836D01*
X13099235Y-12319836D02*
X13080187Y-12310312D01*
X13070663Y-12291265D01*
X13070663Y-12119836D01*
X13327806Y-12319836D02*
X13327806Y-12119836D01*
X13394473Y-12262693D01*
X13461140Y-12119836D01*
X13461140Y-12319836D01*
X13642092Y-12319836D02*
X13642092Y-12215074D01*
X13632568Y-12196027D01*
X13613521Y-12186503D01*
X13575425Y-12186503D01*
X13556378Y-12196027D01*
X13642092Y-12310312D02*
X13623044Y-12319836D01*
X13575425Y-12319836D01*
X13556378Y-12310312D01*
X13546854Y-12291265D01*
X13546854Y-12272217D01*
X13556378Y-12253170D01*
X13575425Y-12243646D01*
X13623044Y-12243646D01*
X13642092Y-12234122D01*
X13737330Y-12186503D02*
X13737330Y-12386503D01*
X13737330Y-12196027D02*
X13756378Y-12186503D01*
X13794473Y-12186503D01*
X13813521Y-12196027D01*
X13823044Y-12205550D01*
X13832568Y-12224598D01*
X13832568Y-12281741D01*
X13823044Y-12300789D01*
X13813521Y-12310312D01*
X13794473Y-12319836D01*
X13756378Y-12319836D01*
X13737330Y-12310312D01*
X13918282Y-12300789D02*
X13927806Y-12310312D01*
X13918282Y-12319836D01*
X13908759Y-12310312D01*
X13918282Y-12300789D01*
X13918282Y-12319836D01*
X13918282Y-12196027D02*
X13927806Y-12205550D01*
X13918282Y-12215074D01*
X13908759Y-12205550D01*
X13918282Y-12196027D01*
X13918282Y-12215074D01*
D12*
X12209235Y-12609360D02*
X12289235Y-12689360D01*
X12289235Y-12609360D02*
X12209235Y-12689360D01*
D11*
X12584949Y-12539836D02*
X12603997Y-12539836D01*
X12623044Y-12549360D01*
X12632568Y-12558884D01*
X12642092Y-12577931D01*
X12651616Y-12616027D01*
X12651616Y-12663646D01*
X12642092Y-12701741D01*
X12632568Y-12720789D01*
X12623044Y-12730312D01*
X12603997Y-12739836D01*
X12584949Y-12739836D01*
X12565901Y-12730312D01*
X12556378Y-12720789D01*
X12546854Y-12701741D01*
X12537330Y-12663646D01*
X12537330Y-12616027D01*
X12546854Y-12577931D01*
X12556378Y-12558884D01*
X12565901Y-12549360D01*
X12584949Y-12539836D01*
X12737330Y-12720789D02*
X12746854Y-12730312D01*
X12737330Y-12739836D01*
X12727806Y-12730312D01*
X12737330Y-12720789D01*
X12737330Y-12739836D01*
X12861140Y-12625550D02*
X12842092Y-12616027D01*
X12832568Y-12606503D01*
X12823044Y-12587455D01*
X12823044Y-12577931D01*
X12832568Y-12558884D01*
X12842092Y-12549360D01*
X12861140Y-12539836D01*
X12899235Y-12539836D01*
X12918282Y-12549360D01*
X12927806Y-12558884D01*
X12937330Y-12577931D01*
X12937330Y-12587455D01*
X12927806Y-12606503D01*
X12918282Y-12616027D01*
X12899235Y-12625550D01*
X12861140Y-12625550D01*
X12842092Y-12635074D01*
X12832568Y-12644598D01*
X12823044Y-12663646D01*
X12823044Y-12701741D01*
X12832568Y-12720789D01*
X12842092Y-12730312D01*
X12861140Y-12739836D01*
X12899235Y-12739836D01*
X12918282Y-12730312D01*
X12927806Y-12720789D01*
X12937330Y-12701741D01*
X12937330Y-12663646D01*
X12927806Y-12644598D01*
X12918282Y-12635074D01*
X12899235Y-12625550D01*
X13061140Y-12539836D02*
X13080187Y-12539836D01*
X13099235Y-12549360D01*
X13108759Y-12558884D01*
X13118282Y-12577931D01*
X13127806Y-12616027D01*
X13127806Y-12663646D01*
X13118282Y-12701741D01*
X13108759Y-12720789D01*
X13099235Y-12730312D01*
X13080187Y-12739836D01*
X13061140Y-12739836D01*
X13042092Y-12730312D01*
X13032568Y-12720789D01*
X13023044Y-12701741D01*
X13013521Y-12663646D01*
X13013521Y-12616027D01*
X13023044Y-12577931D01*
X13032568Y-12558884D01*
X13042092Y-12549360D01*
X13061140Y-12539836D01*
X13251616Y-12539836D02*
X13270663Y-12539836D01*
X13289711Y-12549360D01*
X13299235Y-12558884D01*
X13308759Y-12577931D01*
X13318282Y-12616027D01*
X13318282Y-12663646D01*
X13308759Y-12701741D01*
X13299235Y-12720789D01*
X13289711Y-12730312D01*
X13270663Y-12739836D01*
X13251616Y-12739836D01*
X13232568Y-12730312D01*
X13223044Y-12720789D01*
X13213521Y-12701741D01*
X13203997Y-12663646D01*
X13203997Y-12616027D01*
X13213521Y-12577931D01*
X13223044Y-12558884D01*
X13232568Y-12549360D01*
X13251616Y-12539836D01*
X13403997Y-12739836D02*
X13403997Y-12606503D01*
X13403997Y-12625550D02*
X13413521Y-12616027D01*
X13432568Y-12606503D01*
X13461140Y-12606503D01*
X13480187Y-12616027D01*
X13489711Y-12635074D01*
X13489711Y-12739836D01*
X13489711Y-12635074D02*
X13499235Y-12616027D01*
X13518282Y-12606503D01*
X13546854Y-12606503D01*
X13565901Y-12616027D01*
X13575425Y-12635074D01*
X13575425Y-12739836D01*
X13670663Y-12739836D02*
X13670663Y-12606503D01*
X13670663Y-12625550D02*
X13680187Y-12616027D01*
X13699235Y-12606503D01*
X13727806Y-12606503D01*
X13746854Y-12616027D01*
X13756378Y-12635074D01*
X13756378Y-12739836D01*
X13756378Y-12635074D02*
X13765901Y-12616027D01*
X13784949Y-12606503D01*
X13813521Y-12606503D01*
X13832568Y-12616027D01*
X13842092Y-12635074D01*
X13842092Y-12739836D01*
X14232568Y-12530312D02*
X14061140Y-12787455D01*
X14489711Y-12539836D02*
X14508759Y-12539836D01*
X14527806Y-12549360D01*
X14537330Y-12558884D01*
X14546854Y-12577931D01*
X14556378Y-12616027D01*
X14556378Y-12663646D01*
X14546854Y-12701741D01*
X14537330Y-12720789D01*
X14527806Y-12730312D01*
X14508759Y-12739836D01*
X14489711Y-12739836D01*
X14470663Y-12730312D01*
X14461140Y-12720789D01*
X14451616Y-12701741D01*
X14442092Y-12663646D01*
X14442092Y-12616027D01*
X14451616Y-12577931D01*
X14461140Y-12558884D01*
X14470663Y-12549360D01*
X14489711Y-12539836D01*
X14642092Y-12720789D02*
X14651616Y-12730312D01*
X14642092Y-12739836D01*
X14632568Y-12730312D01*
X14642092Y-12720789D01*
X14642092Y-12739836D01*
X14775425Y-12539836D02*
X14794473Y-12539836D01*
X14813521Y-12549360D01*
X14823044Y-12558884D01*
X14832568Y-12577931D01*
X14842092Y-12616027D01*
X14842092Y-12663646D01*
X14832568Y-12701741D01*
X14823044Y-12720789D01*
X14813521Y-12730312D01*
X14794473Y-12739836D01*
X14775425Y-12739836D01*
X14756378Y-12730312D01*
X14746854Y-12720789D01*
X14737330Y-12701741D01*
X14727806Y-12663646D01*
X14727806Y-12616027D01*
X14737330Y-12577931D01*
X14746854Y-12558884D01*
X14756378Y-12549360D01*
X14775425Y-12539836D01*
X14908759Y-12539836D02*
X15032568Y-12539836D01*
X14965901Y-12616027D01*
X14994473Y-12616027D01*
X15013521Y-12625550D01*
X15023044Y-12635074D01*
X15032568Y-12654122D01*
X15032568Y-12701741D01*
X15023044Y-12720789D01*
X15013521Y-12730312D01*
X14994473Y-12739836D01*
X14937330Y-12739836D01*
X14918282Y-12730312D01*
X14908759Y-12720789D01*
X15223044Y-12739836D02*
X15108759Y-12739836D01*
X15165901Y-12739836D02*
X15165901Y-12539836D01*
X15146854Y-12568408D01*
X15127806Y-12587455D01*
X15108759Y-12596979D01*
X15403997Y-12539836D02*
X15308759Y-12539836D01*
X15299235Y-12635074D01*
X15308759Y-12625550D01*
X15327806Y-12616027D01*
X15375425Y-12616027D01*
X15394473Y-12625550D01*
X15403997Y-12635074D01*
X15413521Y-12654122D01*
X15413521Y-12701741D01*
X15403997Y-12720789D01*
X15394473Y-12730312D01*
X15375425Y-12739836D01*
X15327806Y-12739836D01*
X15308759Y-12730312D01*
X15299235Y-12720789D01*
X15489711Y-12539836D02*
X15489711Y-12577931D01*
X15565901Y-12539836D02*
X15565901Y-12577931D01*
X15861140Y-12816027D02*
X15851616Y-12806503D01*
X15832568Y-12777931D01*
X15823044Y-12758884D01*
X15813521Y-12730312D01*
X15803997Y-12682693D01*
X15803997Y-12644598D01*
X15813521Y-12596979D01*
X15823044Y-12568408D01*
X15832568Y-12549360D01*
X15851616Y-12520789D01*
X15861140Y-12511265D01*
X16042092Y-12739836D02*
X15927806Y-12739836D01*
X15984949Y-12739836D02*
X15984949Y-12539836D01*
X15965901Y-12568408D01*
X15946854Y-12587455D01*
X15927806Y-12596979D01*
X16108759Y-12539836D02*
X16232568Y-12539836D01*
X16165901Y-12616027D01*
X16194473Y-12616027D01*
X16213521Y-12625550D01*
X16223044Y-12635074D01*
X16232568Y-12654122D01*
X16232568Y-12701741D01*
X16223044Y-12720789D01*
X16213521Y-12730312D01*
X16194473Y-12739836D01*
X16137330Y-12739836D01*
X16118282Y-12730312D01*
X16108759Y-12720789D01*
X16470663Y-12739836D02*
X16470663Y-12539836D01*
X16556378Y-12739836D02*
X16556378Y-12635074D01*
X16546854Y-12616027D01*
X16527806Y-12606503D01*
X16499235Y-12606503D01*
X16480187Y-12616027D01*
X16470663Y-12625550D01*
X16680187Y-12739836D02*
X16661140Y-12730312D01*
X16651616Y-12720789D01*
X16642092Y-12701741D01*
X16642092Y-12644598D01*
X16651616Y-12625550D01*
X16661140Y-12616027D01*
X16680187Y-12606503D01*
X16708759Y-12606503D01*
X16727806Y-12616027D01*
X16737330Y-12625550D01*
X16746854Y-12644598D01*
X16746854Y-12701741D01*
X16737330Y-12720789D01*
X16727806Y-12730312D01*
X16708759Y-12739836D01*
X16680187Y-12739836D01*
X16861140Y-12739836D02*
X16842092Y-12730312D01*
X16832568Y-12711265D01*
X16832568Y-12539836D01*
X17013521Y-12730312D02*
X16994473Y-12739836D01*
X16956378Y-12739836D01*
X16937330Y-12730312D01*
X16927806Y-12711265D01*
X16927806Y-12635074D01*
X16937330Y-12616027D01*
X16956378Y-12606503D01*
X16994473Y-12606503D01*
X17013521Y-12616027D01*
X17023044Y-12635074D01*
X17023044Y-12654122D01*
X16927806Y-12673170D01*
X17099235Y-12730312D02*
X17118283Y-12739836D01*
X17156378Y-12739836D01*
X17175425Y-12730312D01*
X17184949Y-12711265D01*
X17184949Y-12701741D01*
X17175425Y-12682693D01*
X17156378Y-12673170D01*
X17127806Y-12673170D01*
X17108759Y-12663646D01*
X17099235Y-12644598D01*
X17099235Y-12635074D01*
X17108759Y-12616027D01*
X17127806Y-12606503D01*
X17156378Y-12606503D01*
X17175425Y-12616027D01*
X17251616Y-12816027D02*
X17261140Y-12806503D01*
X17280187Y-12777931D01*
X17289711Y-12758884D01*
X17299235Y-12730312D01*
X17308759Y-12682693D01*
X17308759Y-12644598D01*
X17299235Y-12596979D01*
X17289711Y-12568408D01*
X17280187Y-12549360D01*
X17261140Y-12520789D01*
X17251616Y-12511265D01*
D13*
X12289235Y-12913360D02*
G75*
G03*
X12289235Y-12913360I-40640J0D01*
G01*
D11*
X12584949Y-12803836D02*
X12603997Y-12803836D01*
X12623044Y-12813360D01*
X12632568Y-12822884D01*
X12642092Y-12841931D01*
X12651616Y-12880027D01*
X12651616Y-12927646D01*
X12642092Y-12965741D01*
X12632568Y-12984789D01*
X12623044Y-12994312D01*
X12603997Y-13003836D01*
X12584949Y-13003836D01*
X12565901Y-12994312D01*
X12556378Y-12984789D01*
X12546854Y-12965741D01*
X12537330Y-12927646D01*
X12537330Y-12880027D01*
X12546854Y-12841931D01*
X12556378Y-12822884D01*
X12565901Y-12813360D01*
X12584949Y-12803836D01*
X12737330Y-12984789D02*
X12746854Y-12994312D01*
X12737330Y-13003836D01*
X12727806Y-12994312D01*
X12737330Y-12984789D01*
X12737330Y-13003836D01*
X12861140Y-12889550D02*
X12842092Y-12880027D01*
X12832568Y-12870503D01*
X12823044Y-12851455D01*
X12823044Y-12841931D01*
X12832568Y-12822884D01*
X12842092Y-12813360D01*
X12861140Y-12803836D01*
X12899235Y-12803836D01*
X12918282Y-12813360D01*
X12927806Y-12822884D01*
X12937330Y-12841931D01*
X12937330Y-12851455D01*
X12927806Y-12870503D01*
X12918282Y-12880027D01*
X12899235Y-12889550D01*
X12861140Y-12889550D01*
X12842092Y-12899074D01*
X12832568Y-12908598D01*
X12823044Y-12927646D01*
X12823044Y-12965741D01*
X12832568Y-12984789D01*
X12842092Y-12994312D01*
X12861140Y-13003836D01*
X12899235Y-13003836D01*
X12918282Y-12994312D01*
X12927806Y-12984789D01*
X12937330Y-12965741D01*
X12937330Y-12927646D01*
X12927806Y-12908598D01*
X12918282Y-12899074D01*
X12899235Y-12889550D01*
X13127806Y-13003836D02*
X13013521Y-13003836D01*
X13070663Y-13003836D02*
X13070663Y-12803836D01*
X13051616Y-12832408D01*
X13032568Y-12851455D01*
X13013521Y-12860979D01*
X13194473Y-12803836D02*
X13318282Y-12803836D01*
X13251616Y-12880027D01*
X13280187Y-12880027D01*
X13299235Y-12889550D01*
X13308759Y-12899074D01*
X13318282Y-12918122D01*
X13318282Y-12965741D01*
X13308759Y-12984789D01*
X13299235Y-12994312D01*
X13280187Y-13003836D01*
X13223044Y-13003836D01*
X13203997Y-12994312D01*
X13194473Y-12984789D01*
X13403997Y-13003836D02*
X13403997Y-12870503D01*
X13403997Y-12889550D02*
X13413521Y-12880027D01*
X13432568Y-12870503D01*
X13461140Y-12870503D01*
X13480187Y-12880027D01*
X13489711Y-12899074D01*
X13489711Y-13003836D01*
X13489711Y-12899074D02*
X13499235Y-12880027D01*
X13518282Y-12870503D01*
X13546854Y-12870503D01*
X13565901Y-12880027D01*
X13575425Y-12899074D01*
X13575425Y-13003836D01*
X13670663Y-13003836D02*
X13670663Y-12870503D01*
X13670663Y-12889550D02*
X13680187Y-12880027D01*
X13699235Y-12870503D01*
X13727806Y-12870503D01*
X13746854Y-12880027D01*
X13756378Y-12899074D01*
X13756378Y-13003836D01*
X13756378Y-12899074D02*
X13765901Y-12880027D01*
X13784949Y-12870503D01*
X13813521Y-12870503D01*
X13832568Y-12880027D01*
X13842092Y-12899074D01*
X13842092Y-13003836D01*
X14232568Y-12794312D02*
X14061140Y-13051455D01*
X14489711Y-12803836D02*
X14508759Y-12803836D01*
X14527806Y-12813360D01*
X14537330Y-12822884D01*
X14546854Y-12841931D01*
X14556378Y-12880027D01*
X14556378Y-12927646D01*
X14546854Y-12965741D01*
X14537330Y-12984789D01*
X14527806Y-12994312D01*
X14508759Y-13003836D01*
X14489711Y-13003836D01*
X14470663Y-12994312D01*
X14461140Y-12984789D01*
X14451616Y-12965741D01*
X14442092Y-12927646D01*
X14442092Y-12880027D01*
X14451616Y-12841931D01*
X14461140Y-12822884D01*
X14470663Y-12813360D01*
X14489711Y-12803836D01*
X14642092Y-12984789D02*
X14651616Y-12994312D01*
X14642092Y-13003836D01*
X14632568Y-12994312D01*
X14642092Y-12984789D01*
X14642092Y-13003836D01*
X14775425Y-12803836D02*
X14794473Y-12803836D01*
X14813521Y-12813360D01*
X14823044Y-12822884D01*
X14832568Y-12841931D01*
X14842092Y-12880027D01*
X14842092Y-12927646D01*
X14832568Y-12965741D01*
X14823044Y-12984789D01*
X14813521Y-12994312D01*
X14794473Y-13003836D01*
X14775425Y-13003836D01*
X14756378Y-12994312D01*
X14746854Y-12984789D01*
X14737330Y-12965741D01*
X14727806Y-12927646D01*
X14727806Y-12880027D01*
X14737330Y-12841931D01*
X14746854Y-12822884D01*
X14756378Y-12813360D01*
X14775425Y-12803836D01*
X14908759Y-12803836D02*
X15032568Y-12803836D01*
X14965901Y-12880027D01*
X14994473Y-12880027D01*
X15013521Y-12889550D01*
X15023044Y-12899074D01*
X15032568Y-12918122D01*
X15032568Y-12965741D01*
X15023044Y-12984789D01*
X15013521Y-12994312D01*
X14994473Y-13003836D01*
X14937330Y-13003836D01*
X14918282Y-12994312D01*
X14908759Y-12984789D01*
X15108759Y-12822884D02*
X15118282Y-12813360D01*
X15137330Y-12803836D01*
X15184949Y-12803836D01*
X15203997Y-12813360D01*
X15213521Y-12822884D01*
X15223044Y-12841931D01*
X15223044Y-12860979D01*
X15213521Y-12889550D01*
X15099235Y-13003836D01*
X15223044Y-13003836D01*
X15346854Y-12803836D02*
X15365901Y-12803836D01*
X15384949Y-12813360D01*
X15394473Y-12822884D01*
X15403997Y-12841931D01*
X15413521Y-12880027D01*
X15413521Y-12927646D01*
X15403997Y-12965741D01*
X15394473Y-12984789D01*
X15384949Y-12994312D01*
X15365901Y-13003836D01*
X15346854Y-13003836D01*
X15327806Y-12994312D01*
X15318282Y-12984789D01*
X15308759Y-12965741D01*
X15299235Y-12927646D01*
X15299235Y-12880027D01*
X15308759Y-12841931D01*
X15318282Y-12822884D01*
X15327806Y-12813360D01*
X15346854Y-12803836D01*
X15489711Y-12803836D02*
X15489711Y-12841931D01*
X15565901Y-12803836D02*
X15565901Y-12841931D01*
X15861140Y-13080027D02*
X15851616Y-13070503D01*
X15832568Y-13041931D01*
X15823044Y-13022884D01*
X15813521Y-12994312D01*
X15803997Y-12946693D01*
X15803997Y-12908598D01*
X15813521Y-12860979D01*
X15823044Y-12832408D01*
X15832568Y-12813360D01*
X15851616Y-12784789D01*
X15861140Y-12775265D01*
X16023044Y-12803836D02*
X15984949Y-12803836D01*
X15965901Y-12813360D01*
X15956378Y-12822884D01*
X15937330Y-12851455D01*
X15927806Y-12889550D01*
X15927806Y-12965741D01*
X15937330Y-12984789D01*
X15946854Y-12994312D01*
X15965901Y-13003836D01*
X16003997Y-13003836D01*
X16023044Y-12994312D01*
X16032568Y-12984789D01*
X16042092Y-12965741D01*
X16042092Y-12918122D01*
X16032568Y-12899074D01*
X16023044Y-12889550D01*
X16003997Y-12880027D01*
X15965901Y-12880027D01*
X15946854Y-12889550D01*
X15937330Y-12899074D01*
X15927806Y-12918122D01*
X16280187Y-13003836D02*
X16280187Y-12803836D01*
X16365901Y-13003836D02*
X16365901Y-12899074D01*
X16356378Y-12880027D01*
X16337330Y-12870503D01*
X16308759Y-12870503D01*
X16289711Y-12880027D01*
X16280187Y-12889550D01*
X16489711Y-13003836D02*
X16470663Y-12994312D01*
X16461140Y-12984789D01*
X16451616Y-12965741D01*
X16451616Y-12908598D01*
X16461140Y-12889550D01*
X16470663Y-12880027D01*
X16489711Y-12870503D01*
X16518282Y-12870503D01*
X16537330Y-12880027D01*
X16546854Y-12889550D01*
X16556378Y-12908598D01*
X16556378Y-12965741D01*
X16546854Y-12984789D01*
X16537330Y-12994312D01*
X16518282Y-13003836D01*
X16489711Y-13003836D01*
X16670663Y-13003836D02*
X16651616Y-12994312D01*
X16642092Y-12975265D01*
X16642092Y-12803836D01*
X16823044Y-12994312D02*
X16803997Y-13003836D01*
X16765901Y-13003836D01*
X16746854Y-12994312D01*
X16737330Y-12975265D01*
X16737330Y-12899074D01*
X16746854Y-12880027D01*
X16765901Y-12870503D01*
X16803997Y-12870503D01*
X16823044Y-12880027D01*
X16832568Y-12899074D01*
X16832568Y-12918122D01*
X16737330Y-12937170D01*
X16908759Y-12994312D02*
X16927806Y-13003836D01*
X16965902Y-13003836D01*
X16984949Y-12994312D01*
X16994473Y-12975265D01*
X16994473Y-12965741D01*
X16984949Y-12946693D01*
X16965902Y-12937170D01*
X16937330Y-12937170D01*
X16918283Y-12927646D01*
X16908759Y-12908598D01*
X16908759Y-12899074D01*
X16918283Y-12880027D01*
X16937330Y-12870503D01*
X16965902Y-12870503D01*
X16984949Y-12880027D01*
X17061140Y-13080027D02*
X17070663Y-13070503D01*
X17089711Y-13041931D01*
X17099235Y-13022884D01*
X17108759Y-12994312D01*
X17118283Y-12946693D01*
X17118283Y-12908598D01*
X17108759Y-12860979D01*
X17099235Y-12832408D01*
X17089711Y-12813360D01*
X17070663Y-12784789D01*
X17061140Y-12775265D01*
D14*
X12244235Y-13132360D02*
X12244235Y-13222360D01*
X12199235Y-13177360D02*
X12289235Y-13177360D01*
D11*
X12584949Y-13067836D02*
X12603997Y-13067836D01*
X12623044Y-13077360D01*
X12632568Y-13086884D01*
X12642092Y-13105931D01*
X12651616Y-13144027D01*
X12651616Y-13191646D01*
X12642092Y-13229741D01*
X12632568Y-13248789D01*
X12623044Y-13258312D01*
X12603997Y-13267836D01*
X12584949Y-13267836D01*
X12565901Y-13258312D01*
X12556378Y-13248789D01*
X12546854Y-13229741D01*
X12537330Y-13191646D01*
X12537330Y-13144027D01*
X12546854Y-13105931D01*
X12556378Y-13086884D01*
X12565901Y-13077360D01*
X12584949Y-13067836D01*
X12737330Y-13248789D02*
X12746854Y-13258312D01*
X12737330Y-13267836D01*
X12727806Y-13258312D01*
X12737330Y-13248789D01*
X12737330Y-13267836D01*
X12842092Y-13267836D02*
X12880187Y-13267836D01*
X12899235Y-13258312D01*
X12908759Y-13248789D01*
X12927806Y-13220217D01*
X12937330Y-13182122D01*
X12937330Y-13105931D01*
X12927806Y-13086884D01*
X12918282Y-13077360D01*
X12899235Y-13067836D01*
X12861140Y-13067836D01*
X12842092Y-13077360D01*
X12832568Y-13086884D01*
X12823044Y-13105931D01*
X12823044Y-13153550D01*
X12832568Y-13172598D01*
X12842092Y-13182122D01*
X12861140Y-13191646D01*
X12899235Y-13191646D01*
X12918282Y-13182122D01*
X12927806Y-13172598D01*
X12937330Y-13153550D01*
X13061140Y-13067836D02*
X13080187Y-13067836D01*
X13099235Y-13077360D01*
X13108759Y-13086884D01*
X13118282Y-13105931D01*
X13127806Y-13144027D01*
X13127806Y-13191646D01*
X13118282Y-13229741D01*
X13108759Y-13248789D01*
X13099235Y-13258312D01*
X13080187Y-13267836D01*
X13061140Y-13267836D01*
X13042092Y-13258312D01*
X13032568Y-13248789D01*
X13023044Y-13229741D01*
X13013521Y-13191646D01*
X13013521Y-13144027D01*
X13023044Y-13105931D01*
X13032568Y-13086884D01*
X13042092Y-13077360D01*
X13061140Y-13067836D01*
X13251616Y-13067836D02*
X13270663Y-13067836D01*
X13289711Y-13077360D01*
X13299235Y-13086884D01*
X13308759Y-13105931D01*
X13318282Y-13144027D01*
X13318282Y-13191646D01*
X13308759Y-13229741D01*
X13299235Y-13248789D01*
X13289711Y-13258312D01*
X13270663Y-13267836D01*
X13251616Y-13267836D01*
X13232568Y-13258312D01*
X13223044Y-13248789D01*
X13213521Y-13229741D01*
X13203997Y-13191646D01*
X13203997Y-13144027D01*
X13213521Y-13105931D01*
X13223044Y-13086884D01*
X13232568Y-13077360D01*
X13251616Y-13067836D01*
X13403997Y-13267836D02*
X13403997Y-13134503D01*
X13403997Y-13153550D02*
X13413521Y-13144027D01*
X13432568Y-13134503D01*
X13461140Y-13134503D01*
X13480187Y-13144027D01*
X13489711Y-13163074D01*
X13489711Y-13267836D01*
X13489711Y-13163074D02*
X13499235Y-13144027D01*
X13518282Y-13134503D01*
X13546854Y-13134503D01*
X13565901Y-13144027D01*
X13575425Y-13163074D01*
X13575425Y-13267836D01*
X13670663Y-13267836D02*
X13670663Y-13134503D01*
X13670663Y-13153550D02*
X13680187Y-13144027D01*
X13699235Y-13134503D01*
X13727806Y-13134503D01*
X13746854Y-13144027D01*
X13756378Y-13163074D01*
X13756378Y-13267836D01*
X13756378Y-13163074D02*
X13765901Y-13144027D01*
X13784949Y-13134503D01*
X13813521Y-13134503D01*
X13832568Y-13144027D01*
X13842092Y-13163074D01*
X13842092Y-13267836D01*
X14232568Y-13058312D02*
X14061140Y-13315455D01*
X14489711Y-13067836D02*
X14508759Y-13067836D01*
X14527806Y-13077360D01*
X14537330Y-13086884D01*
X14546854Y-13105931D01*
X14556378Y-13144027D01*
X14556378Y-13191646D01*
X14546854Y-13229741D01*
X14537330Y-13248789D01*
X14527806Y-13258312D01*
X14508759Y-13267836D01*
X14489711Y-13267836D01*
X14470663Y-13258312D01*
X14461140Y-13248789D01*
X14451616Y-13229741D01*
X14442092Y-13191646D01*
X14442092Y-13144027D01*
X14451616Y-13105931D01*
X14461140Y-13086884D01*
X14470663Y-13077360D01*
X14489711Y-13067836D01*
X14642092Y-13248789D02*
X14651616Y-13258312D01*
X14642092Y-13267836D01*
X14632568Y-13258312D01*
X14642092Y-13248789D01*
X14642092Y-13267836D01*
X14775425Y-13067836D02*
X14794473Y-13067836D01*
X14813521Y-13077360D01*
X14823044Y-13086884D01*
X14832568Y-13105931D01*
X14842092Y-13144027D01*
X14842092Y-13191646D01*
X14832568Y-13229741D01*
X14823044Y-13248789D01*
X14813521Y-13258312D01*
X14794473Y-13267836D01*
X14775425Y-13267836D01*
X14756378Y-13258312D01*
X14746854Y-13248789D01*
X14737330Y-13229741D01*
X14727806Y-13191646D01*
X14727806Y-13144027D01*
X14737330Y-13105931D01*
X14746854Y-13086884D01*
X14756378Y-13077360D01*
X14775425Y-13067836D01*
X14908759Y-13067836D02*
X15032568Y-13067836D01*
X14965901Y-13144027D01*
X14994473Y-13144027D01*
X15013521Y-13153550D01*
X15023044Y-13163074D01*
X15032568Y-13182122D01*
X15032568Y-13229741D01*
X15023044Y-13248789D01*
X15013521Y-13258312D01*
X14994473Y-13267836D01*
X14937330Y-13267836D01*
X14918282Y-13258312D01*
X14908759Y-13248789D01*
X15213521Y-13067836D02*
X15118282Y-13067836D01*
X15108759Y-13163074D01*
X15118282Y-13153550D01*
X15137330Y-13144027D01*
X15184949Y-13144027D01*
X15203997Y-13153550D01*
X15213521Y-13163074D01*
X15223044Y-13182122D01*
X15223044Y-13229741D01*
X15213521Y-13248789D01*
X15203997Y-13258312D01*
X15184949Y-13267836D01*
X15137330Y-13267836D01*
X15118282Y-13258312D01*
X15108759Y-13248789D01*
X15394473Y-13134503D02*
X15394473Y-13267836D01*
X15346854Y-13058312D02*
X15299235Y-13201170D01*
X15423044Y-13201170D01*
X15489711Y-13067836D02*
X15489711Y-13105931D01*
X15565901Y-13067836D02*
X15565901Y-13105931D01*
X15861140Y-13344027D02*
X15851616Y-13334503D01*
X15832568Y-13305931D01*
X15823044Y-13286884D01*
X15813521Y-13258312D01*
X15803997Y-13210693D01*
X15803997Y-13172598D01*
X15813521Y-13124979D01*
X15823044Y-13096408D01*
X15832568Y-13077360D01*
X15851616Y-13048789D01*
X15861140Y-13039265D01*
X16042092Y-13267836D02*
X15927806Y-13267836D01*
X15984949Y-13267836D02*
X15984949Y-13067836D01*
X15965901Y-13096408D01*
X15946854Y-13115455D01*
X15927806Y-13124979D01*
X16213521Y-13067836D02*
X16175425Y-13067836D01*
X16156378Y-13077360D01*
X16146854Y-13086884D01*
X16127806Y-13115455D01*
X16118282Y-13153550D01*
X16118282Y-13229741D01*
X16127806Y-13248789D01*
X16137330Y-13258312D01*
X16156378Y-13267836D01*
X16194473Y-13267836D01*
X16213521Y-13258312D01*
X16223044Y-13248789D01*
X16232568Y-13229741D01*
X16232568Y-13182122D01*
X16223044Y-13163074D01*
X16213521Y-13153550D01*
X16194473Y-13144027D01*
X16156378Y-13144027D01*
X16137330Y-13153550D01*
X16127806Y-13163074D01*
X16118282Y-13182122D01*
X16470663Y-13267836D02*
X16470663Y-13067836D01*
X16556378Y-13267836D02*
X16556378Y-13163074D01*
X16546854Y-13144027D01*
X16527806Y-13134503D01*
X16499235Y-13134503D01*
X16480187Y-13144027D01*
X16470663Y-13153550D01*
X16680187Y-13267836D02*
X16661140Y-13258312D01*
X16651616Y-13248789D01*
X16642092Y-13229741D01*
X16642092Y-13172598D01*
X16651616Y-13153550D01*
X16661140Y-13144027D01*
X16680187Y-13134503D01*
X16708759Y-13134503D01*
X16727806Y-13144027D01*
X16737330Y-13153550D01*
X16746854Y-13172598D01*
X16746854Y-13229741D01*
X16737330Y-13248789D01*
X16727806Y-13258312D01*
X16708759Y-13267836D01*
X16680187Y-13267836D01*
X16861140Y-13267836D02*
X16842092Y-13258312D01*
X16832568Y-13239265D01*
X16832568Y-13067836D01*
X17013521Y-13258312D02*
X16994473Y-13267836D01*
X16956378Y-13267836D01*
X16937330Y-13258312D01*
X16927806Y-13239265D01*
X16927806Y-13163074D01*
X16937330Y-13144027D01*
X16956378Y-13134503D01*
X16994473Y-13134503D01*
X17013521Y-13144027D01*
X17023044Y-13163074D01*
X17023044Y-13182122D01*
X16927806Y-13201170D01*
X17099235Y-13258312D02*
X17118283Y-13267836D01*
X17156378Y-13267836D01*
X17175425Y-13258312D01*
X17184949Y-13239265D01*
X17184949Y-13229741D01*
X17175425Y-13210693D01*
X17156378Y-13201170D01*
X17127806Y-13201170D01*
X17108759Y-13191646D01*
X17099235Y-13172598D01*
X17099235Y-13163074D01*
X17108759Y-13144027D01*
X17127806Y-13134503D01*
X17156378Y-13134503D01*
X17175425Y-13144027D01*
X17251616Y-13344027D02*
X17261140Y-13334503D01*
X17280187Y-13305931D01*
X17289711Y-13286884D01*
X17299235Y-13258312D01*
X17308759Y-13210693D01*
X17308759Y-13172598D01*
X17299235Y-13124979D01*
X17289711Y-13096408D01*
X17280187Y-13077360D01*
X17261140Y-13048789D01*
X17251616Y-13039265D01*
D15*
X12275844Y-13473689D02*
X12275844Y-13409031D01*
X12211186Y-13409031D01*
X12211186Y-13473689D01*
X12275844Y-13473689D01*
D11*
X12584949Y-13331836D02*
X12603997Y-13331836D01*
X12623044Y-13341360D01*
X12632568Y-13350884D01*
X12642092Y-13369931D01*
X12651616Y-13408027D01*
X12651616Y-13455646D01*
X12642092Y-13493741D01*
X12632568Y-13512789D01*
X12623044Y-13522312D01*
X12603997Y-13531836D01*
X12584949Y-13531836D01*
X12565901Y-13522312D01*
X12556378Y-13512789D01*
X12546854Y-13493741D01*
X12537330Y-13455646D01*
X12537330Y-13408027D01*
X12546854Y-13369931D01*
X12556378Y-13350884D01*
X12565901Y-13341360D01*
X12584949Y-13331836D01*
X12737330Y-13512789D02*
X12746854Y-13522312D01*
X12737330Y-13531836D01*
X12727806Y-13522312D01*
X12737330Y-13512789D01*
X12737330Y-13531836D01*
X12842092Y-13531836D02*
X12880187Y-13531836D01*
X12899235Y-13522312D01*
X12908759Y-13512789D01*
X12927806Y-13484217D01*
X12937330Y-13446122D01*
X12937330Y-13369931D01*
X12927806Y-13350884D01*
X12918282Y-13341360D01*
X12899235Y-13331836D01*
X12861140Y-13331836D01*
X12842092Y-13341360D01*
X12832568Y-13350884D01*
X12823044Y-13369931D01*
X12823044Y-13417550D01*
X12832568Y-13436598D01*
X12842092Y-13446122D01*
X12861140Y-13455646D01*
X12899235Y-13455646D01*
X12918282Y-13446122D01*
X12927806Y-13436598D01*
X12937330Y-13417550D01*
X13127806Y-13531836D02*
X13013521Y-13531836D01*
X13070663Y-13531836D02*
X13070663Y-13331836D01*
X13051616Y-13360408D01*
X13032568Y-13379455D01*
X13013521Y-13388979D01*
X13299235Y-13398503D02*
X13299235Y-13531836D01*
X13251616Y-13322312D02*
X13203997Y-13465170D01*
X13327806Y-13465170D01*
X13403997Y-13531836D02*
X13403997Y-13398503D01*
X13403997Y-13417550D02*
X13413521Y-13408027D01*
X13432568Y-13398503D01*
X13461140Y-13398503D01*
X13480187Y-13408027D01*
X13489711Y-13427074D01*
X13489711Y-13531836D01*
X13489711Y-13427074D02*
X13499235Y-13408027D01*
X13518282Y-13398503D01*
X13546854Y-13398503D01*
X13565901Y-13408027D01*
X13575425Y-13427074D01*
X13575425Y-13531836D01*
X13670663Y-13531836D02*
X13670663Y-13398503D01*
X13670663Y-13417550D02*
X13680187Y-13408027D01*
X13699235Y-13398503D01*
X13727806Y-13398503D01*
X13746854Y-13408027D01*
X13756378Y-13427074D01*
X13756378Y-13531836D01*
X13756378Y-13427074D02*
X13765901Y-13408027D01*
X13784949Y-13398503D01*
X13813521Y-13398503D01*
X13832568Y-13408027D01*
X13842092Y-13427074D01*
X13842092Y-13531836D01*
X14232568Y-13322312D02*
X14061140Y-13579455D01*
X14489711Y-13331836D02*
X14508759Y-13331836D01*
X14527806Y-13341360D01*
X14537330Y-13350884D01*
X14546854Y-13369931D01*
X14556378Y-13408027D01*
X14556378Y-13455646D01*
X14546854Y-13493741D01*
X14537330Y-13512789D01*
X14527806Y-13522312D01*
X14508759Y-13531836D01*
X14489711Y-13531836D01*
X14470663Y-13522312D01*
X14461140Y-13512789D01*
X14451616Y-13493741D01*
X14442092Y-13455646D01*
X14442092Y-13408027D01*
X14451616Y-13369931D01*
X14461140Y-13350884D01*
X14470663Y-13341360D01*
X14489711Y-13331836D01*
X14642092Y-13512789D02*
X14651616Y-13522312D01*
X14642092Y-13531836D01*
X14632568Y-13522312D01*
X14642092Y-13512789D01*
X14642092Y-13531836D01*
X14775425Y-13331836D02*
X14794473Y-13331836D01*
X14813521Y-13341360D01*
X14823044Y-13350884D01*
X14832568Y-13369931D01*
X14842092Y-13408027D01*
X14842092Y-13455646D01*
X14832568Y-13493741D01*
X14823044Y-13512789D01*
X14813521Y-13522312D01*
X14794473Y-13531836D01*
X14775425Y-13531836D01*
X14756378Y-13522312D01*
X14746854Y-13512789D01*
X14737330Y-13493741D01*
X14727806Y-13455646D01*
X14727806Y-13408027D01*
X14737330Y-13369931D01*
X14746854Y-13350884D01*
X14756378Y-13341360D01*
X14775425Y-13331836D01*
X14908759Y-13331836D02*
X15032568Y-13331836D01*
X14965901Y-13408027D01*
X14994473Y-13408027D01*
X15013521Y-13417550D01*
X15023044Y-13427074D01*
X15032568Y-13446122D01*
X15032568Y-13493741D01*
X15023044Y-13512789D01*
X15013521Y-13522312D01*
X14994473Y-13531836D01*
X14937330Y-13531836D01*
X14918282Y-13522312D01*
X14908759Y-13512789D01*
X15203997Y-13331836D02*
X15165901Y-13331836D01*
X15146854Y-13341360D01*
X15137330Y-13350884D01*
X15118282Y-13379455D01*
X15108759Y-13417550D01*
X15108759Y-13493741D01*
X15118282Y-13512789D01*
X15127806Y-13522312D01*
X15146854Y-13531836D01*
X15184949Y-13531836D01*
X15203997Y-13522312D01*
X15213521Y-13512789D01*
X15223044Y-13493741D01*
X15223044Y-13446122D01*
X15213521Y-13427074D01*
X15203997Y-13417550D01*
X15184949Y-13408027D01*
X15146854Y-13408027D01*
X15127806Y-13417550D01*
X15118282Y-13427074D01*
X15108759Y-13446122D01*
X15346854Y-13331836D02*
X15365901Y-13331836D01*
X15384949Y-13341360D01*
X15394473Y-13350884D01*
X15403997Y-13369931D01*
X15413521Y-13408027D01*
X15413521Y-13455646D01*
X15403997Y-13493741D01*
X15394473Y-13512789D01*
X15384949Y-13522312D01*
X15365901Y-13531836D01*
X15346854Y-13531836D01*
X15327806Y-13522312D01*
X15318282Y-13512789D01*
X15308759Y-13493741D01*
X15299235Y-13455646D01*
X15299235Y-13408027D01*
X15308759Y-13369931D01*
X15318282Y-13350884D01*
X15327806Y-13341360D01*
X15346854Y-13331836D01*
X15489711Y-13331836D02*
X15489711Y-13369931D01*
X15565901Y-13331836D02*
X15565901Y-13369931D01*
X15861140Y-13608027D02*
X15851616Y-13598503D01*
X15832568Y-13569931D01*
X15823044Y-13550884D01*
X15813521Y-13522312D01*
X15803997Y-13474693D01*
X15803997Y-13436598D01*
X15813521Y-13388979D01*
X15823044Y-13360408D01*
X15832568Y-13341360D01*
X15851616Y-13312789D01*
X15861140Y-13303265D01*
X16023044Y-13398503D02*
X16023044Y-13531836D01*
X15975425Y-13322312D02*
X15927806Y-13465170D01*
X16051616Y-13465170D01*
X16280187Y-13531836D02*
X16280187Y-13331836D01*
X16365901Y-13531836D02*
X16365901Y-13427074D01*
X16356378Y-13408027D01*
X16337330Y-13398503D01*
X16308759Y-13398503D01*
X16289711Y-13408027D01*
X16280187Y-13417550D01*
X16489711Y-13531836D02*
X16470663Y-13522312D01*
X16461140Y-13512789D01*
X16451616Y-13493741D01*
X16451616Y-13436598D01*
X16461140Y-13417550D01*
X16470663Y-13408027D01*
X16489711Y-13398503D01*
X16518282Y-13398503D01*
X16537330Y-13408027D01*
X16546854Y-13417550D01*
X16556378Y-13436598D01*
X16556378Y-13493741D01*
X16546854Y-13512789D01*
X16537330Y-13522312D01*
X16518282Y-13531836D01*
X16489711Y-13531836D01*
X16670663Y-13531836D02*
X16651616Y-13522312D01*
X16642092Y-13503265D01*
X16642092Y-13331836D01*
X16823044Y-13522312D02*
X16803997Y-13531836D01*
X16765901Y-13531836D01*
X16746854Y-13522312D01*
X16737330Y-13503265D01*
X16737330Y-13427074D01*
X16746854Y-13408027D01*
X16765901Y-13398503D01*
X16803997Y-13398503D01*
X16823044Y-13408027D01*
X16832568Y-13427074D01*
X16832568Y-13446122D01*
X16737330Y-13465170D01*
X16908759Y-13522312D02*
X16927806Y-13531836D01*
X16965902Y-13531836D01*
X16984949Y-13522312D01*
X16994473Y-13503265D01*
X16994473Y-13493741D01*
X16984949Y-13474693D01*
X16965902Y-13465170D01*
X16937330Y-13465170D01*
X16918283Y-13455646D01*
X16908759Y-13436598D01*
X16908759Y-13427074D01*
X16918283Y-13408027D01*
X16937330Y-13398503D01*
X16965902Y-13398503D01*
X16984949Y-13408027D01*
X17061140Y-13608027D02*
X17070663Y-13598503D01*
X17089711Y-13569931D01*
X17099235Y-13550884D01*
X17108759Y-13522312D01*
X17118283Y-13474693D01*
X17118283Y-13436598D01*
X17108759Y-13388979D01*
X17099235Y-13360408D01*
X17089711Y-13341360D01*
X17070663Y-13312789D01*
X17061140Y-13303265D01*
D16*
X12238435Y-13756160D02*
X12289235Y-13705360D01*
X12238435Y-13654560D01*
X12187635Y-13705360D01*
X12238435Y-13756160D01*
D11*
X12651616Y-13795836D02*
X12537330Y-13795836D01*
X12594473Y-13795836D02*
X12594473Y-13595836D01*
X12575425Y-13624408D01*
X12556378Y-13643455D01*
X12537330Y-13652979D01*
X12737330Y-13776789D02*
X12746854Y-13786312D01*
X12737330Y-13795836D01*
X12727806Y-13786312D01*
X12737330Y-13776789D01*
X12737330Y-13795836D01*
X12870663Y-13595836D02*
X12889711Y-13595836D01*
X12908759Y-13605360D01*
X12918282Y-13614884D01*
X12927806Y-13633931D01*
X12937330Y-13672027D01*
X12937330Y-13719646D01*
X12927806Y-13757741D01*
X12918282Y-13776789D01*
X12908759Y-13786312D01*
X12889711Y-13795836D01*
X12870663Y-13795836D01*
X12851616Y-13786312D01*
X12842092Y-13776789D01*
X12832568Y-13757741D01*
X12823044Y-13719646D01*
X12823044Y-13672027D01*
X12832568Y-13633931D01*
X12842092Y-13614884D01*
X12851616Y-13605360D01*
X12870663Y-13595836D01*
X13127806Y-13795836D02*
X13013521Y-13795836D01*
X13070663Y-13795836D02*
X13070663Y-13595836D01*
X13051616Y-13624408D01*
X13032568Y-13643455D01*
X13013521Y-13652979D01*
X13299235Y-13595836D02*
X13261140Y-13595836D01*
X13242092Y-13605360D01*
X13232568Y-13614884D01*
X13213521Y-13643455D01*
X13203997Y-13681550D01*
X13203997Y-13757741D01*
X13213521Y-13776789D01*
X13223044Y-13786312D01*
X13242092Y-13795836D01*
X13280187Y-13795836D01*
X13299235Y-13786312D01*
X13308759Y-13776789D01*
X13318282Y-13757741D01*
X13318282Y-13710122D01*
X13308759Y-13691074D01*
X13299235Y-13681550D01*
X13280187Y-13672027D01*
X13242092Y-13672027D01*
X13223044Y-13681550D01*
X13213521Y-13691074D01*
X13203997Y-13710122D01*
X13403997Y-13795836D02*
X13403997Y-13662503D01*
X13403997Y-13681550D02*
X13413521Y-13672027D01*
X13432568Y-13662503D01*
X13461140Y-13662503D01*
X13480187Y-13672027D01*
X13489711Y-13691074D01*
X13489711Y-13795836D01*
X13489711Y-13691074D02*
X13499235Y-13672027D01*
X13518282Y-13662503D01*
X13546854Y-13662503D01*
X13565901Y-13672027D01*
X13575425Y-13691074D01*
X13575425Y-13795836D01*
X13670663Y-13795836D02*
X13670663Y-13662503D01*
X13670663Y-13681550D02*
X13680187Y-13672027D01*
X13699235Y-13662503D01*
X13727806Y-13662503D01*
X13746854Y-13672027D01*
X13756378Y-13691074D01*
X13756378Y-13795836D01*
X13756378Y-13691074D02*
X13765901Y-13672027D01*
X13784949Y-13662503D01*
X13813521Y-13662503D01*
X13832568Y-13672027D01*
X13842092Y-13691074D01*
X13842092Y-13795836D01*
X14232568Y-13586312D02*
X14061140Y-13843455D01*
X14489711Y-13595836D02*
X14508759Y-13595836D01*
X14527806Y-13605360D01*
X14537330Y-13614884D01*
X14546854Y-13633931D01*
X14556378Y-13672027D01*
X14556378Y-13719646D01*
X14546854Y-13757741D01*
X14537330Y-13776789D01*
X14527806Y-13786312D01*
X14508759Y-13795836D01*
X14489711Y-13795836D01*
X14470663Y-13786312D01*
X14461140Y-13776789D01*
X14451616Y-13757741D01*
X14442092Y-13719646D01*
X14442092Y-13672027D01*
X14451616Y-13633931D01*
X14461140Y-13614884D01*
X14470663Y-13605360D01*
X14489711Y-13595836D01*
X14642092Y-13776789D02*
X14651616Y-13786312D01*
X14642092Y-13795836D01*
X14632568Y-13786312D01*
X14642092Y-13776789D01*
X14642092Y-13795836D01*
X14775425Y-13595836D02*
X14794473Y-13595836D01*
X14813521Y-13605360D01*
X14823044Y-13614884D01*
X14832568Y-13633931D01*
X14842092Y-13672027D01*
X14842092Y-13719646D01*
X14832568Y-13757741D01*
X14823044Y-13776789D01*
X14813521Y-13786312D01*
X14794473Y-13795836D01*
X14775425Y-13795836D01*
X14756378Y-13786312D01*
X14746854Y-13776789D01*
X14737330Y-13757741D01*
X14727806Y-13719646D01*
X14727806Y-13672027D01*
X14737330Y-13633931D01*
X14746854Y-13614884D01*
X14756378Y-13605360D01*
X14775425Y-13595836D01*
X15013521Y-13662503D02*
X15013521Y-13795836D01*
X14965901Y-13586312D02*
X14918282Y-13729170D01*
X15042092Y-13729170D01*
X15156378Y-13595836D02*
X15175425Y-13595836D01*
X15194473Y-13605360D01*
X15203997Y-13614884D01*
X15213521Y-13633931D01*
X15223044Y-13672027D01*
X15223044Y-13719646D01*
X15213521Y-13757741D01*
X15203997Y-13776789D01*
X15194473Y-13786312D01*
X15175425Y-13795836D01*
X15156378Y-13795836D01*
X15137330Y-13786312D01*
X15127806Y-13776789D01*
X15118282Y-13757741D01*
X15108759Y-13719646D01*
X15108759Y-13672027D01*
X15118282Y-13633931D01*
X15127806Y-13614884D01*
X15137330Y-13605360D01*
X15156378Y-13595836D01*
X15346854Y-13595836D02*
X15365901Y-13595836D01*
X15384949Y-13605360D01*
X15394473Y-13614884D01*
X15403997Y-13633931D01*
X15413521Y-13672027D01*
X15413521Y-13719646D01*
X15403997Y-13757741D01*
X15394473Y-13776789D01*
X15384949Y-13786312D01*
X15365901Y-13795836D01*
X15346854Y-13795836D01*
X15327806Y-13786312D01*
X15318282Y-13776789D01*
X15308759Y-13757741D01*
X15299235Y-13719646D01*
X15299235Y-13672027D01*
X15308759Y-13633931D01*
X15318282Y-13614884D01*
X15327806Y-13605360D01*
X15346854Y-13595836D01*
X15489711Y-13595836D02*
X15489711Y-13633931D01*
X15565901Y-13595836D02*
X15565901Y-13633931D01*
X15861140Y-13872027D02*
X15851616Y-13862503D01*
X15832568Y-13833931D01*
X15823044Y-13814884D01*
X15813521Y-13786312D01*
X15803997Y-13738693D01*
X15803997Y-13700598D01*
X15813521Y-13652979D01*
X15823044Y-13624408D01*
X15832568Y-13605360D01*
X15851616Y-13576789D01*
X15861140Y-13567265D01*
X16042092Y-13795836D02*
X15927806Y-13795836D01*
X15984949Y-13795836D02*
X15984949Y-13595836D01*
X15965901Y-13624408D01*
X15946854Y-13643455D01*
X15927806Y-13652979D01*
X16223044Y-13595836D02*
X16127806Y-13595836D01*
X16118282Y-13691074D01*
X16127806Y-13681550D01*
X16146854Y-13672027D01*
X16194473Y-13672027D01*
X16213521Y-13681550D01*
X16223044Y-13691074D01*
X16232568Y-13710122D01*
X16232568Y-13757741D01*
X16223044Y-13776789D01*
X16213521Y-13786312D01*
X16194473Y-13795836D01*
X16146854Y-13795836D01*
X16127806Y-13786312D01*
X16118282Y-13776789D01*
X16470663Y-13795836D02*
X16470663Y-13595836D01*
X16556378Y-13795836D02*
X16556378Y-13691074D01*
X16546854Y-13672027D01*
X16527806Y-13662503D01*
X16499235Y-13662503D01*
X16480187Y-13672027D01*
X16470663Y-13681550D01*
X16680187Y-13795836D02*
X16661140Y-13786312D01*
X16651616Y-13776789D01*
X16642092Y-13757741D01*
X16642092Y-13700598D01*
X16651616Y-13681550D01*
X16661140Y-13672027D01*
X16680187Y-13662503D01*
X16708759Y-13662503D01*
X16727806Y-13672027D01*
X16737330Y-13681550D01*
X16746854Y-13700598D01*
X16746854Y-13757741D01*
X16737330Y-13776789D01*
X16727806Y-13786312D01*
X16708759Y-13795836D01*
X16680187Y-13795836D01*
X16861140Y-13795836D02*
X16842092Y-13786312D01*
X16832568Y-13767265D01*
X16832568Y-13595836D01*
X17013521Y-13786312D02*
X16994473Y-13795836D01*
X16956378Y-13795836D01*
X16937330Y-13786312D01*
X16927806Y-13767265D01*
X16927806Y-13691074D01*
X16937330Y-13672027D01*
X16956378Y-13662503D01*
X16994473Y-13662503D01*
X17013521Y-13672027D01*
X17023044Y-13691074D01*
X17023044Y-13710122D01*
X16927806Y-13729170D01*
X17099235Y-13786312D02*
X17118283Y-13795836D01*
X17156378Y-13795836D01*
X17175425Y-13786312D01*
X17184949Y-13767265D01*
X17184949Y-13757741D01*
X17175425Y-13738693D01*
X17156378Y-13729170D01*
X17127806Y-13729170D01*
X17108759Y-13719646D01*
X17099235Y-13700598D01*
X17099235Y-13691074D01*
X17108759Y-13672027D01*
X17127806Y-13662503D01*
X17156378Y-13662503D01*
X17175425Y-13672027D01*
X17251616Y-13872027D02*
X17261140Y-13862503D01*
X17280187Y-13833931D01*
X17289711Y-13814884D01*
X17299235Y-13786312D01*
X17308759Y-13738693D01*
X17308759Y-13700598D01*
X17299235Y-13652979D01*
X17289711Y-13624408D01*
X17280187Y-13605360D01*
X17261140Y-13576789D01*
X17251616Y-13567265D01*
D17*
X12179235Y-13914360D02*
X12289235Y-14024360D01*
X12289235Y-13914360D02*
X12179235Y-14024360D01*
X12289235Y-13969360D02*
G75*
G03*
X12289235Y-13969360I-55000J0D01*
G01*
D11*
X12651616Y-14059836D02*
X12537330Y-14059836D01*
X12594473Y-14059836D02*
X12594473Y-13859836D01*
X12575425Y-13888408D01*
X12556378Y-13907455D01*
X12537330Y-13916979D01*
X12737330Y-14040789D02*
X12746854Y-14050312D01*
X12737330Y-14059836D01*
X12727806Y-14050312D01*
X12737330Y-14040789D01*
X12737330Y-14059836D01*
X12937330Y-14059836D02*
X12823044Y-14059836D01*
X12880187Y-14059836D02*
X12880187Y-13859836D01*
X12861140Y-13888408D01*
X12842092Y-13907455D01*
X12823044Y-13916979D01*
X13061140Y-13859836D02*
X13080187Y-13859836D01*
X13099235Y-13869360D01*
X13108759Y-13878884D01*
X13118282Y-13897931D01*
X13127806Y-13936027D01*
X13127806Y-13983646D01*
X13118282Y-14021741D01*
X13108759Y-14040789D01*
X13099235Y-14050312D01*
X13080187Y-14059836D01*
X13061140Y-14059836D01*
X13042092Y-14050312D01*
X13032568Y-14040789D01*
X13023044Y-14021741D01*
X13013521Y-13983646D01*
X13013521Y-13936027D01*
X13023044Y-13897931D01*
X13032568Y-13878884D01*
X13042092Y-13869360D01*
X13061140Y-13859836D01*
X13251616Y-13859836D02*
X13270663Y-13859836D01*
X13289711Y-13869360D01*
X13299235Y-13878884D01*
X13308759Y-13897931D01*
X13318282Y-13936027D01*
X13318282Y-13983646D01*
X13308759Y-14021741D01*
X13299235Y-14040789D01*
X13289711Y-14050312D01*
X13270663Y-14059836D01*
X13251616Y-14059836D01*
X13232568Y-14050312D01*
X13223044Y-14040789D01*
X13213521Y-14021741D01*
X13203997Y-13983646D01*
X13203997Y-13936027D01*
X13213521Y-13897931D01*
X13223044Y-13878884D01*
X13232568Y-13869360D01*
X13251616Y-13859836D01*
X13403997Y-14059836D02*
X13403997Y-13926503D01*
X13403997Y-13945550D02*
X13413521Y-13936027D01*
X13432568Y-13926503D01*
X13461140Y-13926503D01*
X13480187Y-13936027D01*
X13489711Y-13955074D01*
X13489711Y-14059836D01*
X13489711Y-13955074D02*
X13499235Y-13936027D01*
X13518282Y-13926503D01*
X13546854Y-13926503D01*
X13565901Y-13936027D01*
X13575425Y-13955074D01*
X13575425Y-14059836D01*
X13670663Y-14059836D02*
X13670663Y-13926503D01*
X13670663Y-13945550D02*
X13680187Y-13936027D01*
X13699235Y-13926503D01*
X13727806Y-13926503D01*
X13746854Y-13936027D01*
X13756378Y-13955074D01*
X13756378Y-14059836D01*
X13756378Y-13955074D02*
X13765901Y-13936027D01*
X13784949Y-13926503D01*
X13813521Y-13926503D01*
X13832568Y-13936027D01*
X13842092Y-13955074D01*
X13842092Y-14059836D01*
X14232568Y-13850312D02*
X14061140Y-14107455D01*
X14489711Y-13859836D02*
X14508759Y-13859836D01*
X14527806Y-13869360D01*
X14537330Y-13878884D01*
X14546854Y-13897931D01*
X14556378Y-13936027D01*
X14556378Y-13983646D01*
X14546854Y-14021741D01*
X14537330Y-14040789D01*
X14527806Y-14050312D01*
X14508759Y-14059836D01*
X14489711Y-14059836D01*
X14470663Y-14050312D01*
X14461140Y-14040789D01*
X14451616Y-14021741D01*
X14442092Y-13983646D01*
X14442092Y-13936027D01*
X14451616Y-13897931D01*
X14461140Y-13878884D01*
X14470663Y-13869360D01*
X14489711Y-13859836D01*
X14642092Y-14040789D02*
X14651616Y-14050312D01*
X14642092Y-14059836D01*
X14632568Y-14050312D01*
X14642092Y-14040789D01*
X14642092Y-14059836D01*
X14775425Y-13859836D02*
X14794473Y-13859836D01*
X14813521Y-13869360D01*
X14823044Y-13878884D01*
X14832568Y-13897931D01*
X14842092Y-13936027D01*
X14842092Y-13983646D01*
X14832568Y-14021741D01*
X14823044Y-14040789D01*
X14813521Y-14050312D01*
X14794473Y-14059836D01*
X14775425Y-14059836D01*
X14756378Y-14050312D01*
X14746854Y-14040789D01*
X14737330Y-14021741D01*
X14727806Y-13983646D01*
X14727806Y-13936027D01*
X14737330Y-13897931D01*
X14746854Y-13878884D01*
X14756378Y-13869360D01*
X14775425Y-13859836D01*
X15013521Y-13926503D02*
X15013521Y-14059836D01*
X14965901Y-13850312D02*
X14918282Y-13993170D01*
X15042092Y-13993170D01*
X15099235Y-13859836D02*
X15223044Y-13859836D01*
X15156378Y-13936027D01*
X15184949Y-13936027D01*
X15203997Y-13945550D01*
X15213521Y-13955074D01*
X15223044Y-13974122D01*
X15223044Y-14021741D01*
X15213521Y-14040789D01*
X15203997Y-14050312D01*
X15184949Y-14059836D01*
X15127806Y-14059836D01*
X15108759Y-14050312D01*
X15099235Y-14040789D01*
X15289711Y-13859836D02*
X15413521Y-13859836D01*
X15346854Y-13936027D01*
X15375425Y-13936027D01*
X15394473Y-13945550D01*
X15403997Y-13955074D01*
X15413521Y-13974122D01*
X15413521Y-14021741D01*
X15403997Y-14040789D01*
X15394473Y-14050312D01*
X15375425Y-14059836D01*
X15318282Y-14059836D01*
X15299235Y-14050312D01*
X15289711Y-14040789D01*
X15489711Y-13859836D02*
X15489711Y-13897931D01*
X15565901Y-13859836D02*
X15565901Y-13897931D01*
X15861140Y-14136027D02*
X15851616Y-14126503D01*
X15832568Y-14097931D01*
X15823044Y-14078884D01*
X15813521Y-14050312D01*
X15803997Y-14002693D01*
X15803997Y-13964598D01*
X15813521Y-13916979D01*
X15823044Y-13888408D01*
X15832568Y-13869360D01*
X15851616Y-13840789D01*
X15861140Y-13831265D01*
X15927806Y-13878884D02*
X15937330Y-13869360D01*
X15956378Y-13859836D01*
X16003997Y-13859836D01*
X16023044Y-13869360D01*
X16032568Y-13878884D01*
X16042092Y-13897931D01*
X16042092Y-13916979D01*
X16032568Y-13945550D01*
X15918282Y-14059836D01*
X16042092Y-14059836D01*
X16280187Y-14059836D02*
X16280187Y-13859836D01*
X16365901Y-14059836D02*
X16365901Y-13955074D01*
X16356378Y-13936027D01*
X16337330Y-13926503D01*
X16308759Y-13926503D01*
X16289711Y-13936027D01*
X16280187Y-13945550D01*
X16489711Y-14059836D02*
X16470663Y-14050312D01*
X16461140Y-14040789D01*
X16451616Y-14021741D01*
X16451616Y-13964598D01*
X16461140Y-13945550D01*
X16470663Y-13936027D01*
X16489711Y-13926503D01*
X16518282Y-13926503D01*
X16537330Y-13936027D01*
X16546854Y-13945550D01*
X16556378Y-13964598D01*
X16556378Y-14021741D01*
X16546854Y-14040789D01*
X16537330Y-14050312D01*
X16518282Y-14059836D01*
X16489711Y-14059836D01*
X16670663Y-14059836D02*
X16651616Y-14050312D01*
X16642092Y-14031265D01*
X16642092Y-13859836D01*
X16823044Y-14050312D02*
X16803997Y-14059836D01*
X16765901Y-14059836D01*
X16746854Y-14050312D01*
X16737330Y-14031265D01*
X16737330Y-13955074D01*
X16746854Y-13936027D01*
X16765901Y-13926503D01*
X16803997Y-13926503D01*
X16823044Y-13936027D01*
X16832568Y-13955074D01*
X16832568Y-13974122D01*
X16737330Y-13993170D01*
X16908759Y-14050312D02*
X16927806Y-14059836D01*
X16965902Y-14059836D01*
X16984949Y-14050312D01*
X16994473Y-14031265D01*
X16994473Y-14021741D01*
X16984949Y-14002693D01*
X16965902Y-13993170D01*
X16937330Y-13993170D01*
X16918283Y-13983646D01*
X16908759Y-13964598D01*
X16908759Y-13955074D01*
X16918283Y-13936027D01*
X16937330Y-13926503D01*
X16965902Y-13926503D01*
X16984949Y-13936027D01*
X17061140Y-14136027D02*
X17070663Y-14126503D01*
X17089711Y-14097931D01*
X17099235Y-14078884D01*
X17108759Y-14050312D01*
X17118283Y-14002693D01*
X17118283Y-13964598D01*
X17108759Y-13916979D01*
X17099235Y-13888408D01*
X17089711Y-13869360D01*
X17070663Y-13840789D01*
X17061140Y-13831265D01*
X12089235Y-14133360D02*
X12289235Y-14333360D01*
X12289235Y-14133360D02*
X12089235Y-14333360D01*
X12189235Y-14133360D02*
X12189235Y-14333360D01*
X12089235Y-14233360D02*
X12289235Y-14233360D01*
X12537330Y-14142884D02*
X12546854Y-14133360D01*
X12565901Y-14123836D01*
X12613521Y-14123836D01*
X12632568Y-14133360D01*
X12642092Y-14142884D01*
X12651616Y-14161931D01*
X12651616Y-14180979D01*
X12642092Y-14209550D01*
X12527806Y-14323836D01*
X12651616Y-14323836D01*
X12737330Y-14304789D02*
X12746854Y-14314312D01*
X12737330Y-14323836D01*
X12727806Y-14314312D01*
X12737330Y-14304789D01*
X12737330Y-14323836D01*
X12823044Y-14142884D02*
X12832568Y-14133360D01*
X12851616Y-14123836D01*
X12899235Y-14123836D01*
X12918282Y-14133360D01*
X12927806Y-14142884D01*
X12937330Y-14161931D01*
X12937330Y-14180979D01*
X12927806Y-14209550D01*
X12813521Y-14323836D01*
X12937330Y-14323836D01*
X13061140Y-14123836D02*
X13080187Y-14123836D01*
X13099235Y-14133360D01*
X13108759Y-14142884D01*
X13118282Y-14161931D01*
X13127806Y-14200027D01*
X13127806Y-14247646D01*
X13118282Y-14285741D01*
X13108759Y-14304789D01*
X13099235Y-14314312D01*
X13080187Y-14323836D01*
X13061140Y-14323836D01*
X13042092Y-14314312D01*
X13032568Y-14304789D01*
X13023044Y-14285741D01*
X13013521Y-14247646D01*
X13013521Y-14200027D01*
X13023044Y-14161931D01*
X13032568Y-14142884D01*
X13042092Y-14133360D01*
X13061140Y-14123836D01*
X13251616Y-14123836D02*
X13270663Y-14123836D01*
X13289711Y-14133360D01*
X13299235Y-14142884D01*
X13308759Y-14161931D01*
X13318282Y-14200027D01*
X13318282Y-14247646D01*
X13308759Y-14285741D01*
X13299235Y-14304789D01*
X13289711Y-14314312D01*
X13270663Y-14323836D01*
X13251616Y-14323836D01*
X13232568Y-14314312D01*
X13223044Y-14304789D01*
X13213521Y-14285741D01*
X13203997Y-14247646D01*
X13203997Y-14200027D01*
X13213521Y-14161931D01*
X13223044Y-14142884D01*
X13232568Y-14133360D01*
X13251616Y-14123836D01*
X13403997Y-14323836D02*
X13403997Y-14190503D01*
X13403997Y-14209550D02*
X13413521Y-14200027D01*
X13432568Y-14190503D01*
X13461140Y-14190503D01*
X13480187Y-14200027D01*
X13489711Y-14219074D01*
X13489711Y-14323836D01*
X13489711Y-14219074D02*
X13499235Y-14200027D01*
X13518282Y-14190503D01*
X13546854Y-14190503D01*
X13565901Y-14200027D01*
X13575425Y-14219074D01*
X13575425Y-14323836D01*
X13670663Y-14323836D02*
X13670663Y-14190503D01*
X13670663Y-14209550D02*
X13680187Y-14200027D01*
X13699235Y-14190503D01*
X13727806Y-14190503D01*
X13746854Y-14200027D01*
X13756378Y-14219074D01*
X13756378Y-14323836D01*
X13756378Y-14219074D02*
X13765901Y-14200027D01*
X13784949Y-14190503D01*
X13813521Y-14190503D01*
X13832568Y-14200027D01*
X13842092Y-14219074D01*
X13842092Y-14323836D01*
X14232568Y-14114312D02*
X14061140Y-14371455D01*
X14489711Y-14123836D02*
X14508759Y-14123836D01*
X14527806Y-14133360D01*
X14537330Y-14142884D01*
X14546854Y-14161931D01*
X14556378Y-14200027D01*
X14556378Y-14247646D01*
X14546854Y-14285741D01*
X14537330Y-14304789D01*
X14527806Y-14314312D01*
X14508759Y-14323836D01*
X14489711Y-14323836D01*
X14470663Y-14314312D01*
X14461140Y-14304789D01*
X14451616Y-14285741D01*
X14442092Y-14247646D01*
X14442092Y-14200027D01*
X14451616Y-14161931D01*
X14461140Y-14142884D01*
X14470663Y-14133360D01*
X14489711Y-14123836D01*
X14642092Y-14304789D02*
X14651616Y-14314312D01*
X14642092Y-14323836D01*
X14632568Y-14314312D01*
X14642092Y-14304789D01*
X14642092Y-14323836D01*
X14775425Y-14123836D02*
X14794473Y-14123836D01*
X14813521Y-14133360D01*
X14823044Y-14142884D01*
X14832568Y-14161931D01*
X14842092Y-14200027D01*
X14842092Y-14247646D01*
X14832568Y-14285741D01*
X14823044Y-14304789D01*
X14813521Y-14314312D01*
X14794473Y-14323836D01*
X14775425Y-14323836D01*
X14756378Y-14314312D01*
X14746854Y-14304789D01*
X14737330Y-14285741D01*
X14727806Y-14247646D01*
X14727806Y-14200027D01*
X14737330Y-14161931D01*
X14746854Y-14142884D01*
X14756378Y-14133360D01*
X14775425Y-14123836D01*
X14956378Y-14209550D02*
X14937330Y-14200027D01*
X14927806Y-14190503D01*
X14918282Y-14171455D01*
X14918282Y-14161931D01*
X14927806Y-14142884D01*
X14937330Y-14133360D01*
X14956378Y-14123836D01*
X14994473Y-14123836D01*
X15013521Y-14133360D01*
X15023044Y-14142884D01*
X15032568Y-14161931D01*
X15032568Y-14171455D01*
X15023044Y-14190503D01*
X15013521Y-14200027D01*
X14994473Y-14209550D01*
X14956378Y-14209550D01*
X14937330Y-14219074D01*
X14927806Y-14228598D01*
X14918282Y-14247646D01*
X14918282Y-14285741D01*
X14927806Y-14304789D01*
X14937330Y-14314312D01*
X14956378Y-14323836D01*
X14994473Y-14323836D01*
X15013521Y-14314312D01*
X15023044Y-14304789D01*
X15032568Y-14285741D01*
X15032568Y-14247646D01*
X15023044Y-14228598D01*
X15013521Y-14219074D01*
X14994473Y-14209550D01*
X15203997Y-14123836D02*
X15165901Y-14123836D01*
X15146854Y-14133360D01*
X15137330Y-14142884D01*
X15118282Y-14171455D01*
X15108759Y-14209550D01*
X15108759Y-14285741D01*
X15118282Y-14304789D01*
X15127806Y-14314312D01*
X15146854Y-14323836D01*
X15184949Y-14323836D01*
X15203997Y-14314312D01*
X15213521Y-14304789D01*
X15223044Y-14285741D01*
X15223044Y-14238122D01*
X15213521Y-14219074D01*
X15203997Y-14209550D01*
X15184949Y-14200027D01*
X15146854Y-14200027D01*
X15127806Y-14209550D01*
X15118282Y-14219074D01*
X15108759Y-14238122D01*
X15394473Y-14123836D02*
X15356378Y-14123836D01*
X15337330Y-14133360D01*
X15327806Y-14142884D01*
X15308759Y-14171455D01*
X15299235Y-14209550D01*
X15299235Y-14285741D01*
X15308759Y-14304789D01*
X15318282Y-14314312D01*
X15337330Y-14323836D01*
X15375425Y-14323836D01*
X15394473Y-14314312D01*
X15403997Y-14304789D01*
X15413521Y-14285741D01*
X15413521Y-14238122D01*
X15403997Y-14219074D01*
X15394473Y-14209550D01*
X15375425Y-14200027D01*
X15337330Y-14200027D01*
X15318282Y-14209550D01*
X15308759Y-14219074D01*
X15299235Y-14238122D01*
X15489711Y-14123836D02*
X15489711Y-14161931D01*
X15565901Y-14123836D02*
X15565901Y-14161931D01*
X15861140Y-14400027D02*
X15851616Y-14390503D01*
X15832568Y-14361931D01*
X15823044Y-14342884D01*
X15813521Y-14314312D01*
X15803997Y-14266693D01*
X15803997Y-14228598D01*
X15813521Y-14180979D01*
X15823044Y-14152408D01*
X15832568Y-14133360D01*
X15851616Y-14104789D01*
X15861140Y-14095265D01*
X15927806Y-14142884D02*
X15937330Y-14133360D01*
X15956378Y-14123836D01*
X16003997Y-14123836D01*
X16023044Y-14133360D01*
X16032568Y-14142884D01*
X16042092Y-14161931D01*
X16042092Y-14180979D01*
X16032568Y-14209550D01*
X15918282Y-14323836D01*
X16042092Y-14323836D01*
X16280187Y-14323836D02*
X16280187Y-14123836D01*
X16365901Y-14323836D02*
X16365901Y-14219074D01*
X16356378Y-14200027D01*
X16337330Y-14190503D01*
X16308759Y-14190503D01*
X16289711Y-14200027D01*
X16280187Y-14209550D01*
X16489711Y-14323836D02*
X16470663Y-14314312D01*
X16461140Y-14304789D01*
X16451616Y-14285741D01*
X16451616Y-14228598D01*
X16461140Y-14209550D01*
X16470663Y-14200027D01*
X16489711Y-14190503D01*
X16518282Y-14190503D01*
X16537330Y-14200027D01*
X16546854Y-14209550D01*
X16556378Y-14228598D01*
X16556378Y-14285741D01*
X16546854Y-14304789D01*
X16537330Y-14314312D01*
X16518282Y-14323836D01*
X16489711Y-14323836D01*
X16670663Y-14323836D02*
X16651616Y-14314312D01*
X16642092Y-14295265D01*
X16642092Y-14123836D01*
X16823044Y-14314312D02*
X16803997Y-14323836D01*
X16765901Y-14323836D01*
X16746854Y-14314312D01*
X16737330Y-14295265D01*
X16737330Y-14219074D01*
X16746854Y-14200027D01*
X16765901Y-14190503D01*
X16803997Y-14190503D01*
X16823044Y-14200027D01*
X16832568Y-14219074D01*
X16832568Y-14238122D01*
X16737330Y-14257170D01*
X16908759Y-14314312D02*
X16927806Y-14323836D01*
X16965902Y-14323836D01*
X16984949Y-14314312D01*
X16994473Y-14295265D01*
X16994473Y-14285741D01*
X16984949Y-14266693D01*
X16965902Y-14257170D01*
X16937330Y-14257170D01*
X16918283Y-14247646D01*
X16908759Y-14228598D01*
X16908759Y-14219074D01*
X16918283Y-14200027D01*
X16937330Y-14190503D01*
X16965902Y-14190503D01*
X16984949Y-14200027D01*
X17061140Y-14400027D02*
X17070663Y-14390503D01*
X17089711Y-14361931D01*
X17099235Y-14342884D01*
X17108759Y-14314312D01*
X17118283Y-14266693D01*
X17118283Y-14228598D01*
X17108759Y-14180979D01*
X17099235Y-14152408D01*
X17089711Y-14133360D01*
X17070663Y-14104789D01*
X17061140Y-14095265D01*
X12089235Y-14453360D02*
X12289235Y-14653360D01*
X12289235Y-14453360D02*
X12089235Y-14653360D01*
X12259946Y-14624071D02*
X12259946Y-14482649D01*
X12118523Y-14482649D01*
X12118523Y-14624071D01*
X12259946Y-14624071D01*
X12527806Y-14443836D02*
X12651616Y-14443836D01*
X12584949Y-14520027D01*
X12613521Y-14520027D01*
X12632568Y-14529550D01*
X12642092Y-14539074D01*
X12651616Y-14558122D01*
X12651616Y-14605741D01*
X12642092Y-14624789D01*
X12632568Y-14634312D01*
X12613521Y-14643836D01*
X12556378Y-14643836D01*
X12537330Y-14634312D01*
X12527806Y-14624789D01*
X12737330Y-14624789D02*
X12746854Y-14634312D01*
X12737330Y-14643836D01*
X12727806Y-14634312D01*
X12737330Y-14624789D01*
X12737330Y-14643836D01*
X12870663Y-14443836D02*
X12889711Y-14443836D01*
X12908759Y-14453360D01*
X12918282Y-14462884D01*
X12927806Y-14481931D01*
X12937330Y-14520027D01*
X12937330Y-14567646D01*
X12927806Y-14605741D01*
X12918282Y-14624789D01*
X12908759Y-14634312D01*
X12889711Y-14643836D01*
X12870663Y-14643836D01*
X12851616Y-14634312D01*
X12842092Y-14624789D01*
X12832568Y-14605741D01*
X12823044Y-14567646D01*
X12823044Y-14520027D01*
X12832568Y-14481931D01*
X12842092Y-14462884D01*
X12851616Y-14453360D01*
X12870663Y-14443836D01*
X13061140Y-14443836D02*
X13080187Y-14443836D01*
X13099235Y-14453360D01*
X13108759Y-14462884D01*
X13118282Y-14481931D01*
X13127806Y-14520027D01*
X13127806Y-14567646D01*
X13118282Y-14605741D01*
X13108759Y-14624789D01*
X13099235Y-14634312D01*
X13080187Y-14643836D01*
X13061140Y-14643836D01*
X13042092Y-14634312D01*
X13032568Y-14624789D01*
X13023044Y-14605741D01*
X13013521Y-14567646D01*
X13013521Y-14520027D01*
X13023044Y-14481931D01*
X13032568Y-14462884D01*
X13042092Y-14453360D01*
X13061140Y-14443836D01*
X13251616Y-14443836D02*
X13270663Y-14443836D01*
X13289711Y-14453360D01*
X13299235Y-14462884D01*
X13308759Y-14481931D01*
X13318282Y-14520027D01*
X13318282Y-14567646D01*
X13308759Y-14605741D01*
X13299235Y-14624789D01*
X13289711Y-14634312D01*
X13270663Y-14643836D01*
X13251616Y-14643836D01*
X13232568Y-14634312D01*
X13223044Y-14624789D01*
X13213521Y-14605741D01*
X13203997Y-14567646D01*
X13203997Y-14520027D01*
X13213521Y-14481931D01*
X13223044Y-14462884D01*
X13232568Y-14453360D01*
X13251616Y-14443836D01*
X13403997Y-14643836D02*
X13403997Y-14510503D01*
X13403997Y-14529550D02*
X13413521Y-14520027D01*
X13432568Y-14510503D01*
X13461140Y-14510503D01*
X13480187Y-14520027D01*
X13489711Y-14539074D01*
X13489711Y-14643836D01*
X13489711Y-14539074D02*
X13499235Y-14520027D01*
X13518282Y-14510503D01*
X13546854Y-14510503D01*
X13565901Y-14520027D01*
X13575425Y-14539074D01*
X13575425Y-14643836D01*
X13670663Y-14643836D02*
X13670663Y-14510503D01*
X13670663Y-14529550D02*
X13680187Y-14520027D01*
X13699235Y-14510503D01*
X13727806Y-14510503D01*
X13746854Y-14520027D01*
X13756378Y-14539074D01*
X13756378Y-14643836D01*
X13756378Y-14539074D02*
X13765901Y-14520027D01*
X13784949Y-14510503D01*
X13813521Y-14510503D01*
X13832568Y-14520027D01*
X13842092Y-14539074D01*
X13842092Y-14643836D01*
X14232568Y-14434312D02*
X14061140Y-14691455D01*
X14489711Y-14443836D02*
X14508759Y-14443836D01*
X14527806Y-14453360D01*
X14537330Y-14462884D01*
X14546854Y-14481931D01*
X14556378Y-14520027D01*
X14556378Y-14567646D01*
X14546854Y-14605741D01*
X14537330Y-14624789D01*
X14527806Y-14634312D01*
X14508759Y-14643836D01*
X14489711Y-14643836D01*
X14470663Y-14634312D01*
X14461140Y-14624789D01*
X14451616Y-14605741D01*
X14442092Y-14567646D01*
X14442092Y-14520027D01*
X14451616Y-14481931D01*
X14461140Y-14462884D01*
X14470663Y-14453360D01*
X14489711Y-14443836D01*
X14642092Y-14624789D02*
X14651616Y-14634312D01*
X14642092Y-14643836D01*
X14632568Y-14634312D01*
X14642092Y-14624789D01*
X14642092Y-14643836D01*
X14842092Y-14643836D02*
X14727806Y-14643836D01*
X14784949Y-14643836D02*
X14784949Y-14443836D01*
X14765901Y-14472408D01*
X14746854Y-14491455D01*
X14727806Y-14500979D01*
X15032568Y-14643836D02*
X14918282Y-14643836D01*
X14975425Y-14643836D02*
X14975425Y-14443836D01*
X14956378Y-14472408D01*
X14937330Y-14491455D01*
X14918282Y-14500979D01*
X15146854Y-14529550D02*
X15127806Y-14520027D01*
X15118282Y-14510503D01*
X15108759Y-14491455D01*
X15108759Y-14481931D01*
X15118282Y-14462884D01*
X15127806Y-14453360D01*
X15146854Y-14443836D01*
X15184949Y-14443836D01*
X15203997Y-14453360D01*
X15213521Y-14462884D01*
X15223044Y-14481931D01*
X15223044Y-14491455D01*
X15213521Y-14510503D01*
X15203997Y-14520027D01*
X15184949Y-14529550D01*
X15146854Y-14529550D01*
X15127806Y-14539074D01*
X15118282Y-14548598D01*
X15108759Y-14567646D01*
X15108759Y-14605741D01*
X15118282Y-14624789D01*
X15127806Y-14634312D01*
X15146854Y-14643836D01*
X15184949Y-14643836D01*
X15203997Y-14634312D01*
X15213521Y-14624789D01*
X15223044Y-14605741D01*
X15223044Y-14567646D01*
X15213521Y-14548598D01*
X15203997Y-14539074D01*
X15184949Y-14529550D01*
X15413521Y-14643836D02*
X15299235Y-14643836D01*
X15356378Y-14643836D02*
X15356378Y-14443836D01*
X15337330Y-14472408D01*
X15318282Y-14491455D01*
X15299235Y-14500979D01*
X15489711Y-14443836D02*
X15489711Y-14481931D01*
X15565901Y-14443836D02*
X15565901Y-14481931D01*
X15861140Y-14720027D02*
X15851616Y-14710503D01*
X15832568Y-14681931D01*
X15823044Y-14662884D01*
X15813521Y-14634312D01*
X15803997Y-14586693D01*
X15803997Y-14548598D01*
X15813521Y-14500979D01*
X15823044Y-14472408D01*
X15832568Y-14453360D01*
X15851616Y-14424789D01*
X15861140Y-14415265D01*
X16023044Y-14510503D02*
X16023044Y-14643836D01*
X15975425Y-14434312D02*
X15927806Y-14577170D01*
X16051616Y-14577170D01*
X16280187Y-14643836D02*
X16280187Y-14443836D01*
X16365901Y-14643836D02*
X16365901Y-14539074D01*
X16356378Y-14520027D01*
X16337330Y-14510503D01*
X16308759Y-14510503D01*
X16289711Y-14520027D01*
X16280187Y-14529550D01*
X16489711Y-14643836D02*
X16470663Y-14634312D01*
X16461140Y-14624789D01*
X16451616Y-14605741D01*
X16451616Y-14548598D01*
X16461140Y-14529550D01*
X16470663Y-14520027D01*
X16489711Y-14510503D01*
X16518282Y-14510503D01*
X16537330Y-14520027D01*
X16546854Y-14529550D01*
X16556378Y-14548598D01*
X16556378Y-14605741D01*
X16546854Y-14624789D01*
X16537330Y-14634312D01*
X16518282Y-14643836D01*
X16489711Y-14643836D01*
X16670663Y-14643836D02*
X16651616Y-14634312D01*
X16642092Y-14615265D01*
X16642092Y-14443836D01*
X16823044Y-14634312D02*
X16803997Y-14643836D01*
X16765901Y-14643836D01*
X16746854Y-14634312D01*
X16737330Y-14615265D01*
X16737330Y-14539074D01*
X16746854Y-14520027D01*
X16765901Y-14510503D01*
X16803997Y-14510503D01*
X16823044Y-14520027D01*
X16832568Y-14539074D01*
X16832568Y-14558122D01*
X16737330Y-14577170D01*
X16908759Y-14634312D02*
X16927806Y-14643836D01*
X16965902Y-14643836D01*
X16984949Y-14634312D01*
X16994473Y-14615265D01*
X16994473Y-14605741D01*
X16984949Y-14586693D01*
X16965902Y-14577170D01*
X16937330Y-14577170D01*
X16918283Y-14567646D01*
X16908759Y-14548598D01*
X16908759Y-14539074D01*
X16918283Y-14520027D01*
X16937330Y-14510503D01*
X16965902Y-14510503D01*
X16984949Y-14520027D01*
X17061140Y-14720027D02*
X17070663Y-14710503D01*
X17089711Y-14681931D01*
X17099235Y-14662884D01*
X17108759Y-14634312D01*
X17118283Y-14586693D01*
X17118283Y-14548598D01*
X17108759Y-14500979D01*
X17099235Y-14472408D01*
X17089711Y-14453360D01*
X17070663Y-14424789D01*
X17061140Y-14415265D01*
M02*
