%TF.GenerationSoftware,KiCad,Pcbnew,5.99.0-unknown-d4461f6c5~91~ubuntu20.04.1*%
%TF.CreationDate,2020-09-15T15:28:34-03:00*%
%TF.ProjectId,Franzininho,4672616e-7a69-46e6-996e-686f2e6b6963,rev?*%
%TF.SameCoordinates,Original*%
%TF.FileFunction,Copper,L2,Bot*%
%TF.FilePolarity,Positive*%
%FSLAX46Y46*%
G04 Gerber Fmt 4.6, Leading zero omitted, Abs format (unit mm)*
G04 Created by KiCad (PCBNEW 5.99.0-unknown-d4461f6c5~91~ubuntu20.04.1) date 2020-09-15 15:28:34*
%MOMM*%
%LPD*%
G01*
G04 APERTURE LIST*
%TA.AperFunction,ComponentPad*%
%ADD10C,1.100000*%
%TD*%
%TA.AperFunction,ComponentPad*%
%ADD11C,1.879600*%
%TD*%
%TA.AperFunction,ComponentPad*%
%ADD12C,3.216000*%
%TD*%
%TA.AperFunction,ComponentPad*%
%ADD13C,1.676400*%
%TD*%
%TA.AperFunction,ComponentPad*%
%ADD14O,3.048000X1.524000*%
%TD*%
%TA.AperFunction,ComponentPad*%
%ADD15O,1.520000X3.000000*%
%TD*%
%TA.AperFunction,ComponentPad*%
%ADD16R,1.600000X2.400000*%
%TD*%
%TA.AperFunction,ComponentPad*%
%ADD17O,1.600000X2.400000*%
%TD*%
%TA.AperFunction,ComponentPad*%
%ADD18R,1.600000X1.600000*%
%TD*%
%TA.AperFunction,ComponentPad*%
%ADD19C,1.600000*%
%TD*%
%TA.AperFunction,ComponentPad*%
%ADD20C,3.000000*%
%TD*%
%TA.AperFunction,Conductor*%
%ADD21C,0.812800*%
%TD*%
%TA.AperFunction,Conductor*%
%ADD22C,0.406400*%
%TD*%
%TA.AperFunction,Conductor*%
%ADD23C,1.016000*%
%TD*%
%TA.AperFunction,Conductor*%
%ADD24C,0.508000*%
%TD*%
%TA.AperFunction,Conductor*%
%ADD25C,0.609600*%
%TD*%
G04 APERTURE END LIST*
D10*
X125852350Y-107268600D03*
X125852350Y-102768600D03*
D11*
X128352350Y-103891600D03*
X128352350Y-106145600D03*
X128352350Y-101518600D03*
D12*
X125952350Y-110818600D03*
X125952350Y-99218600D03*
D11*
X128352350Y-108518600D03*
X140055850Y-109814100D03*
X132435850Y-109814100D03*
X139956850Y-100452100D03*
X132336850Y-100452100D03*
D13*
X144145000Y-97790000D03*
X146685000Y-97790000D03*
D11*
X131182350Y-103928100D03*
X141342350Y-103928100D03*
X131244850Y-106893100D03*
X141404850Y-106893100D03*
X141404850Y-112776000D03*
X131244850Y-112776000D03*
D13*
X149352000Y-117348000D03*
X149352000Y-114808000D03*
D11*
X147485850Y-100543100D03*
X147485850Y-110703100D03*
X132506450Y-97610500D03*
X140126450Y-97610500D03*
X144320850Y-100543100D03*
X144320850Y-110703100D03*
X168879850Y-113761100D03*
X168879850Y-111221100D03*
X168879850Y-108681100D03*
X168879850Y-106141100D03*
X168879850Y-103601100D03*
X168879850Y-101061100D03*
X168879850Y-98521100D03*
X168879850Y-95981100D03*
X148892350Y-91976100D03*
X146352350Y-91976100D03*
X143812350Y-91976100D03*
D14*
X163779200Y-96494600D03*
X157276800Y-96494600D03*
X163779200Y-91973400D03*
X157276800Y-91973400D03*
D15*
X135890000Y-93345000D03*
X138430000Y-93345000D03*
X140970000Y-93345000D03*
D16*
X164084000Y-101092000D03*
D17*
X161544000Y-101092000D03*
X159004000Y-101092000D03*
X156464000Y-101092000D03*
X156464000Y-108712000D03*
X159004000Y-108712000D03*
X161544000Y-108712000D03*
X164084000Y-108712000D03*
D13*
X144272000Y-117348000D03*
X144272000Y-114808000D03*
D18*
X151892000Y-97282000D03*
D19*
X151892000Y-99782000D03*
D20*
X132562350Y-117436100D03*
X171562350Y-117436100D03*
X171562350Y-92436100D03*
X132562350Y-92436100D03*
D21*
X151749850Y-92611100D02*
X151749850Y-97151350D01*
X148892350Y-93246100D02*
X146987350Y-95151100D01*
X146987350Y-95151100D02*
X142585850Y-95151100D01*
X144101250Y-97663000D02*
X140253350Y-97663000D01*
X148892350Y-91976100D02*
X151114850Y-91976100D01*
X148892350Y-91976100D02*
X148892350Y-93246100D01*
D22*
X140082950Y-97610500D02*
X140002350Y-97691100D01*
D21*
X163814850Y-108646000D02*
X163993950Y-108825100D01*
X142585850Y-95151100D02*
X140126450Y-97610500D01*
D22*
X169233600Y-98643600D02*
X168879850Y-98521100D01*
D21*
X151114850Y-91976100D02*
X151749850Y-92611100D01*
X140253350Y-97483600D02*
X140126450Y-97610500D01*
X168757350Y-98643600D02*
X168879850Y-98521100D01*
D23*
X169002350Y-98643600D02*
X168879850Y-98521100D01*
D22*
X140126450Y-97610500D02*
X140082950Y-97610500D01*
D24*
X154686000Y-105918000D02*
X157226000Y-105918000D01*
X168879850Y-98521100D02*
X167132000Y-96773250D01*
X167132000Y-94869000D02*
X165735000Y-93472000D01*
X155943050Y-113030000D02*
X158489525Y-115576475D01*
X151892000Y-116840000D02*
X151892000Y-114046000D01*
X169424475Y-115576475D02*
X158489525Y-115576475D01*
X144272000Y-117221000D02*
X144272000Y-117348000D01*
X143192500Y-108775500D02*
X147637500Y-108775500D01*
X154051000Y-109093000D02*
X151892000Y-111252000D01*
X170694475Y-100335725D02*
X170688375Y-100329625D01*
X157289500Y-105981500D02*
X157861000Y-106553000D01*
X151892000Y-116840000D02*
X150091799Y-118640201D01*
X141404850Y-112776000D02*
X141404850Y-110563150D01*
X168879850Y-98521100D02*
X170688375Y-100329625D01*
D21*
X151892000Y-92753250D02*
X151749850Y-92611100D01*
D24*
X151892000Y-114046000D02*
X152908000Y-113030000D01*
X154051000Y-106553000D02*
X154051000Y-109093000D01*
X150368000Y-111252000D02*
X147891500Y-108775500D01*
D21*
X137842700Y-97610500D02*
X138797373Y-97610500D01*
D24*
X144272000Y-117348000D02*
X147148598Y-117348000D01*
X152908000Y-113030000D02*
X155943050Y-113030000D01*
X170694475Y-114306475D02*
X170694475Y-100335725D01*
X151892000Y-93472000D02*
X151892000Y-97282000D01*
X167132000Y-96773250D02*
X167132000Y-94869000D01*
D21*
X151892000Y-97282000D02*
X151892000Y-92753250D01*
D24*
X141404850Y-114353850D02*
X144272000Y-117221000D01*
X141404850Y-112776000D02*
X141404850Y-114353850D01*
X154686000Y-105918000D02*
X154051000Y-106553000D01*
X141404850Y-110563150D02*
X143192500Y-108775500D01*
D21*
X135890000Y-93345000D02*
X135890000Y-95657800D01*
D24*
X170694475Y-114306475D02*
X169424475Y-115576475D01*
X165735000Y-93472000D02*
X151892000Y-93472000D01*
X157226000Y-105918000D02*
X157289500Y-105981500D01*
X151892000Y-111252000D02*
X150368000Y-111252000D01*
D21*
X135890000Y-95657800D02*
X137842700Y-97610500D01*
D24*
X147148598Y-117348000D02*
X148440799Y-118640201D01*
D21*
X138797373Y-97610500D02*
X140126450Y-97610500D01*
D24*
X147891500Y-108775500D02*
X147637500Y-108775500D01*
X161925000Y-106553000D02*
X164084000Y-108712000D01*
X150091799Y-118640201D02*
X148440799Y-118640201D01*
X157861000Y-106553000D02*
X161925000Y-106553000D01*
X129413000Y-113665000D02*
X129603500Y-113855500D01*
X134097475Y-99201525D02*
X134097475Y-105141475D01*
X128352350Y-108518600D02*
X129413000Y-109579250D01*
X129603500Y-113855500D02*
X130556000Y-114808000D01*
X134097475Y-105141475D02*
X135255000Y-106299000D01*
X129413000Y-109579250D02*
X129413000Y-113665000D01*
X132715000Y-114808000D02*
X135255000Y-112268000D01*
X135255000Y-112268000D02*
X135255000Y-106299000D01*
X130556000Y-114808000D02*
X132715000Y-114808000D01*
X134097475Y-99201525D02*
X132506450Y-97610500D01*
X128352350Y-106145600D02*
X130556000Y-108349250D01*
X130556000Y-112087150D02*
X131244850Y-112776000D01*
X132336850Y-100452100D02*
X132336850Y-102773600D01*
X130556000Y-108349250D02*
X130556000Y-112087150D01*
X134239000Y-106984750D02*
X134239000Y-111110927D01*
X131182350Y-103928100D02*
X134239000Y-106984750D01*
X132573927Y-112776000D02*
X131244850Y-112776000D01*
X132336850Y-102773600D02*
X131182350Y-103928100D01*
X134239000Y-111110927D02*
X132573927Y-112776000D01*
D25*
X131244850Y-106893100D02*
X131244850Y-107031100D01*
X132382350Y-109760600D02*
X132435850Y-109814100D01*
D23*
X132382350Y-107216100D02*
X132064850Y-106898600D01*
X132382350Y-107216100D02*
X132382350Y-109760600D01*
X132064850Y-106898600D02*
X131250350Y-106898600D01*
X131250350Y-106898600D02*
X131244850Y-106893100D01*
D24*
X128783600Y-103891600D02*
X128352350Y-103891600D01*
X129794000Y-104902000D02*
X128783600Y-103891600D01*
X131244850Y-106893100D02*
X130048000Y-105696250D01*
X130048000Y-105696250D02*
X130048000Y-105410000D01*
X130048000Y-105410000D02*
X129794000Y-105156000D01*
X129794000Y-105156000D02*
X129794000Y-104902000D01*
X161544000Y-109112000D02*
X161544000Y-108712000D01*
X165487873Y-110744000D02*
X167550773Y-108681100D01*
X161544000Y-108712000D02*
X161544000Y-110420000D01*
X161544000Y-110420000D02*
X161868000Y-110744000D01*
X161868000Y-110744000D02*
X165487873Y-110744000D01*
X167550773Y-108681100D02*
X168879850Y-108681100D01*
D23*
X166831100Y-112137350D02*
X167783600Y-111184850D01*
X158913950Y-108825100D02*
X158913950Y-110728950D01*
X167783600Y-111184850D02*
X168843600Y-111184850D01*
D22*
X158893600Y-108804750D02*
X158913950Y-108825100D01*
D23*
X158913950Y-110728950D02*
X160322350Y-112137350D01*
X168843600Y-111184850D02*
X168879850Y-111221100D01*
X160322350Y-112137350D02*
X166831100Y-112137350D01*
D24*
X154876500Y-107124500D02*
X155194000Y-106807000D01*
X155321000Y-106680000D02*
X156972000Y-106680000D01*
X151003000Y-115697000D02*
X151003000Y-113665000D01*
X149352000Y-117348000D02*
X151003000Y-115697000D01*
X155194000Y-106807000D02*
X155321000Y-106680000D01*
X156972000Y-106680000D02*
X159004000Y-108712000D01*
X154876500Y-109791500D02*
X151003000Y-113665000D01*
X154876500Y-107124500D02*
X154876500Y-109791500D01*
D23*
X168879850Y-113761100D02*
X158612350Y-113761100D01*
X156373950Y-108825100D02*
X156373950Y-111522700D01*
X158612350Y-113761100D02*
X156373950Y-111522700D01*
D21*
X168684850Y-100866100D02*
X168879850Y-101061100D01*
D22*
X159052350Y-101343500D02*
X158913950Y-101205100D01*
D21*
X168757350Y-101183600D02*
X168879850Y-101061100D01*
D25*
X141399350Y-106898600D02*
X141404850Y-106893100D01*
D24*
X158178500Y-98107500D02*
X159004000Y-98933000D01*
X143002000Y-102235000D02*
X139700000Y-102235000D01*
X154559000Y-95250000D02*
X154559000Y-97155000D01*
X139412299Y-102522701D02*
X139700000Y-102235000D01*
X153957701Y-102522701D02*
X154432000Y-102997000D01*
X166169989Y-98351239D02*
X166169989Y-95811989D01*
X166169989Y-95811989D02*
X164846000Y-94488000D01*
X164846000Y-94488000D02*
X156801703Y-94488000D01*
X139065000Y-102870000D02*
X139412299Y-102522701D01*
X155511500Y-98107500D02*
X158178500Y-98107500D01*
X139065000Y-104553250D02*
X139065000Y-102870000D01*
X156801703Y-94488000D02*
X155321000Y-94488000D01*
X143289701Y-102522701D02*
X153957701Y-102522701D01*
X154432000Y-102997000D02*
X158623000Y-102997000D01*
X143002000Y-102235000D02*
X143289701Y-102522701D01*
X155321000Y-94488000D02*
X154559000Y-95250000D01*
X141404850Y-106893100D02*
X139065000Y-104553250D01*
X159004000Y-98933000D02*
X159004000Y-101092000D01*
X168879850Y-101061100D02*
X166169989Y-98351239D01*
X158623000Y-102997000D02*
X158913950Y-102706050D01*
X158913950Y-102706050D02*
X158913950Y-101205100D01*
X154559000Y-97155000D02*
X155511500Y-98107500D01*
D21*
X161592350Y-101343500D02*
X161453950Y-101205100D01*
D24*
X163742500Y-103544500D02*
X161453950Y-103544500D01*
X141342350Y-103928100D02*
X141892450Y-103378000D01*
X141892450Y-103378000D02*
X153416000Y-103378000D01*
X165163500Y-104965500D02*
X163742500Y-103544500D01*
X161175950Y-103822500D02*
X161201225Y-103797225D01*
X153860500Y-103822500D02*
X161175950Y-103822500D01*
X165163500Y-104965500D02*
X167704250Y-104965500D01*
X161453950Y-101205100D02*
X161453950Y-103544500D01*
X153416000Y-103378000D02*
X153860500Y-103822500D01*
X161201225Y-103797225D02*
X161453950Y-103544500D01*
X167704250Y-104965500D02*
X168879850Y-106141100D01*
D21*
X165719850Y-103723600D02*
X168757350Y-103723600D01*
X164132350Y-101343500D02*
X164132350Y-102136100D01*
D25*
X163993950Y-101205100D02*
X164132350Y-101343500D01*
D21*
X164132350Y-102136100D02*
X165719850Y-103723600D01*
X164132350Y-101066700D02*
X163993950Y-101205100D01*
D25*
X168757350Y-103723600D02*
X168879850Y-103601100D01*
D24*
X163779200Y-96494600D02*
X157276800Y-96494600D01*
X163779200Y-96494600D02*
X163779200Y-100787200D01*
X163779200Y-100787200D02*
X164084000Y-101092000D01*
X147485850Y-112941850D02*
X149352000Y-114808000D01*
X147485850Y-110703100D02*
X147485850Y-112941850D01*
D21*
X144320850Y-110703100D02*
X144441850Y-110703100D01*
D24*
X144320850Y-110703100D02*
X144320850Y-114759150D01*
X144320850Y-114759150D02*
X144272000Y-114808000D01*
D21*
X142338900Y-91976100D02*
X140970000Y-93345000D01*
X143812350Y-91976100D02*
X142338900Y-91976100D01*
%TA.AperFunction,Conductor*%
G36*
X173627950Y-119611700D02*
G01*
X123374250Y-119611700D01*
X123374250Y-117522808D01*
X130652918Y-117522808D01*
X130663757Y-117614384D01*
X130685434Y-117797537D01*
X130757269Y-118064696D01*
X130866917Y-118318686D01*
X131012083Y-118554188D01*
X131189723Y-118766268D01*
X131396119Y-118950482D01*
X131626944Y-119102973D01*
X131705170Y-119139700D01*
X131877365Y-119220546D01*
X132142137Y-119300738D01*
X132415708Y-119341867D01*
X132692353Y-119343074D01*
X132692354Y-119343074D01*
X132966276Y-119304333D01*
X133231736Y-119226455D01*
X133483174Y-119111073D01*
X133715322Y-118960602D01*
X133923319Y-118778194D01*
X134102800Y-118567676D01*
X134250016Y-118333448D01*
X134256542Y-118318686D01*
X134361877Y-118080424D01*
X134436040Y-117813902D01*
X134438122Y-117797537D01*
X134470953Y-117539473D01*
X134471404Y-117522807D01*
X134473750Y-117436100D01*
X134456937Y-117204375D01*
X134453731Y-117160181D01*
X134394088Y-116890034D01*
X134296074Y-116631332D01*
X134161742Y-116389489D01*
X134057551Y-116252966D01*
X133993904Y-116169568D01*
X133796078Y-115976180D01*
X133572407Y-115813376D01*
X133548088Y-115800581D01*
X133327576Y-115684563D01*
X133066718Y-115592445D01*
X132858812Y-115551467D01*
X132795291Y-115538947D01*
X132518985Y-115525192D01*
X132518981Y-115525192D01*
X132361615Y-115540206D01*
X132243588Y-115551467D01*
X132037582Y-115601876D01*
X131974864Y-115617223D01*
X131718461Y-115721077D01*
X131718456Y-115721080D01*
X131479721Y-115860865D01*
X131479719Y-115860867D01*
X131479715Y-115860869D01*
X131389473Y-115933038D01*
X131263666Y-116033649D01*
X131074816Y-116235811D01*
X130917128Y-116463118D01*
X130793904Y-116710807D01*
X130707727Y-116973690D01*
X130662481Y-117234283D01*
X130660401Y-117246262D01*
X130652918Y-117522808D01*
X123374250Y-117522808D01*
X123374250Y-110677733D01*
X123937869Y-110677733D01*
X123937869Y-110959467D01*
X123942001Y-110988864D01*
X123977079Y-111238457D01*
X124054735Y-111509275D01*
X124071050Y-111545919D01*
X124169325Y-111766650D01*
X124318618Y-112005570D01*
X124318620Y-112005572D01*
X124318621Y-112005574D01*
X124499715Y-112221393D01*
X124709083Y-112409909D01*
X124942650Y-112567452D01*
X125137083Y-112662283D01*
X125195873Y-112690957D01*
X125463811Y-112778015D01*
X125561657Y-112795268D01*
X125741265Y-112826938D01*
X126022826Y-112836770D01*
X126303015Y-112807321D01*
X126303018Y-112807320D01*
X126303020Y-112807320D01*
X126576375Y-112739166D01*
X126837599Y-112633624D01*
X127081582Y-112492760D01*
X127303592Y-112319307D01*
X127499299Y-112116646D01*
X127499300Y-112116645D01*
X127664898Y-111888719D01*
X127797164Y-111639964D01*
X127893522Y-111375222D01*
X127952097Y-111099646D01*
X127960165Y-110984273D01*
X127971751Y-110818600D01*
X127952097Y-110537556D01*
X127950402Y-110529578D01*
X127893522Y-110261978D01*
X127797164Y-109997236D01*
X127729803Y-109870549D01*
X127664898Y-109748480D01*
X127605418Y-109666614D01*
X127603327Y-109657907D01*
X127608006Y-109650272D01*
X127616713Y-109648181D01*
X127621592Y-109650152D01*
X127676750Y-109688774D01*
X127890212Y-109788313D01*
X128117717Y-109849272D01*
X128136594Y-109850924D01*
X128352350Y-109869801D01*
X128568106Y-109850924D01*
X128586983Y-109849272D01*
X128714264Y-109815168D01*
X128752100Y-109853004D01*
X128752101Y-113639887D01*
X128748013Y-113699849D01*
X128758795Y-113761629D01*
X128766323Y-113823839D01*
X128772510Y-113840213D01*
X128775521Y-113857465D01*
X128784300Y-113877465D01*
X128800718Y-113914868D01*
X128819943Y-113965741D01*
X128822878Y-113973509D01*
X128832794Y-113987937D01*
X128839832Y-114003970D01*
X128855879Y-114024883D01*
X128877991Y-114053700D01*
X128896134Y-114080097D01*
X128913502Y-114105368D01*
X128961310Y-114147963D01*
X129104585Y-114291238D01*
X130070924Y-115257578D01*
X130110426Y-115302860D01*
X130161717Y-115338908D01*
X130211045Y-115377586D01*
X130227000Y-115384790D01*
X130241328Y-115394860D01*
X130269677Y-115405913D01*
X130299756Y-115417641D01*
X130356867Y-115443428D01*
X130360057Y-115444019D01*
X130374080Y-115446618D01*
X130390397Y-115452980D01*
X130452554Y-115461163D01*
X130493643Y-115468778D01*
X130514185Y-115472586D01*
X130514187Y-115472586D01*
X130528392Y-115471767D01*
X130578115Y-115468900D01*
X132689902Y-115468900D01*
X132749850Y-115472987D01*
X132811603Y-115462210D01*
X132873839Y-115454678D01*
X132890217Y-115448489D01*
X132907465Y-115445479D01*
X132927459Y-115436702D01*
X132964852Y-115420289D01*
X133015738Y-115401059D01*
X133023509Y-115398123D01*
X133023510Y-115398122D01*
X133023511Y-115398122D01*
X133037941Y-115388204D01*
X133053970Y-115381168D01*
X133103691Y-115343015D01*
X133155368Y-115307499D01*
X133197971Y-115259682D01*
X135704581Y-112753073D01*
X135720526Y-112739164D01*
X135749860Y-112713574D01*
X135785911Y-112662279D01*
X135824586Y-112612955D01*
X135831790Y-112597000D01*
X135841858Y-112582675D01*
X135841860Y-112582672D01*
X135857964Y-112541368D01*
X135864641Y-112524244D01*
X135890428Y-112467133D01*
X135891019Y-112463943D01*
X135893618Y-112449920D01*
X135899980Y-112433603D01*
X135908163Y-112371446D01*
X135915778Y-112330357D01*
X135919586Y-112309815D01*
X135915900Y-112245885D01*
X135915900Y-106324103D01*
X135919987Y-106264150D01*
X135909208Y-106202386D01*
X135903924Y-106158722D01*
X135901678Y-106140161D01*
X135895489Y-106123783D01*
X135892479Y-106106534D01*
X135875530Y-106067923D01*
X135867284Y-106049136D01*
X135845122Y-105990489D01*
X135835308Y-105976211D01*
X135835208Y-105976065D01*
X135828169Y-105960029D01*
X135790008Y-105910298D01*
X135754499Y-105858632D01*
X135706682Y-105816029D01*
X134758375Y-104867722D01*
X134758375Y-99226621D01*
X134759730Y-99206754D01*
X134762462Y-99166674D01*
X134751683Y-99104910D01*
X134744153Y-99042687D01*
X134744153Y-99042686D01*
X134737965Y-99026309D01*
X134734954Y-99009058D01*
X134726176Y-98989061D01*
X134709760Y-98951662D01*
X134687597Y-98893014D01*
X134680724Y-98883014D01*
X134677681Y-98878586D01*
X134670643Y-98862554D01*
X134632484Y-98812824D01*
X134596975Y-98761158D01*
X134596420Y-98760663D01*
X134549169Y-98718565D01*
X133803018Y-97972414D01*
X133837122Y-97845133D01*
X133841946Y-97790000D01*
X133857651Y-97610500D01*
X133837122Y-97375868D01*
X133834641Y-97366606D01*
X133776163Y-97148362D01*
X133676624Y-96934900D01*
X133541529Y-96741965D01*
X133374985Y-96575421D01*
X133182050Y-96440326D01*
X132968588Y-96340787D01*
X132741083Y-96279828D01*
X132722206Y-96278176D01*
X132506450Y-96259299D01*
X132290694Y-96278176D01*
X132271817Y-96279828D01*
X132044312Y-96340787D01*
X131830850Y-96440326D01*
X131637915Y-96575421D01*
X131471371Y-96741965D01*
X131336276Y-96934900D01*
X131236737Y-97148362D01*
X131178260Y-97366606D01*
X131175778Y-97375868D01*
X131155249Y-97610500D01*
X131170954Y-97790000D01*
X131175778Y-97845133D01*
X131236737Y-98072638D01*
X131336276Y-98286100D01*
X131471371Y-98479035D01*
X131637915Y-98645579D01*
X131830850Y-98780674D01*
X132044312Y-98880213D01*
X132271817Y-98941172D01*
X132290694Y-98942824D01*
X132506450Y-98961701D01*
X132722206Y-98942824D01*
X132741083Y-98941172D01*
X132868364Y-98907068D01*
X133436575Y-99475279D01*
X133436575Y-99638781D01*
X133433148Y-99647054D01*
X133424875Y-99650481D01*
X133415291Y-99645492D01*
X133371928Y-99583564D01*
X133205385Y-99417021D01*
X133012450Y-99281926D01*
X132798988Y-99182387D01*
X132571483Y-99121428D01*
X132552606Y-99119776D01*
X132336850Y-99100899D01*
X132121094Y-99119776D01*
X132102217Y-99121428D01*
X131874712Y-99182387D01*
X131661250Y-99281926D01*
X131468315Y-99417021D01*
X131301771Y-99583565D01*
X131166676Y-99776500D01*
X131067137Y-99989962D01*
X131021441Y-100160506D01*
X131006178Y-100217468D01*
X130985649Y-100452100D01*
X131000461Y-100621393D01*
X131006178Y-100686733D01*
X131067137Y-100914238D01*
X131166676Y-101127700D01*
X131301771Y-101320635D01*
X131468315Y-101487179D01*
X131661250Y-101622274D01*
X131666365Y-101624659D01*
X131675951Y-101629130D01*
X131675951Y-102499846D01*
X131544264Y-102631533D01*
X131416983Y-102597428D01*
X131398106Y-102595776D01*
X131182350Y-102576899D01*
X130966594Y-102595776D01*
X130947717Y-102597428D01*
X130720212Y-102658387D01*
X130506750Y-102757926D01*
X130313815Y-102893021D01*
X130147271Y-103059565D01*
X130012176Y-103252500D01*
X129912637Y-103465962D01*
X129868755Y-103629736D01*
X129851678Y-103693468D01*
X129831149Y-103928100D01*
X129835673Y-103979798D01*
X129832981Y-103988338D01*
X129825038Y-103992473D01*
X129815745Y-103989091D01*
X129702140Y-103875487D01*
X129683022Y-103656968D01*
X129675726Y-103629736D01*
X129622063Y-103429462D01*
X129522524Y-103216000D01*
X129387429Y-103023065D01*
X129220885Y-102856521D01*
X129027950Y-102721426D01*
X128814488Y-102621887D01*
X128586983Y-102560928D01*
X128568106Y-102559276D01*
X128352350Y-102540399D01*
X128136594Y-102559276D01*
X128117717Y-102560928D01*
X127890212Y-102621887D01*
X127676750Y-102721426D01*
X127483815Y-102856521D01*
X127317271Y-103023065D01*
X127182176Y-103216000D01*
X127082637Y-103429462D01*
X127028975Y-103629736D01*
X127021678Y-103656968D01*
X127001149Y-103891600D01*
X127009679Y-103989091D01*
X127021678Y-104126233D01*
X127082637Y-104353738D01*
X127182176Y-104567200D01*
X127317271Y-104760135D01*
X127483815Y-104926679D01*
X127615091Y-105018600D01*
X127483815Y-105110521D01*
X127317271Y-105277065D01*
X127182176Y-105470000D01*
X127082637Y-105683462D01*
X127021858Y-105910298D01*
X127021678Y-105910968D01*
X127001149Y-106145600D01*
X127014668Y-106300115D01*
X127021678Y-106380233D01*
X127082637Y-106607738D01*
X127182176Y-106821200D01*
X127317271Y-107014135D01*
X127483815Y-107180679D01*
X127676750Y-107315774D01*
X127689023Y-107321497D01*
X127695071Y-107328099D01*
X127694681Y-107337045D01*
X127689023Y-107342703D01*
X127676750Y-107348426D01*
X127483815Y-107483521D01*
X127317271Y-107650065D01*
X127182176Y-107843000D01*
X127082637Y-108056462D01*
X127022570Y-108280640D01*
X127021678Y-108283968D01*
X127001149Y-108518600D01*
X127010284Y-108623004D01*
X127021678Y-108753233D01*
X127082637Y-108980738D01*
X127182176Y-109194200D01*
X127182178Y-109194203D01*
X127182609Y-109195127D01*
X127182198Y-109195319D01*
X127183786Y-109202465D01*
X127178979Y-109210020D01*
X127170238Y-109211963D01*
X127165060Y-109209660D01*
X127081582Y-109144440D01*
X126837599Y-109003576D01*
X126781064Y-108980734D01*
X126750524Y-108968395D01*
X126576375Y-108898034D01*
X126303020Y-108829880D01*
X126303018Y-108829880D01*
X126303015Y-108829879D01*
X126022826Y-108800430D01*
X125741265Y-108810262D01*
X125561657Y-108841932D01*
X125463811Y-108859185D01*
X125195873Y-108946243D01*
X125195869Y-108946245D01*
X124942650Y-109069748D01*
X124709083Y-109227291D01*
X124499715Y-109415807D01*
X124336724Y-109610052D01*
X124318618Y-109631630D01*
X124169325Y-109870550D01*
X124128741Y-109961704D01*
X124054735Y-110127925D01*
X123977079Y-110398743D01*
X123963326Y-110496601D01*
X123937869Y-110677733D01*
X123374250Y-110677733D01*
X123374250Y-107362417D01*
X124895538Y-107362417D01*
X124914742Y-107457655D01*
X124933945Y-107552894D01*
X125009869Y-107731758D01*
X125120207Y-107891702D01*
X125260453Y-108026194D01*
X125308518Y-108056462D01*
X125400841Y-108114600D01*
X125424878Y-108129737D01*
X125606764Y-108198104D01*
X125798683Y-108228501D01*
X125992794Y-108219686D01*
X126181168Y-108172020D01*
X126356110Y-108087450D01*
X126510474Y-107969430D01*
X126637953Y-107822782D01*
X126689243Y-107731758D01*
X126733341Y-107653497D01*
X126752412Y-107594097D01*
X126792741Y-107468486D01*
X126813727Y-107275312D01*
X126813750Y-107268600D01*
X126794114Y-107075284D01*
X126736007Y-106889864D01*
X126685957Y-106799571D01*
X126641803Y-106719915D01*
X126515352Y-106572383D01*
X126515350Y-106572381D01*
X126361814Y-106453287D01*
X126187467Y-106367497D01*
X126187465Y-106367496D01*
X126187464Y-106367496D01*
X125999432Y-106318517D01*
X125902409Y-106313433D01*
X125805386Y-106308348D01*
X125805385Y-106308348D01*
X125613260Y-106337403D01*
X125430902Y-106404498D01*
X125430901Y-106404499D01*
X125430900Y-106404499D01*
X125265756Y-106506893D01*
X125124575Y-106640401D01*
X125013123Y-106799572D01*
X124935952Y-106977902D01*
X124901191Y-107144299D01*
X124896217Y-107168108D01*
X124895538Y-107362417D01*
X123374250Y-107362417D01*
X123374250Y-102862417D01*
X124895538Y-102862417D01*
X124904161Y-102905182D01*
X124933945Y-103052894D01*
X125009869Y-103231758D01*
X125120207Y-103391702D01*
X125260453Y-103526194D01*
X125424878Y-103629737D01*
X125606764Y-103698104D01*
X125798683Y-103728501D01*
X125992794Y-103719686D01*
X126181168Y-103672020D01*
X126356110Y-103587450D01*
X126510474Y-103469430D01*
X126637953Y-103322782D01*
X126689243Y-103231758D01*
X126733341Y-103153497D01*
X126763499Y-103059564D01*
X126792741Y-102968486D01*
X126813727Y-102775312D01*
X126813750Y-102768600D01*
X126812012Y-102751484D01*
X126802555Y-102658386D01*
X126794114Y-102575284D01*
X126736007Y-102389864D01*
X126648099Y-102231274D01*
X126641803Y-102219915D01*
X126515352Y-102072383D01*
X126515350Y-102072381D01*
X126361814Y-101953287D01*
X126187467Y-101867497D01*
X126187465Y-101867496D01*
X126187464Y-101867496D01*
X125999432Y-101818517D01*
X125902409Y-101813433D01*
X125805386Y-101808348D01*
X125805385Y-101808348D01*
X125613260Y-101837403D01*
X125430902Y-101904498D01*
X125430901Y-101904499D01*
X125430900Y-101904499D01*
X125265756Y-102006893D01*
X125124575Y-102140401D01*
X125013123Y-102299572D01*
X124935952Y-102477902D01*
X124898248Y-102658387D01*
X124896217Y-102668108D01*
X124895538Y-102862417D01*
X123374250Y-102862417D01*
X123374250Y-99077734D01*
X123937869Y-99077734D01*
X123937869Y-99359466D01*
X123977079Y-99638457D01*
X124054735Y-99909275D01*
X124054737Y-99909279D01*
X124169325Y-100166650D01*
X124318618Y-100405570D01*
X124318620Y-100405572D01*
X124318621Y-100405574D01*
X124499715Y-100621393D01*
X124709083Y-100809909D01*
X124942650Y-100967452D01*
X125078323Y-101033624D01*
X125195873Y-101090957D01*
X125463811Y-101178015D01*
X125561657Y-101195268D01*
X125741265Y-101226938D01*
X126022826Y-101236770D01*
X126303015Y-101207321D01*
X126303018Y-101207320D01*
X126303020Y-101207320D01*
X126576375Y-101139166D01*
X126837599Y-101033624D01*
X127081582Y-100892760D01*
X127303592Y-100719307D01*
X127499299Y-100516646D01*
X127532288Y-100471241D01*
X127664898Y-100288719D01*
X127797164Y-100039964D01*
X127893522Y-99775222D01*
X127952097Y-99499646D01*
X127957875Y-99417021D01*
X127971751Y-99218600D01*
X127953533Y-98958096D01*
X127952097Y-98937554D01*
X127893522Y-98661978D01*
X127797164Y-98397236D01*
X127664898Y-98148481D01*
X127499300Y-97920555D01*
X127303592Y-97717893D01*
X127219976Y-97652565D01*
X127081582Y-97544440D01*
X126837599Y-97403576D01*
X126832662Y-97401581D01*
X126707286Y-97350926D01*
X126576375Y-97298034D01*
X126303020Y-97229880D01*
X126303018Y-97229880D01*
X126303015Y-97229879D01*
X126022826Y-97200430D01*
X125741265Y-97210262D01*
X125561657Y-97241932D01*
X125463811Y-97259185D01*
X125195873Y-97346243D01*
X125186269Y-97350927D01*
X124942650Y-97469748D01*
X124709083Y-97627291D01*
X124499715Y-97815807D01*
X124368306Y-97972414D01*
X124318618Y-98031630D01*
X124169325Y-98270550D01*
X124090390Y-98447843D01*
X124054735Y-98527925D01*
X123977079Y-98798743D01*
X123963830Y-98893014D01*
X123942795Y-99042687D01*
X123937869Y-99077734D01*
X123374250Y-99077734D01*
X123374250Y-92522808D01*
X130652918Y-92522808D01*
X130656206Y-92550585D01*
X130685434Y-92797537D01*
X130757269Y-93064696D01*
X130866917Y-93318686D01*
X130910187Y-93388883D01*
X131012083Y-93554188D01*
X131187229Y-93763290D01*
X131189723Y-93766268D01*
X131396119Y-93950482D01*
X131626944Y-94102973D01*
X131759792Y-94165345D01*
X131877365Y-94220546D01*
X132142137Y-94300738D01*
X132415708Y-94341867D01*
X132692353Y-94343074D01*
X132692354Y-94343074D01*
X132966276Y-94304333D01*
X133231736Y-94226455D01*
X133483174Y-94111073D01*
X133715322Y-93960602D01*
X133923319Y-93778194D01*
X134102800Y-93567676D01*
X134250016Y-93333448D01*
X134266364Y-93296469D01*
X134361877Y-93080424D01*
X134436040Y-92813902D01*
X134436041Y-92813897D01*
X134470953Y-92539473D01*
X134471061Y-92535480D01*
X134723600Y-92535480D01*
X134723600Y-94139414D01*
X134738215Y-94298470D01*
X134796404Y-94504791D01*
X134796405Y-94504794D01*
X134891216Y-94697053D01*
X134993590Y-94834149D01*
X135019480Y-94868820D01*
X135076701Y-94921714D01*
X135076701Y-95662984D01*
X135075889Y-95740494D01*
X135086461Y-95789390D01*
X135092036Y-95839093D01*
X135105677Y-95878264D01*
X135114442Y-95918804D01*
X135122192Y-95935424D01*
X135135581Y-95964138D01*
X135152031Y-96011376D01*
X135174009Y-96046549D01*
X135180591Y-96060662D01*
X135191540Y-96084142D01*
X135222200Y-96123668D01*
X135248705Y-96166085D01*
X135277929Y-96195514D01*
X135279292Y-96197271D01*
X135334168Y-96252147D01*
X135377251Y-96295532D01*
X135377252Y-96295533D01*
X135378080Y-96296059D01*
X137271331Y-98189311D01*
X137325508Y-98244636D01*
X137325510Y-98244637D01*
X137367555Y-98271733D01*
X137406647Y-98302940D01*
X137406649Y-98302941D01*
X137443989Y-98320993D01*
X137478857Y-98343462D01*
X137489691Y-98347405D01*
X137525858Y-98360569D01*
X137570892Y-98382339D01*
X137611303Y-98391668D01*
X137650283Y-98405856D01*
X137679296Y-98409521D01*
X137699920Y-98412127D01*
X137748646Y-98423376D01*
X137769382Y-98423448D01*
X137790118Y-98423521D01*
X137792328Y-98423800D01*
X137870054Y-98423800D01*
X137931073Y-98424013D01*
X137931075Y-98424013D01*
X137932028Y-98423800D01*
X139052695Y-98423800D01*
X139091371Y-98479035D01*
X139257915Y-98645579D01*
X139450850Y-98780674D01*
X139664312Y-98880213D01*
X139891817Y-98941172D01*
X139910694Y-98942824D01*
X140126450Y-98961701D01*
X140342206Y-98942824D01*
X140361083Y-98941172D01*
X140588588Y-98880213D01*
X140802050Y-98780674D01*
X140994985Y-98645579D01*
X141164264Y-98476300D01*
X143102531Y-98476300D01*
X143111480Y-98492379D01*
X143164434Y-98557076D01*
X143252194Y-98664299D01*
X143421131Y-98808585D01*
X143612949Y-98920674D01*
X143812144Y-98993568D01*
X143821580Y-98997021D01*
X144040436Y-99035217D01*
X144040437Y-99035217D01*
X144041600Y-99035211D01*
X144262598Y-99034054D01*
X144403985Y-99007850D01*
X144481039Y-98993569D01*
X144565375Y-98961701D01*
X144688865Y-98915038D01*
X144688869Y-98915036D01*
X144879493Y-98800950D01*
X144879494Y-98800949D01*
X144879496Y-98800948D01*
X145046912Y-98654902D01*
X145071276Y-98624491D01*
X145185818Y-98481519D01*
X145270180Y-98326142D01*
X145291826Y-98286276D01*
X145361584Y-98075347D01*
X145367806Y-98031626D01*
X145392887Y-97855401D01*
X145394600Y-97790003D01*
X145394600Y-97790000D01*
X145374851Y-97568715D01*
X145374850Y-97568711D01*
X145316229Y-97354424D01*
X145220583Y-97153901D01*
X145090943Y-96973488D01*
X144931400Y-96818879D01*
X144900773Y-96798298D01*
X144746999Y-96694967D01*
X144746998Y-96694966D01*
X144543574Y-96605670D01*
X144543575Y-96605670D01*
X144543572Y-96605669D01*
X144327545Y-96553805D01*
X144105749Y-96541017D01*
X144105745Y-96541017D01*
X143885196Y-96567706D01*
X143672850Y-96633032D01*
X143475428Y-96734929D01*
X143325857Y-96849700D01*
X142065676Y-96849700D01*
X142057403Y-96846273D01*
X142053976Y-96838000D01*
X142057403Y-96829727D01*
X142922730Y-95964400D01*
X146992628Y-95964400D01*
X147063593Y-95965143D01*
X147070041Y-95965211D01*
X147070044Y-95965211D01*
X147118930Y-95954641D01*
X147168643Y-95949065D01*
X147207819Y-95935424D01*
X147233475Y-95929875D01*
X147248354Y-95926658D01*
X147265647Y-95918594D01*
X147293680Y-95905523D01*
X147340926Y-95889070D01*
X147376105Y-95867088D01*
X147390216Y-95860507D01*
X147413692Y-95849560D01*
X147453212Y-95818905D01*
X147475636Y-95804893D01*
X147495635Y-95792397D01*
X147510351Y-95777782D01*
X147525068Y-95763167D01*
X147526200Y-95762289D01*
X147526823Y-95761807D01*
X147554181Y-95734448D01*
X147581554Y-95707075D01*
X147625082Y-95663850D01*
X147625608Y-95663021D01*
X149471157Y-93817473D01*
X149475318Y-93813399D01*
X149526486Y-93763292D01*
X149553585Y-93721242D01*
X149584790Y-93682153D01*
X149584791Y-93682151D01*
X149602843Y-93644811D01*
X149625312Y-93609943D01*
X149629255Y-93599109D01*
X149642419Y-93562942D01*
X149664189Y-93517908D01*
X149673518Y-93477497D01*
X149687706Y-93438517D01*
X149691371Y-93409504D01*
X149693977Y-93388880D01*
X149705226Y-93340154D01*
X149705371Y-93298681D01*
X149705650Y-93296469D01*
X149705650Y-93218746D01*
X149705863Y-93157727D01*
X149705650Y-93156773D01*
X149705650Y-93049855D01*
X149760886Y-93011178D01*
X149927428Y-92844636D01*
X149966105Y-92789400D01*
X150777971Y-92789400D01*
X150936550Y-92947979D01*
X150936551Y-96105164D01*
X150850185Y-96149170D01*
X150759170Y-96240185D01*
X150700735Y-96354870D01*
X150680600Y-96482000D01*
X150680600Y-98082000D01*
X150700735Y-98209130D01*
X150759170Y-98323815D01*
X150850185Y-98414830D01*
X150964870Y-98473265D01*
X151092000Y-98493400D01*
X152692000Y-98493400D01*
X152819130Y-98473265D01*
X152933815Y-98414830D01*
X153024830Y-98323815D01*
X153083265Y-98209130D01*
X153103400Y-98082000D01*
X153103400Y-96482000D01*
X153083265Y-96354870D01*
X153024830Y-96240185D01*
X152933815Y-96149170D01*
X152819130Y-96090735D01*
X152705300Y-96072706D01*
X152705300Y-94132900D01*
X154713200Y-94132900D01*
X154721473Y-94136327D01*
X154724900Y-94144600D01*
X154721473Y-94152873D01*
X154394048Y-94480299D01*
X154109424Y-94764923D01*
X154064140Y-94804427D01*
X154028092Y-94855718D01*
X153989414Y-94905046D01*
X153982210Y-94921001D01*
X153972140Y-94935329D01*
X153961087Y-94963678D01*
X153949359Y-94993757D01*
X153923572Y-95050869D01*
X153920382Y-95068080D01*
X153914020Y-95084398D01*
X153905837Y-95146557D01*
X153898693Y-95185103D01*
X153894414Y-95208187D01*
X153898100Y-95272117D01*
X153898101Y-97129888D01*
X153896841Y-97148366D01*
X153894013Y-97189850D01*
X153895860Y-97200430D01*
X153904795Y-97251629D01*
X153912323Y-97313839D01*
X153918510Y-97330213D01*
X153921521Y-97347465D01*
X153923041Y-97350927D01*
X153946718Y-97404868D01*
X153965943Y-97455741D01*
X153968878Y-97463509D01*
X153978794Y-97477937D01*
X153985832Y-97493970D01*
X153985833Y-97493971D01*
X154023991Y-97543700D01*
X154059501Y-97595367D01*
X154107314Y-97637967D01*
X155026422Y-98557076D01*
X155058658Y-98594029D01*
X155065926Y-98602360D01*
X155117217Y-98638408D01*
X155166545Y-98677086D01*
X155182500Y-98684290D01*
X155196828Y-98694360D01*
X155225177Y-98705413D01*
X155255256Y-98717141D01*
X155312367Y-98742928D01*
X155315557Y-98743519D01*
X155329580Y-98746118D01*
X155345897Y-98752480D01*
X155408054Y-98760663D01*
X155449017Y-98768255D01*
X155469685Y-98772086D01*
X155469687Y-98772086D01*
X155483892Y-98771267D01*
X155533615Y-98768400D01*
X157904747Y-98768400D01*
X158343100Y-99206754D01*
X158343100Y-99681530D01*
X158291957Y-99711957D01*
X158195018Y-99796969D01*
X158125278Y-99858129D01*
X157988034Y-100032224D01*
X157884813Y-100228415D01*
X157819071Y-100440139D01*
X157800482Y-100597199D01*
X157797600Y-100621552D01*
X157797600Y-101546415D01*
X157812885Y-101712760D01*
X157853880Y-101858115D01*
X157873062Y-101926130D01*
X157971112Y-102124954D01*
X158042023Y-102219916D01*
X158103755Y-102302585D01*
X158118060Y-102315809D01*
X158121809Y-102323941D01*
X158118710Y-102332342D01*
X158110118Y-102336100D01*
X154705754Y-102336100D01*
X154442783Y-102073130D01*
X154442132Y-102072383D01*
X154403275Y-102027841D01*
X154351970Y-101991783D01*
X154302655Y-101953115D01*
X154286703Y-101945912D01*
X154272373Y-101935841D01*
X154244020Y-101924787D01*
X154213938Y-101913057D01*
X154156833Y-101887273D01*
X154153643Y-101886682D01*
X154139622Y-101884083D01*
X154123304Y-101877721D01*
X154061141Y-101869538D01*
X154019399Y-101861801D01*
X153999514Y-101858115D01*
X153999512Y-101858115D01*
X153985308Y-101858934D01*
X153935585Y-101861801D01*
X143563454Y-101861801D01*
X143487083Y-101785430D01*
X143447574Y-101740140D01*
X143396273Y-101704085D01*
X143346954Y-101665414D01*
X143331002Y-101658211D01*
X143316672Y-101648140D01*
X143288319Y-101637086D01*
X143258237Y-101625356D01*
X143201132Y-101599572D01*
X143197942Y-101598981D01*
X143183921Y-101596382D01*
X143167603Y-101590020D01*
X143105440Y-101581837D01*
X143063698Y-101574100D01*
X143043813Y-101570414D01*
X143043811Y-101570414D01*
X143029607Y-101571233D01*
X142979884Y-101574100D01*
X139725103Y-101574100D01*
X139665150Y-101570013D01*
X139665149Y-101570013D01*
X139650687Y-101572537D01*
X139603386Y-101580792D01*
X139594751Y-101581837D01*
X139541161Y-101588322D01*
X139524783Y-101594511D01*
X139507534Y-101597521D01*
X139487538Y-101606299D01*
X139450144Y-101622713D01*
X139399261Y-101641941D01*
X139391491Y-101644877D01*
X139391490Y-101644878D01*
X139391489Y-101644878D01*
X139386743Y-101648140D01*
X139377059Y-101654796D01*
X139361030Y-101661832D01*
X139311309Y-101699985D01*
X139292721Y-101712760D01*
X139259633Y-101735500D01*
X139217025Y-101783322D01*
X138615425Y-102384922D01*
X138609760Y-102389864D01*
X138570141Y-102424426D01*
X138534095Y-102475714D01*
X138526605Y-102485266D01*
X138495415Y-102525044D01*
X138495414Y-102525046D01*
X138488210Y-102541002D01*
X138478141Y-102555328D01*
X138466031Y-102586388D01*
X138455363Y-102613747D01*
X138430819Y-102668108D01*
X138429572Y-102670869D01*
X138426381Y-102688083D01*
X138420021Y-102704397D01*
X138411840Y-102766541D01*
X138404223Y-102807640D01*
X138400414Y-102828187D01*
X138404101Y-102892133D01*
X138404100Y-104528151D01*
X138400013Y-104588099D01*
X138410792Y-104649863D01*
X138418322Y-104712088D01*
X138424511Y-104728466D01*
X138427521Y-104745715D01*
X138436299Y-104765712D01*
X138452714Y-104803108D01*
X138474878Y-104861760D01*
X138484795Y-104876188D01*
X138491832Y-104892220D01*
X138518273Y-104926679D01*
X138529988Y-104941946D01*
X138544581Y-104963178D01*
X138565501Y-104993617D01*
X138613313Y-105036216D01*
X140108282Y-106531186D01*
X140074178Y-106658467D01*
X140074178Y-106658468D01*
X140053649Y-106893100D01*
X140072131Y-107104334D01*
X140074178Y-107127733D01*
X140135137Y-107355238D01*
X140234676Y-107568700D01*
X140369771Y-107761635D01*
X140536315Y-107928179D01*
X140729250Y-108063274D01*
X140942712Y-108162813D01*
X141170217Y-108223772D01*
X141182253Y-108224825D01*
X141404850Y-108244301D01*
X141627447Y-108224825D01*
X141639483Y-108223772D01*
X141866988Y-108162813D01*
X142080450Y-108063274D01*
X142273385Y-107928179D01*
X142439929Y-107761635D01*
X142575024Y-107568700D01*
X142674563Y-107355238D01*
X142735522Y-107127733D01*
X142737569Y-107104334D01*
X142756051Y-106893100D01*
X142735522Y-106658468D01*
X142730682Y-106640402D01*
X142674563Y-106430962D01*
X142575024Y-106217500D01*
X142439929Y-106024565D01*
X142273385Y-105858021D01*
X142080450Y-105722926D01*
X141866988Y-105623387D01*
X141639483Y-105562428D01*
X141620606Y-105560776D01*
X141404850Y-105541899D01*
X141189094Y-105560776D01*
X141170217Y-105562428D01*
X141042936Y-105596532D01*
X139725900Y-104279497D01*
X139725900Y-103143753D01*
X139973753Y-102895900D01*
X140442690Y-102895900D01*
X140450963Y-102899327D01*
X140454390Y-102907600D01*
X140450963Y-102915873D01*
X140307271Y-103059565D01*
X140172176Y-103252500D01*
X140072637Y-103465962D01*
X140028755Y-103629736D01*
X140011678Y-103693468D01*
X139991149Y-103928100D01*
X140008485Y-104126233D01*
X140011678Y-104162733D01*
X140072637Y-104390238D01*
X140172176Y-104603700D01*
X140307271Y-104796635D01*
X140473815Y-104963179D01*
X140666750Y-105098274D01*
X140880212Y-105197813D01*
X141107717Y-105258772D01*
X141126594Y-105260424D01*
X141342350Y-105279301D01*
X141558106Y-105260424D01*
X141576983Y-105258772D01*
X141804488Y-105197813D01*
X142017950Y-105098274D01*
X142210885Y-104963179D01*
X142377429Y-104796635D01*
X142512524Y-104603700D01*
X142612063Y-104390238D01*
X142673022Y-104162733D01*
X142683856Y-104038900D01*
X153142247Y-104038900D01*
X153375423Y-104272077D01*
X153414926Y-104317360D01*
X153466217Y-104353408D01*
X153515545Y-104392086D01*
X153531500Y-104399290D01*
X153545828Y-104409360D01*
X153574177Y-104420413D01*
X153604256Y-104432141D01*
X153661367Y-104457928D01*
X153664557Y-104458519D01*
X153678579Y-104461118D01*
X153694897Y-104467480D01*
X153757056Y-104475663D01*
X153798144Y-104483278D01*
X153818686Y-104487086D01*
X153818688Y-104487086D01*
X153832893Y-104486267D01*
X153882616Y-104483400D01*
X161150852Y-104483400D01*
X161210800Y-104487487D01*
X161272553Y-104476710D01*
X161334789Y-104469178D01*
X161351167Y-104462989D01*
X161368415Y-104459979D01*
X161388409Y-104451202D01*
X161425802Y-104434789D01*
X161476688Y-104415559D01*
X161484459Y-104412623D01*
X161484460Y-104412622D01*
X161484461Y-104412622D01*
X161498891Y-104402704D01*
X161514920Y-104395668D01*
X161564641Y-104357515D01*
X161603822Y-104330587D01*
X161616317Y-104322000D01*
X161658925Y-104274178D01*
X161727703Y-104205400D01*
X163468747Y-104205400D01*
X164678422Y-105415076D01*
X164717926Y-105460360D01*
X164729416Y-105468435D01*
X164769217Y-105496408D01*
X164818545Y-105535086D01*
X164834500Y-105542290D01*
X164848828Y-105552360D01*
X164874651Y-105562428D01*
X164907256Y-105575141D01*
X164964367Y-105600928D01*
X164967557Y-105601519D01*
X164981579Y-105604118D01*
X164997897Y-105610480D01*
X165060065Y-105618664D01*
X165101146Y-105626278D01*
X165121685Y-105630085D01*
X165121687Y-105630085D01*
X165137665Y-105629164D01*
X165185604Y-105626400D01*
X167430497Y-105626400D01*
X167583282Y-105779186D01*
X167549178Y-105906467D01*
X167549178Y-105906468D01*
X167528649Y-106141100D01*
X167545825Y-106337404D01*
X167549178Y-106375733D01*
X167610137Y-106603238D01*
X167709676Y-106816700D01*
X167844771Y-107009635D01*
X168011315Y-107176179D01*
X168204250Y-107311274D01*
X168395590Y-107400498D01*
X168401638Y-107407098D01*
X168401248Y-107416045D01*
X168395591Y-107421702D01*
X168204250Y-107510926D01*
X168011315Y-107646021D01*
X167844771Y-107812565D01*
X167746316Y-107953174D01*
X167709675Y-108005502D01*
X167702820Y-108020200D01*
X167575871Y-108020200D01*
X167515922Y-108016113D01*
X167454158Y-108026892D01*
X167427769Y-108030085D01*
X167391934Y-108034422D01*
X167375557Y-108040610D01*
X167358306Y-108043621D01*
X167338309Y-108052399D01*
X167300910Y-108068815D01*
X167251598Y-108087450D01*
X167242264Y-108090977D01*
X167242263Y-108090978D01*
X167242262Y-108090978D01*
X167237173Y-108094476D01*
X167227834Y-108100894D01*
X167211802Y-108107932D01*
X167174072Y-108136883D01*
X167162076Y-108146088D01*
X167110406Y-108181600D01*
X167067806Y-108229413D01*
X165214120Y-110083100D01*
X164837328Y-110083100D01*
X164829055Y-110079673D01*
X164825628Y-110071400D01*
X164829614Y-110062603D01*
X164956431Y-109951387D01*
X164962719Y-109945873D01*
X165022100Y-109870549D01*
X165099966Y-109771777D01*
X165203187Y-109575586D01*
X165268929Y-109363862D01*
X165290400Y-109182447D01*
X165290400Y-108257587D01*
X165288890Y-108241148D01*
X165275115Y-108091240D01*
X165214939Y-107877873D01*
X165214938Y-107877870D01*
X165116889Y-107679046D01*
X164984247Y-107501416D01*
X164948623Y-107468486D01*
X164821453Y-107350932D01*
X164733013Y-107295131D01*
X164633963Y-107232634D01*
X164492452Y-107176178D01*
X164428055Y-107150486D01*
X164210625Y-107107236D01*
X163988955Y-107104334D01*
X163988954Y-107104334D01*
X163972066Y-107107236D01*
X163770467Y-107141877D01*
X163562479Y-107218608D01*
X163562478Y-107218609D01*
X163562477Y-107218609D01*
X163539144Y-107232491D01*
X162410083Y-106103430D01*
X162370574Y-106058140D01*
X162322802Y-106024565D01*
X162319269Y-106022082D01*
X162308609Y-106013723D01*
X162269954Y-105983414D01*
X162254002Y-105976211D01*
X162239672Y-105966140D01*
X162211319Y-105955086D01*
X162181237Y-105943356D01*
X162124132Y-105917572D01*
X162120942Y-105916981D01*
X162106921Y-105914382D01*
X162090603Y-105908020D01*
X162028440Y-105899837D01*
X161986698Y-105892100D01*
X161966813Y-105888414D01*
X161966811Y-105888414D01*
X161952607Y-105889233D01*
X161902884Y-105892100D01*
X158134754Y-105892100D01*
X157727611Y-105484958D01*
X157727609Y-105484956D01*
X157711085Y-105468433D01*
X157671574Y-105423140D01*
X157620273Y-105387085D01*
X157570954Y-105348414D01*
X157555002Y-105341211D01*
X157540672Y-105331140D01*
X157512319Y-105320086D01*
X157482237Y-105308356D01*
X157425132Y-105282572D01*
X157421942Y-105281981D01*
X157407921Y-105279382D01*
X157391603Y-105273020D01*
X157329440Y-105264837D01*
X157285027Y-105256605D01*
X157267813Y-105253414D01*
X157267811Y-105253414D01*
X157253607Y-105254233D01*
X157203884Y-105257100D01*
X154711103Y-105257100D01*
X154651150Y-105253013D01*
X154651149Y-105253013D01*
X154636687Y-105255537D01*
X154589386Y-105263792D01*
X154580751Y-105264837D01*
X154527161Y-105271322D01*
X154510783Y-105277511D01*
X154493534Y-105280521D01*
X154466043Y-105292589D01*
X154436136Y-105305716D01*
X154387264Y-105324184D01*
X154377491Y-105327877D01*
X154377490Y-105327878D01*
X154377489Y-105327878D01*
X154372401Y-105331375D01*
X154363065Y-105337792D01*
X154347029Y-105344831D01*
X154297293Y-105382995D01*
X154245632Y-105418501D01*
X154237113Y-105428063D01*
X154203032Y-105466314D01*
X153601426Y-106067921D01*
X153556140Y-106107427D01*
X153529312Y-106145600D01*
X153520092Y-106158718D01*
X153481414Y-106208046D01*
X153474210Y-106224001D01*
X153464140Y-106238329D01*
X153454073Y-106264149D01*
X153441359Y-106296757D01*
X153423007Y-106337403D01*
X153415572Y-106353869D01*
X153412382Y-106371080D01*
X153406020Y-106387398D01*
X153397837Y-106449557D01*
X153390222Y-106490645D01*
X153386414Y-106511187D01*
X153390100Y-106575117D01*
X153390101Y-108819245D01*
X151618247Y-110591100D01*
X150641754Y-110591100D01*
X148376585Y-108325932D01*
X148337074Y-108280640D01*
X148285769Y-108244582D01*
X148285410Y-108244300D01*
X148236454Y-108205914D01*
X148220502Y-108198711D01*
X148206172Y-108188640D01*
X148177819Y-108177586D01*
X148147737Y-108165856D01*
X148090632Y-108140072D01*
X148087442Y-108139481D01*
X148073421Y-108136882D01*
X148057103Y-108130520D01*
X147994940Y-108122337D01*
X147953198Y-108114600D01*
X147933313Y-108110914D01*
X147933311Y-108110914D01*
X147919107Y-108111733D01*
X147869384Y-108114600D01*
X143217598Y-108114600D01*
X143157650Y-108110513D01*
X143157649Y-108110513D01*
X143143187Y-108113037D01*
X143095886Y-108121292D01*
X143087251Y-108122337D01*
X143033661Y-108128822D01*
X143017283Y-108135011D01*
X143000034Y-108138021D01*
X142981657Y-108146088D01*
X142942641Y-108163214D01*
X142893987Y-108181600D01*
X142883991Y-108185377D01*
X142883990Y-108185378D01*
X142883989Y-108185378D01*
X142869559Y-108195296D01*
X142853529Y-108202332D01*
X142818236Y-108229413D01*
X142803803Y-108240488D01*
X142752133Y-108276000D01*
X142709533Y-108323813D01*
X140955275Y-110078072D01*
X140909991Y-110117576D01*
X140873942Y-110168868D01*
X140835265Y-110218194D01*
X140835264Y-110218196D01*
X140828060Y-110234152D01*
X140817991Y-110248478D01*
X140808626Y-110272498D01*
X140795213Y-110306897D01*
X140774594Y-110352565D01*
X140769422Y-110364019D01*
X140766231Y-110381233D01*
X140759871Y-110397547D01*
X140751690Y-110459691D01*
X140747018Y-110484901D01*
X140741139Y-110516620D01*
X140740264Y-110521339D01*
X140740274Y-110521508D01*
X140743951Y-110585283D01*
X140743951Y-111598970D01*
X140734365Y-111603441D01*
X140729250Y-111605826D01*
X140536315Y-111740921D01*
X140369771Y-111907465D01*
X140234676Y-112100400D01*
X140135137Y-112313862D01*
X140121255Y-112365673D01*
X140074178Y-112541368D01*
X140053649Y-112776000D01*
X140063848Y-112892564D01*
X140074178Y-113010633D01*
X140135137Y-113238138D01*
X140234676Y-113451600D01*
X140369771Y-113644535D01*
X140536315Y-113811079D01*
X140729250Y-113946174D01*
X140734365Y-113948559D01*
X140743951Y-113953030D01*
X140743951Y-114328738D01*
X140739863Y-114388699D01*
X140750645Y-114450479D01*
X140758173Y-114512689D01*
X140764360Y-114529063D01*
X140767371Y-114546315D01*
X140774572Y-114562719D01*
X140792568Y-114603718D01*
X140814729Y-114662361D01*
X140816114Y-114664376D01*
X140824644Y-114676787D01*
X140831682Y-114692820D01*
X140831683Y-114692821D01*
X140869841Y-114742550D01*
X140905351Y-114794217D01*
X140953164Y-114836817D01*
X143083600Y-116967254D01*
X143076700Y-116984423D01*
X143075734Y-116986826D01*
X143032841Y-117193946D01*
X143030681Y-117204376D01*
X143024866Y-117426465D01*
X143058471Y-117646070D01*
X143130434Y-117856259D01*
X143215393Y-118008900D01*
X143238480Y-118050379D01*
X143293234Y-118117275D01*
X143379194Y-118222299D01*
X143548131Y-118366585D01*
X143739949Y-118478674D01*
X143948577Y-118555020D01*
X143948580Y-118555021D01*
X144167436Y-118593217D01*
X144167437Y-118593217D01*
X144168600Y-118593211D01*
X144389598Y-118592054D01*
X144530985Y-118565850D01*
X144608039Y-118551569D01*
X144608042Y-118551568D01*
X144815865Y-118473038D01*
X144815869Y-118473036D01*
X145006493Y-118358950D01*
X145006494Y-118358949D01*
X145006496Y-118358948D01*
X145173912Y-118212902D01*
X145173913Y-118212901D01*
X145312818Y-118039519D01*
X145329442Y-118008900D01*
X146874845Y-118008900D01*
X147955723Y-119089779D01*
X147995225Y-119135061D01*
X148046516Y-119171109D01*
X148095844Y-119209787D01*
X148111799Y-119216991D01*
X148126127Y-119227061D01*
X148154476Y-119238114D01*
X148184555Y-119249842D01*
X148241666Y-119275629D01*
X148244856Y-119276220D01*
X148258879Y-119278819D01*
X148275196Y-119285181D01*
X148337353Y-119293364D01*
X148377134Y-119300737D01*
X148398984Y-119304787D01*
X148398986Y-119304787D01*
X148413191Y-119303968D01*
X148462914Y-119301101D01*
X150066701Y-119301101D01*
X150126649Y-119305188D01*
X150188402Y-119294411D01*
X150250638Y-119286879D01*
X150267016Y-119280690D01*
X150284264Y-119277680D01*
X150304258Y-119268903D01*
X150341651Y-119252490D01*
X150392537Y-119233260D01*
X150400308Y-119230324D01*
X150400309Y-119230323D01*
X150400310Y-119230323D01*
X150414740Y-119220405D01*
X150430769Y-119213369D01*
X150480490Y-119175216D01*
X150532167Y-119139700D01*
X150540688Y-119130137D01*
X150574774Y-119091879D01*
X152143845Y-117522808D01*
X169652918Y-117522808D01*
X169663757Y-117614384D01*
X169685434Y-117797537D01*
X169757269Y-118064696D01*
X169866917Y-118318686D01*
X170012083Y-118554188D01*
X170189723Y-118766268D01*
X170396119Y-118950482D01*
X170626944Y-119102973D01*
X170705170Y-119139700D01*
X170877365Y-119220546D01*
X171142137Y-119300738D01*
X171415708Y-119341867D01*
X171692353Y-119343074D01*
X171692354Y-119343074D01*
X171966276Y-119304333D01*
X172231736Y-119226455D01*
X172483174Y-119111073D01*
X172715322Y-118960602D01*
X172923319Y-118778194D01*
X173102800Y-118567676D01*
X173250016Y-118333448D01*
X173256542Y-118318686D01*
X173361877Y-118080424D01*
X173436040Y-117813902D01*
X173438122Y-117797537D01*
X173470953Y-117539473D01*
X173471404Y-117522807D01*
X173473750Y-117436100D01*
X173456937Y-117204375D01*
X173453731Y-117160181D01*
X173394088Y-116890034D01*
X173296074Y-116631332D01*
X173161742Y-116389489D01*
X173057551Y-116252966D01*
X172993904Y-116169568D01*
X172796078Y-115976180D01*
X172572407Y-115813376D01*
X172548088Y-115800581D01*
X172327576Y-115684563D01*
X172066718Y-115592445D01*
X171858812Y-115551467D01*
X171795291Y-115538947D01*
X171518985Y-115525192D01*
X171518981Y-115525192D01*
X171361615Y-115540206D01*
X171243588Y-115551467D01*
X171037582Y-115601876D01*
X170974864Y-115617223D01*
X170718461Y-115721077D01*
X170718456Y-115721080D01*
X170479721Y-115860865D01*
X170479719Y-115860867D01*
X170479715Y-115860869D01*
X170389473Y-115933038D01*
X170263666Y-116033649D01*
X170074816Y-116235811D01*
X169917128Y-116463118D01*
X169793904Y-116710807D01*
X169707727Y-116973690D01*
X169662481Y-117234283D01*
X169660401Y-117246262D01*
X169652918Y-117522808D01*
X152143845Y-117522808D01*
X152341578Y-117325076D01*
X152386860Y-117285574D01*
X152422911Y-117234279D01*
X152461586Y-117184955D01*
X152468790Y-117169000D01*
X152478858Y-117154675D01*
X152478860Y-117154672D01*
X152489912Y-117126326D01*
X152501639Y-117096249D01*
X152527429Y-117039132D01*
X152528020Y-117035942D01*
X152530619Y-117021917D01*
X152536980Y-117005603D01*
X152545162Y-116943450D01*
X152556586Y-116881812D01*
X152552900Y-116817891D01*
X152552900Y-114319753D01*
X153181754Y-113690900D01*
X155669297Y-113690900D01*
X158004449Y-116026053D01*
X158043951Y-116071335D01*
X158095242Y-116107383D01*
X158144570Y-116146061D01*
X158160525Y-116153265D01*
X158174853Y-116163335D01*
X158203202Y-116174388D01*
X158233281Y-116186116D01*
X158290392Y-116211903D01*
X158293582Y-116212494D01*
X158307604Y-116215093D01*
X158323922Y-116221455D01*
X158386090Y-116229639D01*
X158427171Y-116237253D01*
X158447710Y-116241060D01*
X158447712Y-116241060D01*
X158463690Y-116240139D01*
X158511629Y-116237375D01*
X169399377Y-116237375D01*
X169459325Y-116241462D01*
X169461628Y-116241060D01*
X169521078Y-116230685D01*
X169583314Y-116223153D01*
X169599692Y-116216964D01*
X169616940Y-116213954D01*
X169636934Y-116205177D01*
X169674327Y-116188764D01*
X169725213Y-116169534D01*
X169732984Y-116166598D01*
X169732985Y-116166597D01*
X169732986Y-116166597D01*
X169747416Y-116156679D01*
X169763445Y-116149643D01*
X169813166Y-116111490D01*
X169864843Y-116075974D01*
X169902556Y-116033646D01*
X169907450Y-116028153D01*
X171144053Y-114791551D01*
X171189335Y-114752049D01*
X171225386Y-114700754D01*
X171264061Y-114651430D01*
X171271265Y-114635475D01*
X171281333Y-114621150D01*
X171281335Y-114621147D01*
X171292388Y-114592798D01*
X171304116Y-114562719D01*
X171329903Y-114505608D01*
X171330494Y-114502418D01*
X171333093Y-114488395D01*
X171339455Y-114472078D01*
X171347638Y-114409921D01*
X171359061Y-114348288D01*
X171357416Y-114319753D01*
X171355375Y-114284360D01*
X171355375Y-100360829D01*
X171359462Y-100300876D01*
X171357341Y-100288719D01*
X171348685Y-100239123D01*
X171341153Y-100176886D01*
X171334964Y-100160508D01*
X171331954Y-100143260D01*
X171323177Y-100123266D01*
X171306764Y-100085873D01*
X171284597Y-100027214D01*
X171274679Y-100012784D01*
X171267643Y-99996756D01*
X171267643Y-99996755D01*
X171229490Y-99947034D01*
X171193974Y-99895357D01*
X171146157Y-99852754D01*
X170176417Y-98883014D01*
X170210522Y-98755733D01*
X170216773Y-98684290D01*
X170231051Y-98521100D01*
X170210522Y-98286468D01*
X170210471Y-98286275D01*
X170149563Y-98058962D01*
X170050024Y-97845500D01*
X169914929Y-97652565D01*
X169748385Y-97486021D01*
X169555450Y-97350926D01*
X169341988Y-97251387D01*
X169114483Y-97190428D01*
X169095606Y-97188776D01*
X168879850Y-97169899D01*
X168664094Y-97188776D01*
X168645217Y-97190428D01*
X168517936Y-97224532D01*
X167792900Y-96499497D01*
X167792900Y-94894096D01*
X167795517Y-94855718D01*
X167796987Y-94834149D01*
X167786208Y-94772385D01*
X167778678Y-94710162D01*
X167778678Y-94710161D01*
X167772490Y-94693784D01*
X167769479Y-94676533D01*
X167760701Y-94656536D01*
X167744285Y-94619137D01*
X167722122Y-94560489D01*
X167718624Y-94555400D01*
X167712206Y-94546061D01*
X167705168Y-94530029D01*
X167667009Y-94480299D01*
X167631500Y-94428633D01*
X167583686Y-94386032D01*
X166220085Y-93022432D01*
X166180574Y-92977140D01*
X166129269Y-92941082D01*
X166079954Y-92902414D01*
X166064002Y-92895211D01*
X166049672Y-92885140D01*
X166021319Y-92874086D01*
X165991237Y-92862356D01*
X165934132Y-92836572D01*
X165930942Y-92835981D01*
X165916921Y-92833382D01*
X165900603Y-92827020D01*
X165838440Y-92818837D01*
X165796698Y-92811100D01*
X165776813Y-92807414D01*
X165776811Y-92807414D01*
X165762607Y-92808233D01*
X165712884Y-92811100D01*
X152705300Y-92811100D01*
X152705300Y-92747916D01*
X152706110Y-92670555D01*
X152695542Y-92621675D01*
X152689965Y-92571957D01*
X152676321Y-92532777D01*
X152674166Y-92522808D01*
X169652918Y-92522808D01*
X169656206Y-92550585D01*
X169685434Y-92797537D01*
X169757269Y-93064696D01*
X169866917Y-93318686D01*
X169910187Y-93388883D01*
X170012083Y-93554188D01*
X170187229Y-93763290D01*
X170189723Y-93766268D01*
X170396119Y-93950482D01*
X170626944Y-94102973D01*
X170759792Y-94165345D01*
X170877365Y-94220546D01*
X171142137Y-94300738D01*
X171415708Y-94341867D01*
X171692353Y-94343074D01*
X171692354Y-94343074D01*
X171966276Y-94304333D01*
X172231736Y-94226455D01*
X172483174Y-94111073D01*
X172715322Y-93960602D01*
X172923319Y-93778194D01*
X173102800Y-93567676D01*
X173250016Y-93333448D01*
X173266364Y-93296469D01*
X173361877Y-93080424D01*
X173436040Y-92813902D01*
X173436041Y-92813897D01*
X173470953Y-92539473D01*
X173471404Y-92522807D01*
X173473750Y-92436100D01*
X173459882Y-92244965D01*
X173453731Y-92160181D01*
X173394088Y-91890034D01*
X173296074Y-91631332D01*
X173161742Y-91389489D01*
X173036995Y-91226031D01*
X172993904Y-91169568D01*
X172796078Y-90976180D01*
X172572407Y-90813376D01*
X172548088Y-90800581D01*
X172327576Y-90684563D01*
X172066718Y-90592445D01*
X171858812Y-90551467D01*
X171795291Y-90538947D01*
X171518985Y-90525192D01*
X171518981Y-90525192D01*
X171361615Y-90540206D01*
X171243588Y-90551467D01*
X171037582Y-90601876D01*
X170974864Y-90617223D01*
X170718461Y-90721077D01*
X170718456Y-90721080D01*
X170479721Y-90860865D01*
X170479719Y-90860867D01*
X170479715Y-90860869D01*
X170379491Y-90941021D01*
X170263666Y-91033649D01*
X170074816Y-91235811D01*
X169917128Y-91463118D01*
X169793904Y-91710807D01*
X169707727Y-91973690D01*
X169660626Y-92244965D01*
X169660401Y-92246262D01*
X169652918Y-92522808D01*
X152674166Y-92522808D01*
X152667558Y-92492246D01*
X152666030Y-92488969D01*
X152646423Y-92446920D01*
X152629970Y-92399674D01*
X152607988Y-92364495D01*
X152601407Y-92350384D01*
X152590460Y-92326908D01*
X152559805Y-92287388D01*
X152548441Y-92269202D01*
X152533297Y-92244965D01*
X152518681Y-92230248D01*
X152504067Y-92215532D01*
X152503190Y-92214400D01*
X152502707Y-92213777D01*
X152474134Y-92185205D01*
X152447979Y-92159050D01*
X152404750Y-92115518D01*
X152403921Y-92114992D01*
X152360561Y-92071632D01*
X152360558Y-92071628D01*
X152305602Y-92016672D01*
X152262599Y-91973368D01*
X152261775Y-91972845D01*
X151686268Y-91397339D01*
X151678580Y-91389488D01*
X151632042Y-91341964D01*
X151589983Y-91314859D01*
X151550903Y-91283661D01*
X151513568Y-91265612D01*
X151478692Y-91243137D01*
X151455190Y-91234584D01*
X151431685Y-91226029D01*
X151386657Y-91204261D01*
X151346249Y-91194932D01*
X151307267Y-91180744D01*
X151280157Y-91177320D01*
X151257628Y-91174473D01*
X151208903Y-91163224D01*
X151188167Y-91163152D01*
X151167432Y-91163079D01*
X151165222Y-91162800D01*
X151087496Y-91162800D01*
X151026477Y-91162587D01*
X151026475Y-91162587D01*
X151025522Y-91162800D01*
X149966105Y-91162800D01*
X149927429Y-91107565D01*
X149760885Y-90941021D01*
X149567950Y-90805926D01*
X149354488Y-90706387D01*
X149126983Y-90645428D01*
X149108106Y-90643776D01*
X148892350Y-90624899D01*
X148676594Y-90643776D01*
X148657717Y-90645428D01*
X148430212Y-90706387D01*
X148216750Y-90805926D01*
X148023815Y-90941021D01*
X147857271Y-91107565D01*
X147722176Y-91300500D01*
X147622637Y-91513962D01*
X147569895Y-91710803D01*
X147561678Y-91741468D01*
X147541149Y-91976100D01*
X147556953Y-92156725D01*
X147561678Y-92210733D01*
X147622637Y-92438238D01*
X147722176Y-92651700D01*
X147857271Y-92844635D01*
X148000453Y-92987817D01*
X146650471Y-94337800D01*
X142580572Y-94337800D01*
X142507580Y-94337035D01*
X142503158Y-94336989D01*
X142503156Y-94336989D01*
X142480594Y-94341867D01*
X142454264Y-94347559D01*
X142421127Y-94351276D01*
X142404557Y-94353135D01*
X142365386Y-94366776D01*
X142324845Y-94375541D01*
X142324843Y-94375542D01*
X142279508Y-94396681D01*
X142232274Y-94413130D01*
X142197104Y-94435107D01*
X142182989Y-94441689D01*
X142159507Y-94452639D01*
X142119979Y-94483301D01*
X142090270Y-94501865D01*
X142081892Y-94507100D01*
X142073060Y-94508578D01*
X142065770Y-94503378D01*
X142064518Y-94493708D01*
X142115803Y-94328546D01*
X142136400Y-94154519D01*
X142136400Y-93328779D01*
X142675780Y-92789400D01*
X142738595Y-92789400D01*
X142777271Y-92844635D01*
X142943815Y-93011179D01*
X143136750Y-93146274D01*
X143350212Y-93245813D01*
X143577717Y-93306772D01*
X143596594Y-93308424D01*
X143812350Y-93327301D01*
X144028106Y-93308424D01*
X144046983Y-93306772D01*
X144274488Y-93245813D01*
X144487950Y-93146274D01*
X144680885Y-93011179D01*
X144847429Y-92844635D01*
X144982524Y-92651700D01*
X145082063Y-92438238D01*
X145143022Y-92210733D01*
X145147747Y-92156725D01*
X145163551Y-91976100D01*
X145143022Y-91741468D01*
X145134806Y-91710803D01*
X145082063Y-91513962D01*
X144982524Y-91300500D01*
X144847429Y-91107565D01*
X144680885Y-90941021D01*
X144487950Y-90805926D01*
X144274488Y-90706387D01*
X144046983Y-90645428D01*
X144028106Y-90643776D01*
X143812350Y-90624899D01*
X143596594Y-90643776D01*
X143577717Y-90645428D01*
X143350212Y-90706387D01*
X143136750Y-90805926D01*
X142943815Y-90941021D01*
X142777271Y-91107565D01*
X142738595Y-91162800D01*
X142333622Y-91162800D01*
X142262657Y-91162057D01*
X142256209Y-91161989D01*
X142256206Y-91161989D01*
X142207319Y-91172559D01*
X142157607Y-91178135D01*
X142118433Y-91191776D01*
X142092775Y-91197325D01*
X142077895Y-91200542D01*
X142060600Y-91208607D01*
X142032564Y-91221679D01*
X141985324Y-91238130D01*
X141950153Y-91260107D01*
X141938349Y-91265612D01*
X141912557Y-91277639D01*
X141873029Y-91308301D01*
X141830615Y-91334804D01*
X141801185Y-91364029D01*
X141799428Y-91365392D01*
X141744562Y-91420258D01*
X141701168Y-91463350D01*
X141700643Y-91464177D01*
X141564185Y-91600635D01*
X141518619Y-91571884D01*
X141501803Y-91561274D01*
X141383213Y-91513962D01*
X141302696Y-91481839D01*
X141092445Y-91440017D01*
X140878094Y-91437211D01*
X140878093Y-91437211D01*
X140807669Y-91449312D01*
X140666820Y-91473514D01*
X140465700Y-91547712D01*
X140281469Y-91657317D01*
X140120297Y-91798661D01*
X140120295Y-91798663D01*
X139987582Y-91967009D01*
X139887770Y-92156722D01*
X139824197Y-92361454D01*
X139808717Y-92492244D01*
X139803600Y-92535480D01*
X139803600Y-94139414D01*
X139818215Y-94298470D01*
X139876404Y-94504791D01*
X139876405Y-94504794D01*
X139971216Y-94697053D01*
X140073590Y-94834149D01*
X140099480Y-94868820D01*
X140256897Y-95014334D01*
X140314800Y-95050868D01*
X140438196Y-95128726D01*
X140521352Y-95161901D01*
X140637304Y-95208161D01*
X140847555Y-95249983D01*
X141061906Y-95252789D01*
X141061907Y-95252789D01*
X141132331Y-95240688D01*
X141273180Y-95216486D01*
X141377022Y-95178176D01*
X141385969Y-95178528D01*
X141392048Y-95185103D01*
X141389344Y-95197426D01*
X140311298Y-96275472D01*
X140126450Y-96259299D01*
X139910694Y-96278176D01*
X139891817Y-96279828D01*
X139664312Y-96340787D01*
X139450850Y-96440326D01*
X139257915Y-96575421D01*
X139091371Y-96741965D01*
X139052695Y-96797200D01*
X138179580Y-96797200D01*
X136703300Y-95320921D01*
X136703300Y-94923264D01*
X136705067Y-94921714D01*
X136739707Y-94891337D01*
X136872419Y-94722991D01*
X136972231Y-94533278D01*
X137035803Y-94328546D01*
X137056400Y-94154519D01*
X137056400Y-92550587D01*
X137053848Y-92522807D01*
X137041785Y-92391529D01*
X136983596Y-92185208D01*
X136983595Y-92185205D01*
X136888784Y-91992946D01*
X136760521Y-91821181D01*
X136736159Y-91798661D01*
X136603103Y-91675666D01*
X136517583Y-91621707D01*
X136421804Y-91561274D01*
X136297443Y-91511660D01*
X136222696Y-91481839D01*
X136012445Y-91440017D01*
X135798094Y-91437211D01*
X135798093Y-91437211D01*
X135727669Y-91449312D01*
X135586820Y-91473514D01*
X135385700Y-91547712D01*
X135201469Y-91657317D01*
X135040297Y-91798661D01*
X135040295Y-91798663D01*
X134907582Y-91967009D01*
X134807770Y-92156722D01*
X134744197Y-92361454D01*
X134728717Y-92492244D01*
X134723600Y-92535480D01*
X134471061Y-92535480D01*
X134471404Y-92522807D01*
X134473750Y-92436100D01*
X134459882Y-92244965D01*
X134453731Y-92160181D01*
X134394088Y-91890034D01*
X134296074Y-91631332D01*
X134161742Y-91389489D01*
X134036995Y-91226031D01*
X133993904Y-91169568D01*
X133796078Y-90976180D01*
X133572407Y-90813376D01*
X133548088Y-90800581D01*
X133327576Y-90684563D01*
X133066718Y-90592445D01*
X132858812Y-90551467D01*
X132795291Y-90538947D01*
X132518985Y-90525192D01*
X132518981Y-90525192D01*
X132361615Y-90540206D01*
X132243588Y-90551467D01*
X132037582Y-90601876D01*
X131974864Y-90617223D01*
X131718461Y-90721077D01*
X131718456Y-90721080D01*
X131479721Y-90860865D01*
X131479719Y-90860867D01*
X131479715Y-90860869D01*
X131379491Y-90941021D01*
X131263666Y-91033649D01*
X131074816Y-91235811D01*
X130917128Y-91463118D01*
X130793904Y-91710807D01*
X130707727Y-91973690D01*
X130660626Y-92244965D01*
X130660401Y-92246262D01*
X130652918Y-92522808D01*
X123374250Y-92522808D01*
X123374250Y-90395500D01*
X173627951Y-90395500D01*
X173627950Y-119611700D01*
G37*
%TD.AperFunction*%
M02*
