%TF.GenerationSoftware,KiCad,Pcbnew,5.99.0-unknown-d4461f6c5~91~ubuntu20.04.1*%
%TF.CreationDate,2020-09-15T15:28:34-03:00*%
%TF.ProjectId,Franzininho,4672616e-7a69-46e6-996e-686f2e6b6963,rev?*%
%TF.SameCoordinates,Original*%
%TF.FileFunction,Soldermask,Bot*%
%TF.FilePolarity,Negative*%
%FSLAX46Y46*%
G04 Gerber Fmt 4.6, Leading zero omitted, Abs format (unit mm)*
G04 Created by KiCad (PCBNEW 5.99.0-unknown-d4461f6c5~91~ubuntu20.04.1) date 2020-09-15 15:28:34*
%MOMM*%
%LPD*%
G01*
G04 APERTURE LIST*
%ADD10C,1.100000*%
%ADD11C,2.082800*%
%ADD12C,3.419200*%
%ADD13C,1.879600*%
%ADD14O,3.251200X1.727200*%
%ADD15O,1.520000X3.000000*%
%ADD16R,1.600000X2.400000*%
%ADD17O,1.600000X2.400000*%
%ADD18R,1.600000X1.600000*%
%ADD19C,1.600000*%
%ADD20C,3.000000*%
G04 APERTURE END LIST*
D10*
X125852350Y-107268600D03*
X125852350Y-102768600D03*
D11*
X128352350Y-103891600D03*
X128352350Y-106145600D03*
X128352350Y-101518600D03*
D12*
X125952350Y-110818600D03*
X125952350Y-99218600D03*
D11*
X128352350Y-108518600D03*
X140055850Y-109814100D03*
X132435850Y-109814100D03*
X139956850Y-100452100D03*
X132336850Y-100452100D03*
D13*
X144145000Y-97790000D03*
X146685000Y-97790000D03*
D11*
X131182350Y-103928100D03*
X141342350Y-103928100D03*
X131244850Y-106893100D03*
X141404850Y-106893100D03*
X141404850Y-112776000D03*
X131244850Y-112776000D03*
D13*
X149352000Y-117348000D03*
X149352000Y-114808000D03*
D11*
X147485850Y-100543100D03*
X147485850Y-110703100D03*
X132506450Y-97610500D03*
X140126450Y-97610500D03*
X144320850Y-100543100D03*
X144320850Y-110703100D03*
X168879850Y-113761100D03*
X168879850Y-111221100D03*
X168879850Y-108681100D03*
X168879850Y-106141100D03*
X168879850Y-103601100D03*
X168879850Y-101061100D03*
X168879850Y-98521100D03*
X168879850Y-95981100D03*
X148892350Y-91976100D03*
X146352350Y-91976100D03*
X143812350Y-91976100D03*
D14*
X163779200Y-96494600D03*
X157276800Y-96494600D03*
X163779200Y-91973400D03*
X157276800Y-91973400D03*
D15*
X135890000Y-93345000D03*
X138430000Y-93345000D03*
X140970000Y-93345000D03*
D16*
X164084000Y-101092000D03*
D17*
X161544000Y-101092000D03*
X159004000Y-101092000D03*
X156464000Y-101092000D03*
X156464000Y-108712000D03*
X159004000Y-108712000D03*
X161544000Y-108712000D03*
X164084000Y-108712000D03*
D13*
X144272000Y-117348000D03*
X144272000Y-114808000D03*
D18*
X151892000Y-97282000D03*
D19*
X151892000Y-99782000D03*
D20*
X132562350Y-117436100D03*
X171562350Y-117436100D03*
X171562350Y-92436100D03*
X132562350Y-92436100D03*
M02*
